<?xml version="1.0" encoding="iso-8859-1"?>
<!-- Generator: Adobe Illustrator 19.0.0, SVG Export Plug-In . SVG Version: 6.00 Build 0)  -->
<svg version="1.1" id="Capa_1" xmlns="http://www.w3.org/2000/svg" xmlns:xlink="http://www.w3.org/1999/xlink" x="0px" y="0px"
	 viewBox="0 0 512 512" style="enable-background:new 0 0 512 512;" xml:space="preserve">
<g>
	<g>
		<path d="M436.999,74.969C388.64,26.625,324.359,0,256,0S123.36,26.625,75.001,74.969C26.636,123.319,0,187.595,0,255.957
			c0,68.399,26.636,132.702,75.001,181.063C123.355,485.372,187.636,512,256,512c60.36,0,118.971-21.418,165.036-60.308
			c3.165-2.672,3.565-7.404,0.893-10.569c-2.671-3.165-7.403-3.565-10.568-0.893C367.997,476.839,312.823,497,256,497
			c-64.358,0-124.872-25.068-170.394-70.586C40.075,380.885,15,320.349,15,255.957C15,123.093,123.112,15,256,15
			s241,108.093,241,240.957c0,59.391-21.785,116.449-61.344,160.664c-2.762,3.087-2.498,7.829,0.589,10.59
			c3.088,2.762,7.829,2.499,10.591-0.588C488.857,379.653,512,319.042,512,255.957C512,187.595,485.364,123.319,436.999,74.969z"/>
	</g>
</g>
<g>
	<g>
		<path d="M255.998,34.951c-121.857,0-220.995,99.156-220.995,221.036c0,121.877,99.138,221.032,220.995,221.032
			c121.859,0,220.999-99.154,220.999-221.032C476.997,134.107,377.857,34.951,255.998,34.951z M50.003,255.987
			c0-110.459,87.36-200.884,196.603-205.813l-38.949,175.673L71.92,348.392C57.909,320.584,50.003,289.194,50.003,255.987z
			 M248.493,110.959v130.32l-112.397,69.382l83.39-75.285c0.867-0.783,1.536-1.754,1.958-2.832c0.141-0.359,0.254-0.731,0.338-1.111
			L248.493,110.959z M255.998,462.019c-73.908,0-138.839-39.139-175.192-97.776l113.945-43.144c3.873-1.467,5.824-5.796,4.357-9.67
			c-1.467-3.874-5.795-5.824-9.67-4.358l-49.067,18.579L256,254.273l115.651,71.39L258.65,282.875c-1.713-0.647-3.6-0.647-5.313,0
			l-33.67,12.749c-3.873,1.467-5.824,5.796-4.357,9.67c1.467,3.874,5.795,5.825,9.67,4.358l31.014-11.744l175.198,66.338
			C394.837,422.881,329.906,462.019,255.998,462.019z M304.344,225.847l-7.941-35.822c-0.896-4.043-4.906-6.595-8.945-5.699
			c-4.044,0.896-6.596,4.902-5.699,8.946l8.393,37.86c0.282,1.581,1.065,3.084,2.35,4.244l83.36,75.259l-112.354-69.356V111.022
			l2.248,10.14c0.021,0.094,0.052,0.183,0.076,0.275l9.134,41.197c0.896,4.043,4.903,6.596,8.945,5.699
			c4.044-0.896,6.596-4.902,5.699-8.946L265.395,50.174c109.242,4.931,196.602,95.355,196.602,205.813
			c0,33.206-7.906,64.597-21.917,92.404L304.344,225.847z"/>
	</g>
</g>
<g>
</g>
<g>
</g>
<g>
</g>
<g>
</g>
<g>
</g>
<g>
</g>
<g>
</g>
<g>
</g>
<g>
</g>
<g>
</g>
<g>
</g>
<g>
</g>
<g>
</g>
<g>
</g>
<g>
</g>
</svg>
