<?xml version="1.0" encoding="utf-8"?>
<svg id="master-artboard" viewBox="0 0 500 500" xmlns="http://www.w3.org/2000/svg"  width="100%" height="100%" version="1.1" style="shape-rendering:geometricPrecision; text-rendering:geometricPrecision; image-rendering:optimizeQuality; fill-rule:evenodd; clip-rule:evenodd">
	<rect id="ee-background" x="0" y="0" width="500" height="500" style="fill: white; fill-opacity: 0; pointer-events: none;"/><g transform="matrix(1.0000000610351563, 0, 0, 1.0000000610351563, 0, 215.9999979248047)"><g transform="translate(0.000000,68.000000) scale(0.100000,-0.100000)" fill="#000000" stroke="none">
<path d="M458 558 c-18 -15 -338 -442 -338 -452 0 -3 93 -5 208 -4 l207 3 167&#10;220 c93 121 168 226 168 233 0 9 -46 12 -198 12 -144 0 -203 -3 -214 -12z"/>
<path d="M954 562 c-13 -9 -344 -447 -344 -456 0 -3 47 -6 105 -6 l104 0 54&#10;67 c110 139 287 380 287 391 0 13 -187 17 -206 4z"/>
<path d="M1252 563 c-7 -3 -90 -107 -183 -232 l-170 -226 73 -3 c40 -2 82 0&#10;93 3 22 6 357 449 348 459 -8 7 -143 7 -161 -1z"/>
<path d="M1522 563 c-16 -6 -342 -438 -342 -453 0 -7 23 -10 62 -8 l63 3 167&#10;220 c92 121 168 226 168 233 0 12 -90 16 -118 5z"/>
<path d="M1759 558 c-20 -16 -328 -423 -335 -443 -5 -12 4 -15 45 -15 l50 0&#10;168 221 c93 122 168 226 168 233 0 16 -77 19 -96 4z"/>
<path d="M1978 560 c-16 -10 -348 -443 -348 -454 0 -9 183 -7 195 2 6 4 25 26&#10;44 50 l33 42 321 -2 322 -3 5 -45 5 -45 80 0 80 0 3 219 c2 153 -1 223 -9 232&#10;-9 11 -76 14 -363 14 -208 0 -358 -5 -368 -10z m560 -119 c9 -5 12 -25 10 -57&#10;l-3 -49 -267 -3 c-148 -1 -268 2 -268 6 0 13 67 99 82 105 22 9 432 7 446 -2z"/>
<path d="M2812 557 c-9 -11 -12 -72 -10 -233 l3 -219 80 0 80 0 3 133 c2 96 6&#10;132 15 132 7 0 68 -34 137 -75 120 -72 127 -75 188 -75 70 0 87 7 232 95 50&#10;30 95 55 100 55 6 0 10 -49 10 -119 0 -66 3 -126 6 -135 5 -13 22 -16 85 -16&#10;l79 0 -2 233 -3 232 -80 0 -81 0 -168 -108 c-92 -60 -173 -106 -180 -104 -7 3&#10;-84 52 -172 108 l-159 104 -75 3 c-58 3 -79 0 -88 -11z"/>
<path d="M3922 562 c-9 -7 -12 -60 -10 -233 l3 -224 475 0 475 0 0 135 0 135&#10;-234 3 c-255 3 -264 1 -259 -52 l3 -31 160 -5 160 -5 0 -30 0 -30 -308 -3&#10;-308 -2 3 112 3 113 390 5 390 5 3 49 c2 32 -1 52 -10 57 -17 11 -919 11 -936&#10;1z"/>
</g></g></svg>