<?xml version="1.0" encoding="utf-8"?>
<!-- Svg Vector Icons : http://www.onlinewebfonts.com/icon -->
<!DOCTYPE svg PUBLIC "-//W3C//DTD SVG 1.1//EN" "http://www.w3.org/Graphics/SVG/1.1/DTD/svg11.dtd">
<svg version="1.1" xmlns="http://www.w3.org/2000/svg" xmlns:xlink="http://www.w3.org/1999/xlink" x="0px" y="0px" viewBox="0 0 1000 1000" enable-background="new 0 0 1000 1000" xml:space="preserve">
<metadata> Svg Vector Icons : http://www.onlinewebfonts.com/icon </metadata>
<g><g><path d="M820.7,714.3c-76.1,0-138,61.9-138,137.9c0,76.1,61.9,137.9,138,137.9c76,0,137.9-61.9,137.9-137.9C958.6,776.1,896.7,714.3,820.7,714.3z M820.7,943.3c-50.3,0-91.2-40.9-91.2-91.2c0-50.3,40.9-91.1,91.2-91.1c50.3,0,91.2,40.9,91.2,91.1C911.8,902.4,870.9,943.3,820.7,943.3z"/><path d="M546.8,643.9h163.6V620h87C923.9,620,990,530,990,419c0-79-33.7-147.1-98.6-180c-17.9-132.6-91-229.2-181-229.2H289.7c-90.1,0-163.1,96.6-181.1,229.1C43.7,271.8,10,340,10,419c0,60.7,19.9,115,58.6,151.9v125.3h155.9V620h65.2v23.9h163.6v307.3h-79.1v31.1h251.8v-31.1h-79.1L546.8,643.9L546.8,643.9z M641.5,218.1c0-38,30.9-68.9,68.8-68.9c38,0,68.8,30.9,68.8,68.9H641.5z M705.2,399.9c0,8.6-7,15.6-15.6,15.6H310.3c-8.6,0-15.6-7-15.6-15.6c0-8.6,7-15.6,15.6-15.6h379.3C698.3,384.3,705.2,391.3,705.2,399.9z M886,419c0,36.1-29.3,65.3-65.3,65.3c-36.1,0-65.3-29.2-65.3-65.3c0-36.1,29.3-65.3,65.3-65.3C856.7,353.7,886,382.9,886,419z M179.3,484.3c-36,0-65.3-29.2-65.3-65.3c0-36.1,29.3-65.3,65.3-65.3c36.1,0,65.3,29.2,65.3,65.3C244.7,455.1,215.4,484.3,179.3,484.3z M202.6,218.1c-15.4,0-29.8,1.4-43.5,3.9c19.3-95.1,71.2-165.3,130.5-165.3h420.6c59.2,0,111.1,70.2,130.4,165.3c-9.7-1.8-19.9-2.8-30.5-3.4c0-0.2,0.1-0.4,0.1-0.6c0-55.2-44.9-100-100-100c-55.2,0-100,44.9-100,100L202.6,218.1L202.6,218.1z M310.3,472.7c-8.6,0-15.6-7-15.6-15.6c0-8.6,7-15.6,15.6-15.6h379.3c8.6,0,15.6,7,15.6,15.6c0,8.6-7,15.6-15.6,15.6H310.3z"/></g></g>
</svg>