<svg id="Capa_1" enable-background="new 0 0 511.939 511.939" height="512" viewBox="0 0 511.939 511.939" width="512" xmlns="http://www.w3.org/2000/svg"><g><path d="m478.09 255.979h-11.868c-3.567-24.8-24.628-44.197-50.156-45.145-6.104-.214-12.122.592-17.857 2.404-3.97 1.256-8.304-.88-9.656-4.769-7.367-21.12-27.365-35.31-49.762-35.31-22.404 0-42.402 14.208-49.765 35.358-1.344 3.865-5.64 5.995-9.587 4.744-5.756-1.828-11.785-2.645-17.927-2.426-25.506.947-46.56 20.329-50.141 45.145h-90.96c-4.143 0-7.5 3.358-7.5 7.5s3.357 7.5 7.5 7.5h357.68c10.394 0 18.85 8.456 18.85 18.85 0 5.039-1.962 9.775-5.523 13.337s-8.294 5.523-13.326 5.523h-444.242c-10.394 0-18.85-8.461-18.85-18.86 0-5.032 1.962-9.765 5.523-13.327s8.294-5.523 13.326-5.523h56.38c.017 0 .033-.002.05-.002s.033.002.05.002c4.143 0 7.5-3.358 7.5-7.5v-149.96c0-.128-.003-.244-.009-.371l-.002-.259c0-12.065 4.704-23.419 13.242-31.965 16.004-15.995 41.107-17.47 58.783-4.433-4.436 7.507-4.201 17.074 1.082 24.478l15.547 21.76-6.156 6.156c-5.68 5.679-8.808 13.234-8.808 21.273s3.128 15.594 8.807 21.273c5.864 5.864 13.566 8.795 21.273 8.795 7.704 0 15.413-2.932 21.283-8.795l85.181-85.18c5.686-5.686 8.816-13.244 8.816-21.283 0-8.033-3.131-15.588-8.816-21.273h-.001c-11.729-11.73-30.816-11.729-42.547 0l-6.158 6.158-21.755-15.534c-7.608-5.443-17.514-5.534-25.123-.693-41.347-36.274-104.519-34.693-143.95 4.747-19.906 19.896-30.869 46.359-30.869 74.515v143.09h-3.8c-9.039 0-17.539 3.522-23.934 9.917-6.394 6.395-9.915 14.895-9.915 23.933 0 18.67 15.185 33.86 33.85 33.86h2.152l29.955 109.845-19.5 19.491c-11.726 11.727-11.728 30.816.001 42.557 5.866 5.866 13.571 8.799 21.277 8.799s15.413-2.934 21.28-8.8l21.715-21.724c2.123.262 4.271.411 6.431.411h245.529c4.143 0 7.5-3.358 7.5-7.5s-3.357-7.5-7.5-7.5h-245.53c-2.547 0-5.071-.256-7.529-.769-13.188-2.692-23.958-12.312-28.107-25.105-.017-.051-.033-.102-.051-.152-.167-.479-.323-.992-.487-1.606l-29.438-107.947h408.843l-29.448 107.986c-.153.575-.31 1.087-.477 1.567-.018.051-.034.102-.051.152-4.149 12.793-14.919 22.413-28.135 25.111-2.431.506-4.955.763-7.502.763-4.143 0-7.5 3.358-7.5 7.5s3.357 7.5 7.5 7.5c2.162 0 4.312-.149 6.431-.411l21.716 21.724c5.866 5.866 13.57 8.799 21.276 8.799 7.707 0 15.415-2.934 21.283-8.802 11.725-11.738 11.723-30.827-.005-42.555l-19.498-19.49 29.955-109.845h2.152c9.039 0 17.539-3.522 23.934-9.917 6.395-6.396 9.916-14.898 9.916-23.943.001-18.664-15.183-33.849-33.848-33.849zm-216.035-30.155c4.397-.149 8.731.428 12.849 1.734 11.612 3.685 24.306-2.65 28.289-14.113 5.265-15.124 19.57-25.286 35.598-25.286 16.024 0 30.33 10.147 35.597 25.246 3.993 11.474 16.712 17.816 28.343 14.136 4.097-1.295 8.409-1.866 12.792-1.717 17.516.65 32.09 13.46 35.485 30.155h-224.422c3.403-16.704 17.972-29.505 35.469-30.155zm24.725-175.933c3.862 0 7.726 1.471 10.667 4.411h-.001c2.853 2.853 4.424 6.641 4.424 10.667 0 4.032-1.571 7.824-4.424 10.677l-85.177 85.177c-5.892 5.882-15.466 5.884-21.346.003-2.847-2.846-4.414-6.634-4.414-10.667s1.567-7.82 4.414-10.667l29.816-29.817 44.724-44.723c.005-.005.01-.011.015-.016l10.634-10.634c2.942-2.941 6.805-4.411 10.668-4.411zm-67.583-2.574c1.46-1.457 3.375-2.203 5.304-2.203 1.521 0 3.049.463 4.37 1.408l19.724 14.084-25.684 25.685-25.686 25.685-14.091-19.723c-2.139-2.997-1.803-7.06.799-9.662zm-166.548 65.572c0-24.147 9.401-46.843 26.474-63.907 33.447-33.455 86.816-35.152 122.292-5.093l-21.445 21.451c-23.595-18.358-57.83-16.698-79.516 4.978-11.372 11.383-17.635 26.502-17.635 42.571 0 .26.002.521.011.781v142.309h-30.181zm41.699 356.138-15.941 15.948c-5.884 5.883-15.459 5.885-21.341.003-5.883-5.889-5.885-15.465-.005-21.346l15.022-15.015c5.265 8.839 13.022 15.944 22.265 20.41zm360.529 15.949c-5.886 5.884-15.459 5.884-21.343.001l-15.945-15.951c9.248-4.469 17.004-11.572 22.267-20.407l15.02 15.014c5.882 5.88 5.88 15.456.001 21.343z"/><path d="m232.05 393.089c0 14.27 10.73 25.88 23.92 25.88s23.92-11.61 23.92-25.88c0-14.271-10.73-25.88-23.92-25.88s-23.92 11.609-23.92 25.88zm32.84 0c0 5.999-4.002 10.88-8.92 10.88s-8.92-4.881-8.92-10.88c0-6 4.002-10.88 8.92-10.88s8.92 4.88 8.92 10.88z"/><path d="m172.59 382.089c0 4.142 3.357 7.5 7.5 7.5s7.5-3.358 7.5-7.5c0-3.452 2.809-6.26 6.26-6.26 3.458 0 6.271 2.808 6.271 6.26 0 4.142 3.357 7.5 7.5 7.5s7.5-3.358 7.5-7.5c0-11.723-9.542-21.26-21.271-21.26-11.723 0-21.26 9.537-21.26 21.26z"/><path d="m295.63 382.089c0 4.142 3.357 7.5 7.5 7.5s7.5-3.358 7.5-7.5c0-3.452 2.812-6.26 6.27-6.26 3.452 0 6.261 2.808 6.261 6.26 0 4.142 3.357 7.5 7.5 7.5s7.5-3.358 7.5-7.5c0-11.723-9.537-21.26-21.261-21.26-11.729 0-21.27 9.537-21.27 21.26z"/></g></svg>