<svg xmlns="http://www.w3.org/2000/svg" data-color="color-2" viewBox="0 0 55 55"><title>bano</title><g fill="#212121" class="nc-icon-wrapper"><path d="M39.31 27.45h-0.64a2.82 2.82 0 0 0-2.68-2.41c-0.33-0.01-0.65 0.04-0.95 0.12-0.21 0.07-0.45-0.04-0.51-0.25a2.81 2.81 0 0 0-2.66-1.88c-1.19 0-2.26 0.76-2.66 1.88a0.42 0.42 0 0 1-0.5 0.26c-0.31-0.1-0.63-0.14-0.97-0.13a2.83 2.83 0 0 0-2.67 2.41h-4.86c-0.22 0-0.4 0.18-0.4 0.4s0.18 0.4 0.4 0.4h19.1c0.55 0 1.01 0.45 1.01 1.01 0 0.27-0.11 0.53-0.29 0.71s-0.45 0.29-0.72 0.29h-23.72c-0.55 0-1.01-0.45-1.01-1 0-0.27 0.11-0.53 0.29-0.71s0.45-0.29 0.72-0.3h3.01a0.4 0.4 0 0 0 0.4-0.4v-8.04c0-0.64 0.25-1.25 0.71-1.7 0.85-0.85 2.2-0.93 3.14-0.24a1.2 1.2 0 0 0 0.06 1.3l0.83 1.16-0.33 0.33c-0.3 0.3-0.47 0.7-0.47 1.14s0.17 0.84 0.47 1.14c0.31 0.31 0.72 0.47 1.14 0.46 0.41 0 0.82-0.16 1.13-0.46l4.55-4.55a1.61 1.61 0 0 0 0-2.28c-0.62-0.62-1.65-0.62-2.27 0l-0.33 0.33-1.16-0.83a1.19 1.19 0 0 0-1.34-0.03c-2.21-1.94-5.58-1.85-7.69 0.25a5.6 5.6 0 0 0-1.65 3.98v7.64h-0.2c-0.48 0-0.93 0.19-1.28 0.53-0.34 0.34-0.53 0.79-0.53 1.28 0 1 0.81 1.81 1.81 1.8h0.11l1.6 5.87-1.04 1.04c-0.62 0.62-0.62 1.65 0 2.27a1.6 1.6 0 0 0 2.27 0l1.16-1.16c0.12 0.02 0.23 0.02 0.35 0.03h13.11c0.22 0 0.4-0.18 0.4-0.4s-0.18-0.4-0.4-0.4h-13.11c-0.13 0-0.27-0.02-0.4-0.05-0.7-0.14-1.28-0.66-1.51-1.34v-0.01a1.19 1.19 0 0 1-0.02-0.08l-1.58-5.77h21.83l-1.56 5.77c-0.01 0.03-0.02 0.06-0.03 0.08l-0.01 0.01c-0.22 0.69-0.8 1.19-1.5 1.34a1.97 1.97 0 0 1-0.4 0.05c-0.22 0-0.4 0.18-0.4 0.4s0.18 0.4 0.4 0.4a2.8 2.8 0 0 0 0.34-0.03l1.17 1.16a1.6 1.6 0 0 0 2.27 0c0.62-0.62 0.62-1.65 0-2.27l-1.04-1.04 1.6-5.87h0.11c0.48 0 0.93-0.19 1.28-0.52 0.34-0.34 0.53-0.79 0.53-1.28 0-1-0.81-1.81-1.81-1.81z m-11.54-1.61c0.23-0.01 0.46 0.03 0.69 0.09 0.62 0.2 1.3-0.14 1.51-0.75a2.01 2.01 0 0 1 3.8-0.01c0.21 0.61 0.89 0.95 1.51 0.76a2.02 2.02 0 0 1 2.58 1.52h-11.98c0.18-0.89 0.96-1.58 1.89-1.61z m1.33-9.4c0.2 0 0.41 0.08 0.57 0.24a0.8 0.8 0 0 1 0.23 0.57 0.8 0.8 0 0 1-0.23 0.57l-4.55 4.55c-0.31 0.31-0.83 0.31-1.14 0-0.15-0.15-0.23-0.36-0.24-0.57s0.08-0.42 0.24-0.57l1.58-1.59 2.4-2.39 0.57-0.57a0.8 0.8 0 0 1 0.57-0.24z m-3.62-0.13a0.4 0.4 0 0 1 0.29-0.12c0.08 0 0.16 0.03 0.23 0.07l1.06 0.76-1.38 1.37-1.37 1.37-0.75-1.05a0.4 0.4 0 0 1 0.05-0.52z m-8.89 3.5c0-1.29 0.5-2.5 1.42-3.41a4.82 4.82 0 0 1 6.52-0.28l-1.14 1.15a3.22 3.22 0 0 0-4.24 0.27c-0.61 0.61-0.94 1.42-0.95 2.27v7.64h-1.61z m2.23 19.01l-0.86 0.86c-0.31 0.31-0.83 0.31-1.14 0a0.81 0.81 0 0 1 0-1.14l0.8-0.8a2.8 2.8 0 0 0 1.2 1.08z m19.25 0.86c-0.31 0.31-0.83 0.31-1.14 0l-0.85-0.86a2.8 2.8 0 0 0 1.19-1.08l0.8 0.8c0.31 0.31 0.31 0.83 0 1.14z" fill="#212121"></path><path d="M26.17 34.78c0 0.77 0.57 1.38 1.28 1.37s1.28-0.62 1.27-1.37c0-0.77-0.57-1.38-1.27-1.39s-1.28 0.62-1.28 1.39z m1.75 0c0 0.32-0.21 0.58-0.47 0.57s-0.48-0.26-0.48-0.57c0-0.32 0.21-0.58 0.48-0.59s0.48 0.26 0.47 0.59z" fill="#212121"></path><path d="M23 34.19c0 0.22 0.18 0.4 0.4 0.4s0.4-0.18 0.4-0.4a0.34 0.34 0 0 1 0.33-0.34c0.19 0 0.34 0.15 0.34 0.34 0 0.22 0.18 0.4 0.4 0.4s0.4-0.18 0.4-0.4c0-0.62-0.51-1.14-1.14-1.14-0.62 0-1.14 0.51-1.13 1.14z" fill="#212121"></path><path d="M29.57 34.19c0 0.22 0.18 0.4 0.4 0.4s0.4-0.18 0.4-0.4c0-0.19 0.15-0.34 0.33-0.34a0.34 0.34 0 0 1 0.34 0.34c0 0.22 0.18 0.4 0.4 0.4s0.4-0.18 0.4-0.4c0-0.62-0.51-1.14-1.14-1.14-0.62 0-1.14 0.51-1.13 1.14z" fill="#212121"></path></g></svg>