<?xml version="1.0" encoding="utf-8"?>
<svg id="master-artboard" viewBox="0 0 500 500" xmlns="http://www.w3.org/2000/svg"  width="100%" height="100%" version="1.1" style="shape-rendering:geometricPrecision; text-rendering:geometricPrecision; image-rendering:optimizeQuality; fill-rule:evenodd; clip-rule:evenodd">
	<rect id="ee-background" x="0" y="0" width="500" height="500" style="fill: white; fill-opacity: 0; pointer-events: none;"/><path d="M 170.1800537109375 269.0664367675781 C 167.3800506591797 269.0664367675781 165.19337463378906 270.2131042480469 163.62005615234375 272.5064392089844 C 162.05337524414062 274.79974365234375 161.27005004882812 277.9631042480469 161.27005004882812 281.9964294433594 C 161.27005004882812 290.3764343261719 164.4567108154297 294.5664367675781 170.83004760742188 294.5664367675781 C 172.7567138671875 294.5664367675781 174.62338256835938 294.2964172363281 176.4300537109375 293.7564392089844 C 178.23670959472656 293.22308349609375 180.05337524414062 292.576416015625 181.8800506591797 291.8164367675781 L 181.8800506591797 301.76641845703125 C 178.24671936035156 303.3797607421875 174.13671875 304.1864318847656 169.550048828125 304.1864318847656 C 162.97671508789062 304.1864318847656 157.93670654296875 302.2797546386719 154.4300537109375 298.4664306640625 C 150.9300537109375 294.6531066894531 149.1800537109375 289.1430969238281 149.1800537109375 281.9364318847656 C 149.1800537109375 277.423095703125 150.02671813964844 273.4597473144531 151.7200469970703 270.0464172363281 C 153.4200439453125 266.6330871582031 155.86338806152344 264.00640869140625 159.050048828125 262.16644287109375 C 162.23670959472656 260.3330993652344 165.98670959472656 259.41644287109375 170.300048828125 259.41644287109375 C 175.0000457763672 259.41644287109375 179.49671936035156 260.43975830078125 183.7900390625 262.4864196777344 L 180.1800537109375 271.7464294433594 C 178.57337951660156 270.99310302734375 176.9667205810547 270.3564147949219 175.36004638671875 269.83642578125 C 173.75338745117188 269.3230895996094 172.02671813964844 269.0664367675781 170.1800537109375 269.0664367675781 ZM 190.36305236816406 303.58642578125 L 190.36305236816406 260.03643798828125 L 202.123046875 260.03643798828125 L 202.123046875 294.08642578125 L 218.89305114746094 294.08642578125 L 218.89305114746094 303.58642578125 L 190.36305236816406 303.58642578125 ZM 252.56663513183594 303.58642578125 L 250.4266357421875 295.4264221191406 L 236.27664184570312 295.4264221191406 L 234.07662963867188 303.58642578125 L 221.14663696289062 303.58642578125 L 235.3566436767578 259.8664245605469 L 251.046630859375 259.8664245605469 L 265.4366455078125 303.58642578125 L 252.56663513183594 303.58642578125 M 247.98663330078125 285.77642822265625 L 246.10662841796875 278.6264343261719 C 245.66664123535156 277.0397644042969 245.1366424560547 274.98309326171875 244.51663208007812 272.4564208984375 C 243.8899688720703 269.9364318847656 243.4766387939453 268.1297607421875 243.27664184570312 267.03643798828125 C 243.0966339111328 268.04974365234375 242.74330139160156 269.7197570800781 242.21664428710938 272.0464172363281 C 241.68997192382812 274.3664245605469 240.52330017089844 278.9430847167969 238.71664428710938 285.77642822265625 L 247.98663330078125 285.77642822265625 ZM 298.60430908203125 290.3664245605469 C 298.60430908203125 293.0664367675781 297.9209899902344 295.4631042480469 296.5543212890625 297.5564270019531 C 295.18096923828125 299.6497497558594 293.2043151855469 301.27642822265625 290.62432861328125 302.4364318847656 C 288.0443115234375 303.60308837890625 285.0143127441406 304.1864318847656 281.5343017578125 304.1864318847656 C 278.6409912109375 304.1864318847656 276.21099853515625 303.98309326171875 274.24432373046875 303.576416015625 C 272.27764892578125 303.1630859375 270.2309875488281 302.4530944824219 268.10430908203125 301.4464111328125 L 268.10430908203125 290.9564208984375 C 270.3509826660156 292.1097717285156 272.684326171875 293.009765625 275.10430908203125 293.65643310546875 C 277.5243225097656 294.2964172363281 279.7476501464844 294.6164245605469 281.7743225097656 294.6164245605469 C 283.52099609375 294.6164245605469 284.8009948730469 294.3164367675781 285.61431884765625 293.7164306640625 C 286.434326171875 293.1097717285156 286.8443298339844 292.32977294921875 286.8443298339844 291.3764343261719 C 286.8443298339844 290.77642822265625 286.6776428222656 290.2530822753906 286.3443298339844 289.8064270019531 C 286.01763916015625 289.3597717285156 285.49432373046875 288.9097595214844 284.7743225097656 288.4564208984375 C 284.0476379394531 287.9964294433594 282.11431884765625 287.0630798339844 278.97430419921875 285.65643310546875 C 276.1343078613281 284.36309814453125 274.0043029785156 283.11309814453125 272.5843200683594 281.90643310546875 C 271.164306640625 280.6930847167969 270.11431884765625 279.3031005859375 269.434326171875 277.7364196777344 C 268.7476501464844 276.1630859375 268.4043273925781 274.3064270019531 268.4043273925781 272.1664123535156 C 268.4043273925781 268.153076171875 269.86431884765625 265.0231018066406 272.7843017578125 262.77642822265625 C 275.7043151855469 260.53643798828125 279.7143249511719 259.41644287109375 284.8143310546875 259.41644287109375 C 289.32098388671875 259.41644287109375 293.91766357421875 260.4597473144531 298.60430908203125 262.5464172363281 L 295.0043029785156 271.6264343261719 C 290.93096923828125 269.759765625 287.414306640625 268.826416015625 284.4543151855469 268.826416015625 C 282.9276428222656 268.826416015625 281.8176574707031 269.09307861328125 281.12432861328125 269.6264343261719 C 280.42431640625 270.16644287109375 280.0743103027344 270.8330993652344 280.0743103027344 271.6264343261719 C 280.0743103027344 272.4797668457031 280.51763916015625 273.24310302734375 281.4043273925781 273.9164123535156 C 282.2909851074219 274.596435546875 284.6876525878906 275.82977294921875 288.5943298339844 277.6164245605469 C 292.34765625 279.3031005859375 294.9543151855469 281.11309814453125 296.414306640625 283.0464172363281 C 297.87432861328125 284.9864196777344 298.60430908203125 287.4264221191406 298.60430908203125 290.3664245605469 ZM 331.18017578125 303.58642578125 L 305.3301696777344 303.58642578125 L 305.3301696777344 260.03643798828125 L 331.18017578125 260.03643798828125 L 331.18017578125 269.4864196777344 L 317.0901794433594 269.4864196777344 L 317.0901794433594 276.33642578125 L 330.1401672363281 276.33642578125 L 330.1401672363281 285.77642822265625 L 317.0901794433594 285.77642822265625 L 317.0901794433594 293.9964294433594 L 331.18017578125 293.9964294433594 L 331.18017578125 303.58642578125 ZM 374.0300598144531 269.0664367675781 C 371.23004150390625 269.0664367675781 369.04339599609375 270.2131042480469 367.4700622558594 272.5064392089844 C 365.90338134765625 274.79974365234375 365.12005615234375 277.9631042480469 365.12005615234375 281.9964294433594 C 365.12005615234375 290.3764343261719 368.3067321777344 294.5664367675781 374.6800537109375 294.5664367675781 C 376.6067199707031 294.5664367675781 378.473388671875 294.2964172363281 380.2800598144531 293.7564392089844 C 382.08673095703125 293.22308349609375 383.90338134765625 292.576416015625 385.73004150390625 291.8164367675781 L 385.73004150390625 301.76641845703125 C 382.0967102050781 303.3797607421875 377.9867248535156 304.1864318847656 373.4000549316406 304.1864318847656 C 366.82672119140625 304.1864318847656 361.7867126464844 302.2797546386719 358.2800598144531 298.4664306640625 C 354.7800598144531 294.6531066894531 353.0300598144531 289.1430969238281 353.0300598144531 281.9364318847656 C 353.0300598144531 277.423095703125 353.876708984375 273.4597473144531 355.570068359375 270.0464172363281 C 357.2700500488281 266.6330871582031 359.71337890625 264.00640869140625 362.9000549316406 262.16644287109375 C 366.08673095703125 260.3330993652344 369.83673095703125 259.41644287109375 374.1500549316406 259.41644287109375 C 378.8500671386719 259.41644287109375 383.3467102050781 260.43975830078125 387.6400451660156 262.4864196777344 L 384.0300598144531 271.7464294433594 C 382.42340087890625 270.99310302734375 380.81671142578125 270.3564147949219 379.2100524902344 269.83642578125 C 377.6033935546875 269.3230895996094 375.876708984375 269.0664367675781 374.0300598144531 269.0664367675781 ZM 438.524169921875 290.3664245605469 C 438.524169921875 293.0664367675781 437.8408508300781 295.4631042480469 436.47418212890625 297.5564270019531 C 435.100830078125 299.6497497558594 433.1241760253906 301.27642822265625 430.544189453125 302.4364318847656 C 427.96417236328125 303.60308837890625 424.9341735839844 304.1864318847656 421.45416259765625 304.1864318847656 C 418.56085205078125 304.1864318847656 416.130859375 303.98309326171875 414.1641845703125 303.576416015625 C 412.197509765625 303.1630859375 410.1508483886719 302.4530944824219 408.024169921875 301.4464111328125 L 408.024169921875 290.9564208984375 C 410.2708435058594 292.1097717285156 412.60418701171875 293.009765625 415.024169921875 293.65643310546875 C 417.4441833496094 294.2964172363281 419.6675109863281 294.6164245605469 421.6941833496094 294.6164245605469 C 423.44085693359375 294.6164245605469 424.7208557128906 294.3164367675781 425.5341796875 293.7164306640625 C 426.35418701171875 293.1097717285156 426.7641906738281 292.32977294921875 426.7641906738281 291.3764343261719 C 426.7641906738281 290.77642822265625 426.5975036621094 290.2530822753906 426.2641906738281 289.8064270019531 C 425.9375 289.3597717285156 425.4141845703125 288.9097595214844 424.6941833496094 288.4564208984375 C 423.9674987792969 287.9964294433594 422.0341796875 287.0630798339844 418.8941650390625 285.65643310546875 C 416.0541687011719 284.36309814453125 413.9241638183594 283.11309814453125 412.5041809082031 281.90643310546875 C 411.08416748046875 280.6930847167969 410.0341796875 279.3031005859375 409.35418701171875 277.7364196777344 C 408.6675109863281 276.1630859375 408.3241882324219 274.3064270019531 408.3241882324219 272.1664123535156 C 408.3241882324219 268.153076171875 409.7841796875 265.0231018066406 412.70416259765625 262.77642822265625 C 415.6241760253906 260.53643798828125 419.6341857910156 259.41644287109375 424.73419189453125 259.41644287109375 C 429.2408447265625 259.41644287109375 433.8375244140625 260.4597473144531 438.524169921875 262.5464172363281 L 434.9241638183594 271.6264343261719 C 430.850830078125 269.759765625 427.33416748046875 268.826416015625 424.3741760253906 268.826416015625 C 422.8475036621094 268.826416015625 421.7375183105469 269.09307861328125 421.044189453125 269.6264343261719 C 420.34417724609375 270.16644287109375 419.9941711425781 270.8330993652344 419.9941711425781 271.6264343261719 C 419.9941711425781 272.4797668457031 420.4375 273.24310302734375 421.3241882324219 273.9164123535156 C 422.2108459472656 274.596435546875 424.6075134277344 275.82977294921875 428.5141906738281 277.6164245605469 C 432.26751708984375 279.3031005859375 434.8741760253906 281.11309814453125 436.33416748046875 283.0464172363281 C 437.794189453125 284.9864196777344 438.524169921875 287.4264221191406 438.524169921875 290.3664245605469 ZM 471.1000061035156 303.58642578125 L 445.25 303.58642578125 L 445.25 260.03643798828125 L 471.1000061035156 260.03643798828125 L 471.1000061035156 269.4864196777344 L 457.010009765625 269.4864196777344 L 457.010009765625 276.33642578125 L 470.05999755859375 276.33642578125 L 470.05999755859375 285.77642822265625 L 457.010009765625 285.77642822265625 L 457.010009765625 293.9964294433594 L 471.1000061035156 293.9964294433594 L 471.1000061035156 303.58642578125 ZM 490.47882080078125 287.7364196777344 L 490.47882080078125 303.58642578125 L 478.71881103515625 303.58642578125 L 478.71881103515625 260.03643798828125 L 492.97882080078125 260.03643798828125 C 504.8188171386719 260.03643798828125 510.73883056640625 264.326416015625 510.73883056640625 272.90643310546875 C 510.73883056640625 277.9530944824219 508.2754821777344 281.8564147949219 503.34881591796875 284.6164245605469 L 516.038818359375 303.58642578125 L 502.6888122558594 303.58642578125 L 493.4588317871094 287.7364196777344 L 490.47882080078125 287.7364196777344 M 490.47882080078125 278.89642333984375 L 492.6888122558594 278.89642333984375 C 496.79547119140625 278.89642333984375 498.84881591796875 277.07977294921875 498.84881591796875 273.4464111328125 C 498.84881591796875 270.4464111328125 496.8321533203125 268.9464111328125 492.798828125 268.9464111328125 L 490.47882080078125 268.9464111328125 L 490.47882080078125 278.89642333984375 ZM 519.9890747070312 303.58642578125 L 519.9890747070312 260.03643798828125 L 531.80908203125 260.03643798828125 L 531.80908203125 303.58642578125 L 519.9890747070312 303.58642578125 ZM 567.0697631835938 303.58642578125 L 541.2197875976562 303.58642578125 L 541.2197875976562 260.03643798828125 L 567.0697631835938 260.03643798828125 L 567.0697631835938 269.4864196777344 L 552.979736328125 269.4864196777344 L 552.979736328125 276.33642578125 L 566.02978515625 276.33642578125 L 566.02978515625 285.77642822265625 L 552.979736328125 285.77642822265625 L 552.979736328125 293.9964294433594 L 567.0697631835938 293.9964294433594 L 567.0697631835938 303.58642578125 ZM 603.1585083007812 290.3664245605469 C 603.1585083007812 293.0664367675781 602.4751586914062 295.4631042480469 601.1085205078125 297.5564270019531 C 599.7351684570312 299.6497497558594 597.758544921875 301.27642822265625 595.1785278320312 302.4364318847656 C 592.5985107421875 303.60308837890625 589.5685424804688 304.1864318847656 586.0885009765625 304.1864318847656 C 583.1951904296875 304.1864318847656 580.7651977539062 303.98309326171875 578.7985229492188 303.576416015625 C 576.8318481445312 303.1630859375 574.78515625 302.4530944824219 572.6585083007812 301.4464111328125 L 572.6585083007812 290.9564208984375 C 574.9052124023438 292.1097717285156 577.238525390625 293.009765625 579.6585083007812 293.65643310546875 C 582.0784912109375 294.2964172363281 584.3018798828125 294.6164245605469 586.3284912109375 294.6164245605469 C 588.0751953125 294.6164245605469 589.3551635742188 294.3164367675781 590.1685180664062 293.7164306640625 C 590.988525390625 293.1097717285156 591.3984985351562 292.32977294921875 591.3984985351562 291.3764343261719 C 591.3984985351562 290.77642822265625 591.2318725585938 290.2530822753906 590.8984985351562 289.8064270019531 C 590.5718383789062 289.3597717285156 590.0485229492188 288.9097595214844 589.3284912109375 288.4564208984375 C 588.6018676757812 287.9964294433594 586.6685180664062 287.0630798339844 583.5285034179688 285.65643310546875 C 580.6885375976562 284.36309814453125 578.5585327148438 283.11309814453125 577.1384887695312 281.90643310546875 C 575.718505859375 280.6930847167969 574.6685180664062 279.3031005859375 573.988525390625 277.7364196777344 C 573.3018188476562 276.1630859375 572.95849609375 274.3064270019531 572.95849609375 272.1664123535156 C 572.95849609375 268.153076171875 574.4185180664062 265.0231018066406 577.3385009765625 262.77642822265625 C 580.258544921875 260.53643798828125 584.2684936523438 259.41644287109375 589.3685302734375 259.41644287109375 C 593.8751831054688 259.41644287109375 598.4718627929688 260.4597473144531 603.1585083007812 262.5464172363281 L 599.5585327148438 271.6264343261719 C 595.4851684570312 269.759765625 591.968505859375 268.826416015625 589.008544921875 268.826416015625 C 587.4818725585938 268.826416015625 586.371826171875 269.09307861328125 585.6785278320312 269.6264343261719 C 584.978515625 270.16644287109375 584.6285400390625 270.8330993652344 584.6285400390625 271.6264343261719 C 584.6285400390625 272.4797668457031 585.0718383789062 273.24310302734375 585.95849609375 273.9164123535156 C 586.8451538085938 274.596435546875 589.2418212890625 275.82977294921875 593.1484985351562 277.6164245605469 C 596.90185546875 279.3031005859375 599.508544921875 281.11309814453125 600.968505859375 283.0464172363281 C 602.4285278320312 284.9864196777344 603.1585083007812 287.4264221191406 603.1585083007812 290.3664245605469 Z" transform="matrix(1, 0, 0, 1, -128, -16)" style="fill: rgb(51, 51, 51); white-space: pre; color: rgb(51, 51, 51);"/></svg>