<?xml version="1.0" encoding="utf-8"?>
<svg id="master-artboard" viewBox="0 0 413.0633239746094 92.25285339355469" version="1.1" xmlns="http://www.w3.org/2000/svg" x="0px" y="0px" style="enable-background:new 0 0 336 235.2;" width="413.0633239746094px" height="92.25285339355469px"><rect id="ee-background" x="0" y="0" width="413.0633239746094" height="92.25285339355469" style="fill: white; fill-opacity: 0; pointer-events: none;"/><defs><style id="ee-google-fonts">@import url(https://fonts.googleapis.com/css?family=Alfa+Slab+One:400);</style></defs><path d="M 452.9248046875 552.3829956054688 L 438.01483154296875 571.572998046875 L 454.3548278808594 595.1329956054688 L 458.1548156738281 595.1329956054688 L 458.1548156738281 610.7130126953125 L 429.8448181152344 610.7130126953125 L 414.8348083496094 584.6829833984375 L 414.8348083496094 610.7130126953125 L 382.5348205566406 610.7130126953125 L 382.5348205566406 595.1329956054688 L 388.2348327636719 595.1329956054688 L 388.2348327636719 552.3829956054688 L 382.5348205566406 552.3829956054688 L 382.5348205566406 536.802978515625 L 414.8348083496094 536.802978515625 L 414.8348083496094 562.35302734375 L 432.2248229980469 536.802978515625 L 456.73480224609375 536.802978515625 L 456.73480224609375 552.3829956054688 L 452.9248046875 552.3829956054688 ZM 493.6251220703125 595.1329956054688 C 495.7784423828125 595.1329956054688 497.3951110839844 594.5796508789062 498.4751281738281 593.4730224609375 C 499.5484619140625 592.3596801757812 500.0851135253906 590.5697021484375 500.0851135253906 588.10302734375 L 500.0851135253906 559.4130249023438 C 500.0851135253906 556.939697265625 499.5484619140625 555.149658203125 498.4751281738281 554.0430297851562 C 497.3951110839844 552.9363403320312 495.7784423828125 552.3829956054688 493.6251220703125 552.3829956054688 C 491.4718017578125 552.3829956054688 489.8551025390625 552.9363403320312 488.7751159667969 554.0430297851562 C 487.7017822265625 555.149658203125 487.1651306152344 556.939697265625 487.1651306152344 559.4130249023438 L 487.1651306152344 588.10302734375 C 487.1651306152344 590.5697021484375 487.7017822265625 592.3596801757812 488.7751159667969 593.4730224609375 C 489.8551025390625 594.5796508789062 491.4718017578125 595.1329956054688 493.6251220703125 595.1329956054688 M 529.9151000976562 573.7630004882812 C 529.9151000976562 580.7296752929688 529.061767578125 586.6329956054688 527.3551025390625 591.4730224609375 C 525.6417846679688 596.3197021484375 523.2184448242188 600.2630004882812 520.0851440429688 603.3030395507812 C 516.9517822265625 606.343017578125 513.1351318359375 608.5596923828125 508.6351318359375 609.9530029296875 C 504.1351318359375 611.3463745117188 499.13177490234375 612.0430297851562 493.6251220703125 612.0430297851562 C 488.11846923828125 612.0430297851562 483.1151123046875 611.3463745117188 478.6151123046875 609.9530029296875 C 474.1151123046875 608.5596923828125 470.2984619140625 606.343017578125 467.1651306152344 603.3030395507812 C 464.03179931640625 600.2630004882812 461.60845947265625 596.3197021484375 459.8951110839844 591.4730224609375 C 458.1884460449219 586.6329956054688 457.3351135253906 580.7296752929688 457.3351135253906 573.7630004882812 C 457.3351135253906 566.8563232421875 458.1884460449219 560.9630126953125 459.8951110839844 556.0830078125 C 461.60845947265625 551.2096557617188 464.03179931640625 547.2529907226562 467.1651306152344 544.2130126953125 C 470.2984619140625 541.1730346679688 474.1151123046875 538.9563598632812 478.6151123046875 537.56298828125 C 483.1151123046875 536.169677734375 488.11846923828125 535.4730224609375 493.6251220703125 535.4730224609375 C 499.13177490234375 535.4730224609375 504.1351318359375 536.169677734375 508.6351318359375 537.56298828125 C 513.1351318359375 538.9563598632812 516.9517822265625 541.1730346679688 520.0851440429688 544.2130126953125 C 523.2184448242188 547.2529907226562 525.6417846679688 551.2096557617188 527.3551025390625 556.0830078125 C 529.061767578125 560.9630126953125 529.9151000976562 566.8563232421875 529.9151000976562 573.7630004882812 ZM 532.517333984375 536.802978515625 L 577.9273071289062 536.802978515625 L 588.75732421875 569.3829956054688 L 599.207275390625 536.802978515625 L 643.00732421875 536.802978515625 L 643.00732421875 552.3829956054688 L 637.2973022460938 552.3829956054688 L 637.2973022460938 595.1329956054688 L 643.00732421875 595.1329956054688 L 643.00732421875 610.7130126953125 L 605.00732421875 610.7130126953125 L 605.00732421875 595.1329956054688 L 610.707275390625 595.1329956054688 L 610.707275390625 557.60302734375 L 591.7973022460938 610.7130126953125 L 581.5372924804688 610.7130126953125 L 560.0673217773438 557.4130249023438 L 560.0673217773438 595.1329956054688 L 565.767333984375 595.1329956054688 L 565.767333984375 610.7130126953125 L 532.517333984375 610.7130126953125 L 532.517333984375 595.1329956054688 L 538.21728515625 595.1329956054688 L 538.21728515625 552.3829956054688 L 532.517333984375 552.3829956054688 L 532.517333984375 536.802978515625 ZM 682.6248779296875 567.9630126953125 C 684.398193359375 567.9630126953125 685.7581787109375 567.4896850585938 686.7048950195312 566.5430297851562 C 687.658203125 565.5896606445312 688.1348876953125 564.036376953125 688.1348876953125 561.8829956054688 L 688.1348876953125 558.4630126953125 C 688.1348876953125 556.3096923828125 687.6748657226562 554.75634765625 686.7548828125 553.8030395507812 C 685.841552734375 552.8563232421875 684.46484375 552.3829956054688 682.6248779296875 552.3829956054688 L 679.3948974609375 552.3829956054688 L 679.3948974609375 567.9630126953125 L 682.6248779296875 567.9630126953125 M 688.514892578125 610.7130126953125 L 647.0948486328125 610.7130126953125 L 647.0948486328125 595.1329956054688 L 652.7948608398438 595.1329956054688 L 652.7948608398438 552.3829956054688 L 647.0948486328125 552.3829956054688 L 647.0948486328125 536.802978515625 L 689.744873046875 536.802978515625 C 693.611572265625 536.802978515625 697.111572265625 537.19970703125 700.244873046875 537.9930419921875 C 703.3848876953125 538.786376953125 706.0281982421875 540.0663452148438 708.1748657226562 541.8330078125 C 710.3281860351562 543.6063232421875 711.9915161132812 545.919677734375 713.1648559570312 548.7730102539062 C 714.3381958007812 551.6263427734375 714.9248657226562 555.0763549804688 714.9248657226562 559.1229858398438 C 714.9248657226562 563.2430419921875 714.3381958007812 566.7130126953125 713.1648559570312 569.5330200195312 C 711.9915161132812 572.35302734375 710.3281860351562 574.6463623046875 708.1748657226562 576.4130249023438 C 706.0281982421875 578.1863403320312 703.3848876953125 579.4696655273438 700.244873046875 580.2630004882812 C 697.111572265625 581.0563354492188 693.611572265625 581.4530029296875 689.744873046875 581.4530029296875 L 679.3948974609375 581.4530029296875 L 679.3948974609375 595.1329956054688 L 688.514892578125 595.1329956054688 L 688.514892578125 610.7130126953125 ZM 748.8805541992188 595.1329956054688 L 755.1505126953125 595.1329956054688 L 755.1505126953125 610.7130126953125 L 716.5805053710938 610.7130126953125 L 716.5805053710938 595.1329956054688 L 722.280517578125 595.1329956054688 L 722.280517578125 552.3829956054688 L 716.5805053710938 552.3829956054688 L 716.5805053710938 536.802978515625 L 761.1305541992188 536.802978515625 C 764.9971923828125 536.802978515625 768.4971923828125 537.1829833984375 771.6305541992188 537.9429931640625 C 774.7705078125 538.7030029296875 777.4138793945312 539.9230346679688 779.560546875 541.60302734375 C 781.7205200195312 543.2830200195312 783.3838500976562 545.4830322265625 784.550537109375 548.2030029296875 C 785.723876953125 550.9296875 786.310546875 554.2529907226562 786.310546875 558.1730346679688 C 786.310546875 562.35302734375 785.4705200195312 565.996337890625 783.79052734375 569.10302734375 C 782.1171875 572.2096557617188 779.6638793945312 574.3963623046875 776.4305419921875 575.6630249023438 L 776.5205078125 576.613037109375 C 782.6005249023438 577.5596923828125 785.6405029296875 581.2963256835938 785.6405029296875 587.822998046875 L 785.6405029296875 595.1329956054688 L 790.1105346679688 595.1329956054688 L 790.1105346679688 610.7130126953125 L 759.9905395507812 610.7130126953125 L 759.9905395507812 588.3930053710938 C 759.9905395507812 586.486328125 759.7872314453125 584.94970703125 759.3805541992188 583.7830200195312 C 758.9672241210938 582.6096801757812 758.300537109375 581.7230224609375 757.3805541992188 581.1229858398438 C 756.4672241210938 580.516357421875 755.310546875 580.10302734375 753.9105224609375 579.8829956054688 C 752.5238647460938 579.6630249023438 750.8472290039062 579.5530395507812 748.8805541992188 579.5530395507812 L 748.8805541992188 595.1329956054688 M 754.0105590820312 567.9630126953125 C 755.8505249023438 567.9630126953125 757.2271728515625 567.4896850585938 758.1405029296875 566.5430297851562 C 759.060546875 565.5896606445312 759.5205078125 564.036376953125 759.5205078125 561.8829956054688 L 759.5205078125 558.4630126953125 C 759.5205078125 556.3096923828125 759.060546875 554.75634765625 758.1405029296875 553.8030395507812 C 757.2271728515625 552.8563232421875 755.8505249023438 552.3829956054688 754.0105590820312 552.3829956054688 L 748.8805541992188 552.3829956054688 L 748.8805541992188 567.9630126953125 L 754.0105590820312 567.9630126953125 ZM 837.6513671875 552.3829956054688 L 826.1513671875 552.3829956054688 L 826.1513671875 567.3930053710938 L 834.5113525390625 567.3930053710938 L 834.5113525390625 578.2230224609375 L 826.1513671875 578.2230224609375 L 826.1513671875 595.1329956054688 L 837.6513671875 595.1329956054688 L 837.6513671875 580.1229858398438 L 858.9313354492188 580.1229858398438 L 858.9313354492188 610.7130126953125 L 793.851318359375 610.7130126953125 L 793.851318359375 595.1329956054688 L 799.5513305664062 595.1329956054688 L 799.5513305664062 552.3829956054688 L 793.851318359375 552.3829956054688 L 793.851318359375 536.802978515625 L 858.9313354492188 536.802978515625 L 858.9313354492188 565.4930419921875 L 837.6513671875 565.4930419921875 L 837.6513671875 552.3829956054688 ZM 890.8828735351562 593.7130126953125 C 892.9761962890625 593.7130126953125 894.4662475585938 593.3930053710938 895.3529052734375 592.7529907226562 C 896.2395629882812 592.1196899414062 896.682861328125 591.1730346679688 896.682861328125 589.9130249023438 C 896.682861328125 589.0196533203125 896.319580078125 588.2430419921875 895.5928955078125 587.5830078125 C 894.8595581054688 586.9163208007812 893.38623046875 586.1396484375 891.1729125976562 585.2529907226562 C 886.4862060546875 583.4796752929688 882.38623046875 581.786376953125 878.8728637695312 580.1730346679688 C 875.3595581054688 578.5530395507812 872.4462280273438 576.7630004882812 870.1328735351562 574.8030395507812 C 867.819580078125 572.8363647460938 866.0928955078125 570.5396728515625 864.952880859375 567.9130249023438 C 863.8128662109375 565.286376953125 863.242919921875 562.1063232421875 863.242919921875 558.3729858398438 C 863.242919921875 554.8263549804688 863.7962036132812 551.6430053710938 864.9028930664062 548.822998046875 C 866.0162353515625 546.0029907226562 867.8228759765625 543.5963134765625 870.3228759765625 541.60302734375 C 872.8228759765625 539.60302734375 876.146240234375 538.0830078125 880.2929077148438 537.0430297851562 C 884.4462280273438 535.996337890625 889.5595703125 535.4730224609375 895.6328735351562 535.4730224609375 C 901.146240234375 535.4730224609375 906.3395385742188 536.0263671875 911.212890625 537.1329956054688 C 916.0928955078125 538.2396850585938 920.1495361328125 539.7130126953125 923.3828735351562 541.552978515625 L 923.3828735351562 558.5530395507812 L 903.4229125976562 558.5530395507812 C 903.4229125976562 556.7196655273438 902.9195556640625 555.4696655273438 901.9129028320312 554.8030395507812 C 900.8928833007812 554.1363525390625 899.65625 553.8030395507812 898.202880859375 553.8030395507812 C 896.1095581054688 553.8030395507812 894.606201171875 554.072998046875 893.69287109375 554.613037109375 C 892.7728881835938 555.1530151367188 892.3128662109375 556.0863647460938 892.3128662109375 557.4130249023438 C 892.3128662109375 558.4930419921875 892.8029174804688 559.286376953125 893.7828979492188 559.7930297851562 C 894.7628784179688 560.2996826171875 896.2362060546875 560.8696899414062 898.202880859375 561.5029907226562 C 901.876220703125 562.7030029296875 905.3428955078125 563.9696655273438 908.6029052734375 565.3030395507812 C 911.8629150390625 566.6363525390625 914.7295532226562 568.2830200195312 917.202880859375 570.2430419921875 C 919.6762084960938 572.2096557617188 921.6229248046875 574.5863647460938 923.0429077148438 577.3729858398438 C 924.4695434570312 580.15966796875 925.182861328125 583.5763549804688 925.182861328125 587.6229858398438 C 925.182861328125 595.863037109375 922.5228881835938 601.9930419921875 917.202880859375 606.0130004882812 C 911.8828735351562 610.0330200195312 904.0928955078125 612.0430297851562 893.8328857421875 612.0430297851562 C 888.0062255859375 612.0430297851562 882.4028930664062 611.5363159179688 877.0228881835938 610.5230102539062 C 871.63623046875 609.5097045898438 867.3262329101562 608.3063354492188 864.0928955078125 606.9130249023438 L 864.0928955078125 588.10302734375 L 884.992919921875 588.10302734375 C 884.992919921875 590.0029907226562 885.3728637695312 591.4130249023438 886.1328735351562 592.3330078125 C 886.8995361328125 593.2529907226562 888.48291015625 593.7130126953125 890.8828735351562 593.7130126953125 ZM 956.0029907226562 593.7130126953125 C 958.0963134765625 593.7130126953125 959.5863647460938 593.3930053710938 960.4730224609375 592.7529907226562 C 961.3596801757812 592.1196899414062 961.802978515625 591.1730346679688 961.802978515625 589.9130249023438 C 961.802978515625 589.0196533203125 961.439697265625 588.2430419921875 960.7130126953125 587.5830078125 C 959.9796752929688 586.9163208007812 958.50634765625 586.1396484375 956.2930297851562 585.2529907226562 C 951.6063232421875 583.4796752929688 947.50634765625 581.786376953125 943.9929809570312 580.1730346679688 C 940.4796752929688 578.5530395507812 937.5663452148438 576.7630004882812 935.2529907226562 574.8030395507812 C 932.939697265625 572.8363647460938 931.2130126953125 570.5396728515625 930.072998046875 567.9130249023438 C 928.9329833984375 565.286376953125 928.363037109375 562.1063232421875 928.363037109375 558.3729858398438 C 928.363037109375 554.8263549804688 928.9163208007812 551.6430053710938 930.0230102539062 548.822998046875 C 931.1363525390625 546.0029907226562 932.9429931640625 543.5963134765625 935.4429931640625 541.60302734375 C 937.9429931640625 539.60302734375 941.266357421875 538.0830078125 945.4130249023438 537.0430297851562 C 949.5663452148438 535.996337890625 954.6796875 535.4730224609375 960.7529907226562 535.4730224609375 C 966.266357421875 535.4730224609375 971.4596557617188 536.0263671875 976.3330078125 537.1329956054688 C 981.2130126953125 538.2396850585938 985.2696533203125 539.7130126953125 988.5029907226562 541.552978515625 L 988.5029907226562 558.5530395507812 L 968.5430297851562 558.5530395507812 C 968.5430297851562 556.7196655273438 968.0396728515625 555.4696655273438 967.0330200195312 554.8030395507812 C 966.0130004882812 554.1363525390625 964.7763671875 553.8030395507812 963.322998046875 553.8030395507812 C 961.2296752929688 553.8030395507812 959.726318359375 554.072998046875 958.81298828125 554.613037109375 C 957.8930053710938 555.1530151367188 957.4329833984375 556.0863647460938 957.4329833984375 557.4130249023438 C 957.4329833984375 558.4930419921875 957.9230346679688 559.286376953125 958.9030151367188 559.7930297851562 C 959.8829956054688 560.2996826171875 961.3563232421875 560.8696899414062 963.322998046875 561.5029907226562 C 966.996337890625 562.7030029296875 970.4630126953125 563.9696655273438 973.7230224609375 565.3030395507812 C 976.9830322265625 566.6363525390625 979.8496704101562 568.2830200195312 982.322998046875 570.2430419921875 C 984.7963256835938 572.2096557617188 986.7430419921875 574.5863647460938 988.1630249023438 577.3729858398438 C 989.5896606445312 580.15966796875 990.302978515625 583.5763549804688 990.302978515625 587.6229858398438 C 990.302978515625 595.863037109375 987.6430053710938 601.9930419921875 982.322998046875 606.0130004882812 C 977.0029907226562 610.0330200195312 969.2130126953125 612.0430297851562 958.9530029296875 612.0430297851562 C 953.1263427734375 612.0430297851562 947.5230102539062 611.5363159179688 942.1430053710938 610.5230102539062 C 936.75634765625 609.5097045898438 932.4463500976562 608.3063354492188 929.2130126953125 606.9130249023438 L 929.2130126953125 588.10302734375 L 950.113037109375 588.10302734375 C 950.113037109375 590.0029907226562 950.4929809570312 591.4130249023438 951.2529907226562 592.3330078125 C 952.0196533203125 593.2529907226562 953.60302734375 593.7130126953125 956.0029907226562 593.7130126953125 ZM 1029.5831298828125 595.1329956054688 C 1031.7364501953125 595.1329956054688 1033.3531494140625 594.5796508789062 1034.43310546875 593.4730224609375 C 1035.5064697265625 592.3596801757812 1036.0430908203125 590.5697021484375 1036.0430908203125 588.10302734375 L 1036.0430908203125 559.4130249023438 C 1036.0430908203125 556.939697265625 1035.5064697265625 555.149658203125 1034.43310546875 554.0430297851562 C 1033.3531494140625 552.9363403320312 1031.7364501953125 552.3829956054688 1029.5831298828125 552.3829956054688 C 1027.4298095703125 552.3829956054688 1025.8131103515625 552.9363403320312 1024.733154296875 554.0430297851562 C 1023.6597900390625 555.149658203125 1023.1231079101562 556.939697265625 1023.1231079101562 559.4130249023438 L 1023.1231079101562 588.10302734375 C 1023.1231079101562 590.5697021484375 1023.6597900390625 592.3596801757812 1024.733154296875 593.4730224609375 C 1025.8131103515625 594.5796508789062 1027.4298095703125 595.1329956054688 1029.5831298828125 595.1329956054688 M 1065.8731689453125 573.7630004882812 C 1065.8731689453125 580.7296752929688 1065.019775390625 586.6329956054688 1063.3131103515625 591.4730224609375 C 1061.599853515625 596.3197021484375 1059.176513671875 600.2630004882812 1056.0430908203125 603.3030395507812 C 1052.9097900390625 606.343017578125 1049.0931396484375 608.5596923828125 1044.5931396484375 609.9530029296875 C 1040.0931396484375 611.3463745117188 1035.08984375 612.0430297851562 1029.5831298828125 612.0430297851562 C 1024.076416015625 612.0430297851562 1019.0731201171875 611.3463745117188 1014.5731201171875 609.9530029296875 C 1010.0731201171875 608.5596923828125 1006.2564697265625 606.343017578125 1003.1231079101562 603.3030395507812 C 999.9898071289062 600.2630004882812 997.5664672851562 596.3197021484375 995.8531494140625 591.4730224609375 C 994.146484375 586.6329956054688 993.2931518554688 580.7296752929688 993.2931518554688 573.7630004882812 C 993.2931518554688 566.8563232421875 994.146484375 560.9630126953125 995.8531494140625 556.0830078125 C 997.5664672851562 551.2096557617188 999.9898071289062 547.2529907226562 1003.1231079101562 544.2130126953125 C 1006.2564697265625 541.1730346679688 1010.0731201171875 538.9563598632812 1014.5731201171875 537.56298828125 C 1019.0731201171875 536.169677734375 1024.076416015625 535.4730224609375 1029.5831298828125 535.4730224609375 C 1035.08984375 535.4730224609375 1040.0931396484375 536.169677734375 1044.5931396484375 537.56298828125 C 1049.0931396484375 538.9563598632812 1052.9097900390625 541.1730346679688 1056.0430908203125 544.2130126953125 C 1059.176513671875 547.2529907226562 1061.599853515625 551.2096557617188 1063.3131103515625 556.0830078125 C 1065.019775390625 560.9630126953125 1065.8731689453125 566.8563232421875 1065.8731689453125 573.7630004882812 ZM 1100.96533203125 595.1329956054688 L 1107.2353515625 595.1329956054688 L 1107.2353515625 610.7130126953125 L 1068.665283203125 610.7130126953125 L 1068.665283203125 595.1329956054688 L 1074.3653564453125 595.1329956054688 L 1074.3653564453125 552.3829956054688 L 1068.665283203125 552.3829956054688 L 1068.665283203125 536.802978515625 L 1113.21533203125 536.802978515625 C 1117.08203125 536.802978515625 1120.58203125 537.1829833984375 1123.71533203125 537.9429931640625 C 1126.8553466796875 538.7030029296875 1129.4986572265625 539.9230346679688 1131.645263671875 541.60302734375 C 1133.8052978515625 543.2830200195312 1135.4686279296875 545.4830322265625 1136.63525390625 548.2030029296875 C 1137.80859375 550.9296875 1138.395263671875 554.2529907226562 1138.395263671875 558.1730346679688 C 1138.395263671875 562.35302734375 1137.5552978515625 565.996337890625 1135.8753662109375 569.10302734375 C 1134.2020263671875 572.2096557617188 1131.7486572265625 574.3963623046875 1128.5152587890625 575.6630249023438 L 1128.6053466796875 576.613037109375 C 1134.685302734375 577.5596923828125 1137.725341796875 581.2963256835938 1137.725341796875 587.822998046875 L 1137.725341796875 595.1329956054688 L 1142.1953125 595.1329956054688 L 1142.1953125 610.7130126953125 L 1112.0753173828125 610.7130126953125 L 1112.0753173828125 588.3930053710938 C 1112.0753173828125 586.486328125 1111.8719482421875 584.94970703125 1111.46533203125 583.7830200195312 C 1111.052001953125 582.6096801757812 1110.38525390625 581.7230224609375 1109.46533203125 581.1229858398438 C 1108.552001953125 580.516357421875 1107.395263671875 580.10302734375 1105.995361328125 579.8829956054688 C 1104.608642578125 579.6630249023438 1102.9320068359375 579.5530395507812 1100.96533203125 579.5530395507812 L 1100.96533203125 595.1329956054688 M 1106.0953369140625 567.9630126953125 C 1107.935302734375 567.9630126953125 1109.31201171875 567.4896850585938 1110.225341796875 566.5430297851562 C 1111.145263671875 565.5896606445312 1111.6053466796875 564.036376953125 1111.6053466796875 561.8829956054688 L 1111.6053466796875 558.4630126953125 C 1111.6053466796875 556.3096923828125 1111.145263671875 554.75634765625 1110.225341796875 553.8030395507812 C 1109.31201171875 552.8563232421875 1107.935302734375 552.3829956054688 1106.0953369140625 552.3829956054688 L 1100.96533203125 552.3829956054688 L 1100.96533203125 567.9630126953125 L 1106.0953369140625 567.9630126953125 Z" transform="matrix(0.46421727538108826, 0, 0, 0.46421727538108826, -141.87957763671875, -215.55763244628906)" style="fill: rgb(51, 51, 51); white-space: pre; color: rgb(51, 51, 51);"/></svg>