<svg xmlns="http://www.w3.org/2000/svg" enable-background="new 0 0 99.388 99.388" viewBox="0 0 99.388 99.388"><title>dog bath</title><g fill="#212121" class="nc-icon-wrapper"><circle cx="70.244" cy="21.392" r="10.805"></circle><path d="M55.542 57.549a3.374 3.374 0 0 0-3.372-3.372h-6.313l-1.868-9.607-3.757.737a3.072 3.072 0 0 0-.645.128l-2.953.579a3.572 3.572 0 0 0-1.334-2.1l8.608-1.606s-.01-3.106.294-3.209c.421-.146.844-.294 1.266-.438a8.093 8.093 0 0 0 3.224-2.036c1.549-1.6 2.453-4.036.805-6.141-1.512-1.931-7.165.678-7.879.67-2.111-.026-3.637-.924-5.738-.659-.366.046-.737.092-1.095.175-.214.05-.346.001-.471-.168a98.659 98.659 0 0 0-1.299-1.712c-.791-1.011-1.85-1.616-3.116-1.476-.509.055-2.673.707-1.042 3.788.354.669.656 1.382.853 2.111l.479 2.72a4.03 4.03 0 0 0-.912-.114 3.986 3.986 0 0 0-3.982 3.982 3.986 3.986 0 0 0 3.982 3.981c.805 0 1.552-.243 2.18-.656l.076.433a3.565 3.565 0 0 0-1.975 3.18c0 .637.181 1.228.474 1.745l-.665.976a2.256 2.256 0 0 0-1.593-.659 2.264 2.264 0 0 0-2.26 2.263c0 .922.558 1.717 1.354 2.065l-.714 1.049H3.373a3.373 3.373 0 0 0 0 6.744h.041a9.57 9.57 0 0 0-.74 3.696v9.346c0 5.312 4.323 9.637 9.635 9.637h30.925c5.313 0 9.635-4.324 9.635-9.637v-9.346a9.562 9.562 0 0 0-.74-3.696h.041a3.373 3.373 0 0 0 3.372-3.373zM27.775 51.81a.749.749 0 1 1 .002-1.494.749.749 0 0 1-.002 1.494zm1.502-9.539c-1.362 0-2.47-1.108-2.47-2.47s1.108-2.471 2.47-2.471a2.473 2.473 0 0 1 2.469 2.471 2.473 2.473 0 0 1-2.469 2.47zm3.855 6.529a2.065 2.065 0 0 1-2.063-2.062c0-1.137.925-2.063 2.063-2.063s2.063.926 2.063 2.063a2.063 2.063 0 0 1-2.063 2.062zm7.407 1.505a1.76 1.76 0 0 1-1.758-1.758 1.76 1.76 0 0 1 1.758-1.759 1.76 1.76 0 0 1 0 3.517z"></path><path d="M17.137 43.394c1.981 0 3.593-1.61 3.593-3.592s-1.612-3.593-3.593-3.593-3.593 1.61-3.593 3.593a3.596 3.596 0 0 0 3.593 3.592zm0-5.674c1.146 0 2.08.934 2.08 2.081 0 1.146-.934 2.08-2.08 2.08a2.084 2.084 0 0 1-2.081-2.08 2.085 2.085 0 0 1 2.081-2.081z"></path><path d="M96.215 78.81l-10.059-4.26 4.67-8.193c.951-1.621.834-3.895.619-4.908l-4.998-23.322c-.932-4.345-5.338-6.431-9.078-6.54l-.031.004s-1.318.007-2.456.223c-1.188.228-2.231.798-2.231.798-2.758 1.339-5.396 4.103-5.718 7.458-.223 1.484.013 5.938-2.407 6.346-2.166.365-7.095-.399-10.563-1.446a4.197 4.197 0 0 0-2.423 8.034c4.117 1.24 7.794 2.229 11.085 2.229 2.327 0 4.461-.496 6.418-1.744.126-.08.237-.182.358-.267l1.256 5.866-6.098-.837a5.731 5.731 0 0 0-5.012 1.819 5.72 5.72 0 0 0-1.333 5.164l4.412 18.674a5.722 5.722 0 1 0 11.134-2.633l-2.495-10.557 4.735.651-1.776 3.115a5.2 5.2 0 0 0 2.49 7.363l15.442 6.54a5.201 5.201 0 0 0 6.818-2.761 5.199 5.199 0 0 0-2.759-6.816z"></path></g></svg>