<?xml version="1.0" encoding="utf-8"?>
<svg id="master-artboard" viewBox="0 0 71 71" xmlns="http://www.w3.org/2000/svg" width="71px" height="71px" version="1.1" style="shape-rendering:geometricPrecision; text-rendering:geometricPrecision; image-rendering:optimizeQuality; fill-rule:evenodd; clip-rule:evenodd"><rect id="ee-background" x="0" y="0" width="71" height="71" style="fill: white; fill-opacity: 0; pointer-events: none;"/><g transform="matrix(0.1386718899011612, 0, 0, 0.1386718899011612, 1.4210854715202004e-14, 0)"><g>
	<g>
		<path d="M400.388,175.787c-1.707-3.413-4.267-5.12-7.68-5.12H292.015L391.855,12.8c1.707-2.56,1.707-5.973,0-8.533&#10;&#9;&#9;&#9;S387.588,0,384.175,0H247.642c-3.413,0-5.973,1.707-7.68,4.267l-128,256c-1.707,2.56-1.707,5.973,0,8.533&#10;&#9;&#9;&#9;c1.707,2.56,5.12,4.267,7.68,4.267h87.893l-95.573,227.84c-1.707,3.413,0,7.68,3.413,10.24c0.853,0.853,2.56,0.853,4.267,0.853&#10;&#9;&#9;&#9;c2.56,0,5.12-0.853,6.827-2.56l273.067-324.267C401.242,182.613,402.095,179.2,400.388,175.787z M149.508,454.827l78.507-187.733&#10;&#9;&#9;&#9;c0.853-2.56,0.853-5.12-0.853-7.68c-1.707-1.707-4.267-3.413-6.827-3.413h-87.04L252.762,17.067h116.053L268.122,174.933&#10;&#9;&#9;&#9;c-1.707,2.56-1.707,5.973,0,8.533s4.267,4.267,7.68,4.267h98.987L149.508,454.827z"/>
	</g>
</g><g>
</g><g>
</g><g>
</g><g>
</g><g>
</g><g>
</g><g>
</g><g>
</g><g>
</g><g>
</g><g>
</g><g>
</g><g>
</g><g>
</g><g>
</g></g></svg>