<svg id="Capa_1" enable-background="new 0 0 512 512" height="512" viewBox="0 0 512 512" width="512" xmlns="http://www.w3.org/2000/svg"><g><path d="m60.719 184.853v20.935l-27.053 5.022c-5.425 1.007-9.006 6.221-7.999 11.646.994 5.356 6.293 8.991 11.646 7.999l23.406-4.345v2.64c0 9.547.975 18.944 2.861 28.083-6.653 5.235-12.553 11.496-17.483 18.673-3.124 4.548-1.97 10.768 2.578 13.891 4.467 3.068 10.809 1.909 13.891-2.579 2.169-3.158 4.595-6.072 7.222-8.752 5.044 13.154 12.134 25.497 21.095 36.647-16.831 14.26-43.705 46.919-55.802 102.531-6.958 31.975-7.114 75.608-7.072 84.248l-.004.414v.097c-.004 5.473 4.403 9.939 9.888 9.995h.104 436.021c.048 0 .097 0 .146-.001 4.797-.073 9.856-3.771 9.836-10.485.025-6.682-.078-30.047-2.413-53.333-.55-5.49-5.445-9.491-10.938-8.944-5.49.551-9.494 5.447-8.944 10.938 1.557 15.52 2.079 31.122 2.244 41.354h-69.641l-5.432-4.803c-.042-.037-.084-.074-.127-.11-16.133-13.789-19.552-26.373-20.216-44.772-.2-5.514-4.819-9.821-10.345-9.623-5.514.199-9.822 4.831-9.623 10.345.656 18.147 4.053 33.852 16.873 48.962h-213.864c12.82-15.11 16.217-30.815 16.873-48.962.199-5.514-4.109-10.146-9.623-10.345-5.518-.216-10.146 4.109-10.345 9.623-.665 18.399-4.084 30.983-20.216 44.772-.042.036-.085.073-.127.11l-5.432 4.803h-74.647c.266-16.223 1.471-46.7 6.549-70.034 11.337-52.12 36.982-81.36 49.893-92.123 25.361 23.647 59.089 36.922 93.764 36.922h115.476c34.544 0 68.249-13.194 93.576-36.749 7.689 6.328 20.085 19.259 31.416 40.434 2.602 4.864 8.658 6.698 13.522 4.095 4.865-2.603 6.699-8.657 4.095-13.522-11.959-22.35-25.414-37.199-35.395-45.632 9.04-11.204 16.185-23.618 21.26-36.853 2.627 2.68 5.053 5.594 7.222 8.751 3.082 4.487 9.425 5.647 13.891 2.579 4.548-3.124 5.702-9.343 2.578-13.891-4.93-7.177-10.831-13.438-17.483-18.673 1.886-9.139 2.861-18.535 2.861-28.083v-2.64l23.406 4.345c5.352.995 10.652-2.646 11.646-7.999 1.007-5.425-2.574-10.639-7.999-11.646l-27.053-5.022v-20.935c0-28.217-8.481-55.276-24.55-78.412-1.394-5.431-4.65-23.876 11.455-35.452 15.366-11.042 15.602-34.667.38-45.951-15.398-11.42-40.898-25.036-74.944-25.036-22.852 0-42.173 7.936-56.248 23.021-5.09-.662-12.788-1.492-19.418-1.492h-52.189c-5.899 0-21.001.457-31.192 1.547-13.997-14.926-33.757-23.076-56.279-23.076-34.046 0-59.546 13.616-74.936 25.034-15.234 11.279-15.001 34.908.374 45.956 16.251 11.676 12.946 30.204 11.662 35.284-16.15 23.184-24.678 50.317-24.678 78.579zm24.675-130.089c-4.557-3.275-4.662-10.326-.137-13.678 12.978-9.628 34.45-21.105 63.039-21.105 18.436 0 34.223 7.084 44.453 19.945 2.304 2.897 6.019 4.282 9.657 3.601 6.683-1.251 25.398-2.017 33.361-2.017h52.189c9.167 0 21.676 2.016 21.798 2.036 3.568.583 7.172-.81 9.424-3.638 10.526-13.223 25.478-19.927 44.443-19.927 28.589 0 50.061 11.477 63.042 21.107 4.519 3.351 4.412 10.406-.14 13.676-11.858 8.524-17.343 19.157-19.597 29.062-3.959-4.024-8.751-8.786-14.592-14.457-3.422-3.322-.607-9.033 4.003-8.508 5.501.354 10.258-3.818 10.614-9.325.357-5.506-3.818-10.258-9.325-10.614-22.714-1.691-35.636 26.836-19.211 42.783 23.788 23.096 29.334 30.28 30.614 32.297.006.01.014.018.02.027.03.043.051.09.082.133.002.002.002.003.004.006s.004.006.006.009c14.494 20.135 22.156 43.882 22.156 68.675v17.226l-25.676-4.766c-22.225-4.125-44.726.651-63.358 13.449-4.548 3.123-5.703 9.343-2.579 13.891 3.123 4.548 9.342 5.703 13.891 2.579 14.232-9.776 31.42-13.427 48.399-10.273l29.322 5.443v6.349c0 5.785-.418 11.506-1.234 17.13-5.858-2.549-12.037-4.47-18.473-5.665l-33.824-6.279c-5.429-1.009-10.639 2.574-11.646 7.999s2.574 10.639 7.999 11.646l33.824 6.279c6.155 1.142 12.008 3.14 17.444 5.886-5.373 16.268-14.312 31.247-26.419 43.974-22.279 23.175-53.017 36.588-85.229 36.588h-115.481c-32.273 0-63.075-13.584-85.384-36.755-12.026-12.692-20.914-27.61-26.263-43.807 5.436-2.747 11.289-4.744 17.444-5.886l33.824-6.279c5.425-1.007 9.006-6.221 7.999-11.646-1.007-5.424-6.22-9.001-11.646-7.999l-33.824 6.279c-6.436 1.195-12.616 3.116-18.473 5.665-.816-5.624-1.234-11.344-1.234-17.13v-6.349l29.322-5.443c16.977-3.152 34.165.497 48.399 10.273 4.548 3.124 10.768 1.969 13.891-2.579 3.124-4.548 1.97-10.768-2.579-13.891-18.632-12.798-41.132-17.575-63.358-13.449l-25.675 4.767v-17.226c0-24.646 7.589-48.287 21.947-68.369.001-.002.003-.004.004-.006s.003-.004.004-.006.003-.004.004-.006c.009-.013.018-.025.027-.038.07-.099.13-.203.197-.304.028-.042.061-.079.089-.122 1.281-2.018 6.827-9.204 30.614-32.297 16.408-15.93 3.523-44.476-19.21-42.783-5.506.355-9.682 5.106-9.327 10.613.356 5.506 5.104 9.673 10.613 9.327 4.607-.519 7.43 5.183 4.004 8.508-5.85 5.679-10.647 10.447-14.61 14.475-2.449-10.305-8.227-20.866-19.662-29.081z"/><path d="m216.459 218.721c-3.718 3.886-3.692 10.019.059 13.873l29.492 30.309v10.137c0 12.567-10.224 22.79-22.79 22.79h-7.683c-5.518 0-9.99 4.473-9.99 9.99 0 5.518 4.473 9.99 9.99 9.99h7.683c13.15 0 24.928-5.97 32.781-15.337 7.852 9.367 19.63 15.337 32.781 15.337h7.683c5.518 0 9.99-4.473 9.99-9.99 0-5.518-4.473-9.99-9.99-9.99h-7.683c-12.567 0-22.79-10.224-22.79-22.79v-10.137l29.492-30.309c3.751-3.855 3.777-9.987.059-13.873-23.594-24.657-55.49-24.659-79.084 0zm39.541.745c6.725 0 13.069 2.215 18.24 6.307l-18.24 18.747-18.24-18.746c5.171-4.092 11.515-6.308 18.24-6.308z"/><path d="m159.489 152.826h20.056c11.764 0 21.335 9.57 21.335 21.335 0 5.518 4.473 9.99 9.99 9.99 5.518 0 9.99-4.473 9.99-9.99.183-22.499-18.95-41.315-41.315-41.315h-20.056c-5.518 0-9.99 4.473-9.99 9.99s4.473 9.99 9.99 9.99z"/><path d="m301.13 184.151c5.518 0 9.99-4.473 9.99-9.99 0-11.764 9.57-21.335 21.335-21.335h20.056c5.518 0 9.99-4.473 9.99-9.99 0-5.518-4.473-9.99-9.99-9.99h-20.056c-22.366 0-41.498 18.817-41.315 41.315-.001 5.517 4.472 9.99 9.99 9.99z"/><path d="m472.063 400.226c-3.046-4.524-9.311-5.767-13.857-2.758-4.544 3.008-5.757 9.328-2.758 13.847 3.007 4.529 9.329 5.788 13.847 2.767 4.526-3.025 5.788-9.323 2.768-13.856z"/></g></svg>