<?xml version="1.0" encoding="utf-8"?>
<svg id="master-artboard" viewBox="0 0 199.158203125 84.16927337646484" version="1.1" xmlns="http://www.w3.org/2000/svg" x="0px" y="0px" style="enable-background:new 0 0 1400 980;" width="199.158203125px" height="84.16927337646484px"><rect id="ee-background" x="0" y="0" width="199.158203125" height="84.16927337646484" style="fill: white; fill-opacity: 0; pointer-events: none;"/><g transform="matrix(2.3282467078529843, 0, 0, 2.3282467078529843, -0.9903582111174032, 0)"><rect id="rect-3" x="0" y="0" width="90.980712890625" height="21" style="fill: white; fill-opacity: 0; pointer-events: none;"/><g transform="matrix(1.0050251256281406, 0, 0, 1.0050251256281406, -0.000002023874451140273, 0.11474164167241341)"><path d="M 0 0 H 99.5 V 20.666666 H 0 V 0 Z" id="rect-2" style="fill: white; fill-opacity: 0; pointer-events: none;"/><g transform="matrix(0.9938428401947021, 0, 0, 0.9938428401947021, 0, -0.05188089609146118)"><path d="M 0 0 H 103.973534 V 20.563705 H 0 V 0 Z" id="rect-1" style="fill: white; fill-opacity: 0; pointer-events: none;"/><path d="M 58.45878219604492 16.8700008392334 L 60.60878372192383 16.8700008392334 L 54.42878341674805 34 L 52.45878219604492 34 L 46.318782806396484 16.8700008392334 L 48.42878341674805 16.8700008392334 L 52.36878204345703 27.950000762939453 C 52.82211685180664 29.22333335876465 53.1821174621582 30.463333129882812 53.44878387451172 31.670000076293945 C 53.728782653808594 30.40333366394043 54.09545135498047 29.139999389648438 54.54878234863281 27.880001068115234 L 58.45878219604492 16.8700008392334 Z" transform="matrix(0.9956659674644469, 0, 0, 0.9956659674644469, -5.5246997358021765, -14.996778488159178)" style="fill: rgb(51, 51, 51); white-space: pre; color: rgb(51, 51, 51); stroke: rgb(0, 0, 0); stroke-width: 1;"/><path d="M 81.90999603271484 34 L 79.7699966430664 28.549999237060547 L 72.90999603271484 28.549999237060547 L 70.79999542236328 34 L 68.77999877929688 34 L 75.54999542236328 16.799999237060547 L 77.22999572753906 16.799999237060547 L 83.97000122070312 34 L 81.90999603271484 34 M 79.1500015258789 26.760000228881836 L 77.15999603271484 21.450000762939453 C 76.9000015258789 20.77666664123535 76.63333129882812 19.953332901000977 76.36000061035156 18.979999542236328 C 76.1866683959961 19.726665496826172 75.94000244140625 20.549999237060547 75.6199951171875 21.450000762939453 L 73.61000061035156 26.760000228881836 L 79.1500015258789 26.760000228881836 Z" transform="matrix(0.9983202219009399, 0, 0, 0.9983202219009399, -13.975393819969657, -15.030284881591797)" style="fill: rgb(51, 51, 51); white-space: pre; color: rgb(51, 51, 51); stroke: rgb(0, 0, 0); stroke-width: 1;"/><path d="M 38.41967010498047 58.52058029174805 L 39.567569732666016 58.52058792114258 L 39.567569732666016 66.36000061035156 C 38.667572021484375 66.64666748046875 37.7475700378418 66.86333465576172 36.80757141113281 67.01000213623047 C 35.86756896972656 67.15666961669922 34.78090286254883 67.2300033569336 33.547569274902344 67.2300033569336 C 30.95423698425293 67.2300033569336 28.93423843383789 66.45999908447266 27.487571716308594 64.91999816894531 C 26.040904998779297 63.380001068115234 25.317569732666016 61.21666717529297 25.317569732666016 58.43000030517578 C 25.317569732666016 56.650001525878906 25.677570343017578 55.09000015258789 26.397571563720703 53.75 C 27.110904693603516 52.40999984741211 28.14090347290039 51.38666534423828 29.487571716308594 50.68000030517578 C 30.82756996154785 49.97333526611328 32.400901794433594 49.62000274658203 34.20757293701172 49.62000274658203 C 36.034236907958984 49.62000274658203 37.737571716308594 49.9566650390625 39.317569732666016 50.62999725341797 L 38.53757095336914 52.38999938964844 C 36.99090576171875 51.72999954223633 35.50423812866211 51.400001525878906 34.077571868896484 51.400001525878906 C 31.990903854370117 51.400001525878906 30.360904693603516 52.02333450317383 29.187570571899414 53.27000045776367 C 28.014236450195312 54.51000213623047 27.427570343017578 56.22999954223633 27.427570343017578 58.43000030517578 C 27.427570343017578 60.74333190917969 27.994237899780273 62.5 29.12757110595703 63.70000076293945 C 30.25423812866211 64.8933334350586 31.910903930664062 65.48999786376953 34.097572326660156 65.48999786376953 C 35.284236907958984 65.48999786376953 36.444236755371094 65.35333251953125 37.577571868896484 65.08000183105469 L 37.577571868896484 59.79999923706055 L 37.41850280761719 58.63197326660156 L 38.41967010498047 58.52058029174805 Z" transform="matrix(1, 0, 0, 1, -22.835223626929757, -48.13117599487305)" style="fill: rgb(51, 51, 51); white-space: pre; color: rgb(51, 51, 51); stroke: rgb(0, 0, 0); stroke-width: 1;"/><path d="M 76.81212615966797 24.389938354492188" style="fill: rgb(51, 51, 51); fill-opacity: 1; stroke: rgb(0, 0, 0); stroke-opacity: 1; stroke-width: 2; paint-order: stroke;" transform="matrix(1, 0, 0, 1, 0, 0)"/><path d="M 88.0677719116211 10.388432502746582" style="fill: rgb(51, 51, 51); fill-opacity: 1; stroke: rgb(0, 0, 0); stroke-opacity: 1; stroke-width: 0; paint-order: stroke;"/><path d="M 88.0677719116211 15.727973937988281 L 89.06893157958984 15.727973937988281" style="fill: rgb(51, 51, 51); fill-opacity: 1; stroke: rgb(0, 0, 0); stroke-opacity: 1; stroke-width: 0; paint-order: stroke;"/><g transform="matrix(0.03942136839032173, 0, 0, 0.03942136839032173, -35.69832229614258, -24.377407598656177)"><g>
	
</g><g transform="matrix(3.8017126559948453, 0, 0, 3.8017126559948453, 1300.6093757789806, 512.4888064175526)">
	<g>
		<path d="M 255.998 34.951 C 134.141 34.951 35.002999999999986 134.107 35.002999999999986 255.987 C 35.002999999999986 377.864 134.141 477.019 255.998 477.019 C 377.85699999999997 477.019 476.99699999999996 377.865 476.99699999999996 255.987 C 476.997 134.107 377.857 34.951 255.998 34.951 Z M 50.003 255.987 C 50.003 145.528 137.363 55.10300000000001 246.606 50.17400000000001 L 207.65699999999998 225.847 L 71.92 348.392 C 57.909 320.584 50.003 289.194 50.003 255.987 Z M 248.493 110.959 L 248.493 241.279 L 136.096 310.661 L 219.486 235.376 C 220.35299999999998 234.59300000000002 221.022 233.622 221.444 232.544 C 221.58499999999998 232.185 221.69799999999998 231.81300000000002 221.78199999999998 231.43300000000002 L 248.493 110.959 Z M 255.998 462.019 C 182.08999999999997 462.019 117.15899999999999 422.88 80.80599999999998 364.243 L 194.75099999999998 321.099 C 198.62399999999997 319.632 237.53897399902343 299.1312470703125 236.0719739990234 295.2572470703125 C 234.6049739990234 291.38324707031245 193.313 305.60499999999996 189.438 307.07099999999997 L 140.37099999999998 325.65 L 256 254.273 L 371.651 325.663 L 258.65 282.875 C 256.93699999999995 282.228 255.04999999999998 282.228 253.337 282.875 L 219.66699999999997 295.624 C 215.79399999999998 297.091 178.03416210937496 321.05711547851564 179.50116210937497 324.93111547851566 C 180.968162109375 328.8051154785157 221.10499999999996 311.119 224.97999999999996 309.65200000000004 L 255.99399999999997 297.908 L 431.192 364.246 C 394.837 422.881 329.906 462.019 255.998 462.019 Z M 304.344 225.847 L 296.403 190.025 C 295.507 185.982 291.497 183.43 287.458 184.326 C 283.41400000000004 185.22199999999998 280.862 189.22799999999998 281.759 193.272 L 290.15200000000004 231.132 C 290.434 232.713 291.21700000000004 234.216 292.50200000000007 235.376 L 375.8620000000001 310.635 L 263.5080000000001 241.279 L 263.5080000000001 111.022 L 265.7560000000001 121.162 C 265.7770000000001 121.256 265.8080000000001 121.34500000000001 265.8320000000001 121.43700000000001 L 274.9660000000001 162.63400000000001 C 275.86200000000014 166.67700000000002 298.3509826660156 261.63990783691406 297.77248071289074 215.6930769042969 C 297.1940002441406 169.74623107910156 290.5070000000001 163.43100000000004 289.6100000000001 159.38700000000003 L 265.395 50.174 C 374.637 55.105 461.99699999999996 145.529 461.99699999999996 255.987 C 461.99699999999996 289.193 454.09099999999995 320.584 440.0799999999999 348.39099999999996 L 304.344 225.847 Z" style="stroke: rgb(0, 0, 0); stroke-width: 3;" transform="matrix(0.2788119098268394, 0, 0, 0.2788119098268394, 25.24372902516438, 25.206245093704535)"/>
	</g>
</g><g>
</g><g>
</g><g>
</g><g>
</g><g>
</g><g>
</g><g>
</g><g>
</g><g>
</g><g>
</g><g>
</g><g>
</g><g>
</g><g>
</g><g>
</g></g></g><path d="M 99.002197265625 44.66826629638672 C 99.002197265625 46.30160140991211 98.5888671875 47.75493621826172 97.76219940185547 49.02826690673828 C 96.92886352539062 50.2949333190918 95.7322006225586 51.28160095214844 94.17219543457031 51.9882698059082 C 92.60552978515625 52.68826675415039 90.76886749267578 53.03826904296875 88.66220092773438 53.03826904296875 C 86.90886688232422 53.03826904296875 85.43553161621094 52.91493606567383 84.24220275878906 52.668270111083984 C 83.05553436279297 52.421600341796875 81.8155288696289 51.991600036621094 80.52220153808594 51.37826919555664 L 80.52220153808594 45.02826690673828 C 81.8822021484375 45.72160339355469 83.29886627197266 46.26493453979492 84.77220153808594 46.658267974853516 C 86.2388687133789 47.05160140991211 87.58553314208984 47.248268127441406 88.81219482421875 47.248268127441406 C 89.87220001220703 47.248268127441406 90.64886474609375 47.06493377685547 91.14219665527344 46.69826889038086 C 91.63552856445312 46.331600189208984 91.8822021484375 45.85826873779297 91.8822021484375 45.27826690673828 C 91.8822021484375 44.91826629638672 91.78219604492188 44.601600646972656 91.58219909667969 44.328269958496094 C 91.3822021484375 44.06159973144531 91.06219482421875 43.78826904296875 90.62220001220703 43.508270263671875 C 90.18219757080078 43.23493576049805 89.01219940185547 42.671600341796875 87.11219787597656 41.818267822265625 C 85.39219665527344 41.03160095214844 84.1021957397461 40.271602630615234 83.24220275878906 39.53826904296875 C 82.3822021484375 38.804935455322266 81.74552917480469 37.964935302734375 81.33219909667969 37.01826858520508 C 80.91220092773438 36.06493377685547 80.70220184326172 34.938270568847656 80.70220184326172 33.638267517089844 C 80.70220184326172 31.21160125732422 81.5888671875 29.318267822265625 83.36219787597656 27.958269119262695 C 85.12886810302734 26.598268508911133 87.55886840820312 25.91826820373535 90.6521987915039 25.91826820373535 C 93.37886810302734 25.91826820373535 96.16220092773438 26.548269271850586 99.002197265625 27.80826759338379 L 96.82219696044922 33.318267822265625 C 94.35552978515625 32.1849365234375 92.22553253173828 31.618268966674805 90.43219757080078 31.618268966674805 C 89.50553131103516 31.618268966674805 88.83219909667969 31.781600952148438 88.41220092773438 32.10826873779297 C 87.99220275878906 32.42826843261719 87.78219604492188 32.83160400390625 87.78219604492188 33.318267822265625 C 87.78219604492188 33.83160400390625 88.04886627197266 34.29493713378906 88.58219909667969 34.70826721191406 C 89.12220001220703 35.11493682861328 90.57553100585938 35.85826873779297 92.94219970703125 36.938270568847656 C 95.21553039550781 37.964935302734375 96.7955322265625 39.06493377685547 97.68219757080078 40.2382698059082 C 98.56219482421875 41.41160202026367 99.002197265625 42.888267517089844 99.002197265625 44.66826629638672 ZM 101.77972412109375 49.67826843261719 C 101.77972412109375 48.57160186767578 102.1097183227539 47.71826934814453 102.76972198486328 47.11826705932617 C 103.42305755615234 46.51826858520508 104.37638854980469 46.21826934814453 105.62972259521484 46.21826934814453 C 106.81639099121094 46.21826934814453 107.72972106933594 46.51826858520508 108.36972045898438 47.11826705932617 C 109.00971984863281 47.71826934814453 109.32971954345703 48.57160186767578 109.32971954345703 49.67826843261719 C 109.32971954345703 50.76493453979492 108.99972534179688 51.611602783203125 108.3397216796875 52.21826934814453 C 107.68638610839844 52.82493591308594 106.78305053710938 53.12826919555664 105.62972259521484 53.12826919555664 C 104.43638610839844 53.12826919555664 103.49639129638672 52.828269958496094 102.80972290039062 52.228267669677734 C 102.12305450439453 51.62826919555664 101.77972412109375 50.77826690673828 101.77972412109375 49.67826843261719 ZM 129.9515380859375 52.67826843261719 L 128.6515350341797 47.7382698059082 L 120.08152770996094 47.7382698059082 L 118.74153137207031 52.67826843261719 L 110.91152954101562 52.67826843261719 L 119.52153015136719 26.188268661499023 L 129.03152465820312 26.188268661499023 L 137.75152587890625 52.67826843261719 L 129.9515380859375 52.67826843261719 M 127.1715316772461 41.888267517089844 L 126.03153228759766 37.55826950073242 C 125.77153015136719 36.59160232543945 125.45153045654297 35.344932556152344 125.071533203125 33.818267822265625 C 124.6915283203125 32.291603088378906 124.4415283203125 31.19826889038086 124.321533203125 30.53826904296875 C 124.21485900878906 31.151601791381836 124.00152587890625 32.16160202026367 123.68153381347656 33.568267822265625 C 123.36152648925781 34.974937438964844 122.65486145019531 37.748268127441406 121.56153106689453 41.888267517089844 L 127.1715316772461 41.888267517089844 ZM 139.29234313964844 49.67826843261719 C 139.29234313964844 48.57160186767578 139.62234497070312 47.71826934814453 140.28233337402344 47.11826705932617 C 140.9356689453125 46.51826858520508 141.88900756835938 46.21826934814453 143.142333984375 46.21826934814453 C 144.32901000976562 46.21826934814453 145.24234008789062 46.51826858520508 145.88233947753906 47.11826705932617 C 146.5223388671875 47.71826934814453 146.84234619140625 48.57160186767578 146.84234619140625 49.67826843261719 C 146.84234619140625 50.76493453979492 146.51234436035156 51.611602783203125 145.8523406982422 52.21826934814453 C 145.19900512695312 52.82493591308594 144.29566955566406 53.12826919555664 143.142333984375 53.12826919555664 C 141.94900512695312 53.12826919555664 141.00900268554688 52.828269958496094 140.3223419189453 52.228267669677734 C 139.6356658935547 51.62826919555664 139.29234313964844 50.77826690673828 139.29234313964844 49.67826843261719 Z" transform="matrix(0.18845106661319733, 0, 0, 0.18845106661319733, 57.04130172729492, 9.555134773254395)" style="fill: rgb(51, 51, 51); white-space: pre; color: rgb(51, 51, 51);"/></g><path d="M 12.199043273925781 10.314254760742188" style="fill-opacity: 1; stroke: rgb(0, 0, 0); stroke-opacity: 1; stroke-width: 10; paint-order: fill;"/></g><path d="M 27.36592674255371 42.87031173706055 C 27.36592674255371 44.13031005859375 26.91592788696289 45.12031173706055 26.015926361083984 45.840309143066406 C 25.10926055908203 46.566978454589844 23.845928192138672 46.9303092956543 22.225927352905273 46.9303092956543 C 20.739259719848633 46.9303092956543 19.425926208496094 46.65031051635742 18.285926818847656 46.090309143066406 L 18.285926818847656 43.340309143066406 C 19.225927352905273 43.760311126708984 20.022594451904297 44.056976318359375 20.675926208496094 44.23031234741211 C 21.322593688964844 44.40364456176758 21.91592788696289 44.49031066894531 22.4559268951416 44.49031066894531 C 23.10926055908203 44.49031066894531 23.60926055908203 44.36697769165039 23.9559268951416 44.12031173706055 C 24.302593231201172 43.8736457824707 24.475927352905273 43.50364303588867 24.475927352905273 43.010311126708984 C 24.475927352905273 42.736976623535156 24.399261474609375 42.49364471435547 24.245927810668945 42.280311584472656 C 24.092594146728516 42.066978454589844 23.86592674255371 41.863643646240234 23.565927505493164 41.670310974121094 C 23.272594451904297 41.47031021118164 22.67259407043457 41.15364456176758 21.765926361083984 40.72031021118164 C 20.912593841552734 40.3203125 20.272594451904297 39.93697738647461 19.845928192138672 39.5703125 C 19.419260025024414 39.203643798828125 19.079259872436523 38.773643493652344 18.825927734375 38.280311584472656 C 18.572593688964844 37.793643951416016 18.445926666259766 37.22031021118164 18.445926666259766 36.56031036376953 C 18.445926666259766 35.32697677612305 18.862594604492188 34.36030960083008 19.695926666259766 33.660308837890625 C 20.535926818847656 32.953643798828125 21.692594528198242 32.600311279296875 23.16592788696289 32.600311279296875 C 23.892593383789062 32.600311279296875 24.58259391784668 32.68364334106445 25.23592758178711 32.850311279296875 C 25.89592742919922 33.023643493652344 26.585926055908203 33.26697540283203 27.305927276611328 33.5803108215332 L 26.345928192138672 35.88031005859375 C 25.605926513671875 35.57364273071289 24.99259376525879 35.36030960083008 24.50592803955078 35.24031066894531 C 24.01926040649414 35.12031173706055 23.539260864257812 35.06031036376953 23.065927505493164 35.06031036376953 C 22.50592803955078 35.06031036376953 22.079259872436523 35.190311431884766 21.785926818847656 35.45030975341797 C 21.48592758178711 35.71031188964844 21.335927963256836 36.05031204223633 21.335927963256836 36.47031021118164 C 21.335927963256836 36.730308532714844 21.39592742919922 36.95697784423828 21.515926361083984 37.15031051635742 C 21.635927200317383 37.34364318847656 21.829259872436523 37.530311584472656 22.095928192138672 37.71031188964844 C 22.355926513671875 37.896976470947266 22.979259490966797 38.2236442565918 23.965927124023438 38.690311431884766 C 25.272594451904297 39.316978454589844 26.16592788696289 39.940311431884766 26.64592742919922 40.56031036376953 C 27.125926971435547 41.18697738647461 27.36592674255371 41.95697784423828 27.36592674255371 42.87031173706055 ZM 53.611263275146484 37.95030975341797 C 52.99793243408203 37.95030975341797 52.51459884643555 38.143646240234375 52.16126251220703 38.530311584472656 C 51.814598083496094 38.92364501953125 51.61459732055664 39.480308532714844 51.56126403808594 40.20030975341797 L 55.641265869140625 40.20030975341797 C 55.6279296875 39.480308532714844 55.44126510620117 38.92364501953125 55.08126449584961 38.530311584472656 C 54.72126388549805 38.143646240234375 54.231266021728516 37.95030975341797 53.611263275146484 37.95030975341797 M 54.021263122558594 46.9303092956543 C 52.30792999267578 46.9303092956543 50.96792984008789 46.45697784423828 50.00126647949219 45.510311126708984 C 49.03459930419922 44.56364440917969 48.551265716552734 43.2236442565918 48.551265716552734 41.49031066894531 C 48.551265716552734 39.703643798828125 48.99793243408203 38.3203125 49.891265869140625 37.340309143066406 C 50.78459930419922 36.36697769165039 52.0179328918457 35.88031005859375 53.59126281738281 35.88031005859375 C 55.097930908203125 35.88031005859375 56.271263122558594 36.31031036376953 57.111263275146484 37.170310974121094 C 57.951263427734375 38.023643493652344 58.37126541137695 39.20697784423828 58.37126541137695 40.72031021118164 L 58.37126541137695 42.13031005859375 L 51.49126434326172 42.13031005859375 C 51.52459716796875 42.95697784423828 51.771263122558594 43.60364532470703 52.231266021728516 44.0703125 C 52.69126510620117 44.5369758605957 53.334598541259766 44.77030944824219 54.16126251220703 44.77030944824219 C 54.801265716552734 44.77030944824219 55.40793228149414 44.703643798828125 55.981266021728516 44.5703125 C 56.54793167114258 44.43697738647461 57.14459991455078 44.2236442565918 57.771263122558594 43.9303092956543 L 57.771263122558594 46.1803092956543 C 57.26459884643555 46.43364334106445 56.72126388549805 46.62031173706055 56.141265869140625 46.74031066894531 C 55.56126403808594 46.86697769165039 54.85459899902344 46.9303092956543 54.021263122558594 46.9303092956543 ZM 86.21836853027344 35.88031005859375 C 86.61170196533203 35.88031005859375 86.93836212158203 35.906978607177734 87.1983642578125 35.96031188964844 L 86.97836303710938 38.690311431884766 C 86.74503326416016 38.63031005859375 86.45836639404297 38.600311279296875 86.11836242675781 38.600311279296875 C 85.19169616699219 38.600311279296875 84.46836853027344 38.836978912353516 83.9483642578125 39.31031036376953 C 83.4283676147461 39.79030990600586 83.16836547851562 40.45697784423828 83.16836547851562 41.31031036376953 L 83.16836547851562 46.74031066894531 L 80.26836395263672 46.74031066894531 L 80.26836395263672 36.0803108215332 L 82.46836853027344 36.0803108215332 L 82.89836120605469 37.87031173706055 L 83.03836822509766 37.87031173706055 C 83.37169647216797 37.27030944824219 83.81836700439453 36.79030990600586 84.37836456298828 36.4303092956543 C 84.94503021240234 36.06364440917969 85.55836486816406 35.88031005859375 86.21836853027344 35.88031005859375 ZM 111.1960220336914 46.74031066894531 L 107.13602447509766 36.0803108215332 L 110.176025390625 36.0803108215332 L 112.23602294921875 42.15031051635742 C 112.4693603515625 42.92364501953125 112.6126937866211 43.65364456176758 112.66602325439453 44.340309143066406 L 112.72602844238281 44.340309143066406 C 112.75936126708984 43.72697830200195 112.90269470214844 42.996978759765625 113.15602111816406 42.15031051635742 L 115.20602416992188 36.0803108215332 L 118.24602508544922 36.0803108215332 L 114.18602752685547 46.74031066894531 L 111.1960220336914 46.74031066894531 ZM 139.17410278320312 33.3203125 C 139.17410278320312 32.37364196777344 139.7041015625 31.900310516357422 140.7641143798828 31.900310516357422 C 141.81744384765625 31.900310516357422 142.3441162109375 32.37364196777344 142.3441162109375 33.3203125 C 142.3441162109375 33.773643493652344 142.2107696533203 34.126976013183594 141.94410705566406 34.38031005859375 C 141.68411254882812 34.626976013183594 141.290771484375 34.75031280517578 140.7641143798828 34.75031280517578 C 139.7041015625 34.75031280517578 139.17410278320312 34.273643493652344 139.17410278320312 33.3203125 M 142.2041015625 46.74031066894531 L 139.30410766601562 46.74031066894531 L 139.30410766601562 36.0803108215332 L 142.2041015625 36.0803108215332 L 142.2041015625 46.74031066894531 ZM 169.12399291992188 46.9303092956543 C 165.80398559570312 46.9303092956543 164.1439971923828 45.11030960083008 164.1439971923828 41.47031021118164 C 164.1439971923828 39.656978607177734 164.593994140625 38.27030944824219 165.49398803710938 37.31031036376953 C 166.40066528320312 36.35697937011719 167.69398498535156 35.88031005859375 169.37399291992188 35.88031005859375 C 170.60733032226562 35.88031005859375 171.7139892578125 36.12031173706055 172.69400024414062 36.600311279296875 L 171.833984375 38.850311279296875 C 171.3806610107422 38.670310974121094 170.9573211669922 38.52030944824219 170.56399536132812 38.40031051635742 C 170.1639862060547 38.280311584472656 169.76731872558594 38.22031021118164 169.37399291992188 38.22031021118164 C 167.86065673828125 38.22031021118164 167.10398864746094 39.29697799682617 167.10398864746094 41.45030975341797 C 167.10398864746094 43.5369758605957 167.86065673828125 44.5803108215332 169.37399291992188 44.5803108215332 C 169.93399047851562 44.5803108215332 170.45399475097656 44.50364303588867 170.93399047851562 44.350311279296875 C 171.40731811523438 44.203643798828125 171.8839874267578 43.97031021118164 172.36399841308594 43.65031051635742 L 172.36399841308594 46.14031219482422 C 171.89065551757812 46.440311431884766 171.4139862060547 46.646976470947266 170.93399047851562 46.760311126708984 C 170.45399475097656 46.8736457824707 169.8506622314453 46.9303092956543 169.12399291992188 46.9303092956543 ZM 194.2342987060547 33.3203125 C 194.2342987060547 32.37364196777344 194.76429748535156 31.900310516357422 195.82431030273438 31.900310516357422 C 196.8776397705078 31.900310516357422 197.40431213378906 32.37364196777344 197.40431213378906 33.3203125 C 197.40431213378906 33.773643493652344 197.27096557617188 34.126976013183594 197.00430297851562 34.38031005859375 C 196.7443084716797 34.626976013183594 196.35096740722656 34.75031280517578 195.82431030273438 34.75031280517578 C 194.76429748535156 34.75031280517578 194.2342987060547 34.273643493652344 194.2342987060547 33.3203125 M 197.26429748535156 46.74031066894531 L 194.3643035888672 46.74031066894531 L 194.3643035888672 36.0803108215332 L 197.26429748535156 36.0803108215332 L 197.26429748535156 46.74031066894531 ZM 222.1641845703125 41.39031219482422 C 222.1641845703125 42.44364547729492 222.3375244140625 43.24031066894531 222.68418884277344 43.780311584472656 C 223.03085327148438 44.3203125 223.59751892089844 44.590309143066406 224.38418579101562 44.590309143066406 C 225.1575164794922 44.590309143066406 225.7141876220703 44.32364273071289 226.05418395996094 43.79030990600586 C 226.39419555664062 43.250308990478516 226.56419372558594 42.45030975341797 226.56419372558594 41.39031219482422 C 226.56419372558594 40.336978912353516 226.39085388183594 39.54697799682617 226.044189453125 39.02030944824219 C 225.70419311523438 38.486976623535156 225.14419555664062 38.22031021118164 224.3641815185547 38.22031021118164 C 223.5841827392578 38.22031021118164 223.02418518066406 38.483642578125 222.68418884277344 39.010311126708984 C 222.3375244140625 39.5369758605957 222.1641845703125 40.3303108215332 222.1641845703125 41.39031219482422 M 229.544189453125 41.39031219482422 C 229.544189453125 43.1236457824707 229.0841827392578 44.48031234741211 228.1641845703125 45.46031188964844 C 227.2508544921875 46.440311431884766 225.97752380371094 46.9303092956543 224.3441925048828 46.9303092956543 C 223.31752014160156 46.9303092956543 222.4141845703125 46.70697784423828 221.63418579101562 46.260311126708984 C 220.85418701171875 45.81364440917969 220.25418090820312 45.170310974121094 219.8341827392578 44.3303108215332 C 219.4141845703125 43.49031066894531 219.20419311523438 42.510311126708984 219.20419311523438 41.39031219482422 C 219.20419311523438 39.65031051635742 219.6575164794922 38.29697799682617 220.56419372558594 37.3303108215332 C 221.47085571289062 36.363643646240234 222.74752807617188 35.88031005859375 224.39419555664062 35.88031005859375 C 225.4208526611328 35.88031005859375 226.32418823242188 36.10364532470703 227.10418701171875 36.55031204223633 C 227.89085388183594 36.99031066894531 228.4941864013672 37.626976013183594 228.9141845703125 38.46031188964844 C 229.3341827392578 39.293643951416016 229.544189453125 40.27030944824219 229.544189453125 41.39031219482422 Z" transform="matrix(0.7062786221504211, 0, 0, 0.7062786221504211, -0.7192201614379883, 29.467382431030273)" style="fill: rgb(23, 46, 255); white-space: pre; color: rgb(23, 46, 255); stroke: rgb(23, 46, 255); paint-order: fill; -webkit-text-stroke: rgb(23, 46, 255);"/><path d="M 22.80237579345703 55.62203598022461 L 19.16237449645996 55.62203598022461 L 19.16237449645996 41.51203536987305 L 14.512373924255371 41.51203536987305 L 14.512373924255371 38.492034912109375 L 27.452373504638672 38.492034912109375 L 27.452373504638672 41.51203536987305 L 22.80237579345703 41.51203536987305 L 22.80237579345703 55.62203598022461 ZM 38.125389099121094 55.62203598022461 L 37.42538833618164 53.842037200927734 L 37.33538818359375 53.842037200927734 C 36.735389709472656 54.60203552246094 36.115386962890625 55.125370025634766 35.47538757324219 55.41203689575195 C 34.84205627441406 55.70536804199219 34.012054443359375 55.85203552246094 32.985389709472656 55.85203552246094 C 31.7320556640625 55.85203552246094 30.742053985595703 55.49536895751953 30.01538848876953 54.78203582763672 C 29.29538917541504 54.062034606933594 28.935388565063477 53.03870391845703 28.935388565063477 51.7120361328125 C 28.935388565063477 50.318702697753906 29.422054290771484 49.29203796386719 30.395387649536133 48.63203430175781 C 31.36872100830078 47.9720344543457 32.83538818359375 47.605369567871094 34.795387268066406 47.53203582763672 L 37.06538772583008 47.4620361328125 L 37.06538772583008 46.89203643798828 C 37.06538772583008 45.56536865234375 36.3853874206543 44.902034759521484 35.025386810302734 44.902034759521484 C 33.978721618652344 44.902034759521484 32.748722076416016 45.21870422363281 31.33538818359375 45.85203552246094 L 30.15538787841797 43.432037353515625 C 31.66205596923828 42.64537048339844 33.332054138183594 42.252037048339844 35.16539001464844 42.252037048339844 C 36.92538833618164 42.252037048339844 38.275390625 42.63536834716797 39.215389251708984 43.402034759521484 C 40.148719787597656 44.168701171875 40.615386962890625 45.332035064697266 40.615386962890625 46.89203643798828 L 40.615386962890625 55.62203598022461 L 38.125389099121094 55.62203598022461 M 37.06538772583008 49.55203628540039 L 35.685386657714844 49.60203552246094 C 34.645389556884766 49.62870407104492 33.87205505371094 49.81536865234375 33.365386962890625 50.16203689575195 C 32.85872268676758 50.502037048339844 32.60538864135742 51.025367736816406 32.60538864135742 51.73203659057617 C 32.60538864135742 52.73870086669922 33.18205642700195 53.242034912109375 34.33538818359375 53.242034912109375 C 35.16205596923828 53.242034912109375 35.82538986206055 53.00537109375 36.32538604736328 52.53203582763672 C 36.818721771240234 52.05203628540039 37.06538772583008 51.418701171875 37.06538772583008 50.63203430175781 L 37.06538772583008 49.55203628540039 ZM 47.86582946777344 55.62203598022461 L 44.29582977294922 55.62203598022461 L 44.29582977294922 37.39203643798828 L 47.86582946777344 37.39203643798828 L 47.86582946777344 55.62203598022461 ZM 55.18719482421875 55.62203598022461 L 51.61719512939453 55.62203598022461 L 51.61719512939453 37.39203643798828 L 55.18719482421875 37.39203643798828 L 55.18719482421875 55.62203598022461 ZM 64.35855865478516 44.82203674316406 C 63.59856033325195 44.82203674316406 63.005226135253906 45.062034606933594 62.57855987548828 45.54203796386719 C 62.151893615722656 46.02203369140625 61.90522766113281 46.70203399658203 61.838558197021484 47.582035064697266 L 66.85855865478516 47.582035064697266 C 66.83856201171875 46.70203399658203 66.60855865478516 46.02203369140625 66.1685562133789 45.54203796386719 C 65.72189331054688 45.062034606933594 65.11856079101562 44.82203674316406 64.35855865478516 44.82203674316406 M 64.85855865478516 55.85203552246094 C 62.75189208984375 55.85203552246094 61.105224609375 55.272037506103516 59.91856002807617 54.112037658691406 C 58.73189163208008 52.945369720458984 58.1385612487793 51.29536819458008 58.1385612487793 49.16203689575195 C 58.1385612487793 46.96870422363281 58.68522644042969 45.27203369140625 59.778560638427734 44.07203674316406 C 60.87855911254883 42.87203598022461 62.3985595703125 42.27203369140625 64.33856201171875 42.27203369140625 C 66.18522644042969 42.27203369140625 67.62522888183594 42.798702239990234 68.65856170654297 43.85203552246094 C 69.69189453125 44.91203689575195 70.20855712890625 46.37203598022461 70.20855712890625 48.23203659057617 L 70.20855712890625 49.9620361328125 L 61.75856018066406 49.9620361328125 C 61.798561096191406 50.97536849975586 62.09856033325195 51.76870346069336 62.6585578918457 52.342037200927734 C 63.22522735595703 52.9087028503418 64.01522827148438 53.19203567504883 65.02855682373047 53.19203567504883 C 65.81522369384766 53.19203567504883 66.5618896484375 53.112037658691406 67.26856231689453 52.95203399658203 C 67.96855926513672 52.785369873046875 68.70188903808594 52.522037506103516 69.46855926513672 52.16203689575195 L 69.46855926513672 54.932037353515625 C 68.8418960571289 55.24536895751953 68.17522430419922 55.478702545166016 67.46855926513672 55.63203430175781 C 66.7552261352539 55.77870178222656 65.88522338867188 55.85203552246094 64.85855865478516 55.85203552246094 ZM 80.42271423339844 42.27203369140625 C 80.9027099609375 42.27203369140625 81.3027114868164 42.30870056152344 81.62271118164062 42.38203430175781 L 81.36270904541016 45.73203659057617 C 81.06938171386719 45.652034759521484 80.71604919433594 45.612037658691406 80.3027114868164 45.612037658691406 C 79.16271209716797 45.612037658691406 78.27271270751953 45.90536880493164 77.6327133178711 46.492034912109375 C 76.99938201904297 47.078704833984375 76.68270874023438 47.898704528808594 76.68270874023438 48.95203399658203 L 76.68270874023438 55.62203598022461 L 73.11270904541016 55.62203598022461 L 73.11270904541016 42.52203369140625 L 75.81271362304688 42.52203369140625 L 76.34271240234375 44.72203826904297 L 76.52271270751953 44.72203826904297 C 76.92271423339844 43.98870086669922 77.46937561035156 43.398704528808594 78.16271209716797 42.95203399658203 C 78.85604858398438 42.49870300292969 79.609375 42.27203369140625 80.42271423339844 42.27203369140625 ZM 100.37882995605469 55.62203598022461 L 90.51883697509766 55.62203598022461 L 90.51883697509766 38.492034912109375 L 100.37882995605469 38.492034912109375 L 100.37882995605469 41.4620361328125 L 94.14883422851562 41.4620361328125 L 94.14883422851562 45.23203659057617 L 99.94883728027344 45.23203659057617 L 99.94883728027344 48.20203399658203 L 94.14883422851562 48.20203399658203 L 94.14883422851562 52.62203598022461 L 100.37882995605469 52.62203598022461 L 100.37882995605469 55.62203598022461 ZM 112.81500244140625 51.73203659057617 C 112.81500244140625 53.07203674316406 112.34832763671875 54.095367431640625 111.41500091552734 54.80203628540039 C 110.4749984741211 55.502037048339844 109.07833099365234 55.85203552246094 107.2249984741211 55.85203552246094 C 106.27166748046875 55.85203552246094 105.45832824707031 55.78870391845703 104.78499603271484 55.66203689575195 C 104.11166381835938 55.535369873046875 103.4816665649414 55.345367431640625 102.8949966430664 55.092037200927734 L 102.8949966430664 52.14203643798828 C 103.5616683959961 52.45536804199219 104.3116683959961 52.715370178222656 105.1449966430664 52.922035217285156 C 105.97166442871094 53.13536834716797 106.70166778564453 53.242034912109375 107.33499908447266 53.242034912109375 C 108.63499450683594 53.242034912109375 109.28499603271484 52.86870193481445 109.28499603271484 52.12203598022461 C 109.28499603271484 51.83536911010742 109.19833374023438 51.605369567871094 109.0250015258789 51.432037353515625 C 108.8516616821289 51.25870132446289 108.55500030517578 51.05870056152344 108.13499450683594 50.832035064697266 C 107.71499633789062 50.612037658691406 107.15166473388672 50.35203552246094 106.44499969482422 50.05203628540039 C 105.4383316040039 49.63203430175781 104.69833374023438 49.242034912109375 104.2249984741211 48.88203430175781 C 103.75166320800781 48.522037506103516 103.40833282470703 48.112037658691406 103.19499969482422 47.652034759521484 C 102.9816665649414 47.18537139892578 102.875 46.612037658691406 102.875 45.932037353515625 C 102.875 44.7653694152832 103.32499694824219 43.8653678894043 104.2249984741211 43.23203659057617 C 105.13166809082031 42.592037200927734 106.41166687011719 42.27203369140625 108.06499481201172 42.27203369140625 C 109.6449966430664 42.27203369140625 111.1816635131836 42.6153678894043 112.67499542236328 43.30203628540039 L 111.59500122070312 45.88203430175781 C 110.93499755859375 45.60203552246094 110.32166290283203 45.37203598022461 109.75499725341797 45.19203567504883 C 109.1816635131836 45.01203536987305 108.59832763671875 44.922035217285156 108.00499725341797 44.922035217285156 C 106.95166778564453 44.922035217285156 106.42499542236328 45.208702087402344 106.42499542236328 45.78203582763672 C 106.42499542236328 46.10203552246094 106.59500122070312 46.37870407104492 106.93499755859375 46.612037658691406 C 107.2750015258789 46.845367431640625 108.0183334350586 47.19203567504883 109.16500091552734 47.652034759521484 C 110.19166564941406 48.06536865234375 110.94166564941406 48.45203399658203 111.41500091552734 48.812034606933594 C 111.8949966430664 49.172035217285156 112.24832916259766 49.58536911010742 112.4749984741211 50.05203628540039 C 112.70166778564453 50.525367736816406 112.81500244140625 51.08536911010742 112.81500244140625 51.73203659057617 ZM 122.79003143310547 55.85203552246094 C 121.25003051757812 55.85203552246094 120.04336547851562 55.29536819458008 119.17002868652344 54.182037353515625 L 118.98003387451172 54.182037353515625 C 119.10669708251953 55.275367736816406 119.17002868652344 55.9087028503418 119.17002868652344 56.082035064697266 L 119.17002868652344 61.39203643798828 L 115.60002899169922 61.39203643798828 L 115.60002899169922 42.52203369140625 L 118.50003051757812 42.52203369140625 L 119.0100326538086 44.22203826904297 L 119.17002868652344 44.22203826904297 C 120.00336456298828 42.922035217285156 121.24002838134766 42.27203369140625 122.88003540039062 42.27203369140625 C 124.42669677734375 42.27203369140625 125.64002990722656 42.87203598022461 126.52003479003906 44.07203674316406 C 127.39336395263672 45.2653694152832 127.83003234863281 46.92536926269531 127.83003234863281 49.05203628540039 C 127.83003234863281 50.445369720458984 127.62336730957031 51.6587028503418 127.21002960205078 52.69203567504883 C 126.8033676147461 53.72536849975586 126.22003173828125 54.51203536987305 125.46002960205078 55.05203628540039 C 124.70669555664062 55.58536911010742 123.81669616699219 55.85203552246094 122.79003143310547 55.85203552246094 M 121.74003601074219 45.13203430175781 C 120.85336303710938 45.13203430175781 120.20669555664062 45.40536880493164 119.80003356933594 45.95203399658203 C 119.39336395263672 46.492034912109375 119.18336486816406 47.388702392578125 119.17002868652344 48.64203643798828 L 119.17002868652344 49.022037506103516 C 119.17002868652344 50.42870330810547 119.38003540039062 51.43870162963867 119.80003356933594 52.05203628540039 C 120.21336364746094 52.6587028503418 120.87336730957031 52.9620361328125 121.780029296875 52.9620361328125 C 123.38003540039062 52.9620361328125 124.1800308227539 51.64203643798828 124.1800308227539 49.002037048339844 C 124.1800308227539 47.715370178222656 123.98336791992188 46.74870300292969 123.59003448486328 46.10203552246094 C 123.19670104980469 45.45536804199219 122.58003234863281 45.13203430175781 121.74003601074219 45.13203430175781 ZM 136.2016143798828 44.82203674316406 C 135.4416046142578 44.82203674316406 134.84828186035156 45.062034606933594 134.42161560058594 45.54203796386719 C 133.9949493408203 46.02203369140625 133.74827575683594 46.70203399658203 133.68161010742188 47.582035064697266 L 138.7016143798828 47.582035064697266 C 138.68161010742188 46.70203399658203 138.4516143798828 46.02203369140625 138.01161193847656 45.54203796386719 C 137.56494140625 45.062034606933594 136.96160888671875 44.82203674316406 136.2016143798828 44.82203674316406 M 136.7016143798828 55.85203552246094 C 134.59494018554688 55.85203552246094 132.94827270507812 55.272037506103516 131.76161193847656 54.112037658691406 C 130.574951171875 52.945369720458984 129.9816131591797 51.29536819458008 129.9816131591797 49.16203689575195 C 129.9816131591797 46.96870422363281 130.5282745361328 45.27203369140625 131.62161254882812 44.07203674316406 C 132.72161865234375 42.87203598022461 134.24160766601562 42.27203369140625 136.18161010742188 42.27203369140625 C 138.0282745361328 42.27203369140625 139.46827697753906 42.798702239990234 140.50161743164062 43.85203552246094 C 141.53494262695312 44.91203689575195 142.05160522460938 46.37203598022461 142.05160522460938 48.23203659057617 L 142.05160522460938 49.9620361328125 L 133.6016082763672 49.9620361328125 C 133.64161682128906 50.97536849975586 133.9416046142578 51.76870346069336 134.50161743164062 52.342037200927734 C 135.0682830810547 52.9087028503418 135.8582763671875 53.19203567504883 136.87161254882812 53.19203567504883 C 137.6582794189453 53.19203567504883 138.40493774414062 53.112037658691406 139.1116180419922 52.95203399658203 C 139.81161499023438 52.785369873046875 140.54495239257812 52.522037506103516 141.31161499023438 52.16203689575195 L 141.31161499023438 54.932037353515625 C 140.68495178222656 55.24536895751953 140.01828002929688 55.478702545166016 139.31161499023438 55.63203430175781 C 138.59828186035156 55.77870178222656 137.728271484375 55.85203552246094 136.7016143798828 55.85203552246094 ZM 150.2757568359375 55.85203552246094 C 146.1957550048828 55.85203552246094 144.15576171875 53.6153678894043 144.15576171875 49.14203643798828 C 144.15576171875 46.915367126464844 144.70909118652344 45.215370178222656 145.81576538085938 44.04203796386719 C 146.92909240722656 42.862037658691406 148.5190887451172 42.27203369140625 150.58575439453125 42.27203369140625 C 152.1057586669922 42.27203369140625 153.46575927734375 42.568702697753906 154.66575622558594 43.16203689575195 L 153.61575317382812 45.932037353515625 C 153.04908752441406 45.70536804199219 152.52243041992188 45.51870346069336 152.0357666015625 45.37203598022461 C 151.55575561523438 45.23203659057617 151.0724334716797 45.16203689575195 150.58575439453125 45.16203689575195 C 148.7257537841797 45.16203689575195 147.79576110839844 46.48203659057617 147.79576110839844 49.12203598022461 C 147.79576110839844 51.682037353515625 148.7257537841797 52.9620361328125 150.58575439453125 52.9620361328125 C 151.27243041992188 52.9620361328125 151.90908813476562 52.86870193481445 152.49575805664062 52.682037353515625 C 153.08242797851562 52.502037048339844 153.66909790039062 52.215370178222656 154.25576782226562 51.82203674316406 L 154.25576782226562 54.88203430175781 C 153.67576599121094 55.24870300292969 153.09242248535156 55.502037048339844 152.50576782226562 55.64203643798828 C 151.9124298095703 55.78203582763672 151.16909790039062 55.85203552246094 150.2757568359375 55.85203552246094 ZM 157.13079833984375 39.13203430175781 C 157.13079833984375 37.97203826904297 157.78079223632812 37.39203643798828 159.08079528808594 37.39203643798828 C 160.37413024902344 37.39203643798828 161.0207977294922 37.97203826904297 161.0207977294922 39.13203430175781 C 161.0207977294922 39.68537139892578 160.8607940673828 40.11870193481445 160.54080200195312 40.432037353515625 C 160.21412658691406 40.73870086669922 159.7274627685547 40.89203643798828 159.08079528808594 40.89203643798828 C 157.78079223632812 40.89203643798828 157.13079833984375 40.30537033081055 157.13079833984375 39.13203430175781 M 160.8607940673828 55.62203598022461 L 157.29080200195312 55.62203598022461 L 157.29080200195312 42.52203369140625 L 160.8607940673828 42.52203369140625 L 160.8607940673828 55.62203598022461 ZM 172.93215942382812 55.62203598022461 L 172.23216247558594 53.842037200927734 L 172.1421661376953 53.842037200927734 C 171.5421600341797 54.60203552246094 170.9221649169922 55.125370025634766 170.28216552734375 55.41203689575195 C 169.64883422851562 55.70536804199219 168.81883239746094 55.85203552246094 167.7921600341797 55.85203552246094 C 166.53883361816406 55.85203552246094 165.548828125 55.49536895751953 164.82215881347656 54.78203582763672 C 164.10215759277344 54.062034606933594 163.74215698242188 53.03870391845703 163.74215698242188 51.7120361328125 C 163.74215698242188 50.318702697753906 164.2288360595703 49.29203796386719 165.20216369628906 48.63203430175781 C 166.1754913330078 47.9720344543457 167.6421661376953 47.605369567871094 169.60215759277344 47.53203582763672 L 171.87216186523438 47.4620361328125 L 171.87216186523438 46.89203643798828 C 171.87216186523438 45.56536865234375 171.19216918945312 44.902034759521484 169.83216857910156 44.902034759521484 C 168.78549194335938 44.902034759521484 167.5554962158203 45.21870422363281 166.1421661376953 45.85203552246094 L 164.962158203125 43.432037353515625 C 166.4688262939453 42.64537048339844 168.13882446289062 42.252037048339844 169.97216796875 42.252037048339844 C 171.73216247558594 42.252037048339844 173.08216857910156 42.63536834716797 174.02215576171875 43.402034759521484 C 174.9554901123047 44.168701171875 175.4221649169922 45.332035064697266 175.4221649169922 46.89203643798828 L 175.4221649169922 55.62203598022461 L 172.93215942382812 55.62203598022461 M 171.87216186523438 49.55203628540039 L 170.49215698242188 49.60203552246094 C 169.45216369628906 49.62870407104492 168.6788330078125 49.81536865234375 168.1721649169922 50.16203689575195 C 167.66549682617188 50.502037048339844 167.4121551513672 51.025367736816406 167.4121551513672 51.73203659057617 C 167.4121551513672 52.73870086669922 167.98883056640625 53.242034912109375 169.1421661376953 53.242034912109375 C 169.9688262939453 53.242034912109375 170.6321563720703 53.00537109375 171.1321563720703 52.53203582763672 C 171.62548828125 52.05203628540039 171.87216186523438 51.418701171875 171.87216186523438 50.63203430175781 L 171.87216186523438 49.55203628540039 ZM 182.672607421875 55.62203598022461 L 179.1026153564453 55.62203598022461 L 179.1026153564453 37.39203643798828 L 182.672607421875 37.39203643798828 L 182.672607421875 55.62203598022461 ZM 186.26397705078125 39.13203430175781 C 186.26397705078125 37.97203826904297 186.91397094726562 37.39203643798828 188.21397399902344 37.39203643798828 C 189.50730895996094 37.39203643798828 190.1539764404297 37.97203826904297 190.1539764404297 39.13203430175781 C 190.1539764404297 39.68537139892578 189.9939727783203 40.11870193481445 189.67398071289062 40.432037353515625 C 189.34730529785156 40.73870086669922 188.8606414794922 40.89203643798828 188.21397399902344 40.89203643798828 C 186.91397094726562 40.89203643798828 186.26397705078125 40.30537033081055 186.26397705078125 39.13203430175781 M 189.9939727783203 55.62203598022461 L 186.42398071289062 55.62203598022461 L 186.42398071289062 42.52203369140625 L 189.9939727783203 42.52203369140625 L 189.9939727783203 55.62203598022461 ZM 202.85533142089844 55.62203598022461 L 192.5053253173828 55.62203598022461 L 192.5053253173828 53.51203536987305 L 198.57533264160156 45.252037048339844 L 192.8753204345703 45.252037048339844 L 192.8753204345703 42.52203369140625 L 202.64532470703125 42.52203369140625 L 202.64532470703125 44.842037200927734 L 196.74533081054688 52.89203643798828 L 202.85533142089844 52.89203643798828 L 202.85533142089844 55.62203598022461 ZM 213.76779174804688 55.62203598022461 L 213.0677947998047 53.842037200927734 L 212.97779846191406 53.842037200927734 C 212.37779235839844 54.60203552246094 211.75779724121094 55.125370025634766 211.1177978515625 55.41203689575195 C 210.48446655273438 55.70536804199219 209.6544647216797 55.85203552246094 208.62779235839844 55.85203552246094 C 207.3744659423828 55.85203552246094 206.38446044921875 55.49536895751953 205.6577911376953 54.78203582763672 C 204.9377899169922 54.062034606933594 204.57778930664062 53.03870391845703 204.57778930664062 51.7120361328125 C 204.57778930664062 50.318702697753906 205.06446838378906 49.29203796386719 206.0377960205078 48.63203430175781 C 207.01112365722656 47.9720344543457 208.47779846191406 47.605369567871094 210.4377899169922 47.53203582763672 L 212.70779418945312 47.4620361328125 L 212.70779418945312 46.89203643798828 C 212.70779418945312 45.56536865234375 212.02780151367188 44.902034759521484 210.6678009033203 44.902034759521484 C 209.62112426757812 44.902034759521484 208.39112854003906 45.21870422363281 206.97779846191406 45.85203552246094 L 205.79779052734375 43.432037353515625 C 207.30445861816406 42.64537048339844 208.97445678710938 42.252037048339844 210.80780029296875 42.252037048339844 C 212.5677947998047 42.252037048339844 213.9178009033203 42.63536834716797 214.8577880859375 43.402034759521484 C 215.79112243652344 44.168701171875 216.25779724121094 45.332035064697266 216.25779724121094 46.89203643798828 L 216.25779724121094 55.62203598022461 L 213.76779174804688 55.62203598022461 M 212.70779418945312 49.55203628540039 L 211.32778930664062 49.60203552246094 C 210.2877960205078 49.62870407104492 209.51446533203125 49.81536865234375 209.00779724121094 50.16203689575195 C 208.50112915039062 50.502037048339844 208.24778747558594 51.025367736816406 208.24778747558594 51.73203659057617 C 208.24778747558594 52.73870086669922 208.824462890625 53.242034912109375 209.97779846191406 53.242034912109375 C 210.80445861816406 53.242034912109375 211.46778869628906 53.00537109375 211.96778869628906 52.53203582763672 C 212.46112060546875 52.05203628540039 212.70779418945312 51.418701171875 212.70779418945312 50.63203430175781 L 212.70779418945312 49.55203628540039 ZM 224.0782470703125 55.85203552246094 C 222.53823852539062 55.85203552246094 221.33157348632812 55.25537109375 220.45823669433594 54.062034606933594 C 219.5782470703125 52.86870193481445 219.13824462890625 51.2120361328125 219.13824462890625 49.092037200927734 C 219.13824462890625 46.945369720458984 219.5849151611328 45.27203369140625 220.47824096679688 44.07203674316406 C 221.37158203125 42.87203598022461 222.6049041748047 42.27203369140625 224.17823791503906 42.27203369140625 C 225.8249053955078 42.27203369140625 227.08157348632812 42.91203689575195 227.9482421875 44.19203567504883 L 228.0682373046875 44.19203567504883 C 227.88824462890625 43.21870422363281 227.79824829101562 42.34870147705078 227.79824829101562 41.582035064697266 L 227.79824829101562 37.39203643798828 L 231.37823486328125 37.39203643798828 L 231.37823486328125 55.62203598022461 L 228.63824462890625 55.62203598022461 L 227.9482421875 53.922035217285156 L 227.79824829101562 53.922035217285156 C 226.9849090576172 55.208702087402344 225.74490356445312 55.85203552246094 224.0782470703125 55.85203552246094 M 225.33824157714844 53.01203536987305 C 226.25157165527344 53.01203536987305 226.92156982421875 52.74536895751953 227.34823608398438 52.2120361328125 C 227.77490234375 51.67870330810547 228.00491333007812 50.775367736816406 228.03823852539062 49.502037048339844 L 228.03823852539062 49.12203598022461 C 228.03823852539062 47.715370178222656 227.8215789794922 46.70536804199219 227.38824462890625 46.092037200927734 C 226.9549102783203 45.48537063598633 226.25157165527344 45.182037353515625 225.2782440185547 45.182037353515625 C 224.47824096679688 45.182037353515625 223.85824584960938 45.51870346069336 223.41824340820312 46.19203567504883 C 222.97824096679688 46.87203598022461 222.75823974609375 47.855369567871094 222.75823974609375 49.14203643798828 C 222.75823974609375 50.42870330810547 222.98158264160156 51.39537048339844 223.42823791503906 52.04203796386719 C 223.87490844726562 52.68870162963867 224.51158142089844 53.01203536987305 225.33824157714844 53.01203536987305 ZM 237.95982360839844 49.05203628540039 C 237.95982360839844 50.345367431640625 238.17315673828125 51.32537078857422 238.59982299804688 51.992034912109375 C 239.0264892578125 52.652034759521484 239.71981811523438 52.98203659057617 240.67982482910156 52.98203659057617 C 241.63314819335938 52.98203659057617 242.31982421875 52.652034759521484 242.7398223876953 51.992034912109375 C 243.15982055664062 51.332035064697266 243.3698272705078 50.35203552246094 243.3698272705078 49.05203628540039 C 243.3698272705078 47.752037048339844 243.156494140625 46.77870178222656 242.72982788085938 46.13203430175781 C 242.309814453125 45.48537063598633 241.6198272705078 45.16203689575195 240.65982055664062 45.16203689575195 C 239.70648193359375 45.16203689575195 239.0198211669922 45.48203659057617 238.59982299804688 46.12203598022461 C 238.17315673828125 46.76870346069336 237.95982360839844 47.74536895751953 237.95982360839844 49.05203628540039 M 247.0198211669922 49.05203628540039 C 247.0198211669922 51.17870330810547 246.45648193359375 52.845367431640625 245.32981872558594 54.05203628540039 C 244.20982360839844 55.252037048339844 242.64315795898438 55.85203552246094 240.62982177734375 55.85203552246094 C 239.37649536132812 55.85203552246094 238.2698211669922 55.57870101928711 237.30982971191406 55.03203582763672 C 236.34982299804688 54.478702545166016 235.6098175048828 53.68870162963867 235.08982849121094 52.66203689575195 C 234.5764923095703 51.62870407104492 234.31982421875 50.42536926269531 234.31982421875 49.05203628540039 C 234.31982421875 46.90536880493164 234.87649536132812 45.23870086669922 235.9898223876953 44.05203628540039 C 237.1098175048828 42.8653678894043 238.67982482910156 42.27203369140625 240.6998291015625 42.27203369140625 C 241.95982360839844 42.27203369140625 243.06982421875 42.54536819458008 244.02981567382812 43.092037200927734 C 244.9898223876953 43.638702392578125 245.72982788085938 44.42536926269531 246.24981689453125 45.45203399658203 C 246.76315307617188 46.47203826904297 247.0198211669922 47.672035217285156 247.0198211669922 49.05203628540039 Z" transform="matrix(0.6352360248565674, 0, 0, 0.6352360248565674, 3.2863824367523193, 44.26469421386719)" style="fill: rgb(51, 51, 51); white-space: pre; color: rgb(51, 51, 51);"/></svg>