<?xml version="1.0" encoding="utf-8"?>
<svg id="master-artboard" viewBox="0 0 99.5 20.66666603088379" version="1.1" xmlns="http://www.w3.org/2000/svg" x="0px" y="0px" style="enable-background:new 0 0 1400 980;" width="99.5px" height="20.66666603088379px"><rect id="ee-background" x="0" y="0" width="99.5" height="20.66666603088379" style="fill: white; fill-opacity: 0; pointer-events: none;"/><g transform="matrix(0.9938428401947021, 0, 0, 0.9938428401947021, 0, -0.05188089609146118)"><rect id="rect-1" x="0" y="0" width="103.9735336303711" height="20.563705444335938" style="fill: white; fill-opacity: 0; pointer-events: none;"/><g transform="matrix(0.037996720522642136, 0, 0, 0.037996720522642136, 19.739578070485145, 0.5700540542602539)"><g>
	<g>
		<path d="M436.999,74.969C388.64,26.625,324.359,0,256,0S123.36,26.625,75.001,74.969C26.636,123.319,0,187.595,0,255.957&#10;&#9;&#9;&#9;c0,68.399,26.636,132.702,75.001,181.063C123.355,485.372,187.636,512,256,512c60.36,0,118.971-21.418,165.036-60.308&#10;&#9;&#9;&#9;c3.165-2.672,3.565-7.404,0.893-10.569c-2.671-3.165-7.403-3.565-10.568-0.893C367.997,476.839,312.823,497,256,497&#10;&#9;&#9;&#9;c-64.358,0-124.872-25.068-170.394-70.586C40.075,380.885,15,320.349,15,255.957C15,123.093,123.112,15,256,15&#10;&#9;&#9;&#9;s241,108.093,241,240.957c0,59.391-21.785,116.449-61.344,160.664c-2.762,3.087-2.498,7.829,0.589,10.59&#10;&#9;&#9;&#9;c3.088,2.762,7.829,2.499,10.591-0.588C488.857,379.653,512,319.042,512,255.957C512,187.595,485.364,123.319,436.999,74.969z" style="stroke: rgb(0, 0, 0); stroke-width: 20;"/>
	</g>
</g><g>
	<g>
		<path d="M255.998,34.951c-121.857,0-220.995,99.156-220.995,221.036c0,121.877,99.138,221.032,220.995,221.032&#10;&#9;&#9;&#9;c121.859,0,220.999-99.154,220.999-221.032C476.997,134.107,377.857,34.951,255.998,34.951z M50.003,255.987&#10;&#9;&#9;&#9;c0-110.459,87.36-200.884,196.603-205.813l-38.949,175.673L71.92,348.392C57.909,320.584,50.003,289.194,50.003,255.987z&#10;&#9;&#9;&#9; M248.493,110.959v130.32l-112.397,69.382l83.39-75.285c0.867-0.783,1.536-1.754,1.958-2.832c0.141-0.359,0.254-0.731,0.338-1.111&#10;&#9;&#9;&#9;L248.493,110.959z M255.998,462.019c-73.908,0-138.839-39.139-175.192-97.776l113.945-43.144c3.873-1.467,5.824-5.796,4.357-9.67&#10;&#9;&#9;&#9;c-1.467-3.874-5.795-5.824-9.67-4.358l-49.067,18.579L256,254.273l115.651,71.39L258.65,282.875c-1.713-0.647-3.6-0.647-5.313,0&#10;&#9;&#9;&#9;l-33.67,12.749c-3.873,1.467-5.824,5.796-4.357,9.67c1.467,3.874,5.795,5.825,9.67,4.358l31.014-11.744l175.198,66.338&#10;&#9;&#9;&#9;C394.837,422.881,329.906,462.019,255.998,462.019z M304.344,225.847l-7.941-35.822c-0.896-4.043-4.906-6.595-8.945-5.699&#10;&#9;&#9;&#9;c-4.044,0.896-6.596,4.902-5.699,8.946l8.393,37.86c0.282,1.581,1.065,3.084,2.35,4.244l83.36,75.259l-112.354-69.356V111.022&#10;&#9;&#9;&#9;l2.248,10.14c0.021,0.094,0.052,0.183,0.076,0.275l9.134,41.197c0.896,4.043,4.903,6.596,8.945,5.699&#10;&#9;&#9;&#9;c4.044-0.896,6.596-4.902,5.699-8.946L265.395,50.174c109.242,4.931,196.602,95.355,196.602,205.813&#10;&#9;&#9;&#9;c0,33.206-7.906,64.597-21.917,92.404L304.344,225.847z" style="stroke: rgb(0, 0, 0); stroke-width: 20;"/>
	</g>
</g><g>
</g><g>
</g><g>
</g><g>
</g><g>
</g><g>
</g><g>
</g><g>
</g><g>
</g><g>
</g><g>
</g><g>
</g><g>
</g><g>
</g><g>
</g></g><path d="M 58.45878219604492 16.8700008392334 L 60.60878372192383 16.8700008392334 L 54.42878341674805 34 L 52.45878219604492 34 L 46.318782806396484 16.8700008392334 L 48.42878341674805 16.8700008392334 L 52.36878204345703 27.950000762939453 C 52.82211685180664 29.22333335876465 53.1821174621582 30.463333129882812 53.44878387451172 31.670000076293945 C 53.728782653808594 30.40333366394043 54.09545135498047 29.139999389648438 54.54878234863281 27.880001068115234 L 58.45878219604492 16.8700008392334 Z" transform="matrix(0.9956659674644469, 0, 0, 0.9956659674644469, -4.5235356666211795, -14.996778488159178)" style="fill: rgb(51, 51, 51); white-space: pre; color: rgb(51, 51, 51); stroke: rgb(0, 0, 0); stroke-width: 1;"/><path d="M 81.90999603271484 34 L 79.7699966430664 28.549999237060547 L 72.90999603271484 28.549999237060547 L 70.79999542236328 34 L 68.77999877929688 34 L 75.54999542236328 16.799999237060547 L 77.22999572753906 16.799999237060547 L 83.97000122070312 34 L 81.90999603271484 34 M 79.1500015258789 26.760000228881836 L 77.15999603271484 21.450000762939453 C 76.9000015258789 20.77666664123535 76.63333129882812 19.953332901000977 76.36000061035156 18.979999542236328 C 76.1866683959961 19.726665496826172 75.94000244140625 20.549999237060547 75.6199951171875 21.450000762939453 L 73.61000061035156 26.760000228881836 L 79.1500015258789 26.760000228881836 Z" transform="matrix(0.99832022190094, 0, 0, 0.99832022190094, -12.974229636036904, -15.0302848815918)" style="fill: rgb(51, 51, 51); white-space: pre; color: rgb(51, 51, 51); stroke: rgb(0, 0, 0); stroke-width: 1;"/><path d="M 98.21890258789062 30.440000534057617 C 98.21890258789062 31.946666717529297 97.67223358154297 33.12333297729492 96.57889556884766 33.970001220703125 C 95.48556518554688 34.810001373291016 94.00222778320312 35.22999954223633 92.12889862060547 35.22999954223633 C 90.09556579589844 35.22999954223633 88.53223419189453 34.970001220703125 87.43889617919922 34.45000076293945 L 87.43889617919922 32.529998779296875 C 88.14556884765625 32.823333740234375 88.9122314453125 33.05666732788086 89.73889923095703 33.22999954223633 C 90.56556701660156 33.4033317565918 91.38556671142578 33.4900016784668 92.19889831542969 33.4900016784668 C 93.52556610107422 33.4900016784668 94.52556610107422 33.23666763305664 95.19889831542969 32.72999954223633 C 95.87223052978516 32.22999954223633 96.20890045166016 31.530000686645508 96.20890045166016 30.630001068115234 C 96.20890045166016 30.036666870117188 96.08889770507812 29.549999237060547 95.8488998413086 29.170000076293945 C 95.60890197753906 28.790000915527344 95.21223449707031 28.440000534057617 94.65889739990234 28.119998931884766 C 94.0988998413086 27.799999237060547 93.2489013671875 27.43666648864746 92.10890197753906 27.030000686645508 C 90.51556396484375 26.463333129882812 89.37556457519531 25.786666870117188 88.68889617919922 25 C 88.00222778320312 24.220001220703125 87.65889739990234 23.203332901000977 87.65889739990234 21.950000762939453 C 87.65889739990234 20.623332977294922 88.15556335449219 19.56999969482422 89.14889526367188 18.790000915527344 C 90.1422348022461 18.010000228881836 91.45556640625 17.6200008392334 93.08889770507812 17.6200008392334 C 94.79556274414062 17.6200008392334 96.36222839355469 17.933332443237305 97.78889465332031 18.559999465942383 L 97.16889953613281 20.290000915527344 C 95.75556182861328 19.696666717529297 94.37889862060547 19.399999618530273 93.03889465332031 19.399999618530273 C 91.98556518554688 19.399999618530273 91.1622314453125 19.626667022705078 90.56890106201172 20.079999923706055 C 89.9755630493164 20.53333282470703 89.67890167236328 21.163333892822266 89.67890167236328 21.970001220703125 C 89.67890167236328 22.56333351135254 89.78889465332031 23.049999237060547 90.00889587402344 23.43000030517578 C 90.22889709472656 23.810001373291016 90.5988998413086 24.156665802001953 91.118896484375 24.470001220703125 C 91.63890075683594 24.790000915527344 92.4322280883789 25.139999389648438 93.4989013671875 25.520000457763672 C 95.29889678955078 26.15999984741211 96.53556823730469 26.84666633605957 97.20890045166016 27.579999923706055 C 97.88223266601562 28.31333351135254 98.21890258789062 29.266666412353516 98.21890258789062 30.440000534057617 Z" transform="matrix(0.4445331394672393, 0, 0, 0.4445331394672393, 34.62438201904297, 3.6043755389814094)" style="fill: rgb(51, 51, 51); white-space: pre; color: rgb(51, 51, 51); stroke: rgb(0, 0, 0); stroke-width: 2;"/><path d="M 81.90999603271484 34 L 79.7699966430664 28.549999237060547 L 72.90999603271484 28.549999237060547 L 70.79999542236328 34 L 68.77999877929688 34 L 75.54999542236328 16.799999237060547 L 77.22999572753906 16.799999237060547 L 83.97000122070312 34 L 81.90999603271484 34 M 79.1500015258789 26.760000228881836 L 77.15999603271484 21.450000762939453 C 76.9000015258789 20.77666664123535 76.63333129882812 19.953332901000977 76.36000061035156 18.979999542236328 C 76.1866683959961 19.726665496826172 75.94000244140625 20.549999237060547 75.6199951171875 21.450000762939453 L 73.61000061035156 26.760000228881836 L 79.1500015258789 26.760000228881836 Z" transform="matrix(0.43507507443428034, 0, 0, 0.43507507443428034, 51.49773406982422, 4.449164090311975)" style="fill: rgb(51, 51, 51); white-space: pre; color: rgb(51, 51, 51); stroke: rgb(0, 0, 0); stroke-width: 2;"/><path d="M 33.7475700378418 58.02000045776367 L 39.567569732666016 58.02000045776367 L 39.567569732666016 66.36000061035156 C 38.667572021484375 66.64666748046875 37.7475700378418 66.86333465576172 36.80757141113281 67.01000213623047 C 35.86756896972656 67.15666961669922 34.78090286254883 67.2300033569336 33.547569274902344 67.2300033569336 C 30.95423698425293 67.2300033569336 28.93423843383789 66.45999908447266 27.487571716308594 64.91999816894531 C 26.040904998779297 63.380001068115234 25.317569732666016 61.21666717529297 25.317569732666016 58.43000030517578 C 25.317569732666016 56.650001525878906 25.677570343017578 55.09000015258789 26.397571563720703 53.75 C 27.110904693603516 52.40999984741211 28.14090347290039 51.38666534423828 29.487571716308594 50.68000030517578 C 30.82756996154785 49.97333526611328 32.400901794433594 49.62000274658203 34.20757293701172 49.62000274658203 C 36.034236907958984 49.62000274658203 37.737571716308594 49.9566650390625 39.317569732666016 50.62999725341797 L 38.53757095336914 52.38999938964844 C 36.99090576171875 51.72999954223633 35.50423812866211 51.400001525878906 34.077571868896484 51.400001525878906 C 31.990903854370117 51.400001525878906 30.360904693603516 52.02333450317383 29.187570571899414 53.27000045776367 C 28.014236450195312 54.51000213623047 27.427570343017578 56.22999954223633 27.427570343017578 58.43000030517578 C 27.427570343017578 60.74333190917969 27.994237899780273 62.5 29.12757110595703 63.70000076293945 C 30.25423812866211 64.8933334350586 31.910903930664062 65.48999786376953 34.097572326660156 65.48999786376953 C 35.284236907958984 65.48999786376953 36.444236755371094 65.35333251953125 37.577571868896484 65.08000183105469 L 37.577571868896484 59.79999923706055 L 33.7475700378418 59.79999923706055 L 33.7475700378418 58.02000045776367 Z" transform="matrix(1, 0, 0, 1, -23.836387634277344, -48.13117599487305)" style="fill: rgb(51, 51, 51); white-space: pre; color: rgb(51, 51, 51); stroke: rgb(0, 0, 0); stroke-width: 1;"/><path d="M 76.81212615966797 24.389938354492188" style="fill: rgb(51, 51, 51); fill-opacity: 1; stroke: rgb(0, 0, 0); stroke-opacity: 1; stroke-width: 2; paint-order: stroke;" transform="matrix(1, 0, 0, 1, 0, 0)"/><path d="M 94.85894775390625 29.59613037109375 C 94.85894775390625 29.0694637298584 94.97895050048828 28.67279624938965 95.21894836425781 28.406129837036133 C 95.45894622802734 28.132797241210938 95.7989501953125 27.996129989624023 96.23895263671875 27.996129989624023 C 96.6922836303711 27.996129989624023 97.04561614990234 28.132797241210938 97.2989501953125 28.406129837036133 C 97.55895233154297 28.67279624938965 97.68894958496094 29.0694637298584 97.68894958496094 29.59613037109375 C 97.68894958496094 30.10279655456543 97.55895233154297 30.492795944213867 97.2989501953125 30.766130447387695 C 97.03894805908203 31.03946304321289 96.68561553955078 31.176130294799805 96.23895263671875 31.176130294799805 C 95.84561920166016 31.176130294799805 95.51561737060547 31.052797317504883 95.24894714355469 30.806129455566406 C 94.98895263671875 30.559463500976562 94.85894775390625 30.156129837036133 94.85894775390625 29.59613037109375 Z" transform="matrix(0.41541627049446106, 0, 0, 0.41541627049446106, 39.15047836303711, 7.115397930145264)" style="fill: rgb(51, 51, 51); white-space: pre; color: rgb(51, 51, 51);"/></g><path d="M 94.85894775390625 29.332048416137695 C 94.85894775390625 28.805381774902344 94.97895050048828 28.408714294433594 95.21894836425781 28.142047882080078 C 95.45894622802734 27.868715286254883 95.7989501953125 27.73204803466797 96.23895263671875 27.73204803466797 C 96.6922836303711 27.73204803466797 97.04561614990234 27.868715286254883 97.2989501953125 28.142047882080078 C 97.55895233154297 28.408714294433594 97.68894958496094 28.805381774902344 97.68894958496094 29.332048416137695 C 97.68894958496094 29.838714599609375 97.55895233154297 30.228713989257812 97.2989501953125 30.50204849243164 C 97.03894805908203 30.775381088256836 96.68561553955078 30.91204833984375 96.23895263671875 30.91204833984375 C 95.84561920166016 30.91204833984375 95.51561737060547 30.788715362548828 95.24894714355469 30.54204750061035 C 94.98895263671875 30.295381546020508 94.85894775390625 29.892047882080078 94.85894775390625 29.332048416137695 Z" transform="matrix(0.3975695073604584, 0, 0, 0.3975695073604584, 50.49101638793945, 7.199156761169434)" style="fill: rgb(51, 51, 51); white-space: pre; color: rgb(51, 51, 51);"/></svg>