<?xml version="1.0" encoding="utf-8"?>
<svg id="master-artboard" viewBox="0 0 97.27242279052734 41.49088668823242" xmlns="http://www.w3.org/2000/svg" width="97.27242279052734px" height="41.49088668823242px" version="1.1" style="shape-rendering:geometricPrecision; text-rendering:geometricPrecision; image-rendering:optimizeQuality; fill-rule:evenodd; clip-rule:evenodd"><rect id="ee-background" x="0" y="0" width="97.27242279052734" height="41.49088668823242" style="fill: white; fill-opacity: 0; pointer-events: none;"/><g transform="matrix(1.1396745685462724, 0, 0, 1.1396745685462724, 0.1442008711037532, 0.10651595145463943)"><path d="M 0 0 H 84.499992 V 36 H 0 V 0 Z" id="rect-4" style="fill: white; fill-opacity: 0; pointer-events: none;"/><g transform="matrix(1.000000238418579, 0, 0, 1.000000238418579, -0.9903607368469238, 0)"><path d="M 0 0 H 90.980713 V 21 H 0 V 0 Z" id="rect-3" style="fill: white; fill-opacity: 0; pointer-events: none;"/><g transform="matrix(1.0050251256281406, 0, 0, 1.0050251256281406, -0.000002023874451140273, 0.11474164167241341)"><path d="M 0 0 H 99.5 V 20.666666 H 0 V 0 Z" id="rect-2" style="fill: white; fill-opacity: 0; pointer-events: none;"/><g transform="matrix(0.9938428401947021, 0, 0, 0.9938428401947021, 0, -0.05188089609146118)"><path d="M 0 0 H 103.973534 V 20.563705 H 0 V 0 Z" id="rect-1" style="fill: white; fill-opacity: 0; pointer-events: none;"/><path d="M 58.45878219604492 16.8700008392334 L 60.60878372192383 16.8700008392334 L 54.42878341674805 34 L 52.45878219604492 34 L 46.318782806396484 16.8700008392334 L 48.42878341674805 16.8700008392334 L 52.36878204345703 27.950000762939453 C 52.82211685180664 29.22333335876465 53.1821174621582 30.463333129882812 53.44878387451172 31.670000076293945 C 53.728782653808594 30.40333366394043 54.09545135498047 29.139999389648438 54.54878234863281 27.880001068115234 L 58.45878219604492 16.8700008392334 Z" transform="matrix(0.9956659674644469, 0, 0, 0.9956659674644469, -5.5246997358021765, -14.996778488159178)" style="fill: rgb(51, 51, 51); white-space: pre; color: rgb(51, 51, 51); stroke: rgb(0, 0, 0); stroke-width: 1;"/><path d="M 81.90999603271484 34 L 79.7699966430664 28.549999237060547 L 72.90999603271484 28.549999237060547 L 70.79999542236328 34 L 68.77999877929688 34 L 75.54999542236328 16.799999237060547 L 77.22999572753906 16.799999237060547 L 83.97000122070312 34 L 81.90999603271484 34 M 79.1500015258789 26.760000228881836 L 77.15999603271484 21.450000762939453 C 76.9000015258789 20.77666664123535 76.63333129882812 19.953332901000977 76.36000061035156 18.979999542236328 C 76.1866683959961 19.726665496826172 75.94000244140625 20.549999237060547 75.6199951171875 21.450000762939453 L 73.61000061035156 26.760000228881836 L 79.1500015258789 26.760000228881836 Z" transform="matrix(0.9983202219009399, 0, 0, 0.9983202219009399, -13.975393819969657, -15.030284881591797)" style="fill: rgb(51, 51, 51); white-space: pre; color: rgb(51, 51, 51); stroke: rgb(0, 0, 0); stroke-width: 1;"/><path d="M 38.41967010498047 58.52058029174805 L 39.567569732666016 58.52058792114258 L 39.567569732666016 66.36000061035156 C 38.667572021484375 66.64666748046875 37.7475700378418 66.86333465576172 36.80757141113281 67.01000213623047 C 35.86756896972656 67.15666961669922 34.78090286254883 67.2300033569336 33.547569274902344 67.2300033569336 C 30.95423698425293 67.2300033569336 28.93423843383789 66.45999908447266 27.487571716308594 64.91999816894531 C 26.040904998779297 63.380001068115234 25.317569732666016 61.21666717529297 25.317569732666016 58.43000030517578 C 25.317569732666016 56.650001525878906 25.677570343017578 55.09000015258789 26.397571563720703 53.75 C 27.110904693603516 52.40999984741211 28.14090347290039 51.38666534423828 29.487571716308594 50.68000030517578 C 30.82756996154785 49.97333526611328 32.400901794433594 49.62000274658203 34.20757293701172 49.62000274658203 C 36.034236907958984 49.62000274658203 37.737571716308594 49.9566650390625 39.317569732666016 50.62999725341797 L 38.53757095336914 52.38999938964844 C 36.99090576171875 51.72999954223633 35.50423812866211 51.400001525878906 34.077571868896484 51.400001525878906 C 31.990903854370117 51.400001525878906 30.360904693603516 52.02333450317383 29.187570571899414 53.27000045776367 C 28.014236450195312 54.51000213623047 27.427570343017578 56.22999954223633 27.427570343017578 58.43000030517578 C 27.427570343017578 60.74333190917969 27.994237899780273 62.5 29.12757110595703 63.70000076293945 C 30.25423812866211 64.8933334350586 31.910903930664062 65.48999786376953 34.097572326660156 65.48999786376953 C 35.284236907958984 65.48999786376953 36.444236755371094 65.35333251953125 37.577571868896484 65.08000183105469 L 37.577571868896484 59.79999923706055 L 37.41850280761719 58.63197326660156 L 38.41967010498047 58.52058029174805 Z" transform="matrix(1, 0, 0, 1, -22.835223626929757, -48.13117599487305)" style="fill: rgb(51, 51, 51); white-space: pre; color: rgb(51, 51, 51); stroke: rgb(0, 0, 0); stroke-width: 1;"/><path d="M 76.81212615966797 24.389938354492188" style="fill: rgb(51, 51, 51); fill-opacity: 1; stroke: rgb(0, 0, 0); stroke-opacity: 1; stroke-width: 2; paint-order: stroke;" transform="matrix(1, 0, 0, 1, 0, 0)"/><path d="M 88.0677719116211 10.388432502746582" style="fill: rgb(51, 51, 51); fill-opacity: 1; stroke: rgb(0, 0, 0); stroke-opacity: 1; stroke-width: 0; paint-order: stroke;"/><path d="M 88.0677719116211 15.727973937988281 L 89.06893157958984 15.727973937988281" style="fill: rgb(51, 51, 51); fill-opacity: 1; stroke: rgb(0, 0, 0); stroke-opacity: 1; stroke-width: 0; paint-order: stroke;"/></g><path d="M 99.002197265625 44.58912658691406 C 99.002197265625 46.22246170043945 98.5888671875 47.67579650878906 97.76219940185547 48.949127197265625 C 96.92886352539062 50.21579360961914 95.7322006225586 51.20246124267578 94.17219543457031 51.90913009643555 C 92.60552978515625 52.609127044677734 90.76886749267578 52.959129333496094 88.66220092773438 52.959129333496094 C 86.90886688232422 52.959129333496094 85.43553161621094 52.83579635620117 84.24220275878906 52.58913040161133 C 83.05553436279297 52.34246063232422 81.8155288696289 51.91246032714844 80.52220153808594 51.299129486083984 L 80.52220153808594 44.949127197265625 C 81.8822021484375 45.64246368408203 83.29886627197266 46.185794830322266 84.77220153808594 46.57912826538086 C 86.2388687133789 46.97246170043945 87.58553314208984 47.16912841796875 88.81219482421875 47.16912841796875 C 89.87220001220703 47.16912841796875 90.64886474609375 46.98579406738281 91.14219665527344 46.6191291809082 C 91.63552856445312 46.25246047973633 91.8822021484375 45.77912902832031 91.8822021484375 45.199127197265625 C 91.8822021484375 44.83912658691406 91.78219604492188 44.5224609375 91.58219909667969 44.24913024902344 C 91.3822021484375 43.982460021972656 91.06219482421875 43.709129333496094 90.62220001220703 43.42913055419922 C 90.18219757080078 43.15579605102539 89.01219940185547 42.59246063232422 87.11219787597656 41.73912811279297 C 85.39219665527344 40.95246124267578 84.1021957397461 40.19246292114258 83.24220275878906 39.459129333496094 C 82.3822021484375 38.72579574584961 81.74552917480469 37.88579559326172 81.33219909667969 36.93912887573242 C 80.91220092773438 35.98579406738281 80.70220184326172 34.859130859375 80.70220184326172 33.55912780761719 C 80.70220184326172 31.132461547851562 81.5888671875 29.23912811279297 83.36219787597656 27.87912940979004 C 85.12886810302734 26.519128799438477 87.55886840820312 25.839128494262695 90.6521987915039 25.839128494262695 C 93.37886810302734 25.839128494262695 96.16220092773438 26.46912956237793 99.002197265625 27.729127883911133 L 96.82219696044922 33.23912811279297 C 94.35552978515625 32.105796813964844 92.22553253173828 31.53912925720215 90.43219757080078 31.53912925720215 C 89.50553131103516 31.53912925720215 88.83219909667969 31.70246124267578 88.41220092773438 32.02912902832031 C 87.99220275878906 32.34912872314453 87.78219604492188 32.752464294433594 87.78219604492188 33.23912811279297 C 87.78219604492188 33.752464294433594 88.04886627197266 34.215797424316406 88.58219909667969 34.629127502441406 C 89.12220001220703 35.035797119140625 90.57553100585938 35.77912902832031 92.94219970703125 36.859130859375 C 95.21553039550781 37.88579559326172 96.7955322265625 38.98579406738281 97.68219757080078 40.15913009643555 C 98.56219482421875 41.332462310791016 99.002197265625 42.80912780761719 99.002197265625 44.58912658691406 ZM 101.78314208984375 49.59912872314453 C 101.78314208984375 48.492462158203125 102.1131362915039 47.639129638671875 102.77313995361328 47.039127349853516 C 103.42647552490234 46.43912887573242 104.37980651855469 46.139129638671875 105.63314056396484 46.139129638671875 C 106.81980895996094 46.139129638671875 107.73313903808594 46.43912887573242 108.37313842773438 47.039127349853516 C 109.01313781738281 47.639129638671875 109.33313751220703 48.492462158203125 109.33313751220703 49.59912872314453 C 109.33313751220703 50.685794830322266 109.00314331054688 51.53246307373047 108.3431396484375 52.139129638671875 C 107.68980407714844 52.74579620361328 106.78646850585938 53.049129486083984 105.63314056396484 53.049129486083984 C 104.43980407714844 53.049129486083984 103.49980926513672 52.74913024902344 102.81314086914062 52.14912796020508 C 102.12647247314453 51.549129486083984 101.78314208984375 50.699127197265625 101.78314208984375 49.59912872314453 ZM 129.95664978027344 52.59912872314453 L 128.65664672851562 47.65913009643555 L 120.0866470336914 47.65913009643555 L 118.74665069580078 52.59912872314453 L 110.9166488647461 52.59912872314453 L 119.52664947509766 26.109128952026367 L 129.03665161132812 26.109128952026367 L 137.75665283203125 52.59912872314453 L 129.95664978027344 52.59912872314453 M 127.17665100097656 41.80912780761719 L 126.03665161132812 37.479129791259766 C 125.77664947509766 36.5124626159668 125.45664978027344 35.26579284667969 125.07664489746094 33.73912811279297 C 124.69664764404297 32.21246337890625 124.44664764404297 31.119129180908203 124.32664489746094 30.459129333496094 C 124.21998596191406 31.07246208190918 124.00665283203125 32.082462310791016 123.6866455078125 33.48912811279297 C 123.36664581298828 34.89579772949219 122.65998077392578 37.66912841796875 121.566650390625 41.80912780761719 L 127.17665100097656 41.80912780761719 ZM 139.30177307128906 49.59912872314453 C 139.30177307128906 48.492462158203125 139.63177490234375 47.639129638671875 140.29176330566406 47.039127349853516 C 140.94509887695312 46.43912887573242 141.8984375 46.139129638671875 143.15176391601562 46.139129638671875 C 144.33843994140625 46.139129638671875 145.25177001953125 46.43912887573242 145.8917694091797 47.039127349853516 C 146.53176879882812 47.639129638671875 146.85177612304688 48.492462158203125 146.85177612304688 49.59912872314453 C 146.85177612304688 50.685794830322266 146.5217742919922 51.53246307373047 145.8617706298828 52.139129638671875 C 145.20843505859375 52.74579620361328 144.3050994873047 53.049129486083984 143.15176391601562 53.049129486083984 C 141.95843505859375 53.049129486083984 141.0184326171875 52.74913024902344 140.33177185058594 52.14912796020508 C 139.6450958251953 51.549129486083984 139.30177307128906 50.699127197265625 139.30177307128906 49.59912872314453 Z" transform="matrix(0.18845106661319733, 0, 0, 0.18845106661319733, 57.04130172729492, 9.555134773254395)" style="fill: rgb(51, 51, 51); white-space: pre; color: rgb(51, 51, 51);"/></g><path d="M 12.199043273925781 10.314254760742188" style="fill-opacity: 1; stroke: rgb(0, 0, 0); stroke-opacity: 1; stroke-width: 10; paint-order: fill;"/></g><path d="M 22.80237579345703 55.543190002441406 L 19.16237449645996 55.543190002441406 L 19.16237449645996 41.433189392089844 L 14.512373924255371 41.433189392089844 L 14.512373924255371 38.41319274902344 L 27.452373504638672 38.41319274902344 L 27.452373504638672 41.433189392089844 L 22.80237579345703 41.433189392089844 L 22.80237579345703 55.543190002441406 ZM 38.12748336791992 55.543190002441406 L 37.42748260498047 53.76319122314453 L 37.33748245239258 53.76319122314453 C 36.737483978271484 54.523189544677734 36.11748123168945 55.04652404785156 35.477481842041016 55.33319091796875 C 34.84415054321289 55.626522064208984 34.0141487121582 55.773189544677734 32.987483978271484 55.773189544677734 C 31.734149932861328 55.773189544677734 30.74414825439453 55.41652297973633 30.01748275756836 54.703189849853516 C 29.297483444213867 53.98318862915039 28.937482833862305 52.95985794067383 28.937482833862305 51.6331901550293 C 28.937482833862305 50.2398567199707 29.424148559570312 49.21318817138672 30.39748191833496 48.553192138671875 C 31.37081527709961 47.8931884765625 32.83748245239258 47.52652359008789 34.797481536865234 47.453189849853516 L 37.067481994628906 47.3831901550293 L 37.067481994628906 46.81319046020508 C 37.067481994628906 45.48652267456055 36.387481689453125 44.82318878173828 35.02748107910156 44.82318878173828 C 33.98081588745117 44.82318878173828 32.750816345214844 45.139854431152344 31.337482452392578 45.773189544677734 L 30.157482147216797 43.35319137573242 C 31.66415023803711 42.566524505615234 33.33414840698242 42.17319107055664 35.16748046875 42.17319107055664 C 36.92748260498047 42.17319107055664 38.27748107910156 42.556522369384766 39.21748352050781 43.32318878173828 C 40.15081787109375 44.08985900878906 40.61748123168945 45.25318908691406 40.61748123168945 46.81319046020508 L 40.61748123168945 55.543190002441406 L 38.12748336791992 55.543190002441406 M 37.067481994628906 49.47319030761719 L 35.68748474121094 49.523189544677734 C 34.647483825683594 49.54985809326172 33.874149322509766 49.73652267456055 33.36748123168945 50.08319091796875 C 32.860816955566406 50.42319107055664 32.60748291015625 50.9465217590332 32.60748291015625 51.65319061279297 C 32.60748291015625 52.659854888916016 33.18415069580078 53.16318893432617 34.33748245239258 53.16318893432617 C 35.16415023803711 53.16318893432617 35.827484130859375 52.9265251159668 36.327484130859375 52.453189849853516 C 36.82081604003906 51.97319030761719 37.067481994628906 51.3398551940918 37.067481994628906 50.553192138671875 L 37.067481994628906 49.47319030761719 ZM 47.870113372802734 55.543190002441406 L 44.300113677978516 55.543190002441406 L 44.300113677978516 37.31319046020508 L 47.870113372802734 37.31319046020508 L 47.870113372802734 55.543190002441406 ZM 55.19258117675781 55.543190002441406 L 51.622581481933594 55.543190002441406 L 51.622581481933594 37.31319046020508 L 55.19258117675781 37.31319046020508 L 55.19258117675781 55.543190002441406 ZM 64.36505126953125 44.74319076538086 C 63.60504913330078 44.74319076538086 63.011714935302734 44.98318862915039 62.58504867553711 45.46318817138672 C 62.158382415771484 45.94319152832031 61.91171646118164 46.623191833496094 61.84504699707031 47.50318908691406 L 66.86505126953125 47.50318908691406 C 66.84504699707031 46.623191833496094 66.61505126953125 45.94319152832031 66.175048828125 45.46318817138672 C 65.72837829589844 44.98318862915039 65.12504577636719 44.74319076538086 64.36505126953125 44.74319076538086 M 64.86505126953125 55.773189544677734 C 62.75838088989258 55.773189544677734 61.11171340942383 55.19319152832031 59.925048828125 54.0331916809082 C 58.738380432128906 52.86652374267578 58.145050048828125 51.216522216796875 58.145050048828125 49.08319091796875 C 58.145050048828125 46.889854431152344 58.691715240478516 45.19319152832031 59.78504943847656 43.99319076538086 C 60.885047912597656 42.793190002441406 62.40504837036133 42.19319152832031 64.34504699707031 42.19319152832031 C 66.19171142578125 42.19319152832031 67.6317138671875 42.71985626220703 68.66504669189453 43.773189544677734 C 69.69837951660156 44.83319091796875 70.21504974365234 46.293190002441406 70.21504974365234 48.15319061279297 L 70.21504974365234 49.8831901550293 L 61.76504898071289 49.8831901550293 C 61.80504608154297 50.896522521972656 62.10504913330078 51.689857482910156 62.66504669189453 52.26319122314453 C 63.23171615600586 52.829856872558594 64.02171325683594 53.113189697265625 65.03504943847656 53.113189697265625 C 65.82171630859375 53.113189697265625 66.5683822631836 53.0331916809082 67.2750473022461 52.873191833496094 C 67.97505187988281 52.70652389526367 68.70838165283203 52.44319152832031 69.47505187988281 52.08319091796875 L 69.47505187988281 54.85319137573242 C 68.84838104248047 55.16652297973633 68.18171691894531 55.39985656738281 67.47505187988281 55.55318832397461 C 66.76171875 55.69985580444336 65.89171600341797 55.773189544677734 64.86505126953125 55.773189544677734 ZM 80.43134307861328 42.19319152832031 C 80.91133880615234 42.19319152832031 81.31134033203125 42.2298583984375 81.63134002685547 42.303192138671875 L 81.371337890625 45.65319061279297 C 81.07801055908203 45.57318878173828 80.72467041015625 45.53318786621094 80.31134033203125 45.53318786621094 C 79.17134094238281 45.53318786621094 78.28134155273438 45.82652282714844 77.64134216308594 46.41318893432617 C 77.00801086425781 46.999855041503906 76.69133758544922 47.819854736328125 76.69133758544922 48.873191833496094 L 76.69133758544922 55.543190002441406 L 73.121337890625 55.543190002441406 L 73.121337890625 42.44319152832031 L 75.82134246826172 42.44319152832031 L 76.3513412475586 44.6431884765625 L 76.53134155273438 44.6431884765625 C 76.93134307861328 43.90985870361328 77.4780044555664 43.319854736328125 78.17134094238281 42.873191833496094 C 78.86467742919922 42.419857025146484 79.61801147460938 42.19319152832031 80.43134307861328 42.19319152832031 ZM 100.39004516601562 55.543190002441406 L 90.53004455566406 55.543190002441406 L 90.53004455566406 38.41319274902344 L 100.39004516601562 38.41319274902344 L 100.39004516601562 41.3831901550293 L 94.16004180908203 41.3831901550293 L 94.16004180908203 45.15319061279297 L 99.96003723144531 45.15319061279297 L 99.96003723144531 48.123191833496094 L 94.16004180908203 48.123191833496094 L 94.16004180908203 52.543190002441406 L 100.39004516601562 52.543190002441406 L 100.39004516601562 55.543190002441406 ZM 112.82823181152344 51.65319061279297 C 112.82823181152344 52.99319076538086 112.361572265625 54.01652526855469 111.42823791503906 54.72319030761719 C 110.48823547363281 55.42319107055664 109.09156799316406 55.773189544677734 107.23823547363281 55.773189544677734 C 106.28490447998047 55.773189544677734 105.47156524658203 55.70985794067383 104.79823303222656 55.58319091796875 C 104.1249008178711 55.45652389526367 103.49490356445312 55.26652145385742 102.90823364257812 55.01319122314453 L 102.90823364257812 52.06319046020508 C 103.57490539550781 52.376522064208984 104.32490539550781 52.63652420043945 105.15823364257812 52.84318923950195 C 105.98490142822266 53.056522369384766 106.71490478515625 53.16318893432617 107.34823608398438 53.16318893432617 C 108.64823913574219 53.16318893432617 109.29823303222656 52.78985595703125 109.29823303222656 52.043190002441406 C 109.29823303222656 51.75652313232422 109.2115707397461 51.52652359008789 109.03823852539062 51.35319137573242 C 108.86489868164062 51.17985534667969 108.5682373046875 50.9798583984375 108.14823913574219 50.75318908691406 C 107.72823333740234 50.53318786621094 107.16490173339844 50.273189544677734 106.45823669433594 49.97319030761719 C 105.45156860351562 49.553192138671875 104.7115707397461 49.16318893432617 104.23823547363281 48.803192138671875 C 103.76490020751953 48.44319152832031 103.42156982421875 48.03318786621094 103.20823669433594 47.57318878173828 C 102.99490356445312 47.10652160644531 102.88823699951172 46.53318786621094 102.88823699951172 45.85319137573242 C 102.88823699951172 44.6865234375 103.3382339477539 43.786521911621094 104.23823547363281 43.15319061279297 C 105.14490509033203 42.51319122314453 106.4249038696289 42.19319152832031 108.07823181152344 42.19319152832031 C 109.65823364257812 42.19319152832031 111.19490051269531 42.536521911621094 112.688232421875 43.22319030761719 L 111.60823822021484 45.803192138671875 C 110.94823455810547 45.523189544677734 110.33489990234375 45.293190002441406 109.76823425292969 45.113189697265625 C 109.19490051269531 44.933189392089844 108.611572265625 44.84318923950195 108.01823425292969 44.84318923950195 C 106.96490478515625 44.84318923950195 106.438232421875 45.12985610961914 106.438232421875 45.703189849853516 C 106.438232421875 46.023189544677734 106.60823822021484 46.29985809326172 106.94823455810547 46.53318786621094 C 107.28823852539062 46.76652526855469 108.03157043457031 47.113189697265625 109.17823791503906 47.57318878173828 C 110.20490264892578 47.98652267456055 110.95490264892578 48.373191833496094 111.42823791503906 48.73318862915039 C 111.90823364257812 49.09318923950195 112.26156616210938 49.50652313232422 112.48823547363281 49.97319030761719 C 112.71490478515625 50.4465217590332 112.82823181152344 51.00652313232422 112.82823181152344 51.65319061279297 ZM 122.80506896972656 55.773189544677734 C 121.26506805419922 55.773189544677734 120.05840301513672 55.216522216796875 119.18506622314453 54.10319137573242 L 118.99507141113281 54.10319137573242 C 119.12173461914062 55.1965217590332 119.18506622314453 55.829856872558594 119.18506622314453 56.00318908691406 L 119.18506622314453 61.31319046020508 L 115.61506652832031 61.31319046020508 L 115.61506652832031 42.44319152832031 L 118.51506805419922 42.44319152832031 L 119.02507019042969 44.1431884765625 L 119.18506622314453 44.1431884765625 C 120.01840209960938 42.84318923950195 121.25506591796875 42.19319152832031 122.89506530761719 42.19319152832031 C 124.44173431396484 42.19319152832031 125.65506744384766 42.793190002441406 126.53507232666016 43.99319076538086 C 127.40840148925781 45.1865234375 127.8450698852539 46.84652328491211 127.8450698852539 48.97319030761719 C 127.8450698852539 50.36652374267578 127.6384048461914 51.579856872558594 127.22506713867188 52.613189697265625 C 126.81840515136719 53.646522521972656 126.23506927490234 54.433189392089844 125.47506713867188 54.97319030761719 C 124.72173309326172 55.50652313232422 123.83173370361328 55.773189544677734 122.80506896972656 55.773189544677734 M 121.75506591796875 45.053192138671875 C 120.86840057373047 45.053192138671875 120.22173309326172 45.32652282714844 119.81507110595703 45.873191833496094 C 119.40840148925781 46.41318893432617 119.19840240478516 47.30985641479492 119.18506622314453 48.56319046020508 L 119.18506622314453 48.94319152832031 C 119.18506622314453 50.349857330322266 119.39506530761719 51.35985565185547 119.81507110595703 51.97319030761719 C 120.22840118408203 52.579856872558594 120.8884048461914 52.8831901550293 121.7950668334961 52.8831901550293 C 123.39506530761719 52.8831901550293 124.195068359375 51.56319046020508 124.195068359375 48.92319107055664 C 124.195068359375 47.63652420043945 123.99840545654297 46.669857025146484 123.60507202148438 46.023189544677734 C 123.21173858642578 45.376522064208984 122.5950698852539 45.053192138671875 121.75506591796875 45.053192138671875 ZM 136.21893310546875 44.74319076538086 C 135.45892333984375 44.74319076538086 134.8656005859375 44.98318862915039 134.43893432617188 45.46318817138672 C 134.01226806640625 45.94319152832031 133.76559448242188 46.623191833496094 133.6989288330078 47.50318908691406 L 138.71893310546875 47.50318908691406 C 138.6989288330078 46.623191833496094 138.46893310546875 45.94319152832031 138.0289306640625 45.46318817138672 C 137.58226013183594 44.98318862915039 136.9789276123047 44.74319076538086 136.21893310546875 44.74319076538086 M 136.71893310546875 55.773189544677734 C 134.6122589111328 55.773189544677734 132.96559143066406 55.19319152832031 131.7789306640625 54.0331916809082 C 130.59226989746094 52.86652374267578 129.99893188476562 51.216522216796875 129.99893188476562 49.08319091796875 C 129.99893188476562 46.889854431152344 130.54559326171875 45.19319152832031 131.63893127441406 43.99319076538086 C 132.7389373779297 42.793190002441406 134.25892639160156 42.19319152832031 136.1989288330078 42.19319152832031 C 138.04559326171875 42.19319152832031 139.485595703125 42.71985626220703 140.51893615722656 43.773189544677734 C 141.55226135253906 44.83319091796875 142.0689239501953 46.293190002441406 142.0689239501953 48.15319061279297 L 142.0689239501953 49.8831901550293 L 133.61892700195312 49.8831901550293 C 133.658935546875 50.896522521972656 133.95892333984375 51.689857482910156 134.51893615722656 52.26319122314453 C 135.08560180664062 52.829856872558594 135.87559509277344 53.113189697265625 136.88893127441406 53.113189697265625 C 137.67559814453125 53.113189697265625 138.42225646972656 53.0331916809082 139.12893676757812 52.873191833496094 C 139.8289337158203 52.70652389526367 140.562255859375 52.44319152832031 141.3289337158203 52.08319091796875 L 141.3289337158203 54.85319137573242 C 140.7022705078125 55.16652297973633 140.0355987548828 55.39985656738281 139.3289337158203 55.55318832397461 C 138.6156005859375 55.69985580444336 137.74559020996094 55.773189544677734 136.71893310546875 55.773189544677734 ZM 150.29522705078125 55.773189544677734 C 146.21522521972656 55.773189544677734 144.17523193359375 53.536521911621094 144.17523193359375 49.06319046020508 C 144.17523193359375 46.836524963378906 144.7285614013672 45.13652420043945 145.83523559570312 43.96318817138672 C 146.9485626220703 42.78318786621094 148.53855895996094 42.19319152832031 150.605224609375 42.19319152832031 C 152.12522888183594 42.19319152832031 153.4852294921875 42.4898567199707 154.6852264404297 43.08319091796875 L 153.63522338867188 45.85319137573242 C 153.0685577392578 45.626522064208984 152.54190063476562 45.439857482910156 152.05523681640625 45.293190002441406 C 151.57522583007812 45.15319061279297 151.09190368652344 45.08319091796875 150.605224609375 45.08319091796875 C 148.74522399902344 45.08319091796875 147.8152313232422 46.40319061279297 147.8152313232422 49.043190002441406 C 147.8152313232422 51.60319137573242 148.74522399902344 52.8831901550293 150.605224609375 52.8831901550293 C 151.29190063476562 52.8831901550293 151.92855834960938 52.78985595703125 152.51522827148438 52.60319137573242 C 153.10189819335938 52.42319107055664 153.68856811523438 52.13652420043945 154.27523803710938 51.74319076538086 L 154.27523803710938 54.80318832397461 C 153.6952362060547 55.169857025146484 153.1118927001953 55.42319107055664 152.52523803710938 55.56319046020508 C 151.93190002441406 55.703189849853516 151.18856811523438 55.773189544677734 150.29522705078125 55.773189544677734 ZM 157.15213012695312 39.053192138671875 C 157.15213012695312 37.8931884765625 157.8021240234375 37.31319046020508 159.1021270751953 37.31319046020508 C 160.3954620361328 37.31319046020508 161.04212951660156 37.8931884765625 161.04212951660156 39.053192138671875 C 161.04212951660156 39.60652160644531 160.8821258544922 40.03985595703125 160.5621337890625 40.35319137573242 C 160.23545837402344 40.65985870361328 159.74879455566406 40.81319046020508 159.1021270751953 40.81319046020508 C 157.8021240234375 40.81319046020508 157.15213012695312 40.226524353027344 157.15213012695312 39.053192138671875 M 160.8821258544922 55.543190002441406 L 157.3121337890625 55.543190002441406 L 157.3121337890625 42.44319152832031 L 160.8821258544922 42.44319152832031 L 160.8821258544922 55.543190002441406 ZM 172.95458984375 55.543190002441406 L 172.2545928955078 53.76319122314453 L 172.1645965576172 53.76319122314453 C 171.56459045410156 54.523189544677734 170.94459533691406 55.04652404785156 170.30459594726562 55.33319091796875 C 169.6712646484375 55.626522064208984 168.8412628173828 55.773189544677734 167.81459045410156 55.773189544677734 C 166.56126403808594 55.773189544677734 165.57125854492188 55.41652297973633 164.84458923339844 54.703189849853516 C 164.1245880126953 53.98318862915039 163.76458740234375 52.95985794067383 163.76458740234375 51.6331901550293 C 163.76458740234375 50.2398567199707 164.2512664794922 49.21318817138672 165.22459411621094 48.553192138671875 C 166.1979217529297 47.8931884765625 167.6645965576172 47.52652359008789 169.6245880126953 47.453189849853516 L 171.89459228515625 47.3831901550293 L 171.89459228515625 46.81319046020508 C 171.89459228515625 45.48652267456055 171.214599609375 44.82318878173828 169.85459899902344 44.82318878173828 C 168.80792236328125 44.82318878173828 167.5779266357422 45.139854431152344 166.1645965576172 45.773189544677734 L 164.98458862304688 43.35319137573242 C 166.4912567138672 42.566524505615234 168.1612548828125 42.17319107055664 169.99459838867188 42.17319107055664 C 171.7545928955078 42.17319107055664 173.10459899902344 42.556522369384766 174.04458618164062 43.32318878173828 C 174.97792053222656 44.08985900878906 175.44459533691406 45.25318908691406 175.44459533691406 46.81319046020508 L 175.44459533691406 55.543190002441406 L 172.95458984375 55.543190002441406 M 171.89459228515625 49.47319030761719 L 170.51458740234375 49.523189544677734 C 169.47459411621094 49.54985809326172 168.70126342773438 49.73652267456055 168.19459533691406 50.08319091796875 C 167.68792724609375 50.42319107055664 167.43458557128906 50.9465217590332 167.43458557128906 51.65319061279297 C 167.43458557128906 52.659854888916016 168.01126098632812 53.16318893432617 169.1645965576172 53.16318893432617 C 169.9912567138672 53.16318893432617 170.6545867919922 52.9265251159668 171.1545867919922 52.453189849853516 C 171.64791870117188 51.97319030761719 171.89459228515625 51.3398551940918 171.89459228515625 50.553192138671875 L 171.89459228515625 49.47319030761719 ZM 182.6972198486328 55.543190002441406 L 179.12722778320312 55.543190002441406 L 179.12722778320312 37.31319046020508 L 182.6972198486328 37.31319046020508 L 182.6972198486328 55.543190002441406 ZM 186.28970336914062 39.053192138671875 C 186.28970336914062 37.8931884765625 186.939697265625 37.31319046020508 188.2397003173828 37.31319046020508 C 189.5330352783203 37.31319046020508 190.17970275878906 37.8931884765625 190.17970275878906 39.053192138671875 C 190.17970275878906 39.60652160644531 190.0196990966797 40.03985595703125 189.69970703125 40.35319137573242 C 189.37303161621094 40.65985870361328 188.88636779785156 40.81319046020508 188.2397003173828 40.81319046020508 C 186.939697265625 40.81319046020508 186.28970336914062 40.226524353027344 186.28970336914062 39.053192138671875 M 190.0196990966797 55.543190002441406 L 186.44970703125 55.543190002441406 L 186.44970703125 42.44319152832031 L 190.0196990966797 42.44319152832031 L 190.0196990966797 55.543190002441406 ZM 202.88218688964844 55.543190002441406 L 192.5321807861328 55.543190002441406 L 192.5321807861328 53.433189392089844 L 198.60218811035156 45.17319107055664 L 192.9021759033203 45.17319107055664 L 192.9021759033203 42.44319152832031 L 202.67218017578125 42.44319152832031 L 202.67218017578125 44.76319122314453 L 196.77218627929688 52.81319046020508 L 202.88218688964844 52.81319046020508 L 202.88218688964844 55.543190002441406 ZM 213.79641723632812 55.543190002441406 L 213.09642028808594 53.76319122314453 L 213.0064239501953 53.76319122314453 C 212.4064178466797 54.523189544677734 211.7864227294922 55.04652404785156 211.14642333984375 55.33319091796875 C 210.51309204101562 55.626522064208984 209.68309020996094 55.773189544677734 208.6564178466797 55.773189544677734 C 207.40309143066406 55.773189544677734 206.4130859375 55.41652297973633 205.68641662597656 54.703189849853516 C 204.96641540527344 53.98318862915039 204.60641479492188 52.95985794067383 204.60641479492188 51.6331901550293 C 204.60641479492188 50.2398567199707 205.0930938720703 49.21318817138672 206.06642150878906 48.553192138671875 C 207.0397491455078 47.8931884765625 208.5064239501953 47.52652359008789 210.46641540527344 47.453189849853516 L 212.73641967773438 47.3831901550293 L 212.73641967773438 46.81319046020508 C 212.73641967773438 45.48652267456055 212.05642700195312 44.82318878173828 210.69642639160156 44.82318878173828 C 209.64974975585938 44.82318878173828 208.4197540283203 45.139854431152344 207.0064239501953 45.773189544677734 L 205.826416015625 43.35319137573242 C 207.3330841064453 42.566524505615234 209.00308227539062 42.17319107055664 210.83642578125 42.17319107055664 C 212.59642028808594 42.17319107055664 213.94642639160156 42.556522369384766 214.88641357421875 43.32318878173828 C 215.8197479248047 44.08985900878906 216.2864227294922 45.25318908691406 216.2864227294922 46.81319046020508 L 216.2864227294922 55.543190002441406 L 213.79641723632812 55.543190002441406 M 212.73641967773438 49.47319030761719 L 211.35641479492188 49.523189544677734 C 210.31642150878906 49.54985809326172 209.5430908203125 49.73652267456055 209.0364227294922 50.08319091796875 C 208.52975463867188 50.42319107055664 208.2764129638672 50.9465217590332 208.2764129638672 51.65319061279297 C 208.2764129638672 52.659854888916016 208.85308837890625 53.16318893432617 210.0064239501953 53.16318893432617 C 210.8330841064453 53.16318893432617 211.4964141845703 52.9265251159668 211.9964141845703 52.453189849853516 C 212.48974609375 51.97319030761719 212.73641967773438 51.3398551940918 212.73641967773438 50.553192138671875 L 212.73641967773438 49.47319030761719 ZM 224.1090545654297 55.773189544677734 C 222.5690460205078 55.773189544677734 221.3623809814453 55.1765251159668 220.48904418945312 53.98318862915039 C 219.6090545654297 52.78985595703125 219.16905212402344 51.1331901550293 219.16905212402344 49.01319122314453 C 219.16905212402344 46.86652374267578 219.61572265625 45.19319152832031 220.50904846191406 43.99319076538086 C 221.4023895263672 42.793190002441406 222.63571166992188 42.19319152832031 224.20904541015625 42.19319152832031 C 225.855712890625 42.19319152832031 227.1123809814453 42.83319091796875 227.9790496826172 44.113189697265625 L 228.0990447998047 44.113189697265625 C 227.91905212402344 43.139854431152344 227.8290557861328 42.26985549926758 227.8290557861328 41.50318908691406 L 227.8290557861328 37.31319046020508 L 231.4090576171875 37.31319046020508 L 231.4090576171875 55.543190002441406 L 228.66905212402344 55.543190002441406 L 227.9790496826172 53.84318923950195 L 227.8290557861328 53.84318923950195 C 227.01571655273438 55.12985610961914 225.7757110595703 55.773189544677734 224.1090545654297 55.773189544677734 M 225.36904907226562 52.933189392089844 C 226.28237915039062 52.933189392089844 226.95237731933594 52.66652297973633 227.37904357910156 52.1331901550293 C 227.8057098388672 51.599857330322266 228.0357208251953 50.6965217590332 228.0690460205078 49.42319107055664 L 228.0690460205078 49.043190002441406 C 228.0690460205078 47.63652420043945 227.85238647460938 46.626522064208984 227.41905212402344 46.01319122314453 C 226.9857177734375 45.406524658203125 226.28237915039062 45.10319137573242 225.30905151367188 45.10319137573242 C 224.50904846191406 45.10319137573242 223.88905334472656 45.439857482910156 223.4490509033203 46.113189697265625 C 223.00904846191406 46.793190002441406 222.78904724121094 47.77652359008789 222.78904724121094 49.06319046020508 C 222.78904724121094 50.349857330322266 223.01239013671875 51.316524505615234 223.45904541015625 51.96318817138672 C 223.9057159423828 52.60985565185547 224.54238891601562 52.933189392089844 225.36904907226562 52.933189392089844 ZM 237.992919921875 48.97319030761719 C 237.992919921875 50.26652526855469 238.2062530517578 51.246524810791016 238.63291931152344 51.91318893432617 C 239.05958557128906 52.57318878173828 239.75291442871094 52.90319061279297 240.71292114257812 52.90319061279297 C 241.666259765625 52.90319061279297 242.35292053222656 52.57318878173828 242.77291870117188 51.91318893432617 C 243.1929168701172 51.25318908691406 243.40292358398438 50.273189544677734 243.40292358398438 48.97319030761719 C 243.40292358398438 47.67319107055664 243.18959045410156 46.69985580444336 242.76292419433594 46.053192138671875 C 242.34292602539062 45.406524658203125 241.65292358398438 45.08319091796875 240.6929168701172 45.08319091796875 C 239.7395782470703 45.08319091796875 239.05291748046875 45.40319061279297 238.63291931152344 46.043190002441406 C 238.2062530517578 46.689857482910156 237.992919921875 47.66652297973633 237.992919921875 48.97319030761719 M 247.05291748046875 48.97319030761719 C 247.05291748046875 51.099857330322266 246.4895782470703 52.76652526855469 245.3629150390625 53.97319030761719 C 244.242919921875 55.17319107055664 242.67625427246094 55.773189544677734 240.6629180908203 55.773189544677734 C 239.4095916748047 55.773189544677734 238.30291748046875 55.499855041503906 237.34292602539062 54.953189849853516 C 236.38291931152344 54.39985656738281 235.64291381835938 53.60985565185547 235.1229248046875 52.58319091796875 C 234.60958862304688 51.54985809326172 234.35292053222656 50.34652328491211 234.35292053222656 48.97319030761719 C 234.35292053222656 46.82652282714844 234.9095916748047 45.15985870361328 236.02291870117188 43.97319030761719 C 237.14291381835938 42.786521911621094 238.71292114257812 42.19319152832031 240.73292541503906 42.19319152832031 C 241.992919921875 42.19319152832031 243.10292053222656 42.466522216796875 244.0629119873047 43.01319122314453 C 245.02291870117188 43.55985641479492 245.76292419433594 44.34652328491211 246.2829132080078 45.373191833496094 C 246.79624938964844 46.3931884765625 247.05291748046875 47.59318923950195 247.05291748046875 48.97319030761719 Z" transform="matrix(0.2740456759929657, 0, 0, 0.2740456759929657, 1.1584494080386292, 19.09612655639648)" style="fill: rgb(51, 51, 51); white-space: pre; color: rgb(51, 51, 51);"/><path d="M 28.433849334716797 45.70000076293945 C 28.433849334716797 47.19333267211914 28.05718231201172 48.516666412353516 27.303848266601562 49.66999816894531 C 26.550514221191406 50.83000183105469 25.46051597595215 51.72999954223633 24.03384780883789 52.369998931884766 C 22.607181549072266 53.0099983215332 20.933849334716797 53.33000183105469 19.01384925842285 53.33000183105469 C 17.413848876953125 53.33000183105469 16.073848724365234 53.21666717529297 14.99384880065918 52.9900016784668 C 13.907182693481445 52.76333236694336 12.777182579040527 52.37333297729492 11.603849411010742 51.81999969482422 L 11.603849411010742 46.029998779296875 C 12.843849182128906 46.663333892822266 14.130516052246094 47.15999984741211 15.463849067687988 47.52000045776367 C 16.803848266601562 47.87333297729492 18.03384780883789 48.04999923706055 19.15384864807129 48.04999923706055 C 20.113849639892578 48.04999923706055 20.820514678955078 47.883331298828125 21.273849487304688 47.54999923706055 C 21.720516204833984 47.21666717529297 21.94384765625 46.78666687011719 21.94384765625 46.26000213623047 C 21.94384765625 45.93333435058594 21.85384750366211 45.64666748046875 21.67384910583496 45.400001525878906 C 21.49384880065918 45.1533317565918 21.20384979248047 44.90333557128906 20.803848266601562 44.650001525878906 C 20.40384864807129 44.39666748046875 19.337181091308594 43.880001068115234 17.603849411010742 43.099998474121094 C 16.037181854248047 42.38666534423828 14.860515594482422 41.6966667175293 14.073848724365234 41.029998779296875 C 13.293848991394043 40.36333465576172 12.713849067687988 39.59666442871094 12.33384895324707 38.72999954223633 C 11.953848838806152 37.86333465576172 11.763849258422852 36.84000015258789 11.763849258422852 35.65999984741211 C 11.763849258422852 33.44000244140625 12.570515632629395 31.713333129882812 14.183849334716797 30.479999542236328 C 15.797182083129883 29.239999771118164 18.010515213012695 28.6200008392334 20.823848724365234 28.6200008392334 C 23.310516357421875 28.6200008392334 25.847183227539062 29.196666717529297 28.433849334716797 30.350000381469727 L 26.45384979248047 35.36000061035156 C 24.200515747070312 34.32666778564453 22.260515213012695 33.80999755859375 20.63385009765625 33.80999755859375 C 19.787181854248047 33.80999755859375 19.170516967773438 33.959999084472656 18.78384780883789 34.26000213623047 C 18.40384864807129 34.5533332824707 18.213848114013672 34.91999816894531 18.213848114013672 35.36000061035156 C 18.213848114013672 35.833335876464844 18.457181930541992 36.25666809082031 18.94384765625 36.62999725341797 C 19.43051528930664 36.996665954589844 20.753849029541016 37.67333221435547 22.913848876953125 38.65999984741211 C 24.9871826171875 39.59333419799805 26.427181243896484 40.59333419799805 27.233848571777344 41.65999984741211 C 28.03384780883789 42.733333587646484 28.433849334716797 44.08000183105469 28.433849334716797 45.70000076293945 ZM 69.4271011352539 53.33000183105469 C 66.32710266113281 53.33000183105469 63.92043685913086 52.503334045410156 62.20710372924805 50.849998474121094 C 60.48710250854492 49.20333480834961 59.62710189819336 46.856666564941406 59.62710189819336 43.810001373291016 C 59.62710189819336 40.663333892822266 60.42376708984375 38.25 62.0171012878418 36.56999969482422 C 63.60376739501953 34.883331298828125 65.87043762207031 34.040000915527344 68.81710052490234 34.040000915527344 C 71.62377166748047 34.040000915527344 73.79376983642578 34.77333068847656 75.32710266113281 36.23999786376953 C 76.85376739501953 37.70000076293945 77.61710357666016 39.80666732788086 77.61710357666016 42.560001373291016 L 77.61710357666016 45.41999816894531 L 66.12710571289062 45.41999816894531 C 66.16709899902344 46.459999084472656 66.54710388183594 47.27666473388672 67.26710510253906 47.869998931884766 C 67.98710632324219 48.46333312988281 68.9637680053711 48.76000213623047 70.19709777832031 48.76000213623047 C 71.33043670654297 48.76000213623047 72.37043762207031 48.6533317565918 73.31710052490234 48.439998626708984 C 74.2637710571289 48.22666549682617 75.29043579101562 47.86000061035156 76.39710235595703 47.34000015258789 L 76.39710235595703 51.959999084472656 C 75.39043426513672 52.47999954223633 74.35043334960938 52.836666107177734 73.277099609375 53.029998779296875 C 72.20376586914062 53.22999954223633 70.9204330444336 53.33000183105469 69.4271011352539 53.33000183105469 M 69.04710388183594 38.41999816894531 C 68.29376983642578 38.41999816894531 67.66377258300781 38.65666580200195 67.1571044921875 39.130001068115234 C 66.64376831054688 39.61000061035156 66.34376525878906 40.36000061035156 66.2571029663086 41.380001068115234 L 71.777099609375 41.380001068115234 C 71.7571029663086 40.47999954223633 71.50376892089844 39.76000213623047 71.01710510253906 39.220001220703125 C 70.53043365478516 38.686668395996094 69.87377166748047 38.41999816894531 69.04710388183594 38.41999816894531 ZM 116.03990173339844 34.040000915527344 C 116.59989929199219 34.040000915527344 117.13323974609375 34.086666107177734 117.63990020751953 34.18000030517578 L 117.9999008178711 34.23999786376953 L 117.42990112304688 40.310001373291016 C 116.90323638916016 40.176666259765625 116.17323303222656 40.11000061035156 115.23989868164062 40.11000061035156 C 113.83323669433594 40.11000061035156 112.813232421875 40.43000030517578 112.17990112304688 41.06999969482422 C 111.54656982421875 41.709999084472656 111.22990417480469 42.633331298828125 111.22990417480469 43.84000015258789 L 111.22990417480469 53 L 104.7999038696289 53 L 104.7999038696289 34.37000274658203 L 109.57990264892578 34.37000274658203 L 110.58990478515625 37.349998474121094 L 110.89990234375 37.349998474121094 C 111.43323516845703 36.36333465576172 112.17990112304688 35.56666564941406 113.13990020751953 34.959999084472656 C 114.09989929199219 34.34666442871094 115.06656646728516 34.040000915527344 116.03990173339844 34.040000915527344 ZM 148.42237854003906 53 L 141.32237243652344 34.37000274658203 L 148.03237915039062 34.37000274658203 L 151.182373046875 45.38999938964844 C 151.19570922851562 45.44333267211914 151.2190399169922 45.53666687011719 151.25238037109375 45.66999816894531 C 151.28570556640625 45.8033332824707 151.3190460205078 45.959999084472656 151.3523712158203 46.13999938964844 C 151.38571166992188 46.31999969482422 151.41571044921875 46.51000213623047 151.44236755371094 46.709999084472656 C 151.4690399169922 46.91666793823242 151.4823760986328 47.106666564941406 151.4823760986328 47.279998779296875 L 151.6023712158203 47.279998779296875 C 151.6023712158203 46.7066650390625 151.69903564453125 46.086666107177734 151.89236450195312 45.41999816894531 L 155.20237731933594 34.37000274658203 L 161.89236450195312 34.37000274658203 L 154.78237915039062 53 L 148.42237854003906 53 ZM 194.36517333984375 53 L 187.9351806640625 53 L 187.9351806640625 34.37000274658203 L 194.36517333984375 34.37000274658203 L 194.36517333984375 53 M 187.77517700195312 29.739999771118164 C 187.77517700195312 28.773332595825195 188.04183959960938 28.053333282470703 188.57518005371094 27.579999923706055 C 189.11517333984375 27.113332748413086 189.98184204101562 26.8799991607666 191.17518615722656 26.8799991607666 C 192.36851501464844 26.8799991607666 193.23851013183594 27.1200008392334 193.78518676757812 27.600000381469727 C 194.33851623535156 28.079999923706055 194.61517333984375 28.793333053588867 194.61517333984375 29.739999771118164 C 194.61517333984375 31.6200008392334 193.46852111816406 32.55999755859375 191.17518615722656 32.55999755859375 C 188.90850830078125 32.55999755859375 187.77517700195312 31.6200008392334 187.77517700195312 29.739999771118164 ZM 231.38075256347656 53.33000183105469 C 228.33409118652344 53.33000183105469 226.0240936279297 52.50666809082031 224.4507598876953 50.86000061035156 C 222.87742614746094 49.220001220703125 222.09075927734375 46.86000061035156 222.09075927734375 43.779998779296875 C 222.09075927734375 40.686668395996094 222.9407501220703 38.290000915527344 224.64076232910156 36.59000015258789 C 226.34075927734375 34.88999938964844 228.75741577148438 34.040000915527344 231.89076232910156 34.040000915527344 C 234.05075073242188 34.040000915527344 236.08409118652344 34.513336181640625 237.99075317382812 35.459999084472656 L 236.1007537841797 40.209999084472656 C 235.3207550048828 39.869998931884766 234.60409545898438 39.599998474121094 233.9507598876953 39.400001525878906 C 233.29075622558594 39.19333267211914 232.60409545898438 39.09000015258789 231.89076232910156 39.09000015258789 C 230.8507537841797 39.09000015258789 230.04742431640625 39.496665954589844 229.4807586669922 40.310001373291016 C 228.9074249267578 41.116668701171875 228.62075805664062 42.26000213623047 228.62075805664062 43.73999786376953 C 228.62075805664062 46.72666549682617 229.72409057617188 48.220001220703125 231.93075561523438 48.220001220703125 C 233.81076049804688 48.220001220703125 235.61741638183594 47.66999816894531 237.3507537841797 46.56999969482422 L 237.3507537841797 51.68000030517578 C 235.69741821289062 52.779998779296875 233.70742797851562 53.33000183105469 231.38075256347656 53.33000183105469 ZM 273.7235412597656 53 L 267.2935485839844 53 L 267.2935485839844 34.37000274658203 L 273.7235412597656 34.37000274658203 L 273.7235412597656 53 M 267.133544921875 29.739999771118164 C 267.133544921875 28.773332595825195 267.40020751953125 28.053333282470703 267.9335632324219 27.579999923706055 C 268.4735412597656 27.113332748413086 269.3402099609375 26.8799991607666 270.5335388183594 26.8799991607666 C 271.72686767578125 26.8799991607666 272.5968933105469 27.1200008392334 273.1435546875 27.600000381469727 C 273.6968688964844 28.079999923706055 273.9735412597656 28.793333053588867 273.9735412597656 29.739999771118164 C 273.9735412597656 31.6200008392334 272.8268737792969 32.55999755859375 270.5335388183594 32.55999755859375 C 268.2668762207031 32.55999755859375 267.133544921875 31.6200008392334 267.133544921875 29.739999771118164 ZM 320.04913330078125 43.650001525878906 C 320.04913330078125 46.6966667175293 319.2291259765625 49.06999969482422 317.589111328125 50.77000045776367 C 315.9491271972656 52.47666549682617 313.6557922363281 53.33000183105469 310.7091369628906 53.33000183105469 C 307.8824462890625 53.33000183105469 305.6324462890625 52.4566650390625 303.9591369628906 50.709999084472656 C 302.2857971191406 48.970001220703125 301.4491271972656 46.616668701171875 301.4491271972656 43.650001525878906 C 301.4491271972656 40.61000061035156 302.2691345214844 38.25 303.90911865234375 36.56999969482422 C 305.54913330078125 34.883331298828125 307.84912109375 34.040000915527344 310.8091125488281 34.040000915527344 C 312.63580322265625 34.040000915527344 314.25244140625 34.43000030517578 315.65911865234375 35.209999084472656 C 317.0591125488281 35.98999786376953 318.1424560546875 37.106666564941406 318.90911865234375 38.560001373291016 C 319.66912841796875 40.01333236694336 320.04913330078125 41.709999084472656 320.04913330078125 43.650001525878906 M 307.9791259765625 43.650001525878906 C 307.9791259765625 45.25 308.19244384765625 46.46666717529297 308.6191101074219 47.29999923706055 C 309.0457763671875 48.13999938964844 309.7657775878906 48.560001373291016 310.77911376953125 48.560001373291016 C 311.7724609375 48.560001373291016 312.4757995605469 48.13999938964844 312.8891296386719 47.29999923706055 C 313.2957763671875 46.46666717529297 313.4991149902344 45.25 313.4991149902344 43.650001525878906 C 313.4991149902344 42.05666732788086 313.2924499511719 40.856666564941406 312.8791198730469 40.04999923706055 C 312.4591369628906 39.23666763305664 311.74578857421875 38.83000183105469 310.7391357421875 38.83000183105469 C 309.75244140625 38.83000183105469 309.0457763671875 39.233333587646484 308.6191101074219 40.040000915527344 C 308.19244384765625 40.84666442871094 307.9791259765625 42.04999923706055 307.9791259765625 43.650001525878906 ZM 362.8424987792969 47.279998779296875 C 362.8424987792969 49.27333450317383 362.16583251953125 50.779998779296875 360.8125 51.79999923706055 C 359.4524841308594 52.81999969482422 357.4991455078125 53.33000183105469 354.9524841308594 53.33000183105469 C 353.5724792480469 53.33000183105469 352.37249755859375 53.25666809082031 351.35247802734375 53.11000061035156 C 350.3324890136719 52.9566650390625 349.29248046875 52.68333435058594 348.23248291015625 52.290000915527344 L 348.23248291015625 47.150001525878906 C 349.23248291015625 47.58333206176758 350.3258361816406 47.94333267211914 351.5124816894531 48.22999954223633 C 352.69915771484375 48.516666412353516 353.7591552734375 48.65999984741211 354.6925048828125 48.65999984741211 C 356.0858154296875 48.65999984741211 356.7825012207031 48.34333419799805 356.7825012207031 47.709999084472656 C 356.7825012207031 47.37666702270508 356.5858154296875 47.08333206176758 356.1925048828125 46.83000183105469 C 355.8058166503906 46.56999969482422 354.6758117675781 46.06666564941406 352.802490234375 45.31999969482422 C 351.08917236328125 44.619998931884766 349.89581298828125 43.823333740234375 349.2225036621094 42.93000030517578 C 348.54248046875 42.03666687011719 348.2024841308594 40.90666580200195 348.2024841308594 39.540000915527344 C 348.2024841308594 37.80666732788086 348.8691711425781 36.4566650390625 350.2024841308594 35.48999786376953 C 351.54248046875 34.52333068847656 353.4324951171875 34.040000915527344 355.87249755859375 34.040000915527344 C 357.1058349609375 34.040000915527344 358.2591552734375 34.176666259765625 359.3324890136719 34.45000076293945 C 360.4125061035156 34.71666717529297 361.53582763671875 35.106666564941406 362.7024841308594 35.62000274658203 L 360.9524841308594 39.77000045776367 C 360.0991516113281 39.383331298828125 359.1958312988281 39.05666732788086 358.24249267578125 38.790000915527344 C 357.2891540527344 38.516666412353516 356.5124816894531 38.380001068115234 355.9125061035156 38.380001068115234 C 354.8591613769531 38.380001068115234 354.3324890136719 38.63999938964844 354.3324890136719 39.15999984741211 C 354.3324890136719 39.47333526611328 354.5158386230469 39.74333190917969 354.88250732421875 39.970001220703125 C 355.2491455078125 40.1966667175293 356.3091735839844 40.65333557128906 358.0625 41.34000015258789 C 359.3691711425781 41.880001068115234 360.3424987792969 42.40666580200195 360.98248291015625 42.91999816894531 C 361.62249755859375 43.43333435058594 362.0924987792969 44.040000915527344 362.3924865722656 44.73999786376953 C 362.6925048828125 45.43333435058594 362.8424987792969 46.279998779296875 362.8424987792969 47.279998779296875 Z" transform="matrix(0.1792648583650589, 0, 0, 0.1792648583650589, 3.099699020385742, 16.362031936645508)" style="fill: rgb(51, 51, 51); white-space: pre; color: rgb(51, 51, 51);"/></g><g transform="matrix(0.04259415856929601, 0, 0, 0.04259415856929601, -65.07962280602854, -21.232723502070105)"><g>
	
</g><g transform="matrix(15.85979078995404, 0, 0, 15.85979078995404, 1474.6527520587679, -36.87367536300485)">
	<g>
		<path d="M 255.998 34.951 C 134.141 34.951 35.002999999999986 134.107 35.002999999999986 255.987 C 35.002999999999986 377.864 134.141 477.019 255.998 477.019 C 377.85699999999997 477.019 476.99699999999996 377.865 476.99699999999996 255.987 C 476.997 134.107 377.857 34.951 255.998 34.951 Z M 50.003 255.987 C 50.003 145.528 137.363 55.10300000000001 246.606 50.17400000000001 L 207.65699999999998 225.847 L 71.92 348.392 C 57.909 320.584 50.003 289.194 50.003 255.987 Z M 248.493 110.959 L 248.493 241.279 L 136.096 310.661 L 219.486 235.376 C 220.35299999999998 234.59300000000002 221.022 233.622 221.444 232.544 C 221.58499999999998 232.185 221.69799999999998 231.81300000000002 221.78199999999998 231.43300000000002 L 248.493 110.959 Z M 255.998 462.019 C 182.08999999999997 462.019 117.15899999999999 422.88 80.80599999999998 364.243 L 194.75099999999998 321.099 C 198.62399999999997 319.632 261.6120330810547 291.4278779296875 260.14503308105463 287.5538779296875 C 258.67803308105465 283.67987792968745 193.313 305.60499999999996 189.438 307.07099999999997 L 140.37099999999998 325.65 L 256 254.273 L 371.651 325.663 L 258.65 282.875 C 256.93699999999995 282.228 255.04999999999998 282.228 253.337 282.875 L 219.66699999999997 295.624 C 215.79399999999998 297.091 334.9903869628906 270.9851989746094 179.50116210937497 321.07943090820316 C 24.011932373046875 371.1736755371094 221.10499999999996 311.119 224.97999999999996 309.65200000000004 L 255.99399999999997 297.908 L 431.192 364.246 C 394.837 422.881 329.906 462.019 255.998 462.019 Z M 304.344 225.847 L 296.403 190.025 C 295.507 185.982 299.200369140625 230.61316650390626 295.161369140625 231.50916650390624 C 291.11736914062504 232.40516650390623 280.862 189.22799999999998 281.759 193.272 L 290.15200000000004 231.132 C 290.434 232.713 291.21700000000004 234.216 292.50200000000007 235.376 L 375.8620000000001 310.635 L 263.5080000000001 241.279 L 263.5080000000001 111.022 L 265.7560000000001 121.162 C 265.7770000000001 121.256 265.8080000000001 121.34500000000001 265.8320000000001 121.43700000000001 L 274.9660000000001 162.63400000000001 C 275.86200000000014 166.67700000000002 298.3509826660156 261.63990783691406 297.77248071289074 215.6930769042969 C 297.1940002441406 169.74623107910156 290.5070000000001 163.43100000000004 289.6100000000001 159.38700000000003 L 265.395 50.174 C 374.637 55.105 461.99699999999996 145.529 461.99699999999996 255.987 C 461.99699999999996 289.193 454.09099999999995 320.584 440.0799999999999 348.39099999999996 L 304.344 225.847 Z" style="stroke: rgb(0, 0, 0); stroke-width: 3;" transform="matrix(0.07168322820385895, 0, 0, 0.07168322820385895, 32.49384956088685, 32.445600779362536)"/>
	<path d="M 130.38058471679688 79.3423080444336" style="fill: rgb(0, 0, 0); fill-opacity: 1; stroke: rgb(0, 0, 0); stroke-opacity: 1; stroke-width: 3; paint-order: stroke;" transform="matrix(0.25710240147237345, 0, 0, 0.25710240147237345, 26.003626413428368, 25.965014124839122)"/></g>
</g><g>
</g><g>
</g><g>
</g><g>
</g><g>
</g><g>
</g><g>
</g><g>
</g><g>
</g><g>
</g><g>
</g><g>
</g><g>
</g><g>
</g><g>
</g></g></svg>