<?xml version="1.0" encoding="utf-8"?>
<svg id="master-artboard" viewBox="0 0 202.70677185058594 66.37725067138672" xmlns="http://www.w3.org/2000/svg" width="202.70677185058594px" height="66.37725067138672px" version="1.1" style="shape-rendering:geometricPrecision; text-rendering:geometricPrecision; image-rendering:optimizeQuality; fill-rule:evenodd; clip-rule:evenodd"><rect id="ee-background" x="0" y="0" width="202.70677185058594" height="66.37725067138672" style="fill: white; fill-opacity: 0; pointer-events: none;"/><path d="M 108.36077117919922 251.91000366210938 L 122.040771484375 251.91000366210938 L 122.040771484375 271.489990234375 C 119.91410827636719 272.163330078125 117.75077819824219 272.6766662597656 115.55077362060547 273.0299987792969 C 113.34410858154297 273.3766784667969 110.790771484375 273.54998779296875 107.89077758789062 273.54998779296875 C 101.79743957519531 273.54998779296875 97.05410766601562 271.7366638183594 93.66077423095703 268.1099853515625 C 90.26077270507812 264.48333740234375 88.56077575683594 259.4033203125 88.56077575683594 252.8699951171875 C 88.56077575683594 248.68333435058594 89.40077209472656 245.01666259765625 91.08077239990234 241.8699951171875 C 92.76077270507812 238.72332763671875 95.18077087402344 236.32000732421875 98.34077453613281 234.66000366210938 C 101.49411010742188 233 105.1907730102539 232.1699981689453 109.43077087402344 232.1699981689453 C 113.73077392578125 232.1699981689453 117.7341079711914 232.9566650390625 121.4407730102539 234.52999877929688 L 119.62077331542969 238.66000366210938 C 115.98744201660156 237.1199951171875 112.49077606201172 236.35000610351562 109.13077545166016 236.35000610351562 C 104.23077392578125 236.35000610351562 100.40410614013672 237.80999755859375 97.65077209472656 240.72999572753906 C 94.8974380493164 243.64999389648438 93.5207748413086 247.69667053222656 93.5207748413086 252.8699951171875 C 93.5207748413086 258.3033447265625 94.84744262695312 262.4266662597656 97.50077056884766 265.239990234375 C 100.15410614013672 268.0466613769531 104.05077362060547 269.45001220703125 109.1907730102539 269.45001220703125 C 111.9774398803711 269.45001220703125 114.70077514648438 269.1266784667969 117.36077880859375 268.4800109863281 L 117.36077880859375 256.0899963378906 L 108.36077117919922 256.0899963378906 L 108.36077117919922 251.91000366210938 Z" transform="matrix(1.167054295539856, 0, 0, 1.167054295539856, -95.13899993896484, -260.0769348144531)" style="fill: rgb(51, 51, 51); white-space: pre; color: rgb(51, 51, 51); stroke: rgb(0, 0, 0); stroke-width: 3;"/><g transform="matrix(0.1071866974234581, 0, 0, 0.1071866974234581, 52.560752868652344, 6.5700531005859375)"><g>
	<g>
		<path d="M436.999,74.969C388.64,26.625,324.359,0,256,0S123.36,26.625,75.001,74.969C26.636,123.319,0,187.595,0,255.957&#10;&#9;&#9;&#9;c0,68.399,26.636,132.702,75.001,181.063C123.355,485.372,187.636,512,256,512c60.36,0,118.971-21.418,165.036-60.308&#10;&#9;&#9;&#9;c3.165-2.672,3.565-7.404,0.893-10.569c-2.671-3.165-7.403-3.565-10.568-0.893C367.997,476.839,312.823,497,256,497&#10;&#9;&#9;&#9;c-64.358,0-124.872-25.068-170.394-70.586C40.075,380.885,15,320.349,15,255.957C15,123.093,123.112,15,256,15&#10;&#9;&#9;&#9;s241,108.093,241,240.957c0,59.391-21.785,116.449-61.344,160.664c-2.762,3.087-2.498,7.829,0.589,10.59&#10;&#9;&#9;&#9;c3.088,2.762,7.829,2.499,10.591-0.588C488.857,379.653,512,319.042,512,255.957C512,187.595,485.364,123.319,436.999,74.969z" style="stroke: rgb(0, 0, 0); stroke-width: 11;"/>
	</g>
</g><g>
	<g>
		<path d="M255.998,34.951c-121.857,0-220.995,99.156-220.995,221.036c0,121.877,99.138,221.032,220.995,221.032&#10;&#9;&#9;&#9;c121.859,0,220.999-99.154,220.999-221.032C476.997,134.107,377.857,34.951,255.998,34.951z M50.003,255.987&#10;&#9;&#9;&#9;c0-110.459,87.36-200.884,196.603-205.813l-38.949,175.673L71.92,348.392C57.909,320.584,50.003,289.194,50.003,255.987z&#10;&#9;&#9;&#9; M248.493,110.959v130.32l-112.397,69.382l83.39-75.285c0.867-0.783,1.536-1.754,1.958-2.832c0.141-0.359,0.254-0.731,0.338-1.111&#10;&#9;&#9;&#9;L248.493,110.959z M255.998,462.019c-73.908,0-138.839-39.139-175.192-97.776l113.945-43.144c3.873-1.467,5.824-5.796,4.357-9.67&#10;&#9;&#9;&#9;c-1.467-3.874-5.795-5.824-9.67-4.358l-49.067,18.579L256,254.273l115.651,71.39L258.65,282.875c-1.713-0.647-3.6-0.647-5.313,0&#10;&#9;&#9;&#9;l-33.67,12.749c-3.873,1.467-5.824,5.796-4.357,9.67c1.467,3.874,5.795,5.825,9.67,4.358l31.014-11.744l175.198,66.338&#10;&#9;&#9;&#9;C394.837,422.881,329.906,462.019,255.998,462.019z M304.344,225.847l-7.941-35.822c-0.896-4.043-4.906-6.595-8.945-5.699&#10;&#9;&#9;&#9;c-4.044,0.896-6.596,4.902-5.699,8.946l8.393,37.86c0.282,1.581,1.065,3.084,2.35,4.244l83.36,75.259l-112.354-69.356V111.022&#10;&#9;&#9;&#9;l2.248,10.14c0.021,0.094,0.052,0.183,0.076,0.275l9.134,41.197c0.896,4.043,4.903,6.596,8.945,5.699&#10;&#9;&#9;&#9;c4.044-0.896,6.596-4.902,5.699-8.946L265.395,50.174c109.242,4.931,196.602,95.355,196.602,205.813&#10;&#9;&#9;&#9;c0,33.206-7.906,64.597-21.917,92.404L304.344,225.847z" style="stroke: rgb(0, 0, 0); stroke-width: 11;"/>
	</g>
</g><g>
</g><g>
</g><g>
</g><g>
</g><g>
</g><g>
</g><g>
</g><g>
</g><g>
</g><g>
</g><g>
</g><g>
</g><g>
</g><g>
</g><g>
</g></g><path d="M 160.5907745361328 361 L 148.33078002929688 329.6700134277344 L 108.84077453613281 329.6700134277344 L 96.71076965332031 361 L 85.12077331542969 361 L 124.07077026367188 262.08001708984375 L 133.70077514648438 262.08001708984375 L 172.45077514648438 361 L 160.5907745361328 361 M 144.7507781982422 319.3599853515625 L 133.30078125 288.83001708984375 C 131.82077026367188 284.9700012207031 130.29409790039062 280.23333740234375 128.72076416015625 274.6199951171875 C 127.7274398803711 278.9266662597656 126.31077575683594 283.663330078125 124.47077178955078 288.83001708984375 L 112.88077545166016 319.3599853515625 L 144.7507781982422 319.3599853515625 Z" transform="matrix(0.490923136472702, 0, 0, 0.490923136472702, 105.74959564208984, -117.6702651977539)" style="fill: rgb(51, 51, 51); white-space: pre; color: rgb(51, 51, 51); stroke: rgb(0, 0, 0); stroke-width: 4;"/><path d="M 113.65077209472656 232.74000549316406 L 118.68077087402344 232.74000549316406 L 104.1707763671875 273 L 99.55077362060547 273 L 85.12077331542969 232.74000549316406 L 90.08077239990234 232.74000549316406 L 99.33077239990234 258.7900085449219 C 100.39077758789062 261.7833251953125 101.2341079711914 264.6933288574219 101.86077117919922 267.5199890136719 C 102.5207748413086 264.5466613769531 103.38410949707031 261.5833435058594 104.45077514648438 258.6300048828125 L 113.65077209472656 232.74000549316406 Z" transform="matrix(1.1300164461135864, 0, 0, 1.1300164461135864, 15.613759994506836, -250.54454040527344)" style="fill: rgb(51, 51, 51); white-space: pre; color: rgb(51, 51, 51); stroke: rgb(0, 0, 0); stroke-width: 3;"/></svg>