<svg xmlns="http://www.w3.org/2000/svg" enable-background="new 0 0 98.736 98.736" viewBox="0 0 98.736 98.736"><title>grupo de personas</title><g fill="#212121" class="nc-icon-wrapper"><path d="M26.417 56.739c0-5.115 1.688-9.838 4.528-13.656-2.974-2.673-6.893-4.313-11.205-4.313-9.272 0-16.789 7.518-16.789 16.789 0 0 3.95 35.276 16.789 35.276 4.962 0 8.592-5.274 11.184-11.739-3.025-9.953-4.248-19.888-4.488-22.026l-.019-.331z"></path><path d="M19.74 37.554c5.617 0 10.503-3.125 13.02-7.729a20.46 20.46 0 0 1-4.006-12.173c0-2.066.313-4.06.882-5.943-2.625-2.358-6.088-3.808-9.896-3.808-8.188 0-14.826 6.639-14.826 14.827 0 8.187 6.638 14.826 14.826 14.826z"></path><path d="M78.996 38.77c-4.312 0-8.23 1.64-11.205 4.313a22.791 22.791 0 0 1 4.528 13.656l-.019.33c-.24 2.14-1.463 12.073-4.488 22.026 2.592 6.465 6.222 11.739 11.184 11.739 12.839 0 16.789-35.276 16.789-35.276 0-9.27-7.517-16.788-16.789-16.788z"></path><path d="M65.977 29.824c2.517 4.604 7.401 7.729 13.02 7.729 8.188 0 14.826-6.639 14.826-14.826 0-8.188-6.639-14.827-14.826-14.827-3.809 0-7.271 1.449-9.896 3.808a20.482 20.482 0 0 1-3.124 18.116z"></path><path d="M49.368 36.751c-11.039 0-19.988 8.949-19.988 19.988 0 0 4.704 41.997 19.988 41.997s19.987-41.997 19.987-41.997c0-11.039-8.948-19.988-19.987-19.988z"></path><circle cx="49.368" cy="17.651" r="17.651"></circle></g></svg>