<svg xmlns="http://www.w3.org/2000/svg" enable-background="new 0 0 98.538 98.538" viewBox="0 0 33 33"><title>hombre peinando a un perro</title><g fill="#212121" class="nc-icon-wrapper"><path d="M21.93 0a3.36 3.36 0 1 0 0 6.72 3.36 3.36 0 1 0 0-6.72z"></path><path d="M22.77 6.92l-0.84 0.84-0.81-0.85c0 0-0.01 0-0.01 0-0.44 0.15-1.34 0.57-1.33 0.57-2.66 1.14-3.07 1.32-5.23-0.73-0.43-0.41-1.05-0.46-1.53-0.19l-2.62-2.24a0.37 0.37 0 0 0-0.52 0.04 0.37 0.37 0 0 0-0.03 0.43l-0.74 0.86a0.23 0.23 0 1 0 0.35 0.3l0.72-0.84 0.28 0.24-0.72 0.84a0.23 0.23 0 0 0 0.35 0.29l0.72-0.84 0.28 0.24-0.72 0.85a0.23 0.23 0 0 0 0.34 0.29l0.72-0.84 0.28 0.24-0.72 0.84a0.23 0.23 0 1 0 0.35 0.3l0.72-0.84 0.44 0.38c-0.26 0.5-0.18 1.13 0.25 1.54 1.76 1.68 3.06 2.3 4.38 2.29 0.45 0 0.9-0.07 1.36-0.19v6.52c0 0.41 0.09 0.78 0.25 1.12 0 0.03 0 2.17 0 2.17h5.16v2.9h-1.43v8.59a1.53 1.53 0 0 0 1.11 0.48 1.54 1.54 0 0 0 1.54-1.55l0-12.58a2.56 2.56 0 0 0 0.26-1.13v-3.62s0.55 1.12 0.26 4.04c-0.07 0.72 0.48 1.35 1.2 1.4a1.3 1.3 0 0 0 1.41-1.2c0.51-6.57-2.32-10-5.48-10.96z m-0.83 7.5h-0.01l-0.81-1.11 0.81-5.42h0.01l0.81 5.42-0.81 1.11z"></path><path d="M18.73 30.98c0 0.71 0.48 1.3 1.14 1.48v-9.01h-1.14l0 7.53z"></path><path d="M23.4 21.04h-18.93v1.9h1.43v9.38h1.6v-9.38h12.87v9.38h1.6v-9.38h1.43z"></path><path d="M5.73 17.64c0 0.01-1.12 2.21-1.12 2.2a0.66 0.66 0 0 0 1.17 0.61l1.13-2.17 1.27 2.2a0.66 0.66 0 1 0 1.14-0.66l-1.11-1.92h4.09v2.25a0.66 0.66 0 0 0 1.32 0v-2.49c0-0.01 0-0.01 0-0.02v-2.08l-3.06-1.75h-4.03l-1.25-1.01a0.66 0.66 0 1 0-0.82 1.03l1.27 1.02 0 2.79z"></path><path d="M13.73 9.62c-0.11-0.08-0.65-0.34-0.88 0.56a2.72 2.72 0 0 1-0.22 0.56c-0.34 0.65-0.77 1.24-1.17 1.85l-0.56 0.82 2.87 1.64s0.55-0.61 0.63-0.57c0.11 0.05 0.22 0.09 0.33 0.14a2.14 2.14 0 0 0 0.99 0.18c0.59-0.03 1.2-0.35 1.25-1.05 0.05-0.65-1.52-1.15-1.65-1.28-0.41-0.38-0.54-0.83-1-1.16-0.08-0.06-0.16-0.11-0.24-0.16-0.05-0.03-0.07-0.06-0.06-0.11 0.02-0.19 0.04-0.38 0.05-0.57 0.03-0.34-0.07-0.65-0.34-0.85z"></path></g></svg>