<svg xmlns="http://www.w3.org/2000/svg" viewBox="0 0 510 510"><title>infraestructura</title><g fill="#212121" class="nc-icon-wrapper"><path d="M390 154.605V90h30V0H90v90h30v64.605l-120 45V510h510V199.605zM120 30h270v30H120zm0 450H30V220.395l90-33.75zm105 0v-75h60v75zm135 0h-45V375H195v105h-45V90h210zm120 0h-90V186.645l90 33.75z"></path><path d="M60 300h30v30H60z"></path><path d="M60 360h30v30H60z"></path><path d="M60 420h30v30H60z"></path><path d="M420 300h30v30h-30z"></path><path d="M420 360h30v30h-30z"></path><path d="M420 420h30v30h-30z"></path><path d="M255 285c24.814 0 45-20.187 45-45 0-24.814-20.186-45-45-45s-45 20.186-45 45c0 24.813 20.186 45 45 45zm0-60c8.272 0 15 6.729 15 15s-6.728 15-15 15c-8.271 0-15-6.729-15-15s6.729-15 15-15z"></path><path d="M240 120h30v30h-30z"></path><path d="M180 150h30v30h-30z"></path><path d="M300 150h30v30h-30z"></path><path d="M195 315h120v30H195z"></path></g></svg>