<svg id="master-artboard" viewBox="0 0 500 500" xmlns="http://www.w3.org/2000/svg"  width="100%" height="100%" version="1.1" style="shape-rendering:geometricPrecision; text-rendering:geometricPrecision; image-rendering:optimizeQuality; fill-rule:evenodd; clip-rule:evenodd">
	<rect id="ee-background" x="0" y="0" width="500" height="500" style="fill: white; fill-opacity: 0; pointer-events: none;"/><g transform="matrix(3.750065565109253, 0, 0, 3.750065565109253, 15, 181.20346069335938)"><rect id="rect-1" x="0" y="0" width="133.3310089111328" height="36.69084548950195" style="fill: white; fill-opacity: 0; pointer-events: none;"/><path d="M 452.9248046875 551.8748168945312 L 438.01483154296875 571.0648193359375 L 454.3548278808594 594.6248168945312 L 458.1548156738281 594.6248168945312 L 458.1548156738281 610.204833984375 L 429.8448181152344 610.204833984375 L 414.8348083496094 584.1748046875 L 414.8348083496094 610.204833984375 L 382.5348205566406 610.204833984375 L 382.5348205566406 594.6248168945312 L 388.2348327636719 594.6248168945312 L 388.2348327636719 551.8748168945312 L 382.5348205566406 551.8748168945312 L 382.5348205566406 536.2947998046875 L 414.8348083496094 536.2947998046875 L 414.8348083496094 561.8448486328125 L 432.2248229980469 536.2947998046875 L 456.73480224609375 536.2947998046875 L 456.73480224609375 551.8748168945312 L 452.9248046875 551.8748168945312 ZM 493.6373596191406 594.6248168945312 C 495.7906799316406 594.6248168945312 497.4073486328125 594.0714721679688 498.48736572265625 592.96484375 C 499.5606994628906 591.8515014648438 500.09735107421875 590.0615234375 500.09735107421875 587.5948486328125 L 500.09735107421875 558.9048461914062 C 500.09735107421875 556.4315185546875 499.5606994628906 554.6414794921875 498.48736572265625 553.5348510742188 C 497.4073486328125 552.4281616210938 495.7906799316406 551.8748168945312 493.6373596191406 551.8748168945312 C 491.4840087890625 551.8748168945312 489.86737060546875 552.4281616210938 488.787353515625 553.5348510742188 C 487.7140197753906 554.6414794921875 487.1773681640625 556.4315185546875 487.1773681640625 558.9048461914062 L 487.1773681640625 587.5948486328125 C 487.1773681640625 590.0615234375 487.7140197753906 591.8515014648438 488.787353515625 592.96484375 C 489.86737060546875 594.0714721679688 491.4840087890625 594.6248168945312 493.6373596191406 594.6248168945312 M 529.9273681640625 573.2548217773438 C 529.9273681640625 580.2214965820312 529.0740356445312 586.1248168945312 527.3673706054688 590.96484375 C 525.654052734375 595.8115234375 523.230712890625 599.7548217773438 520.0973510742188 602.7948608398438 C 516.9640502929688 605.8348388671875 513.1473388671875 608.051513671875 508.6473693847656 609.44482421875 C 504.1473693847656 610.8381958007812 499.1440124511719 611.5348510742188 493.6373596191406 611.5348510742188 C 488.13067626953125 611.5348510742188 483.1273498535156 610.8381958007812 478.6273498535156 609.44482421875 C 474.1273498535156 608.051513671875 470.3106994628906 605.8348388671875 467.1773681640625 602.7948608398438 C 464.0440368652344 599.7548217773438 461.6206970214844 595.8115234375 459.9073486328125 590.96484375 C 458.20068359375 586.1248168945312 457.34735107421875 580.2214965820312 457.34735107421875 573.2548217773438 C 457.34735107421875 566.34814453125 458.20068359375 560.454833984375 459.9073486328125 555.5748291015625 C 461.6206970214844 550.7014770507812 464.0440368652344 546.7448120117188 467.1773681640625 543.704833984375 C 470.3106994628906 540.6648559570312 474.1273498535156 538.4481811523438 478.6273498535156 537.0548095703125 C 483.1273498535156 535.6614990234375 488.13067626953125 534.96484375 493.6373596191406 534.96484375 C 499.1440124511719 534.96484375 504.1473693847656 535.6614990234375 508.6473693847656 537.0548095703125 C 513.1473388671875 538.4481811523438 516.9640502929688 540.6648559570312 520.0973510742188 543.704833984375 C 523.230712890625 546.7448120117188 525.654052734375 550.7014770507812 527.3673706054688 555.5748291015625 C 529.0740356445312 560.454833984375 529.9273681640625 566.34814453125 529.9273681640625 573.2548217773438 ZM 532.5416259765625 536.2947998046875 L 577.9515991210938 536.2947998046875 L 588.7816162109375 568.8748168945312 L 599.2315673828125 536.2947998046875 L 643.0316162109375 536.2947998046875 L 643.0316162109375 551.8748168945312 L 637.3215942382812 551.8748168945312 L 637.3215942382812 594.6248168945312 L 643.0316162109375 594.6248168945312 L 643.0316162109375 610.204833984375 L 605.0316162109375 610.204833984375 L 605.0316162109375 594.6248168945312 L 610.7315673828125 594.6248168945312 L 610.7315673828125 557.0948486328125 L 591.8215942382812 610.204833984375 L 581.5615844726562 610.204833984375 L 560.0916137695312 556.9048461914062 L 560.0916137695312 594.6248168945312 L 565.7916259765625 594.6248168945312 L 565.7916259765625 610.204833984375 L 532.5416259765625 610.204833984375 L 532.5416259765625 594.6248168945312 L 538.2415771484375 594.6248168945312 L 538.2415771484375 551.8748168945312 L 532.5416259765625 551.8748168945312 L 532.5416259765625 536.2947998046875 ZM 682.6675415039062 567.454833984375 C 684.4408569335938 567.454833984375 685.8009033203125 566.9815063476562 686.74755859375 566.0348510742188 C 687.7008666992188 565.0814819335938 688.1775512695312 563.5281982421875 688.1775512695312 561.3748168945312 L 688.1775512695312 557.954833984375 C 688.1775512695312 555.801513671875 687.717529296875 554.2481689453125 686.7975463867188 553.2948608398438 C 685.8842163085938 552.34814453125 684.507568359375 551.8748168945312 682.6675415039062 551.8748168945312 L 679.4375610351562 551.8748168945312 L 679.4375610351562 567.454833984375 L 682.6675415039062 567.454833984375 M 688.5575561523438 610.204833984375 L 647.1375122070312 610.204833984375 L 647.1375122070312 594.6248168945312 L 652.8375244140625 594.6248168945312 L 652.8375244140625 551.8748168945312 L 647.1375122070312 551.8748168945312 L 647.1375122070312 536.2947998046875 L 689.7875366210938 536.2947998046875 C 693.6541748046875 536.2947998046875 697.1541748046875 536.6915283203125 700.2875366210938 537.48486328125 C 703.4275512695312 538.2781982421875 706.0708618164062 539.5581665039062 708.217529296875 541.3248291015625 C 710.370849609375 543.09814453125 712.0341796875 545.4114990234375 713.20751953125 548.2648315429688 C 714.380859375 551.1181640625 714.967529296875 554.5681762695312 714.967529296875 558.6148071289062 C 714.967529296875 562.73486328125 714.380859375 566.204833984375 713.20751953125 569.0248413085938 C 712.0341796875 571.8448486328125 710.370849609375 574.13818359375 708.217529296875 575.9048461914062 C 706.0708618164062 577.6781616210938 703.4275512695312 578.9614868164062 700.2875366210938 579.7548217773438 C 697.1541748046875 580.5481567382812 693.6541748046875 580.94482421875 689.7875366210938 580.94482421875 L 679.4375610351562 580.94482421875 L 679.4375610351562 594.6248168945312 L 688.5575561523438 594.6248168945312 L 688.5575561523438 610.204833984375 ZM 748.9343872070312 594.6248168945312 L 755.204345703125 594.6248168945312 L 755.204345703125 610.204833984375 L 716.6343383789062 610.204833984375 L 716.6343383789062 594.6248168945312 L 722.3343505859375 594.6248168945312 L 722.3343505859375 551.8748168945312 L 716.6343383789062 551.8748168945312 L 716.6343383789062 536.2947998046875 L 761.1843872070312 536.2947998046875 C 765.051025390625 536.2947998046875 768.551025390625 536.6748046875 771.6843872070312 537.434814453125 C 774.8243408203125 538.19482421875 777.4677124023438 539.4148559570312 779.6143798828125 541.0948486328125 C 781.7743530273438 542.7748413085938 783.4376831054688 544.974853515625 784.6043701171875 547.69482421875 C 785.7777099609375 550.4215087890625 786.3643798828125 553.7448120117188 786.3643798828125 557.6648559570312 C 786.3643798828125 561.8448486328125 785.5243530273438 565.4881591796875 783.8443603515625 568.5948486328125 C 782.1710205078125 571.7014770507812 779.7177124023438 573.88818359375 776.484375 575.1548461914062 L 776.5743408203125 576.1048583984375 C 782.6543579101562 577.051513671875 785.6943359375 580.7881469726562 785.6943359375 587.3148193359375 L 785.6943359375 594.6248168945312 L 790.1643676757812 594.6248168945312 L 790.1643676757812 610.204833984375 L 760.0443725585938 610.204833984375 L 760.0443725585938 587.8848266601562 C 760.0443725585938 585.9781494140625 759.841064453125 584.4415283203125 759.4343872070312 583.2748413085938 C 759.0210571289062 582.1015014648438 758.3543701171875 581.21484375 757.4343872070312 580.6148071289062 C 756.5210571289062 580.0081787109375 755.3643798828125 579.5948486328125 753.96435546875 579.3748168945312 C 752.5776977539062 579.1548461914062 750.9010620117188 579.0448608398438 748.9343872070312 579.0448608398438 L 748.9343872070312 594.6248168945312 M 754.0643920898438 567.454833984375 C 755.9043579101562 567.454833984375 757.281005859375 566.9815063476562 758.1943359375 566.0348510742188 C 759.1143798828125 565.0814819335938 759.5743408203125 563.5281982421875 759.5743408203125 561.3748168945312 L 759.5743408203125 557.954833984375 C 759.5743408203125 555.801513671875 759.1143798828125 554.2481689453125 758.1943359375 553.2948608398438 C 757.281005859375 552.34814453125 755.9043579101562 551.8748168945312 754.0643920898438 551.8748168945312 L 748.9343872070312 551.8748168945312 L 748.9343872070312 567.454833984375 L 754.0643920898438 567.454833984375 ZM 837.7176513671875 551.8748168945312 L 826.2176513671875 551.8748168945312 L 826.2176513671875 566.8848266601562 L 834.57763671875 566.8848266601562 L 834.57763671875 577.71484375 L 826.2176513671875 577.71484375 L 826.2176513671875 594.6248168945312 L 837.7176513671875 594.6248168945312 L 837.7176513671875 579.6148071289062 L 858.9976196289062 579.6148071289062 L 858.9976196289062 610.204833984375 L 793.9176025390625 610.204833984375 L 793.9176025390625 594.6248168945312 L 799.6176147460938 594.6248168945312 L 799.6176147460938 551.8748168945312 L 793.9176025390625 551.8748168945312 L 793.9176025390625 536.2947998046875 L 858.9976196289062 536.2947998046875 L 858.9976196289062 564.98486328125 L 837.7176513671875 564.98486328125 L 837.7176513671875 551.8748168945312 ZM 890.96044921875 593.204833984375 C 893.0538330078125 593.204833984375 894.5438232421875 592.8848266601562 895.4304809570312 592.2448120117188 C 896.317138671875 591.6115112304688 896.760498046875 590.6648559570312 896.760498046875 589.4048461914062 C 896.760498046875 588.511474609375 896.3971557617188 587.73486328125 895.6704711914062 587.0748291015625 C 894.9371337890625 586.4081420898438 893.4638061523438 585.6314697265625 891.25048828125 584.7448120117188 C 886.5637817382812 582.9714965820312 882.4638061523438 581.2781982421875 878.950439453125 579.6648559570312 C 875.4371337890625 578.0448608398438 872.5238037109375 576.2548217773438 870.21044921875 574.2948608398438 C 867.8971557617188 572.3281860351562 866.1704711914062 570.031494140625 865.0304565429688 567.4048461914062 C 863.8904418945312 564.7781982421875 863.3204956054688 561.59814453125 863.3204956054688 557.8648071289062 C 863.3204956054688 554.3181762695312 863.873779296875 551.1348266601562 864.98046875 548.3148193359375 C 866.0938110351562 545.4948120117188 867.9004516601562 543.088134765625 870.4004516601562 541.0948486328125 C 872.9004516601562 539.0948486328125 876.2238159179688 537.5748291015625 880.3704833984375 536.5348510742188 C 884.5238037109375 535.4881591796875 889.6371459960938 534.96484375 895.71044921875 534.96484375 C 901.2238159179688 534.96484375 906.4171142578125 535.5181884765625 911.2904663085938 536.6248168945312 C 916.1704711914062 537.7315063476562 920.2271118164062 539.204833984375 923.46044921875 541.0447998046875 L 923.46044921875 558.0448608398438 L 903.50048828125 558.0448608398438 C 903.50048828125 556.2114868164062 902.9971313476562 554.9614868164062 901.990478515625 554.2948608398438 C 900.970458984375 553.628173828125 899.7338256835938 553.2948608398438 898.2804565429688 553.2948608398438 C 896.1871337890625 553.2948608398438 894.6837768554688 553.5648193359375 893.7704467773438 554.1048583984375 C 892.8504638671875 554.6448364257812 892.3904418945312 555.5781860351562 892.3904418945312 556.9048461914062 C 892.3904418945312 557.98486328125 892.8804931640625 558.7781982421875 893.8604736328125 559.2848510742188 C 894.8404541015625 559.79150390625 896.3137817382812 560.3615112304688 898.2804565429688 560.9948120117188 C 901.9537963867188 562.19482421875 905.4204711914062 563.4614868164062 908.6804809570312 564.7948608398438 C 911.9404907226562 566.128173828125 914.80712890625 567.7748413085938 917.2804565429688 569.73486328125 C 919.7537841796875 571.7014770507812 921.700439453125 574.0781860351562 923.1204833984375 576.8648071289062 C 924.547119140625 579.6514892578125 925.260498046875 583.0681762695312 925.260498046875 587.1148071289062 C 925.260498046875 595.3548583984375 922.6004638671875 601.48486328125 917.2804565429688 605.5048217773438 C 911.96044921875 609.5248413085938 904.1704711914062 611.5348510742188 893.9104614257812 611.5348510742188 C 888.0838012695312 611.5348510742188 882.48046875 611.0281372070312 877.1004638671875 610.0148315429688 C 871.7138061523438 609.0015258789062 867.40380859375 607.7981567382812 864.1704711914062 606.4048461914062 L 864.1704711914062 587.5948486328125 L 885.0704956054688 587.5948486328125 C 885.0704956054688 589.4948120117188 885.450439453125 590.9048461914062 886.21044921875 591.8248291015625 C 886.9771118164062 592.7448120117188 888.5604858398438 593.204833984375 890.96044921875 593.204833984375 ZM 956.091064453125 593.204833984375 C 958.1844482421875 593.204833984375 959.6744384765625 592.8848266601562 960.5610961914062 592.2448120117188 C 961.44775390625 591.6115112304688 961.89111328125 590.6648559570312 961.89111328125 589.4048461914062 C 961.89111328125 588.511474609375 961.5277709960938 587.73486328125 960.8010864257812 587.0748291015625 C 960.0677490234375 586.4081420898438 958.5944213867188 585.6314697265625 956.381103515625 584.7448120117188 C 951.6943969726562 582.9714965820312 947.5944213867188 581.2781982421875 944.0810546875 579.6648559570312 C 940.5677490234375 578.0448608398438 937.6544189453125 576.2548217773438 935.341064453125 574.2948608398438 C 933.0277709960938 572.3281860351562 931.3010864257812 570.031494140625 930.1610717773438 567.4048461914062 C 929.0210571289062 564.7781982421875 928.4511108398438 561.59814453125 928.4511108398438 557.8648071289062 C 928.4511108398438 554.3181762695312 929.00439453125 551.1348266601562 930.111083984375 548.3148193359375 C 931.2244262695312 545.4948120117188 933.0310668945312 543.088134765625 935.5310668945312 541.0948486328125 C 938.0310668945312 539.0948486328125 941.3544311523438 537.5748291015625 945.5010986328125 536.5348510742188 C 949.6544189453125 535.4881591796875 954.7677612304688 534.96484375 960.841064453125 534.96484375 C 966.3544311523438 534.96484375 971.5477294921875 535.5181884765625 976.4210815429688 536.6248168945312 C 981.3010864257812 537.7315063476562 985.3577270507812 539.204833984375 988.591064453125 541.0447998046875 L 988.591064453125 558.0448608398438 L 968.631103515625 558.0448608398438 C 968.631103515625 556.2114868164062 968.1277465820312 554.9614868164062 967.12109375 554.2948608398438 C 966.10107421875 553.628173828125 964.8644409179688 553.2948608398438 963.4110717773438 553.2948608398438 C 961.3177490234375 553.2948608398438 959.8143920898438 553.5648193359375 958.9010620117188 554.1048583984375 C 957.9810791015625 554.6448364257812 957.5210571289062 555.5781860351562 957.5210571289062 556.9048461914062 C 957.5210571289062 557.98486328125 958.0111083984375 558.7781982421875 958.9910888671875 559.2848510742188 C 959.9710693359375 559.79150390625 961.4443969726562 560.3615112304688 963.4110717773438 560.9948120117188 C 967.0844116210938 562.19482421875 970.5510864257812 563.4614868164062 973.8110961914062 564.7948608398438 C 977.0711059570312 566.128173828125 979.937744140625 567.7748413085938 982.4110717773438 569.73486328125 C 984.8843994140625 571.7014770507812 986.8310546875 574.0781860351562 988.2510986328125 576.8648071289062 C 989.677734375 579.6514892578125 990.39111328125 583.0681762695312 990.39111328125 587.1148071289062 C 990.39111328125 595.3548583984375 987.7310791015625 601.48486328125 982.4110717773438 605.5048217773438 C 977.091064453125 609.5248413085938 969.3010864257812 611.5348510742188 959.0410766601562 611.5348510742188 C 953.2144165039062 611.5348510742188 947.611083984375 611.0281372070312 942.2310791015625 610.0148315429688 C 936.8444213867188 609.0015258789062 932.534423828125 607.7981567382812 929.3010864257812 606.4048461914062 L 929.3010864257812 587.5948486328125 L 950.2011108398438 587.5948486328125 C 950.2011108398438 589.4948120117188 950.5810546875 590.9048461914062 951.341064453125 591.8248291015625 C 952.1077270507812 592.7448120117188 953.6911010742188 593.204833984375 956.091064453125 593.204833984375 ZM 1029.681640625 594.6248168945312 C 1031.8350830078125 594.6248168945312 1033.45166015625 594.0714721679688 1034.53173828125 592.96484375 C 1035.60498046875 591.8515014648438 1036.1417236328125 590.0615234375 1036.1417236328125 587.5948486328125 L 1036.1417236328125 558.9048461914062 C 1036.1417236328125 556.4315185546875 1035.60498046875 554.6414794921875 1034.53173828125 553.5348510742188 C 1033.45166015625 552.4281616210938 1031.8350830078125 551.8748168945312 1029.681640625 551.8748168945312 C 1027.5283203125 551.8748168945312 1025.9117431640625 552.4281616210938 1024.8316650390625 553.5348510742188 C 1023.7583618164062 554.6414794921875 1023.2216796875 556.4315185546875 1023.2216796875 558.9048461914062 L 1023.2216796875 587.5948486328125 C 1023.2216796875 590.0615234375 1023.7583618164062 591.8515014648438 1024.8316650390625 592.96484375 C 1025.9117431640625 594.0714721679688 1027.5283203125 594.6248168945312 1029.681640625 594.6248168945312 M 1065.9716796875 573.2548217773438 C 1065.9716796875 580.2214965820312 1065.118408203125 586.1248168945312 1063.4117431640625 590.96484375 C 1061.6983642578125 595.8115234375 1059.2750244140625 599.7548217773438 1056.1417236328125 602.7948608398438 C 1053.0084228515625 605.8348388671875 1049.191650390625 608.051513671875 1044.691650390625 609.44482421875 C 1040.191650390625 610.8381958007812 1035.1883544921875 611.5348510742188 1029.681640625 611.5348510742188 C 1024.175048828125 611.5348510742188 1019.1716918945312 610.8381958007812 1014.6716918945312 609.44482421875 C 1010.1716918945312 608.051513671875 1006.3550415039062 605.8348388671875 1003.2216796875 602.7948608398438 C 1000.08837890625 599.7548217773438 997.6650390625 595.8115234375 995.9517211914062 590.96484375 C 994.2450561523438 586.1248168945312 993.3917236328125 580.2214965820312 993.3917236328125 573.2548217773438 C 993.3917236328125 566.34814453125 994.2450561523438 560.454833984375 995.9517211914062 555.5748291015625 C 997.6650390625 550.7014770507812 1000.08837890625 546.7448120117188 1003.2216796875 543.704833984375 C 1006.3550415039062 540.6648559570312 1010.1716918945312 538.4481811523438 1014.6716918945312 537.0548095703125 C 1019.1716918945312 535.6614990234375 1024.175048828125 534.96484375 1029.681640625 534.96484375 C 1035.1883544921875 534.96484375 1040.191650390625 535.6614990234375 1044.691650390625 537.0548095703125 C 1049.191650390625 538.4481811523438 1053.0084228515625 540.6648559570312 1056.1417236328125 543.704833984375 C 1059.2750244140625 546.7448120117188 1061.6983642578125 550.7014770507812 1063.4117431640625 555.5748291015625 C 1065.118408203125 560.454833984375 1065.9716796875 566.34814453125 1065.9716796875 573.2548217773438 ZM 1101.075927734375 594.6248168945312 L 1107.345947265625 594.6248168945312 L 1107.345947265625 610.204833984375 L 1068.77587890625 610.204833984375 L 1068.77587890625 594.6248168945312 L 1074.4759521484375 594.6248168945312 L 1074.4759521484375 551.8748168945312 L 1068.77587890625 551.8748168945312 L 1068.77587890625 536.2947998046875 L 1113.325927734375 536.2947998046875 C 1117.192626953125 536.2947998046875 1120.692626953125 536.6748046875 1123.825927734375 537.434814453125 C 1126.9659423828125 538.19482421875 1129.6092529296875 539.4148559570312 1131.755859375 541.0948486328125 C 1133.9158935546875 542.7748413085938 1135.5792236328125 544.974853515625 1136.745849609375 547.69482421875 C 1137.919189453125 550.4215087890625 1138.505859375 553.7448120117188 1138.505859375 557.6648559570312 C 1138.505859375 561.8448486328125 1137.6658935546875 565.4881591796875 1135.9859619140625 568.5948486328125 C 1134.3126220703125 571.7014770507812 1131.8592529296875 573.88818359375 1128.6258544921875 575.1548461914062 L 1128.7159423828125 576.1048583984375 C 1134.7958984375 577.051513671875 1137.8359375 580.7881469726562 1137.8359375 587.3148193359375 L 1137.8359375 594.6248168945312 L 1142.305908203125 594.6248168945312 L 1142.305908203125 610.204833984375 L 1112.1859130859375 610.204833984375 L 1112.1859130859375 587.8848266601562 C 1112.1859130859375 585.9781494140625 1111.9825439453125 584.4415283203125 1111.575927734375 583.2748413085938 C 1111.16259765625 582.1015014648438 1110.495849609375 581.21484375 1109.575927734375 580.6148071289062 C 1108.66259765625 580.0081787109375 1107.505859375 579.5948486328125 1106.10595703125 579.3748168945312 C 1104.71923828125 579.1548461914062 1103.0426025390625 579.0448608398438 1101.075927734375 579.0448608398438 L 1101.075927734375 594.6248168945312 M 1106.2059326171875 567.454833984375 C 1108.0458984375 567.454833984375 1109.422607421875 566.9815063476562 1110.3359375 566.0348510742188 C 1111.255859375 565.0814819335938 1111.7159423828125 563.5281982421875 1111.7159423828125 561.3748168945312 L 1111.7159423828125 557.954833984375 C 1111.7159423828125 555.801513671875 1111.255859375 554.2481689453125 1110.3359375 553.2948608398438 C 1109.422607421875 552.34814453125 1108.0458984375 551.8748168945312 1106.2059326171875 551.8748168945312 L 1101.075927734375 551.8748168945312 L 1101.075927734375 567.454833984375 L 1106.2059326171875 567.454833984375 Z" transform="matrix(0.16072644293308258, 0, 0, 0.16072644293308258, -59.59727096557617, -70.39543914794922)" style="fill: rgb(51, 51, 51); white-space: pre; color: rgb(51, 51, 51);"/></g></svg>