<?xml version="1.0" encoding="utf-8"?>
<svg id="master-artboard" viewBox="0 0 500 500" xmlns="http://www.w3.org/2000/svg"  width="100%" height="100%" version="1.1" style="shape-rendering:geometricPrecision; text-rendering:geometricPrecision; image-rendering:optimizeQuality; fill-rule:evenodd; clip-rule:evenodd">
	<rect id="ee-background" x="0" y="0" width="500" height="500" style="fill: white; fill-opacity: 0; pointer-events: none;"/><g transform="matrix(0.3767820561657753, 0, 0, 0.3767820561657753, 16.317356275176966, 3.5404350050902966)"><g transform="translate(0.000000,1280.000000) scale(0.100000,-0.100000)" fill="#000000" stroke="none">
<path d="M6045 12700 c-33 -4 -118 -12 -190 -19 -71 -7 -154 -16 -184 -22 -30&#10;-5 -72 -9 -93 -9 -22 0 -47 -4 -56 -9 -9 -5 -44 -11 -77 -14 -84 -8 -167 -25&#10;-179 -37 -6 -6 -30 -10 -56 -10 -25 -1 -74 -8 -110 -16 -36 -8 -83 -19 -105&#10;-25 -22 -5 -74 -16 -115 -23 -41 -8 -88 -20 -105 -25 -16 -6 -64 -20 -105 -32&#10;-41 -11 -114 -34 -162 -50 -47 -16 -95 -29 -107 -29 -11 0 -22 -4 -26 -10 -3&#10;-5 -33 -17 -65 -26 -33 -9 -60 -21 -60 -25 0 -5 -8 -9 -19 -9 -10 0 -51 -13&#10;-91 -30 -40 -16 -80 -30 -89 -30 -9 0 -25 -6 -36 -14 -11 -7 -31 -17 -45 -21&#10;-14 -4 -116 -52 -228 -106 -112 -55 -205 -99 -209 -99 -3 0 -25 -13 -50 -30&#10;-24 -16 -48 -30 -54 -30 -5 0 -26 -11 -47 -24 -21 -13 -58 -33 -82 -45 -48&#10;-23 -52 -25 -143 -83 -32 -21 -61 -38 -65 -38 -4 0 -27 -16 -51 -35 -24 -19&#10;-49 -35 -56 -35 -7 0 -15 -7 -19 -15 -3 -8 -11 -15 -17 -15 -6 0 -34 -17 -62&#10;-37 -45 -33 -93 -66 -195 -136 -28 -19 -131 -97 -236 -179 -16 -13 -70 -59&#10;-120 -103 -50 -44 -96 -84 -103 -90 -146 -126 -333 -310 -458 -450 -44 -50&#10;-105 -117 -136 -150 -116 -123 -289 -344 -396 -505 -23 -34 -171 -262 -216&#10;-332 -21 -31 -37 -61 -37 -67 0 -6 -4 -11 -8 -11 -5 0 -16 -17 -26 -37 -10&#10;-20 -33 -60 -51 -87 -42 -64 -151 -284 -258 -516 -11 -25 -24 -52 -29 -60 -4&#10;-8 -11 -22 -14 -30 -3 -8 -13 -33 -24 -55 -10 -22 -22 -51 -25 -65 -4 -14 -18&#10;-49 -31 -78 -13 -29 -24 -60 -24 -70 -1 -9 -9 -35 -20 -57 -11 -22 -19 -46&#10;-20 -53 0 -7 -9 -31 -19 -55 -10 -23 -24 -64 -31 -92 -7 -27 -18 -64 -26 -80&#10;-7 -17 -18 -52 -24 -78 -5 -26 -14 -55 -19 -65 -13 -26 -31 -87 -31 -105 0&#10;-10 -4 -25 -9 -35 -5 -9 -15 -44 -21 -77 -7 -33 -18 -80 -26 -105 -7 -25 -18&#10;-78 -24 -119 -6 -40 -13 -78 -16 -83 -3 -5 -8 -22 -9 -36 -2 -15 -11 -63 -19&#10;-107 -9 -44 -16 -99 -16 -122 0 -23 -4 -53 -10 -68 -5 -14 -17 -112 -25 -218&#10;-9 -105 -20 -208 -25 -227 -17 -59 -13 -814 4 -901 8 -41 20 -138 26 -216 5&#10;-79 15 -154 20 -168 6 -15 10 -45 11 -68 0 -23 7 -76 15 -117 8 -41 17 -88 19&#10;-105 5 -34 20 -108 42 -205 8 -36 18 -83 23 -105 19 -83 29 -122 50 -190 12&#10;-38 31 -99 41 -135 10 -36 28 -92 39 -124 11 -33 20 -65 20 -73 0 -7 4 -21 9&#10;-31 5 -9 17 -46 27 -82 10 -36 21 -70 25 -75 7 -9 36 -86 43 -110 1 -5 10 -24&#10;19 -42 9 -18 17 -38 17 -46 0 -8 9 -26 20 -40 11 -14 20 -32 20 -41 0 -8 9&#10;-32 19 -53 11 -21 29 -60 41 -88 12 -27 38 -84 58 -125 19 -41 35 -77 35 -80&#10;-1 -3 7 -16 16 -30 9 -14 26 -43 36 -65 44 -89 142 -262 229 -400 30 -49 63&#10;-103 72 -118 8 -16 41 -66 72 -111 31 -45 62 -89 67 -98 6 -8 22 -31 36 -49&#10;14 -19 58 -78 98 -131 40 -54 85 -111 101 -127 17 -16 30 -34 30 -39 0 -5 7&#10;-16 17 -23 9 -8 34 -36 55 -63 92 -116 404 -441 538 -560 30 -27 87 -79 126&#10;-115 102 -95 234 -205 349 -291 55 -41 102 -77 105 -80 3 -3 13 -9 22 -15 9&#10;-5 64 -44 122 -85 58 -41 120 -83 137 -92 17 -9 41 -25 53 -36 25 -22 132 -88&#10;201 -124 28 -14 79 -42 115 -62 77 -42 403 -204 475 -235 28 -12 63 -29 78&#10;-36 16 -8 37 -15 47 -15 10 0 21 -4 24 -9 3 -5 32 -19 63 -31 57 -22 87 -35&#10;168 -70 22 -9 67 -25 100 -35 33 -10 67 -21 75 -26 8 -5 20 -11 25 -12 6 -2&#10;33 -12 60 -21 28 -9 82 -26 120 -36 140 -37 191 -51 235 -65 25 -8 63 -17 85&#10;-20 22 -4 58 -12 80 -20 22 -7 56 -16 75 -19 44 -6 138 -24 165 -30 131 -29&#10;383 -64 540 -76 83 -6 173 -15 200 -21 53 -11 833 -7 915 5 25 3 97 11 160 16&#10;132 12 402 46 475 61 28 5 64 12 80 15 17 3 48 9 70 14 22 5 58 11 80 15 22 4&#10;56 13 75 20 19 7 57 16 85 20 27 4 61 13 75 20 14 7 43 15 65 18 22 3 54 11&#10;70 18 17 7 37 14 45 15 30 4 126 32 160 47 46 19 101 38 120 42 8 1 26 7 40&#10;12 14 6 41 14 60 18 19 4 42 13 50 20 8 7 29 16 45 19 17 4 37 13 45 20 8 7&#10;35 19 60 26 25 8 54 19 65 26 11 7 31 15 45 19 14 4 54 21 90 40 36 18 87 41&#10;114 50 48 18 290 139 376 189 25 14 72 39 105 56 68 35 141 79 217 131 29 20&#10;91 61 138 93 109 73 179 121 210 147 14 11 66 50 115 86 50 37 144 112 209&#10;167 66 56 133 112 150 126 98 80 481 461 534 530 15 19 55 67 88 106 88 102&#10;249 308 319 409 33 47 65 92 70 98 6 7 15 20 20 29 6 9 49 74 96 145 47 70 88&#10;133 90 138 2 6 20 36 39 69 19 32 47 79 61 105 14 25 37 66 51 91 14 25 46 83&#10;70 130 25 47 50 94 56 105 29 51 142 297 142 308 0 6 7 26 16 42 18 34 44 102&#10;48 125 2 8 11 32 20 52 9 21 16 44 16 52 0 8 4 18 10 21 5 3 14 25 21 48 6 23&#10;16 56 23 72 20 46 36 100 36 117 0 8 7 28 15 45 8 17 19 52 24 77 5 26 14 53&#10;20 59 6 6 11 23 11 39 0 15 8 51 19 80 10 29 24 80 31 113 15 72 48 217 60&#10;265 5 19 11 55 14 80 3 25 12 76 20 115 9 38 16 87 16 108 0 21 5 47 11 58 5&#10;11 17 97 25 191 8 94 20 181 26 192 15 28 23 745 9 891 -9 107 -17 169 -47&#10;400 -27 201 -32 240 -43 290 -6 28 -16 77 -21 110 -19 117 -29 165 -35 176 -4&#10;5 -13 42 -20 82 -8 40 -21 97 -30 127 -9 30 -23 80 -30 111 -7 30 -17 64 -22&#10;75 -6 10 -14 37 -18 59 -3 22 -12 54 -20 70 -7 17 -18 50 -25 75 -7 25 -18 59&#10;-25 75 -7 17 -18 46 -24 65 -20 68 -51 153 -60 164 -4 6 -8 18 -8 26 0 8 -13&#10;44 -30 80 -16 36 -36 84 -43 108 -7 23 -16 42 -20 42 -4 0 -13 19 -21 42 -7&#10;24 -27 68 -43 98 -67 129 -96 188 -96 194 0 4 -16 34 -35 67 -19 32 -32 59&#10;-29 59 3 0 -8 19 -24 43 -16 23 -47 76 -70 117 -37 66 -85 143 -146 236 -67&#10;102 -112 168 -156 229 -27 39 -62 88 -76 110 -15 22 -52 72 -83 110 -31 39&#10;-75 95 -98 127 -23 31 -54 69 -69 85 -14 15 -49 55 -77 87 -29 33 -57 65 -64&#10;71 -6 6 -34 39 -63 74 -111 133 -240 260 -425 416 -33 28 -80 68 -105 90 -58&#10;53 -106 93 -155 130 -21 17 -73 57 -114 90 -151 120 -491 352 -636 435 -16 10&#10;-70 41 -120 69 -49 29 -94 53 -100 54 -5 1 -12 4 -15 7 -3 3 -21 13 -40 22&#10;-19 10 -42 22 -50 27 -25 15 -75 35 -82 33 -5 -1 -8 2 -8 8 0 5 -5 10 -11 10&#10;-6 0 -80 34 -164 75 -84 41 -156 75 -161 75 -8 0 -57 20 -189 76 -16 7 -43 16&#10;-60 20 -16 4 -39 13 -50 20 -11 8 -28 14 -39 14 -11 0 -38 8 -60 19 -23 10&#10;-75 29 -116 41 -41 12 -82 24 -90 27 -8 3 -49 14 -90 25 -110 28 -132 35 -165&#10;47 -16 6 -73 20 -125 30 -52 11 -122 27 -155 35 -33 8 -77 15 -98 16 -21 0&#10;-48 5 -60 12 -34 19 -291 58 -512 78 -66 6 -174 17 -240 25 -124 16 -629 19&#10;-750 5z m765 -260 c144 -12 287 -26 345 -35 22 -4 89 -13 148 -20 60 -8 114&#10;-18 120 -23 7 -5 48 -12 92 -16 44 -4 103 -13 130 -20 28 -8 77 -20 110 -27&#10;33 -6 85 -18 115 -26 30 -8 71 -19 90 -23 19 -5 53 -15 75 -24 22 -8 49 -15&#10;59 -16 21 0 73 -16 121 -36 17 -7 48 -16 70 -19 22 -4 45 -11 50 -15 6 -5 52&#10;-22 103 -39 51 -17 107 -37 125 -45 17 -8 55 -22 82 -32 28 -10 59 -24 70 -31&#10;11 -7 29 -13 41 -13 12 0 27 -7 34 -15 7 -9 15 -14 17 -11 3 2 44 -16 91 -40&#10;48 -24 93 -44 100 -44 6 0 12 -4 12 -10 0 -5 6 -10 13 -10 13 0 157 -69 167&#10;-80 11 -11 72 -40 86 -40 8 0 14 -4 14 -9 0 -5 12 -14 28 -20 15 -7 50 -25 77&#10;-42 28 -16 66 -37 85 -47 19 -9 56 -32 82 -50 26 -17 49 -32 51 -32 6 0 345&#10;-227 382 -256 43 -34 70 -56 161 -132 44 -37 100 -83 125 -103 206 -171 585&#10;-541 713 -699 20 -25 74 -90 119 -145 45 -55 89 -110 97 -122 8 -11 35 -47 60&#10;-80 68 -87 290 -425 350 -533 30 -52 59 -102 66 -110 6 -8 37 -64 68 -124 31&#10;-60 60 -114 65 -120 5 -6 14 -29 21 -51 7 -22 18 -47 24 -55 20 -27 76 -148&#10;146 -315 18 -44 42 -98 52 -121 10 -22 18 -52 18 -66 0 -14 6 -31 14 -37 7 -6&#10;16 -28 20 -49 3 -20 13 -50 21 -66 8 -15 15 -36 15 -45 0 -9 14 -54 30 -100&#10;17 -46 30 -93 30 -105 0 -12 7 -31 15 -42 8 -10 15 -31 15 -46 0 -25 9 -53 32&#10;-105 6 -11 8 -27 6 -35 -3 -7 -1 -21 4 -30 4 -10 15 -52 23 -95 8 -43 19 -96&#10;24 -118 10 -39 31 -156 38 -205 2 -14 8 -52 13 -85 5 -33 13 -91 16 -130 4&#10;-38 11 -75 15 -81 5 -6 14 -94 19 -195 6 -101 17 -223 25 -270 17 -95 19 -279&#10;5 -409 -5 -47 -14 -161 -20 -255 -6 -93 -15 -204 -21 -245 -5 -41 -14 -111&#10;-19 -155 -5 -44 -14 -109 -20 -145 -5 -36 -13 -83 -16 -105 -3 -22 -9 -53 -15&#10;-69 -5 -16 -9 -43 -9 -61 0 -18 -7 -52 -15 -75 -8 -24 -18 -68 -21 -99 -4 -31&#10;-10 -61 -15 -67 -5 -6 -9 -26 -10 -45 -2 -19 -6 -38 -9 -44 -4 -5 -12 -32 -19&#10;-60 -7 -27 -19 -66 -26 -85 -8 -19 -19 -59 -25 -88 -7 -28 -16 -55 -21 -58 -5&#10;-3 -9 -15 -9 -27 0 -12 -10 -47 -21 -77 -12 -30 -27 -76 -34 -101 -7 -26 -18&#10;-55 -23 -65 -9 -16 -44 -110 -47 -124 -2 -6 -22 -54 -46 -106 -11 -23 -19 -45&#10;-19 -50 0 -14 -168 -356 -235 -479 -19 -33 -34 -65 -34 -71 -1 -7 -19 -41 -41&#10;-75 -22 -35 -47 -77 -55 -94 -26 -51 -66 -117 -125 -205 -242 -362 -468 -650&#10;-702 -891 -126 -131 -459 -441 -533 -498 -19 -14 -81 -62 -137 -105 -57 -44&#10;-140 -108 -185 -143 -46 -35 -85 -63 -88 -63 -2 0 -31 -20 -64 -45 -32 -25&#10;-63 -45 -69 -45 -5 0 -15 -7 -22 -15 -7 -8 -31 -24 -54 -35 -22 -10 -57 -30&#10;-78 -42 -20 -13 -87 -53 -150 -90 -62 -37 -117 -71 -123 -75 -15 -13 -311&#10;-157 -385 -188 -36 -15 -72 -30 -80 -35 -8 -4 -58 -24 -110 -45 -52 -20 -114&#10;-46 -137 -56 -24 -10 -48 -19 -54 -19 -6 0 -25 -6 -42 -14 -18 -8 -79 -30&#10;-137 -51 -58 -20 -118 -43 -135 -50 -29 -13 -53 -19 -120 -32 -16 -3 -34 -9&#10;-40 -13 -5 -4 -35 -13 -65 -19 -30 -7 -71 -18 -90 -26 -19 -7 -60 -16 -90 -20&#10;-30 -4 -68 -13 -85 -20 -16 -7 -48 -16 -70 -19 -22 -3 -71 -10 -110 -17 -38&#10;-6 -80 -12 -92 -14 -12 -2 -27 -7 -34 -11 -7 -4 -46 -11 -88 -15 -42 -4 -134&#10;-14 -206 -22 -283 -33 -421 -39 -790 -35 -377 5 -594 18 -720 44 -38 8 -89 14&#10;-112 14 -23 0 -54 5 -70 11 -15 6 -39 12 -53 14 -26 3 -127 18 -222 34 -31 6&#10;-65 14 -75 19 -10 5 -45 13 -78 17 -33 4 -71 13 -85 19 -14 7 -52 18 -85 25&#10;-33 7 -64 16 -70 20 -5 4 -37 13 -70 20 -33 7 -73 19 -90 27 -16 8 -50 20 -75&#10;28 -25 8 -83 29 -130 46 -47 17 -97 35 -112 40 -15 4 -40 15 -55 23 -15 9 -44&#10;21 -63 27 -47 16 -148 59 -225 95 -22 11 -44 20 -50 20 -15 1 -348 168 -361&#10;180 -7 7 -33 19 -58 29 -25 10 -46 22 -46 27 0 5 -4 9 -9 9 -10 0 -265 153&#10;-305 184 -17 13 -46 31 -64 40 -18 9 -68 45 -112 79 -96 76 -211 161 -225 166&#10;-20 9 -234 187 -360 301 -137 124 -367 357 -496 500 -85 96 -239 286 -239 295&#10;0 4 -30 46 -67 95 -38 48 -77 100 -88 116 -11 15 -29 39 -41 53 -17 22 -84&#10;124 -134 206 -68 111 -100 165 -100 170 0 3 -14 24 -31 47 -16 23 -39 61 -50&#10;83 -10 22 -30 58 -44 80 -13 22 -29 51 -35 65 -6 14 -32 68 -57 120 -25 52&#10;-49 104 -53 115 -4 11 -18 43 -30 70 -13 28 -29 64 -35 80 -7 17 -22 50 -32&#10;75 -58 134 -83 196 -83 204 0 5 -20 60 -45 123 -25 62 -45 118 -45 124 0 6 -7&#10;26 -16 44 -8 18 -23 70 -33 116 -24 109 -50 209 -61 234 -5 11 -16 55 -25 99&#10;-9 43 -20 86 -25 96 -5 9 -12 41 -15 71 -4 30 -11 68 -16 84 -5 17 -11 50 -13&#10;75 -3 25 -9 63 -15 85 -5 21 -13 80 -16 130 -4 49 -13 122 -21 160 -33 165&#10;-36 1147 -4 1325 6 30 15 91 20 135 5 44 14 109 20 145 5 36 11 76 13 90 4 28&#10;25 144 37 205 5 22 18 75 29 119 12 43 21 87 21 97 0 11 4 27 9 37 6 9 17 44&#10;25 77 9 33 22 85 31 115 8 30 15 64 15 75 0 11 6 31 13 45 7 14 19 45 27 70 7&#10;25 17 49 22 55 4 5 8 19 8 31 0 13 4 26 10 29 5 3 10 14 10 23 1 9 9 35 20 57&#10;11 22 19 49 20 60 0 11 8 34 19 50 10 17 23 48 30 70 7 22 19 54 26 70 8 17&#10;23 53 35 80 40 95 56 130 102 225 25 52 53 112 62 132 23 51 107 198 195 338&#10;39 63 76 126 82 140 6 14 21 39 35 57 13 17 24 36 24 42 0 6 5 11 10 11 6 0&#10;10 5 10 11 0 6 21 40 48 77 26 36 54 76 62 88 12 18 136 182 181 238 20 26&#10;136 163 152 181 10 11 33 38 50 60 69 86 424 443 537 539 30 26 60 51 65 56 6&#10;6 55 47 110 91 55 45 109 90 120 101 11 10 34 29 52 41 17 12 86 63 153 112&#10;66 50 129 95 138 100 9 6 44 28 77 51 33 22 72 47 86 55 42 22 121 70 152 91&#10;24 16 164 91 352 186 114 58 330 160 395 187 36 15 80 33 99 42 19 8 68 26&#10;110 40 42 13 103 35 136 47 33 13 80 29 105 36 25 8 50 17 55 20 12 9 43 18&#10;120 35 91 21 147 36 180 51 17 7 75 21 130 30 55 9 105 20 110 25 6 4 53 12&#10;105 18 52 7 118 18 145 26 99 28 346 56 655 74 107 7 197 15 200 18 7 7 416&#10;-5 570 -17z"/>
<path d="M5911 12219 c-46 -16 -96 -38 -111 -49 -16 -11 -33 -20 -38 -20 -14&#10;0 -129 -125 -149 -163 -72 -135 -76 -150 -81 -343 -3 -164 -2 -189 19 -265 12&#10;-46 30 -96 40 -111 11 -14 19 -30 19 -35 0 -22 78 -114 140 -163 65 -52 109&#10;-78 193 -114 51 -22 280 -22 317 -1 14 8 34 14 44 15 25 0 101 36 150 72 81&#10;58 173 211 184 304 4 36 1 44 -21 58 -23 16 -81 30 -170 43 -46 6 -72 -13 -81&#10;-62 -9 -49 -52 -123 -88 -153 -65 -55 -190 -80 -234 -47 -10 8 -28 15 -38 15&#10;-47 0 -131 85 -151 150 -4 14 -13 39 -20 55 -32 76 -44 255 -24 361 22 121 73&#10;184 179 224 87 33 144 30 226 -11 58 -30 73 -43 95 -84 15 -26 33 -51 40 -56&#10;14 -7 93 9 115 23 7 5 36 14 65 21 72 19 78 38 36 117 -34 64 -120 160 -144&#10;160 -7 0 -13 4 -13 9 0 11 -56 41 -75 41 -7 0 -32 9 -56 20 -37 16 -65 19&#10;-164 19 -105 -1 -130 -5 -204 -30z"/>
<path d="M6869 12223 c-11 -3 -21 -37 -38 -126 -12 -67 -28 -151 -36 -187 -8&#10;-36 -14 -76 -14 -90 1 -14 -6 -58 -15 -98 -9 -40 -16 -89 -16 -108 0 -20 -4&#10;-43 -10 -53 -5 -10 -14 -58 -20 -107 -6 -49 -17 -118 -24 -154 -16 -75 -36&#10;-222 -36 -267 0 -53 8 -63 53 -63 22 0 63 -6 91 -14 28 -8 92 -20 141 -27 180&#10;-23 201 -26 230 -37 17 -6 58 -13 93 -16 35 -3 87 -12 115 -20 62 -17 188 -28&#10;205 -17 16 9 42 111 42 160 0 21 -6 44 -14 50 -7 6 -42 14 -77 17 -35 3 -84&#10;12 -109 20 -25 7 -76 16 -115 20 -38 3 -90 12 -115 19 -25 8 -83 19 -130 25&#10;-49 7 -92 18 -102 27 -21 19 -23 51 -4 78 7 11 16 57 20 102 10 121 5 116 100&#10;109 45 -4 110 -13 146 -21 83 -19 261 -52 323 -61 30 -4 52 -2 61 5 8 7 19 49&#10;26 95 15 106 8 122 -58 131 -26 4 -56 9 -67 13 -11 3 -27 6 -35 7 -23 2 -150&#10;25 -195 35 -22 4 -76 14 -120 20 -132 20 -125 17 -125 51 0 35 39 188 52 205&#10;9 13 48 10 148 -10 41 -8 92 -15 113 -15 21 -1 48 -6 60 -13 12 -6 53 -15 92&#10;-19 123 -14 159 -20 182 -31 16 -8 27 -7 45 6 19 14 25 30 34 104 6 48 9 92 7&#10;98 -2 7 -16 14 -31 17 -15 3 -56 12 -92 21 -36 8 -80 15 -98 16 -19 0 -61 7&#10;-95 15 -117 27 -305 58 -461 75 -54 6 -102 12 -105 14 -3 1 -13 1 -22 -1z"/>
<path d="M4950 12051 c-8 -5 -46 -16 -85 -25 -63 -14 -96 -23 -205 -58 -19 -7&#10;-44 -12 -55 -13 -18 -1 -69 -15 -185 -50 -25 -7 -64 -19 -87 -26 -42 -12 -43&#10;-13 -43 -55 0 -24 9 -74 21 -111 11 -38 25 -86 30 -108 6 -22 17 -60 26 -85 9&#10;-25 18 -61 21 -80 3 -19 10 -44 17 -55 7 -11 15 -39 19 -62 3 -23 11 -54 18&#10;-70 6 -15 10 -33 9 -39 0 -6 6 -24 14 -40 8 -16 15 -40 15 -54 1 -14 8 -43 16&#10;-65 8 -22 22 -67 30 -100 9 -33 19 -69 24 -80 10 -25 28 -92 33 -125 2 -14 6&#10;-30 8 -37 2 -6 0 -12 -6 -13 -5 -2 -21 18 -35 44 -32 57 -60 86 -67 69 -3 -7&#10;-9 -13 -15 -13 -12 0 -286 -152 -343 -190 -22 -15 -83 -50 -136 -78 l-95 -50&#10;-32 48 c-18 27 -32 52 -32 55 0 4 -21 38 -46 77 -25 39 -43 76 -40 84 5 12 86&#10;67 136 92 14 6 57 32 95 56 39 25 74 45 78 46 5 0 32 15 60 33 29 19 73 46&#10;100 61 57 33 60 52 16 122 -62 98 -87 109 -148 62 -13 -10 -27 -18 -31 -18 -5&#10;0 -55 -28 -112 -63 -56 -34 -119 -70 -138 -80 -19 -10 -60 -33 -90 -52 -30&#10;-19 -62 -34 -71 -35 -19 0 -51 40 -97 121 -37 65 -41 100 -13 114 11 6 95 53&#10;186 105 92 52 200 113 240 135 118 65 124 76 80 141 -14 20 -25 43 -25 50 0 8&#10;-4 14 -9 14 -5 0 -12 11 -15 25 -5 21 -12 25 -41 25 -18 0 -36 -4 -39 -9 -3&#10;-5 -60 -39 -127 -77 -154 -88 -194 -111 -266 -154 -32 -19 -67 -39 -78 -45&#10;-11 -6 -40 -24 -65 -40 -25 -16 -72 -43 -105 -60 -121 -62 -135 -82 -98 -135&#10;10 -14 26 -40 35 -57 10 -18 26 -48 36 -66 10 -18 27 -46 37 -63 34 -51 45&#10;-68 58 -94 11 -23 91 -160 144 -248 13 -20 42 -71 65 -112 23 -41 54 -94 70&#10;-117 15 -23 28 -46 28 -51 0 -5 12 -27 28 -48 15 -21 33 -50 40 -64 30 -57 42&#10;-77 61 -94 18 -17 23 -15 113 35 51 28 116 67 145 85 28 19 54 34 57 34 3 0&#10;47 25 98 57 51 31 116 68 143 82 28 14 52 29 55 32 5 7 32 22 135 78 33 18 69&#10;44 80 57 15 17 31 24 55 24 19 0 53 9 76 19 23 10 60 22 82 26 66 11 70 22 40&#10;133 -53 199 -58 217 -67 237 -11 25 -31 110 -31 130 0 23 66 45 136 46 87 2&#10;114 -16 383 -247 123 -105 137 -114 187 -114 46 0 218 56 235 77 11 13 6 22&#10;-36 61 -28 25 -81 75 -120 112 -102 96 -185 160 -262 200 -72 38 -83 51 -58&#10;72 108 87 148 143 174 241 34 131 -89 345 -228 396 -61 22 -182 29 -211 12z&#10;m90 -256 c61 -32 89 -129 55 -195 -16 -32 -61 -62 -120 -80 -22 -7 -44 -16&#10;-50 -20 -5 -3 -30 -12 -55 -19 -25 -7 -59 -17 -75 -22 -17 -5 -52 -12 -77 -15&#10;l-46 -7 -12 44 c-6 24 -16 58 -23 74 -6 17 -11 61 -11 99 -1 67 0 70 24 72 14&#10;1 43 9 65 18 22 8 49 15 61 16 11 0 24 4 30 10 11 11 125 37 172 39 18 0 46&#10;-6 62 -14z"/>
<path d="M8104 11982 c-12 -7 -42 -70 -64 -132 -7 -19 -18 -48 -25 -65 -46&#10;-106 -65 -156 -65 -168 0 -8 -7 -20 -15 -27 -8 -7 -15 -21 -15 -31 0 -11 -4&#10;-27 -9 -37 -11 -21 -31 -70 -41 -97 -3 -11 -17 -42 -29 -70 -13 -27 -27 -59&#10;-31 -70 -5 -11 -29 -72 -55 -135 -42 -102 -95 -242 -112 -293 -6 -20 22 -57&#10;44 -57 7 0 43 -13 80 -30 36 -16 73 -30 82 -30 9 0 30 -8 46 -18 17 -10 44&#10;-22 60 -26 17 -4 48 -16 70 -25 99 -45 123 -54 170 -67 28 -8 97 -14 155 -14&#10;98 1 109 3 170 33 36 18 83 46 105 62 58 42 143 144 175 211 58 120 80 171 80&#10;183 0 7 6 25 14 39 20 37 40 190 33 243 -15 104 -25 140 -61 212 -41 86 -100&#10;145 -188 188 -29 15 -72 36 -96 48 -23 11 -48 21 -55 21 -7 0 -30 9 -52 20&#10;-22 11 -43 20 -48 20 -4 0 -34 12 -65 26 -113 51 -128 57 -186 75 -32 11 -59&#10;19 -60 19 0 0 -6 -4 -12 -8z m304 -353 c119 -48 144 -63 188 -117 30 -35 43&#10;-63 48 -96 10 -63 -3 -183 -24 -226 -9 -19 -23 -55 -30 -80 -38 -122 -148&#10;-258 -225 -280 -64 -18 -184 11 -322 77 -67 32 -67 45 -12 179 49 118 87 213&#10;89 219 3 15 33 84 45 107 8 14 15 34 15 45 0 10 9 33 20 51 11 18 20 37 20 41&#10;0 5 10 32 23 60 20 46 25 51 55 51 18 0 67 -14 110 -31z"/>
<path d="M9328 11388 c-21 -24 -46 -55 -54 -70 -8 -16 -19 -28 -24 -28 -6 0&#10;-10 -4 -10 -9 0 -9 -206 -299 -249 -351 -24 -29 -129 -172 -221 -302 -36 -50&#10;-80 -111 -97 -135 -31 -40 -45 -103 -25 -103 7 0 103 -68 177 -124 46 -36 105&#10;-76 112 -76 3 0 13 -7 22 -16 9 -8 50 -40 91 -71 41 -30 88 -65 104 -76 15&#10;-12 47 -35 70 -52 126 -89 166 -115 175 -115 16 0 121 139 121 161 0 15 -226&#10;195 -270 216 -8 3 -17 9 -20 13 -3 3 -58 43 -122 89 -64 46 -119 89 -122 97&#10;-6 15 7 37 90 154 79 112 86 116 135 78 40 -32 100 -77 201 -150 171 -124 235&#10;-168 247 -168 14 0 73 61 108 112 34 50 26 77 -34 116 -27 17 -105 73 -175&#10;124 -70 51 -152 111 -182 133 -39 27 -56 46 -56 61 0 24 51 105 97 154 26 27&#10;32 30 56 21 15 -6 53 -30 85 -53 31 -24 75 -55 97 -70 22 -15 74 -52 115 -82&#10;41 -30 107 -78 146 -105 l72 -51 47 48 c26 26 53 62 61 80 20 46 8 63 -97 138&#10;-45 32 -114 84 -153 114 -39 31 -145 109 -236 175 -91 65 -178 129 -193 142&#10;-16 13 -33 23 -39 23 -6 0 -28 -19 -50 -42z"/>
<path d="M2818 11033 c-18 -14 -77 -69 -130 -122 -108 -106 -113 -116 -75&#10;-184 13 -23 75 -133 138 -245 63 -112 130 -234 149 -272 20 -39 41 -75 48 -82&#10;13 -13 17 -48 6 -48 -4 0 -58 30 -121 68 -121 71 -188 110 -240 138 -18 10&#10;-33 21 -33 26 0 4 -4 8 -9 8 -9 0 -124 67 -171 100 -40 28 -100 60 -112 60&#10;-12 0 -87 -62 -165 -139 -29 -28 -56 -51 -61 -51 -4 0 -16 -16 -27 -36 -25&#10;-46 -24 -47 145 -222 74 -77 145 -153 158 -168 13 -15 134 -141 270 -280 179&#10;-184 253 -254 270 -254 14 0 48 25 93 68 56 53 70 72 65 87 -6 22 -50 69 -251&#10;275 -174 179 -287 308 -280 320 3 5 27 -4 53 -20 26 -16 61 -37 77 -46 17 -9&#10;75 -47 130 -84 55 -36 107 -69 115 -73 8 -4 57 -34 108 -67 52 -33 125 -76&#10;163 -96 l69 -36 33 24 c52 41 147 139 147 153 0 8 -5 17 -10 20 -6 3 -18 23&#10;-29 43 -18 37 -88 160 -196 347 -32 55 -69 120 -81 145 -13 25 -35 63 -49 85&#10;-30 49 -47 86 -41 92 10 11 49 -24 181 -162 307 -320 391 -405 402 -405 16 0&#10;147 120 156 143 4 12 2 28 -6 41 -17 25 -210 229 -422 444 -82 84 -211 216&#10;-285 293 -74 76 -138 139 -142 139 -3 0 -21 -12 -40 -27z"/>
<path d="M6130 10819 c-85 -4 -168 -9 -185 -13 -16 -3 -79 -10 -140 -16 -60&#10;-6 -139 -18 -175 -26 -36 -8 -96 -20 -135 -28 -38 -8 -88 -19 -110 -26 -22 -6&#10;-58 -15 -80 -20 -77 -16 -191 -48 -280 -80 -49 -17 -110 -38 -135 -46 -25 -8&#10;-54 -18 -65 -23 -11 -6 -54 -24 -95 -41 -90 -37 -110 -46 -222 -99 -48 -23&#10;-89 -41 -92 -39 -2 2 -12 -4 -22 -13 -11 -9 -30 -20 -44 -24 -14 -4 -32 -13&#10;-40 -20 -8 -7 -62 -40 -120 -74 -215 -127 -436 -274 -500 -333 -14 -13 -37&#10;-32 -51 -43 -24 -19 -98 -84 -228 -200 -123 -109 -268 -256 -355 -360 -176&#10;-211 -178 -214 -291 -375 -25 -36 -59 -83 -75 -105 -16 -22 -34 -49 -40 -60&#10;-6 -11 -19 -33 -29 -50 -11 -16 -43 -77 -73 -135 -29 -58 -58 -112 -64 -120&#10;-14 -17 -102 -192 -134 -265 -12 -27 -29 -63 -37 -80 -16 -30 -93 -242 -118&#10;-325 -8 -25 -23 -72 -34 -104 -12 -33 -21 -67 -21 -77 0 -10 -4 -20 -8 -23 -4&#10;-2 -9 -19 -10 -36 -1 -18 -6 -40 -11 -49 -7 -15 -22 -84 -67 -306 -16 -82 -31&#10;-190 -59 -420 -21 -173 -21 -641 0 -735 8 -36 15 -87 15 -115 0 -44 10 -111&#10;40 -265 4 -25 13 -72 19 -105 19 -112 30 -170 41 -210 6 -22 15 -56 20 -75 14&#10;-58 47 -166 57 -186 6 -10 13 -34 17 -52 3 -19 12 -48 20 -65 7 -18 19 -48 26&#10;-67 7 -19 16 -44 20 -55 5 -11 14 -38 21 -60 24 -81 219 -480 279 -570 15 -22&#10;37 -60 49 -85 12 -25 27 -54 34 -64 193 -308 519 -701 747 -901 57 -49 125&#10;-110 151 -135 27 -25 80 -67 119 -95 39 -27 99 -72 133 -99 71 -55 213 -154&#10;254 -176 16 -8 42 -25 58 -37 43 -30 185 -108 320 -176 140 -70 298 -139 420&#10;-184 22 -8 60 -23 85 -33 25 -10 92 -32 150 -50 58 -18 118 -39 133 -46 16 -8&#10;41 -14 55 -14 15 0 52 -7 82 -16 107 -30 126 -34 225 -49 55 -8 123 -19 150&#10;-25 28 -5 88 -14 135 -20 47 -5 123 -14 169 -20 131 -16 644 -12 791 5 240 28&#10;280 34 290 40 8 5 96 19 260 42 19 2 50 11 68 19 18 9 54 19 80 24 26 4 61 13&#10;77 19 17 6 75 24 130 41 55 17 123 39 150 50 170 64 303 119 392 162 56 26&#10;104 48 107 48 2 0 35 17 73 39 37 21 93 51 123 67 78 41 305 186 371 236 20&#10;16 41 28 47 28 7 0 12 4 12 9 0 4 19 21 42 36 23 16 119 92 213 171 209 175&#10;377 345 571 579 118 142 222 281 259 343 5 9 19 31 31 47 11 17 38 62 59 100&#10;21 39 41 72 44 75 22 19 188 339 241 465 12 28 27 61 34 75 8 14 19 43 26 65&#10;7 22 16 45 20 50 5 6 15 33 23 60 9 28 28 82 42 120 14 39 35 108 47 155 11&#10;47 27 97 34 112 8 15 14 42 14 60 1 18 8 51 16 73 9 22 20 65 25 95 5 30 14&#10;80 19 110 20 105 31 175 40 265 6 50 14 122 19 160 13 96 13 674 0 755 -6 36&#10;-15 106 -19 155 -16 162 -21 200 -30 220 -5 11 -11 38 -14 60 -16 107 -26 153&#10;-40 187 -9 21 -16 51 -16 68 0 17 -5 40 -11 52 -6 11 -21 61 -34 111 -28 112&#10;-51 183 -71 220 -7 16 -14 37 -14 48 0 11 -4 27 -9 37 -5 9 -17 35 -26 57 -10&#10;22 -25 58 -35 80 -10 22 -30 69 -45 105 -45 107 -97 215 -106 218 -5 2 -9 10&#10;-9 18 0 8 -19 47 -41 87 -23 40 -57 98 -75 130 -19 33 -34 61 -34 63 0 3 -73&#10;115 -131 200 -60 90 -106 152 -123 170 -12 11 -60 72 -108 135 -78 102 -334&#10;368 -498 517 -147 133 -306 256 -466 358 -36 23 -73 48 -82 56 -9 8 -42 29&#10;-72 47 -30 18 -80 47 -110 66 -67 42 -325 170 -490 243 -90 40 -227 90 -350&#10;127 -25 7 -58 18 -75 24 -61 22 -224 64 -370 96 -140 31 -178 37 -321 54 -84&#10;10 -156 21 -160 23 -16 10 -547 15 -704 7z m110 -244 c9 -11 9 -29 -4 -82 -22&#10;-95 -52 -289 -76 -483 -12 -96 -38 -254 -51 -305 -6 -22 -15 -78 -20 -124 -4&#10;-47 -15 -119 -23 -160 -8 -42 -20 -112 -26 -156 -6 -44 -20 -127 -30 -185 -11&#10;-58 -22 -125 -25 -150 -5 -49 -18 -128 -35 -230 -6 -36 -13 -85 -16 -110 -3&#10;-25 -11 -67 -19 -95 -8 -27 -17 -88 -21 -135 -3 -46 -13 -102 -20 -124 -8 -21&#10;-14 -55 -14 -75 0 -32 -11 -107 -40 -276 -5 -27 -18 -115 -30 -195 -13 -80&#10;-27 -167 -32 -195 -5 -27 -13 -77 -17 -110 -4 -33 -10 -67 -13 -75 -3 -8 -11&#10;-62 -18 -120 -6 -58 -16 -116 -21 -129 -6 -13 -14 -60 -20 -104 -9 -76 -9 -81&#10;13 -104 12 -13 33 -30 47 -37 15 -7 63 -34 107 -60 45 -25 91 -46 103 -46 12&#10;0 21 1 21 3 0 1 6 38 14 82 8 44 17 134 21 200 4 66 13 140 20 165 7 25 16&#10;101 20 170 3 69 10 157 15 195 5 39 14 122 20 185 5 63 14 165 19 225 5 61 14&#10;137 20 170 6 33 14 114 17 180 4 66 13 145 20 175 8 30 14 84 14 120 0 36 7&#10;119 15 185 8 66 15 152 15 191 0 39 6 89 14 110 7 22 16 102 20 179 4 77 12&#10;160 17 185 5 25 14 101 20 170 25 305 29 349 38 420 6 41 13 122 17 180 4 58&#10;13 130 20 160 8 30 14 81 14 114 0 38 3 57 10 50 24 -24 31 -475 48 -3004 l7&#10;-1035 38 1 c24 1 46 9 61 23 12 11 25 21 29 21 7 0 193 108 427 247 l165 99 3&#10;39 c2 22 -4 78 -13 125 -16 83 -23 121 -44 265 -6 39 -17 99 -25 135 -9 36&#10;-15 81 -16 100 0 19 -6 55 -14 80 -8 25 -22 97 -31 160 -8 63 -22 147 -30 185&#10;-23 117 -47 247 -56 310 -13 93 -27 175 -38 230 -6 28 -14 75 -17 105 -3 30&#10;-12 73 -19 95 -7 22 -16 71 -20 110 -4 38 -13 86 -20 105 -7 19 -16 67 -19&#10;105 -7 70 -26 196 -45 290 -6 28 -18 93 -27 145 -10 52 -21 118 -26 145 -5 28&#10;-13 79 -18 115 -8 63 -18 116 -40 230 -5 30 -22 120 -36 200 -14 80 -29 165&#10;-35 190 -10 47 -27 163 -31 215 l-3 30 135 -1 c189 0 366 -19 470 -49 25 -7&#10;70 -16 100 -20 30 -3 78 -12 105 -20 67 -19 171 -45 197 -50 19 -4 151 -43&#10;258 -76 19 -6 54 -19 77 -30 24 -10 47 -19 52 -19 8 0 42 -14 145 -58 52 -22&#10;367 -180 380 -191 6 -4 36 -22 66 -38 52 -29 121 -69 165 -96 28 -17 165 -109&#10;205 -138 32 -22 145 -113 289 -230 148 -122 548 -559 625 -684 10 -16 35 -52&#10;55 -80 20 -27 41 -57 46 -66 6 -9 32 -49 59 -89 26 -41 57 -90 68 -109 11 -20&#10;31 -56 44 -81 46 -83 149 -284 185 -365 74 -164 139 -324 139 -344 0 -9 4 -21&#10;10 -27 8 -8 41 -113 55 -179 5 -24 21 -90 40 -165 8 -30 21 -91 30 -135 23&#10;-124 36 -188 42 -210 2 -11 8 -65 13 -120 4 -55 13 -122 20 -150 14 -63 14&#10;-616 0 -700 -6 -33 -14 -107 -19 -165 -5 -58 -15 -132 -21 -165 -7 -33 -16&#10;-82 -20 -110 -18 -112 -31 -179 -45 -218 -8 -23 -15 -51 -15 -61 0 -21 -2 -29&#10;-46 -166 -37 -117 -62 -191 -73 -215 -19 -44 -51 -131 -51 -138 0 -8 -103&#10;-229 -123 -262 -6 -11 -28 -54 -48 -96 -39 -79 -60 -98 -88 -77 -33 25 -159&#10;129 -255 210 -54 46 -134 110 -176 143 -42 33 -101 81 -131 107 -30 26 -88 75&#10;-129 109 -108 88 -211 174 -299 249 -42 36 -123 103 -180 150 -270 221 -360&#10;296 -407 339 -28 25 -66 57 -85 70 -36 27 -217 178 -234 196 -5 6 -21 18 -35&#10;27 -21 14 -68 52 -230 192 -14 11 -45 37 -70 56 -25 19 -74 60 -110 92 -36 31&#10;-82 70 -102 85 -36 27 -320 265 -346 290 -28 27 -63 27 -116 0 -101 -52 -172&#10;-92 -201 -115 l-30 -22 40 -35 c22 -19 66 -54 99 -78 32 -23 104 -76 160 -117&#10;236 -174 361 -266 377 -275 9 -5 43 -30 75 -54 117 -88 223 -167 280 -206 31&#10;-22 112 -80 179 -130 68 -49 166 -121 219 -160 159 -115 170 -123 206 -150 36&#10;-27 187 -136 253 -183 21 -15 62 -45 92 -67 105 -78 241 -177 333 -243 145&#10;-104 197 -142 332 -241 69 -50 187 -137 263 -192 75 -55 137 -104 137 -109 0&#10;-30 -52 -11 -155 56 -28 17 -91 53 -140 80 -118 62 -125 66 -156 87 -14 9 -58&#10;34 -97 55 -39 20 -113 63 -165 95 -53 31 -98 57 -101 57 -4 0 -23 10 -44 23&#10;-20 13 -62 37 -92 54 -30 16 -71 39 -90 50 -19 12 -75 44 -125 73 -49 29 -108&#10;63 -130 75 -22 12 -60 33 -85 47 -25 14 -72 40 -105 58 -33 18 -67 38 -75 45&#10;-13 10 -206 120 -379 216 -25 14 -62 35 -81 47 -19 12 -48 28 -65 37 -16 9&#10;-39 21 -50 28 -11 7 -67 39 -125 71 -104 59 -253 144 -320 185 -19 12 -50 28&#10;-69 37 -18 8 -50 26 -70 38 -20 13 -56 34 -81 48 -51 29 -77 44 -210 120 -127&#10;73 -230 130 -260 145 -14 7 -43 24 -65 38 -22 14 -50 29 -62 35 -11 5 -24 14&#10;-28 19 -8 15 -48 14 -63 -1 -9 -9 -12 -107 -12 -381 0 -414 0 -416 70 -438 19&#10;-6 49 -17 67 -25 17 -8 37 -14 45 -14 7 0 25 -6 39 -14 15 -7 50 -21 78 -31&#10;28 -9 53 -21 56 -26 4 -5 15 -9 26 -9 10 0 38 -9 62 -19 23 -11 83 -35 132&#10;-54 50 -19 120 -47 157 -61 36 -14 73 -26 80 -26 8 0 18 -4 24 -9 5 -5 54 -26&#10;109 -46 55 -20 118 -46 141 -56 22 -10 44 -19 49 -19 10 0 109 -37 137 -51 10&#10;-5 46 -18 80 -30 35 -11 75 -27 90 -35 14 -8 33 -14 42 -14 8 0 37 -10 63 -21&#10;27 -12 57 -25 68 -30 24 -9 164 -63 305 -117 58 -22 157 -59 220 -82 63 -23&#10;133 -50 155 -59 22 -10 67 -28 100 -40 33 -13 74 -29 90 -37 17 -7 53 -20 80&#10;-29 28 -9 64 -22 80 -29 68 -29 141 -56 152 -56 7 0 27 -8 45 -18 18 -10 53&#10;-25 78 -34 72 -25 212 -79 245 -93 17 -7 73 -30 125 -50 52 -20 106 -41 120&#10;-47 14 -7 28 -12 32 -12 4 -1 12 -6 19 -13 10 -10 6 -22 -17 -55 -46 -68 -127&#10;-181 -146 -203 -9 -11 -30 -36 -45 -56 -157 -205 -385 -444 -565 -593 -165&#10;-137 -431 -334 -518 -384 -217 -125 -287 -163 -355 -196 -44 -20 -91 -43 -105&#10;-51 -104 -55 -530 -215 -572 -215 -10 0 -29 -6 -41 -14 -12 -7 -55 -19 -94&#10;-26 -40 -6 -75 -16 -79 -21 -3 -5 -18 -9 -34 -9 -30 0 -72 -8 -185 -37 -33 -8&#10;-98 -19 -145 -24 -47 -4 -112 -14 -145 -20 -41 -9 -186 -13 -450 -13 -340 0&#10;-398 2 -450 17 -32 9 -78 17 -100 17 -22 0 -68 7 -100 16 -33 9 -82 20 -110&#10;25 -27 4 -68 12 -90 18 -118 30 -189 52 -199 60 -6 4 -29 11 -52 14 -23 2 -56&#10;12 -75 20 -19 8 -47 18 -63 22 -39 8 -191 68 -286 111 -160 73 -481 247 -525&#10;284 -11 9 -28 20 -39 24 -10 3 -49 26 -87 51 -38 25 -102 66 -141 92 -40 26&#10;-78 52 -84 58 -7 5 -35 28 -64 50 -137 105 -267 209 -286 228 -12 12 -46 41&#10;-75 64 -61 48 -485 474 -539 542 -19 24 -63 78 -97 119 -35 42 -63 79 -63 83&#10;0 11 31 33 64 45 119 45 256 98 281 109 17 7 44 17 60 21 17 4 46 15 65 26 19&#10;10 40 18 47 18 6 0 38 11 70 24 32 13 83 33 113 44 176 65 229 85 266 103 22&#10;10 44 19 49 19 4 0 58 20 119 44 61 24 147 56 191 71 44 15 85 31 90 36 6 4&#10;33 15 60 24 28 9 59 20 70 25 19 9 109 43 280 107 39 15 75 30 80 34 6 4 26&#10;10 45 14 19 4 51 16 70 26 19 11 38 19 42 19 4 0 61 21 125 46 65 25 154 59&#10;198 76 44 17 127 48 185 70 126 49 230 88 325 123 39 14 117 44 175 67 120 47&#10;199 77 285 108 66 25 103 60 100 93 -1 12 -3 187 -4 390 -1 366 -1 367 -22&#10;367 -12 0 -87 -37 -168 -82 -80 -45 -167 -94 -192 -108 -26 -14 -77 -42 -113&#10;-62 -37 -21 -71 -38 -76 -38 -4 0 -10 -4 -12 -8 -2 -7 -83 -54 -356 -208 -21&#10;-11 -64 -35 -97 -53 -33 -18 -76 -43 -95 -56 -19 -12 -89 -53 -155 -90 -66&#10;-37 -136 -77 -155 -88 -19 -11 -53 -30 -75 -42 -22 -12 -56 -31 -75 -43 -19&#10;-12 -51 -30 -70 -40 -43 -23 -117 -65 -182 -103 -27 -16 -51 -29 -54 -29 -3 0&#10;-18 -8 -32 -19 -15 -10 -52 -32 -82 -48 -146 -80 -266 -147 -280 -159 -8 -6&#10;-44 -28 -80 -47 -60 -32 -151 -83 -240 -134 -19 -11 -57 -32 -85 -47 -27 -16&#10;-90 -52 -140 -81 -140 -81 -234 -134 -313 -177 -40 -21 -99 -55 -130 -75 -115&#10;-74 -202 -111 -202 -86 0 10 32 43 41 43 5 0 48 30 98 67 49 38 130 97 180&#10;133 51 36 124 90 164 121 40 30 99 74 132 97 33 23 92 66 132 95 39 28 123 89&#10;185 134 62 45 122 89 133 97 11 9 32 24 47 34 39 25 196 140 248 182 25 19 65&#10;49 90 65 24 17 108 77 186 135 78 58 211 155 295 215 84 61 198 143 253 183&#10;56 40 143 103 194 140 51 37 126 92 166 122 41 30 117 87 171 125 234 168 283&#10;206 289 222 10 24 -14 44 -135 112 -127 72 -145 77 -181 54 -28 -19 -197 -157&#10;-358 -293 -52 -44 -111 -94 -130 -110 -19 -16 -68 -58 -109 -92 -40 -35 -88&#10;-74 -106 -88 -18 -14 -99 -81 -181 -150 -81 -69 -188 -158 -238 -198 -50 -40&#10;-109 -91 -131 -113 -23 -21 -44 -39 -49 -39 -4 0 -52 -39 -108 -87 -55 -49&#10;-129 -110 -163 -138 -61 -49 -230 -189 -325 -270 -93 -79 -106 -91 -210 -173&#10;-58 -47 -125 -103 -150 -126 -44 -42 -111 -97 -175 -146 -18 -14 -73 -59 -122&#10;-100 -49 -41 -107 -88 -129 -105 -21 -16 -54 -44 -74 -61 -65 -57 -69 -55&#10;-116 36 -15 30 -33 62 -39 70 -6 8 -18 31 -25 50 -7 19 -30 71 -51 116 -20 44&#10;-43 100 -50 125 -7 24 -18 51 -24 59 -6 8 -26 60 -44 115 -18 55 -36 105 -41&#10;110 -4 6 -10 24 -14 40 -13 57 -24 100 -51 195 -14 52 -32 129 -40 170 -26&#10;140 -35 182 -42 192 -3 6 -12 79 -19 162 -7 83 -18 192 -24 241 -8 60 -10 164&#10;-7 315 6 227 38 597 53 622 5 7 11 36 15 63 23 172 31 223 41 245 11 26 43&#10;147 58 215 7 36 22 82 83 255 11 30 28 73 38 96 11 23 19 44 19 48 0 3 20 49&#10;45 102 25 52 45 98 45 101 0 3 26 58 57 122 115 231 364 606 522 787 20 22 65&#10;74 101 115 218 252 583 566 828 714 10 6 78 47 152 92 145 87 288 164 360 193&#10;25 10 80 34 123 54 42 20 83 36 91 36 7 0 19 7 26 15 7 8 21 15 31 15 11 0 38&#10;8 62 19 76 33 98 41 113 41 9 0 30 6 47 14 27 12 129 48 147 51 70 15 177 39&#10;215 50 28 8 77 17 110 20 33 4 83 13 110 20 78 21 166 35 226 36 30 1 65 5 79&#10;9 14 4 71 8 126 9 78 1 104 -2 114 -14z"/>
<path d="M10235 10594 c-149 -38 -275 -186 -275 -324 0 -80 15 -121 123 -338&#10;37 -74 67 -140 67 -146 0 -6 9 -22 20 -36 12 -16 20 -41 20 -68 0 -36 -5 -48&#10;-32 -73 -29 -26 -82 -49 -113 -49 -5 0 -31 10 -57 23 -60 29 -134 96 -152 139&#10;-8 18 -21 49 -30 70 -9 20 -16 45 -16 57 0 22 47 128 61 137 23 14 3 47 -65&#10;108 -40 36 -78 66 -84 66 -5 0 -13 7 -16 17 -16 40 -105 -90 -131 -192 -49&#10;-189 -8 -312 160 -481 93 -94 176 -155 247 -180 56 -20 205 -19 254 2 40 17&#10;145 94 176 129 60 67 95 220 67 292 -6 15 -12 35 -14 43 -3 17 -59 142 -77&#10;175 -7 11 -36 70 -66 130 -63 127 -75 186 -45 224 24 29 91 33 139 8 42 -22&#10;112 -93 135 -139 23 -45 25 -115 4 -154 -27 -52 -20 -71 56 -142 39 -37 78&#10;-71 86 -75 24 -14 58 0 74 30 8 16 20 34 26 41 7 7 16 25 19 40 3 15 13 42 21&#10;61 17 37 13 135 -6 154 -6 6 -11 19 -11 29 0 25 -42 108 -74 146 -15 16 -26&#10;34 -26 40 0 6 -36 44 -81 85 -105 98 -200 146 -296 152 -37 2 -77 2 -88 -1z"/>
<path d="M2155 9557 c-43 -17 -197 -96 -215 -111 -8 -6 -28 -18 -45 -26 -47&#10;-23 -237 -219 -261 -270 -79 -165 -83 -184 -87 -410 -2 -155 -6 -202 -19 -230&#10;-9 -19 -38 -89 -63 -155 -25 -66 -55 -140 -65 -165 -11 -25 -24 -65 -31 -90&#10;-6 -25 -14 -49 -18 -55 -10 -15 -28 -75 -36 -120 -4 -22 -11 -45 -15 -50 -9&#10;-11 -29 -86 -62 -230 -34 -151 -59 -176 -102 -102 -45 77 -34 221 30 372 7 17&#10;20 53 29 80 48 148 57 172 69 200 7 17 19 51 26 78 7 26 17 50 21 53 5 3 9 12&#10;9 20 0 8 9 33 19 57 11 23 25 60 31 82 7 22 22 58 32 79 36 71 34 327 -2 371&#10;-5 6 -16 33 -25 60 -9 28 -20 59 -25 70 -4 11 -15 45 -24 76 -20 68 -41 99&#10;-66 99 -20 0 -60 -46 -79 -90 -6 -14 -24 -45 -39 -70 -15 -25 -34 -61 -42 -80&#10;-7 -19 -19 -42 -26 -50 -21 -25 -84 -154 -84 -172 0 -9 -4 -19 -9 -22 -10 -6&#10;-52 -93 -96 -196 -15 -36 -36 -83 -46 -106 -11 -22 -19 -46 -19 -53 0 -7 -5&#10;-22 -12 -34 -18 -33 -47 -147 -48 -187 0 -20 -6 -42 -12 -48 -17 -17 -18 -249&#10;-2 -283 7 -13 20 -55 29 -93 24 -93 78 -176 201 -309 6 -7 48 -46 93 -87 l83&#10;-75 -6 -90 c-14 -195 -30 -205 -140 -93 -94 94 -106 113 -106 165 0 94 -68&#10;175 -148 176 -50 2 -116 -31 -138 -67 -26 -45 -24 -136 5 -172 32 -41 78 -63&#10;133 -64 65 0 95 -14 148 -68 102 -105 170 -214 186 -299 4 -20 8 -161 10 -312&#10;3 -280 15 -535 32 -671 6 -41 13 -109 17 -150 4 -41 14 -87 21 -102 8 -15 14&#10;-43 14 -63 0 -33 -2 -35 -34 -35 -28 0 -42 8 -75 46 -52 60 -70 119 -81 282&#10;-6 74 -13 139 -17 145 -3 6 -10 139 -14 296 -5 210 -12 301 -23 344 -9 32 -16&#10;64 -16 72 0 13 -29 80 -54 124 -14 24 -109 132 -228 260 -72 78 -84 81 -114&#10;36 -47 -71 -70 -947 -31 -1125 22 -97 68 -232 86 -255 9 -11 24 -36 34 -55 37&#10;-73 205 -228 290 -266 18 -8 39 -18 47 -23 16 -10 209 -71 225 -71 23 -1 54&#10;-40 66 -81 31 -108 42 -170 31 -181 -13 -13 -88 0 -103 18 -6 8 -22 14 -35 14&#10;-38 0 -131 48 -152 77 -11 16 -23 39 -27 53 -34 113 -179 148 -256 62 -16 -18&#10;-29 -41 -29 -52 0 -10 -4 -22 -10 -25 -16 -10 -11 -47 13 -94 36 -72 133 -113&#10;181 -76 25 19 100 19 134 1 15 -8 61 -31 102 -52 93 -46 139 -80 215 -160 58&#10;-61 83 -100 123 -194 11 -25 29 -66 41 -92 11 -26 21 -52 21 -58 0 -6 4 -19&#10;10 -30 5 -11 15 -29 20 -40 6 -11 20 -46 31 -78 23 -62 136 -293 166 -339 28&#10;-42 42 -65 55 -93 7 -14 21 -38 33 -55 22 -33 20 -29 93 -156 28 -51 52 -96&#10;52 -101 0 -13 -57 -9 -93 6 -45 19 -126 99 -155 153 -13 26 -40 68 -58 95 -19&#10;26 -34 53 -34 59 0 6 -9 23 -19 37 -10 15 -47 86 -81 157 -72 151 -64 134&#10;-131 261 -28 54 -62 113 -75 131 -13 17 -24 35 -24 39 0 8 -10 19 -63 74 -39&#10;41 -56 52 -117 81 -67 32 -70 34 -135 67 -166 85 -210 97 -235 67 -16 -20 -6&#10;-120 16 -153 9 -13 13 -30 10 -37 -3 -8 -1 -17 3 -20 5 -2 12 -17 16 -32 3&#10;-15 15 -46 26 -70 10 -23 19 -47 19 -52 0 -6 13 -40 30 -76 16 -36 30 -69 30&#10;-74 0 -5 10 -29 21 -53 12 -23 27 -56 34 -73 56 -126 72 -161 113 -245 53&#10;-112 108 -195 171 -263 53 -56 186 -161 228 -179 15 -6 35 -17 43 -24 8 -6 26&#10;-14 40 -17 14 -3 43 -12 65 -20 59 -22 212 -30 350 -19 91 8 123 7 137 -2 24&#10;-17 148 -185 148 -201 0 -23 -60 -35 -172 -35 -119 0 -131 4 -196 61 -53 46&#10;-102 57 -160 34 -61 -25 -92 -71 -92 -137 0 -29 3 -62 6 -74 6 -22 109 -94&#10;135 -94 28 0 94 38 129 74 l35 36 92 0 c51 0 102 -4 115 -9 13 -5 57 -15 98&#10;-22 41 -6 85 -18 97 -25 12 -8 28 -14 34 -14 32 0 126 -78 287 -239 234 -233&#10;379 -360 540 -475 181 -130 264 -196 259 -210 -8 -23 -52 -37 -107 -33 -69 6&#10;-147 42 -232 110 -246 194 -289 230 -443 377 -109 104 -168 150 -260 200 -59&#10;33 -62 33 -230 41 -93 4 -182 10 -197 14 -39 10 -138 -13 -138 -32 0 -21 34&#10;-75 99 -158 59 -74 524 -545 606 -614 98 -82 352 -191 445 -191 16 0 41 -5 56&#10;-10 19 -7 43 -8 78 -1 28 6 90 17 137 25 83 14 132 34 321 132 48 25 99 18&#10;158 -19 19 -13 45 -28 58 -35 54 -29 68 -38 84 -51 28 -22 65 -6 78 34 6 19 9&#10;39 6 43 -5 9 -30 25 -181 115 l-69 42 -1 260 c-1 215 -4 266 -17 295 -9 19&#10;-19 50 -22 68 -3 19 -12 48 -20 65 -7 18 -22 52 -32 77 -22 52 -114 153 -197&#10;217 -32 25 -69 54 -80 65 -12 11 -62 52 -112 92 -49 40 -106 91 -125 112 -82&#10;93 -135 158 -139 168 -2 6 -19 26 -37 44 -25 24 -42 32 -69 32 -25 0 -35 -4&#10;-35 -15 0 -9 -6 -26 -14 -38 -8 -12 -19 -48 -26 -79 -6 -32 -16 -60 -21 -63&#10;-12 -8 -12 -252 0 -260 5 -3 13 -20 16 -38 22 -97 94 -187 276 -343 82 -70&#10;160 -134 172 -143 12 -8 56 -43 98 -78 43 -35 80 -63 84 -63 8 0 49 -48 80&#10;-94 13 -19 26 -57 30 -85 6 -45 5 -51 -11 -51 -9 0 -58 28 -108 62 -50 34&#10;-105 71 -122 83 -34 23 -97 74 -194 154 -36 30 -71 60 -78 65 -115 91 -412&#10;391 -445 450 -18 32 -32 81 -42 145 -14 87 -14 106 -1 184 18 98 30 123 67&#10;136 15 5 45 26 68 46 31 28 41 46 47 81 8 59 0 88 -39 128 -68 71 -150 69&#10;-226 -7 -35 -34 -41 -46 -41 -83 0 -26 9 -57 21 -79 19 -31 21 -46 16 -102 -4&#10;-36 -11 -71 -17 -78 -6 -7 -17 -35 -25 -63 -9 -28 -20 -54 -26 -58 -15 -9 -73&#10;49 -120 119 -41 62 -51 115 -25 136 8 7 18 25 21 41 4 16 14 39 24 52 10 13&#10;22 34 26 48 4 14 15 43 25 65 16 37 22 53 48 130 11 29 18 60 41 158 13 57 14&#10;193 2 233 -5 16 -17 56 -27 89 -9 33 -30 80 -44 106 -15 25 -35 63 -45 85 -10&#10;21 -24 46 -31 54 -18 22 -127 230 -141 270 -7 19 -13 42 -13 50 0 8 -9 33 -20&#10;55 -11 22 -19 48 -20 58 0 10 -7 31 -15 47 -9 17 -15 33 -15 37 0 5 -6 23 -12&#10;41 -15 39 -50 52 -87 31 -35 -20 -125 -140 -160 -214 -86 -180 -76 -326 37&#10;-565 19 -41 39 -79 44 -85 13 -14 48 -72 73 -120 12 -22 27 -51 35 -65 7 -14&#10;17 -32 21 -40 28 -52 60 -111 81 -151 14 -25 33 -72 43 -104 14 -49 15 -66 5&#10;-100 -22 -76 -34 -86 -66 -58 -21 18 -114 148 -114 159 0 3 -14 25 -30 49 -17&#10;24 -30 49 -30 56 0 7 -6 20 -14 28 -13 16 -60 105 -97 186 -10 22 -38 83 -62&#10;135 -24 52 -49 112 -56 133 -7 20 -17 37 -22 37 -5 0 -9 9 -9 20 0 12 -9 40&#10;-20 62 -11 23 -20 46 -20 50 0 5 -13 38 -30 73 -25 54 -30 76 -30 143 0 88 29&#10;187 81 279 44 76 80 103 139 103 172 0 224 213 70 286 -46 22 -76 20 -140 -6&#10;-39 -16 -70 -82 -70 -146 0 -57 -34 -120 -103 -191 -61 -63 -79 -59 -105 25&#10;-39 129 -36 203 8 217 24 8 155 120 211 180 21 22 58 67 82 100 25 33 54 71&#10;65 85 47 61 81 147 98 245 14 87 15 113 4 198 -18 139 -18 571 0 674 13 77 12&#10;84 -5 103 -19 21 -50 27 -60 10 -3 -5 -14 -10 -24 -10 -40 0 -158 -77 -231&#10;-150 -73 -73 -128 -163 -159 -259 -16 -49 -13 -264 6 -496 26 -311 21 -396&#10;-23 -472 -10 -18 -26 -33 -34 -33 -19 0 -40 53 -40 101 0 20 -6 58 -14 85 -34&#10;117 -60 804 -36 928 22 111 102 240 216 349 72 68 91 74 178 52 69 -17 73 -17&#10;110 0 82 39 117 132 80 211 -28 59 -57 74 -138 74 -66 0 -75 -2 -99 -27 -14&#10;-16 -38 -54 -52 -86 -31 -66 -60 -92 -168 -142 -101 -49 -111 -45 -104 43 3&#10;37 12 96 19 132 l14 65 64 22 c36 12 75 22 87 22 12 1 34 6 50 13 15 6 30 12&#10;33 13 103 35 294 140 370 204 110 92 158 174 220 376 20 67 47 145 65 190 33&#10;81 125 273 160 330 45 75 57 108 46 132 -13 27 -73 46 -108 32 -13 -5 -50 -9&#10;-80 -9 -56 0 -156 -27 -222 -59 -45 -22 -168 -136 -188 -175 -9 -17 -19 -33&#10;-23 -36 -13 -8 -80 -144 -80 -160 0 -9 -4 -20 -9 -25 -6 -6 -17 -36 -25 -69&#10;-9 -32 -20 -63 -24 -70 -5 -6 -13 -29 -17 -51 -4 -22 -13 -51 -20 -65 -7 -14&#10;-18 -45 -25 -70 -6 -25 -20 -68 -31 -95 -10 -28 -19 -58 -19 -67 0 -9 -4 -20&#10;-10 -23 -5 -3 -10 -13 -10 -21 0 -27 -60 -100 -95 -117 -54 -26 -68 -14 -60&#10;47 4 28 11 56 15 61 4 6 10 26 13 45 7 46 17 91 24 110 10 25 12 33 28 102 8&#10;37 19 76 25 85 5 10 19 50 29 88 25 87 47 152 64 185 8 14 20 45 27 70 8 25&#10;17 47 21 50 3 3 14 28 23 57 9 28 24 57 32 63 7 7 14 19 14 27 0 27 38 69 127&#10;143 261 216 375 410 437 741 26 138 19 211 -18 208 -6 0 -24 -6 -41 -12z&#10;m-149 -339 c-7 -68 -25 -114 -90 -233 -36 -65 -52 -82 -105 -117 -67 -42 -74&#10;-39 -69 30 8 104 115 283 210 352 22 17 45 30 51 30 6 0 7 -23 3 -62z m-744&#10;-425 c11 -10 18 -30 18 -54 0 -36 -46 -195 -75 -254 -31 -65 -65 -144 -65&#10;-150 0 -4 -6 -21 -14 -38 -7 -18 -19 -52 -27 -77 -7 -25 -16 -50 -20 -56 -5&#10;-5 -15 -37 -24 -69 -8 -33 -21 -78 -29 -100 -8 -22 -20 -62 -28 -88 -18 -69&#10;-41 -78 -62 -27 -22 56 -21 163 4 233 11 31 20 65 20 75 0 9 7 28 16 40 8 12&#10;13 26 9 31 -3 5 -1 12 5 16 5 3 10 12 10 20 0 7 20 56 44 107 24 51 49 109 56&#10;128 19 50 132 280 138 280 3 0 14 -7 24 -17z m856 -420 c7 -13 2 -34 -17 -74&#10;-14 -31 -34 -76 -44 -100 -11 -24 -26 -59 -34 -77 -8 -18 -17 -48 -20 -67 -3&#10;-19 -12 -40 -19 -46 -8 -6 -14 -18 -14 -26 0 -14 -18 -55 -83 -193 -19 -40&#10;-53 -87 -89 -123 -75 -76 -96 -65 -63 31 8 23 19 50 24 60 6 9 17 37 25 62 8&#10;25 29 83 46 130 17 47 36 101 42 120 12 43 29 83 76 179 27 53 47 80 77 101&#10;64 43 80 47 93 23z m-1381 -1711 c7 -4 20 -28 29 -52 15 -37 19 -101 25 -375&#10;3 -181 11 -352 17 -380 6 -27 11 -81 11 -118 1 -59 -1 -68 -16 -65 -16 3 -107&#10;158 -98 166 2 2 -1 16 -6 31 -18 46 -30 451 -18 621 5 85 12 161 14 168 5 14&#10;24 16 42 4z m945 -194 c-1 -73 3 -195 10 -270 11 -135 2 -284 -22 -328 -4 -9&#10;-10 -29 -14 -45 -10 -42 -32 -69 -51 -62 -13 5 -15 32 -15 171 0 91 -4 176&#10;-10 190 -5 14 -10 105 -12 203 -3 176 -2 179 24 223 27 48 66 76 82 60 6 -6 9&#10;-68 8 -142z m288 -1700 c12 -24 28 -59 35 -78 7 -19 54 -120 105 -225 129&#10;-265 115 -226 145 -417 4 -28 -14 -51 -32 -40 -12 8 -31 42 -155 282 -145 280&#10;-158 307 -158 328 0 11 -5 24 -11 28 -16 9 2 125 24 152 15 20 24 15 47 -30z&#10;m-878 -336 c63 -42 75 -63 217 -377 39 -85 70 -145 86 -165 7 -8 15 -22 18&#10;-30 4 -8 24 -44 46 -80 94 -157 108 -200 62 -200 -25 0 -147 120 -193 190 -40&#10;62 -90 153 -106 196 -7 16 -16 36 -21 44 -5 8 -19 38 -31 65 -11 28 -30 68&#10;-41 90 -10 22 -19 48 -19 57 0 9 -4 20 -10 23 -5 3 -10 16 -10 29 0 12 -4 26&#10;-10 32 -13 13 -50 126 -44 136 8 13 27 9 56 -10z m1889 -1259 c9 -10 76 -74&#10;150 -143 209 -194 336 -324 344 -350 4 -14 12 -31 18 -39 6 -7 17 -29 23 -48&#10;10 -28 10 -35 -2 -40 -18 -7 -53 16 -136 91 -37 34 -99 88 -138 121 -39 33&#10;-121 107 -181 165 -113 107 -111 104 -136 207 -12 49 26 72 58 36z m-647 -659&#10;c37 -13 79 -45 182 -143 210 -197 352 -319 454 -389 76 -53 78 -72 8 -72 -126&#10;0 -287 115 -572 409 -39 40 -95 96 -123 124 -84 80 -63 109 51 71z"/>
<path d="M10603 9554 c-11 -29 5 -229 21 -269 9 -20 16 -48 16 -61 0 -48 79&#10;-233 138 -324 38 -58 224 -251 305 -314 46 -36 117 -133 117 -159 0 -7 6 -21&#10;14 -32 8 -11 21 -45 30 -75 9 -30 22 -68 30 -85 30 -62 116 -321 116 -348 0&#10;-10 6 -28 14 -40 8 -12 17 -40 21 -62 4 -22 13 -53 20 -70 7 -16 16 -43 18&#10;-60 3 -16 11 -63 18 -102 7 -40 10 -75 7 -78 -13 -13 -60 10 -98 46 -42 41&#10;-85 124 -96 187 -4 20 -12 44 -19 52 -6 8 -18 42 -25 75 -7 33 -21 77 -31 97&#10;-11 21 -19 45 -19 54 0 23 -85 244 -110 284 -78 130 -149 220 -172 220 -5 0&#10;-26 11 -47 24 -67 43 -178 74 -287 81 -97 6 -102 5 -129 -18 -27 -23 -28 -26&#10;-15 -56 7 -18 29 -58 49 -89 47 -74 130 -245 161 -332 7 -19 18 -48 25 -65 8&#10;-16 17 -43 20 -60 15 -61 49 -161 62 -182 8 -12 12 -27 9 -32 -4 -5 -2 -12 4&#10;-16 5 -3 22 -30 36 -60 15 -30 48 -75 73 -100 49 -49 221 -168 262 -180 13 -4&#10;31 -13 39 -19 8 -7 33 -18 55 -25 22 -7 59 -21 82 -32 24 -10 52 -19 62 -19&#10;11 0 30 -4 43 -9 13 -5 42 -14 65 -20 40 -11 43 -15 57 -64 19 -74 38 -205 31&#10;-217 -3 -5 -15 -10 -25 -10 -18 0 -70 19 -80 30 -3 3 -26 16 -52 29 -63 31&#10;-115 83 -126 125 -6 19 -25 51 -43 70 -33 37 -33 37 -107 34 -73 -3 -76 -4&#10;-105 -41 -43 -53 -50 -109 -20 -170 18 -37 34 -53 68 -69 45 -22 45 -22 118&#10;-4 62 16 78 16 98 6 50 -27 150 -125 192 -189 58 -88 54 -79 88 -172 29 -81&#10;29 -84 28 -288 0 -113 -5 -242 -10 -286 -5 -44 -14 -134 -19 -200 -10 -129&#10;-43 -355 -54 -374 -15 -23 -42 -9 -71 37 l-30 47 2 160 c2 88 8 183 15 210 6&#10;28 13 150 15 282 4 225 3 235 -21 303 -44 128 -130 224 -284 318 -99 61 -169&#10;71 -185 28 -7 -18 -1 -115 20 -313 13 -125 14 -163 4 -214 -16 -80 -31 -332&#10;-24 -406 5 -66 60 -205 106 -273 28 -40 130 -164 164 -198 7 -7 13 -18 13 -23&#10;0 -5 6 -9 13 -9 8 0 24 -12 38 -26 13 -15 57 -53 97 -87 l74 -60 -6 -56 c-4&#10;-31 -13 -72 -20 -91 -7 -19 -18 -48 -22 -65 -17 -54 -33 -46 -150 80 -24 25&#10;-30 42 -35 105 -7 82 -33 139 -71 157 -59 27 -78 32 -105 24 -87 -26 -124 -68&#10;-131 -148 -4 -46 -1 -58 22 -88 15 -19 33 -35 40 -35 8 0 19 -7 26 -15 8 -10&#10;31 -15 69 -15 60 -1 102 -25 116 -69 3 -11 10 -21 14 -21 12 0 68 -122 85&#10;-186 9 -33 16 -76 16 -95 0 -35 -34 -155 -49 -173 -5 -6 -14 -31 -21 -56 -12&#10;-46 -23 -75 -66 -166 -13 -28 -24 -55 -24 -61 0 -5 -11 -31 -24 -59 -13 -27&#10;-36 -76 -51 -109 -14 -33 -30 -67 -36 -75 -5 -8 -20 -37 -32 -65 -26 -54 -126&#10;-221 -164 -271 -13 -17 -23 -34 -23 -38 0 -14 -62 -91 -73 -91 -7 0 -22 20&#10;-35 45 -42 81 -23 143 113 380 43 74 94 164 113 200 151 283 156 297 156 451&#10;1 73 -3 121 -10 130 -7 8 -18 34 -25 59 -7 25 -18 52 -24 60 -6 8 -24 37 -40&#10;65 -44 76 -112 145 -145 145 -28 0 -60 -26 -60 -51 -1 -8 -8 -32 -16 -54 -9&#10;-22 -17 -49 -19 -60 -12 -59 -104 -275 -142 -334 -13 -19 -23 -38 -23 -43 0&#10;-5 -11 -24 -24 -41 -21 -28 -127 -236 -133 -262 -1 -5 -9 -35 -18 -65 -19 -70&#10;-19 -178 1 -260 9 -36 18 -76 19 -90 6 -43 78 -248 100 -285 25 -40 85 -158&#10;85 -167 0 -14 -64 -107 -109 -157 -24 -27 -44 -42 -53 -39 -8 4 -22 28 -32 55&#10;-9 26 -26 72 -38 101 l-20 53 21 49 c31 71 29 159 -4 198 -31 38 -99 65 -140&#10;58 -81 -16 -143 -94 -131 -169 8 -51 33 -97 51 -97 8 0 15 -4 15 -9 0 -5 12&#10;-14 28 -20 52 -20 82 -58 82 -105 0 -14 5 -28 10 -31 13 -8 13 -156 1 -187 -5&#10;-13 -15 -51 -22 -86 -12 -56 -21 -71 -90 -150 -94 -106 -273 -281 -393 -382&#10;-49 -41 -99 -85 -111 -97 -12 -13 -25 -23 -29 -23 -4 0 -44 -28 -89 -63 -45&#10;-34 -118 -87 -162 -117 -44 -29 -83 -59 -87 -64 -5 -7 -13 -5 -24 6 -17 16&#10;-16 20 2 74 24 72 45 100 125 168 35 31 72 63 82 71 10 9 68 54 130 101 341&#10;260 430 396 425 650 -1 77 -21 181 -37 197 -6 6 -11 21 -11 33 0 11 -11 32&#10;-24 46 -30 34 -66 27 -103 -18 -16 -18 -41 -50 -58 -70 -16 -20 -36 -43 -42&#10;-50 -7 -7 -13 -17 -13 -22 0 -13 -183 -185 -262 -247 -201 -156 -289 -247&#10;-325 -335 -8 -19 -24 -54 -34 -77 -24 -53 -45 -281 -40 -428 9 -239 11 -227&#10;-29 -247 -98 -48 -225 -134 -228 -154 -3 -24 33 -74 55 -74 8 0 49 20 90 45&#10;40 25 76 45 79 45 3 0 18 8 32 19 42 28 76 33 118 15 22 -9 41 -19 44 -23 5&#10;-7 82 -45 185 -91 22 -10 74 -23 115 -30 41 -6 99 -15 128 -20 33 -6 69 -6 95&#10;0 23 5 75 16 116 25 61 13 264 96 281 115 3 3 23 17 45 31 22 15 78 63 125&#10;108 46 44 85 81 86 81 4 0 207 208 266 272 37 40 87 94 111 119 58 60 125 152&#10;142 194 13 28 12 35 0 45 -18 15 -19 15 -240 6 -187 -7 -263 -18 -305 -44&#10;-112 -68 -143 -93 -315 -248 -166 -150 -440 -375 -479 -392 -116 -54 -118 -55&#10;-174 -49 -30 3 -62 13 -70 21 -14 14 -14 18 4 37 10 12 46 40 79 62 33 22 92&#10;64 132 94 39 29 76 53 80 53 5 0 22 14 39 31 16 17 56 52 89 77 33 26 87 71&#10;119 102 121 112 303 289 371 359 76 79 86 86 200 136 57 25 175 46 299 52 l99&#10;4 41 -39 c23 -22 58 -48 79 -57 36 -17 41 -17 73 -1 19 9 39 16 44 16 15 0 60&#10;50 60 66 0 8 5 24 11 35 15 28 -8 118 -35 141 -36 29 -104 51 -140 44 -18 -4&#10;-46 -20 -62 -37 -55 -57 -92 -69 -213 -69 -118 0 -161 10 -161 36 0 18 99 160&#10;134 192 20 19 27 20 155 10 152 -12 327 1 364 27 12 8 30 15 41 15 16 0 109&#10;47 141 72 123 94 233 205 265 269 10 19 26 41 34 48 9 8 16 17 16 22 0 5 19&#10;49 41 97 23 48 57 121 76 162 19 41 43 93 54 116 10 22 19 45 19 50 0 6 9 29&#10;20 52 11 22 20 50 20 60 0 11 6 25 14 31 8 6 17 32 21 58 4 25 10 53 15 62 22&#10;42 41 92 46 123 3 18 12 50 20 72 13 34 13 41 -1 62 -9 15 -25 24 -41 24 -14&#10;0 -84 -29 -157 -64 -73 -35 -143 -67 -155 -71 -83 -25 -211 -161 -275 -291&#10;-53 -109 -241 -470 -253 -489 -8 -11 -14 -25 -14 -31 0 -13 -87 -148 -134&#10;-208 -39 -51 -111 -96 -152 -96 -18 0 -35 4 -38 8 -4 8 45 95 103 182 28 43&#10;107 190 166 310 78 158 77 158 112 225 39 77 69 143 78 175 4 14 18 49 31 78&#10;13 29 24 58 24 65 0 6 14 40 31 75 24 48 56 86 137 162 58 55 113 100 122 100&#10;10 0 23 7 30 15 7 8 18 15 24 15 6 0 38 14 69 30 65 33 131 40 163 15 57 -43&#10;168 14 193 99 11 39 11 54 1 86 -27 82 -109 127 -187 104 -56 -17 -77 -38&#10;-116 -115 -34 -67 -60 -87 -139 -110 -24 -7 -52 -19 -63 -25 -33 -21 -101 -28&#10;-108 -12 -5 14 5 70 24 134 5 17 9 39 9 50 0 20 48 74 66 74 5 0 51 13 102 29&#10;173 55 263 109 380 228 45 47 82 93 82 103 0 11 4 22 10 25 15 9 78 152 86&#10;193 4 20 12 48 19 62 7 14 18 113 26 223 10 156 10 224 1 325 -7 70 -12 184&#10;-12 253 0 77 -5 144 -14 175 -8 27 -17 76 -20 109 -5 41 -13 67 -28 82 -12 13&#10;-25 23 -28 23 -7 0 -160 -164 -236 -252 -44 -51 -94 -132 -94 -151 0 -9 -4&#10;-18 -9 -21 -14 -9 -30 -149 -36 -316 -3 -85 -10 -182 -15 -215 -5 -33 -13&#10;-145 -18 -250 -4 -104 -13 -199 -19 -210 -6 -11 -17 -47 -24 -80 -17 -76 -74&#10;-145 -121 -145 l-30 0 7 73 c3 39 11 97 17 127 36 193 60 590 52 852 -6 178&#10;-4 214 11 265 28 98 56 155 112 228 96 128 135 155 224 155 62 0 125 37 135&#10;78 4 15 14 39 22 54 14 24 14 29 0 50 -8 13 -18 35 -21 49 -10 38 -70 72 -129&#10;73 -96 0 -157 -74 -158 -192 0 -40 -5 -48 -87 -132 -69 -70 -94 -90 -115 -90&#10;-25 0 -28 4 -28 35 0 18 -7 60 -15 92 -29 110 -26 116 123 242 50 43 182 192&#10;182 205 0 4 8 18 17 33 9 14 30 62 46 107 26 71 30 99 34 229 4 99 1 168 -7&#10;210 -15 72 -55 209 -75 252 -8 17 -34 75 -60 129 -25 55 -48 110 -51 123 -4&#10;13 -10 25 -14 28 -7 5 -39 65 -79 155 -12 25 -25 52 -29 60 -21 36 -33 60 -74&#10;140 -45 90 -91 155 -115 164 -40 16 -70 -28 -99 -144 -10 -41 -24 -80 -30 -87&#10;-6 -7 -15 -29 -19 -50 -4 -20 -13 -50 -21 -65 -9 -18 -14 -61 -14 -129 0 -122&#10;7 -147 128 -459 33 -85 63 -164 67 -175 57 -157 75 -212 75 -223 0 -8 6 -28&#10;14 -45 30 -71 38 -116 35 -205 -4 -87 -5 -93 -36 -123 -38 -39 -59 -33 -69 18&#10;-4 21 -10 43 -14 48 -4 6 -10 28 -13 50 -4 22 -11 58 -16 80 -5 22 -19 79 -30&#10;128 -12 48 -25 95 -30 105 -5 9 -16 44 -26 77 -16 53 -27 81 -66 170 -8 19&#10;-21 56 -64 180 -10 28 -23 61 -30 75 -22 45 -29 102 -30 255 0 86 -5 165 -12&#10;185 -7 19 -17 61 -23 93 -16 81 -84 210 -148 278 -57 62 -158 141 -232 182&#10;-213 116 -255 132 -267 101z m317 -352 c43 -44 83 -96 94 -122 10 -25 28 -64&#10;39 -88 10 -24 20 -67 21 -95 1 -45 -2 -52 -20 -55 -51 -7 -224 226 -224 303 0&#10;13 -7 43 -16 65 -9 22 -14 47 -10 55 11 30 43 13 116 -63z m690 -429 c10 -18&#10;22 -38 27 -45 5 -7 15 -31 22 -53 8 -22 22 -52 32 -67 11 -14 19 -31 19 -37 0&#10;-6 10 -32 21 -58 41 -92 57 -128 78 -173 11 -25 26 -65 32 -90 7 -25 17 -50&#10;21 -57 12 -16 38 -177 37 -233 0 -59 -20 -114 -41 -118 -11 -2 -18 3 -18 12 0&#10;8 -6 35 -14 58 -7 24 -19 63 -26 88 -8 25 -16 50 -19 55 -3 6 -6 12 -6 15 0&#10;12 -28 98 -42 130 -8 19 -21 55 -29 80 -17 51 -33 87 -111 260 -41 89 -57 177&#10;-43 230 13 50 34 50 60 3z m-826 -413 c30 -18 96 -91 96 -105 0 -4 6 -21 14&#10;-38 8 -18 20 -50 26 -72 6 -22 20 -59 31 -82 10 -24 19 -48 19 -54 0 -5 11&#10;-35 25 -65 14 -30 25 -60 25 -66 0 -6 8 -30 18 -52 24 -53 62 -169 62 -189 0&#10;-62 -101 32 -162 151 -52 100 -108 235 -108 259 0 9 -6 24 -13 32 -8 9 -24 45&#10;-37 81 -12 36 -35 94 -51 129 -16 35 -29 70 -29 77 0 21 48 17 84 -6z m1353&#10;-1749 c17 -65 12 -593 -6 -686 -7 -33 -14 -77 -17 -97 -3 -21 -12 -42 -20 -49&#10;-8 -6 -14 -17 -14 -24 0 -19 -49 -75 -65 -75 -23 0 -24 12 -10 120 17 135 27&#10;346 29 580 1 193 6 218 50 268 11 12 24 21 30 19 6 -2 16 -27 23 -56z m-935&#10;-23 c44 -60 53 -96 52 -218 -1 -194 -24 -583 -36 -597 -17 -20 -43 8 -64 70&#10;-17 47 -18 86 -16 406 1 194 5 357 8 362 10 18 32 9 56 -23z m-291 -1815 c6&#10;-16 9 -60 7 -98 -5 -76 -1 -66 -140 -340 -42 -82 -79 -157 -82 -165 -3 -8 -19&#10;-37 -36 -65 -16 -27 -35 -63 -42 -78 -7 -16 -19 -26 -28 -25 -11 3 -16 20 -18&#10;77 -2 40 1 78 7 84 5 7 16 39 25 72 8 33 20 61 26 63 5 2 10 11 10 19 0 8 13&#10;41 29 72 16 31 68 136 116 234 51 103 93 177 102 177 7 0 18 -12 24 -27z m879&#10;-343 c0 -23 -53 -157 -69 -173 -6 -6 -11 -17 -11 -25 0 -41 -155 -365 -223&#10;-467 -63 -94 -91 -125 -145 -162 -39 -27 -55 -29 -72 -8 -10 13 -10 19 4 33 9&#10;10 16 22 16 26 0 3 20 37 44 74 53 82 51 78 159 298 48 98 107 217 130 264 46&#10;93 70 123 119 150 37 20 48 18 48 -10z m-1902 -1263 c7 -8 6 -30 -3 -72 -14&#10;-56 -20 -65 -122 -165 -59 -58 -164 -154 -233 -214 -69 -59 -140 -121 -158&#10;-137 -56 -50 -81 -33 -54 36 9 22 26 57 39 78 28 45 161 181 253 258 35 30&#10;105 93 155 141 49 48 95 88 101 88 6 0 16 -6 22 -13z m702 -652 c0 -30 -381&#10;-414 -485 -489 -101 -73 -178 -108 -250 -114 -36 -2 -65 -2 -65 1 0 20 18 40&#10;63 69 29 18 90 65 137 104 88 75 102 87 241 214 45 41 115 105 155 141 71 65&#10;112 86 177 88 17 1 27 -4 27 -14z"/>
<path d="M8280 2171 c-8 -5 -40 -16 -70 -24 -30 -8 -68 -20 -85 -25 -16 -6&#10;-48 -15 -70 -22 -22 -6 -49 -15 -60 -19 -11 -5 -67 -23 -125 -41 -58 -18 -119&#10;-38 -135 -45 -17 -7 -57 -18 -88 -25 -31 -6 -59 -16 -63 -21 -3 -5 -9 -7 -14&#10;-4 -4 3 -21 -2 -36 -10 -16 -8 -35 -15 -41 -15 -12 0 -19 -29 -13 -55 10 -50&#10;34 -132 43 -147 12 -19 46 -24 63 -9 5 5 41 16 79 25 39 9 86 23 105 31 100&#10;39 264 85 273 76 10 -10 -7 -92 -23 -116 -3 -5 -13 -30 -21 -55 -7 -25 -22&#10;-61 -31 -80 -10 -19 -18 -42 -18 -51 0 -10 -6 -30 -14 -46 -8 -15 -21 -46 -29&#10;-68 -24 -64 -53 -135 -83 -200 -15 -33 -28 -64 -29 -70 0 -5 -6 -23 -13 -38&#10;-6 -15 -15 -40 -19 -55 -3 -15 -12 -36 -18 -47 -30 -48 -38 -96 -26 -154 11&#10;-52 19 -73 52 -145 13 -27 16 -28 64 -23 27 3 64 12 80 20 17 9 77 30 135 47&#10;58 18 114 36 125 40 32 13 145 49 205 65 30 9 64 20 75 25 11 5 52 18 90 29&#10;77 22 120 36 178 59 42 17 41 13 17 97 -6 22 -14 52 -17 68 -8 42 -35 56 -88&#10;46 -25 -5 -54 -13 -64 -18 -10 -6 -40 -15 -66 -21 -26 -6 -66 -19 -89 -29 -22&#10;-10 -61 -22 -86 -26 -25 -4 -54 -12 -65 -19 -11 -7 -42 -18 -70 -25 -27 -7&#10;-59 -17 -70 -22 -11 -5 -31 -10 -45 -11 -33 -4 -37 21 -12 74 19 40 45 106 48&#10;118 0 3 6 18 12 33 7 15 15 40 18 55 4 15 13 36 20 47 8 11 14 29 14 40 0 11&#10;8 34 18 50 10 17 22 44 26 60 4 17 13 44 21 60 7 17 27 68 44 115 18 47 40&#10;103 50 125 10 22 24 60 30 85 7 25 20 58 28 73 15 28 11 88 -6 112 -4 6 -13&#10;30 -20 55 -7 25 -18 48 -25 52 -15 10 -48 9 -66 -1z"/>
<path d="M4512 2138 c-11 -18 -25 -55 -31 -83 -7 -27 -16 -54 -20 -60 -4 -5&#10;-16 -37 -26 -70 -10 -33 -23 -73 -30 -90 -16 -37 -32 -83 -57 -160 -11 -33&#10;-26 -73 -33 -90 -7 -16 -17 -43 -21 -59 -4 -16 -13 -41 -20 -55 -8 -14 -14&#10;-32 -14 -40 0 -8 -9 -33 -19 -55 -11 -23 -27 -68 -37 -101 -9 -33 -20 -64 -24&#10;-70 -4 -5 -16 -35 -26 -65 -23 -71 -25 -78 -31 -123 -5 -35 -3 -38 33 -53 22&#10;-8 48 -19 59 -24 11 -4 45 -16 75 -25 30 -9 78 -24 105 -35 28 -10 84 -30 125&#10;-45 41 -15 84 -30 95 -35 11 -4 43 -13 70 -20 28 -6 68 -19 89 -28 26 -11 68&#10;-17 120 -17 69 1 90 5 141 30 78 38 148 109 185 187 25 52 30 76 30 136 0 40&#10;-6 82 -12 95 -27 49 -64 102 -75 110 -19 12 -16 57 5 63 55 18 74 30 125 81&#10;38 38 59 67 63 90 3 18 10 36 15 39 5 3 9 40 8 82 -1 66 -5 84 -30 127 -16 28&#10;-32 58 -35 68 -4 9 -10 17 -14 17 -4 0 -20 12 -36 26 -36 32 -190 106 -279&#10;134 -22 7 -44 16 -50 20 -5 3 -30 12 -55 19 -25 7 -64 21 -87 32 -24 10 -53&#10;19 -65 19 -12 0 -29 6 -37 13 -15 13 -123 47 -148 47 -6 0 -20 -15 -31 -32z&#10;m264 -287 c5 -4 56 -23 114 -41 109 -35 193 -79 210 -110 6 -10 10 -38 10 -62&#10;0 -53 -37 -109 -78 -120 -32 -9 -160 1 -168 13 -3 5 -24 13 -47 20 -41 10 -94&#10;31 -129 50 -10 5 -30 9 -44 9 -23 0 -26 3 -21 28 5 24 52 158 72 205 8 18 63&#10;24 81 8z m-141 -481 c28 -7 69 -21 92 -31 24 -10 47 -19 52 -19 25 0 127 -57&#10;162 -89 35 -34 39 -43 39 -85 0 -67 -37 -128 -96 -155 -40 -19 -48 -20 -77 -8&#10;-18 8 -57 20 -87 27 -30 7 -59 16 -65 20 -5 4 -28 13 -50 20 -22 7 -44 15 -50&#10;19 -5 3 -30 13 -55 22 -49 16 -62 43 -41 83 15 31 52 137 58 169 5 27 35 48&#10;58 42 6 -2 33 -8 60 -15z"/>
<path d="M7268 1880 c-73 -7 -102 -23 -93 -51 4 -10 10 -58 15 -106 5 -49 14&#10;-119 20 -158 6 -38 15 -113 20 -165 8 -80 19 -168 32 -265 2 -11 -3 -20 -12&#10;-22 -15 -2 -70 60 -165 187 -27 37 -81 106 -120 155 -38 48 -114 143 -167 210&#10;-114 143 -115 143 -263 124 -89 -11 -94 -13 -100 -38 -3 -14 -1 -53 5 -86 5&#10;-33 10 -77 10 -99 0 -21 7 -68 15 -105 8 -36 21 -136 30 -221 8 -85 20 -186&#10;25 -225 5 -38 16 -144 24 -235 15 -170 27 -231 49 -248 13 -10 50 -9 154 3 49&#10;6 64 12 69 27 8 26 -5 181 -21 248 -7 30 -16 105 -19 165 -4 61 -12 149 -18&#10;197 -6 48 -8 95 -4 104 6 15 9 15 30 -5 13 -12 54 -63 92 -113 38 -49 92 -118&#10;119 -151 28 -34 63 -80 79 -102 16 -22 46 -59 65 -82 20 -23 59 -71 86 -108&#10;75 -100 94 -115 138 -115 21 0 50 6 65 13 15 8 49 14 76 15 60 2 79 21 71 72&#10;-15 94 -25 175 -34 281 -5 63 -16 160 -24 215 -24 156 -37 255 -39 304 -1 25&#10;-5 50 -8 55 -4 6 -10 48 -14 95 -15 182 -22 221 -36 230 -16 11 -51 11 -152 0z"/>
<path d="M5440 1853 c-1 -4 -8 -62 -16 -128 -8 -66 -19 -167 -24 -225 -5 -58&#10;-14 -148 -20 -200 -6 -52 -15 -140 -19 -195 -5 -55 -12 -134 -15 -175 -4 -41&#10;-14 -121 -23 -177 -15 -93 -15 -104 0 -126 14 -22 25 -25 114 -31 54 -3 130&#10;-11 168 -17 73 -10 177 -21 380 -38 66 -6 138 -15 160 -20 55 -14 122 -14 131&#10;1 4 6 6 36 5 66 -1 30 3 67 10 84 10 25 9 32 -5 46 -21 22 -109 40 -256 52&#10;-178 16 -353 36 -399 46 -23 5 -24 7 -17 82 4 42 10 109 13 147 3 39 11 73 17&#10;77 16 11 64 10 85 -1 9 -5 100 -15 202 -21 101 -6 210 -15 242 -21 70 -12 82&#10;-5 90 54 4 23 11 62 16 86 8 40 7 46 -16 67 -27 25 -57 30 -299 43 -83 5 -160&#10;14 -172 20 -11 6 -43 11 -71 11 -27 0 -52 3 -54 8 -2 4 -1 56 3 116 5 74 12&#10;111 21 118 15 10 136 5 264 -12 44 -6 130 -14 190 -19 61 -5 124 -12 141 -16&#10;40 -9 74 21 74 65 0 16 5 52 11 81 9 41 8 54 -2 64 -21 20 -559 79 -826 92&#10;-57 2 -103 1 -103 -4z"/>
</g></g></svg>