<?xml version="1.0" encoding="utf-8"?>
<svg id="master-artboard" viewBox="0 0 100 52" xmlns="http://www.w3.org/2000/svg" width="100px" height="52px" version="1.1" style="shape-rendering:geometricPrecision; text-rendering:geometricPrecision; image-rendering:optimizeQuality; fill-rule:evenodd; clip-rule:evenodd"><defs><style id="ee-google-fonts">@import url(https://fonts.googleapis.com/css?family=Open+Sans:300,600,700,800,300italic,400,400italic,600italic,700italic,800italic);</style><style id="style-1">@import url(https://fonts.googleapis.com/css?family=Open+Sans:300,300italic,400,400italic,600,600italic,700,700italic,800,800italic);</style></defs><rect id="ee-background" x="0" y="0" width="100" height="52" style="fill: white; fill-opacity: 0; pointer-events: none;"/><path d="M 220.6767578125 234.17999267578125 C 220.6767578125 231.913330078125 220.95343017578125 229.8699951171875 221.5067596435547 228.0500030517578 C 222.06008911132812 226.22999572753906 222.87677001953125 224.67666625976562 223.95675659179688 223.38999938964844 L 227.77676391601562 223.38999938964844 C 226.79010009765625 224.7566680908203 226.03343200683594 226.3633270263672 225.5067596435547 228.2100067138672 C 224.9734344482422 230.06333923339844 224.70675659179688 232.04666137695312 224.70675659179688 234.16000366210938 C 224.70675659179688 236.19332885742188 224.9634246826172 238.1266632080078 225.4767608642578 239.9600067138672 C 225.99676513671875 241.7933349609375 226.7567596435547 243.4066619873047 227.7567596435547 244.8000030517578 L 223.95675659179688 244.8000030517578 C 222.8834228515625 243.56666564941406 222.07009887695312 242.0500030517578 221.5167694091797 240.25 C 220.95675659179688 238.4499969482422 220.6767578125 236.42666625976562 220.6767578125 234.17999267578125 M 225.58676147460938 223.60000610351562 ZM 241.64004516601562 232.4600067138672 C 241.64004516601562 235.48666381835938 241.1333770751953 237.7066650390625 240.1200408935547 239.1199951171875 C 239.10003662109375 240.52667236328125 237.5433807373047 241.22999572753906 235.45004272460938 241.22999572753906 C 233.40338134765625 241.22999572753906 231.86004638671875 240.49667358398438 230.82003784179688 239.02999877929688 C 229.78004455566406 237.55667114257812 229.26004028320312 235.36666870117188 229.26004028320312 232.4600067138672 C 229.26004028320312 229.413330078125 229.77005004882812 227.17666625976562 230.7900390625 225.75 C 231.80337524414062 224.3300018310547 233.35670471191406 223.6199951171875 235.45004272460938 223.6199951171875 C 237.49005126953125 223.6199951171875 239.03004455566406 224.36000061035156 240.07003784179688 225.83999633789062 C 241.11671447753906 227.32000732421875 241.64004516601562 229.52667236328125 241.64004516601562 232.4600067138672 M 233.8700408935547 232.4600067138672 C 233.8700408935547 234.39334106445312 233.99005126953125 235.72332763671875 234.23004150390625 236.4499969482422 C 234.47671508789062 237.17666625976562 234.8833770751953 237.5399932861328 235.45004272460938 237.5399932861328 C 236.03004455566406 237.5399932861328 236.44004821777344 237.1666717529297 236.68003845214844 236.4199981689453 C 236.9133758544922 235.6666717529297 237.03004455566406 234.34666442871094 237.03004455566406 232.4600067138672 C 237.03004455566406 230.55999755859375 236.91004943847656 229.22999572753906 236.6700439453125 228.47000122070312 C 236.43003845214844 227.70333862304688 236.02337646484375 227.32000732421875 235.45004272460938 227.32000732421875 C 234.8833770751953 227.32000732421875 234.47671508789062 227.69000244140625 234.23004150390625 228.42999267578125 C 233.99005126953125 229.163330078125 233.8700408935547 230.5066680908203 233.8700408935547 232.4600067138672 ZM 255.76254272460938 231.7100067138672 C 255.76254272460938 235.05667114257812 255.03921508789062 237.47999572753906 253.59254455566406 238.97999572753906 C 252.1458740234375 240.47999572753906 249.83255004882812 241.22999572753906 246.6525421142578 241.22999572753906 C 245.6058807373047 241.22999572753906 244.8092041015625 241.19332885742188 244.26254272460938 241.1199951171875 L 244.26254272460938 237.4499969482422 C 244.93588256835938 237.57666015625 245.6092071533203 237.63999938964844 246.2825469970703 237.63999938964844 C 247.93588256835938 237.63999938964844 249.21253967285156 237.29666137695312 250.112548828125 236.61000061035156 C 251.01254272460938 235.92999267578125 251.49920654296875 234.85000610351562 251.57254028320312 233.3699951171875 L 251.4325408935547 233.3699951171875 C 251.13253784179688 233.92999267578125 250.83255004882812 234.336669921875 250.5325469970703 234.58999633789062 C 250.2392120361328 234.836669921875 249.87588500976562 235.02667236328125 249.4425506591797 235.16000366210938 C 249.01588439941406 235.2933349609375 248.4825439453125 235.36000061035156 247.84254455566406 235.36000061035156 C 246.3558807373047 235.36000061035156 245.1958770751953 234.8633270263672 244.362548828125 233.8699951171875 C 243.5225372314453 232.88333129882812 243.1025390625 231.51666259765625 243.1025390625 229.77000427246094 C 243.1025390625 227.8766632080078 243.64254760742188 226.38999938964844 244.72254943847656 225.30999755859375 C 245.8092041015625 224.22999572753906 247.29254150390625 223.69000244140625 249.17254638671875 223.69000244140625 C 251.26588439941406 223.69000244140625 252.88587951660156 224.3866729736328 254.0325469970703 225.77999877929688 C 255.18588256835938 227.1666717529297 255.76254272460938 229.14334106445312 255.76254272460938 231.7100067138672 M 249.30255126953125 227.38999938964844 C 248.79588317871094 227.38999938964844 248.38253784179688 227.57666015625 248.0625457763672 227.9499969482422 C 247.74920654296875 228.31666564941406 247.59254455566406 228.90333557128906 247.59254455566406 229.7100067138672 C 247.59254455566406 230.35665893554688 247.72921752929688 230.86666870117188 248.00254821777344 231.24000549316406 C 248.27587890625 231.6199951171875 248.6925506591797 231.80999755859375 249.25254821777344 231.80999755859375 C 249.76588439941406 231.80999755859375 250.20921325683594 231.6266632080078 250.58255004882812 231.25999450683594 C 250.95587158203125 230.89334106445312 251.14254760742188 230.45333862304688 251.14254760742188 229.94000244140625 C 251.14254760742188 229.24000549316406 250.96920776367188 228.63999938964844 250.62254333496094 228.13999938964844 C 250.27587890625 227.63999938964844 249.83587646484375 227.38999938964844 249.30255126953125 227.38999938964844 ZM 258.99505615234375 241 L 264.8750305175781 227.72000122070312 L 257.4550476074219 227.72000122070312 L 257.4550476074219 223.88999938964844 L 269.8250427246094 223.88999938964844 L 269.8250427246094 226.6199951171875 L 263.7850341796875 241 L 258.99505615234375 241 ZM 283.7575378417969 241 L 271.3175354003906 241 L 271.3175354003906 237.9499969482422 L 275.5075378417969 233.72000122070312 C 276.70086669921875 232.47332763671875 277.4808654785156 231.6199951171875 277.8475341796875 231.16000366210938 C 278.2142028808594 230.7066650390625 278.47088623046875 230.31333923339844 278.6175537109375 229.97999572753906 C 278.76422119140625 229.65333557128906 278.8375549316406 229.30999755859375 278.8375549316406 228.9499969482422 C 278.8375549316406 228.50999450683594 278.6908874511719 228.16000366210938 278.3975524902344 227.89999389648438 C 278.1108703613281 227.63999938964844 277.7042236328125 227.50999450683594 277.17755126953125 227.50999450683594 C 276.64422607421875 227.50999450683594 276.10089111328125 227.663330078125 275.54754638671875 227.97000122070312 C 274.99420166015625 228.28334045410156 274.3708801269531 228.74000549316406 273.67755126953125 229.33999633789062 L 271.1375427246094 226.36000061035156 C 272.0175476074219 225.57333374023438 272.7575378417969 225.00999450683594 273.3575439453125 224.6699981689453 C 273.9642028808594 224.3300018310547 274.6208801269531 224.07000732421875 275.3275451660156 223.88999938964844 C 276.0342102050781 223.70999145507812 276.8275451660156 223.6199951171875 277.7075500488281 223.6199951171875 C 278.82086181640625 223.6199951171875 279.8108825683594 223.81666564941406 280.67755126953125 224.20999145507812 C 281.5508728027344 224.59666442871094 282.2275390625 225.15333557128906 282.7075500488281 225.8800048828125 C 283.1875305175781 226.60000610351562 283.42755126953125 227.41000366210938 283.42755126953125 228.30999755859375 C 283.42755126953125 228.98333740234375 283.3442077636719 229.60333251953125 283.17755126953125 230.1699981689453 C 283.0108642578125 230.7433319091797 282.7508850097656 231.30332946777344 282.3975524902344 231.85000610351562 C 282.0442199707031 232.40333557128906 281.5775451660156 232.98333740234375 280.99755859375 233.58999633789062 C 280.41754150390625 234.20333862304688 279.17755126953125 235.36000061035156 277.2775573730469 237.05999755859375 L 277.2775573730469 237.17999267578125 L 283.7575378417969 237.17999267578125 L 283.7575378417969 241 ZM 292.4300537109375 234.17999267578125 C 292.4300537109375 236.39334106445312 292.1500549316406 238.40333557128906 291.5900573730469 240.2100067138672 C 291.030029296875 242.01666259765625 290.2100524902344 243.54666137695312 289.1300354003906 244.8000030517578 L 285.3400573730469 244.8000030517578 C 286.3200378417969 243.45333862304688 287.0733642578125 241.85667419433594 287.60003662109375 240.00999450683594 C 288.12005615234375 238.163330078125 288.3800354003906 236.2133331298828 288.3800354003906 234.16000366210938 C 288.3800354003906 232.086669921875 288.1233825683594 230.1266632080078 287.61004638671875 228.27999877929688 C 287.0967102050781 226.43333435058594 286.3300476074219 224.80332946777344 285.31005859375 223.38999938964844 L 289.1300354003906 223.38999938964844 C 290.2167053222656 224.68333435058594 291.0400390625 226.25332641601562 291.60003662109375 228.10000610351562 C 292.15338134765625 229.94000244140625 292.4300537109375 231.96665954589844 292.4300537109375 234.17999267578125 M 287.56005859375 223.60000610351562 ZM 312.6676940917969 241 L 300.2276916503906 241 L 300.2276916503906 237.9499969482422 L 304.4176940917969 233.72000122070312 C 305.61102294921875 232.47332763671875 306.3910217285156 231.6199951171875 306.7576904296875 231.16000366210938 C 307.1243591308594 230.7066650390625 307.38104248046875 230.31333923339844 307.5277099609375 229.97999572753906 C 307.67437744140625 229.65333557128906 307.7477111816406 229.30999755859375 307.7477111816406 228.9499969482422 C 307.7477111816406 228.50999450683594 307.6010437011719 228.16000366210938 307.3077087402344 227.89999389648438 C 307.0210266113281 227.63999938964844 306.6143798828125 227.50999450683594 306.08770751953125 227.50999450683594 C 305.55438232421875 227.50999450683594 305.01104736328125 227.663330078125 304.45770263671875 227.97000122070312 C 303.90435791015625 228.28334045410156 303.2810363769531 228.74000549316406 302.58770751953125 229.33999633789062 L 300.0476989746094 226.36000061035156 C 300.9277038574219 225.57333374023438 301.6676940917969 225.00999450683594 302.2677001953125 224.6699981689453 C 302.8743591308594 224.3300018310547 303.5310363769531 224.07000732421875 304.2377014160156 223.88999938964844 C 304.9443664550781 223.70999145507812 305.7377014160156 223.6199951171875 306.6177062988281 223.6199951171875 C 307.73101806640625 223.6199951171875 308.7210388183594 223.81666564941406 309.58770751953125 224.20999145507812 C 310.4610290527344 224.59666442871094 311.1376953125 225.15333557128906 311.6177062988281 225.8800048828125 C 312.0976867675781 226.60000610351562 312.33770751953125 227.41000366210938 312.33770751953125 228.30999755859375 C 312.33770751953125 228.98333740234375 312.2543640136719 229.60333251953125 312.08770751953125 230.1699981689453 C 311.9210205078125 230.7433319091797 311.6610412597656 231.30332946777344 311.3077087402344 231.85000610351562 C 310.9543762207031 232.40333557128906 310.4877014160156 232.98333740234375 309.90771484375 233.58999633789062 C 309.32769775390625 234.20333862304688 308.08770751953125 235.36000061035156 306.1877136230469 237.05999755859375 L 306.1877136230469 237.17999267578125 L 312.6676940917969 237.17999267578125 L 312.6676940917969 241 ZM 326.8002014160156 232.4600067138672 C 326.8002014160156 235.48666381835938 326.29351806640625 237.7066650390625 325.28021240234375 239.1199951171875 C 324.26019287109375 240.52667236328125 322.7035217285156 241.22999572753906 320.6101989746094 241.22999572753906 C 318.56353759765625 241.22999572753906 317.02020263671875 240.49667358398438 315.9801940917969 239.02999877929688 C 314.940185546875 237.55667114257812 314.4201965332031 235.36666870117188 314.4201965332031 232.4600067138672 C 314.4201965332031 229.413330078125 314.9302062988281 227.17666625976562 315.9501953125 225.75 C 316.9635314941406 224.3300018310547 318.5168762207031 223.6199951171875 320.6101989746094 223.6199951171875 C 322.65020751953125 223.6199951171875 324.190185546875 224.36000061035156 325.2301940917969 225.83999633789062 C 326.27685546875 227.32000732421875 326.8002014160156 229.52667236328125 326.8002014160156 232.4600067138672 M 319.03021240234375 232.4600067138672 C 319.03021240234375 234.39334106445312 319.15020751953125 235.72332763671875 319.39019775390625 236.4499969482422 C 319.6368713378906 237.17666625976562 320.04351806640625 237.5399932861328 320.6101989746094 237.5399932861328 C 321.190185546875 237.5399932861328 321.6001892089844 237.1666717529297 321.8402099609375 236.4199981689453 C 322.07354736328125 235.6666717529297 322.190185546875 234.34666442871094 322.190185546875 232.4600067138672 C 322.190185546875 230.55999755859375 322.0701904296875 229.22999572753906 321.8302001953125 228.47000122070312 C 321.5902099609375 227.70333862304688 321.18353271484375 227.32000732421875 320.6101989746094 227.32000732421875 C 320.04351806640625 227.32000732421875 319.6368713378906 227.69000244140625 319.39019775390625 228.42999267578125 C 319.15020751953125 229.163330078125 319.03021240234375 230.5066680908203 319.03021240234375 232.4600067138672 ZM 338.6827087402344 241 L 333.9826965332031 241 L 333.9826965332031 231.92999267578125 C 333.9826965332031 230.8300018310547 334.00604248046875 229.82333374023438 334.0527038574219 228.91000366210938 C 333.7660217285156 229.2566680908203 333.4060363769531 229.6233367919922 332.9726867675781 230.00999450683594 L 331.03271484375 231.61000061035156 L 328.6227111816406 228.66000366210938 L 334.5126953125 223.8699951171875 L 338.6827087402344 223.8699951171875 L 338.6827087402344 241 ZM 348.4395751953125 236.38999938964844 L 348.4395751953125 232.74000549316406 L 355.069580078125 232.74000549316406 L 355.069580078125 236.38999938964844 L 348.4395751953125 236.38999938964844 ZM 368.8828430175781 223.6199951171875 C 370.68951416015625 223.6199951171875 372.0928649902344 223.98333740234375 373.0928649902344 224.70999145507812 C 374.0995178222656 225.43666076660156 374.60284423828125 226.46665954589844 374.60284423828125 227.8000030517578 C 374.60284423828125 228.7066650390625 374.3661804199219 229.50332641601562 373.8928527832031 230.19000244140625 C 373.4195251464844 230.8699951171875 372.6695251464844 231.46665954589844 371.6428527832031 231.97999572753906 C 372.9095153808594 232.69332885742188 373.8028564453125 233.41000366210938 374.3228454589844 234.1300048828125 C 374.8428649902344 234.8433380126953 375.10284423828125 235.6133270263672 375.10284423828125 236.44000244140625 C 375.10284423828125 237.96665954589844 374.5528564453125 239.14666748046875 373.4528503417969 239.97999572753906 C 372.35284423828125 240.81333923339844 370.8128662109375 241.22999572753906 368.8328552246094 241.22999572753906 C 366.81951904296875 241.22999572753906 365.27618408203125 240.82333374023438 364.2028503417969 240.00999450683594 C 363.1361999511719 239.19667053222656 362.60284423828125 238.02333068847656 362.60284423828125 236.49000549316406 C 362.60284423828125 235.49667358398438 362.8395080566406 234.64999389648438 363.3128662109375 233.9499969482422 C 363.7928466796875 233.25 364.5928649902344 232.61666870117188 365.7128601074219 232.0500030517578 C 364.8061828613281 231.43666076660156 364.14617919921875 230.77999877929688 363.73284912109375 230.0800018310547 C 363.3128662109375 229.3866729736328 363.10284423828125 228.6199951171875 363.10284423828125 227.77999877929688 C 363.10284423828125 226.46665954589844 363.6161804199219 225.44667053222656 364.6428527832031 224.72000122070312 C 365.662841796875 223.98666381835938 367.0762023925781 223.6199951171875 368.8828430175781 223.6199951171875 M 366.8428649902344 236.3000030517578 C 366.8428649902344 236.7866668701172 367.0128479003906 237.17666625976562 367.35284423828125 237.47000122070312 C 367.69952392578125 237.76333618164062 368.1761779785156 237.91000366210938 368.7828674316406 237.91000366210938 C 370.162841796875 237.91000366210938 370.85284423828125 237.40333557128906 370.85284423828125 236.38999938964844 C 370.85284423828125 236.00999450683594 370.7028503417969 235.63333129882812 370.4028625488281 235.25999450683594 C 370.09619140625 234.89334106445312 369.5561828613281 234.47999572753906 368.7828674316406 234.02000427246094 C 368.08953857421875 234.3866729736328 367.5928649902344 234.75332641601562 367.2928466796875 235.1199951171875 C 366.99285888671875 235.4933319091797 366.8428649902344 235.8866729736328 366.8428649902344 236.3000030517578 M 368.85284423828125 226.9600067138672 C 368.45953369140625 226.9600067138672 368.1261901855469 227.07666015625 367.85284423828125 227.30999755859375 C 367.57952880859375 227.5366668701172 367.44287109375 227.8333282470703 367.44287109375 228.1999969482422 C 367.44287109375 228.8733367919922 367.8995361328125 229.46665954589844 368.8128662109375 229.97999572753906 C 369.3661804199219 229.66000366210938 369.74285888671875 229.3699951171875 369.94287109375 229.11000061035156 C 370.1495361328125 228.8433380126953 370.25286865234375 228.5399932861328 370.25286865234375 228.1999969482422 C 370.25286865234375 227.82666015625 370.1161804199219 227.52667236328125 369.8428649902344 227.3000030517578 C 369.56951904296875 227.07333374023438 369.2395324707031 226.9600067138672 368.85284423828125 226.9600067138672 ZM 389.56536865234375 237.67999267578125 L 387.67535400390625 237.67999267578125 L 387.67535400390625 241 L 383.1053466796875 241 L 383.1053466796875 237.67999267578125 L 376.2753601074219 237.67999267578125 L 376.2753601074219 234.2899932861328 L 383.4053649902344 223.8699951171875 L 387.67535400390625 223.8699951171875 L 387.67535400390625 234.22999572753906 L 389.56536865234375 234.22999572753906 L 389.56536865234375 237.67999267578125 M 383.1053466796875 234.22999572753906 L 383.1053466796875 232.22999572753906 C 383.1053466796875 231.85665893554688 383.1186828613281 231.35333251953125 383.1453552246094 230.72000122070312 C 383.1720275878906 230.0800018310547 383.1953430175781 229.7433319091797 383.2153625488281 229.7100067138672 L 383.0853576660156 229.7100067138672 C 382.8186950683594 230.31666564941406 382.5186767578125 230.8800048828125 382.18536376953125 231.39999389648438 L 380.2853698730469 234.22999572753906 L 383.1053466796875 234.22999572753906 ZM 403.62786865234375 237.67999267578125 L 401.73785400390625 237.67999267578125 L 401.73785400390625 241 L 397.1678466796875 241 L 397.1678466796875 237.67999267578125 L 390.3378601074219 237.67999267578125 L 390.3378601074219 234.2899932861328 L 397.4678649902344 223.8699951171875 L 401.73785400390625 223.8699951171875 L 401.73785400390625 234.22999572753906 L 403.62786865234375 234.22999572753906 L 403.62786865234375 237.67999267578125 M 397.1678466796875 234.22999572753906 L 397.1678466796875 232.22999572753906 C 397.1678466796875 231.85665893554688 397.1811828613281 231.35333251953125 397.2078552246094 230.72000122070312 C 397.2345275878906 230.0800018310547 397.2578430175781 229.7433319091797 397.2778625488281 229.7100067138672 L 397.1478576660156 229.7100067138672 C 396.8811950683594 230.31666564941406 396.5811767578125 230.8800048828125 396.24786376953125 231.39999389648438 L 394.3478698730469 234.22999572753906 L 397.1678466796875 234.22999572753906 Z" transform="matrix(0.5105137825012207, 0, 0, 0.5105137825012207, -109.15636444091797, -88.17896270751953)" style="fill: rgb(51, 51, 51); white-space: pre; color: rgb(51, 51, 51);"/><g transform="matrix(0.041249752044677734, 0, 0, 0.041249752044677734, 38.00010299682617, 0.0012063980102539062)"><g>
	<g>
		<path d="M473.964,379.743l-63.357-65.555c-0.059-0.061-0.119-0.122-0.179-0.182c-17.586-17.586-46.048-17.588-63.635,0&#10;&#9;&#9;&#9;l-28.926,28.925c-13.321,13.322-34.884,13.324-48.207,0c-0.006-0.006-0.012-0.012-0.018-0.018l-100.593-98.214&#10;&#9;&#9;&#9;c-13.322-13.322-13.324-34.885,0-48.208l28.925-28.925c17.545-17.544,17.545-46.091,0-63.635l-63.635-63.635&#10;&#9;&#9;&#9;c-17.545-17.543-46.091-17.543-63.635,0c-0.006,0.006-21.216,21.217-21.211,21.211c-0.005,0.006-1.923,1.923-1.928,1.929&#10;&#9;&#9;&#9;c-63.408,63.407-63.431,166.04,0.01,229.481l173.877,171.498c63.267,63.267,165.727,63.503,229.248,0.223&#10;&#9;&#9;&#9;c0.348-0.321,22.828-21.027,23.163-21.362C491.372,425.765,491.406,397.295,473.964,379.743z M91.916,61.507&#10;&#9;&#9;&#9;c5.848-5.848,15.363-5.848,21.211,0l63.635,63.635c5.862,5.863,5.863,15.349,0,21.212l-10.605,10.605L81.31,72.113L91.916,61.507z&#10;&#9;&#9;&#9; M242.653,443.194L68.776,271.696c-48.998-48.999-51.322-126.265-8.277-177.971l84.549,84.549&#10;&#9;&#9;&#9;c-22.145,25.141-21.224,63.623,2.808,87.655l100.611,98.232c24.047,24.028,62.406,25.017,87.62,2.773l84.542,84.542&#10;&#9;&#9;&#9;C368.413,494.851,291.612,492.152,242.653,443.194z M452.829,421.883l-10.08,9.289l-85.35-85.35l10.605-10.605&#10;&#9;&#9;&#9;c5.843-5.842,15.274-5.86,21.137-0.075c0.117,0.121,63.391,65.591,63.51,65.709C458.44,406.641,458.499,416.022,452.829,421.883z"/>
	</g>
</g><g>
	<g>
		<path d="M257.02,0.02c-8.283,0-14.999,6.716-14.999,14.999s6.716,14.999,14.999,14.999c124.056,0,224.983,100.927,224.983,224.983&#10;&#9;&#9;&#9;c0,8.283,6.716,14.999,14.999,14.999s14.999-6.715,14.999-14.999C512.001,114.072,397.96,0.02,257.02,0.02z"/>
	</g>
</g><g>
	<g>
		<path d="M257.02,60.015c-8.283,0-14.999,6.716-14.999,14.999s6.716,14.999,14.999,14.999c90.974,0,164.988,74.013,164.988,164.988&#10;&#9;&#9;&#9;c0,8.283,6.716,14.999,14.999,14.999s14.999-6.715,14.999-14.999C452.006,147.486,364.535,60.015,257.02,60.015z"/>
	</g>
</g><g>
	<g>
		<path d="M257.02,120.011c-8.283,0-14.999,6.716-14.999,14.999s6.716,14.999,14.999,14.999&#10;&#9;&#9;&#9;c57.893,0,104.992,47.099,104.992,104.992c0,8.283,6.716,14.999,14.999,14.999s14.999-6.715,14.999-14.999&#10;&#9;&#9;&#9;C392.01,180.567,331.454,120.011,257.02,120.011z"/>
	</g>
</g><g>
	<g>
		<path d="M257.02,180.006c-8.283,0-14.999,6.716-14.999,14.999s6.716,14.999,14.999,14.999c24.811,0,44.997,20.185,44.997,44.997&#10;&#9;&#9;&#9;c0,8.283,6.716,14.999,14.999,14.999s14.999-6.715,14.999-14.999C332.014,213.649,298.372,180.006,257.02,180.006z"/>
	</g>
</g><g>
</g><g>
</g><g>
</g><g>
</g><g>
</g><g>
</g><g>
</g><g>
</g><g>
</g><g>
</g><g>
</g><g>
</g><g>
</g><g>
</g><g>
</g></g><path d="M 220.6767578125 234.17999267578125 C 220.6767578125 231.913330078125 220.95343017578125 229.8699951171875 221.5067596435547 228.0500030517578 C 222.06008911132812 226.22999572753906 222.87677001953125 224.67666625976562 223.95675659179688 223.38999938964844 L 227.77676391601562 223.38999938964844 C 226.79010009765625 224.7566680908203 226.03343200683594 226.3633270263672 225.5067596435547 228.2100067138672 C 224.9734344482422 230.06333923339844 224.70675659179688 232.04666137695312 224.70675659179688 234.16000366210938 C 224.70675659179688 236.19332885742188 224.9634246826172 238.1266632080078 225.4767608642578 239.9600067138672 C 225.99676513671875 241.7933349609375 226.7567596435547 243.4066619873047 227.7567596435547 244.8000030517578 L 223.95675659179688 244.8000030517578 C 222.8834228515625 243.56666564941406 222.07009887695312 242.0500030517578 221.5167694091797 240.25 C 220.95675659179688 238.4499969482422 220.6767578125 236.42666625976562 220.6767578125 234.17999267578125 M 225.58676147460938 223.60000610351562 ZM 241.64004516601562 232.4600067138672 C 241.64004516601562 235.48666381835938 241.1333770751953 237.7066650390625 240.1200408935547 239.1199951171875 C 239.10003662109375 240.52667236328125 237.5433807373047 241.22999572753906 235.45004272460938 241.22999572753906 C 233.40338134765625 241.22999572753906 231.86004638671875 240.49667358398438 230.82003784179688 239.02999877929688 C 229.78004455566406 237.55667114257812 229.26004028320312 235.36666870117188 229.26004028320312 232.4600067138672 C 229.26004028320312 229.413330078125 229.77005004882812 227.17666625976562 230.7900390625 225.75 C 231.80337524414062 224.3300018310547 233.35670471191406 223.6199951171875 235.45004272460938 223.6199951171875 C 237.49005126953125 223.6199951171875 239.03004455566406 224.36000061035156 240.07003784179688 225.83999633789062 C 241.11671447753906 227.32000732421875 241.64004516601562 229.52667236328125 241.64004516601562 232.4600067138672 M 233.8700408935547 232.4600067138672 C 233.8700408935547 234.39334106445312 233.99005126953125 235.72332763671875 234.23004150390625 236.4499969482422 C 234.47671508789062 237.17666625976562 234.8833770751953 237.5399932861328 235.45004272460938 237.5399932861328 C 236.03004455566406 237.5399932861328 236.44004821777344 237.1666717529297 236.68003845214844 236.4199981689453 C 236.9133758544922 235.6666717529297 237.03004455566406 234.34666442871094 237.03004455566406 232.4600067138672 C 237.03004455566406 230.55999755859375 236.91004943847656 229.22999572753906 236.6700439453125 228.47000122070312 C 236.43003845214844 227.70333862304688 236.02337646484375 227.32000732421875 235.45004272460938 227.32000732421875 C 234.8833770751953 227.32000732421875 234.47671508789062 227.69000244140625 234.23004150390625 228.42999267578125 C 233.99005126953125 229.163330078125 233.8700408935547 230.5066680908203 233.8700408935547 232.4600067138672 ZM 255.63253784179688 241 L 243.1925506591797 241 L 243.1925506591797 237.9499969482422 L 247.38253784179688 233.72000122070312 C 248.5758819580078 232.47332763671875 249.3558807373047 231.6199951171875 249.72254943847656 231.16000366210938 C 250.08920288085938 230.7066650390625 250.3458709716797 230.31333923339844 250.49253845214844 229.97999572753906 C 250.6392059326172 229.65333557128906 250.71253967285156 229.30999755859375 250.71253967285156 228.9499969482422 C 250.71253967285156 228.50999450683594 250.5658721923828 228.16000366210938 250.2725372314453 227.89999389648438 C 249.98587036132812 227.63999938964844 249.57920837402344 227.50999450683594 249.05255126953125 227.50999450683594 C 248.5192108154297 227.50999450683594 247.9758758544922 227.663330078125 247.42254638671875 227.97000122070312 C 246.8692169189453 228.28334045410156 246.24588012695312 228.74000549316406 245.55255126953125 229.33999633789062 L 243.01254272460938 226.36000061035156 C 243.89254760742188 225.57333374023438 244.63253784179688 225.00999450683594 245.2325439453125 224.6699981689453 C 245.83920288085938 224.3300018310547 246.49588012695312 224.07000732421875 247.20254516601562 223.88999938964844 C 247.90921020507812 223.70999145507812 248.70254516601562 223.6199951171875 249.58255004882812 223.6199951171875 C 250.6958770751953 223.6199951171875 251.68588256835938 223.81666564941406 252.55255126953125 224.20999145507812 C 253.42587280273438 224.59666442871094 254.1025390625 225.15333557128906 254.58255004882812 225.8800048828125 C 255.0625457763672 226.60000610351562 255.30255126953125 227.41000366210938 255.30255126953125 228.30999755859375 C 255.30255126953125 228.98333740234375 255.21920776367188 229.60333251953125 255.05255126953125 230.1699981689453 C 254.88587951660156 230.7433319091797 254.62588500976562 231.30332946777344 254.2725372314453 231.85000610351562 C 253.91920471191406 232.40333557128906 253.45254516601562 232.98333740234375 252.87254333496094 233.58999633789062 C 252.29254150390625 234.20333862304688 251.05255126953125 235.36000061035156 249.1525421142578 237.05999755859375 L 249.1525421142578 237.17999267578125 L 255.63253784179688 237.17999267578125 L 255.63253784179688 241 ZM 267.5850524902344 241 L 262.8850402832031 241 L 262.8850402832031 231.92999267578125 C 262.8850402832031 230.8300018310547 262.90838623046875 229.82333374023438 262.9550476074219 228.91000366210938 C 262.6683654785156 229.2566680908203 262.3083801269531 229.6233367919922 261.8750305175781 230.00999450683594 L 259.93505859375 231.61000061035156 L 257.5250549316406 228.66000366210938 L 263.4150390625 223.8699951171875 L 267.5850524902344 223.8699951171875 L 267.5850524902344 241 ZM 278.3675537109375 234.17999267578125 C 278.3675537109375 236.39334106445312 278.0875549316406 238.40333557128906 277.5275573730469 240.2100067138672 C 276.967529296875 242.01666259765625 276.1475524902344 243.54666137695312 275.0675354003906 244.8000030517578 L 271.2775573730469 244.8000030517578 C 272.2575378417969 243.45333862304688 273.0108642578125 241.85667419433594 273.53753662109375 240.00999450683594 C 274.05755615234375 238.163330078125 274.3175354003906 236.2133331298828 274.3175354003906 234.16000366210938 C 274.3175354003906 232.086669921875 274.0608825683594 230.1266632080078 273.54754638671875 228.27999877929688 C 273.0342102050781 226.43333435058594 272.2675476074219 224.80332946777344 271.24755859375 223.38999938964844 L 275.0675354003906 223.38999938964844 C 276.1542053222656 224.68333435058594 276.9775390625 226.25332641601562 277.53753662109375 228.10000610351562 C 278.09088134765625 229.94000244140625 278.3675537109375 231.96665954589844 278.3675537109375 234.17999267578125 M 273.49755859375 223.60000610351562 ZM 298.6051940917969 241 L 286.1651916503906 241 L 286.1651916503906 237.9499969482422 L 290.3551940917969 233.72000122070312 C 291.54852294921875 232.47332763671875 292.3285217285156 231.6199951171875 292.6951904296875 231.16000366210938 C 293.0618591308594 230.7066650390625 293.31854248046875 230.31333923339844 293.4652099609375 229.97999572753906 C 293.61187744140625 229.65333557128906 293.6852111816406 229.30999755859375 293.6852111816406 228.9499969482422 C 293.6852111816406 228.50999450683594 293.5385437011719 228.16000366210938 293.2452087402344 227.89999389648438 C 292.9585266113281 227.63999938964844 292.5518798828125 227.50999450683594 292.02520751953125 227.50999450683594 C 291.49188232421875 227.50999450683594 290.94854736328125 227.663330078125 290.39520263671875 227.97000122070312 C 289.84185791015625 228.28334045410156 289.2185363769531 228.74000549316406 288.52520751953125 229.33999633789062 L 285.9851989746094 226.36000061035156 C 286.8652038574219 225.57333374023438 287.6051940917969 225.00999450683594 288.2052001953125 224.6699981689453 C 288.8118591308594 224.3300018310547 289.4685363769531 224.07000732421875 290.1752014160156 223.88999938964844 C 290.8818664550781 223.70999145507812 291.6752014160156 223.6199951171875 292.5552062988281 223.6199951171875 C 293.66851806640625 223.6199951171875 294.6585388183594 223.81666564941406 295.52520751953125 224.20999145507812 C 296.3985290527344 224.59666442871094 297.0751953125 225.15333557128906 297.5552062988281 225.8800048828125 C 298.0351867675781 226.60000610351562 298.27520751953125 227.41000366210938 298.27520751953125 228.30999755859375 C 298.27520751953125 228.98333740234375 298.1918640136719 229.60333251953125 298.02520751953125 230.1699981689453 C 297.8585205078125 230.7433319091797 297.5985412597656 231.30332946777344 297.2452087402344 231.85000610351562 C 296.8918762207031 232.40333557128906 296.4252014160156 232.98333740234375 295.84521484375 233.58999633789062 C 295.26519775390625 234.20333862304688 294.02520751953125 235.36000061035156 292.1252136230469 237.05999755859375 L 292.1252136230469 237.17999267578125 L 298.6051940917969 237.17999267578125 L 298.6051940917969 241 ZM 312.7976989746094 231.7100067138672 C 312.7976989746094 235.05667114257812 312.0743713378906 237.47999572753906 310.627685546875 238.97999572753906 C 309.1810302734375 240.47999572753906 306.8677062988281 241.22999572753906 303.6877136230469 241.22999572753906 C 302.6410217285156 241.22999572753906 301.8443603515625 241.19332885742188 301.2976989746094 241.1199951171875 L 301.2976989746094 237.4499969482422 C 301.9710388183594 237.57666015625 302.6443786621094 237.63999938964844 303.31768798828125 237.63999938964844 C 304.9710388183594 237.63999938964844 306.2477111816406 237.29666137695312 307.147705078125 236.61000061035156 C 308.0476989746094 235.92999267578125 308.53436279296875 234.85000610351562 308.6076965332031 233.3699951171875 L 308.46771240234375 233.3699951171875 C 308.1676940917969 233.92999267578125 307.8677062988281 234.336669921875 307.56768798828125 234.58999633789062 C 307.27435302734375 234.836669921875 306.9110412597656 235.02667236328125 306.4776916503906 235.16000366210938 C 306.051025390625 235.2933349609375 305.5177001953125 235.36000061035156 304.877685546875 235.36000061035156 C 303.3910217285156 235.36000061035156 302.2310485839844 234.8633270263672 301.397705078125 233.8699951171875 C 300.5577087402344 232.88333129882812 300.1376953125 231.51666259765625 300.1376953125 229.77000427246094 C 300.1376953125 227.8766632080078 300.6777038574219 226.38999938964844 301.7576904296875 225.30999755859375 C 302.8443603515625 224.22999572753906 304.32769775390625 223.69000244140625 306.20770263671875 223.69000244140625 C 308.301025390625 223.69000244140625 309.9210205078125 224.3866729736328 311.06768798828125 225.77999877929688 C 312.2210388183594 227.1666717529297 312.7976989746094 229.14334106445312 312.7976989746094 231.7100067138672 M 306.33770751953125 227.38999938964844 C 305.8310241699219 227.38999938964844 305.4176940917969 227.57666015625 305.0976867675781 227.9499969482422 C 304.78436279296875 228.31666564941406 304.627685546875 228.90333557128906 304.627685546875 229.7100067138672 C 304.627685546875 230.35665893554688 304.7643737792969 230.86666870117188 305.0376892089844 231.24000549316406 C 305.31103515625 231.6199951171875 305.7276916503906 231.80999755859375 306.2876892089844 231.80999755859375 C 306.801025390625 231.80999755859375 307.2443542480469 231.6266632080078 307.6177062988281 231.25999450683594 C 307.99102783203125 230.89334106445312 308.1777038574219 230.45333862304688 308.1777038574219 229.94000244140625 C 308.1777038574219 229.24000549316406 308.0043640136719 228.63999938964844 307.65771484375 228.13999938964844 C 307.31103515625 227.63999938964844 306.87103271484375 227.38999938964844 306.33770751953125 227.38999938964844 ZM 326.8002014160156 232.4600067138672 C 326.8002014160156 235.48666381835938 326.29351806640625 237.7066650390625 325.28021240234375 239.1199951171875 C 324.26019287109375 240.52667236328125 322.7035217285156 241.22999572753906 320.6101989746094 241.22999572753906 C 318.56353759765625 241.22999572753906 317.02020263671875 240.49667358398438 315.9801940917969 239.02999877929688 C 314.940185546875 237.55667114257812 314.4201965332031 235.36666870117188 314.4201965332031 232.4600067138672 C 314.4201965332031 229.413330078125 314.9302062988281 227.17666625976562 315.9501953125 225.75 C 316.9635314941406 224.3300018310547 318.5168762207031 223.6199951171875 320.6101989746094 223.6199951171875 C 322.65020751953125 223.6199951171875 324.190185546875 224.36000061035156 325.2301940917969 225.83999633789062 C 326.27685546875 227.32000732421875 326.8002014160156 229.52667236328125 326.8002014160156 232.4600067138672 M 319.03021240234375 232.4600067138672 C 319.03021240234375 234.39334106445312 319.15020751953125 235.72332763671875 319.39019775390625 236.4499969482422 C 319.6368713378906 237.17666625976562 320.04351806640625 237.5399932861328 320.6101989746094 237.5399932861328 C 321.190185546875 237.5399932861328 321.6001892089844 237.1666717529297 321.8402099609375 236.4199981689453 C 322.07354736328125 235.6666717529297 322.190185546875 234.34666442871094 322.190185546875 232.4600067138672 C 322.190185546875 230.55999755859375 322.0701904296875 229.22999572753906 321.8302001953125 228.47000122070312 C 321.5902099609375 227.70333862304688 321.18353271484375 227.32000732421875 320.6101989746094 227.32000732421875 C 320.04351806640625 227.32000732421875 319.6368713378906 227.69000244140625 319.39019775390625 228.42999267578125 C 319.15020751953125 229.163330078125 319.03021240234375 230.5066680908203 319.03021240234375 232.4600067138672 ZM 334.3770751953125 236.38999938964844 L 334.3770751953125 232.74000549316406 L 341.007080078125 232.74000549316406 L 341.007080078125 236.38999938964844 L 334.3770751953125 236.38999938964844 ZM 350.19036865234375 241 L 356.0703430175781 227.72000122070312 L 348.6503601074219 227.72000122070312 L 348.6503601074219 223.88999938964844 L 361.0203552246094 223.88999938964844 L 361.0203552246094 226.6199951171875 L 354.9803466796875 241 L 350.19036865234375 241 ZM 372.8428649902344 241 L 368.1428527832031 241 L 368.1428527832031 231.92999267578125 C 368.1428527832031 230.8300018310547 368.16619873046875 229.82333374023438 368.2128601074219 228.91000366210938 C 367.9261779785156 229.2566680908203 367.5661926269531 229.6233367919922 367.1328430175781 230.00999450683594 L 365.19287109375 231.61000061035156 L 362.7828674316406 228.66000366210938 L 368.6728515625 223.8699951171875 L 372.8428649902344 223.8699951171875 L 372.8428649902344 241 ZM 382.9453430175781 223.6199951171875 C 384.75201416015625 223.6199951171875 386.1553649902344 223.98333740234375 387.1553649902344 224.70999145507812 C 388.1620178222656 225.43666076660156 388.66534423828125 226.46665954589844 388.66534423828125 227.8000030517578 C 388.66534423828125 228.7066650390625 388.4286804199219 229.50332641601562 387.9553527832031 230.19000244140625 C 387.4820251464844 230.8699951171875 386.7320251464844 231.46665954589844 385.7053527832031 231.97999572753906 C 386.9720153808594 232.69332885742188 387.8653564453125 233.41000366210938 388.3853454589844 234.1300048828125 C 388.9053649902344 234.8433380126953 389.16534423828125 235.6133270263672 389.16534423828125 236.44000244140625 C 389.16534423828125 237.96665954589844 388.6153564453125 239.14666748046875 387.5153503417969 239.97999572753906 C 386.41534423828125 240.81333923339844 384.8753662109375 241.22999572753906 382.8953552246094 241.22999572753906 C 380.88201904296875 241.22999572753906 379.33868408203125 240.82333374023438 378.2653503417969 240.00999450683594 C 377.1986999511719 239.19667053222656 376.66534423828125 238.02333068847656 376.66534423828125 236.49000549316406 C 376.66534423828125 235.49667358398438 376.9020080566406 234.64999389648438 377.3753662109375 233.9499969482422 C 377.8553466796875 233.25 378.6553649902344 232.61666870117188 379.7753601074219 232.0500030517578 C 378.8686828613281 231.43666076660156 378.20867919921875 230.77999877929688 377.79534912109375 230.0800018310547 C 377.3753662109375 229.3866729736328 377.16534423828125 228.6199951171875 377.16534423828125 227.77999877929688 C 377.16534423828125 226.46665954589844 377.6786804199219 225.44667053222656 378.7053527832031 224.72000122070312 C 379.725341796875 223.98666381835938 381.1387023925781 223.6199951171875 382.9453430175781 223.6199951171875 M 380.9053649902344 236.3000030517578 C 380.9053649902344 236.7866668701172 381.0753479003906 237.17666625976562 381.41534423828125 237.47000122070312 C 381.76202392578125 237.76333618164062 382.2386779785156 237.91000366210938 382.8453674316406 237.91000366210938 C 384.225341796875 237.91000366210938 384.91534423828125 237.40333557128906 384.91534423828125 236.38999938964844 C 384.91534423828125 236.00999450683594 384.7653503417969 235.63333129882812 384.4653625488281 235.25999450683594 C 384.15869140625 234.89334106445312 383.6186828613281 234.47999572753906 382.8453674316406 234.02000427246094 C 382.15203857421875 234.3866729736328 381.6553649902344 234.75332641601562 381.3553466796875 235.1199951171875 C 381.05535888671875 235.4933319091797 380.9053649902344 235.8866729736328 380.9053649902344 236.3000030517578 M 382.91534423828125 226.9600067138672 C 382.52203369140625 226.9600067138672 382.1886901855469 227.07666015625 381.91534423828125 227.30999755859375 C 381.64202880859375 227.5366668701172 381.50537109375 227.8333282470703 381.50537109375 228.1999969482422 C 381.50537109375 228.8733367919922 381.9620361328125 229.46665954589844 382.8753662109375 229.97999572753906 C 383.4286804199219 229.66000366210938 383.80535888671875 229.3699951171875 384.00537109375 229.11000061035156 C 384.2120361328125 228.8433380126953 384.31536865234375 228.5399932861328 384.31536865234375 228.1999969482422 C 384.31536865234375 227.82666015625 384.1786804199219 227.52667236328125 383.9053649902344 227.3000030517578 C 383.63201904296875 227.07333374023438 383.3020324707031 226.9600067138672 382.91534423828125 226.9600067138672 Z" transform="matrix(0.5105137825012207, 0, 0, 0.5105137825012207, -106.22962951660156, -73.94639587402344)" style="fill: rgb(51, 51, 51); white-space: pre; color: rgb(51, 51, 51);"/></svg>