<svg xmlns="http://www.w3.org/2000/svg" viewBox="0 0 289 200"><title>perruquero6</title><g fill="#212121" class="nc-icon-wrapper"><g id="surface1"><path d="M124.836 11.621c-2.988.602-5.98 2.531-9.098 5.918-1.625 1.758-2.949 3.387-2.949 3.559 0 .644 5.082 3.687 6.668 3.988l1.535.258-1.07 1.156c-.55.645-1.281 1.59-1.535 2.102-.43.816-.856.988-2.606.988-5.726 0-13.715 2.055-18.926 4.8-3.46 1.844-6.539 4.762-7.863 7.333-.937 1.886-1.066 2.574-.851 4.976.254 3.387.086 3.774-5.254 12.047-6.157 9.524-7.48 12.867-7.184 18.184.344 6.644 5.215 11.965 11.922 12.906 3.719.559 10.082-1.844 14.059-5.273 1.449-1.2 1.879-1.372 2.175-.903.215.344.387.73.387.945 0 .172.469 1.29 1.07 2.532.594 1.199 1.063 2.273 1.063 2.312 0 .047-1.492.172-3.29.258-6.577.43-14.609 5.32-17.855 10.852-2.261 3.816-2.18 7.46.168 10.46l1.368 1.72-3.547.124-3.543.13-.13 14.495-.128 14.45 1.066.43c.602.214 3.848.3 7.692.128 7.476-.3 7.093-.043 7.093-4.203 0-3.086-.3-3.387-3.546-3.387-1.54-.043-2.907-.129-2.989-.258-.129-.128-.129-.683 0-1.285.168-.988.383-1.074 1.965-.945 2.734.172 3.93-.64 3.969-2.703.047-.942-.04-2.485-.211-3.43l-.254-1.715-4.703-.425-.129-1.844c-.129-1.504 0-1.805.645-1.844.425 0 1.75-.047 2.906-.086 2.09-.086 2.133-.133 2.261-1.46.13-1.329.172-1.372 1.282-.86.64.258 1.238.558 1.324.601.129.086.3 5.446.426 11.922.172 7.117.43 11.922.683 12.18.301.297 1.711.344 3.848.129l3.418-.301.043-4.074c.043-2.23.125-4.29.125-4.504.086-.516 1.629 2.488 2.992 5.875.516 1.328 1.285 2.531 1.668 2.703.344.129 2.262.129 4.227-.043 2.906-.258 3.55-.43 3.55-.988 0-.43-1.156-2.828-2.523-5.403l-2.563-4.628 1.88-2.145c3.074-3.559 3.59-8.02 1.28-11.492-.597-.945-1.663-2.059-2.35-2.488l-1.24-.727 2.782-1.848c2.902-1.925 3.586-2.957 3.586-5.445 0-.855.129-1.457.344-1.371 3.926 2.016 7.687 3.516 10.082 4.031 4.054.86 11.75.942 12.262.13.21-.345.34-1.888.296-3.52l-.129-2.872h1.372c1.535 0 1.578.13 1.406 4.16-.043 1.672.043 1.844.984 1.844.555 0 1.156-.129 1.324-.343.172-.172.47-.301.598-.344 1.113-.125 2.652-.77 2.652-1.07 0-.215.121-.344.34-.301.77.129 3.5-1.414 3.246-1.887-.172-.258-.129-.344.13-.215.468.301 4.91-3.472 4.655-3.945-.085-.129.13-.512.47-.856.597-.558.64-.43.382.985-.168.898-.168 2.875 0 4.375l.258 2.742 3.203 2.144c1.754 1.2 3.508 2.145 3.934 2.145.382 0 1.152.3 1.664.688l.984.687-1.281 1.414c-1.41 1.629-2.008 3.899-2.567 10.078-.683 7.328.473 11.703 3.934 14.88 2.09 1.929 3.93 2.526 6.793 2.144 1.578-.215 1.883-.086 3.117 1.242.77.812 1.793 1.457 2.266 1.457.469 0 1.75-.817 2.906-1.844l2.008-1.844-1.113-1.672c-1.067-1.542-1.067-1.714-.47-2.445.985-1.07 2.305-6.004 2.606-9.902.297-4.031-.64-8.024-2.562-10.68-.727-1.031-1.067-1.887-.813-1.972.258-.086 1.196-.688 2.137-1.333.894-.683 2.094-1.367 2.691-1.539 1.711-.515 3.801-2.359 5.172-4.46 1.106-1.715 1.235-2.274 1.067-4.16-.598-6.176-6.707-12.31-15.082-15.18-2.606-.903-6.707-1.114-8.461-.43-1.024.387-.98.215.644-1.844 2.39-2.957 4.055-6.644 4.91-10.637l.727-3.3 3.035 1.972c4.145 2.703 9.012 4.375 12.902 4.375 4.313 0 6.75-.945 9.614-3.816 4.699-4.762 5.511-10.55 2.347-16.98-1.41-2.833-2.648-4.376-8.113-10.036-7.695-7.933-8.375-8.793-8.375-10.465 0-8.66-12.305-14.363-27.43-12.734l-5.086.559-1.277-1.543c-3.164-3.82-8.164-4.977-12.094-2.746l-1.879 1.074-1.582-2.32c-4.316-6.258-10.34-9.43-15.937-8.274zm16.793 19.727c-.172.21-.172.941 0 1.543l.258 1.113 1.32-1.586c1.242-1.5 1.371-1.586 3.29-1.285 1.07.172 3.163.644 4.612 1.113l2.649.816-.809 1.372c-1.41 2.445-1.324 2.574 2.992 5.488 4.786 3.215 10.465 8.578 13.028 12.18 4.402 6.261 6.195 18.097 3.761 25.128-7.18 21.098-43.277 29.118-59.214 13.207-4.36-4.417-6.664-11.019-6.153-17.796.13-1.672.516-3.645.856-4.286.34-.687 1.11-3.046 1.71-5.19 2.09-7.376 6.364-14.325 12.602-20.454 2.989-2.918 3.031-3.004 2.438-4.16-.344-.645-1.156-1.543-1.797-2.016l-1.156-.812 1.71-1.118c.899-.64 2.52-1.414 3.547-1.8 2.137-.73 3.93-.387 6.153 1.16 1.152.812 1.152.812 1.152-.086 0-.516-.215-1.29-.426-1.762-.425-.726-.3-.812.942-.812 1.238 0 1.578.254 2.476 1.93.938 1.757 1.11 1.886 1.582 1.199.297-.387.551-1.243.551-1.844 0-.64.129-1.285.3-1.414.47-.473 1.923-.344 1.626.172zm39.262 61.535c3.332 1.37 6.28 3.3 8.16 5.402 1.75 1.887 3.164 4.758 3.203 6.219 0 1.027-2.734 4.414-3.59 4.414-.297 0-1.023-1.027-1.664-2.273l-1.152-2.227.086 2.656c.082 3.133-.301 3.735-3.293 5.106-3.715 1.757-8.246 1.113-11.407-1.63-1.066-.945-1.109-1.116-.77-3.304.216-1.285.345-2.398.259-2.484-.043-.047-.555.941-1.067 2.226-.558 1.29-1.199 2.36-1.457 2.36-.297 0-1.449-.727-2.605-1.543l-2.094-1.543.258-2.746c.3-2.871 1.281-5.274 2.906-7.032 2.992-3.175 7.473-5.316 10.211-4.847.813.129 2.648.687 4.016 1.246zm-73.012 1.672c4.738 2.27 7.902 6.816 7.902 11.449 0 2.398 0 2.398-2.008 3.73-1.07.73-2.222 1.329-2.52 1.329-.3 0-.855-.899-1.284-2.06-1.067-2.956-1.367-3.042-.942-.257.43 2.875.047 3.516-3.16 5.149-2.734 1.37-6.195 1.37-9.097 0-2.993-1.375-3.293-1.887-3.122-4.977.13-2.273.047-2.484-.468-1.844-.301.43-.813 1.414-1.157 2.145-.765 1.8-1.367 1.758-3.16-.086-1.707-1.758-1.879-3.387-.636-5.918 1.578-3.387 5.507-6.516 10.808-8.703 3.246-1.328 5.938-1.328 8.844.043zm0 25.73c.598.555 1.062 1.5 1.062 2.102 0 1.027-1.879 3.687-2.605 3.687-.211 0-.383-1.547-.383-3.433 0-3.73.258-4.075 1.926-2.356zm70.492 1.5c.809 1.586 1.621 7.461 1.238 9.219-.129.687-.726 2.101-1.324 3.129-.855 1.543-1.195 1.8-1.965 1.543-1.925-.555-2.097-1.328-1.879-6.86.254-5.832.98-8.32 2.391-8.32.555 0 1.152.516 1.54 1.29zm0 0" stroke="none" fill-rule="nonzero" fill="#212121" fill-opacity="1"></path><path d="M155.64 45.883c-1.495.902-3.117 3.129-4.187 5.789l-.723 1.715 1.493-1.586c1.707-1.844 3.078-2.485 5.511-2.485 2.18 0 4.274 1.243 5.555 3.344 1.2 1.969 1.496 1.156.77-2.36-.727-3.39-2.563-5.273-5.168-5.273-1.114 0-2.438.344-3.25.856zm0 0" stroke="none" fill-rule="nonzero" fill="#212121" fill-opacity="1"></path><path d="M120.992 49.871c-2.265 1.29-3.207 4.93-2.094 8.45l.602 1.929.55-2.059c.302-1.156 1.071-2.617 1.798-3.304 2.265-2.274 6.324-2.657 8.672-.77.597.473 1.066.645 1.066.426 0-.64-4.14-4.328-5.34-4.8-1.535-.598-4.058-.513-5.254.128zm0 0" stroke="none" fill-rule="nonzero" fill="#212121" fill-opacity="1"></path><path d="M137.57 64.707c-5.468.773-8.117 2.488-8.117 5.188 0 2.062 1.11 3.09 4.824 4.421 2.098.77 3.38 1.586 4.532 2.829l1.625 1.8-1.926 1.672c-4.824 4.29-10.422 5.317-14.996 2.785-2.051-1.156-3.117-2.183-6.45-6.215l-.851-1.074.805 2.274c2.441 6.734 7.48 11.023 11.964 10.164 3.075-.602 9.829-4.719 11.836-7.246l1.157-1.457 2.605 1.414c2.86 1.586 8.629 3.215 11.234 3.215 5.211-.043 9.06-5.102 9.782-12.864l.258-2.789-1.536 3.39c-1.925 4.286-3.336 6.044-6.156 7.634-1.832 1.07-2.734 1.285-5.125 1.285-2.82.043-6.152-.774-8.715-2.059l-1.152-.601 2.687-2.57c1.497-1.462 3.848-3.133 5.34-3.86 3.035-1.504 3.934-2.918 2.95-4.676-1.153-2.144-2.903-2.699-8.801-2.87-2.989-.048-6.492.038-7.774.21zm0 0" stroke="none" fill-rule="nonzero" fill="#212121" fill-opacity="1"></path><path d="M27.898 111.836c-.386.215-.558 4.418-.64 15.523l-.13 15.223 6.411.086c3.547.086 6.664-.043 7.008-.258.723-.472 1.32-4.504.894-6.047-.257-.945-.597-1.113-3.12-1.457l-2.86-.386.254-11.106c.215-9.05.129-11.105-.34-11.234-1.195-.387-7.008-.645-7.477-.344zm0 0" stroke="none" fill-rule="nonzero" fill="#212121" fill-opacity="1"></path><path d="M7.094 115.652c-.13 1.801-.258 8.493-.258 14.922v11.664l3.547.258c7.262.602 12.86.129 13.629-1.117.168-.297.34-1.711.34-3.172 0-3.644-.426-3.988-4.954-3.988-3.507 0-3.593-.043-3.593-1.028 0-1.117.687-1.546 2.523-1.546 2.137 0 3.031-1.07 3.031-3.602 0-3.215-.593-3.86-3.586-3.727l-2.39.082v-3.773l1.965-.3c1.109-.126 2.82-.259 3.757-.259.98 0 2.008-.21 2.31-.511.51-.516.722-5.317.253-6.52-.211-.601-1.367-.687-8.285-.687H7.39zm0 0" stroke="none" fill-rule="nonzero" fill="#212121" fill-opacity="1"></path><path d="M259.973 113.164c-5.895 2.703-8.59 13.594-5.723 22.984.766 2.575 2.047 4.16 5.254 6.563 3.16 2.402 11.02-.559 13.926-5.277 1.152-1.883 2.222-6.172 2.18-9.004 0-2.317-1.028-7.246-1.965-9.477-.817-2.016-3.59-4.93-5.555-5.789-2.223-1.027-5.899-1.027-8.117 0zm4.867 8.621c1.242.64 2.18 3.602 2.18 6.774 0 3.601-.98 5.832-2.649 6.004-.937.128-1.195-.086-1.664-1.5-.773-2.317-.773-10.079 0-10.981.684-.855 1.066-.898 2.133-.297zm0 0" stroke="none" fill-rule="nonzero" fill="#212121" fill-opacity="1"></path><path d="M123.77 113.164c-.856.172-1.754.473-1.922.645-.387.43-.086 26.543.34 28.086.3 1.07.386 1.117 3.035.988 4.953-.172 4.699.082 4.613-4.633-.043-2.23.043-4.16.129-4.246.129-.125.941 1.46 1.836 3.516 2.351 5.445 2.304 5.445 6.879 4.976 3.332-.3 3.8-.43 3.675-1.117-.085-.426-1.285-2.871-2.652-5.36l-2.52-4.585 1.325-1.375 1.367-1.414-1.11-1.157c-1.538-1.672-2.476-3.687-2.476-5.36 0-1.503 1.32-4.76 2.094-5.233.98-.602.383-1.2-2.395-2.485-2.347-1.031-3.547-1.289-6.707-1.418-2.136-.086-4.613 0-5.511.172zm7.773 7.16c1.242 1.586 1.156 3.219-.297 4.59-.64.645-1.324 1.16-1.496 1.16-.172 0-.297-1.547-.297-3.433 0-3.817.512-4.371 2.09-2.317zm0 0" stroke="none" fill-rule="nonzero" fill="#212121" fill-opacity="1"></path><path d="M144.703 113.078c-.726.688-.254 1.758.899 1.973 2.605.515 5.214 3.945 5.214 6.773 0 3.133-2.609 6.52-5.515 7.078-1.238.258-1.324.387-1.324 2.274 0 2.57 1.07 6.687 2.093 8.148 1.965 2.742 8.203 4.715 11.149 3.473 2.351-.988 4.535-3.945 5.386-7.418.895-3.477 1.028-10.336.34-17.84l-.382-4.46-2.993-.173c-4.953-.254-4.785-.472-4.355 4.676.383 4.887.039 12.95-.598 14.195-.258.47-.812.727-1.367.641-1.285-.172-1.496-1.758-1.496-10.762-.043-5.277-.172-7.847-.559-8.277-.507-.602-5.937-.899-6.492-.3zm0 0" stroke="none" fill-rule="nonzero" fill="#212121" fill-opacity="1"></path><path d="M191.445 113.164c-.472.3-.558 2.102-.343 10.164.21 10.246.77 13.809 2.39 16.035 1.711 2.403 7.48 4.461 10.469 3.688 1.496-.383 3.973-2.656 4.914-4.5 1.879-3.645 2.39-10.977 1.492-21.055l-.383-4.46-3.8-.044h-3.805l.172 3.86c.258 5.703-.043 13.98-.512 14.925-.258.47-.812.727-1.367.641-1.285-.172-1.496-1.844-1.54-10.977 0-5.015-.171-7.632-.51-8.062-.556-.688-6.153-.86-7.177-.215zm0 0" stroke="none" fill-rule="nonzero" fill="#212121" fill-opacity="1"></path><path d="M213.617 113.078c-.258 3.988-.172 28.559.04 28.945.304.43 2.05.516 7.734.43 4.062-.086 7.476-.258 7.562-.344.133-.129.215-1.629.215-3.43.043-3.6-.34-4.16-2.606-3.773-.726.13-1.964.13-2.69-.043-1.114-.258-1.325-.472-1.2-1.375.133-.941.344-1.07 2.523-1.156 1.282-.043 2.606-.258 2.864-.43.683-.43.683-5.875 0-6.816-.344-.43-1.325-.73-2.48-.816l-1.923-.125-.129-1.844c-.125-2.016-.254-1.93 3.422-1.805 2.39.086 2.606-.344 2.39-4.715l-.128-2.789-7.777-.129c-4.313-.043-7.817.043-7.817.215zm0 0" stroke="none" fill-rule="nonzero" fill="#212121" fill-opacity="1"></path><path d="M234.465 113.078c-2.73.3-2.649-.3-2.219 16.98.168 7.508.465 12.137.766 12.524.386.516 1.113.555 3.89.3l3.418-.3-.086-4.418c-.043-2.402.086-4.285.258-4.16.211.086 1.196 2.016 2.219 4.289 1.027 2.23 2.137 4.16 2.476 4.289.344.129 2.223.129 4.192-.043 2.773-.215 3.543-.43 3.543-.941 0-.344-1.152-2.746-2.563-5.278-1.41-2.527-2.562-4.715-2.562-4.886 0-.172.64-.946 1.453-1.72 1.793-1.757 2.605-3.3 2.988-5.702.64-4.157-2.05-8.274-6.492-9.946-2.437-.945-7.95-1.414-11.281-.988zm7.562 7.207c1.368 1.328 1.368 2.828-.043 4.457-1.707 2.059-2.09 1.715-2.175-1.758-.086-4.203.296-4.675 2.218-2.699zm0 0" stroke="none" fill-rule="nonzero" fill="#212121" fill-opacity="1"></path><path d="M58.102 113.594c-1.067.3-1.067.344-1.196 5.402-.125 6.86.473 22.813.942 23.242.554.602 6.535.43 7.175-.215.301-.3.641-1.972.774-3.859l.21-3.3 2.223-.302c3.29-.472 5.98-1.93 7.473-3.945 1.242-1.672 1.285-1.887 1.113-5.445-.296-6.176-2.691-9.95-7.261-11.32-2.266-.645-9.399-.817-11.453-.258zm9.187 6.988c1.281.559 1.711 1.887 1.367 4.074-.34 1.887-.597 2.188-2.351 2.531l-1.364.258v-3.691c0-3.984.125-4.2 2.348-3.172zm0 0" stroke="none" fill-rule="nonzero" fill="#212121" fill-opacity="1"></path><path d="M91 149.484c-2.008 1.457-2.52 2.961-1.54 4.891.599 1.242.599 1.414-.167 2.7-1.113 1.804-1.113 4.16.039 5.577 1.926 2.485 7.223 2.528 9.703.04 1.192-1.2 1.363-1.672 1.363-3.56 0-2.058.086-2.183 1.07-2.183.9 0 1.071-.219 1.071-1.289 0-1.07-.172-1.285-1.07-1.285-.942 0-1.07-.172-1.07-1.504 0-1.883-.508-1.883-2.008 0-1.07 1.332-1.407 1.504-3.204 1.504-1.492 0-2.136-.215-2.433-.773-.645-1.2.086-1.93 1.793-1.715 1.238.129 1.625 0 1.922-.774.64-1.37-.043-1.968-2.305-2.187-1.543-.125-2.394 0-3.164.558zm5.984 8.918c0 1.891-1.027 2.918-2.691 2.746-1.54-.171-2.227-1.113-1.84-2.613.254-1.16.899-1.46 3.16-1.547 1.285-.039 1.371.047 1.371 1.414zm0 0" stroke="none" fill-rule="nonzero" fill="#212121" fill-opacity="1"></path><path d="M48.105 149.656c-2.734.86-4.101 3.13-4.101 6.95 0 2.742.984 5.617 2.18 6.644.941.773 4.101 1.371 5.43 1.027 1.023-.297 1.148-.554 1.105-1.93-.082-1.968-.594-2.527-2.39-2.57-1.325-.043-1.411-.129-1.794-2.144-.601-2.918.211-4.29 2.52-4.457 1.836-.172 2.351-.602 2.351-2.149 0-1.543-2.48-2.187-5.3-1.37zm0 0" stroke="none" fill-rule="nonzero" fill="#212121" fill-opacity="1"></path><path d="M110.996 149.57l-1.152.13-.133 6.304c-.168 8.703-.34 8.234 2.652 8.234 6.707 0 10.254-5.875 6.88-11.234-.684-1.117-1.712-2.234-2.266-2.531-1.11-.645-4.274-1.118-5.98-.903zm4.484 4.72c1.114.94.942 3.644-.257 5.058-1.45 1.672-2.004 1.03-2.004-2.188 0-4.156.297-4.547 2.261-2.87zm0 0" stroke="none" fill-rule="nonzero" fill="#212121" fill-opacity="1"></path><path d="M125.223 149.7c-2.266.902-3.59 3.859-3.504 7.76.086 3.474.469 4.59 2.05 6.134.985.941 1.497 1.113 2.864.902 1.836-.219 3.375-1.203 4.699-2.96 1.836-2.49.809-9.563-1.625-11.15-1.324-.859-3.289-1.156-4.484-.687zm3.117 7.417c.043 1.973-.938 3.645-1.793 3.09-.688-.43-1.027-4.203-.516-5.578l.473-1.285.898.945c.641.598.895 1.457.938 2.828zm0 0" stroke="none" fill-rule="nonzero" fill="#212121" fill-opacity="1"></path><path d="M135.902 149.914c-1.539 1.113-2.261 3.387-2.218 7.121.043 5.016 1.238 6.774 4.527 6.774 3.332 0 4.91-1.887 4.91-5.875 0-1.543-.172-1.93-1.023-2.317-.598-.3-1.711-.387-2.563-.215-1.41.258-1.539.43-1.539 1.758 0 1.074.172 1.5.684 1.5.386 0 .597.305.511.73-.171.86-.77 1.114-1.62.56-.731-.43-.731-3.645.038-5.876.516-1.629 1.028-1.8 1.668-.515.383.687.727.816 1.625.601 1.325-.344 2.22-.984 2.22-1.586 0-.258-.642-1.074-1.45-1.89-1.156-1.157-1.797-1.454-3.121-1.454-.895 0-2.094.297-2.649.684zm0 0" stroke="none" fill-rule="nonzero" fill="#212121" fill-opacity="1"></path><path d="M220.453 149.7c-.601.214-1.539 1.116-2.137 1.972-.984 1.418-1.066 1.973-1.066 5.832v4.246l1.621 1.5c1.453 1.332 1.836 1.457 3.203 1.2 1.84-.298 3.293-1.286 4.531-2.958 1.836-2.445.81-9.52-1.625-11.105-1.28-.86-3.289-1.157-4.527-.688zm3.074 7.503c-.039 2.23-.98 3.73-1.836 2.875-.511-.516-.64-5.363-.171-6.133.21-.386.554-.257 1.199.344.597.645.808 1.414.808 2.914zm0 0" stroke="none" fill-rule="nonzero" fill="#212121" fill-opacity="1"></path><path d="M56.695 149.957c-.086.215-.472 1.586-.855 3.133-2.52 10.246-2.52 10.676-.727 10.762.727.043 1.54.085 1.836.128.258.043.555-.386.64-.945.216-1.285 2.61-1.37 2.95-.086.254.988 1.797 1.5 3.246 1.117.985-.214.985-.343.64-2.832-.382-2.87-1.835-9.09-2.476-10.632-.344-.817-.726-.946-2.734-.946-1.281 0-2.434.13-2.52.301zm3.203 7.203c.086.945-.043 1.328-.64 1.414-.727.133-.77-.039-.559-1.5.133-.898.215-1.715.258-1.844.043-.687.816.86.941 1.93zm0 0" stroke="none" fill-rule="nonzero" fill="#212121" fill-opacity="1"></path><path d="M64.512 151.328c0 1.418.172 1.715.984 1.848.895.125.938.297 1.067 5.015.042 2.743.34 5.188.597 5.489.516.644 2.735.77 3.117.172.133-.215.258-2.747.258-5.575.043-4.547.13-5.187.77-5.187 1.11 0 1.625-.774 1.41-2.149l-.172-1.285h-8.031zm0 0" stroke="none" fill-rule="nonzero" fill="#212121" fill-opacity="1"></path><path d="M74.469 150.684c-1.797 1.546-1.625 3.734.469 6.605.98 1.371 1.535 2.531 1.367 2.918-.258.64-.387.64-1.328 0-1.32-.86-1.75-.644-2.133 1.07-.344 1.586.254 2.403 2.176 2.79 3.25.601 5.726-1.204 5.726-4.118 0-1.5-.297-2.058-1.965-3.86-1.62-1.714-1.836-2.187-1.281-2.401.383-.13.984-.043 1.324.257.813.684 1.367.258 1.711-1.37.254-1.118.125-1.5-.64-2.145-1.372-1.114-3.977-.989-5.426.254zm0 0" stroke="none" fill-rule="nonzero" fill="#212121" fill-opacity="1"></path><path d="M145.645 150.902c-1.922 1.93-1.668 3.602.98 7.032 1.582 1.972 1.41 3.386-.297 2.273-1.367-.902-1.367-.902-2.18.688-.683 1.328-.683 1.367.516 2.398.98.898 1.492.984 3.332.812 2.734-.253 4.098-1.671 4.098-4.199 0-1.457-.297-2.058-1.961-3.816-1.883-2.016-1.969-3.133-.172-2.145 1.148.598 1.578.301 1.918-1.37.43-1.805-.856-2.919-3.29-2.919-1.276 0-1.964.301-2.944 1.246zm0 0" stroke="none" fill-rule="nonzero" fill="#212121" fill-opacity="1"></path><path d="M160.727 150c-.942.129-.942.172-.856 7.074l.129 6.95h1.707c1.668 0 1.707-.044 2.094-1.801.344-1.586.515-1.805 1.836-2.059 2.222-.387 3.547-1.93 3.547-4.074 0-2.016-.813-4.246-1.922-5.149-.77-.64-4.7-1.199-6.535-.941zm3.93 3.344c.98.386.894 2.617-.13 3.129-1.066.601-1.324.218-1.324-1.758 0-1.625.211-1.844 1.453-1.371zm0 0" stroke="none" fill-rule="nonzero" fill="#212121" fill-opacity="1"></path><path d="M170.766 154.887c-.215 4.89-.13 8.836.297 9.218.386.391 7.05-.468 7.222-.94.13-.259.13-.985 0-1.63-.215-.984-.43-1.156-1.668-1.156-1.023 0-1.453-.215-1.453-.645 0-.43.43-.644 1.242-.644 1.578 0 1.922-.516 1.578-2.399-.254-1.16-.468-1.46-1.324-1.46-1.195 0-1.62-.516-1.238-1.5.215-.516.601-.641 1.324-.43.77.172 1.07.043 1.367-.688.172-.511.258-1.414.13-1.968-.173-.946-.34-.989-3.716-.989h-3.507zm0 0" stroke="none" fill-rule="nonzero" fill="#212121" fill-opacity="1"></path><path d="M179.863 151.328c0 1.418.172 1.715.985 1.848.898.125.941.297 1.066 5.015.043 2.743.344 5.188.602 5.489.597.77 2.687.683 3.332-.086.382-.473.468-1.973.34-5.574-.211-4.547-.172-4.93.558-4.93.98 0 1.578-1.074 1.32-2.406-.171-.985-.296-1.028-4.183-1.028h-4.02zm0 0" stroke="none" fill-rule="nonzero" fill="#212121" fill-opacity="1"></path><path d="M198.324 150.602c-1.5 1.628-1.586 3.085-.387 5.187.598 1.027 1.41 2.102 1.754 2.445.852.684.895 2.145.04 2.145-.344 0-1.067-.258-1.536-.559-.773-.43-.984-.386-1.71.512-1.024 1.246-1.024 1.547.128 2.574 1.067 1.031 3.29 1.543 4.828 1.16 1.41-.343 2.778-2.617 2.778-4.632 0-1.243-.344-2.016-1.496-3.301-.813-.903-1.496-1.973-1.496-2.403 0-.726.382-.773 2.523-.171.383.129.766-.344 1.023-1.286.598-1.886-.343-2.617-3.332-2.617-1.75 0-2.394.215-3.117.946zm0 0" stroke="none" fill-rule="nonzero" fill="#212121" fill-opacity="1"></path><path d="M206.652 149.957c-.168.129-.297 3.43-.297 7.29v7.03l1.836-.125 1.793-.129.13-2.918c.128-2.53.214-2.87.94-2.87.77 0 .856.3.856 3.042v3l1.578-.125c2.051-.172 2.18-.601 2.219-8.406l.047-6.09h-1.926c-1.879 0-1.918.043-1.918 1.371 0 2.063-.43 3.348-1.113 3.348-.43 0-.602-.645-.602-2.36v-2.359h-1.62c-.895 0-1.794.13-1.923.301zm0 0" stroke="none" fill-rule="nonzero" fill="#212121" fill-opacity="1"></path><path d="M228.828 154.031c-.133 2.442-.086 5.66.086 7.203l.297 2.79 1.582.128c1.879.172 2.605-.816 2.39-3.257-.128-1.504-.042-1.59 1.368-1.805 3.676-.64 5.297-3.645 3.633-6.817-.856-1.714-3.036-2.617-6.325-2.617h-2.773zm5.594-.258c.3.77-.297 1.973-1.067 2.23-.343.087-.511-.386-.511-1.374 0-1.625 1.066-2.184 1.578-.856zm0 0" stroke="none" fill-rule="nonzero" fill="#212121" fill-opacity="1"></path></g></g></svg>