<svg xmlns="http://www.w3.org/2000/svg" viewBox="0 0 128 128"><title>perro</title><g fill="#212121" class="nc-icon-wrapper"><path d="M117.7 37.65l-7.61-19.41c-2.29-5.84-7.82-9.61-14.09-9.61h-13.28c-4.6-5.36-11.4-8.63-18.72-8.63s-14.13 3.27-18.72 8.63h-13.29c-6.27 0-11.8 3.77-14.08 9.61l-7.61 19.41c-1.72 4.39-1.29 9.21 1.19 13.22 2.47 4.01 6.58 6.56 11.27 6.99 0.45 0.04 0.92 0.06 1.38 0.07 2.42 0 4.76-0.58 6.86-1.68a101.65 101.65 0 0 0-0.15 5.46c0 7.67 3.19 14.61 8.32 19.57-9.64 13-14.93 28.63-14.93 44.84a1.88 1.88 0 0 0 3.75 0c0-12.64 3.33-24.87 9.66-35.69a27.89 27.89 0 0 0 5.56 9.4c3.26 3.64 7.4 6.35 12 7.87 1.67 3.15 4.98 5.31 8.79 5.31 3.81 0 7.12-2.15 8.79-5.31 3.37-1.11 6.46-2.85 9.2-5.15a1.88 1.88 0 0 0-2.42-2.87c-1.73 1.46-3.62 2.65-5.64 3.56 0-0.05 0-0.11 0-0.16a9.87 9.87 0 0 0-0.76-3.82c5.55-2.82 9.53-8.06 10.72-14.19a27.34 27.34 0 0 0 2.06-1.36c0.13 0.18 1.59 2.3 1.7 2.47a23.93 23.93 0 0 1-2.86 7.35 1.88 1.88 0 0 0 0.65 2.57c0.88 0.52 2.04 0.25 2.57-0.65a27.74 27.74 0 0 0 2.34-5.02c6.34 10.82 9.67 23.06 9.66 35.69 0 1.04 0.84 1.88 1.88 1.88s1.88-0.84 1.87-1.88c0-16.76-5.42-31.35-14.93-44.84 5.12-4.95 8.32-11.89 8.31-19.57 0-1.83-0.05-3.65-0.15-5.46 2.1 1.1 4.44 1.68 6.86 1.68 0.46 0 0.93-0.02 1.38-0.07 4.69-0.43 8.8-2.98 11.28-6.99 2.48-4.01 2.91-8.83 1.19-13.22z m-63.63 65.58c-6.95-3.15-12.14-9.53-13.72-17.05 0.12-0.17 1.58-2.29 1.7-2.47a27.27 27.27 0 0 0 2.06 1.36c1.19 6.13 5.17 11.37 10.72 14.19a9.87 9.87 0 0 0-0.76 3.82c0 0.05 0 0.1 0 0.15z m9.93 6.03c-3.41 0-6.18-2.77-6.18-6.18 0-3.41 2.77-6.18 6.18-6.18s6.18 2.77 6.18 6.18c0 3.41-2.77 6.18-6.18 6.18z m7.07-13.14c-1.8-1.83-4.31-2.97-7.07-2.97s-5.27 1.14-7.07 2.97a16.56 16.56 0 0 1-8.29-8.87c2.94 1.09 6.13 1.69 9.44 1.69h11.84c3.32 0 6.5-0.6 9.44-1.69a16.56 16.56 0 0 1-8.29 8.87z m-1.15-10.93h-11.84c-12.95 0-23.48-10.53-23.48-23.48a97.54 97.54 0 0 1 4.58-29.55 1.88 1.88 0 0 0-3.57-1.13 101.29 101.29 0 0 0-4.24 20.46c-2.02 1.73-4.56 2.68-7.22 2.69-0.35 0-0.7-0.02-1.04-0.05-3.51-0.32-6.58-2.23-8.43-5.23-1.85-3-2.17-6.6-0.89-9.88l7.61-19.41c1.72-4.39 5.88-7.23 10.6-7.23h10.62a24.51 24.51 0 0 0-1.84 3.99l-2.26 6.32a1.88 1.88 0 0 0 3.53 1.26l2.26-6.32c2.96-8.3 10.88-13.88 19.69-13.88s16.73 5.58 19.69 13.88l4.01 11.23c3.78 10.57 5.69 21.63 5.7 32.85 0 12.95-10.53 23.48-23.48 23.48z m43.4-36.29c-1.85 3-4.92 4.9-8.43 5.23a11.24 11.24 0 0 1-1.03 0.05c-2.67 0-5.21-0.95-7.23-2.69a101.16 101.16 0 0 0-5.39-23.89l-4.02-11.23a24.52 24.52 0 0 0-1.84-3.99h10.62c4.72 0 8.88 2.84 10.6 7.23l7.61 19.41c1.29 3.28 0.96 6.89-0.89 9.88z m-38.8 14.74a1.88 1.88 0 0 0-1.88 1.88v0.81c0 0.9-0.35 1.75-0.99 2.39a3.37 3.37 0 0 1-2.39 0.99c-1.87 0-3.38-1.52-3.39-3.38v-1.87a5.07 5.07 0 0 0 2.07-1.51l6.01-7.38c1.25-1.54 1.5-3.6 0.64-5.39-0.85-1.79-2.61-2.9-4.58-2.89h-12.02c-1.98 0-3.74 1.11-4.58 2.89s-0.6 3.85 0.64 5.39l6.01 7.38a5.07 5.07 0 0 0 2.06 1.51v1.87c0 1.86-1.52 3.38-3.38 3.38-0.9 0-1.75-0.35-2.39-0.99a3.36 3.36 0 0 1-0.99-2.39v-0.81a1.88 1.88 0 0 0-3.75 0v0.81c0 1.91 0.74 3.7 2.09 5.05 1.35 1.35 3.14 2.09 5.04 2.08 2.08 0 3.95-0.89 5.26-2.31 1.3 1.42 3.18 2.32 5.26 2.31 1.9 0 3.69-0.74 5.04-2.08 1.35-1.35 2.09-3.14 2.09-5.05v-0.81a1.87 1.87 0 0 0-1.87-1.88z m-10.5-2.57c-0.01 0-0.02 0-0.02 0-0.01 0-0.02 0-0.02 0-0.24 0-0.67-0.08-1.01-0.49l-6.01-7.38c-0.48-0.59-0.28-1.18-0.17-1.41 0.11-0.23 0.44-0.76 1.2-0.75h12.02c0.76 0 1.09 0.53 1.2 0.75s0.31 0.82-0.17 1.41l-6.01 7.38c-0.34 0.41-0.77 0.48-1.01 0.49z m10.8-33.28c-3.84 0-6.96 3.12-6.96 6.96 0 1.04 0.84 1.88 1.87 1.88s1.88-0.84 1.88-1.88c0-1.77 1.44-3.21 3.21-3.21s3.21 1.44 3.2 3.21c0 1.04 0.84 1.88 1.88 1.88s1.88-0.84 1.87-1.88c0-3.84-3.12-6.96-6.95-6.96z m-18.43 6.96a1.88 1.88 0 0 0 3.75 0c0-3.84-3.12-6.96-6.96-6.96s-6.96 3.12-6.95 6.96a1.88 1.88 0 0 0 3.75 0c0-1.77 1.44-3.21 3.2-3.21s3.21 1.44 3.21 3.21z"></path></g></svg>