<svg xmlns="http://www.w3.org/2000/svg" viewBox="0 0 512 512"><title>perro_corte</title><g fill="#212121" class="nc-icon-wrapper"><path d="M466.999 422a44.87 44.87 0 0 0-12.043 1.65l-21.267-30.373 50.589-72.248c4.752-6.786 3.103-16.139-3.684-20.891-6.785-4.752-16.139-3.104-20.891 3.684l-44.326 63.303-44.326-63.303c-4.752-6.787-14.105-8.435-20.891-3.684-6.786 4.752-8.436 14.104-3.684 20.891l50.589 72.248-21.267 30.373a44.87 44.87 0 0 0-12.043-1.65c-24.813 0-45 20.187-45 45s20.187 45 45 45 45-20.186 45-45c0-9.737-3.119-18.754-8.395-26.126l15.017-21.446 15.017 21.446c-5.277 7.372-8.395 16.389-8.395 26.126 0 24.813 20.187 45 45 45s45-20.186 45-45-20.187-45-45-45zm-103.244 60c-8.271 0-15-6.729-15-15s6.729-15 15-15 15 6.729 15 15-6.728 15-15 15zm103.244 0c-8.271 0-15-6.729-15-15s6.729-15 15-15 15 6.729 15 15-6.729 15-15 15z"></path><path d="M319.436 77.685l24.061 74.035c22.695-15.636 32.466-44.941 22.791-71.523l-14.476-39.771c-11.586-31.83-46.907-48.303-78.737-36.715a60.606 60.606 0 0 0-5.931 2.535c24.034 17.144 42.667 41.826 52.292 71.439z"></path><path d="M102.863 6.244a60.71 60.71 0 0 0-5.931-2.535C65.101-7.878 29.781 8.594 18.194 40.424L3.719 80.196c-9.675 26.583.097 55.888 22.791 71.523l24.06-74.034c9.626-29.613 28.259-54.295 52.293-71.441z"></path><path d="M185.004 210.023c-20.54 0-24.479 3.499-24.898 3.947-.039.135-.102.479-.102 1.053 0 8.448 11.318 25 25 25s25-16.552 25-25c0-.573-.063-.918-.102-1.053-.419-.448-4.358-3.947-24.898-3.947z"></path><path d="M329.197 204.778l-38.292-117.82C275.948 40.94 233.39 10.022 185.003 10.022S94.058 40.941 79.102 86.958L40.81 204.779a118.419 118.419 0 0 0-5.807 36.654c0 65.39 53.199 118.589 118.589 118.589h62.822c65.39 0 118.589-53.199 118.589-118.589a118.409 118.409 0 0 0-5.806-36.655zM125.004 125c0-8.284 6.716-15 15-15s15 6.716 15 15-6.716 15-15 15c-8.285 0-15-6.716-15-15zm75 142.545v27.478c0 8.284-6.716 15-15 15s-15-6.716-15-15v-27.478c-23.128-7.672-40-31.868-40-52.522 0-13.919 7.49-24.615 21.089-30.118 8.344-3.376 18.803-4.882 33.911-4.882s25.566 1.506 33.911 4.882c13.6 5.503 21.089 16.199 21.089 30.118 0 20.654-16.872 44.85-40 52.522zm30-127.545c-8.284 0-15-6.716-15-15s6.716-15 15-15 15 6.716 15 15-6.716 15-15 15z"></path></g></svg>