<?xml version="1.0" encoding="UTF-8"?>
<svg xmlns="http://www.w3.org/2000/svg" xmlns:xlink="http://www.w3.org/1999/xlink" width="72pt" height="50pt" viewBox="0 0 72 50" version="1.1">
<g id="surface1">
<path style=" stroke:none;fill-rule:nonzero;fill:rgb(0%,0%,0%);fill-opacity:1;" d="M 31.160156 2.90625 C 30.414062 3.054688 29.664062 3.539062 28.886719 4.382812 C 28.480469 4.824219 28.152344 5.230469 28.152344 5.273438 C 28.152344 5.433594 29.421875 6.195312 29.816406 6.269531 L 30.199219 6.335938 L 29.933594 6.625 C 29.792969 6.785156 29.613281 7.023438 29.546875 7.152344 C 29.441406 7.355469 29.335938 7.398438 28.898438 7.398438 C 27.46875 7.398438 25.476562 7.910156 24.175781 8.597656 C 23.308594 9.058594 22.542969 9.789062 22.210938 10.429688 C 21.976562 10.902344 21.945312 11.074219 22 11.675781 C 22.0625 12.519531 22.019531 12.617188 20.6875 14.6875 C 19.152344 17.066406 18.820312 17.902344 18.894531 19.230469 C 18.980469 20.894531 20.195312 22.222656 21.871094 22.460938 C 22.796875 22.597656 24.386719 22 25.378906 21.140625 C 25.742188 20.839844 25.847656 20.796875 25.921875 20.914062 C 25.976562 21 26.019531 21.097656 26.019531 21.152344 C 26.019531 21.195312 26.136719 21.472656 26.285156 21.785156 C 26.433594 22.085938 26.550781 22.351562 26.550781 22.363281 C 26.550781 22.375 26.179688 22.40625 25.730469 22.425781 C 24.089844 22.535156 22.085938 23.757812 21.273438 25.140625 C 20.707031 26.09375 20.730469 27.003906 21.316406 27.753906 L 21.65625 28.183594 L 20.773438 28.214844 L 19.886719 28.25 L 19.855469 31.871094 L 19.824219 35.484375 L 20.089844 35.589844 C 20.238281 35.644531 21.050781 35.667969 22.007812 35.625 C 23.875 35.550781 23.78125 35.613281 23.78125 34.574219 C 23.78125 33.800781 23.703125 33.726562 22.894531 33.726562 C 22.511719 33.714844 22.167969 33.695312 22.148438 33.660156 C 22.117188 33.628906 22.117188 33.492188 22.148438 33.339844 C 22.191406 33.09375 22.242188 33.074219 22.636719 33.105469 C 23.320312 33.148438 23.621094 32.945312 23.628906 32.429688 C 23.640625 32.195312 23.621094 31.808594 23.578125 31.570312 L 23.511719 31.144531 L 22.339844 31.035156 L 22.308594 30.574219 C 22.277344 30.199219 22.308594 30.125 22.46875 30.113281 C 22.574219 30.113281 22.90625 30.101562 23.191406 30.09375 C 23.714844 30.070312 23.726562 30.058594 23.757812 29.726562 C 23.789062 29.394531 23.800781 29.382812 24.078125 29.511719 C 24.238281 29.578125 24.386719 29.652344 24.410156 29.664062 C 24.441406 29.683594 24.484375 31.023438 24.515625 32.644531 C 24.558594 34.421875 24.621094 35.625 24.6875 35.6875 C 24.761719 35.761719 25.113281 35.773438 25.644531 35.71875 L 26.5 35.644531 L 26.507812 34.625 C 26.519531 34.070312 26.542969 33.554688 26.542969 33.5 C 26.5625 33.371094 26.945312 34.125 27.289062 34.96875 C 27.414062 35.300781 27.609375 35.601562 27.703125 35.644531 C 27.789062 35.675781 28.269531 35.675781 28.757812 35.632812 C 29.484375 35.570312 29.644531 35.527344 29.644531 35.386719 C 29.644531 35.28125 29.355469 34.679688 29.015625 34.039062 L 28.375 32.878906 L 28.84375 32.34375 C 29.613281 31.453125 29.742188 30.339844 29.164062 29.46875 C 29.015625 29.234375 28.75 28.957031 28.578125 28.847656 L 28.269531 28.667969 L 28.960938 28.207031 C 29.6875 27.722656 29.859375 27.464844 29.859375 26.84375 C 29.859375 26.628906 29.890625 26.480469 29.941406 26.5 C 30.925781 27.003906 31.863281 27.378906 32.460938 27.507812 C 33.472656 27.722656 35.390625 27.746094 35.519531 27.539062 C 35.574219 27.453125 35.605469 27.070312 35.59375 26.660156 L 35.5625 25.945312 L 35.902344 25.945312 C 36.289062 25.945312 36.296875 25.976562 36.257812 26.984375 C 36.246094 27.402344 36.265625 27.445312 36.5 27.445312 C 36.640625 27.445312 36.789062 27.410156 36.832031 27.359375 C 36.875 27.316406 36.949219 27.285156 36.980469 27.273438 C 37.257812 27.242188 37.640625 27.078125 37.640625 27.003906 C 37.640625 26.949219 37.675781 26.917969 37.726562 26.929688 C 37.917969 26.960938 38.601562 26.574219 38.539062 26.457031 C 38.496094 26.394531 38.507812 26.371094 38.570312 26.40625 C 38.6875 26.480469 39.796875 25.535156 39.730469 25.417969 C 39.710938 25.386719 39.765625 25.289062 39.847656 25.203125 C 40 25.0625 40.007812 25.097656 39.945312 25.449219 C 39.902344 25.675781 39.902344 26.167969 39.945312 26.542969 L 40.007812 27.230469 L 40.808594 27.765625 C 41.246094 28.066406 41.683594 28.300781 41.789062 28.300781 C 41.886719 28.300781 42.078125 28.375 42.207031 28.472656 L 42.453125 28.644531 L 42.132812 29 C 41.78125 29.40625 41.628906 29.972656 41.492188 31.519531 C 41.320312 33.351562 41.609375 34.445312 42.472656 35.238281 C 42.996094 35.71875 43.453125 35.871094 44.167969 35.773438 C 44.5625 35.71875 44.636719 35.753906 44.945312 36.085938 C 45.136719 36.289062 45.394531 36.449219 45.511719 36.449219 C 45.628906 36.449219 45.949219 36.246094 46.238281 35.988281 L 46.738281 35.527344 L 46.460938 35.109375 C 46.195312 34.722656 46.195312 34.679688 46.34375 34.5 C 46.589844 34.230469 46.917969 32.996094 46.992188 32.023438 C 47.070312 31.015625 46.835938 30.015625 46.355469 29.351562 C 46.171875 29.09375 46.085938 28.878906 46.152344 28.859375 C 46.214844 28.839844 46.449219 28.6875 46.683594 28.527344 C 46.910156 28.355469 47.207031 28.183594 47.355469 28.140625 C 47.78125 28.011719 48.304688 27.550781 48.648438 27.027344 C 48.925781 26.597656 48.957031 26.457031 48.914062 25.984375 C 48.765625 24.441406 47.238281 22.910156 45.148438 22.191406 C 44.5 21.964844 43.476562 21.914062 43.039062 22.085938 C 42.78125 22.179688 42.792969 22.136719 43.199219 21.625 C 43.796875 20.882812 44.210938 19.960938 44.425781 18.964844 L 44.605469 18.140625 L 45.363281 18.632812 C 46.398438 19.308594 47.613281 19.726562 48.582031 19.726562 C 49.660156 19.726562 50.269531 19.488281 50.980469 18.769531 C 52.15625 17.582031 52.359375 16.132812 51.570312 14.527344 C 51.21875 13.820312 50.90625 13.433594 49.542969 12.019531 C 47.625 10.035156 47.453125 9.820312 47.453125 9.402344 C 47.453125 7.234375 44.382812 5.808594 40.605469 6.21875 L 39.335938 6.355469 L 39.019531 5.972656 C 38.230469 5.015625 36.980469 4.726562 36 5.285156 L 35.53125 5.554688 L 35.136719 4.972656 C 34.058594 3.410156 32.554688 2.617188 31.160156 2.90625 Z M 35.347656 7.835938 C 35.308594 7.890625 35.308594 8.074219 35.347656 8.222656 L 35.414062 8.5 L 35.742188 8.105469 C 36.054688 7.730469 36.085938 7.707031 36.566406 7.78125 C 36.832031 7.824219 37.355469 7.945312 37.71875 8.0625 L 38.378906 8.265625 L 38.175781 8.609375 C 37.824219 9.21875 37.84375 9.25 38.921875 9.980469 C 40.117188 10.785156 41.535156 12.125 42.175781 13.023438 C 43.273438 14.589844 43.71875 17.550781 43.113281 19.308594 C 41.320312 24.582031 32.308594 26.585938 28.332031 22.609375 C 27.246094 21.503906 26.667969 19.855469 26.796875 18.160156 C 26.828125 17.742188 26.925781 17.25 27.011719 17.089844 C 27.097656 16.917969 27.289062 16.328125 27.4375 15.792969 C 27.960938 13.945312 29.027344 12.210938 30.582031 10.675781 C 31.328125 9.949219 31.339844 9.925781 31.191406 9.636719 C 31.105469 9.476562 30.902344 9.25 30.742188 9.132812 L 30.453125 8.929688 L 30.882812 8.652344 C 31.105469 8.492188 31.511719 8.296875 31.765625 8.199219 C 32.300781 8.019531 32.746094 8.105469 33.300781 8.492188 C 33.589844 8.695312 33.589844 8.695312 33.589844 8.46875 C 33.589844 8.339844 33.535156 8.148438 33.484375 8.03125 C 33.375 7.847656 33.410156 7.824219 33.71875 7.824219 C 34.027344 7.824219 34.113281 7.890625 34.335938 8.308594 C 34.570312 8.746094 34.613281 8.78125 34.730469 8.609375 C 34.804688 8.511719 34.871094 8.296875 34.871094 8.148438 C 34.871094 7.988281 34.902344 7.824219 34.945312 7.792969 C 35.0625 7.675781 35.425781 7.707031 35.347656 7.835938 Z M 45.148438 23.21875 C 45.980469 23.5625 46.71875 24.046875 47.1875 24.570312 C 47.625 25.042969 47.976562 25.761719 47.984375 26.125 C 47.984375 26.382812 47.304688 27.230469 47.089844 27.230469 C 47.015625 27.230469 46.835938 26.972656 46.675781 26.660156 L 46.386719 26.105469 L 46.40625 26.769531 C 46.429688 27.550781 46.332031 27.703125 45.585938 28.042969 C 44.660156 28.484375 43.527344 28.324219 42.738281 27.636719 C 42.472656 27.402344 42.460938 27.359375 42.546875 26.8125 C 42.601562 26.488281 42.632812 26.210938 42.613281 26.191406 C 42.601562 26.179688 42.472656 26.425781 42.34375 26.746094 C 42.207031 27.070312 42.046875 27.335938 41.980469 27.335938 C 41.90625 27.335938 41.621094 27.15625 41.332031 26.949219 L 40.808594 26.566406 L 40.875 25.878906 C 40.949219 25.160156 41.191406 24.558594 41.597656 24.121094 C 42.34375 23.328125 43.464844 22.792969 44.148438 22.910156 C 44.347656 22.941406 44.808594 23.082031 45.148438 23.21875 Z M 26.925781 23.636719 C 28.109375 24.207031 28.898438 25.34375 28.898438 26.5 C 28.898438 27.101562 28.898438 27.101562 28.398438 27.433594 C 28.128906 27.617188 27.84375 27.765625 27.769531 27.765625 C 27.691406 27.765625 27.554688 27.539062 27.449219 27.25 C 27.179688 26.511719 27.105469 26.488281 27.214844 27.1875 C 27.320312 27.90625 27.222656 28.066406 26.425781 28.472656 C 25.742188 28.816406 24.878906 28.816406 24.152344 28.472656 C 23.40625 28.128906 23.332031 28 23.375 27.230469 C 23.40625 26.660156 23.386719 26.609375 23.257812 26.769531 C 23.183594 26.875 23.054688 27.121094 22.96875 27.304688 C 22.777344 27.753906 22.628906 27.746094 22.179688 27.285156 C 21.753906 26.84375 21.710938 26.4375 22.019531 25.804688 C 22.414062 24.957031 23.394531 24.175781 24.71875 23.628906 C 25.527344 23.296875 26.199219 23.296875 26.925781 23.636719 Z M 26.925781 30.070312 C 27.074219 30.210938 27.191406 30.445312 27.191406 30.597656 C 27.191406 30.851562 26.722656 31.519531 26.542969 31.519531 C 26.488281 31.519531 26.445312 31.132812 26.445312 30.660156 C 26.445312 29.726562 26.507812 29.640625 26.925781 30.070312 Z M 44.519531 30.445312 C 44.722656 30.84375 44.925781 32.3125 44.828125 32.75 C 44.796875 32.921875 44.648438 33.277344 44.5 33.535156 C 44.285156 33.917969 44.199219 33.984375 44.007812 33.917969 C 43.527344 33.78125 43.484375 33.585938 43.539062 32.203125 C 43.601562 30.746094 43.785156 30.125 44.136719 30.125 C 44.273438 30.125 44.425781 30.253906 44.519531 30.445312 Z M 44.519531 30.445312 "/>
<path style=" stroke:none;fill-rule:nonzero;fill:rgb(0%,0%,0%);fill-opacity:1;" d="M 38.847656 11.472656 C 38.472656 11.695312 38.070312 12.253906 37.800781 12.917969 L 37.621094 13.347656 L 37.992188 12.949219 C 38.421875 12.488281 38.761719 12.328125 39.371094 12.328125 C 39.914062 12.328125 40.4375 12.640625 40.757812 13.164062 C 41.054688 13.65625 41.128906 13.453125 40.949219 12.574219 C 40.765625 11.726562 40.308594 11.257812 39.65625 11.257812 C 39.378906 11.257812 39.050781 11.34375 38.847656 11.472656 Z M 38.847656 11.472656 "/>
<path style=" stroke:none;fill-rule:nonzero;fill:rgb(0%,0%,0%);fill-opacity:1;" d="M 30.199219 12.46875 C 29.632812 12.789062 29.398438 13.699219 29.675781 14.578125 L 29.824219 15.0625 L 29.964844 14.546875 C 30.039062 14.257812 30.230469 13.894531 30.414062 13.722656 C 30.976562 13.152344 31.992188 13.058594 32.578125 13.527344 C 32.726562 13.648438 32.84375 13.691406 32.84375 13.636719 C 32.84375 13.476562 31.808594 12.554688 31.511719 12.4375 C 31.125 12.285156 30.496094 12.308594 30.199219 12.46875 Z M 30.199219 12.46875 "/>
<path style=" stroke:none;fill-rule:nonzero;fill:rgb(0%,0%,0%);fill-opacity:1;" d="M 34.335938 16.175781 C 32.972656 16.371094 32.308594 16.800781 32.308594 17.472656 C 32.308594 17.988281 32.585938 18.246094 33.515625 18.578125 C 34.039062 18.769531 34.359375 18.976562 34.644531 19.285156 L 35.050781 19.734375 L 34.570312 20.15625 C 33.367188 21.226562 31.96875 21.484375 30.828125 20.851562 C 30.316406 20.5625 30.050781 20.304688 29.21875 19.296875 L 29.003906 19.027344 L 29.207031 19.597656 C 29.816406 21.28125 31.074219 22.351562 32.191406 22.136719 C 32.960938 21.988281 34.644531 20.957031 35.148438 20.324219 L 35.433594 19.960938 L 36.085938 20.316406 C 36.800781 20.710938 38.238281 21.121094 38.890625 21.121094 C 40.191406 21.109375 41.152344 19.84375 41.332031 17.902344 L 41.394531 17.207031 L 41.011719 18.054688 C 40.53125 19.125 40.179688 19.566406 39.476562 19.960938 C 39.019531 20.230469 38.792969 20.28125 38.195312 20.28125 C 37.492188 20.292969 36.660156 20.089844 36.019531 19.769531 L 35.734375 19.617188 L 36.40625 18.976562 C 36.777344 18.609375 37.363281 18.191406 37.738281 18.011719 C 38.496094 17.636719 38.71875 17.28125 38.472656 16.839844 C 38.1875 16.304688 37.75 16.167969 36.277344 16.125 C 35.53125 16.113281 34.65625 16.132812 34.335938 16.175781 Z M 34.335938 16.175781 "/>
<path style=" stroke:none;fill-rule:nonzero;fill:rgb(0%,0%,0%);fill-opacity:1;" d="M 6.964844 27.957031 C 6.867188 28.011719 6.824219 29.0625 6.804688 31.839844 L 6.769531 35.644531 L 8.371094 35.667969 C 9.257812 35.6875 10.035156 35.65625 10.121094 35.601562 C 10.300781 35.484375 10.449219 34.476562 10.34375 34.089844 C 10.28125 33.855469 10.195312 33.8125 9.566406 33.726562 L 8.851562 33.628906 L 8.914062 30.851562 C 8.96875 28.589844 8.945312 28.078125 8.828125 28.042969 C 8.53125 27.949219 7.082031 27.882812 6.964844 27.957031 Z M 6.964844 27.957031 "/>
<path style=" stroke:none;fill-rule:nonzero;fill:rgb(0%,0%,0%);fill-opacity:1;" d="M 1.769531 28.914062 C 1.738281 29.363281 1.707031 31.035156 1.707031 32.644531 L 1.707031 35.558594 L 2.589844 35.625 C 4.402344 35.773438 5.800781 35.65625 5.992188 35.34375 C 6.035156 35.269531 6.078125 34.917969 6.078125 34.550781 C 6.078125 33.640625 5.972656 33.554688 4.839844 33.554688 C 3.96875 33.554688 3.945312 33.542969 3.945312 33.296875 C 3.945312 33.019531 4.117188 32.910156 4.574219 32.910156 C 5.109375 32.910156 5.332031 32.644531 5.332031 32.011719 C 5.332031 31.207031 5.183594 31.046875 4.4375 31.078125 L 3.839844 31.101562 L 3.839844 30.15625 L 4.328125 30.082031 C 4.605469 30.050781 5.03125 30.015625 5.269531 30.015625 C 5.511719 30.015625 5.769531 29.964844 5.84375 29.886719 C 5.972656 29.761719 6.023438 28.558594 5.90625 28.257812 C 5.855469 28.109375 5.566406 28.085938 3.839844 28.085938 L 1.84375 28.085938 Z M 1.769531 28.914062 "/>
<path style=" stroke:none;fill-rule:nonzero;fill:rgb(0%,0%,0%);fill-opacity:1;" d="M 64.886719 28.292969 C 63.414062 28.964844 62.742188 31.691406 63.457031 34.039062 C 63.652344 34.679688 63.96875 35.078125 64.769531 35.675781 C 65.558594 36.277344 67.519531 35.539062 68.246094 34.359375 C 68.535156 33.886719 68.800781 32.816406 68.789062 32.109375 C 68.789062 31.527344 68.535156 30.296875 68.300781 29.738281 C 68.097656 29.234375 67.402344 28.503906 66.914062 28.292969 C 66.359375 28.035156 65.441406 28.035156 64.886719 28.292969 Z M 66.101562 30.445312 C 66.414062 30.605469 66.648438 31.347656 66.648438 32.140625 C 66.648438 33.039062 66.402344 33.597656 65.984375 33.640625 C 65.75 33.671875 65.6875 33.621094 65.570312 33.265625 C 65.378906 32.6875 65.378906 30.746094 65.570312 30.519531 C 65.742188 30.304688 65.835938 30.296875 66.101562 30.445312 Z M 66.101562 30.445312 "/>
<path style=" stroke:none;fill-rule:nonzero;fill:rgb(0%,0%,0%);fill-opacity:1;" d="M 30.890625 28.292969 C 30.679688 28.335938 30.453125 28.410156 30.414062 28.453125 C 30.316406 28.558594 30.390625 35.089844 30.496094 35.472656 C 30.574219 35.742188 30.59375 35.753906 31.253906 35.71875 C 32.492188 35.675781 32.425781 35.742188 32.40625 34.5625 C 32.394531 34.003906 32.417969 33.523438 32.4375 33.5 C 32.46875 33.46875 32.671875 33.867188 32.898438 34.378906 C 33.484375 35.742188 33.472656 35.742188 34.613281 35.625 C 35.445312 35.550781 35.5625 35.515625 35.53125 35.34375 C 35.507812 35.238281 35.210938 34.625 34.871094 34.003906 L 34.242188 32.859375 L 34.570312 32.515625 L 34.914062 32.160156 L 34.636719 31.871094 C 34.25 31.453125 34.015625 30.949219 34.015625 30.53125 C 34.015625 30.15625 34.347656 29.339844 34.539062 29.222656 C 34.785156 29.074219 34.636719 28.921875 33.941406 28.601562 C 33.355469 28.34375 33.058594 28.28125 32.269531 28.25 C 31.734375 28.226562 31.117188 28.25 30.890625 28.292969 Z M 32.832031 30.082031 C 33.140625 30.476562 33.121094 30.886719 32.757812 31.230469 C 32.597656 31.390625 32.425781 31.519531 32.386719 31.519531 C 32.34375 31.519531 32.308594 31.132812 32.308594 30.660156 C 32.308594 29.707031 32.4375 29.566406 32.832031 30.082031 Z M 32.832031 30.082031 "/>
<path style=" stroke:none;fill-rule:nonzero;fill:rgb(0%,0%,0%);fill-opacity:1;" d="M 36.117188 28.269531 C 35.9375 28.441406 36.054688 28.710938 36.339844 28.761719 C 36.992188 28.890625 37.640625 29.75 37.640625 30.457031 C 37.640625 31.238281 36.992188 32.085938 36.265625 32.226562 C 35.957031 32.289062 35.9375 32.320312 35.9375 32.792969 C 35.9375 33.4375 36.203125 34.464844 36.457031 34.832031 C 36.949219 35.515625 38.507812 36.011719 39.242188 35.699219 C 39.828125 35.453125 40.371094 34.710938 40.585938 33.84375 C 40.808594 32.976562 40.839844 31.261719 40.671875 29.382812 L 40.574219 28.269531 L 39.828125 28.226562 C 38.589844 28.164062 38.632812 28.109375 38.742188 29.394531 C 38.835938 30.617188 38.75 32.632812 38.589844 32.945312 C 38.527344 33.0625 38.386719 33.125 38.25 33.105469 C 37.929688 33.0625 37.875 32.664062 37.875 30.414062 C 37.867188 29.09375 37.835938 28.453125 37.738281 28.34375 C 37.609375 28.195312 36.257812 28.121094 36.117188 28.269531 Z M 36.117188 28.269531 "/>
<path style=" stroke:none;fill-rule:nonzero;fill:rgb(0%,0%,0%);fill-opacity:1;" d="M 47.78125 28.292969 C 47.664062 28.367188 47.644531 28.816406 47.699219 30.832031 C 47.75 33.394531 47.890625 34.285156 48.296875 34.839844 C 48.722656 35.441406 50.160156 35.957031 50.90625 35.761719 C 51.28125 35.667969 51.898438 35.097656 52.132812 34.636719 C 52.601562 33.726562 52.730469 31.894531 52.507812 29.375 L 52.410156 28.257812 L 51.460938 28.25 L 50.511719 28.25 L 50.554688 29.214844 C 50.621094 30.640625 50.546875 32.707031 50.425781 32.945312 C 50.363281 33.0625 50.226562 33.125 50.085938 33.105469 C 49.765625 33.0625 49.714844 32.644531 49.703125 30.359375 C 49.703125 29.105469 49.660156 28.453125 49.574219 28.34375 C 49.4375 28.171875 48.039062 28.128906 47.78125 28.292969 Z M 47.78125 28.292969 "/>
<path style=" stroke:none;fill-rule:nonzero;fill:rgb(0%,0%,0%);fill-opacity:1;" d="M 53.316406 28.269531 C 53.253906 29.265625 53.273438 35.410156 53.328125 35.507812 C 53.402344 35.613281 53.839844 35.632812 55.257812 35.613281 C 56.269531 35.589844 57.125 35.550781 57.144531 35.527344 C 57.175781 35.496094 57.199219 35.121094 57.199219 34.667969 C 57.210938 33.769531 57.113281 33.628906 56.546875 33.726562 C 56.367188 33.757812 56.058594 33.757812 55.875 33.714844 C 55.597656 33.652344 55.546875 33.597656 55.578125 33.371094 C 55.609375 33.136719 55.664062 33.105469 56.207031 33.082031 C 56.527344 33.074219 56.859375 33.019531 56.921875 32.976562 C 57.09375 32.867188 57.09375 31.507812 56.921875 31.269531 C 56.835938 31.164062 56.589844 31.089844 56.304688 31.066406 L 55.824219 31.035156 L 55.792969 30.574219 C 55.757812 30.070312 55.726562 30.09375 56.644531 30.125 C 57.242188 30.144531 57.296875 30.039062 57.242188 28.945312 L 57.210938 28.25 L 55.269531 28.214844 C 54.191406 28.207031 53.316406 28.226562 53.316406 28.269531 Z M 53.316406 28.269531 "/>
<path style=" stroke:none;fill-rule:nonzero;fill:rgb(0%,0%,0%);fill-opacity:1;" d="M 58.519531 28.269531 C 57.839844 28.34375 57.859375 28.195312 57.96875 32.515625 C 58.007812 34.390625 58.085938 35.550781 58.160156 35.644531 C 58.253906 35.773438 58.4375 35.785156 59.128906 35.71875 L 59.980469 35.644531 L 59.960938 34.542969 C 59.949219 33.941406 59.980469 33.46875 60.023438 33.5 C 60.078125 33.523438 60.324219 34.003906 60.578125 34.574219 C 60.835938 35.128906 61.113281 35.613281 61.199219 35.644531 C 61.28125 35.675781 61.753906 35.675781 62.242188 35.632812 C 62.9375 35.582031 63.128906 35.527344 63.128906 35.398438 C 63.128906 35.3125 62.839844 34.710938 62.488281 34.082031 C 62.136719 33.449219 61.847656 32.902344 61.847656 32.859375 C 61.847656 32.816406 62.007812 32.621094 62.210938 32.429688 C 62.660156 31.988281 62.863281 31.605469 62.957031 31.003906 C 63.117188 29.964844 62.445312 28.933594 61.335938 28.515625 C 60.730469 28.28125 59.351562 28.164062 58.519531 28.269531 Z M 60.410156 30.070312 C 60.75 30.402344 60.75 30.777344 60.398438 31.1875 C 59.972656 31.699219 59.875 31.613281 59.855469 30.746094 C 59.832031 29.695312 59.929688 29.578125 60.410156 30.070312 Z M 60.410156 30.070312 "/>
<path style=" stroke:none;fill-rule:nonzero;fill:rgb(0%,0%,0%);fill-opacity:1;" d="M 14.503906 28.398438 C 14.234375 28.472656 14.234375 28.484375 14.203125 29.75 C 14.171875 31.464844 14.320312 35.453125 14.4375 35.558594 C 14.578125 35.710938 16.070312 35.667969 16.230469 35.507812 C 16.304688 35.429688 16.390625 35.011719 16.421875 34.542969 L 16.476562 33.714844 L 17.03125 33.640625 C 17.851562 33.523438 18.523438 33.160156 18.894531 32.65625 C 19.203125 32.234375 19.214844 32.183594 19.171875 31.292969 C 19.097656 29.75 18.5 28.804688 17.359375 28.460938 C 16.796875 28.300781 15.015625 28.257812 14.503906 28.398438 Z M 16.796875 30.144531 C 17.113281 30.285156 17.222656 30.617188 17.136719 31.164062 C 17.050781 31.636719 16.988281 31.710938 16.550781 31.796875 L 16.207031 31.859375 L 16.207031 30.9375 C 16.207031 29.941406 16.242188 29.886719 16.796875 30.144531 Z M 16.796875 30.144531 "/>
<path style=" stroke:none;fill-rule:nonzero;fill:rgb(0%,0%,0%);fill-opacity:1;" d="M 22.714844 37.371094 C 22.210938 37.734375 22.085938 38.109375 22.328125 38.59375 C 22.480469 38.90625 22.480469 38.945312 22.285156 39.269531 C 22.007812 39.71875 22.007812 40.308594 22.296875 40.664062 C 22.777344 41.285156 24.097656 41.296875 24.71875 40.671875 C 25.015625 40.375 25.058594 40.253906 25.058594 39.785156 C 25.058594 39.269531 25.082031 39.238281 25.324219 39.238281 C 25.550781 39.238281 25.59375 39.183594 25.59375 38.914062 C 25.59375 38.648438 25.550781 38.59375 25.324219 38.59375 C 25.089844 38.59375 25.058594 38.550781 25.058594 38.21875 C 25.058594 37.746094 24.929688 37.746094 24.558594 38.21875 C 24.292969 38.550781 24.207031 38.59375 23.757812 38.59375 C 23.386719 38.59375 23.226562 38.539062 23.152344 38.402344 C 22.992188 38.101562 23.171875 37.917969 23.597656 37.972656 C 23.90625 38.003906 24.003906 37.972656 24.078125 37.777344 C 24.238281 37.4375 24.066406 37.285156 23.503906 37.230469 C 23.117188 37.199219 22.90625 37.230469 22.714844 37.371094 Z M 24.207031 39.601562 C 24.207031 40.074219 23.949219 40.332031 23.535156 40.289062 C 23.152344 40.246094 22.980469 40.007812 23.074219 39.632812 C 23.140625 39.34375 23.300781 39.269531 23.863281 39.246094 C 24.183594 39.238281 24.207031 39.257812 24.207031 39.601562 Z M 24.207031 39.601562 "/>
<path style=" stroke:none;fill-rule:nonzero;fill:rgb(0%,0%,0%);fill-opacity:1;" d="M 12.007812 37.414062 C 11.324219 37.628906 10.984375 38.195312 10.984375 39.152344 C 10.984375 39.835938 11.230469 40.554688 11.527344 40.8125 C 11.761719 41.003906 12.550781 41.15625 12.882812 41.070312 C 13.136719 40.996094 13.167969 40.929688 13.160156 40.585938 C 13.136719 40.09375 13.007812 39.953125 12.5625 39.945312 C 12.230469 39.933594 12.210938 39.910156 12.113281 39.410156 C 11.964844 38.679688 12.167969 38.335938 12.742188 38.292969 C 13.203125 38.25 13.328125 38.144531 13.328125 37.757812 C 13.328125 37.371094 12.710938 37.210938 12.007812 37.414062 Z M 12.007812 37.414062 "/>
<path style=" stroke:none;fill-rule:nonzero;fill:rgb(0%,0%,0%);fill-opacity:1;" d="M 27.703125 37.394531 L 27.414062 37.425781 L 27.382812 39 C 27.339844 41.175781 27.296875 41.058594 28.046875 41.058594 C 29.71875 41.058594 30.605469 39.589844 29.761719 38.25 C 29.589844 37.972656 29.335938 37.691406 29.195312 37.617188 C 28.917969 37.457031 28.128906 37.339844 27.703125 37.394531 Z M 28.824219 38.570312 C 29.101562 38.808594 29.058594 39.484375 28.757812 39.835938 C 28.398438 40.253906 28.257812 40.09375 28.257812 39.289062 C 28.257812 38.25 28.332031 38.152344 28.824219 38.570312 Z M 28.824219 38.570312 "/>
<path style=" stroke:none;fill-rule:nonzero;fill:rgb(0%,0%,0%);fill-opacity:1;" d="M 31.253906 37.425781 C 30.691406 37.648438 30.359375 38.390625 30.378906 39.367188 C 30.402344 40.234375 30.496094 40.511719 30.890625 40.898438 C 31.136719 41.132812 31.265625 41.175781 31.605469 41.125 C 32.066406 41.070312 32.449219 40.824219 32.78125 40.382812 C 33.238281 39.761719 32.980469 37.992188 32.375 37.597656 C 32.042969 37.382812 31.554688 37.308594 31.253906 37.425781 Z M 32.03125 39.28125 C 32.042969 39.773438 31.796875 40.191406 31.585938 40.050781 C 31.414062 39.945312 31.328125 39 31.457031 38.65625 L 31.574219 38.335938 L 31.796875 38.570312 C 31.957031 38.722656 32.023438 38.9375 32.03125 39.28125 Z M 32.03125 39.28125 "/>
<path style=" stroke:none;fill-rule:nonzero;fill:rgb(0%,0%,0%);fill-opacity:1;" d="M 33.921875 37.480469 C 33.535156 37.757812 33.355469 38.324219 33.367188 39.257812 C 33.375 40.511719 33.675781 40.953125 34.496094 40.953125 C 35.328125 40.953125 35.722656 40.480469 35.722656 39.484375 C 35.722656 39.097656 35.679688 39 35.46875 38.90625 C 35.316406 38.828125 35.039062 38.808594 34.828125 38.851562 C 34.476562 38.914062 34.441406 38.957031 34.441406 39.289062 C 34.441406 39.558594 34.484375 39.664062 34.613281 39.664062 C 34.710938 39.664062 34.761719 39.742188 34.742188 39.847656 C 34.699219 40.0625 34.550781 40.125 34.335938 39.988281 C 34.15625 39.878906 34.15625 39.074219 34.347656 38.519531 C 34.476562 38.109375 34.601562 38.066406 34.761719 38.390625 C 34.859375 38.5625 34.945312 38.59375 35.167969 38.539062 C 35.5 38.453125 35.722656 38.292969 35.722656 38.144531 C 35.722656 38.078125 35.5625 37.875 35.359375 37.671875 C 35.074219 37.382812 34.914062 37.308594 34.582031 37.308594 C 34.359375 37.308594 34.058594 37.382812 33.921875 37.480469 Z M 33.921875 37.480469 "/>
<path style=" stroke:none;fill-rule:nonzero;fill:rgb(0%,0%,0%);fill-opacity:1;" d="M 55.023438 37.425781 C 54.875 37.480469 54.640625 37.703125 54.492188 37.917969 C 54.246094 38.273438 54.222656 38.410156 54.222656 39.375 L 54.222656 40.4375 L 54.628906 40.8125 C 54.992188 41.144531 55.085938 41.175781 55.429688 41.113281 C 55.886719 41.039062 56.25 40.792969 56.558594 40.375 C 57.019531 39.761719 56.761719 37.992188 56.152344 37.597656 C 55.835938 37.382812 55.332031 37.308594 55.023438 37.425781 Z M 55.792969 39.300781 C 55.78125 39.859375 55.546875 40.234375 55.332031 40.019531 C 55.203125 39.890625 55.171875 38.679688 55.289062 38.484375 C 55.34375 38.390625 55.429688 38.421875 55.589844 38.570312 C 55.738281 38.734375 55.792969 38.925781 55.792969 39.300781 Z M 55.792969 39.300781 "/>
<path style=" stroke:none;fill-rule:nonzero;fill:rgb(0%,0%,0%);fill-opacity:1;" d="M 14.152344 37.488281 C 14.128906 37.542969 14.03125 37.886719 13.9375 38.273438 C 13.308594 40.835938 13.308594 40.941406 13.757812 40.960938 C 13.9375 40.972656 14.140625 40.984375 14.214844 40.996094 C 14.277344 41.003906 14.351562 40.898438 14.375 40.757812 C 14.425781 40.4375 15.023438 40.414062 15.109375 40.738281 C 15.175781 40.984375 15.558594 41.113281 15.921875 41.015625 C 16.164062 40.960938 16.164062 40.929688 16.082031 40.308594 C 15.984375 39.589844 15.621094 38.035156 15.460938 37.648438 C 15.375 37.445312 15.28125 37.414062 14.78125 37.414062 C 14.460938 37.414062 14.171875 37.445312 14.152344 37.488281 Z M 14.949219 39.289062 C 14.972656 39.527344 14.941406 39.621094 14.789062 39.644531 C 14.609375 39.675781 14.597656 39.632812 14.652344 39.269531 C 14.683594 39.042969 14.703125 38.839844 14.714844 38.808594 C 14.726562 38.636719 14.917969 39.023438 14.949219 39.289062 Z M 14.949219 39.289062 "/>
<path style=" stroke:none;fill-rule:nonzero;fill:rgb(0%,0%,0%);fill-opacity:1;" d="M 16.101562 37.832031 C 16.101562 38.1875 16.144531 38.261719 16.347656 38.292969 C 16.570312 38.324219 16.582031 38.367188 16.613281 39.546875 C 16.625 40.234375 16.699219 40.84375 16.761719 40.917969 C 16.890625 41.082031 17.445312 41.113281 17.542969 40.960938 C 17.574219 40.910156 17.605469 40.277344 17.605469 39.570312 C 17.617188 38.433594 17.636719 38.273438 17.796875 38.273438 C 18.074219 38.273438 18.203125 38.078125 18.148438 37.734375 L 18.105469 37.414062 L 16.101562 37.414062 Z M 16.101562 37.832031 "/>
<path style=" stroke:none;fill-rule:nonzero;fill:rgb(0%,0%,0%);fill-opacity:1;" d="M 18.585938 37.671875 C 18.136719 38.058594 18.179688 38.605469 18.703125 39.324219 C 18.949219 39.664062 19.085938 39.953125 19.046875 40.050781 C 18.980469 40.210938 18.949219 40.210938 18.714844 40.050781 C 18.382812 39.835938 18.277344 39.890625 18.179688 40.320312 C 18.097656 40.714844 18.246094 40.917969 18.726562 41.015625 C 19.535156 41.167969 20.152344 40.714844 20.152344 39.988281 C 20.152344 39.613281 20.078125 39.472656 19.664062 39.023438 C 19.257812 38.59375 19.203125 38.476562 19.34375 38.421875 C 19.441406 38.390625 19.589844 38.410156 19.675781 38.484375 C 19.875 38.65625 20.015625 38.550781 20.101562 38.144531 C 20.164062 37.863281 20.132812 37.769531 19.941406 37.605469 C 19.597656 37.328125 18.949219 37.359375 18.585938 37.671875 Z M 18.585938 37.671875 "/>
<path style=" stroke:none;fill-rule:nonzero;fill:rgb(0%,0%,0%);fill-opacity:1;" d="M 36.351562 37.726562 C 35.871094 38.207031 35.9375 38.625 36.597656 39.484375 C 36.992188 39.976562 36.949219 40.332031 36.523438 40.050781 C 36.179688 39.828125 36.179688 39.828125 35.980469 40.222656 C 35.808594 40.554688 35.808594 40.566406 36.105469 40.824219 C 36.351562 41.046875 36.480469 41.070312 36.9375 41.027344 C 37.621094 40.960938 37.960938 40.609375 37.960938 39.976562 C 37.960938 39.613281 37.886719 39.460938 37.472656 39.023438 C 37.003906 38.519531 36.980469 38.238281 37.429688 38.484375 C 37.71875 38.636719 37.824219 38.5625 37.910156 38.144531 C 38.015625 37.691406 37.695312 37.414062 37.085938 37.414062 C 36.769531 37.414062 36.597656 37.488281 36.351562 37.726562 Z M 36.351562 37.726562 "/>
<path style=" stroke:none;fill-rule:nonzero;fill:rgb(0%,0%,0%);fill-opacity:1;" d="M 40.117188 37.5 C 39.882812 37.53125 39.882812 37.542969 39.902344 39.269531 L 39.933594 41.003906 L 40.363281 41.003906 C 40.777344 41.003906 40.789062 40.996094 40.882812 40.554688 C 40.96875 40.160156 41.011719 40.105469 41.34375 40.039062 C 41.898438 39.945312 42.226562 39.558594 42.226562 39.023438 C 42.226562 38.519531 42.023438 37.960938 41.746094 37.734375 C 41.554688 37.574219 40.574219 37.4375 40.117188 37.5 Z M 41.097656 38.335938 C 41.34375 38.433594 41.320312 38.988281 41.066406 39.117188 C 40.796875 39.269531 40.734375 39.171875 40.734375 38.679688 C 40.734375 38.273438 40.789062 38.21875 41.097656 38.335938 Z M 41.097656 38.335938 "/>
<path style=" stroke:none;fill-rule:nonzero;fill:rgb(0%,0%,0%);fill-opacity:1;" d="M 42.621094 38.722656 C 42.570312 39.945312 42.589844 40.929688 42.695312 41.027344 C 42.792969 41.125 44.457031 40.910156 44.5 40.792969 C 44.53125 40.726562 44.53125 40.542969 44.5 40.382812 C 44.445312 40.136719 44.390625 40.09375 44.082031 40.09375 C 43.828125 40.09375 43.71875 40.039062 43.71875 39.933594 C 43.71875 39.828125 43.828125 39.773438 44.03125 39.773438 C 44.425781 39.773438 44.507812 39.644531 44.425781 39.171875 C 44.359375 38.882812 44.308594 38.808594 44.09375 38.808594 C 43.796875 38.808594 43.6875 38.679688 43.785156 38.433594 C 43.835938 38.304688 43.933594 38.273438 44.113281 38.324219 C 44.308594 38.367188 44.382812 38.335938 44.457031 38.152344 C 44.5 38.023438 44.519531 37.800781 44.488281 37.660156 C 44.445312 37.425781 44.402344 37.414062 43.558594 37.414062 L 42.6875 37.414062 Z M 42.621094 38.722656 "/>
<path style=" stroke:none;fill-rule:nonzero;fill:rgb(0%,0%,0%);fill-opacity:1;" d="M 44.894531 37.832031 C 44.894531 38.1875 44.9375 38.261719 45.136719 38.292969 C 45.363281 38.324219 45.375 38.367188 45.40625 39.546875 C 45.414062 40.234375 45.492188 40.84375 45.554688 40.917969 C 45.703125 41.113281 46.226562 41.089844 46.386719 40.898438 C 46.480469 40.78125 46.503906 40.40625 46.472656 39.503906 C 46.417969 38.367188 46.429688 38.273438 46.609375 38.273438 C 46.855469 38.273438 47.003906 38.003906 46.941406 37.671875 C 46.898438 37.425781 46.867188 37.414062 45.894531 37.414062 L 44.894531 37.414062 Z M 44.894531 37.832031 "/>
<path style=" stroke:none;fill-rule:nonzero;fill:rgb(0%,0%,0%);fill-opacity:1;" d="M 49.5 37.648438 C 49.125 38.058594 49.105469 38.421875 49.402344 38.945312 C 49.554688 39.203125 49.757812 39.472656 49.839844 39.558594 C 50.054688 39.730469 50.066406 40.09375 49.851562 40.09375 C 49.765625 40.09375 49.585938 40.03125 49.46875 39.953125 C 49.277344 39.847656 49.222656 39.859375 49.042969 40.082031 C 48.785156 40.394531 48.785156 40.46875 49.074219 40.726562 C 49.339844 40.984375 49.894531 41.113281 50.277344 41.015625 C 50.628906 40.929688 50.972656 40.363281 50.972656 39.859375 C 50.972656 39.546875 50.886719 39.355469 50.597656 39.03125 C 50.394531 38.808594 50.226562 38.539062 50.226562 38.433594 C 50.226562 38.25 50.320312 38.238281 50.855469 38.390625 C 50.949219 38.421875 51.046875 38.304688 51.109375 38.066406 C 51.257812 37.597656 51.023438 37.414062 50.277344 37.414062 C 49.839844 37.414062 49.679688 37.46875 49.5 37.648438 Z M 49.5 37.648438 "/>
<path style=" stroke:none;fill-rule:nonzero;fill:rgb(0%,0%,0%);fill-opacity:1;" d="M 51.578125 37.488281 C 51.535156 37.519531 51.503906 38.347656 51.503906 39.3125 L 51.503906 41.070312 L 51.964844 41.039062 L 52.410156 41.003906 L 52.441406 40.277344 C 52.476562 39.644531 52.496094 39.558594 52.675781 39.558594 C 52.871094 39.558594 52.890625 39.632812 52.890625 40.320312 L 52.890625 41.070312 L 53.285156 41.039062 C 53.796875 40.996094 53.828125 40.886719 53.839844 38.9375 L 53.851562 37.414062 L 53.371094 37.414062 C 52.902344 37.414062 52.890625 37.425781 52.890625 37.757812 C 52.890625 38.273438 52.785156 38.59375 52.613281 38.59375 C 52.507812 38.59375 52.464844 38.433594 52.464844 38.003906 L 52.464844 37.414062 L 52.058594 37.414062 C 51.835938 37.414062 51.613281 37.445312 51.578125 37.488281 Z M 51.578125 37.488281 "/>
<path style=" stroke:none;fill-rule:nonzero;fill:rgb(0%,0%,0%);fill-opacity:1;" d="M 57.113281 38.507812 C 57.082031 39.117188 57.09375 39.921875 57.136719 40.308594 L 57.210938 41.003906 L 57.605469 41.039062 C 58.074219 41.082031 58.253906 40.835938 58.203125 40.222656 C 58.167969 39.847656 58.191406 39.828125 58.542969 39.773438 C 59.460938 39.613281 59.863281 38.863281 59.449219 38.066406 C 59.234375 37.640625 58.691406 37.414062 57.871094 37.414062 L 57.175781 37.414062 Z M 58.511719 38.445312 C 58.585938 38.636719 58.4375 38.9375 58.242188 39 C 58.160156 39.023438 58.117188 38.90625 58.117188 38.65625 C 58.117188 38.25 58.382812 38.109375 58.511719 38.445312 Z M 58.511719 38.445312 "/>
</g>
</svg>
