<?xml version="1.0" encoding="UTF-8"?>
<svg xmlns="http://www.w3.org/2000/svg" xmlns:xlink="http://www.w3.org/1999/xlink" width="86pt" height="60pt" viewBox="0 0 86 60" version="1.1">
<g id="surface1">
<path style=" stroke:none;fill-rule:nonzero;fill:rgb(0%,0%,0%);fill-opacity:1;" d="M 37.21875 3.484375 C 36.324219 3.667969 35.433594 4.246094 34.503906 5.261719 C 34.019531 5.789062 33.625 6.277344 33.625 6.328125 C 33.625 6.523438 35.140625 7.4375 35.613281 7.527344 L 36.070312 7.601562 L 35.753906 7.949219 C 35.585938 8.144531 35.371094 8.425781 35.292969 8.582031 C 35.167969 8.824219 35.039062 8.875 34.515625 8.875 C 32.808594 8.875 30.429688 9.492188 28.875 10.316406 C 27.84375 10.871094 26.925781 11.746094 26.53125 12.515625 C 26.25 13.082031 26.210938 13.289062 26.277344 14.007812 C 26.351562 15.027344 26.300781 15.140625 24.710938 17.625 C 22.875 20.480469 22.480469 21.484375 22.570312 23.078125 C 22.671875 25.074219 24.125 26.667969 26.125 26.949219 C 27.230469 27.117188 29.128906 26.398438 30.3125 25.367188 C 30.746094 25.007812 30.875 24.957031 30.964844 25.097656 C 31.027344 25.203125 31.078125 25.316406 31.078125 25.382812 C 31.078125 25.433594 31.21875 25.769531 31.398438 26.140625 C 31.574219 26.5 31.714844 26.824219 31.714844 26.835938 C 31.714844 26.847656 31.269531 26.886719 30.734375 26.914062 C 28.773438 27.042969 26.378906 28.507812 25.410156 30.167969 C 24.734375 31.3125 24.761719 32.40625 25.460938 33.304688 L 25.867188 33.820312 L 24.8125 33.859375 L 23.753906 33.898438 L 23.714844 38.246094 L 23.679688 42.582031 L 23.996094 42.710938 C 24.175781 42.773438 25.144531 42.800781 26.289062 42.75 C 28.519531 42.660156 28.402344 42.734375 28.402344 41.488281 C 28.402344 40.5625 28.3125 40.472656 27.347656 40.472656 C 26.886719 40.457031 26.480469 40.433594 26.453125 40.394531 C 26.417969 40.355469 26.417969 40.1875 26.453125 40.007812 C 26.503906 39.710938 26.570312 39.6875 27.039062 39.726562 C 27.855469 39.777344 28.210938 39.53125 28.226562 38.914062 C 28.238281 38.632812 28.210938 38.167969 28.160156 37.886719 L 28.085938 37.371094 L 27.382812 37.308594 L 26.683594 37.242188 L 26.644531 36.691406 C 26.609375 36.238281 26.644531 36.148438 26.835938 36.136719 C 26.964844 36.136719 27.359375 36.125 27.703125 36.109375 C 28.328125 36.085938 28.339844 36.070312 28.378906 35.671875 C 28.417969 35.273438 28.429688 35.261719 28.761719 35.414062 C 28.949219 35.492188 29.128906 35.582031 29.15625 35.597656 C 29.191406 35.621094 29.242188 37.230469 29.28125 39.171875 C 29.332031 41.308594 29.410156 42.75 29.484375 42.824219 C 29.574219 42.914062 29.996094 42.929688 30.632812 42.863281 L 31.652344 42.773438 L 31.664062 41.550781 C 31.675781 40.882812 31.703125 40.265625 31.703125 40.203125 C 31.726562 40.046875 32.1875 40.949219 32.59375 41.964844 C 32.746094 42.363281 32.976562 42.722656 33.089844 42.773438 C 33.191406 42.8125 33.765625 42.8125 34.351562 42.761719 C 35.21875 42.683594 35.410156 42.632812 35.410156 42.464844 C 35.410156 42.335938 35.066406 41.617188 34.65625 40.84375 L 33.894531 39.457031 L 34.453125 38.8125 C 35.371094 37.746094 35.523438 36.40625 34.835938 35.363281 C 34.65625 35.082031 34.339844 34.746094 34.136719 34.617188 L 33.765625 34.398438 L 34.59375 33.847656 C 35.460938 33.269531 35.664062 32.957031 35.664062 32.210938 C 35.664062 31.957031 35.703125 31.773438 35.765625 31.800781 C 36.9375 32.40625 38.058594 32.855469 38.769531 33.011719 C 39.980469 33.269531 42.273438 33.292969 42.425781 33.050781 C 42.492188 32.945312 42.527344 32.484375 42.515625 31.992188 L 42.476562 31.132812 L 42.886719 31.132812 C 43.34375 31.132812 43.355469 31.171875 43.304688 32.378906 C 43.292969 32.882812 43.320312 32.933594 43.597656 32.933594 C 43.765625 32.933594 43.941406 32.894531 43.992188 32.832031 C 44.042969 32.777344 44.132812 32.738281 44.171875 32.726562 C 44.503906 32.6875 44.960938 32.496094 44.960938 32.40625 C 44.960938 32.339844 45 32.304688 45.0625 32.316406 C 45.292969 32.355469 46.109375 31.890625 46.03125 31.75 C 45.980469 31.671875 45.992188 31.648438 46.070312 31.683594 C 46.210938 31.773438 47.535156 30.644531 47.457031 30.5 C 47.433594 30.464844 47.496094 30.347656 47.597656 30.246094 C 47.777344 30.078125 47.789062 30.117188 47.710938 30.539062 C 47.660156 30.808594 47.660156 31.402344 47.710938 31.851562 L 47.789062 32.675781 L 48.746094 33.320312 C 49.265625 33.679688 49.789062 33.960938 49.917969 33.960938 C 50.03125 33.960938 50.261719 34.050781 50.414062 34.167969 L 50.707031 34.375 L 50.324219 34.796875 C 49.902344 35.289062 49.726562 35.96875 49.558594 37.820312 C 49.355469 40.019531 49.699219 41.332031 50.730469 42.285156 C 51.355469 42.863281 51.902344 43.042969 52.757812 42.929688 C 53.226562 42.863281 53.316406 42.902344 53.6875 43.300781 C 53.914062 43.546875 54.222656 43.738281 54.363281 43.738281 C 54.5 43.738281 54.882812 43.496094 55.226562 43.1875 L 55.824219 42.632812 L 55.496094 42.132812 C 55.175781 41.667969 55.175781 41.617188 55.355469 41.398438 C 55.648438 41.078125 56.042969 39.597656 56.132812 38.425781 C 56.222656 37.21875 55.941406 36.019531 55.367188 35.222656 C 55.152344 34.914062 55.050781 34.65625 55.125 34.632812 C 55.203125 34.605469 55.480469 34.425781 55.761719 34.230469 C 56.03125 34.027344 56.386719 33.820312 56.566406 33.769531 C 57.074219 33.613281 57.699219 33.0625 58.105469 32.429688 C 58.4375 31.917969 58.476562 31.75 58.425781 31.183594 C 58.246094 29.332031 56.425781 27.492188 53.929688 26.628906 C 53.152344 26.359375 51.929688 26.296875 51.40625 26.5 C 51.101562 26.617188 51.113281 26.566406 51.597656 25.949219 C 52.3125 25.058594 52.808594 23.953125 53.0625 22.757812 L 53.277344 21.765625 L 54.183594 22.359375 C 55.417969 23.167969 56.871094 23.671875 58.03125 23.671875 C 59.316406 23.671875 60.042969 23.386719 60.894531 22.527344 C 62.296875 21.097656 62.539062 19.359375 61.597656 17.429688 C 61.175781 16.582031 60.804688 16.121094 59.175781 14.421875 C 56.882812 12.042969 56.679688 11.785156 56.679688 11.28125 C 56.679688 8.683594 53.011719 6.972656 48.503906 7.460938 L 46.988281 7.628906 L 46.605469 7.164062 C 45.660156 6.019531 44.171875 5.671875 43 6.34375 L 42.441406 6.664062 L 41.96875 5.96875 C 40.683594 4.089844 38.886719 3.140625 37.21875 3.484375 Z M 42.222656 9.402344 C 42.171875 9.46875 42.171875 9.6875 42.222656 9.867188 L 42.300781 10.203125 L 42.695312 9.726562 C 43.0625 9.273438 43.101562 9.25 43.675781 9.339844 C 43.992188 9.390625 44.617188 9.53125 45.050781 9.675781 L 45.839844 9.917969 L 45.597656 10.332031 C 45.179688 11.0625 45.203125 11.101562 46.488281 11.976562 C 47.917969 12.941406 49.609375 14.550781 50.375 15.628906 C 51.6875 17.507812 52.222656 21.058594 51.496094 23.167969 C 49.355469 29.5 38.59375 31.902344 33.84375 27.132812 C 32.542969 25.804688 31.855469 23.824219 32.007812 21.792969 C 32.046875 21.289062 32.160156 20.699219 32.261719 20.507812 C 32.363281 20.300781 32.59375 19.59375 32.773438 18.949219 C 33.394531 16.738281 34.671875 14.652344 36.53125 12.8125 C 37.421875 11.9375 37.433594 11.914062 37.253906 11.566406 C 37.152344 11.371094 36.910156 11.101562 36.71875 10.960938 L 36.375 10.714844 L 36.886719 10.382812 C 37.152344 10.1875 37.636719 9.957031 37.945312 9.839844 C 38.582031 9.621094 39.113281 9.726562 39.777344 10.1875 C 40.121094 10.433594 40.121094 10.433594 40.121094 10.164062 C 40.121094 10.007812 40.058594 9.777344 39.992188 9.636719 C 39.867188 9.417969 39.90625 9.390625 40.273438 9.390625 C 40.644531 9.390625 40.746094 9.46875 41.011719 9.96875 C 41.292969 10.496094 41.34375 10.535156 41.484375 10.332031 C 41.574219 10.214844 41.648438 9.957031 41.648438 9.777344 C 41.648438 9.585938 41.6875 9.390625 41.738281 9.351562 C 41.878906 9.210938 42.3125 9.25 42.222656 9.402344 Z M 53.929688 27.863281 C 54.921875 28.277344 55.800781 28.855469 56.359375 29.484375 C 56.882812 30.050781 57.304688 30.914062 57.316406 31.351562 C 57.316406 31.660156 56.5 32.675781 56.246094 32.675781 C 56.15625 32.675781 55.941406 32.367188 55.75 31.992188 L 55.40625 31.324219 L 55.429688 32.121094 C 55.457031 33.0625 55.34375 33.242188 54.449219 33.652344 C 53.34375 34.179688 51.992188 33.988281 51.050781 33.164062 C 50.730469 32.882812 50.71875 32.832031 50.820312 32.175781 C 50.882812 31.789062 50.921875 31.453125 50.898438 31.429688 C 50.882812 31.414062 50.730469 31.710938 50.578125 32.097656 C 50.414062 32.484375 50.222656 32.804688 50.144531 32.804688 C 50.054688 32.804688 49.710938 32.585938 49.367188 32.339844 L 48.746094 31.878906 L 48.820312 31.054688 C 48.910156 30.191406 49.203125 29.472656 49.6875 28.945312 C 50.578125 27.992188 51.914062 27.351562 52.730469 27.492188 C 52.972656 27.53125 53.519531 27.695312 53.929688 27.863281 Z M 32.160156 28.367188 C 33.574219 29.046875 34.515625 30.410156 34.515625 31.800781 C 34.515625 32.519531 34.515625 32.519531 33.917969 32.921875 C 33.601562 33.140625 33.257812 33.320312 33.167969 33.320312 C 33.078125 33.320312 32.914062 33.050781 32.785156 32.703125 C 32.464844 31.8125 32.378906 31.789062 32.503906 32.625 C 32.632812 33.484375 32.515625 33.679688 31.5625 34.167969 C 30.746094 34.578125 29.714844 34.578125 28.847656 34.167969 C 27.957031 33.757812 27.867188 33.601562 27.917969 32.675781 C 27.957031 31.992188 27.933594 31.929688 27.78125 32.121094 C 27.691406 32.25 27.539062 32.546875 27.433594 32.765625 C 27.207031 33.304688 27.027344 33.292969 26.492188 32.738281 C 25.984375 32.210938 25.933594 31.722656 26.300781 30.964844 C 26.773438 29.949219 27.945312 29.007812 29.523438 28.351562 C 30.492188 27.953125 31.292969 27.953125 32.160156 28.367188 Z M 32.160156 36.085938 C 32.339844 36.253906 32.480469 36.535156 32.480469 36.714844 C 32.480469 37.023438 31.917969 37.820312 31.703125 37.820312 C 31.636719 37.820312 31.585938 37.359375 31.585938 36.792969 C 31.585938 35.671875 31.664062 35.570312 32.160156 36.085938 Z M 53.175781 36.535156 C 53.417969 37.011719 53.660156 38.773438 53.546875 39.300781 C 53.507812 39.507812 53.328125 39.929688 53.152344 40.238281 C 52.898438 40.703125 52.792969 40.78125 52.566406 40.703125 C 51.992188 40.535156 51.941406 40.304688 52.003906 38.644531 C 52.082031 36.894531 52.296875 36.148438 52.71875 36.148438 C 52.882812 36.148438 53.0625 36.304688 53.175781 36.535156 Z M 53.175781 36.535156 "/>
<path style=" stroke:none;fill-rule:nonzero;fill:rgb(0%,0%,0%);fill-opacity:1;" d="M 46.402344 13.765625 C 45.953125 14.035156 45.472656 14.703125 45.152344 15.5 L 44.9375 16.015625 L 45.382812 15.539062 C 45.890625 14.988281 46.300781 14.792969 47.023438 14.792969 C 47.675781 14.792969 48.296875 15.167969 48.679688 15.796875 C 49.039062 16.390625 49.125 16.144531 48.910156 15.089844 C 48.695312 14.074219 48.144531 13.507812 47.367188 13.507812 C 47.039062 13.507812 46.644531 13.609375 46.402344 13.765625 Z M 46.402344 13.765625 "/>
<path style=" stroke:none;fill-rule:nonzero;fill:rgb(0%,0%,0%);fill-opacity:1;" d="M 36.070312 14.960938 C 35.394531 15.347656 35.117188 16.441406 35.445312 17.496094 L 35.625 18.074219 L 35.789062 17.457031 C 35.878906 17.109375 36.109375 16.671875 36.324219 16.464844 C 37 15.785156 38.210938 15.667969 38.910156 16.234375 C 39.089844 16.375 39.230469 16.429688 39.230469 16.363281 C 39.230469 16.171875 37.996094 15.0625 37.636719 14.921875 C 37.179688 14.742188 36.425781 14.769531 36.070312 14.960938 Z M 36.070312 14.960938 "/>
<path style=" stroke:none;fill-rule:nonzero;fill:rgb(0%,0%,0%);fill-opacity:1;" d="M 41.011719 19.414062 C 39.382812 19.644531 38.59375 20.160156 38.59375 20.96875 C 38.59375 21.585938 38.925781 21.894531 40.03125 22.292969 C 40.65625 22.527344 41.039062 22.769531 41.382812 23.144531 L 41.867188 23.683594 L 41.292969 24.183594 C 39.855469 25.472656 38.183594 25.78125 36.824219 25.019531 C 36.210938 24.675781 35.894531 24.367188 34.898438 23.15625 L 34.644531 22.835938 L 34.886719 23.515625 C 35.613281 25.535156 37.117188 26.824219 38.453125 26.566406 C 39.371094 26.386719 41.382812 25.148438 41.980469 24.390625 L 42.324219 23.953125 L 43.101562 24.378906 C 43.957031 24.855469 45.675781 25.34375 46.453125 25.34375 C 48.003906 25.332031 49.152344 23.8125 49.367188 21.484375 L 49.445312 20.648438 L 48.988281 21.664062 C 48.414062 22.949219 47.992188 23.476562 47.152344 23.953125 C 46.605469 24.273438 46.335938 24.339844 45.625 24.339844 C 44.78125 24.351562 43.789062 24.109375 43.027344 23.722656 L 42.679688 23.542969 L 43.484375 22.769531 C 43.929688 22.332031 44.628906 21.832031 45.074219 21.613281 C 45.980469 21.160156 46.246094 20.738281 45.953125 20.210938 C 45.609375 19.566406 45.089844 19.398438 43.332031 19.347656 C 42.441406 19.335938 41.394531 19.359375 41.011719 19.414062 Z M 41.011719 19.414062 "/>
<path style=" stroke:none;fill-rule:nonzero;fill:rgb(0%,0%,0%);fill-opacity:1;" d="M 8.316406 33.550781 C 8.203125 33.613281 8.152344 34.875 8.125 38.207031 L 8.089844 42.773438 L 10 42.800781 C 11.054688 42.824219 11.984375 42.789062 12.085938 42.722656 C 12.304688 42.582031 12.480469 41.371094 12.355469 40.910156 C 12.277344 40.625 12.175781 40.574219 11.425781 40.472656 L 10.570312 40.355469 L 10.648438 37.023438 C 10.710938 34.308594 10.6875 33.691406 10.546875 33.652344 C 10.191406 33.539062 8.457031 33.460938 8.316406 33.550781 Z M 8.316406 33.550781 "/>
<path style=" stroke:none;fill-rule:nonzero;fill:rgb(0%,0%,0%);fill-opacity:1;" d="M 2.113281 34.695312 C 2.074219 35.234375 2.039062 37.242188 2.039062 39.171875 L 2.039062 42.671875 L 3.09375 42.75 C 5.261719 42.929688 6.929688 42.789062 7.15625 42.414062 C 7.210938 42.324219 7.261719 41.898438 7.261719 41.460938 C 7.261719 40.367188 7.132812 40.265625 5.78125 40.265625 C 4.738281 40.265625 4.710938 40.253906 4.710938 39.957031 C 4.710938 39.621094 4.917969 39.492188 5.464844 39.492188 C 6.101562 39.492188 6.367188 39.171875 6.367188 38.414062 C 6.367188 37.449219 6.191406 37.253906 5.296875 37.292969 L 4.585938 37.320312 L 4.585938 36.1875 L 5.171875 36.097656 C 5.503906 36.058594 6.011719 36.019531 6.292969 36.019531 C 6.585938 36.019531 6.890625 35.957031 6.980469 35.867188 C 7.132812 35.710938 7.195312 34.269531 7.054688 33.910156 C 6.992188 33.730469 6.648438 33.703125 4.585938 33.703125 L 2.203125 33.703125 Z M 2.113281 34.695312 "/>
<path style=" stroke:none;fill-rule:nonzero;fill:rgb(0%,0%,0%);fill-opacity:1;" d="M 77.503906 33.949219 C 75.746094 34.761719 74.945312 38.027344 75.796875 40.84375 C 76.027344 41.617188 76.410156 42.09375 77.363281 42.8125 C 78.308594 43.535156 80.652344 42.644531 81.515625 41.230469 C 81.859375 40.664062 82.179688 39.378906 82.167969 38.527344 C 82.167969 37.835938 81.859375 36.355469 81.582031 35.6875 C 81.339844 35.082031 80.511719 34.207031 79.925781 33.949219 C 79.261719 33.640625 78.167969 33.640625 77.503906 33.949219 Z M 78.957031 36.535156 C 79.324219 36.726562 79.605469 37.617188 79.605469 38.566406 C 79.605469 39.648438 79.3125 40.316406 78.816406 40.367188 C 78.535156 40.40625 78.460938 40.34375 78.320312 39.917969 C 78.089844 39.222656 78.089844 36.894531 78.320312 36.625 C 78.523438 36.367188 78.636719 36.355469 78.957031 36.535156 Z M 78.957031 36.535156 "/>
<path style=" stroke:none;fill-rule:nonzero;fill:rgb(0%,0%,0%);fill-opacity:1;" d="M 36.898438 33.949219 C 36.644531 34 36.375 34.089844 36.324219 34.140625 C 36.210938 34.269531 36.300781 42.105469 36.425781 42.570312 C 36.515625 42.890625 36.542969 42.902344 37.332031 42.863281 C 38.808594 42.8125 38.734375 42.890625 38.707031 41.476562 C 38.695312 40.804688 38.71875 40.226562 38.746094 40.203125 C 38.785156 40.164062 39.027344 40.640625 39.292969 41.257812 C 39.992188 42.890625 39.980469 42.890625 41.34375 42.75 C 42.335938 42.660156 42.476562 42.621094 42.441406 42.414062 C 42.414062 42.285156 42.058594 41.550781 41.648438 40.804688 L 40.898438 39.429688 L 41.292969 39.019531 L 41.699219 38.59375 L 41.371094 38.246094 C 40.910156 37.746094 40.632812 37.140625 40.632812 36.636719 C 40.632812 36.1875 41.027344 35.210938 41.253906 35.070312 C 41.546875 34.886719 41.371094 34.707031 40.542969 34.324219 C 39.839844 34.015625 39.484375 33.9375 38.542969 33.898438 C 37.90625 33.871094 37.167969 33.898438 36.898438 33.949219 Z M 39.21875 36.097656 C 39.585938 36.574219 39.5625 37.0625 39.128906 37.472656 C 38.9375 37.667969 38.734375 37.820312 38.683594 37.820312 C 38.632812 37.820312 38.59375 37.359375 38.59375 36.792969 C 38.59375 35.648438 38.746094 35.480469 39.21875 36.097656 Z M 39.21875 36.097656 "/>
<path style=" stroke:none;fill-rule:nonzero;fill:rgb(0%,0%,0%);fill-opacity:1;" d="M 43.140625 33.921875 C 42.921875 34.128906 43.0625 34.449219 43.40625 34.515625 C 44.183594 34.667969 44.960938 35.699219 44.960938 36.546875 C 44.960938 37.488281 44.183594 38.503906 43.320312 38.671875 C 42.949219 38.746094 42.921875 38.785156 42.921875 39.351562 C 42.921875 40.125 43.242188 41.359375 43.546875 41.796875 C 44.132812 42.621094 45.992188 43.210938 46.871094 42.839844 C 47.574219 42.542969 48.222656 41.65625 48.476562 40.613281 C 48.746094 39.570312 48.78125 37.511719 48.578125 35.261719 L 48.464844 33.921875 L 47.574219 33.871094 C 46.09375 33.796875 46.144531 33.730469 46.273438 35.273438 C 46.386719 36.742188 46.285156 39.160156 46.09375 39.53125 C 46.019531 39.675781 45.851562 39.75 45.6875 39.726562 C 45.304688 39.675781 45.242188 39.199219 45.242188 36.496094 C 45.230469 34.914062 45.191406 34.140625 45.074219 34.015625 C 44.921875 33.832031 43.304688 33.742188 43.140625 33.921875 Z M 43.140625 33.921875 "/>
<path style=" stroke:none;fill-rule:nonzero;fill:rgb(0%,0%,0%);fill-opacity:1;" d="M 57.074219 33.949219 C 56.933594 34.039062 56.910156 34.578125 56.972656 37 C 57.035156 40.074219 57.203125 41.140625 57.6875 41.808594 C 58.195312 42.53125 59.914062 43.148438 60.804688 42.914062 C 61.253906 42.800781 61.992188 42.117188 62.269531 41.566406 C 62.832031 40.472656 62.984375 38.273438 62.71875 35.25 L 62.601562 33.910156 L 61.46875 33.898438 L 60.335938 33.898438 L 60.386719 35.054688 C 60.460938 36.765625 60.375 39.25 60.234375 39.53125 C 60.15625 39.675781 59.992188 39.75 59.824219 39.726562 C 59.445312 39.675781 59.378906 39.171875 59.367188 36.433594 C 59.367188 34.925781 59.316406 34.140625 59.214844 34.015625 C 59.046875 33.808594 57.378906 33.757812 57.074219 33.949219 Z M 57.074219 33.949219 "/>
<path style=" stroke:none;fill-rule:nonzero;fill:rgb(0%,0%,0%);fill-opacity:1;" d="M 63.683594 33.921875 C 63.609375 35.121094 63.632812 42.492188 63.699219 42.605469 C 63.785156 42.734375 64.308594 42.761719 66.003906 42.734375 C 67.214844 42.710938 68.230469 42.660156 68.257812 42.632812 C 68.296875 42.59375 68.320312 42.144531 68.320312 41.605469 C 68.332031 40.523438 68.21875 40.355469 67.542969 40.472656 C 67.328125 40.511719 66.957031 40.511719 66.742188 40.457031 C 66.410156 40.382812 66.347656 40.316406 66.386719 40.046875 C 66.421875 39.765625 66.488281 39.726562 67.136719 39.699219 C 67.519531 39.6875 67.914062 39.621094 67.988281 39.570312 C 68.195312 39.441406 68.195312 37.808594 67.988281 37.527344 C 67.886719 37.398438 67.59375 37.308594 67.25 37.28125 L 66.679688 37.242188 L 66.640625 36.691406 C 66.601562 36.085938 66.5625 36.109375 67.660156 36.148438 C 68.371094 36.175781 68.4375 36.046875 68.371094 34.734375 L 68.332031 33.898438 L 66.015625 33.859375 C 64.730469 33.847656 63.683594 33.871094 63.683594 33.921875 Z M 63.683594 33.921875 "/>
<path style=" stroke:none;fill-rule:nonzero;fill:rgb(0%,0%,0%);fill-opacity:1;" d="M 69.902344 33.921875 C 69.085938 34.015625 69.109375 33.832031 69.238281 39.019531 C 69.289062 41.269531 69.378906 42.660156 69.46875 42.773438 C 69.582031 42.929688 69.796875 42.941406 70.625 42.863281 L 71.644531 42.773438 L 71.621094 41.449219 C 71.605469 40.730469 71.644531 40.164062 71.695312 40.203125 C 71.761719 40.226562 72.054688 40.804688 72.359375 41.488281 C 72.664062 42.15625 72.996094 42.734375 73.097656 42.773438 C 73.199219 42.8125 73.761719 42.8125 74.34375 42.761719 C 75.171875 42.695312 75.402344 42.632812 75.402344 42.480469 C 75.402344 42.375 75.058594 41.65625 74.636719 40.894531 C 74.21875 40.136719 73.875 39.480469 73.875 39.429688 C 73.875 39.378906 74.066406 39.148438 74.308594 38.914062 C 74.84375 38.386719 75.085938 37.925781 75.199219 37.203125 C 75.390625 35.957031 74.585938 34.722656 73.261719 34.21875 C 72.535156 33.9375 70.894531 33.796875 69.902344 33.921875 Z M 72.15625 36.085938 C 72.5625 36.484375 72.5625 36.933594 72.140625 37.421875 C 71.632812 38.039062 71.519531 37.9375 71.492188 36.894531 C 71.46875 35.632812 71.582031 35.492188 72.15625 36.085938 Z M 72.15625 36.085938 "/>
<path style=" stroke:none;fill-rule:nonzero;fill:rgb(0%,0%,0%);fill-opacity:1;" d="M 17.324219 34.078125 C 17.003906 34.167969 17.003906 34.179688 16.964844 35.699219 C 16.925781 37.757812 17.105469 42.542969 17.246094 42.671875 C 17.410156 42.851562 19.195312 42.800781 19.386719 42.605469 C 19.476562 42.515625 19.578125 42.015625 19.613281 41.449219 L 19.679688 40.457031 L 20.339844 40.367188 C 21.320312 40.226562 22.125 39.789062 22.570312 39.183594 C 22.9375 38.683594 22.953125 38.621094 22.902344 37.550781 C 22.8125 35.699219 22.097656 34.566406 20.734375 34.15625 C 20.0625 33.960938 17.933594 33.910156 17.324219 34.078125 Z M 20.0625 36.175781 C 20.441406 36.34375 20.570312 36.742188 20.46875 37.398438 C 20.367188 37.964844 20.289062 38.054688 19.769531 38.15625 L 19.359375 38.234375 L 19.359375 37.125 C 19.359375 35.929688 19.398438 35.867188 20.0625 36.175781 Z M 20.0625 36.175781 "/>
<path style=" stroke:none;fill-rule:nonzero;fill:rgb(0%,0%,0%);fill-opacity:1;" d="M 27.128906 44.84375 C 26.53125 45.28125 26.378906 45.734375 26.671875 46.3125 C 26.847656 46.683594 26.847656 46.738281 26.621094 47.121094 C 26.289062 47.664062 26.289062 48.371094 26.632812 48.796875 C 27.207031 49.542969 28.785156 49.554688 29.523438 48.808594 C 29.882812 48.449219 29.933594 48.304688 29.933594 47.738281 C 29.933594 47.121094 29.957031 47.085938 30.25 47.085938 C 30.519531 47.085938 30.570312 47.019531 30.570312 46.699219 C 30.570312 46.375 30.519531 46.3125 30.25 46.3125 C 29.96875 46.3125 29.933594 46.261719 29.933594 45.863281 C 29.933594 45.296875 29.777344 45.296875 29.332031 45.863281 C 29.015625 46.261719 28.914062 46.3125 28.378906 46.3125 C 27.933594 46.3125 27.742188 46.246094 27.652344 46.082031 C 27.460938 45.71875 27.675781 45.5 28.1875 45.566406 C 28.554688 45.605469 28.671875 45.566406 28.761719 45.335938 C 28.949219 44.921875 28.746094 44.742188 28.074219 44.679688 C 27.613281 44.640625 27.359375 44.679688 27.128906 44.84375 Z M 28.914062 47.519531 C 28.914062 48.085938 28.605469 48.394531 28.109375 48.34375 C 27.652344 48.292969 27.449219 48.011719 27.5625 47.558594 C 27.640625 47.210938 27.832031 47.121094 28.503906 47.097656 C 28.886719 47.085938 28.914062 47.109375 28.914062 47.519531 Z M 28.914062 47.519531 "/>
<path style=" stroke:none;fill-rule:nonzero;fill:rgb(0%,0%,0%);fill-opacity:1;" d="M 14.34375 44.898438 C 13.527344 45.15625 13.117188 45.835938 13.117188 46.980469 C 13.117188 47.804688 13.410156 48.667969 13.769531 48.976562 C 14.050781 49.207031 14.992188 49.386719 15.386719 49.285156 C 15.691406 49.195312 15.730469 49.117188 15.71875 48.703125 C 15.691406 48.113281 15.539062 47.945312 15.003906 47.933594 C 14.609375 47.921875 14.582031 47.894531 14.46875 47.289062 C 14.289062 46.414062 14.53125 46.003906 15.21875 45.953125 C 15.769531 45.902344 15.921875 45.773438 15.921875 45.308594 C 15.921875 44.84375 15.183594 44.652344 14.34375 44.898438 Z M 14.34375 44.898438 "/>
<path style=" stroke:none;fill-rule:nonzero;fill:rgb(0%,0%,0%);fill-opacity:1;" d="M 33.089844 44.871094 L 32.746094 44.910156 L 32.707031 46.800781 C 32.65625 49.414062 32.605469 49.269531 33.5 49.269531 C 35.496094 49.269531 36.554688 47.507812 35.550781 45.902344 C 35.34375 45.566406 35.039062 45.230469 34.875 45.140625 C 34.542969 44.949219 33.601562 44.808594 33.089844 44.871094 Z M 34.429688 46.285156 C 34.757812 46.570312 34.707031 47.378906 34.351562 47.804688 C 33.917969 48.304688 33.753906 48.113281 33.753906 47.148438 C 33.753906 45.902344 33.84375 45.785156 34.429688 46.285156 Z M 34.429688 46.285156 "/>
<path style=" stroke:none;fill-rule:nonzero;fill:rgb(0%,0%,0%);fill-opacity:1;" d="M 37.332031 44.910156 C 36.65625 45.179688 36.261719 46.066406 36.289062 47.238281 C 36.3125 48.28125 36.425781 48.613281 36.898438 49.078125 C 37.191406 49.359375 37.34375 49.414062 37.753906 49.347656 C 38.300781 49.285156 38.757812 48.988281 39.152344 48.460938 C 39.699219 47.714844 39.394531 45.589844 38.667969 45.117188 C 38.273438 44.859375 37.6875 44.769531 37.332031 44.910156 Z M 38.261719 47.136719 C 38.273438 47.726562 37.980469 48.230469 37.726562 48.0625 C 37.523438 47.933594 37.421875 46.800781 37.574219 46.390625 L 37.714844 46.003906 L 37.980469 46.285156 C 38.171875 46.464844 38.25 46.722656 38.261719 47.136719 Z M 38.261719 47.136719 "/>
<path style=" stroke:none;fill-rule:nonzero;fill:rgb(0%,0%,0%);fill-opacity:1;" d="M 40.515625 44.972656 C 40.058594 45.308594 39.839844 45.992188 39.855469 47.109375 C 39.867188 48.613281 40.222656 49.140625 41.203125 49.140625 C 42.199219 49.140625 42.667969 48.578125 42.667969 47.378906 C 42.667969 46.917969 42.617188 46.800781 42.363281 46.683594 C 42.183594 46.59375 41.855469 46.570312 41.597656 46.621094 C 41.179688 46.699219 41.140625 46.75 41.140625 47.148438 C 41.140625 47.46875 41.191406 47.597656 41.34375 47.597656 C 41.457031 47.597656 41.523438 47.6875 41.496094 47.816406 C 41.445312 48.074219 41.269531 48.152344 41.011719 47.984375 C 40.796875 47.855469 40.796875 46.890625 41.027344 46.222656 C 41.179688 45.734375 41.332031 45.683594 41.523438 46.066406 C 41.636719 46.273438 41.738281 46.3125 42.007812 46.246094 C 42.402344 46.144531 42.667969 45.953125 42.667969 45.773438 C 42.667969 45.695312 42.476562 45.449219 42.234375 45.207031 C 41.890625 44.859375 41.699219 44.769531 41.304688 44.769531 C 41.039062 44.769531 40.683594 44.859375 40.515625 44.972656 Z M 40.515625 44.972656 "/>
<path style=" stroke:none;fill-rule:nonzero;fill:rgb(0%,0%,0%);fill-opacity:1;" d="M 65.722656 44.910156 C 65.542969 44.972656 65.265625 45.246094 65.085938 45.5 C 64.792969 45.925781 64.765625 46.09375 64.765625 47.25 L 64.765625 48.523438 L 65.25 48.976562 C 65.683594 49.375 65.800781 49.414062 66.207031 49.335938 C 66.753906 49.246094 67.1875 48.949219 67.558594 48.449219 C 68.105469 47.714844 67.800781 45.589844 67.074219 45.117188 C 66.691406 44.859375 66.09375 44.769531 65.722656 44.910156 Z M 66.640625 47.160156 C 66.628906 47.832031 66.347656 48.28125 66.09375 48.023438 C 65.9375 47.867188 65.902344 46.414062 66.042969 46.183594 C 66.105469 46.066406 66.207031 46.105469 66.398438 46.285156 C 66.574219 46.480469 66.640625 46.710938 66.640625 47.160156 Z M 66.640625 47.160156 "/>
<path style=" stroke:none;fill-rule:nonzero;fill:rgb(0%,0%,0%);fill-opacity:1;" d="M 16.902344 44.988281 C 16.875 45.050781 16.761719 45.464844 16.648438 45.925781 C 15.894531 49 15.894531 49.128906 16.429688 49.15625 C 16.648438 49.167969 16.890625 49.179688 16.976562 49.195312 C 17.054688 49.207031 17.144531 49.078125 17.167969 48.910156 C 17.234375 48.523438 17.945312 48.5 18.046875 48.886719 C 18.125 49.179688 18.582031 49.335938 19.015625 49.21875 C 19.308594 49.15625 19.308594 49.117188 19.207031 48.371094 C 19.09375 47.507812 18.660156 45.644531 18.46875 45.179688 C 18.367188 44.9375 18.253906 44.898438 17.652344 44.898438 C 17.269531 44.898438 16.925781 44.9375 16.902344 44.988281 Z M 17.855469 47.148438 C 17.882812 47.429688 17.84375 47.546875 17.667969 47.574219 C 17.449219 47.613281 17.4375 47.558594 17.5 47.121094 C 17.539062 46.851562 17.5625 46.609375 17.578125 46.570312 C 17.589844 46.363281 17.820312 46.828125 17.855469 47.148438 Z M 17.855469 47.148438 "/>
<path style=" stroke:none;fill-rule:nonzero;fill:rgb(0%,0%,0%);fill-opacity:1;" d="M 19.234375 45.398438 C 19.234375 45.824219 19.285156 45.914062 19.527344 45.953125 C 19.792969 45.992188 19.804688 46.042969 19.84375 47.457031 C 19.855469 48.28125 19.945312 49.015625 20.023438 49.105469 C 20.175781 49.296875 20.835938 49.335938 20.953125 49.15625 C 20.992188 49.089844 21.027344 48.332031 21.027344 47.484375 C 21.042969 46.121094 21.066406 45.925781 21.257812 45.925781 C 21.589844 45.925781 21.742188 45.695312 21.679688 45.28125 L 21.628906 44.898438 L 19.234375 44.898438 Z M 19.234375 45.398438 "/>
<path style=" stroke:none;fill-rule:nonzero;fill:rgb(0%,0%,0%);fill-opacity:1;" d="M 22.199219 45.207031 C 21.664062 45.667969 21.714844 46.324219 22.339844 47.1875 C 22.632812 47.597656 22.800781 47.945312 22.75 48.0625 C 22.671875 48.253906 22.632812 48.253906 22.351562 48.0625 C 21.957031 47.804688 21.832031 47.867188 21.714844 48.382812 C 21.613281 48.859375 21.792969 49.105469 22.367188 49.21875 C 23.335938 49.398438 24.074219 48.859375 24.074219 47.984375 C 24.074219 47.535156 23.984375 47.367188 23.488281 46.828125 C 23.003906 46.3125 22.9375 46.171875 23.105469 46.105469 C 23.21875 46.066406 23.398438 46.09375 23.5 46.183594 C 23.742188 46.390625 23.90625 46.261719 24.007812 45.773438 C 24.085938 45.4375 24.046875 45.320312 23.816406 45.128906 C 23.410156 44.792969 22.632812 44.832031 22.199219 45.207031 Z M 22.199219 45.207031 "/>
<path style=" stroke:none;fill-rule:nonzero;fill:rgb(0%,0%,0%);fill-opacity:1;" d="M 43.421875 45.269531 C 42.847656 45.847656 42.921875 46.351562 43.714844 47.378906 C 44.183594 47.972656 44.132812 48.394531 43.625 48.0625 C 43.214844 47.792969 43.214844 47.792969 42.972656 48.269531 C 42.769531 48.667969 42.769531 48.679688 43.128906 48.988281 C 43.421875 49.257812 43.574219 49.285156 44.121094 49.230469 C 44.9375 49.15625 45.34375 48.730469 45.34375 47.972656 C 45.34375 47.535156 45.253906 47.355469 44.757812 46.828125 C 44.199219 46.222656 44.171875 45.886719 44.707031 46.183594 C 45.050781 46.363281 45.179688 46.273438 45.28125 45.773438 C 45.40625 45.230469 45.023438 44.898438 44.300781 44.898438 C 43.917969 44.898438 43.714844 44.988281 43.421875 45.269531 Z M 43.421875 45.269531 "/>
<path style=" stroke:none;fill-rule:nonzero;fill:rgb(0%,0%,0%);fill-opacity:1;" d="M 47.917969 45 C 47.636719 45.039062 47.636719 45.050781 47.660156 47.121094 L 47.699219 49.207031 L 48.210938 49.207031 C 48.707031 49.207031 48.71875 49.195312 48.832031 48.667969 C 48.933594 48.191406 48.988281 48.125 49.382812 48.050781 C 50.042969 47.933594 50.4375 47.46875 50.4375 46.828125 C 50.4375 46.222656 50.195312 45.554688 49.863281 45.28125 C 49.636719 45.089844 48.464844 44.921875 47.917969 45 Z M 49.089844 46.003906 C 49.382812 46.121094 49.355469 46.789062 49.050781 46.941406 C 48.730469 47.121094 48.65625 47.007812 48.65625 46.414062 C 48.65625 45.925781 48.71875 45.863281 49.089844 46.003906 Z M 49.089844 46.003906 "/>
<path style=" stroke:none;fill-rule:nonzero;fill:rgb(0%,0%,0%);fill-opacity:1;" d="M 50.910156 46.464844 C 50.847656 47.933594 50.871094 49.117188 51 49.230469 C 51.113281 49.347656 53.101562 49.089844 53.152344 48.949219 C 53.191406 48.871094 53.191406 48.652344 53.152344 48.460938 C 53.085938 48.164062 53.023438 48.113281 52.65625 48.113281 C 52.347656 48.113281 52.222656 48.050781 52.222656 47.921875 C 52.222656 47.792969 52.347656 47.726562 52.589844 47.726562 C 53.0625 47.726562 53.164062 47.574219 53.0625 47.007812 C 52.984375 46.660156 52.921875 46.570312 52.667969 46.570312 C 52.3125 46.570312 52.183594 46.414062 52.296875 46.121094 C 52.363281 45.964844 52.476562 45.925781 52.691406 45.992188 C 52.921875 46.042969 53.011719 46.003906 53.101562 45.785156 C 53.152344 45.628906 53.175781 45.359375 53.136719 45.191406 C 53.085938 44.910156 53.035156 44.898438 52.03125 44.898438 L 50.984375 44.898438 Z M 50.910156 46.464844 "/>
<path style=" stroke:none;fill-rule:nonzero;fill:rgb(0%,0%,0%);fill-opacity:1;" d="M 53.621094 45.398438 C 53.621094 45.824219 53.671875 45.914062 53.914062 45.953125 C 54.183594 45.992188 54.195312 46.042969 54.234375 47.457031 C 54.246094 48.28125 54.335938 49.015625 54.414062 49.105469 C 54.589844 49.335938 55.214844 49.308594 55.40625 49.078125 C 55.519531 48.9375 55.546875 48.484375 55.507812 47.40625 C 55.445312 46.042969 55.457031 45.925781 55.671875 45.925781 C 55.964844 45.925781 56.144531 45.605469 56.066406 45.207031 C 56.015625 44.910156 55.980469 44.898438 54.820312 44.898438 L 53.621094 44.898438 Z M 53.621094 45.398438 "/>
<path style=" stroke:none;fill-rule:nonzero;fill:rgb(0%,0%,0%);fill-opacity:1;" d="M 59.125 45.179688 C 58.679688 45.667969 58.652344 46.105469 59.011719 46.738281 C 59.1875 47.046875 59.429688 47.367188 59.53125 47.46875 C 59.789062 47.675781 59.800781 48.113281 59.546875 48.113281 C 59.445312 48.113281 59.226562 48.035156 59.085938 47.945312 C 58.859375 47.816406 58.792969 47.832031 58.578125 48.101562 C 58.273438 48.472656 58.273438 48.5625 58.617188 48.871094 C 58.933594 49.179688 59.597656 49.335938 60.054688 49.21875 C 60.476562 49.117188 60.882812 48.433594 60.882812 47.832031 C 60.882812 47.457031 60.78125 47.226562 60.4375 46.839844 C 60.195312 46.570312 59.992188 46.246094 59.992188 46.121094 C 59.992188 45.902344 60.105469 45.886719 60.742188 46.066406 C 60.855469 46.105469 60.972656 45.964844 61.046875 45.683594 C 61.226562 45.117188 60.945312 44.898438 60.054688 44.898438 C 59.53125 44.898438 59.339844 44.960938 59.125 45.179688 Z M 59.125 45.179688 "/>
<path style=" stroke:none;fill-rule:nonzero;fill:rgb(0%,0%,0%);fill-opacity:1;" d="M 61.609375 44.988281 C 61.558594 45.027344 61.519531 46.015625 61.519531 47.175781 L 61.519531 49.285156 L 62.066406 49.246094 L 62.601562 49.207031 L 62.640625 48.332031 C 62.679688 47.574219 62.703125 47.46875 62.921875 47.46875 C 63.148438 47.46875 63.175781 47.558594 63.175781 48.382812 L 63.175781 49.285156 L 63.648438 49.246094 C 64.257812 49.195312 64.296875 49.066406 64.308594 46.722656 L 64.320312 44.898438 L 63.75 44.898438 C 63.1875 44.898438 63.175781 44.910156 63.175781 45.308594 C 63.175781 45.925781 63.046875 46.3125 62.84375 46.3125 C 62.71875 46.3125 62.664062 46.121094 62.664062 45.605469 L 62.664062 44.898438 L 62.183594 44.898438 C 61.914062 44.898438 61.648438 44.9375 61.609375 44.988281 Z M 61.609375 44.988281 "/>
<path style=" stroke:none;fill-rule:nonzero;fill:rgb(0%,0%,0%);fill-opacity:1;" d="M 68.21875 46.210938 C 68.179688 46.941406 68.195312 47.90625 68.246094 48.371094 L 68.332031 49.207031 L 68.804688 49.246094 C 69.367188 49.296875 69.582031 49 69.519531 48.269531 C 69.480469 47.816406 69.503906 47.792969 69.925781 47.726562 C 71.019531 47.535156 71.503906 46.632812 71.007812 45.683594 C 70.753906 45.167969 70.105469 44.898438 69.125 44.898438 L 68.296875 44.898438 Z M 69.886719 46.132812 C 69.976562 46.363281 69.796875 46.722656 69.570312 46.800781 C 69.46875 46.828125 69.417969 46.683594 69.417969 46.390625 C 69.417969 45.902344 69.734375 45.734375 69.886719 46.132812 Z M 69.886719 46.132812 "/>
</g>
</svg>
