<?xml version="1.0" encoding="UTF-8"?>
<svg xmlns="http://www.w3.org/2000/svg" xmlns:xlink="http://www.w3.org/1999/xlink" width="99pt" height="69pt" viewBox="0 0 99 69" version="1.1">
<g id="surface1">
<path style=" stroke:none;fill-rule:nonzero;fill:rgb(0%,0%,0%);fill-opacity:1;" d="M 42.730469 4.007812 C 41.707031 4.214844 40.683594 4.882812 39.613281 6.050781 C 39.058594 6.65625 38.605469 7.21875 38.605469 7.277344 C 38.605469 7.5 40.34375 8.550781 40.886719 8.65625 L 41.414062 8.746094 L 41.046875 9.144531 C 40.859375 9.367188 40.609375 9.691406 40.523438 9.867188 C 40.375 10.148438 40.230469 10.207031 39.628906 10.207031 C 37.667969 10.207031 34.933594 10.914062 33.148438 11.863281 C 31.964844 12.503906 30.910156 13.507812 30.460938 14.394531 C 30.140625 15.046875 30.09375 15.28125 30.167969 16.109375 C 30.253906 17.28125 30.195312 17.410156 28.371094 20.265625 C 26.261719 23.554688 25.808594 24.707031 25.914062 26.539062 C 26.03125 28.835938 27.699219 30.667969 29.992188 30.996094 C 31.265625 31.1875 33.441406 30.359375 34.804688 29.171875 C 35.296875 28.761719 35.449219 28.699219 35.550781 28.867188 C 35.621094 28.980469 35.679688 29.113281 35.679688 29.1875 C 35.679688 29.25 35.84375 29.632812 36.042969 30.0625 C 36.25 30.476562 36.414062 30.847656 36.414062 30.859375 C 36.414062 30.875 35.898438 30.917969 35.289062 30.949219 C 33.035156 31.101562 30.285156 32.785156 29.171875 34.691406 C 28.398438 36.007812 28.429688 37.269531 29.230469 38.304688 L 29.699219 38.894531 L 28.484375 38.9375 L 27.269531 38.984375 L 27.230469 43.984375 L 27.183594 48.964844 L 27.546875 49.117188 C 27.753906 49.1875 28.863281 49.21875 30.179688 49.164062 C 32.742188 49.058594 32.609375 49.148438 32.609375 47.710938 C 32.609375 46.644531 32.507812 46.539062 31.394531 46.539062 C 30.871094 46.523438 30.402344 46.5 30.371094 46.453125 C 30.332031 46.410156 30.332031 46.21875 30.371094 46.011719 C 30.433594 45.671875 30.503906 45.640625 31.046875 45.6875 C 31.980469 45.742188 32.394531 45.460938 32.402344 44.753906 C 32.417969 44.425781 32.394531 43.890625 32.332031 43.570312 L 32.242188 42.976562 L 31.441406 42.902344 L 30.632812 42.828125 L 30.59375 42.191406 C 30.546875 41.671875 30.59375 41.570312 30.808594 41.554688 C 30.957031 41.554688 31.410156 41.542969 31.804688 41.527344 C 32.519531 41.496094 32.535156 41.480469 32.582031 41.027344 C 32.625 40.5625 32.640625 40.550781 33.019531 40.730469 C 33.242188 40.820312 33.441406 40.921875 33.472656 40.9375 C 33.519531 40.964844 33.574219 42.8125 33.617188 45.046875 C 33.679688 47.503906 33.765625 49.164062 33.851562 49.25 C 33.957031 49.355469 34.441406 49.367188 35.167969 49.292969 L 36.335938 49.1875 L 36.351562 47.785156 C 36.367188 47.019531 36.398438 46.308594 36.398438 46.230469 C 36.425781 46.054688 36.953125 47.089844 37.421875 48.257812 C 37.597656 48.71875 37.859375 49.132812 37.992188 49.1875 C 38.105469 49.234375 38.765625 49.234375 39.4375 49.175781 C 40.4375 49.085938 40.652344 49.027344 40.652344 48.835938 C 40.652344 48.6875 40.253906 47.855469 39.789062 46.972656 L 38.914062 45.375 L 39.554688 44.632812 C 40.609375 43.40625 40.785156 41.867188 39.992188 40.667969 C 39.789062 40.339844 39.421875 39.957031 39.191406 39.8125 L 38.765625 39.558594 L 39.714844 38.921875 C 40.714844 38.257812 40.945312 37.898438 40.945312 37.046875 C 40.945312 36.75 40.992188 36.542969 41.0625 36.574219 C 42.40625 37.269531 43.695312 37.785156 44.515625 37.960938 C 45.902344 38.257812 48.535156 38.289062 48.710938 38.003906 C 48.78125 37.890625 48.828125 37.355469 48.8125 36.789062 L 48.765625 35.800781 L 49.234375 35.800781 C 49.765625 35.800781 49.78125 35.847656 49.71875 37.238281 C 49.703125 37.8125 49.734375 37.875 50.058594 37.875 C 50.246094 37.875 50.449219 37.828125 50.511719 37.753906 C 50.566406 37.699219 50.667969 37.652344 50.714844 37.636719 C 51.097656 37.59375 51.621094 37.371094 51.621094 37.269531 C 51.621094 37.191406 51.660156 37.148438 51.738281 37.164062 C 52 37.207031 52.9375 36.675781 52.851562 36.511719 C 52.789062 36.421875 52.804688 36.390625 52.890625 36.4375 C 53.054688 36.542969 54.574219 35.242188 54.484375 35.074219 C 54.460938 35.035156 54.53125 34.898438 54.648438 34.78125 C 54.851562 34.589844 54.867188 34.632812 54.777344 35.121094 C 54.722656 35.433594 54.722656 36.113281 54.777344 36.628906 L 54.867188 37.578125 L 55.960938 38.316406 C 56.5625 38.730469 57.164062 39.054688 57.308594 39.054688 C 57.441406 39.054688 57.703125 39.160156 57.878906 39.292969 L 58.214844 39.527344 L 57.777344 40.019531 C 57.292969 40.578125 57.085938 41.363281 56.898438 43.492188 C 56.664062 46.023438 57.0625 47.535156 58.246094 48.628906 C 58.960938 49.292969 59.589844 49.5 60.570312 49.367188 C 61.109375 49.292969 61.210938 49.339844 61.636719 49.796875 C 61.902344 50.074219 62.25 50.296875 62.410156 50.296875 C 62.574219 50.296875 63.011719 50.019531 63.40625 49.667969 L 64.097656 49.027344 L 63.714844 48.453125 C 63.347656 47.917969 63.347656 47.855469 63.550781 47.609375 C 63.890625 47.234375 64.34375 45.535156 64.445312 44.191406 C 64.550781 42.796875 64.226562 41.425781 63.566406 40.507812 C 63.320312 40.148438 63.203125 39.855469 63.289062 39.828125 C 63.375 39.796875 63.699219 39.589844 64.019531 39.367188 C 64.328125 39.128906 64.738281 38.894531 64.941406 38.832031 C 65.527344 38.65625 66.246094 38.019531 66.714844 37.292969 C 67.089844 36.703125 67.136719 36.511719 67.078125 35.863281 C 66.875 33.734375 64.78125 31.613281 61.917969 30.621094 C 61.019531 30.3125 59.617188 30.238281 59.019531 30.476562 C 58.671875 30.605469 58.679688 30.550781 59.238281 29.839844 C 60.058594 28.820312 60.628906 27.550781 60.917969 26.171875 L 61.171875 25.03125 L 62.210938 25.714844 C 63.628906 26.640625 65.292969 27.222656 66.621094 27.222656 C 68.101562 27.222656 68.9375 26.894531 69.914062 25.90625 C 71.523438 24.261719 71.800781 22.265625 70.71875 20.042969 C 70.238281 19.070312 69.808594 18.535156 67.9375 16.585938 C 65.308594 13.851562 65.074219 13.550781 65.074219 12.972656 C 65.074219 9.988281 60.863281 8.019531 55.683594 8.578125 L 53.945312 8.773438 L 53.507812 8.242188 C 52.421875 6.925781 50.714844 6.527344 49.367188 7.292969 L 48.726562 7.660156 L 48.1875 6.863281 C 46.703125 4.707031 44.648438 3.609375 42.730469 4.007812 Z M 48.480469 10.8125 C 48.417969 10.890625 48.417969 11.140625 48.480469 11.347656 L 48.566406 11.730469 L 49.019531 11.1875 C 49.441406 10.667969 49.488281 10.636719 50.144531 10.738281 C 50.511719 10.800781 51.226562 10.960938 51.722656 11.125 L 52.628906 11.410156 L 52.351562 11.878906 C 51.867188 12.726562 51.898438 12.765625 53.375 13.773438 C 55.015625 14.882812 56.957031 16.730469 57.832031 17.976562 C 59.339844 20.136719 59.957031 24.214844 59.125 26.640625 C 56.664062 33.925781 44.308594 36.6875 38.851562 31.203125 C 37.359375 29.679688 36.574219 27.398438 36.75 25.0625 C 36.792969 24.484375 36.921875 23.800781 37.042969 23.585938 C 37.160156 23.34375 37.421875 22.53125 37.628906 21.789062 C 38.34375 19.246094 39.804688 16.851562 41.9375 14.734375 C 42.964844 13.730469 42.976562 13.699219 42.777344 13.300781 C 42.65625 13.078125 42.378906 12.765625 42.160156 12.605469 L 41.761719 12.324219 L 42.347656 11.9375 C 42.65625 11.71875 43.210938 11.449219 43.5625 11.316406 C 44.292969 11.066406 44.910156 11.1875 45.671875 11.71875 C 46.0625 12 46.0625 12 46.0625 11.6875 C 46.0625 11.511719 45.988281 11.242188 45.917969 11.082031 C 45.769531 10.828125 45.816406 10.800781 46.238281 10.800781 C 46.664062 10.800781 46.78125 10.890625 47.085938 11.464844 C 47.410156 12.070312 47.464844 12.117188 47.628906 11.878906 C 47.734375 11.746094 47.820312 11.449219 47.820312 11.242188 C 47.820312 11.019531 47.863281 10.800781 47.917969 10.753906 C 48.082031 10.59375 48.578125 10.636719 48.480469 10.8125 Z M 61.917969 32.042969 C 63.058594 32.519531 64.066406 33.183594 64.707031 33.910156 C 65.308594 34.558594 65.789062 35.550781 65.804688 36.054688 C 65.804688 36.40625 64.867188 37.578125 64.574219 37.578125 C 64.472656 37.578125 64.226562 37.222656 64.003906 36.789062 L 63.613281 36.023438 L 63.640625 36.941406 C 63.667969 38.019531 63.535156 38.226562 62.511719 38.703125 C 61.242188 39.308594 59.695312 39.085938 58.609375 38.140625 C 58.246094 37.8125 58.230469 37.753906 58.347656 37 C 58.417969 36.558594 58.464844 36.175781 58.433594 36.144531 C 58.417969 36.128906 58.246094 36.46875 58.070312 36.910156 C 57.878906 37.355469 57.65625 37.722656 57.570312 37.722656 C 57.46875 37.722656 57.078125 37.476562 56.679688 37.191406 L 55.960938 36.660156 L 56.054688 35.710938 C 56.152344 34.722656 56.492188 33.894531 57.046875 33.289062 C 58.070312 32.195312 59.605469 31.453125 60.542969 31.613281 C 60.820312 31.660156 61.449219 31.851562 61.917969 32.042969 Z M 36.921875 32.625 C 38.546875 33.40625 39.628906 34.972656 39.628906 36.574219 C 39.628906 37.398438 39.628906 37.398438 38.945312 37.859375 C 38.574219 38.109375 38.183594 38.316406 38.082031 38.316406 C 37.976562 38.316406 37.789062 38.003906 37.636719 37.605469 C 37.273438 36.582031 37.171875 36.558594 37.320312 37.515625 C 37.464844 38.507812 37.335938 38.730469 36.234375 39.292969 C 35.296875 39.765625 34.117188 39.765625 33.125 39.292969 C 32.101562 38.816406 31.996094 38.640625 32.054688 37.578125 C 32.101562 36.789062 32.070312 36.71875 31.894531 36.941406 C 31.792969 37.085938 31.617188 37.429688 31.496094 37.683594 C 31.234375 38.304688 31.03125 38.289062 30.417969 37.652344 C 29.832031 37.046875 29.773438 36.480469 30.195312 35.609375 C 30.738281 34.441406 32.085938 33.359375 33.894531 32.609375 C 35.011719 32.148438 35.929688 32.148438 36.921875 32.625 Z M 36.921875 41.496094 C 37.128906 41.6875 37.289062 42.015625 37.289062 42.222656 C 37.289062 42.574219 36.644531 43.492188 36.398438 43.492188 C 36.328125 43.492188 36.265625 42.964844 36.265625 42.3125 C 36.265625 41.027344 36.351562 40.90625 36.921875 41.496094 Z M 61.050781 42.015625 C 61.328125 42.566406 61.609375 44.59375 61.480469 45.199219 C 61.433594 45.429688 61.226562 45.917969 61.019531 46.277344 C 60.726562 46.808594 60.613281 46.898438 60.351562 46.808594 C 59.695312 46.617188 59.632812 46.347656 59.703125 44.441406 C 59.792969 42.429688 60.042969 41.570312 60.527344 41.570312 C 60.71875 41.570312 60.917969 41.75 61.050781 42.015625 Z M 61.050781 42.015625 "/>
<path style=" stroke:none;fill-rule:nonzero;fill:rgb(0%,0%,0%);fill-opacity:1;" d="M 53.273438 15.828125 C 52.761719 16.140625 52.207031 16.90625 51.84375 17.824219 L 51.589844 18.417969 L 52.105469 17.871094 C 52.683594 17.234375 53.152344 17.011719 53.992188 17.011719 C 54.738281 17.011719 55.453125 17.441406 55.890625 18.167969 C 56.300781 18.847656 56.402344 18.566406 56.152344 17.355469 C 55.90625 16.183594 55.277344 15.535156 54.382812 15.535156 C 54 15.535156 53.550781 15.652344 53.273438 15.828125 Z M 53.273438 15.828125 "/>
<path style=" stroke:none;fill-rule:nonzero;fill:rgb(0%,0%,0%);fill-opacity:1;" d="M 41.414062 17.203125 C 40.636719 17.648438 40.316406 18.910156 40.699219 20.121094 L 40.902344 20.785156 L 41.09375 20.074219 C 41.191406 19.675781 41.460938 19.171875 41.707031 18.933594 C 42.484375 18.152344 43.871094 18.015625 44.671875 18.671875 C 44.878906 18.832031 45.039062 18.894531 45.039062 18.820312 C 45.039062 18.597656 43.617188 17.324219 43.210938 17.160156 C 42.683594 16.953125 41.824219 16.984375 41.414062 17.203125 Z M 41.414062 17.203125 "/>
<path style=" stroke:none;fill-rule:nonzero;fill:rgb(0%,0%,0%);fill-opacity:1;" d="M 47.085938 22.324219 C 45.214844 22.589844 44.308594 23.183594 44.308594 24.113281 C 44.308594 24.824219 44.6875 25.179688 45.957031 25.636719 C 46.679688 25.90625 47.117188 26.1875 47.511719 26.617188 L 48.066406 27.238281 L 47.410156 27.8125 C 45.757812 29.289062 43.839844 29.648438 42.277344 28.773438 C 41.570312 28.375 41.207031 28.019531 40.066406 26.632812 L 39.777344 26.257812 L 40.054688 27.042969 C 40.886719 29.367188 42.609375 30.847656 44.148438 30.550781 C 45.203125 30.34375 47.511719 28.921875 48.199219 28.050781 L 48.59375 27.550781 L 49.488281 28.035156 C 50.464844 28.582031 52.4375 29.144531 53.332031 29.144531 C 55.117188 29.128906 56.429688 27.382812 56.679688 24.707031 L 56.769531 23.746094 L 56.238281 24.910156 C 55.585938 26.394531 55.101562 27 54.136719 27.550781 C 53.507812 27.917969 53.199219 27.988281 52.382812 27.988281 C 51.414062 28.003906 50.273438 27.726562 49.398438 27.28125 L 49.003906 27.074219 L 49.921875 26.1875 C 50.4375 25.683594 51.242188 25.109375 51.753906 24.855469 C 52.789062 24.335938 53.097656 23.847656 52.761719 23.242188 C 52.367188 22.5 51.765625 22.308594 49.75 22.25 C 48.726562 22.234375 47.527344 22.265625 47.085938 22.324219 Z M 47.085938 22.324219 "/>
<path style=" stroke:none;fill-rule:nonzero;fill:rgb(0%,0%,0%);fill-opacity:1;" d="M 9.550781 38.585938 C 9.414062 38.65625 9.359375 40.109375 9.328125 43.9375 L 9.289062 49.1875 L 11.476562 49.21875 C 12.691406 49.25 13.761719 49.203125 13.878906 49.132812 C 14.125 48.964844 14.332031 47.578125 14.183594 47.042969 C 14.09375 46.722656 13.976562 46.660156 13.117188 46.539062 L 12.136719 46.410156 L 12.222656 42.574219 C 12.296875 39.457031 12.269531 38.746094 12.109375 38.703125 C 11.699219 38.570312 9.710938 38.480469 9.550781 38.585938 Z M 9.550781 38.585938 "/>
<path style=" stroke:none;fill-rule:nonzero;fill:rgb(0%,0%,0%);fill-opacity:1;" d="M 2.425781 39.902344 C 2.386719 40.523438 2.339844 42.828125 2.339844 45.046875 L 2.339844 49.070312 L 3.554688 49.164062 C 6.039062 49.367188 7.957031 49.203125 8.21875 48.773438 C 8.273438 48.671875 8.335938 48.183594 8.335938 47.679688 C 8.335938 46.421875 8.1875 46.308594 6.640625 46.308594 C 5.441406 46.308594 5.410156 46.292969 5.410156 45.949219 C 5.410156 45.566406 5.648438 45.414062 6.273438 45.414062 C 7.003906 45.414062 7.3125 45.046875 7.3125 44.175781 C 7.3125 43.066406 7.105469 42.84375 6.082031 42.886719 L 5.265625 42.917969 L 5.265625 41.617188 L 5.941406 41.511719 C 6.316406 41.464844 6.902344 41.425781 7.226562 41.425781 C 7.558594 41.425781 7.910156 41.347656 8.011719 41.25 C 8.1875 41.066406 8.265625 39.414062 8.097656 39 C 8.027344 38.792969 7.632812 38.761719 5.265625 38.761719 L 2.53125 38.761719 Z M 2.425781 39.902344 "/>
<path style=" stroke:none;fill-rule:nonzero;fill:rgb(0%,0%,0%);fill-opacity:1;" d="M 88.980469 39.039062 C 86.964844 39.972656 86.042969 43.730469 87.023438 46.972656 C 87.285156 47.855469 87.726562 48.40625 88.820312 49.234375 C 89.902344 50.066406 92.597656 49.042969 93.589844 47.417969 C 93.984375 46.765625 94.351562 45.285156 94.335938 44.308594 C 94.335938 43.507812 93.984375 41.808594 93.660156 41.042969 C 93.382812 40.339844 92.433594 39.335938 91.761719 39.039062 C 91.003906 38.6875 89.742188 38.6875 88.980469 39.039062 Z M 90.648438 42.015625 C 91.074219 42.238281 91.398438 43.257812 91.398438 44.351562 C 91.398438 45.597656 91.058594 46.363281 90.488281 46.421875 C 90.167969 46.46875 90.082031 46.394531 89.917969 45.910156 C 89.65625 45.105469 89.65625 42.429688 89.917969 42.121094 C 90.152344 41.824219 90.28125 41.808594 90.648438 42.015625 Z M 90.648438 42.015625 "/>
<path style=" stroke:none;fill-rule:nonzero;fill:rgb(0%,0%,0%);fill-opacity:1;" d="M 42.363281 39.039062 C 42.070312 39.101562 41.761719 39.207031 41.707031 39.261719 C 41.570312 39.414062 41.675781 48.421875 41.824219 48.957031 C 41.925781 49.324219 41.953125 49.339844 42.863281 49.292969 C 44.554688 49.234375 44.46875 49.324219 44.441406 47.695312 C 44.425781 46.929688 44.457031 46.261719 44.484375 46.230469 C 44.527344 46.1875 44.808594 46.734375 45.117188 47.441406 C 45.917969 49.324219 45.902344 49.324219 47.464844 49.164062 C 48.605469 49.058594 48.765625 49.011719 48.726562 48.773438 C 48.695312 48.628906 48.289062 47.785156 47.820312 46.929688 L 46.957031 45.34375 L 47.410156 44.871094 L 47.878906 44.382812 L 47.496094 43.984375 C 46.972656 43.40625 46.648438 42.710938 46.648438 42.136719 C 46.648438 41.617188 47.101562 40.492188 47.363281 40.332031 C 47.703125 40.125 47.496094 39.917969 46.546875 39.472656 C 45.742188 39.117188 45.332031 39.023438 44.25 38.984375 C 43.519531 38.953125 42.671875 38.984375 42.363281 39.039062 Z M 45.023438 41.511719 C 45.449219 42.058594 45.417969 42.621094 44.925781 43.09375 C 44.703125 43.316406 44.46875 43.492188 44.410156 43.492188 C 44.355469 43.492188 44.308594 42.964844 44.308594 42.3125 C 44.308594 40.996094 44.484375 40.804688 45.023438 41.511719 Z M 45.023438 41.511719 "/>
<path style=" stroke:none;fill-rule:nonzero;fill:rgb(0%,0%,0%);fill-opacity:1;" d="M 49.527344 39.015625 C 49.28125 39.246094 49.441406 39.621094 49.835938 39.695312 C 50.726562 39.871094 51.621094 41.050781 51.621094 42.03125 C 51.621094 43.109375 50.726562 44.28125 49.734375 44.472656 C 49.3125 44.5625 49.28125 44.601562 49.28125 45.253906 C 49.28125 46.140625 49.644531 47.5625 49.996094 48.066406 C 50.667969 49.011719 52.804688 49.691406 53.8125 49.261719 C 54.617188 48.925781 55.363281 47.902344 55.65625 46.707031 C 55.960938 45.507812 56.007812 43.140625 55.769531 40.550781 L 55.640625 39.015625 L 54.617188 38.953125 C 52.921875 38.863281 52.976562 38.792969 53.128906 40.5625 C 53.257812 42.253906 53.144531 45.03125 52.921875 45.460938 C 52.835938 45.625 52.644531 45.710938 52.453125 45.6875 C 52.015625 45.625 51.941406 45.078125 51.941406 41.96875 C 51.929688 40.148438 51.882812 39.261719 51.753906 39.117188 C 51.574219 38.910156 49.71875 38.808594 49.527344 39.015625 Z M 49.527344 39.015625 "/>
<path style=" stroke:none;fill-rule:nonzero;fill:rgb(0%,0%,0%);fill-opacity:1;" d="M 65.527344 39.039062 C 65.367188 39.144531 65.335938 39.765625 65.40625 42.550781 C 65.484375 46.085938 65.675781 47.3125 66.230469 48.082031 C 66.8125 48.910156 68.785156 49.621094 69.808594 49.355469 C 70.324219 49.21875 71.171875 48.4375 71.492188 47.800781 C 72.132812 46.539062 72.3125 44.011719 72.003906 40.539062 L 71.871094 39 L 70.570312 38.984375 L 69.269531 38.984375 L 69.332031 40.316406 C 69.417969 42.28125 69.316406 45.136719 69.152344 45.460938 C 69.0625 45.625 68.875 45.710938 68.683594 45.6875 C 68.246094 45.625 68.175781 45.046875 68.160156 41.898438 C 68.160156 40.164062 68.101562 39.261719 67.984375 39.117188 C 67.792969 38.878906 65.875 38.816406 65.527344 39.039062 Z M 65.527344 39.039062 "/>
<path style=" stroke:none;fill-rule:nonzero;fill:rgb(0%,0%,0%);fill-opacity:1;" d="M 73.117188 39.015625 C 73.027344 40.386719 73.058594 48.863281 73.132812 48.996094 C 73.234375 49.148438 73.832031 49.175781 75.78125 49.148438 C 77.167969 49.117188 78.335938 49.058594 78.367188 49.027344 C 78.410156 48.980469 78.4375 48.464844 78.4375 47.84375 C 78.453125 46.601562 78.320312 46.410156 77.550781 46.539062 C 77.296875 46.585938 76.875 46.585938 76.625 46.523438 C 76.25 46.4375 76.171875 46.363281 76.21875 46.054688 C 76.257812 45.726562 76.335938 45.6875 77.082031 45.65625 C 77.519531 45.640625 77.972656 45.566406 78.058594 45.507812 C 78.296875 45.359375 78.296875 43.484375 78.058594 43.15625 C 77.941406 43.003906 77.605469 42.902344 77.210938 42.871094 L 76.550781 42.828125 L 76.511719 42.191406 C 76.464844 41.496094 76.421875 41.527344 77.679688 41.570312 C 78.496094 41.601562 78.574219 41.449219 78.496094 39.941406 L 78.453125 38.984375 L 75.789062 38.9375 C 74.316406 38.921875 73.117188 38.953125 73.117188 39.015625 Z M 73.117188 39.015625 "/>
<path style=" stroke:none;fill-rule:nonzero;fill:rgb(0%,0%,0%);fill-opacity:1;" d="M 80.253906 39.015625 C 79.320312 39.117188 79.34375 38.910156 79.492188 44.871094 C 79.550781 47.457031 79.652344 49.058594 79.753906 49.1875 C 79.890625 49.367188 80.136719 49.382812 81.085938 49.292969 L 82.253906 49.1875 L 82.230469 47.664062 C 82.214844 46.835938 82.253906 46.1875 82.316406 46.230469 C 82.386719 46.261719 82.722656 46.929688 83.078125 47.710938 C 83.425781 48.480469 83.808594 49.148438 83.921875 49.1875 C 84.039062 49.234375 84.683594 49.234375 85.355469 49.175781 C 86.308594 49.101562 86.570312 49.027344 86.570312 48.851562 C 86.570312 48.734375 86.171875 47.902344 85.695312 47.03125 C 85.210938 46.15625 84.816406 45.40625 84.816406 45.34375 C 84.816406 45.285156 85.035156 45.015625 85.316406 44.753906 C 85.925781 44.144531 86.203125 43.613281 86.339844 42.78125 C 86.554688 41.347656 85.632812 39.925781 84.109375 39.351562 C 83.277344 39.023438 81.390625 38.863281 80.253906 39.015625 Z M 82.839844 41.496094 C 83.308594 41.957031 83.308594 42.472656 82.824219 43.035156 C 82.238281 43.746094 82.109375 43.628906 82.078125 42.429688 C 82.050781 40.980469 82.183594 40.820312 82.839844 41.496094 Z M 82.839844 41.496094 "/>
<path style=" stroke:none;fill-rule:nonzero;fill:rgb(0%,0%,0%);fill-opacity:1;" d="M 19.886719 39.191406 C 19.519531 39.292969 19.519531 39.308594 19.480469 41.050781 C 19.433594 43.421875 19.640625 48.925781 19.796875 49.070312 C 19.988281 49.277344 22.035156 49.21875 22.257812 48.996094 C 22.359375 48.894531 22.476562 48.320312 22.519531 47.664062 L 22.589844 46.523438 L 23.351562 46.421875 C 24.476562 46.261719 25.398438 45.757812 25.914062 45.0625 C 26.335938 44.488281 26.351562 44.410156 26.292969 43.183594 C 26.191406 41.050781 25.375 39.75 23.804688 39.277344 C 23.035156 39.054688 20.589844 39 19.886719 39.191406 Z M 23.035156 41.601562 C 23.46875 41.792969 23.613281 42.253906 23.5 43.003906 C 23.382812 43.660156 23.296875 43.761719 22.695312 43.882812 L 22.226562 43.96875 L 22.226562 42.695312 C 22.226562 41.320312 22.273438 41.25 23.035156 41.601562 Z M 23.035156 41.601562 "/>
<path style=" stroke:none;fill-rule:nonzero;fill:rgb(0%,0%,0%);fill-opacity:1;" d="M 31.148438 51.574219 C 30.460938 52.078125 30.285156 52.59375 30.625 53.257812 C 30.824219 53.6875 30.824219 53.746094 30.5625 54.191406 C 30.179688 54.8125 30.179688 55.628906 30.578125 56.113281 C 31.234375 56.976562 33.050781 56.984375 33.894531 56.128906 C 34.304688 55.714844 34.363281 55.554688 34.363281 54.902344 C 34.363281 54.191406 34.394531 54.144531 34.734375 54.144531 C 35.035156 54.144531 35.097656 54.070312 35.097656 53.703125 C 35.097656 53.332031 35.035156 53.257812 34.734375 53.257812 C 34.410156 53.257812 34.363281 53.203125 34.363281 52.738281 C 34.363281 52.09375 34.1875 52.09375 33.679688 52.738281 C 33.3125 53.203125 33.195312 53.257812 32.582031 53.257812 C 32.070312 53.257812 31.847656 53.1875 31.746094 52.992188 C 31.527344 52.578125 31.777344 52.324219 32.363281 52.402344 C 32.785156 52.445312 32.917969 52.402344 33.019531 52.132812 C 33.242188 51.660156 33.003906 51.453125 32.226562 51.382812 C 31.703125 51.335938 31.410156 51.382812 31.148438 51.574219 Z M 33.195312 54.648438 C 33.195312 55.300781 32.84375 55.65625 32.273438 55.597656 C 31.746094 55.539062 31.511719 55.210938 31.648438 54.695312 C 31.734375 54.296875 31.949219 54.191406 32.726562 54.160156 C 33.164062 54.144531 33.195312 54.175781 33.195312 54.648438 Z M 33.195312 54.648438 "/>
<path style=" stroke:none;fill-rule:nonzero;fill:rgb(0%,0%,0%);fill-opacity:1;" d="M 16.464844 51.628906 C 15.53125 51.925781 15.0625 52.714844 15.0625 54.03125 C 15.0625 54.972656 15.398438 55.964844 15.808594 56.320312 C 16.128906 56.585938 17.210938 56.792969 17.664062 56.675781 C 18.015625 56.570312 18.0625 56.480469 18.046875 56.011719 C 18.015625 55.332031 17.839844 55.140625 17.226562 55.125 C 16.773438 55.109375 16.742188 55.078125 16.609375 54.382812 C 16.410156 53.378906 16.6875 52.90625 17.472656 52.84375 C 18.101562 52.785156 18.28125 52.636719 18.28125 52.109375 C 18.28125 51.574219 17.433594 51.351562 16.464844 51.628906 Z M 16.464844 51.628906 "/>
<path style=" stroke:none;fill-rule:nonzero;fill:rgb(0%,0%,0%);fill-opacity:1;" d="M 37.992188 51.601562 L 37.597656 51.644531 L 37.550781 53.824219 C 37.496094 56.824219 37.4375 56.664062 38.460938 56.664062 C 40.753906 56.664062 41.96875 54.636719 40.8125 52.785156 C 40.578125 52.402344 40.230469 52.015625 40.039062 51.910156 C 39.660156 51.691406 38.574219 51.527344 37.992188 51.601562 Z M 39.527344 53.226562 C 39.90625 53.554688 39.847656 54.488281 39.4375 54.972656 C 38.945312 55.554688 38.753906 55.332031 38.753906 54.222656 C 38.753906 52.785156 38.851562 52.652344 39.527344 53.226562 Z M 39.527344 53.226562 "/>
<path style=" stroke:none;fill-rule:nonzero;fill:rgb(0%,0%,0%);fill-opacity:1;" d="M 42.863281 51.644531 C 42.085938 51.957031 41.632812 52.976562 41.660156 54.324219 C 41.691406 55.523438 41.824219 55.90625 42.363281 56.441406 C 42.699219 56.765625 42.875 56.824219 43.339844 56.75 C 43.972656 56.675781 44.5 56.335938 44.949219 55.730469 C 45.582031 54.871094 45.230469 52.429688 44.394531 51.882812 C 43.941406 51.589844 43.269531 51.484375 42.863281 51.644531 Z M 43.925781 54.207031 C 43.941406 54.886719 43.609375 55.460938 43.316406 55.269531 C 43.078125 55.125 42.964844 53.824219 43.140625 53.347656 L 43.300781 52.90625 L 43.609375 53.226562 C 43.824219 53.433594 43.914062 53.730469 43.925781 54.207031 Z M 43.925781 54.207031 "/>
<path style=" stroke:none;fill-rule:nonzero;fill:rgb(0%,0%,0%);fill-opacity:1;" d="M 46.515625 51.71875 C 45.988281 52.109375 45.742188 52.890625 45.757812 54.175781 C 45.769531 55.90625 46.179688 56.511719 47.304688 56.511719 C 48.449219 56.511719 48.988281 55.859375 48.988281 54.488281 C 48.988281 53.953125 48.929688 53.824219 48.636719 53.6875 C 48.433594 53.585938 48.050781 53.554688 47.757812 53.617188 C 47.273438 53.703125 47.234375 53.761719 47.234375 54.222656 C 47.234375 54.589844 47.289062 54.742188 47.464844 54.742188 C 47.597656 54.742188 47.671875 54.84375 47.640625 54.988281 C 47.582031 55.285156 47.378906 55.375 47.085938 55.179688 C 46.839844 55.035156 46.839844 53.925781 47.101562 53.15625 C 47.273438 52.59375 47.449219 52.53125 47.671875 52.976562 C 47.804688 53.21875 47.917969 53.257812 48.226562 53.1875 C 48.679688 53.066406 48.988281 52.84375 48.988281 52.636719 C 48.988281 52.546875 48.765625 52.269531 48.488281 51.988281 C 48.097656 51.589844 47.878906 51.484375 47.425781 51.484375 C 47.117188 51.484375 46.703125 51.589844 46.515625 51.71875 Z M 46.515625 51.71875 "/>
<path style=" stroke:none;fill-rule:nonzero;fill:rgb(0%,0%,0%);fill-opacity:1;" d="M 75.457031 51.644531 C 75.25 51.71875 74.933594 52.03125 74.726562 52.324219 C 74.386719 52.816406 74.359375 53.007812 74.359375 54.335938 L 74.359375 55.804688 L 74.917969 56.320312 C 75.410156 56.777344 75.542969 56.824219 76.011719 56.734375 C 76.640625 56.632812 77.136719 56.289062 77.558594 55.714844 C 78.191406 54.871094 77.835938 52.429688 77.003906 51.882812 C 76.566406 51.589844 75.878906 51.484375 75.457031 51.644531 Z M 76.511719 54.238281 C 76.496094 55.003906 76.171875 55.523438 75.878906 55.226562 C 75.703125 55.046875 75.664062 53.378906 75.820312 53.113281 C 75.894531 52.976562 76.011719 53.019531 76.234375 53.226562 C 76.4375 53.449219 76.511719 53.71875 76.511719 54.238281 Z M 76.511719 54.238281 "/>
<path style=" stroke:none;fill-rule:nonzero;fill:rgb(0%,0%,0%);fill-opacity:1;" d="M 19.402344 51.734375 C 19.378906 51.808594 19.242188 52.285156 19.113281 52.816406 C 18.25 56.351562 18.25 56.496094 18.863281 56.527344 C 19.113281 56.542969 19.390625 56.558594 19.496094 56.570312 C 19.582031 56.585938 19.679688 56.441406 19.710938 56.25 C 19.785156 55.804688 20.605469 55.773438 20.71875 56.21875 C 20.808594 56.558594 21.335938 56.734375 21.828125 56.601562 C 22.167969 56.527344 22.167969 56.480469 22.050781 55.628906 C 21.921875 54.636719 21.421875 52.492188 21.203125 51.957031 C 21.085938 51.675781 20.957031 51.628906 20.265625 51.628906 C 19.828125 51.628906 19.433594 51.675781 19.402344 51.734375 Z M 20.503906 54.222656 C 20.527344 54.542969 20.488281 54.679688 20.28125 54.710938 C 20.035156 54.75 20.019531 54.695312 20.09375 54.191406 C 20.136719 53.878906 20.164062 53.601562 20.179688 53.554688 C 20.195312 53.320312 20.457031 53.847656 20.503906 54.222656 Z M 20.503906 54.222656 "/>
<path style=" stroke:none;fill-rule:nonzero;fill:rgb(0%,0%,0%);fill-opacity:1;" d="M 22.082031 52.207031 C 22.082031 52.699219 22.136719 52.800781 22.417969 52.84375 C 22.726562 52.890625 22.742188 52.949219 22.78125 54.574219 C 22.796875 55.523438 22.898438 56.367188 22.988281 56.46875 C 23.160156 56.691406 23.921875 56.734375 24.058594 56.527344 C 24.097656 56.457031 24.144531 55.582031 24.144531 54.605469 C 24.160156 53.035156 24.183594 52.816406 24.40625 52.816406 C 24.785156 52.816406 24.960938 52.546875 24.890625 52.078125 L 24.828125 51.628906 L 22.082031 51.628906 Z M 22.082031 52.207031 "/>
<path style=" stroke:none;fill-rule:nonzero;fill:rgb(0%,0%,0%);fill-opacity:1;" d="M 25.488281 51.988281 C 24.875 52.515625 24.929688 53.273438 25.652344 54.265625 C 25.984375 54.742188 26.175781 55.140625 26.117188 55.269531 C 26.03125 55.492188 25.984375 55.492188 25.667969 55.269531 C 25.207031 54.972656 25.066406 55.046875 24.929688 55.644531 C 24.816406 56.1875 25.019531 56.46875 25.675781 56.601562 C 26.789062 56.808594 27.636719 56.1875 27.636719 55.179688 C 27.636719 54.664062 27.539062 54.472656 26.96875 53.847656 C 26.410156 53.257812 26.335938 53.097656 26.523438 53.019531 C 26.660156 52.976562 26.863281 53.007812 26.976562 53.113281 C 27.253906 53.347656 27.445312 53.203125 27.5625 52.636719 C 27.652344 52.253906 27.609375 52.117188 27.347656 51.898438 C 26.878906 51.511719 25.984375 51.558594 25.488281 51.988281 Z M 25.488281 51.988281 "/>
<path style=" stroke:none;fill-rule:nonzero;fill:rgb(0%,0%,0%);fill-opacity:1;" d="M 49.851562 52.0625 C 49.195312 52.722656 49.28125 53.304688 50.1875 54.488281 C 50.726562 55.164062 50.667969 55.65625 50.082031 55.269531 C 49.613281 54.957031 49.613281 54.957031 49.335938 55.507812 C 49.105469 55.964844 49.105469 55.980469 49.511719 56.335938 C 49.851562 56.648438 50.027344 56.675781 50.652344 56.617188 C 51.589844 56.527344 52.058594 56.042969 52.058594 55.164062 C 52.058594 54.664062 51.953125 54.457031 51.382812 53.847656 C 50.742188 53.15625 50.714844 52.769531 51.328125 53.113281 C 51.722656 53.320312 51.867188 53.21875 51.984375 52.636719 C 52.128906 52.015625 51.691406 51.628906 50.859375 51.628906 C 50.421875 51.628906 50.1875 51.734375 49.851562 52.0625 Z M 49.851562 52.0625 "/>
<path style=" stroke:none;fill-rule:nonzero;fill:rgb(0%,0%,0%);fill-opacity:1;" d="M 55.015625 51.75 C 54.691406 51.796875 54.691406 51.808594 54.722656 54.191406 L 54.761719 56.585938 L 55.347656 56.585938 C 55.921875 56.585938 55.933594 56.570312 56.0625 55.964844 C 56.183594 55.417969 56.238281 55.347656 56.695312 55.253906 C 57.457031 55.125 57.910156 54.589844 57.910156 53.847656 C 57.910156 53.15625 57.632812 52.386719 57.25 52.078125 C 56.988281 51.855469 55.640625 51.660156 55.015625 51.75 Z M 56.355469 52.90625 C 56.695312 53.035156 56.664062 53.808594 56.316406 53.984375 C 55.949219 54.191406 55.863281 54.054688 55.863281 53.378906 C 55.863281 52.816406 55.933594 52.738281 56.355469 52.90625 Z M 56.355469 52.90625 "/>
<path style=" stroke:none;fill-rule:nonzero;fill:rgb(0%,0%,0%);fill-opacity:1;" d="M 58.449219 53.433594 C 58.378906 55.125 58.402344 56.480469 58.554688 56.617188 C 58.679688 56.75 60.964844 56.457031 61.019531 56.289062 C 61.066406 56.203125 61.066406 55.953125 61.019531 55.730469 C 60.949219 55.390625 60.878906 55.332031 60.449219 55.332031 C 60.101562 55.332031 59.957031 55.253906 59.957031 55.109375 C 59.957031 54.957031 60.101562 54.886719 60.378906 54.886719 C 60.917969 54.886719 61.035156 54.710938 60.917969 54.054688 C 60.832031 53.65625 60.757812 53.554688 60.464844 53.554688 C 60.058594 53.554688 59.910156 53.378906 60.042969 53.035156 C 60.117188 52.859375 60.25 52.816406 60.496094 52.890625 C 60.757812 52.949219 60.863281 52.90625 60.964844 52.652344 C 61.019531 52.476562 61.050781 52.164062 61.011719 51.972656 C 60.949219 51.644531 60.894531 51.628906 59.734375 51.628906 L 58.539062 51.628906 Z M 58.449219 53.433594 "/>
<path style=" stroke:none;fill-rule:nonzero;fill:rgb(0%,0%,0%);fill-opacity:1;" d="M 61.566406 52.207031 C 61.566406 52.699219 61.621094 52.800781 61.902344 52.84375 C 62.210938 52.890625 62.226562 52.949219 62.265625 54.574219 C 62.28125 55.523438 62.382812 56.367188 62.472656 56.46875 C 62.675781 56.734375 63.390625 56.707031 63.613281 56.441406 C 63.742188 56.273438 63.773438 55.757812 63.726562 54.519531 C 63.65625 52.949219 63.667969 52.816406 63.917969 52.816406 C 64.257812 52.816406 64.460938 52.445312 64.375 51.988281 C 64.3125 51.644531 64.269531 51.628906 62.941406 51.628906 L 61.566406 51.628906 Z M 61.566406 52.207031 "/>
<path style=" stroke:none;fill-rule:nonzero;fill:rgb(0%,0%,0%);fill-opacity:1;" d="M 67.882812 51.957031 C 67.367188 52.515625 67.339844 53.019531 67.746094 53.746094 C 67.953125 54.101562 68.230469 54.472656 68.347656 54.589844 C 68.640625 54.828125 68.65625 55.332031 68.363281 55.332031 C 68.246094 55.332031 68 55.242188 67.835938 55.140625 C 67.574219 54.988281 67.5 55.003906 67.253906 55.316406 C 66.898438 55.746094 66.898438 55.851562 67.296875 56.203125 C 67.660156 56.558594 68.421875 56.734375 68.949219 56.601562 C 69.429688 56.480469 69.898438 55.699219 69.898438 55.003906 C 69.898438 54.574219 69.785156 54.3125 69.386719 53.863281 C 69.109375 53.554688 68.875 53.1875 68.875 53.035156 C 68.875 52.785156 69.007812 52.769531 69.738281 52.976562 C 69.871094 53.019531 70 52.859375 70.085938 52.53125 C 70.292969 51.882812 69.972656 51.628906 68.949219 51.628906 C 68.347656 51.628906 68.128906 51.703125 67.882812 51.957031 Z M 67.882812 51.957031 "/>
<path style=" stroke:none;fill-rule:nonzero;fill:rgb(0%,0%,0%);fill-opacity:1;" d="M 70.734375 51.734375 C 70.675781 51.78125 70.632812 52.917969 70.632812 54.25 L 70.632812 56.675781 L 71.261719 56.632812 L 71.871094 56.585938 L 71.917969 55.582031 C 71.960938 54.710938 71.992188 54.589844 72.238281 54.589844 C 72.503906 54.589844 72.53125 54.695312 72.53125 55.644531 L 72.53125 56.675781 L 73.070312 56.632812 C 73.773438 56.570312 73.820312 56.425781 73.832031 53.730469 L 73.847656 51.628906 L 73.1875 51.628906 C 72.546875 51.628906 72.53125 51.644531 72.53125 52.109375 C 72.53125 52.816406 72.386719 53.257812 72.148438 53.257812 C 72.003906 53.257812 71.949219 53.035156 71.949219 52.445312 L 71.949219 51.628906 L 71.390625 51.628906 C 71.085938 51.628906 70.777344 51.675781 70.734375 51.734375 Z M 70.734375 51.734375 "/>
<path style=" stroke:none;fill-rule:nonzero;fill:rgb(0%,0%,0%);fill-opacity:1;" d="M 78.320312 53.140625 C 78.28125 53.984375 78.296875 55.09375 78.351562 55.628906 L 78.453125 56.585938 L 78.996094 56.632812 C 79.636719 56.691406 79.890625 56.351562 79.8125 55.507812 C 79.769531 54.988281 79.800781 54.957031 80.28125 54.886719 C 81.539062 54.664062 82.09375 53.625 81.523438 52.53125 C 81.230469 51.941406 80.484375 51.628906 79.359375 51.628906 L 78.410156 51.628906 Z M 80.238281 53.050781 C 80.34375 53.320312 80.136719 53.730469 79.875 53.824219 C 79.753906 53.847656 79.699219 53.6875 79.699219 53.347656 C 79.699219 52.785156 80.0625 52.59375 80.238281 53.050781 Z M 80.238281 53.050781 "/>
</g>
</svg>
