<?xml version="1.0" encoding="UTF-8"?>
<svg xmlns="http://www.w3.org/2000/svg" xmlns:xlink="http://www.w3.org/1999/xlink" width="288pt" height="200pt" viewBox="0 0 288 200" version="1.1">
<g id="surface1">
<path style=" stroke:none;fill-rule:nonzero;fill:rgb(0%,0%,0%);fill-opacity:1;" d="M 124.488281 11.621094 C 121.511719 12.222656 118.527344 14.152344 115.417969 17.539062 C 113.796875 19.296875 112.476562 20.925781 112.476562 21.097656 C 112.476562 21.742188 117.542969 24.785156 119.125 25.085938 L 120.65625 25.34375 L 119.589844 26.5 C 119.039062 27.144531 118.3125 28.089844 118.058594 28.601562 C 117.628906 29.417969 117.207031 29.589844 115.460938 29.589844 C 109.75 29.589844 101.785156 31.644531 96.585938 34.390625 C 93.136719 36.234375 90.066406 39.152344 88.746094 41.722656 C 87.8125 43.609375 87.683594 44.296875 87.894531 46.699219 C 88.148438 50.085938 87.980469 50.472656 82.65625 58.746094 C 76.519531 68.269531 75.199219 71.613281 75.492188 76.929688 C 75.835938 83.574219 80.695312 88.894531 87.382812 89.835938 C 91.089844 90.394531 97.4375 87.992188 101.402344 84.5625 C 102.847656 83.363281 103.277344 83.191406 103.570312 83.660156 C 103.785156 84.003906 103.957031 84.390625 103.957031 84.605469 C 103.957031 84.777344 104.425781 85.894531 105.023438 87.136719 C 105.617188 88.335938 106.085938 89.410156 106.085938 89.449219 C 106.085938 89.496094 104.597656 89.621094 102.804688 89.707031 C 96.246094 90.136719 88.234375 95.027344 85 100.558594 C 82.742188 104.375 82.824219 108.019531 85.164062 111.019531 L 86.527344 112.738281 L 82.992188 112.863281 L 79.457031 112.992188 L 79.332031 127.488281 L 79.203125 141.9375 L 80.265625 142.367188 C 80.863281 142.582031 84.101562 142.667969 87.933594 142.496094 C 95.390625 142.195312 95.007812 142.453125 95.007812 138.292969 C 95.007812 135.207031 94.710938 134.90625 91.472656 134.90625 C 89.9375 134.863281 88.574219 134.777344 88.492188 134.648438 C 88.363281 134.519531 88.363281 133.964844 88.492188 133.363281 C 88.660156 132.375 88.875 132.289062 90.453125 132.417969 C 93.179688 132.589844 94.371094 131.777344 94.410156 129.714844 C 94.457031 128.773438 94.371094 127.230469 94.199219 126.285156 L 93.945312 124.570312 L 89.257812 124.144531 L 89.128906 122.300781 C 89 120.796875 89.128906 120.496094 89.769531 120.457031 C 90.195312 120.457031 91.515625 120.410156 92.667969 120.371094 C 94.753906 120.285156 94.796875 120.238281 94.921875 118.910156 C 95.050781 117.582031 95.09375 117.539062 96.203125 118.050781 C 96.839844 118.308594 97.4375 118.609375 97.523438 118.652344 C 97.652344 118.738281 97.820312 124.097656 97.945312 130.574219 C 98.117188 137.691406 98.375 142.496094 98.628906 142.753906 C 98.929688 143.050781 100.335938 143.097656 102.464844 142.882812 L 105.875 142.582031 L 105.917969 138.507812 C 105.960938 136.277344 106.042969 134.21875 106.042969 134.003906 C 106.128906 133.488281 107.664062 136.492188 109.023438 139.878906 C 109.539062 141.207031 110.308594 142.410156 110.6875 142.582031 C 111.03125 142.710938 112.945312 142.710938 114.902344 142.539062 C 117.800781 142.28125 118.445312 142.109375 118.445312 141.550781 C 118.445312 141.121094 117.292969 138.722656 115.929688 136.148438 L 113.371094 131.519531 L 115.246094 129.375 C 118.3125 125.816406 118.828125 121.355469 116.523438 117.882812 C 115.929688 116.9375 114.863281 115.824219 114.179688 115.394531 L 112.945312 114.667969 L 115.71875 112.820312 C 118.613281 110.894531 119.292969 109.863281 119.292969 107.375 C 119.292969 106.519531 119.421875 105.917969 119.636719 106.003906 C 123.550781 108.019531 127.300781 109.519531 129.691406 110.035156 C 133.734375 110.894531 141.40625 110.976562 141.917969 110.164062 C 142.128906 109.820312 142.257812 108.277344 142.214844 106.644531 L 142.085938 103.773438 L 143.453125 103.773438 C 144.984375 103.773438 145.027344 103.902344 144.855469 107.933594 C 144.8125 109.605469 144.898438 109.777344 145.835938 109.777344 C 146.390625 109.777344 146.988281 109.648438 147.15625 109.433594 C 147.328125 109.261719 147.625 109.132812 147.753906 109.089844 C 148.863281 108.964844 150.398438 108.320312 150.398438 108.019531 C 150.398438 107.804688 150.519531 107.675781 150.738281 107.71875 C 151.503906 107.847656 154.226562 106.304688 153.976562 105.832031 C 153.804688 105.574219 153.847656 105.488281 154.101562 105.617188 C 154.570312 105.917969 159 102.144531 158.746094 101.671875 C 158.660156 101.542969 158.875 101.160156 159.214844 100.816406 C 159.808594 100.257812 159.851562 100.386719 159.597656 101.800781 C 159.429688 102.699219 159.429688 104.675781 159.597656 106.175781 L 159.851562 108.917969 L 163.046875 111.0625 C 164.796875 112.261719 166.546875 113.207031 166.96875 113.207031 C 167.351562 113.207031 168.117188 113.507812 168.628906 113.894531 L 169.609375 114.582031 L 168.332031 115.996094 C 166.925781 117.625 166.332031 119.894531 165.773438 126.074219 C 165.09375 133.402344 166.246094 137.777344 169.695312 140.953125 C 171.78125 142.882812 173.617188 143.480469 176.472656 143.097656 C 178.042969 142.882812 178.347656 143.011719 179.578125 144.339844 C 180.347656 145.152344 181.367188 145.796875 181.839844 145.796875 C 182.304688 145.796875 183.582031 144.980469 184.738281 143.953125 L 186.738281 142.109375 L 185.628906 140.4375 C 184.566406 138.894531 184.566406 138.722656 185.160156 137.992188 C 186.144531 136.921875 187.460938 131.988281 187.757812 128.089844 C 188.054688 124.058594 187.121094 120.066406 185.203125 117.410156 C 184.480469 116.378906 184.140625 115.523438 184.394531 115.4375 C 184.652344 115.351562 185.585938 114.75 186.523438 114.105469 C 187.417969 113.421875 188.613281 112.738281 189.207031 112.566406 C 190.914062 112.050781 193 110.207031 194.367188 108.105469 C 195.46875 106.390625 195.597656 105.832031 195.429688 103.945312 C 194.832031 97.769531 188.742188 91.636719 180.390625 88.765625 C 177.792969 87.863281 173.699219 87.652344 171.953125 88.335938 C 170.929688 88.722656 170.972656 88.550781 172.59375 86.492188 C 174.980469 83.535156 176.636719 79.847656 177.492188 75.855469 L 178.214844 72.554688 L 181.242188 74.527344 C 185.375 77.230469 190.230469 78.902344 194.109375 78.902344 C 198.410156 78.902344 200.839844 77.957031 203.695312 75.085938 C 208.382812 70.324219 209.191406 64.535156 206.035156 58.105469 C 204.628906 55.273438 203.394531 53.730469 197.945312 48.070312 C 190.273438 40.136719 189.59375 39.277344 189.59375 37.605469 C 189.59375 28.945312 177.324219 23.242188 162.242188 24.871094 L 157.167969 25.429688 L 155.894531 23.886719 C 152.738281 20.066406 147.753906 18.910156 143.835938 21.140625 L 141.960938 22.214844 L 140.382812 19.894531 C 136.078125 13.636719 130.074219 10.464844 124.488281 11.621094 Z M 141.238281 31.347656 C 141.066406 31.558594 141.066406 32.289062 141.238281 32.890625 L 141.492188 34.003906 L 142.808594 32.417969 C 144.050781 30.917969 144.175781 30.832031 146.089844 31.132812 C 147.15625 31.304688 149.246094 31.777344 150.691406 32.246094 L 153.332031 33.0625 L 152.527344 34.433594 C 151.121094 36.878906 151.203125 37.007812 155.507812 39.921875 C 160.28125 43.136719 165.945312 48.5 168.5 52.101562 C 172.890625 58.363281 174.679688 70.199219 172.253906 77.230469 C 165.09375 98.328125 129.09375 106.347656 113.203125 90.4375 C 108.855469 86.019531 106.554688 79.417969 107.066406 72.640625 C 107.195312 70.96875 107.578125 68.996094 107.917969 68.355469 C 108.257812 67.667969 109.023438 65.308594 109.625 63.164062 C 111.710938 55.789062 115.972656 48.839844 122.191406 42.710938 C 125.171875 39.792969 125.214844 39.707031 124.621094 38.550781 C 124.28125 37.90625 123.46875 37.007812 122.832031 36.535156 L 121.675781 35.722656 L 123.382812 34.605469 C 124.28125 33.964844 125.894531 33.191406 126.921875 32.804688 C 129.050781 32.074219 130.839844 32.417969 133.054688 33.964844 C 134.207031 34.777344 134.207031 34.777344 134.207031 33.878906 C 134.207031 33.363281 133.992188 32.589844 133.78125 32.117188 C 133.355469 31.390625 133.480469 31.304688 134.71875 31.304688 C 135.953125 31.304688 136.292969 31.558594 137.1875 33.234375 C 138.125 34.992188 138.296875 35.121094 138.765625 34.433594 C 139.0625 34.046875 139.316406 33.191406 139.316406 32.589844 C 139.316406 31.949219 139.445312 31.304688 139.617188 31.175781 C 140.082031 30.703125 141.53125 30.832031 141.238281 31.347656 Z M 180.390625 92.882812 C 183.710938 94.253906 186.652344 96.183594 188.527344 98.285156 C 190.273438 100.171875 191.683594 103.042969 191.722656 104.503906 C 191.722656 105.53125 188.996094 108.917969 188.140625 108.917969 C 187.84375 108.917969 187.121094 107.890625 186.480469 106.644531 L 185.332031 104.417969 L 185.417969 107.074219 C 185.5 110.207031 185.117188 110.808594 182.132812 112.179688 C 178.429688 113.9375 173.910156 113.292969 170.761719 110.550781 C 169.695312 109.605469 169.652344 109.433594 169.992188 107.246094 C 170.207031 105.960938 170.335938 104.847656 170.25 104.761719 C 170.207031 104.714844 169.695312 105.703125 169.1875 106.988281 C 168.628906 108.277344 167.992188 109.347656 167.734375 109.347656 C 167.4375 109.347656 166.289062 108.621094 165.136719 107.804688 L 163.046875 106.261719 L 163.304688 103.515625 C 163.605469 100.644531 164.582031 98.242188 166.203125 96.484375 C 169.1875 93.308594 173.65625 91.167969 176.386719 91.636719 C 177.195312 91.765625 179.027344 92.324219 180.390625 92.882812 Z M 107.578125 94.554688 C 112.304688 96.824219 115.460938 101.371094 115.460938 106.003906 C 115.460938 108.402344 115.460938 108.402344 113.457031 109.734375 C 112.390625 110.464844 111.242188 111.0625 110.945312 111.0625 C 110.644531 111.0625 110.09375 110.164062 109.664062 109.003906 C 108.601562 106.046875 108.300781 105.960938 108.726562 108.746094 C 109.152344 111.621094 108.773438 112.261719 105.574219 113.894531 C 102.847656 115.265625 99.394531 115.265625 96.5 113.894531 C 93.515625 112.519531 93.21875 112.007812 93.390625 108.917969 C 93.515625 106.644531 93.4375 106.433594 92.921875 107.074219 C 92.621094 107.503906 92.109375 108.488281 91.769531 109.21875 C 91.003906 111.019531 90.40625 110.976562 88.617188 109.132812 C 86.914062 107.375 86.742188 105.746094 87.980469 103.214844 C 89.554688 99.828125 93.476562 96.699219 98.761719 94.511719 C 101.996094 93.183594 104.683594 93.183594 107.578125 94.554688 Z M 107.578125 120.285156 C 108.175781 120.839844 108.640625 121.785156 108.640625 122.386719 C 108.640625 123.414062 106.765625 126.074219 106.042969 126.074219 C 105.832031 126.074219 105.660156 124.527344 105.660156 122.640625 C 105.660156 118.910156 105.917969 118.566406 107.578125 120.285156 Z M 177.878906 121.785156 C 178.683594 123.371094 179.492188 129.246094 179.113281 131.003906 C 178.984375 131.691406 178.386719 133.105469 177.792969 134.132812 C 176.9375 135.675781 176.597656 135.933594 175.832031 135.675781 C 173.910156 135.121094 173.738281 134.347656 173.957031 128.816406 C 174.210938 122.984375 174.9375 120.496094 176.34375 120.496094 C 176.894531 120.496094 177.492188 121.011719 177.878906 121.785156 Z M 177.878906 121.785156 "/>
<path style=" stroke:none;fill-rule:nonzero;fill:rgb(0%,0%,0%);fill-opacity:1;" d="M 155.210938 45.882812 C 153.71875 46.785156 152.101562 49.011719 151.035156 51.671875 L 150.3125 53.386719 L 151.800781 51.800781 C 153.503906 49.957031 154.871094 49.316406 157.296875 49.316406 C 159.472656 49.316406 161.558594 50.558594 162.835938 52.660156 C 164.03125 54.628906 164.328125 53.816406 163.605469 50.300781 C 162.878906 46.910156 161.046875 45.027344 158.449219 45.027344 C 157.339844 45.027344 156.019531 45.371094 155.210938 45.882812 Z M 155.210938 45.882812 "/>
<path style=" stroke:none;fill-rule:nonzero;fill:rgb(0%,0%,0%);fill-opacity:1;" d="M 120.65625 49.871094 C 118.398438 51.160156 117.457031 54.800781 118.570312 58.320312 L 119.167969 60.25 L 119.71875 58.191406 C 120.019531 57.035156 120.785156 55.574219 121.511719 54.886719 C 123.769531 52.613281 127.816406 52.230469 130.15625 54.117188 C 130.753906 54.589844 131.222656 54.761719 131.222656 54.542969 C 131.222656 53.902344 127.09375 50.214844 125.894531 49.742188 C 124.367188 49.144531 121.847656 49.230469 120.65625 49.871094 Z M 120.65625 49.871094 "/>
<path style=" stroke:none;fill-rule:nonzero;fill:rgb(0%,0%,0%);fill-opacity:1;" d="M 137.1875 64.707031 C 131.734375 65.480469 129.09375 67.195312 129.09375 69.894531 C 129.09375 71.957031 130.199219 72.984375 133.90625 74.316406 C 135.996094 75.085938 137.273438 75.902344 138.425781 77.144531 L 140.042969 78.945312 L 138.125 80.617188 C 133.3125 84.90625 127.730469 85.933594 123.167969 83.402344 C 121.125 82.246094 120.0625 81.21875 116.738281 77.1875 L 115.890625 76.113281 L 116.691406 78.386719 C 119.125 85.121094 124.152344 89.410156 128.625 88.550781 C 131.6875 87.949219 138.425781 83.832031 140.425781 81.304688 L 141.578125 79.847656 L 144.175781 81.261719 C 147.027344 82.847656 152.78125 84.476562 155.382812 84.476562 C 160.578125 84.433594 164.414062 79.375 165.136719 71.613281 L 165.390625 68.824219 L 163.859375 72.214844 C 161.941406 76.5 160.535156 78.257812 157.722656 79.847656 C 155.894531 80.917969 154.996094 81.132812 152.609375 81.132812 C 149.796875 81.175781 146.476562 80.359375 143.921875 79.074219 L 142.769531 78.472656 L 145.453125 75.902344 C 146.945312 74.441406 149.289062 72.769531 150.777344 72.042969 C 153.804688 70.539062 154.699219 69.125 153.71875 67.367188 C 152.570312 65.222656 150.824219 64.667969 144.941406 64.496094 C 141.960938 64.449219 138.46875 64.535156 137.1875 64.707031 Z M 137.1875 64.707031 "/>
<path style=" stroke:none;fill-rule:nonzero;fill:rgb(0%,0%,0%);fill-opacity:1;" d="M 27.820312 111.835938 C 27.433594 112.050781 27.265625 116.253906 27.183594 127.359375 L 27.054688 142.582031 L 33.445312 142.667969 C 36.984375 142.753906 40.089844 142.625 40.433594 142.410156 C 41.15625 141.9375 41.75 137.90625 41.328125 136.363281 C 41.070312 135.417969 40.730469 135.25 38.214844 134.90625 L 35.363281 134.519531 L 35.617188 123.414062 C 35.832031 114.363281 35.746094 112.308594 35.277344 112.179688 C 34.085938 111.792969 28.289062 111.535156 27.820312 111.835938 Z M 27.820312 111.835938 "/>
<path style=" stroke:none;fill-rule:nonzero;fill:rgb(0%,0%,0%);fill-opacity:1;" d="M 7.074219 115.652344 C 6.945312 117.453125 6.816406 124.144531 6.816406 130.574219 L 6.816406 142.238281 L 10.355469 142.496094 C 17.59375 143.097656 23.179688 142.625 23.945312 141.378906 C 24.113281 141.082031 24.285156 139.667969 24.285156 138.207031 C 24.285156 134.5625 23.859375 134.21875 19.34375 134.21875 C 15.847656 134.21875 15.761719 134.175781 15.761719 133.191406 C 15.761719 132.074219 16.445312 131.644531 18.277344 131.644531 C 20.40625 131.644531 21.300781 130.574219 21.300781 128.042969 C 21.300781 124.828125 20.707031 124.183594 17.722656 124.316406 L 15.339844 124.398438 L 15.339844 120.625 L 17.300781 120.324219 C 18.40625 120.199219 20.113281 120.066406 21.046875 120.066406 C 22.023438 120.066406 23.050781 119.855469 23.347656 119.554688 C 23.859375 119.039062 24.070312 114.238281 23.601562 113.035156 C 23.390625 112.433594 22.238281 112.347656 15.339844 112.347656 L 7.371094 112.347656 Z M 7.074219 115.652344 "/>
<path style=" stroke:none;fill-rule:nonzero;fill:rgb(0%,0%,0%);fill-opacity:1;" d="M 259.253906 113.164062 C 253.375 115.867188 250.6875 126.757812 253.546875 136.148438 C 254.308594 138.722656 255.585938 140.308594 258.785156 142.710938 C 261.9375 145.113281 269.773438 142.152344 272.671875 137.433594 C 273.820312 135.550781 274.890625 131.261719 274.847656 128.429688 C 274.847656 126.113281 273.820312 121.183594 272.886719 118.953125 C 272.074219 116.9375 269.304688 114.023438 267.347656 113.164062 C 265.128906 112.136719 261.464844 112.136719 259.253906 113.164062 Z M 264.105469 121.785156 C 265.34375 122.425781 266.28125 125.386719 266.28125 128.558594 C 266.28125 132.160156 265.300781 134.390625 263.640625 134.5625 C 262.703125 134.691406 262.445312 134.476562 261.980469 133.0625 C 261.207031 130.746094 261.207031 122.984375 261.980469 122.082031 C 262.660156 121.226562 263.042969 121.183594 264.105469 121.785156 Z M 264.105469 121.785156 "/>
<path style=" stroke:none;fill-rule:nonzero;fill:rgb(0%,0%,0%);fill-opacity:1;" d="M 123.425781 113.164062 C 122.574219 113.335938 121.675781 113.636719 121.511719 113.808594 C 121.125 114.238281 121.425781 140.351562 121.847656 141.894531 C 122.148438 142.964844 122.234375 143.011719 124.875 142.882812 C 129.816406 142.710938 129.5625 142.964844 129.476562 138.25 C 129.433594 136.019531 129.519531 134.089844 129.605469 134.003906 C 129.734375 133.878906 130.542969 135.464844 131.4375 137.519531 C 133.78125 142.964844 133.734375 142.964844 138.296875 142.496094 C 141.617188 142.195312 142.085938 142.066406 141.960938 141.378906 C 141.875 140.953125 140.679688 138.507812 139.316406 136.019531 L 136.804688 131.433594 L 138.125 130.058594 L 139.488281 128.644531 L 138.382812 127.488281 C 136.847656 125.816406 135.910156 123.800781 135.910156 122.128906 C 135.910156 120.625 137.226562 117.367188 138 116.894531 C 138.976562 116.292969 138.382812 115.695312 135.613281 114.410156 C 133.269531 113.378906 132.074219 113.121094 128.921875 112.992188 C 126.792969 112.90625 124.324219 112.992188 123.425781 113.164062 Z M 131.179688 120.324219 C 132.417969 121.910156 132.332031 123.542969 130.882812 124.914062 C 130.242188 125.558594 129.5625 126.074219 129.390625 126.074219 C 129.21875 126.074219 129.09375 124.527344 129.09375 122.640625 C 129.09375 118.824219 129.605469 118.269531 131.179688 120.324219 Z M 131.179688 120.324219 "/>
<path style=" stroke:none;fill-rule:nonzero;fill:rgb(0%,0%,0%);fill-opacity:1;" d="M 144.300781 113.078125 C 143.578125 113.765625 144.050781 114.835938 145.199219 115.050781 C 147.796875 115.566406 150.398438 118.996094 150.398438 121.824219 C 150.398438 124.957031 147.796875 128.34375 144.898438 128.902344 C 143.664062 129.160156 143.578125 129.289062 143.578125 131.175781 C 143.578125 133.746094 144.644531 137.863281 145.664062 139.324219 C 147.625 142.066406 153.847656 144.039062 156.785156 142.796875 C 159.128906 141.808594 161.304688 138.851562 162.15625 135.378906 C 163.046875 131.902344 163.179688 125.042969 162.492188 117.539062 L 162.113281 113.078125 L 159.128906 112.90625 C 154.1875 112.652344 154.355469 112.433594 154.785156 117.582031 C 155.167969 122.46875 154.824219 130.53125 154.1875 131.777344 C 153.933594 132.246094 153.378906 132.503906 152.824219 132.417969 C 151.542969 132.246094 151.332031 130.660156 151.332031 121.65625 C 151.289062 116.378906 151.164062 113.808594 150.777344 113.378906 C 150.269531 112.777344 144.855469 112.480469 144.300781 113.078125 Z M 144.300781 113.078125 "/>
<path style=" stroke:none;fill-rule:nonzero;fill:rgb(0%,0%,0%);fill-opacity:1;" d="M 190.914062 113.164062 C 190.445312 113.464844 190.359375 115.265625 190.570312 123.328125 C 190.78125 133.574219 191.339844 137.136719 192.957031 139.363281 C 194.664062 141.765625 200.414062 143.824219 203.394531 143.050781 C 204.886719 142.667969 207.359375 140.394531 208.296875 138.550781 C 210.171875 134.90625 210.679688 127.574219 209.785156 117.496094 L 209.402344 113.035156 L 205.613281 112.992188 L 201.816406 112.992188 L 201.988281 116.851562 C 202.246094 122.554688 201.945312 130.832031 201.480469 131.777344 C 201.222656 132.246094 200.667969 132.503906 200.117188 132.417969 C 198.835938 132.246094 198.625 130.574219 198.582031 121.441406 C 198.582031 116.425781 198.410156 113.808594 198.070312 113.378906 C 197.519531 112.691406 191.9375 112.519531 190.914062 113.164062 Z M 190.914062 113.164062 "/>
<path style=" stroke:none;fill-rule:nonzero;fill:rgb(0%,0%,0%);fill-opacity:1;" d="M 213.027344 113.078125 C 212.769531 117.066406 212.855469 141.636719 213.0625 142.023438 C 213.367188 142.453125 215.109375 142.539062 220.777344 142.453125 C 224.828125 142.367188 228.234375 142.195312 228.320312 142.109375 C 228.453125 141.980469 228.53125 140.480469 228.53125 138.679688 C 228.574219 135.078125 228.195312 134.519531 225.933594 134.90625 C 225.210938 135.035156 223.976562 135.035156 223.25 134.863281 C 222.140625 134.605469 221.929688 134.390625 222.054688 133.488281 C 222.1875 132.546875 222.398438 132.417969 224.570312 132.332031 C 225.847656 132.289062 227.167969 132.074219 227.425781 131.902344 C 228.109375 131.472656 228.109375 126.027344 227.425781 125.085938 C 227.085938 124.65625 226.105469 124.355469 224.953125 124.269531 L 223.035156 124.144531 L 222.90625 122.300781 C 222.785156 120.285156 222.65625 120.371094 226.320312 120.496094 C 228.703125 120.582031 228.917969 120.152344 228.703125 115.78125 L 228.574219 112.992188 L 220.820312 112.863281 C 216.519531 112.820312 213.027344 112.90625 213.027344 113.078125 Z M 213.027344 113.078125 "/>
<path style=" stroke:none;fill-rule:nonzero;fill:rgb(0%,0%,0%);fill-opacity:1;" d="M 233.816406 113.078125 C 231.09375 113.378906 231.175781 112.777344 231.601562 130.058594 C 231.769531 137.566406 232.066406 142.195312 232.367188 142.582031 C 232.75 143.097656 233.476562 143.136719 236.246094 142.882812 L 239.65625 142.582031 L 239.570312 138.164062 C 239.527344 135.761719 239.65625 133.878906 239.824219 134.003906 C 240.035156 134.089844 241.019531 136.019531 242.039062 138.292969 C 243.0625 140.523438 244.167969 142.453125 244.507812 142.582031 C 244.851562 142.710938 246.726562 142.710938 248.6875 142.539062 C 251.453125 142.324219 252.222656 142.109375 252.222656 141.597656 C 252.222656 141.253906 251.070312 138.851562 249.664062 136.320312 C 248.257812 133.792969 247.109375 131.605469 247.109375 131.433594 C 247.109375 131.261719 247.75 130.488281 248.558594 129.714844 C 250.347656 127.957031 251.15625 126.414062 251.539062 124.011719 C 252.179688 119.855469 249.496094 115.738281 245.066406 114.066406 C 242.632812 113.121094 237.136719 112.652344 233.816406 113.078125 Z M 241.355469 120.285156 C 242.71875 121.613281 242.71875 123.113281 241.3125 124.742188 C 239.613281 126.800781 239.230469 126.457031 239.144531 122.984375 C 239.058594 118.78125 239.441406 118.308594 241.355469 120.285156 Z M 241.355469 120.285156 "/>
<path style=" stroke:none;fill-rule:nonzero;fill:rgb(0%,0%,0%);fill-opacity:1;" d="M 57.941406 113.59375 C 56.878906 113.894531 56.878906 113.9375 56.75 118.996094 C 56.625 125.855469 57.21875 141.808594 57.6875 142.238281 C 58.242188 142.839844 64.203125 142.667969 64.84375 142.023438 C 65.144531 141.722656 65.480469 140.050781 65.613281 138.164062 L 65.824219 134.863281 L 68.042969 134.5625 C 71.320312 134.089844 74.003906 132.632812 75.492188 130.617188 C 76.730469 128.945312 76.773438 128.730469 76.605469 125.171875 C 76.308594 118.996094 73.917969 115.222656 69.363281 113.851562 C 67.101562 113.207031 59.988281 113.035156 57.941406 113.59375 Z M 67.101562 120.582031 C 68.378906 121.140625 68.808594 122.46875 68.464844 124.65625 C 68.128906 126.542969 67.871094 126.84375 66.121094 127.1875 L 64.761719 127.445312 L 64.761719 123.753906 C 64.761719 119.769531 64.886719 119.554688 67.101562 120.582031 Z M 67.101562 120.582031 "/>
<path style=" stroke:none;fill-rule:nonzero;fill:rgb(0%,0%,0%);fill-opacity:1;" d="M 90.746094 149.484375 C 88.746094 150.941406 88.234375 152.445312 89.214844 154.375 C 89.808594 155.617188 89.808594 155.789062 89.046875 157.074219 C 87.933594 158.878906 87.933594 161.234375 89.085938 162.652344 C 91.003906 165.136719 96.289062 165.179688 98.761719 162.691406 C 99.949219 161.492188 100.121094 161.019531 100.121094 159.132812 C 100.121094 157.074219 100.207031 156.949219 101.1875 156.949219 C 102.082031 156.949219 102.253906 156.730469 102.253906 155.660156 C 102.253906 154.589844 102.082031 154.375 101.1875 154.375 C 100.25 154.375 100.121094 154.203125 100.121094 152.871094 C 100.121094 150.988281 99.613281 150.988281 98.117188 152.871094 C 97.050781 154.203125 96.714844 154.375 94.921875 154.375 C 93.4375 154.375 92.792969 154.160156 92.496094 153.601562 C 91.855469 152.402344 92.582031 151.671875 94.285156 151.886719 C 95.519531 152.015625 95.90625 151.886719 96.203125 151.113281 C 96.839844 149.742188 96.160156 149.144531 93.902344 148.925781 C 92.363281 148.800781 91.515625 148.925781 90.746094 149.484375 Z M 96.714844 158.402344 C 96.714844 160.292969 95.691406 161.320312 94.03125 161.148438 C 92.496094 160.976562 91.8125 160.035156 92.195312 158.535156 C 92.449219 157.375 93.09375 157.074219 95.347656 156.988281 C 96.628906 156.949219 96.714844 157.035156 96.714844 158.402344 Z M 96.714844 158.402344 "/>
<path style=" stroke:none;fill-rule:nonzero;fill:rgb(0%,0%,0%);fill-opacity:1;" d="M 47.972656 149.65625 C 45.246094 150.515625 43.882812 152.785156 43.882812 156.605469 C 43.882812 159.347656 44.863281 162.222656 46.054688 163.25 C 46.996094 164.023438 50.144531 164.621094 51.46875 164.277344 C 52.492188 163.980469 52.617188 163.722656 52.574219 162.347656 C 52.492188 160.378906 51.980469 159.820312 50.1875 159.777344 C 48.867188 159.734375 48.78125 159.648438 48.402344 157.632812 C 47.800781 154.714844 48.609375 153.34375 50.914062 153.175781 C 52.742188 153.003906 53.257812 152.574219 53.257812 151.027344 C 53.257812 149.484375 50.785156 148.839844 47.972656 149.65625 Z M 47.972656 149.65625 "/>
<path style=" stroke:none;fill-rule:nonzero;fill:rgb(0%,0%,0%);fill-opacity:1;" d="M 110.6875 149.570312 L 109.539062 149.699219 L 109.40625 156.003906 C 109.238281 164.707031 109.066406 164.238281 112.050781 164.238281 C 118.742188 164.238281 122.277344 158.363281 118.910156 153.003906 C 118.230469 151.886719 117.207031 150.769531 116.652344 150.472656 C 115.546875 149.828125 112.390625 149.355469 110.6875 149.570312 Z M 115.160156 154.289062 C 116.269531 155.230469 116.097656 157.933594 114.902344 159.347656 C 113.457031 161.019531 112.90625 160.378906 112.90625 157.160156 C 112.90625 153.003906 113.203125 152.613281 115.160156 154.289062 Z M 115.160156 154.289062 "/>
<path style=" stroke:none;fill-rule:nonzero;fill:rgb(0%,0%,0%);fill-opacity:1;" d="M 124.875 149.699219 C 122.617188 150.601562 121.296875 153.558594 121.382812 157.460938 C 121.46875 160.933594 121.847656 162.050781 123.425781 163.59375 C 124.410156 164.535156 124.917969 164.707031 126.28125 164.496094 C 128.113281 164.277344 129.648438 163.292969 130.96875 161.535156 C 132.800781 159.046875 131.773438 151.972656 129.347656 150.386719 C 128.027344 149.527344 126.066406 149.230469 124.875 149.699219 Z M 127.984375 157.117188 C 128.027344 159.089844 127.050781 160.761719 126.195312 160.207031 C 125.511719 159.777344 125.171875 156.003906 125.683594 154.628906 L 126.152344 153.34375 L 127.050781 154.289062 C 127.6875 154.886719 127.941406 155.746094 127.984375 157.117188 Z M 127.984375 157.117188 "/>
<path style=" stroke:none;fill-rule:nonzero;fill:rgb(0%,0%,0%);fill-opacity:1;" d="M 135.527344 149.914062 C 133.992188 151.027344 133.269531 153.300781 133.3125 157.035156 C 133.355469 162.050781 134.546875 163.808594 137.828125 163.808594 C 141.152344 163.808594 142.726562 161.921875 142.726562 157.933594 C 142.726562 156.390625 142.554688 156.003906 141.703125 155.617188 C 141.109375 155.316406 139.996094 155.230469 139.148438 155.402344 C 137.742188 155.660156 137.613281 155.832031 137.613281 157.160156 C 137.613281 158.234375 137.785156 158.660156 138.296875 158.660156 C 138.679688 158.660156 138.890625 158.964844 138.804688 159.390625 C 138.632812 160.25 138.039062 160.503906 137.1875 159.949219 C 136.460938 159.519531 136.460938 156.304688 137.226562 154.074219 C 137.742188 152.445312 138.253906 152.273438 138.890625 153.558594 C 139.273438 154.246094 139.617188 154.375 140.511719 154.160156 C 141.832031 153.816406 142.726562 153.175781 142.726562 152.574219 C 142.726562 152.316406 142.085938 151.5 141.28125 150.683594 C 140.125 149.527344 139.488281 149.230469 138.167969 149.230469 C 137.273438 149.230469 136.078125 149.527344 135.527344 149.914062 Z M 135.527344 149.914062 "/>
<path style=" stroke:none;fill-rule:nonzero;fill:rgb(0%,0%,0%);fill-opacity:1;" d="M 219.84375 149.699219 C 219.242188 149.914062 218.308594 150.816406 217.710938 151.671875 C 216.730469 153.089844 216.648438 153.644531 216.648438 157.503906 L 216.648438 161.75 L 218.265625 163.25 C 219.714844 164.582031 220.09375 164.707031 221.460938 164.449219 C 223.292969 164.152344 224.742188 163.164062 225.976562 161.492188 C 227.808594 159.046875 226.785156 151.972656 224.355469 150.386719 C 223.078125 149.527344 221.078125 149.230469 219.84375 149.699219 Z M 222.90625 157.203125 C 222.871094 159.433594 221.929688 160.933594 221.078125 160.078125 C 220.566406 159.5625 220.4375 154.714844 220.90625 153.945312 C 221.117188 153.558594 221.460938 153.6875 222.101562 154.289062 C 222.699219 154.933594 222.90625 155.703125 222.90625 157.203125 Z M 222.90625 157.203125 "/>
<path style=" stroke:none;fill-rule:nonzero;fill:rgb(0%,0%,0%);fill-opacity:1;" d="M 56.539062 149.957031 C 56.453125 150.171875 56.066406 151.542969 55.683594 153.089844 C 53.171875 163.335938 53.171875 163.765625 54.960938 163.851562 C 55.683594 163.894531 56.496094 163.9375 56.792969 163.980469 C 57.046875 164.023438 57.34375 163.59375 57.429688 163.035156 C 57.644531 161.75 60.03125 161.664062 60.371094 162.949219 C 60.625 163.9375 62.164062 164.449219 63.609375 164.066406 C 64.589844 163.851562 64.589844 163.722656 64.246094 161.234375 C 63.867188 158.363281 62.417969 152.144531 61.777344 150.601562 C 61.433594 149.785156 61.054688 149.65625 59.050781 149.65625 C 57.773438 149.65625 56.625 149.785156 56.539062 149.957031 Z M 59.734375 157.160156 C 59.816406 158.105469 59.691406 158.488281 59.09375 158.574219 C 58.367188 158.707031 58.328125 158.535156 58.535156 157.074219 C 58.667969 156.175781 58.75 155.359375 58.792969 155.230469 C 58.835938 154.542969 59.609375 156.089844 59.734375 157.160156 Z M 59.734375 157.160156 "/>
<path style=" stroke:none;fill-rule:nonzero;fill:rgb(0%,0%,0%);fill-opacity:1;" d="M 64.332031 151.328125 C 64.332031 152.746094 64.503906 153.042969 65.316406 153.175781 C 66.207031 153.300781 66.25 153.472656 66.378906 158.191406 C 66.421875 160.933594 66.71875 163.378906 66.972656 163.679688 C 67.488281 164.324219 69.699219 164.449219 70.082031 163.851562 C 70.214844 163.636719 70.339844 161.105469 70.339844 158.277344 C 70.382812 153.730469 70.46875 153.089844 71.105469 153.089844 C 72.214844 153.089844 72.726562 152.316406 72.511719 150.941406 L 72.34375 149.65625 L 64.332031 149.65625 Z M 64.332031 151.328125 "/>
<path style=" stroke:none;fill-rule:nonzero;fill:rgb(0%,0%,0%);fill-opacity:1;" d="M 74.261719 150.683594 C 72.46875 152.230469 72.640625 154.417969 74.730469 157.289062 C 75.707031 158.660156 76.261719 159.820312 76.09375 160.207031 C 75.835938 160.847656 75.707031 160.847656 74.769531 160.207031 C 73.453125 159.347656 73.023438 159.5625 72.640625 161.277344 C 72.300781 162.863281 72.894531 163.679688 74.8125 164.066406 C 78.050781 164.667969 80.523438 162.863281 80.523438 159.949219 C 80.523438 158.449219 80.226562 157.890625 78.5625 156.089844 C 76.945312 154.375 76.730469 153.902344 77.285156 153.6875 C 77.667969 153.558594 78.265625 153.644531 78.605469 153.945312 C 79.417969 154.628906 79.96875 154.203125 80.3125 152.574219 C 80.566406 151.457031 80.4375 151.074219 79.671875 150.429688 C 78.304688 149.316406 75.707031 149.441406 74.261719 150.683594 Z M 74.261719 150.683594 "/>
<path style=" stroke:none;fill-rule:nonzero;fill:rgb(0%,0%,0%);fill-opacity:1;" d="M 145.242188 150.902344 C 143.324219 152.832031 143.578125 154.503906 146.21875 157.933594 C 147.796875 159.90625 147.625 161.320312 145.921875 160.207031 C 144.558594 159.304688 144.558594 159.304688 143.75 160.894531 C 143.066406 162.222656 143.066406 162.261719 144.261719 163.292969 C 145.242188 164.191406 145.75 164.277344 147.585938 164.105469 C 150.3125 163.851562 151.671875 162.433594 151.671875 159.90625 C 151.671875 158.449219 151.375 157.847656 149.71875 156.089844 C 147.839844 154.074219 147.753906 152.957031 149.546875 153.945312 C 150.691406 154.542969 151.121094 154.246094 151.457031 152.574219 C 151.886719 150.769531 150.605469 149.65625 148.179688 149.65625 C 146.90625 149.65625 146.21875 149.957031 145.242188 150.902344 Z M 145.242188 150.902344 "/>
<path style=" stroke:none;fill-rule:nonzero;fill:rgb(0%,0%,0%);fill-opacity:1;" d="M 160.28125 150 C 159.34375 150.128906 159.34375 150.171875 159.429688 157.074219 L 159.558594 164.023438 L 161.257812 164.023438 C 162.921875 164.023438 162.960938 163.980469 163.347656 162.222656 C 163.691406 160.636719 163.859375 160.417969 165.179688 160.164062 C 167.394531 159.777344 168.714844 158.234375 168.714844 156.089844 C 168.714844 154.074219 167.90625 151.84375 166.796875 150.941406 C 166.03125 150.300781 162.113281 149.742188 160.28125 150 Z M 164.199219 153.34375 C 165.179688 153.730469 165.09375 155.960938 164.070312 156.472656 C 163.007812 157.074219 162.75 156.691406 162.75 154.714844 C 162.75 153.089844 162.960938 152.871094 164.199219 153.34375 Z M 164.199219 153.34375 "/>
<path style=" stroke:none;fill-rule:nonzero;fill:rgb(0%,0%,0%);fill-opacity:1;" d="M 170.292969 154.886719 C 170.078125 159.777344 170.164062 163.722656 170.589844 164.105469 C 170.972656 164.496094 177.621094 163.636719 177.792969 163.164062 C 177.917969 162.90625 177.917969 162.179688 177.792969 161.535156 C 177.578125 160.550781 177.363281 160.378906 176.128906 160.378906 C 175.105469 160.378906 174.679688 160.164062 174.679688 159.734375 C 174.679688 159.304688 175.105469 159.089844 175.917969 159.089844 C 177.492188 159.089844 177.835938 158.574219 177.492188 156.691406 C 177.238281 155.53125 177.023438 155.230469 176.171875 155.230469 C 174.980469 155.230469 174.554688 154.714844 174.9375 153.730469 C 175.148438 153.214844 175.535156 153.089844 176.257812 153.300781 C 177.023438 153.472656 177.324219 153.34375 177.621094 152.613281 C 177.792969 152.101562 177.878906 151.199219 177.75 150.644531 C 177.578125 149.699219 177.410156 149.65625 174.042969 149.65625 L 170.546875 149.65625 Z M 170.292969 154.886719 "/>
<path style=" stroke:none;fill-rule:nonzero;fill:rgb(0%,0%,0%);fill-opacity:1;" d="M 179.363281 151.328125 C 179.363281 152.746094 179.535156 153.042969 180.347656 153.175781 C 181.242188 153.300781 181.285156 153.472656 181.410156 158.191406 C 181.453125 160.933594 181.753906 163.378906 182.011719 163.679688 C 182.605469 164.449219 184.691406 164.363281 185.332031 163.59375 C 185.714844 163.121094 185.800781 161.621094 185.671875 158.019531 C 185.460938 153.472656 185.5 153.089844 186.230469 153.089844 C 187.207031 153.089844 187.800781 152.015625 187.546875 150.683594 C 187.375 149.699219 187.25 149.65625 183.375 149.65625 L 179.363281 149.65625 Z M 179.363281 151.328125 "/>
<path style=" stroke:none;fill-rule:nonzero;fill:rgb(0%,0%,0%);fill-opacity:1;" d="M 197.773438 150.601562 C 196.277344 152.230469 196.191406 153.6875 197.390625 155.789062 C 197.984375 156.816406 198.796875 157.890625 199.136719 158.234375 C 199.988281 158.917969 200.03125 160.378906 199.175781 160.378906 C 198.835938 160.378906 198.113281 160.121094 197.644531 159.820312 C 196.875 159.390625 196.664062 159.433594 195.941406 160.332031 C 194.917969 161.578125 194.917969 161.878906 196.070312 162.90625 C 197.132812 163.9375 199.347656 164.449219 200.882812 164.066406 C 202.289062 163.722656 203.652344 161.449219 203.652344 159.433594 C 203.652344 158.191406 203.308594 157.417969 202.160156 156.132812 C 201.351562 155.230469 200.667969 154.160156 200.667969 153.730469 C 200.667969 153.003906 201.050781 152.957031 203.1875 153.558594 C 203.566406 153.6875 203.949219 153.214844 204.207031 152.273438 C 204.800781 150.386719 203.863281 149.65625 200.882812 149.65625 C 199.136719 149.65625 198.496094 149.871094 197.773438 150.601562 Z M 197.773438 150.601562 "/>
<path style=" stroke:none;fill-rule:nonzero;fill:rgb(0%,0%,0%);fill-opacity:1;" d="M 206.078125 149.957031 C 205.914062 150.085938 205.785156 153.386719 205.785156 157.246094 L 205.785156 164.277344 L 207.613281 164.152344 L 209.402344 164.023438 L 209.53125 161.105469 C 209.660156 158.574219 209.746094 158.234375 210.46875 158.234375 C 211.238281 158.234375 211.324219 158.535156 211.324219 161.277344 L 211.324219 164.277344 L 212.898438 164.152344 C 214.941406 163.980469 215.070312 163.550781 215.109375 155.746094 L 215.15625 149.65625 L 213.234375 149.65625 C 211.363281 149.65625 211.324219 149.699219 211.324219 151.027344 C 211.324219 153.089844 210.894531 154.375 210.214844 154.375 C 209.785156 154.375 209.613281 153.730469 209.613281 152.015625 L 209.613281 149.65625 L 207.996094 149.65625 C 207.105469 149.65625 206.207031 149.785156 206.078125 149.957031 Z M 206.078125 149.957031 "/>
<path style=" stroke:none;fill-rule:nonzero;fill:rgb(0%,0%,0%);fill-opacity:1;" d="M 228.195312 154.03125 C 228.0625 156.472656 228.109375 159.691406 228.28125 161.234375 L 228.574219 164.023438 L 230.152344 164.152344 C 232.027344 164.324219 232.75 163.335938 232.539062 160.894531 C 232.410156 159.390625 232.496094 159.304688 233.902344 159.089844 C 237.566406 158.449219 239.183594 155.445312 237.523438 152.273438 C 236.671875 150.558594 234.496094 149.65625 231.21875 149.65625 L 228.453125 149.65625 Z M 233.773438 153.773438 C 234.074219 154.542969 233.476562 155.746094 232.710938 156.003906 C 232.367188 156.089844 232.199219 155.617188 232.199219 154.628906 C 232.199219 153.003906 233.261719 152.445312 233.773438 153.773438 Z M 233.773438 153.773438 "/>
</g>
</svg>
