<svg id="Capa_1" enable-background="new 0 0 512 512" height="512" viewBox="0 0 512 512" width="512" xmlns="http://www.w3.org/2000/svg"><g><path d="m470.793 150.604-30.421-77.641c-9.152-23.353-31.272-38.443-56.352-38.443h-53.121c-18.399-21.433-45.587-34.52-74.899-34.52s-56.5 13.087-74.899 34.52h-53.121c-25.081 0-47.2 15.09-56.353 38.444l-30.421 77.641c-6.875 17.56-5.141 36.835 4.759 52.884 9.895 16.041 26.331 26.234 45.094 27.969 1.805.167 3.662.251 5.521.251 9.686 0 19.052-2.325 27.439-6.707-.391 7.267-.599 14.551-.599 21.848 0 30.693 12.767 58.456 33.264 78.271-38.546 51.982-59.734 114.54-59.734 179.379 0 4.142 3.358 7.5 7.5 7.5s7.5-3.358 7.5-7.5c0-50.546 13.31-99.487 38.66-142.771 4.834 13.793 12.355 26.571 22.232 37.588 13.05 14.557 29.596 25.391 48.015 31.491 6.663 12.614 19.912 21.235 35.143 21.235 15.229 0 28.477-8.619 35.141-21.231 13.487-4.458 25.856-11.382 36.807-20.618 3.167-2.671 3.568-7.402.898-10.569-2.671-3.167-7.402-3.568-10.568-.898-6.908 5.826-14.466 10.586-22.571 14.235.003-.215.016-.427.016-.642 0-5.405-1.089-10.559-3.053-15.26 22.19-11.279 38.105-32.224 42.875-56.761 2.834-1.701 5.583-3.528 8.242-5.471.514.721 6.344 9.205 6.803 9.876-2.171 10.379-6.002 20.269-11.449 29.427-2.117 3.56-.947 8.163 2.612 10.28 3.5 2.082 8.14.985 10.28-2.613 3.807-6.401 6.914-13.119 9.351-20.077 25.354 43.287 38.665 92.23 38.665 142.779 0 4.142 3.357 7.5 7.5 7.5s7.5-3.358 7.5-7.5c0-67.055-21.677-125.388-59.734-179.378 20.497-19.815 33.264-47.578 33.264-78.271 0-7.305-.218-14.589-.608-21.854 8.389 4.385 17.759 6.712 27.448 6.712 1.859 0 3.717-.084 5.521-.251 18.764-1.734 35.2-11.929 45.095-27.969 9.9-16.049 11.634-35.324 4.758-52.885zm-254.501 262.329c-27.784-12.598-48.56-38.11-54.893-68.214.467-.685 6.304-9.161 6.813-9.892 2.659 1.943 5.408 3.771 8.242 5.471 4.77 24.537 20.685 45.482 42.875 56.761-1.964 4.701-3.052 9.855-3.052 15.26 0 .206.012.409.015.614zm39.708 24.109c-13.633 0-24.724-11.091-24.724-24.724 0-13.632 11.091-24.723 24.724-24.723s24.724 11.091 24.724 24.723c0 13.634-11.091 24.724-24.724 24.724zm28.287-52.577c-7.209-7.32-17.225-11.869-28.287-11.869s-21.077 4.549-28.287 11.869c-15.252-7.246-27.062-20.011-33.163-35.467 11.774 4.368 24.501 6.76 37.776 6.76h47.346c13.276 0 26.002-2.391 37.777-6.76-6.1 15.456-17.91 28.22-33.162 35.467zm-4.614-43.707h-47.346c-51.78 0-93.907-42.126-93.907-93.907 0-40.156 6.159-79.921 18.307-118.192 1.253-3.948-.932-8.165-4.879-9.417-3.946-1.251-8.164.931-9.417 4.879-8.475 26.7-14.129 54.103-16.936 81.856-8.062 6.936-18.228 10.733-28.914 10.733-1.399 0-2.792-.063-4.14-.188-14.026-1.296-26.312-8.917-33.708-20.907-7.402-12-8.699-26.412-3.559-39.539l30.42-77.639c6.885-17.566 23.522-28.917 42.387-28.917h42.506c-2.895 5.03-5.385 10.352-7.382 15.946l-9.028 25.279c-1.393 3.901.64 8.192 4.541 9.585 3.898 1.394 8.192-.64 9.585-4.541l9.028-25.279c11.857-33.202 43.512-55.51 78.769-55.51s66.912 22.308 78.77 55.511l16.049 44.937c15.104 42.29 22.762 86.5 22.762 131.403-.001 51.78-42.128 93.907-93.908 93.907zm173.596-145.143c-7.396 11.991-19.683 19.611-33.71 20.907-1.347.125-2.739.188-4.139.188-10.686 0-20.851-3.797-28.913-10.732-3.286-32.553-10.487-64.562-21.562-95.575l-16.049-44.937c-1.998-5.594-4.487-10.915-7.383-15.946h42.506c18.864 0 35.503 11.351 42.387 28.916l30.42 77.638c5.141 13.129 3.844 27.541-3.557 39.541zm-155.199 58.965c-4.143 0-7.5 3.358-7.5 7.5v3.25c0 3.613-1.407 7.011-3.956 9.56-2.567 2.56-5.972 3.97-9.584 3.97-7.461 0-13.53-6.069-13.53-13.53v-7.473c3.182-1.262 6.029-3.323 8.257-6.059l24.025-29.507c5-6.142 5.994-14.4 2.594-21.553-3.399-7.153-10.432-11.596-18.351-11.596h-48.051c-7.919 0-14.952 4.443-18.352 11.596s-2.406 15.411 2.595 21.553l24.025 29.507c2.228 2.736 5.075 4.797 8.257 6.059v7.473c0 7.46-6.069 13.53-13.53 13.53-3.613 0-7.017-1.41-9.577-3.963-2.556-2.556-3.963-5.953-3.963-9.567v-3.25c0-4.142-3.358-7.5-7.5-7.5s-7.5 3.358-7.5 7.5v3.25c0 7.62 2.968 14.785 8.363 20.181 5.399 5.384 12.564 8.349 20.177 8.349 8.316 0 15.811-3.578 21.03-9.273 5.22 5.695 12.714 9.273 21.03 9.273 7.611 0 14.776-2.965 20.184-8.357 5.389-5.389 8.356-12.554 8.356-20.173v-3.25c.001-4.142-3.356-7.5-7.499-7.5zm-41.974-10.295c-.032 0-.063-.005-.096-.005-.032 0-.063.004-.095.005-.965-.016-2.683-.303-4.03-1.957l-24.025-29.508c-1.916-2.353-1.113-4.729-.679-5.643.434-.913 1.771-3.036 4.804-3.036h48.051c3.033 0 4.37 2.123 4.804 3.036s1.236 3.29-.68 5.643l-24.025 29.508c-1.347 1.654-3.065 1.94-4.029 1.957zm43.17-133.106c-15.344 0-27.827 12.483-27.827 27.827 0 4.142 3.357 7.5 7.5 7.5s7.5-3.358 7.5-7.5c0-7.073 5.754-12.827 12.827-12.827s12.827 5.754 12.827 12.827c0 4.142 3.357 7.5 7.5 7.5s7.5-3.358 7.5-7.5c0-15.344-12.483-27.827-27.827-27.827zm-73.704 27.827c0 4.142 3.358 7.5 7.5 7.5s7.5-3.358 7.5-7.5c0-15.344-12.483-27.827-27.827-27.827s-27.827 12.483-27.827 27.827c0 4.142 3.358 7.5 7.5 7.5s7.5-3.358 7.5-7.5c0-7.073 5.754-12.827 12.827-12.827s12.827 5.754 12.827 12.827z"/></g></svg>