<?xml version="1.0" encoding="UTF-8"?>
<svg xmlns="http://www.w3.org/2000/svg" xmlns:xlink="http://www.w3.org/1999/xlink" width="57pt" height="40pt" viewBox="0 0 57 40" version="1.1">
<g id="surface1">
<path style=" stroke:none;fill-rule:nonzero;fill:rgb(0%,0%,0%);fill-opacity:1;" d="M 24.667969 2.324219 C 24.078125 2.445312 23.484375 2.832031 22.871094 3.507812 C 22.546875 3.859375 22.285156 4.183594 22.285156 4.21875 C 22.285156 4.347656 23.292969 4.957031 23.605469 5.015625 L 23.90625 5.070312 L 23.695312 5.300781 C 23.585938 5.429688 23.441406 5.617188 23.394531 5.71875 C 23.308594 5.882812 23.222656 5.917969 22.878906 5.917969 C 21.746094 5.917969 20.167969 6.328125 19.136719 6.878906 C 18.453125 7.246094 17.847656 7.832031 17.585938 8.34375 C 17.398438 8.722656 17.375 8.859375 17.414062 9.339844 C 17.464844 10.015625 17.433594 10.09375 16.378906 11.75 C 15.160156 13.652344 14.898438 14.324219 14.960938 15.386719 C 15.027344 16.714844 15.988281 17.777344 17.3125 17.96875 C 18.050781 18.078125 19.308594 17.597656 20.09375 16.914062 C 20.378906 16.671875 20.464844 16.636719 20.523438 16.730469 C 20.566406 16.800781 20.597656 16.878906 20.597656 16.921875 C 20.597656 16.957031 20.691406 17.179688 20.808594 17.425781 C 20.925781 17.667969 21.019531 17.882812 21.019531 17.890625 C 21.019531 17.898438 20.726562 17.925781 20.371094 17.941406 C 19.070312 18.027344 17.484375 19.003906 16.839844 20.113281 C 16.394531 20.875 16.410156 21.605469 16.875 22.203125 L 17.144531 22.546875 L 16.445312 22.574219 L 15.746094 22.597656 L 15.71875 25.496094 L 15.695312 28.386719 L 15.90625 28.472656 C 16.023438 28.515625 16.664062 28.535156 17.425781 28.5 C 18.902344 28.4375 18.824219 28.492188 18.824219 27.660156 C 18.824219 27.042969 18.765625 26.980469 18.125 26.980469 C 17.820312 26.972656 17.550781 26.957031 17.535156 26.929688 C 17.507812 26.902344 17.507812 26.792969 17.535156 26.671875 C 17.566406 26.476562 17.609375 26.457031 17.921875 26.484375 C 18.460938 26.519531 18.699219 26.355469 18.707031 25.945312 C 18.714844 25.753906 18.699219 25.445312 18.664062 25.257812 L 18.613281 24.914062 L 18.148438 24.871094 L 17.6875 24.828125 L 17.660156 24.460938 C 17.636719 24.160156 17.660156 24.097656 17.789062 24.089844 C 17.871094 24.089844 18.132812 24.082031 18.359375 24.074219 C 18.773438 24.054688 18.785156 24.046875 18.808594 23.78125 C 18.832031 23.515625 18.84375 23.507812 19.0625 23.609375 C 19.1875 23.660156 19.308594 23.722656 19.324219 23.730469 C 19.347656 23.746094 19.382812 24.820312 19.40625 26.113281 C 19.441406 27.539062 19.492188 28.5 19.542969 28.550781 C 19.601562 28.609375 19.878906 28.621094 20.304688 28.578125 L 20.976562 28.515625 L 20.988281 27.703125 C 20.996094 27.253906 21.011719 26.84375 21.011719 26.800781 C 21.027344 26.699219 21.332031 27.296875 21.601562 27.976562 C 21.703125 28.242188 21.855469 28.480469 21.933594 28.515625 C 22 28.542969 22.378906 28.542969 22.769531 28.507812 C 23.34375 28.457031 23.46875 28.421875 23.46875 28.308594 C 23.46875 28.226562 23.242188 27.746094 22.96875 27.230469 L 22.464844 26.304688 L 22.835938 25.875 C 23.441406 25.164062 23.542969 24.269531 23.089844 23.578125 C 22.96875 23.386719 22.757812 23.164062 22.625 23.078125 L 22.378906 22.933594 L 22.929688 22.5625 C 23.503906 22.179688 23.636719 21.972656 23.636719 21.476562 C 23.636719 21.304688 23.664062 21.183594 23.703125 21.199219 C 24.480469 21.605469 25.222656 21.902344 25.699219 22.007812 C 26.5 22.179688 28.019531 22.195312 28.121094 22.03125 C 28.164062 21.964844 28.1875 21.65625 28.179688 21.328125 L 28.152344 20.753906 L 28.425781 20.753906 C 28.726562 20.753906 28.738281 20.78125 28.703125 21.585938 C 28.695312 21.921875 28.710938 21.957031 28.898438 21.957031 C 29.007812 21.957031 29.125 21.929688 29.160156 21.886719 C 29.191406 21.851562 29.25 21.828125 29.277344 21.816406 C 29.496094 21.792969 29.800781 21.664062 29.800781 21.605469 C 29.800781 21.5625 29.824219 21.535156 29.867188 21.542969 C 30.019531 21.570312 30.558594 21.261719 30.507812 21.167969 C 30.476562 21.113281 30.484375 21.097656 30.535156 21.125 C 30.628906 21.183594 31.503906 20.429688 31.453125 20.335938 C 31.4375 20.308594 31.480469 20.230469 31.546875 20.164062 C 31.664062 20.050781 31.675781 20.078125 31.625 20.359375 C 31.589844 20.539062 31.589844 20.933594 31.625 21.234375 L 31.675781 21.785156 L 32.308594 22.210938 C 32.652344 22.453125 33 22.640625 33.082031 22.640625 C 33.160156 22.640625 33.3125 22.703125 33.414062 22.777344 L 33.605469 22.914062 L 33.355469 23.199219 C 33.074219 23.523438 32.957031 23.980469 32.847656 25.214844 C 32.710938 26.679688 32.941406 27.554688 33.625 28.191406 C 34.039062 28.578125 34.402344 28.695312 34.964844 28.621094 C 35.277344 28.578125 35.339844 28.601562 35.582031 28.867188 C 35.734375 29.03125 35.9375 29.160156 36.03125 29.160156 C 36.125 29.160156 36.375 28.996094 36.605469 28.789062 L 37 28.421875 L 36.78125 28.085938 C 36.570312 27.777344 36.570312 27.746094 36.6875 27.597656 C 36.882812 27.382812 37.144531 26.398438 37.203125 25.617188 C 37.261719 24.8125 37.078125 24.015625 36.695312 23.480469 C 36.554688 23.277344 36.484375 23.105469 36.535156 23.085938 C 36.585938 23.070312 36.773438 22.949219 36.957031 22.820312 C 37.136719 22.683594 37.371094 22.546875 37.492188 22.511719 C 37.828125 22.410156 38.242188 22.042969 38.511719 21.621094 C 38.730469 21.277344 38.757812 21.167969 38.722656 20.789062 C 38.605469 19.554688 37.398438 18.328125 35.742188 17.753906 C 35.226562 17.574219 34.417969 17.53125 34.070312 17.667969 C 33.867188 17.746094 33.878906 17.710938 34.199219 17.296875 C 34.671875 16.707031 35 15.96875 35.167969 15.171875 L 35.3125 14.511719 L 35.910156 14.90625 C 36.730469 15.445312 37.691406 15.78125 38.460938 15.78125 C 39.3125 15.78125 39.796875 15.589844 40.359375 15.015625 C 41.289062 14.066406 41.449219 12.90625 40.824219 11.621094 C 40.546875 11.054688 40.300781 10.746094 39.222656 9.613281 C 37.703125 8.027344 37.566406 7.855469 37.566406 7.519531 C 37.566406 5.789062 35.136719 4.648438 32.148438 4.972656 L 31.140625 5.085938 L 30.890625 4.777344 C 30.265625 4.015625 29.277344 3.78125 28.5 4.226562 L 28.128906 4.441406 L 27.816406 3.980469 C 26.964844 2.726562 25.773438 2.09375 24.667969 2.324219 Z M 27.984375 6.269531 C 27.953125 6.3125 27.953125 6.457031 27.984375 6.578125 L 28.035156 6.800781 L 28.296875 6.484375 C 28.542969 6.183594 28.566406 6.167969 28.949219 6.226562 C 29.160156 6.261719 29.570312 6.355469 29.859375 6.449219 L 30.382812 6.613281 L 30.222656 6.886719 C 29.945312 7.375 29.960938 7.402344 30.8125 7.984375 C 31.757812 8.628906 32.882812 9.699219 33.386719 10.421875 C 34.257812 11.671875 34.613281 14.039062 34.128906 15.445312 C 32.710938 19.664062 25.578125 21.269531 22.429688 18.085938 C 21.570312 17.203125 21.113281 15.882812 21.214844 14.527344 C 21.238281 14.195312 21.316406 13.800781 21.382812 13.671875 C 21.449219 13.535156 21.601562 13.0625 21.722656 12.632812 C 22.136719 11.15625 22.980469 9.769531 24.210938 8.542969 C 24.800781 7.957031 24.8125 7.941406 24.691406 7.710938 C 24.625 7.582031 24.464844 7.402344 24.339844 7.308594 L 24.109375 7.144531 L 24.449219 6.921875 C 24.625 6.792969 24.945312 6.636719 25.148438 6.5625 C 25.570312 6.414062 25.925781 6.484375 26.363281 6.792969 C 26.59375 6.957031 26.59375 6.957031 26.59375 6.773438 C 26.59375 6.671875 26.550781 6.519531 26.507812 6.421875 C 26.421875 6.277344 26.449219 6.261719 26.695312 6.261719 C 26.9375 6.261719 27.003906 6.3125 27.183594 6.648438 C 27.367188 7 27.402344 7.023438 27.496094 6.886719 C 27.554688 6.808594 27.605469 6.636719 27.605469 6.519531 C 27.605469 6.390625 27.628906 6.261719 27.664062 6.234375 C 27.757812 6.140625 28.042969 6.167969 27.984375 6.269531 Z M 35.742188 18.578125 C 36.402344 18.851562 36.984375 19.238281 37.355469 19.65625 C 37.703125 20.035156 37.980469 20.609375 37.988281 20.902344 C 37.988281 21.105469 37.449219 21.785156 37.28125 21.785156 C 37.21875 21.785156 37.078125 21.578125 36.949219 21.328125 L 36.722656 20.882812 L 36.738281 21.414062 C 36.757812 22.042969 36.679688 22.160156 36.089844 22.4375 C 35.355469 22.789062 34.460938 22.660156 33.835938 22.109375 C 33.625 21.921875 33.617188 21.886719 33.683594 21.449219 C 33.726562 21.191406 33.75 20.96875 33.734375 20.953125 C 33.726562 20.945312 33.625 21.140625 33.523438 21.398438 C 33.414062 21.65625 33.285156 21.871094 33.234375 21.871094 C 33.175781 21.871094 32.949219 21.722656 32.722656 21.5625 L 32.308594 21.253906 L 32.359375 20.703125 C 32.417969 20.128906 32.609375 19.648438 32.933594 19.296875 C 33.523438 18.660156 34.410156 18.234375 34.949219 18.328125 C 35.109375 18.351562 35.472656 18.464844 35.742188 18.578125 Z M 21.316406 18.910156 C 22.253906 19.367188 22.878906 20.273438 22.878906 21.199219 C 22.878906 21.679688 22.878906 21.679688 22.480469 21.945312 C 22.269531 22.09375 22.042969 22.210938 21.984375 22.210938 C 21.921875 22.210938 21.8125 22.03125 21.730469 21.800781 C 21.519531 21.210938 21.460938 21.191406 21.542969 21.75 C 21.628906 22.324219 21.550781 22.453125 20.917969 22.777344 C 20.378906 23.054688 19.695312 23.054688 19.121094 22.777344 C 18.53125 22.503906 18.472656 22.402344 18.503906 21.785156 C 18.53125 21.328125 18.511719 21.285156 18.410156 21.414062 C 18.351562 21.5 18.25 21.699219 18.183594 21.84375 C 18.03125 22.203125 17.914062 22.195312 17.558594 21.828125 C 17.222656 21.476562 17.1875 21.148438 17.433594 20.644531 C 17.746094 19.964844 18.523438 19.339844 19.570312 18.902344 C 20.210938 18.636719 20.742188 18.636719 21.316406 18.910156 Z M 21.316406 24.054688 C 21.433594 24.167969 21.527344 24.355469 21.527344 24.476562 C 21.527344 24.683594 21.15625 25.214844 21.011719 25.214844 C 20.96875 25.214844 20.9375 24.90625 20.9375 24.527344 C 20.9375 23.78125 20.988281 23.714844 21.316406 24.054688 Z M 35.246094 24.355469 C 35.40625 24.675781 35.566406 25.847656 35.488281 26.199219 C 35.464844 26.339844 35.347656 26.621094 35.226562 26.828125 C 35.058594 27.136719 34.992188 27.1875 34.839844 27.136719 C 34.460938 27.023438 34.425781 26.871094 34.46875 25.761719 C 34.519531 24.597656 34.664062 24.097656 34.941406 24.097656 C 35.050781 24.097656 35.167969 24.203125 35.246094 24.355469 Z M 35.246094 24.355469 "/>
<path style=" stroke:none;fill-rule:nonzero;fill:rgb(0%,0%,0%);fill-opacity:1;" d="M 30.753906 9.175781 C 30.457031 9.355469 30.136719 9.804688 29.925781 10.335938 L 29.78125 10.675781 L 30.078125 10.359375 C 30.417969 9.992188 30.6875 9.863281 31.167969 9.863281 C 31.597656 9.863281 32.011719 10.113281 32.265625 10.53125 C 32.5 10.925781 32.5625 10.761719 32.417969 10.058594 C 32.273438 9.382812 31.910156 9.003906 31.394531 9.003906 C 31.175781 9.003906 30.914062 9.074219 30.753906 9.175781 Z M 30.753906 9.175781 "/>
<path style=" stroke:none;fill-rule:nonzero;fill:rgb(0%,0%,0%);fill-opacity:1;" d="M 23.90625 9.972656 C 23.460938 10.230469 23.273438 10.960938 23.492188 11.664062 L 23.613281 12.050781 L 23.722656 11.636719 C 23.78125 11.40625 23.933594 11.113281 24.078125 10.976562 C 24.523438 10.523438 25.324219 10.445312 25.789062 10.824219 C 25.910156 10.917969 26 10.953125 26 10.910156 C 26 10.78125 25.183594 10.042969 24.945312 9.949219 C 24.640625 9.828125 24.144531 9.84375 23.90625 9.972656 Z M 23.90625 9.972656 "/>
<path style=" stroke:none;fill-rule:nonzero;fill:rgb(0%,0%,0%);fill-opacity:1;" d="M 27.183594 12.941406 C 26.101562 13.097656 25.578125 13.4375 25.578125 13.980469 C 25.578125 14.390625 25.796875 14.597656 26.53125 14.863281 C 26.945312 15.015625 27.199219 15.179688 27.429688 15.429688 L 27.75 15.789062 L 27.367188 16.125 C 26.414062 16.980469 25.308594 17.1875 24.40625 16.679688 C 24 16.449219 23.789062 16.242188 23.132812 15.4375 L 22.960938 15.222656 L 23.121094 15.675781 C 23.605469 17.023438 24.601562 17.882812 25.484375 17.710938 C 26.09375 17.589844 27.429688 16.765625 27.824219 16.261719 L 28.050781 15.96875 L 28.566406 16.253906 C 29.132812 16.570312 30.273438 16.894531 30.789062 16.894531 C 31.816406 16.886719 32.578125 15.875 32.722656 14.324219 L 32.773438 13.765625 L 32.46875 14.441406 C 32.085938 15.300781 31.808594 15.652344 31.253906 15.96875 C 30.890625 16.183594 30.710938 16.226562 30.238281 16.226562 C 29.683594 16.234375 29.023438 16.070312 28.515625 15.816406 L 28.289062 15.695312 L 28.820312 15.179688 C 29.117188 14.886719 29.582031 14.554688 29.875 14.410156 C 30.476562 14.109375 30.652344 13.824219 30.457031 13.472656 C 30.230469 13.042969 29.882812 12.933594 28.71875 12.898438 C 28.128906 12.890625 27.4375 12.90625 27.183594 12.941406 Z M 27.183594 12.941406 "/>
<path style=" stroke:none;fill-rule:nonzero;fill:rgb(0%,0%,0%);fill-opacity:1;" d="M 5.511719 22.367188 C 5.4375 22.410156 5.402344 23.25 5.386719 25.472656 L 5.359375 28.515625 L 6.625 28.535156 C 7.328125 28.550781 7.945312 28.523438 8.011719 28.480469 C 8.15625 28.386719 8.273438 27.582031 8.1875 27.273438 C 8.136719 27.085938 8.070312 27.050781 7.574219 26.980469 L 7.007812 26.902344 L 7.058594 24.683594 C 7.101562 22.875 7.082031 22.460938 6.988281 22.4375 C 6.753906 22.359375 5.605469 22.308594 5.511719 22.367188 Z M 5.511719 22.367188 "/>
<path style=" stroke:none;fill-rule:nonzero;fill:rgb(0%,0%,0%);fill-opacity:1;" d="M 1.402344 23.128906 C 1.375 23.492188 1.351562 24.828125 1.351562 26.113281 L 1.351562 28.449219 L 2.050781 28.5 C 3.488281 28.621094 4.59375 28.523438 4.746094 28.277344 C 4.777344 28.214844 4.8125 27.933594 4.8125 27.640625 C 4.8125 26.914062 4.726562 26.84375 3.832031 26.84375 C 3.140625 26.84375 3.125 26.835938 3.125 26.636719 C 3.125 26.414062 3.257812 26.328125 3.621094 26.328125 C 4.042969 26.328125 4.222656 26.113281 4.222656 25.609375 C 4.222656 24.964844 4.101562 24.835938 3.511719 24.863281 L 3.039062 24.878906 L 3.039062 24.125 L 3.425781 24.066406 C 3.648438 24.039062 3.984375 24.015625 4.171875 24.015625 C 4.363281 24.015625 4.566406 23.972656 4.625 23.910156 C 4.726562 23.808594 4.769531 22.847656 4.675781 22.605469 C 4.632812 22.488281 4.40625 22.46875 3.039062 22.46875 L 1.460938 22.46875 Z M 1.402344 23.128906 "/>
<path style=" stroke:none;fill-rule:nonzero;fill:rgb(0%,0%,0%);fill-opacity:1;" d="M 51.371094 22.632812 C 50.203125 23.171875 49.671875 25.351562 50.238281 27.230469 C 50.390625 27.746094 50.644531 28.0625 51.277344 28.542969 C 51.902344 29.023438 53.453125 28.429688 54.027344 27.488281 C 54.257812 27.109375 54.46875 26.253906 54.457031 25.6875 C 54.457031 25.222656 54.257812 24.238281 54.070312 23.789062 C 53.910156 23.386719 53.363281 22.804688 52.972656 22.632812 C 52.535156 22.425781 51.808594 22.425781 51.371094 22.632812 Z M 52.332031 24.355469 C 52.578125 24.484375 52.761719 25.078125 52.761719 25.710938 C 52.761719 26.433594 52.566406 26.878906 52.238281 26.914062 C 52.054688 26.9375 52.003906 26.894531 51.910156 26.613281 C 51.757812 26.148438 51.757812 24.597656 51.910156 24.417969 C 52.042969 24.246094 52.121094 24.238281 52.332031 24.355469 Z M 52.332031 24.355469 "/>
<path style=" stroke:none;fill-rule:nonzero;fill:rgb(0%,0%,0%);fill-opacity:1;" d="M 24.457031 22.632812 C 24.289062 22.667969 24.109375 22.726562 24.078125 22.761719 C 24 22.847656 24.058594 28.070312 24.144531 28.378906 C 24.203125 28.59375 24.21875 28.601562 24.742188 28.578125 C 25.722656 28.542969 25.671875 28.59375 25.65625 27.648438 C 25.648438 27.203125 25.664062 26.816406 25.679688 26.800781 C 25.707031 26.773438 25.867188 27.09375 26.042969 27.503906 C 26.507812 28.59375 26.5 28.59375 27.402344 28.5 C 28.0625 28.4375 28.152344 28.414062 28.128906 28.277344 C 28.113281 28.191406 27.875 27.703125 27.605469 27.203125 L 27.105469 26.285156 L 27.367188 26.011719 L 27.640625 25.730469 L 27.417969 25.496094 C 27.117188 25.164062 26.929688 24.761719 26.929688 24.425781 C 26.929688 24.125 27.191406 23.472656 27.34375 23.378906 C 27.539062 23.257812 27.417969 23.140625 26.871094 22.882812 C 26.40625 22.675781 26.171875 22.625 25.546875 22.597656 C 25.125 22.582031 24.632812 22.597656 24.457031 22.632812 Z M 25.992188 24.066406 C 26.238281 24.382812 26.21875 24.707031 25.933594 24.984375 C 25.808594 25.113281 25.671875 25.214844 25.636719 25.214844 C 25.605469 25.214844 25.578125 24.90625 25.578125 24.527344 C 25.578125 23.765625 25.679688 23.652344 25.992188 24.066406 Z M 25.992188 24.066406 "/>
<path style=" stroke:none;fill-rule:nonzero;fill:rgb(0%,0%,0%);fill-opacity:1;" d="M 28.59375 22.617188 C 28.449219 22.753906 28.542969 22.96875 28.769531 23.011719 C 29.285156 23.113281 29.800781 23.800781 29.800781 24.367188 C 29.800781 24.992188 29.285156 25.667969 28.710938 25.78125 C 28.464844 25.832031 28.449219 25.859375 28.449219 26.234375 C 28.449219 26.75 28.660156 27.574219 28.863281 27.863281 C 29.25 28.414062 30.484375 28.808594 31.066406 28.558594 C 31.53125 28.363281 31.960938 27.769531 32.128906 27.074219 C 32.308594 26.378906 32.332031 25.007812 32.199219 23.507812 L 32.121094 22.617188 L 31.53125 22.582031 C 30.550781 22.53125 30.585938 22.488281 30.667969 23.515625 C 30.746094 24.492188 30.679688 26.105469 30.550781 26.355469 C 30.5 26.449219 30.390625 26.5 30.28125 26.484375 C 30.027344 26.449219 29.984375 26.132812 29.984375 24.332031 C 29.976562 23.277344 29.953125 22.761719 29.875 22.675781 C 29.773438 22.554688 28.703125 22.496094 28.59375 22.617188 Z M 28.59375 22.617188 "/>
<path style=" stroke:none;fill-rule:nonzero;fill:rgb(0%,0%,0%);fill-opacity:1;" d="M 37.828125 22.632812 C 37.734375 22.691406 37.71875 23.054688 37.761719 24.664062 C 37.804688 26.714844 37.914062 27.425781 38.234375 27.875 C 38.570312 28.351562 39.710938 28.765625 40.300781 28.609375 C 40.597656 28.535156 41.085938 28.078125 41.273438 27.710938 C 41.644531 26.980469 41.746094 25.515625 41.566406 23.5 L 41.492188 22.605469 L 40.742188 22.597656 L 39.988281 22.597656 L 40.023438 23.371094 C 40.074219 24.511719 40.015625 26.167969 39.921875 26.355469 C 39.871094 26.449219 39.761719 26.5 39.652344 26.484375 C 39.398438 26.449219 39.355469 26.113281 39.347656 24.289062 C 39.347656 23.285156 39.3125 22.761719 39.246094 22.675781 C 39.136719 22.539062 38.03125 22.503906 37.828125 22.632812 Z M 37.828125 22.632812 "/>
<path style=" stroke:none;fill-rule:nonzero;fill:rgb(0%,0%,0%);fill-opacity:1;" d="M 42.210938 22.617188 C 42.160156 23.414062 42.175781 28.328125 42.21875 28.40625 C 42.277344 28.492188 42.625 28.507812 43.746094 28.492188 C 44.546875 28.472656 45.222656 28.4375 45.242188 28.421875 C 45.265625 28.394531 45.28125 28.097656 45.28125 27.734375 C 45.292969 27.015625 45.214844 26.902344 44.769531 26.980469 C 44.625 27.007812 44.378906 27.007812 44.234375 26.972656 C 44.015625 26.921875 43.972656 26.878906 44 26.699219 C 44.023438 26.507812 44.066406 26.484375 44.496094 26.464844 C 44.75 26.457031 45.011719 26.414062 45.0625 26.378906 C 45.199219 26.296875 45.199219 25.207031 45.0625 25.015625 C 44.996094 24.929688 44.800781 24.871094 44.574219 24.855469 L 44.195312 24.828125 L 44.167969 24.460938 C 44.144531 24.054688 44.117188 24.074219 44.84375 24.097656 C 45.316406 24.117188 45.359375 24.03125 45.316406 23.15625 L 45.292969 22.597656 L 43.753906 22.574219 C 42.902344 22.5625 42.210938 22.582031 42.210938 22.617188 Z M 42.210938 22.617188 "/>
<path style=" stroke:none;fill-rule:nonzero;fill:rgb(0%,0%,0%);fill-opacity:1;" d="M 46.328125 22.617188 C 45.789062 22.675781 45.804688 22.554688 45.890625 26.011719 C 45.925781 27.511719 45.984375 28.4375 46.042969 28.515625 C 46.117188 28.621094 46.261719 28.628906 46.8125 28.578125 L 47.484375 28.515625 L 47.46875 27.632812 C 47.460938 27.152344 47.484375 26.773438 47.519531 26.800781 C 47.5625 26.816406 47.757812 27.203125 47.957031 27.660156 C 48.160156 28.105469 48.378906 28.492188 48.449219 28.515625 C 48.515625 28.542969 48.886719 28.542969 49.277344 28.507812 C 49.824219 28.464844 49.976562 28.421875 49.976562 28.320312 C 49.976562 28.25 49.75 27.769531 49.46875 27.265625 C 49.191406 26.757812 48.964844 26.320312 48.964844 26.285156 C 48.964844 26.253906 49.089844 26.097656 49.25 25.945312 C 49.605469 25.589844 49.765625 25.28125 49.839844 24.804688 C 49.96875 23.972656 49.4375 23.148438 48.558594 22.8125 C 48.078125 22.625 46.988281 22.53125 46.328125 22.617188 Z M 47.824219 24.054688 C 48.09375 24.324219 48.09375 24.621094 47.816406 24.949219 C 47.476562 25.359375 47.402344 25.292969 47.382812 24.597656 C 47.367188 23.757812 47.445312 23.660156 47.824219 24.054688 Z M 47.824219 24.054688 "/>
<path style=" stroke:none;fill-rule:nonzero;fill:rgb(0%,0%,0%);fill-opacity:1;" d="M 11.480469 22.71875 C 11.269531 22.777344 11.269531 22.789062 11.246094 23.800781 C 11.21875 25.171875 11.335938 28.363281 11.429688 28.449219 C 11.539062 28.566406 12.722656 28.535156 12.847656 28.40625 C 12.90625 28.34375 12.976562 28.011719 13 27.632812 L 13.042969 26.972656 L 13.480469 26.914062 C 14.132812 26.816406 14.664062 26.527344 14.960938 26.125 C 15.203125 25.789062 15.210938 25.746094 15.179688 25.035156 C 15.121094 23.800781 14.648438 23.042969 13.742188 22.769531 C 13.296875 22.640625 11.886719 22.605469 11.480469 22.71875 Z M 13.296875 24.117188 C 13.550781 24.226562 13.632812 24.492188 13.566406 24.929688 C 13.5 25.308594 13.449219 25.367188 13.101562 25.4375 L 12.832031 25.488281 L 12.832031 24.75 C 12.832031 23.953125 12.855469 23.910156 13.296875 24.117188 Z M 13.296875 24.117188 "/>
<path style=" stroke:none;fill-rule:nonzero;fill:rgb(0%,0%,0%);fill-opacity:1;" d="M 17.980469 29.898438 C 17.585938 30.1875 17.484375 30.488281 17.675781 30.875 C 17.796875 31.125 17.796875 31.15625 17.644531 31.414062 C 17.425781 31.773438 17.425781 32.246094 17.652344 32.53125 C 18.03125 33.027344 19.078125 33.035156 19.570312 32.539062 C 19.804688 32.296875 19.839844 32.203125 19.839844 31.828125 C 19.839844 31.414062 19.855469 31.390625 20.050781 31.390625 C 20.226562 31.390625 20.261719 31.347656 20.261719 31.132812 C 20.261719 30.917969 20.226562 30.875 20.050781 30.875 C 19.863281 30.875 19.839844 30.839844 19.839844 30.574219 C 19.839844 30.195312 19.738281 30.195312 19.441406 30.574219 C 19.230469 30.839844 19.164062 30.875 18.808594 30.875 C 18.511719 30.875 18.386719 30.832031 18.328125 30.71875 C 18.199219 30.480469 18.34375 30.335938 18.683594 30.378906 C 18.925781 30.402344 19.003906 30.378906 19.0625 30.222656 C 19.1875 29.949219 19.054688 29.828125 18.605469 29.785156 C 18.300781 29.761719 18.132812 29.785156 17.980469 29.898438 Z M 19.164062 31.679688 C 19.164062 32.058594 18.960938 32.265625 18.632812 32.230469 C 18.328125 32.195312 18.191406 32.007812 18.269531 31.707031 C 18.320312 31.476562 18.445312 31.414062 18.894531 31.398438 C 19.144531 31.390625 19.164062 31.40625 19.164062 31.679688 Z M 19.164062 31.679688 "/>
<path style=" stroke:none;fill-rule:nonzero;fill:rgb(0%,0%,0%);fill-opacity:1;" d="M 9.503906 29.929688 C 8.964844 30.101562 8.695312 30.558594 8.695312 31.320312 C 8.695312 31.871094 8.890625 32.445312 9.125 32.648438 C 9.3125 32.804688 9.9375 32.925781 10.199219 32.855469 C 10.402344 32.796875 10.425781 32.746094 10.417969 32.46875 C 10.402344 32.074219 10.300781 31.964844 9.945312 31.957031 C 9.683594 31.945312 9.667969 31.929688 9.589844 31.527344 C 9.472656 30.945312 9.632812 30.667969 10.089844 30.632812 C 10.449219 30.601562 10.550781 30.515625 10.550781 30.207031 C 10.550781 29.898438 10.0625 29.769531 9.503906 29.929688 Z M 9.503906 29.929688 "/>
<path style=" stroke:none;fill-rule:nonzero;fill:rgb(0%,0%,0%);fill-opacity:1;" d="M 21.933594 29.914062 L 21.703125 29.941406 L 21.679688 31.199219 C 21.644531 32.941406 21.613281 32.847656 22.203125 32.847656 C 23.527344 32.847656 24.226562 31.671875 23.5625 30.601562 C 23.425781 30.378906 23.222656 30.15625 23.113281 30.09375 C 22.894531 29.964844 22.269531 29.871094 21.933594 29.914062 Z M 22.820312 30.859375 C 23.039062 31.046875 23.003906 31.585938 22.769531 31.871094 C 22.480469 32.203125 22.371094 32.074219 22.371094 31.433594 C 22.371094 30.601562 22.429688 30.523438 22.820312 30.859375 Z M 22.820312 30.859375 "/>
<path style=" stroke:none;fill-rule:nonzero;fill:rgb(0%,0%,0%);fill-opacity:1;" d="M 24.742188 29.941406 C 24.296875 30.121094 24.035156 30.710938 24.050781 31.492188 C 24.066406 32.1875 24.144531 32.410156 24.457031 32.71875 C 24.652344 32.90625 24.75 32.941406 25.023438 32.898438 C 25.386719 32.855469 25.6875 32.660156 25.949219 32.308594 C 26.3125 31.808594 26.109375 30.394531 25.628906 30.078125 C 25.367188 29.90625 24.980469 29.84375 24.742188 29.941406 Z M 25.359375 31.421875 C 25.367188 31.816406 25.175781 32.152344 25.003906 32.042969 C 24.871094 31.957031 24.800781 31.199219 24.902344 30.925781 L 24.996094 30.667969 L 25.175781 30.859375 C 25.300781 30.976562 25.351562 31.148438 25.359375 31.421875 Z M 25.359375 31.421875 "/>
<path style=" stroke:none;fill-rule:nonzero;fill:rgb(0%,0%,0%);fill-opacity:1;" d="M 26.855469 29.984375 C 26.550781 30.207031 26.40625 30.660156 26.414062 31.40625 C 26.421875 32.410156 26.660156 32.761719 27.308594 32.761719 C 27.96875 32.761719 28.28125 32.382812 28.28125 31.585938 C 28.28125 31.277344 28.246094 31.199219 28.078125 31.125 C 27.960938 31.0625 27.738281 31.046875 27.570312 31.082031 C 27.292969 31.132812 27.265625 31.167969 27.265625 31.433594 C 27.265625 31.648438 27.300781 31.730469 27.402344 31.730469 C 27.480469 31.730469 27.519531 31.792969 27.503906 31.878906 C 27.46875 32.050781 27.351562 32.101562 27.183594 31.988281 C 27.039062 31.902344 27.039062 31.261719 27.191406 30.816406 C 27.292969 30.488281 27.394531 30.453125 27.519531 30.710938 C 27.597656 30.847656 27.664062 30.875 27.839844 30.832031 C 28.101562 30.761719 28.28125 30.632812 28.28125 30.515625 C 28.28125 30.464844 28.152344 30.300781 27.992188 30.136719 C 27.765625 29.90625 27.640625 29.84375 27.378906 29.84375 C 27.199219 29.84375 26.964844 29.90625 26.855469 29.984375 Z M 26.855469 29.984375 "/>
<path style=" stroke:none;fill-rule:nonzero;fill:rgb(0%,0%,0%);fill-opacity:1;" d="M 43.558594 29.941406 C 43.441406 29.984375 43.257812 30.164062 43.136719 30.335938 C 42.945312 30.617188 42.925781 30.730469 42.925781 31.5 L 42.925781 32.351562 L 43.25 32.648438 C 43.535156 32.914062 43.609375 32.941406 43.882812 32.890625 C 44.246094 32.832031 44.53125 32.632812 44.777344 32.296875 C 45.140625 31.808594 44.9375 30.394531 44.457031 30.078125 C 44.203125 29.90625 43.804688 29.84375 43.558594 29.941406 Z M 44.167969 31.441406 C 44.160156 31.886719 43.972656 32.1875 43.804688 32.015625 C 43.703125 31.914062 43.679688 30.945312 43.769531 30.789062 C 43.8125 30.710938 43.882812 30.738281 44.007812 30.859375 C 44.125 30.984375 44.167969 31.140625 44.167969 31.441406 Z M 44.167969 31.441406 "/>
<path style=" stroke:none;fill-rule:nonzero;fill:rgb(0%,0%,0%);fill-opacity:1;" d="M 11.203125 29.992188 C 11.1875 30.035156 11.109375 30.308594 11.035156 30.617188 C 10.535156 32.667969 10.535156 32.753906 10.890625 32.769531 C 11.035156 32.777344 11.195312 32.789062 11.253906 32.796875 C 11.304688 32.804688 11.363281 32.71875 11.378906 32.605469 C 11.421875 32.351562 11.894531 32.332031 11.960938 32.589844 C 12.011719 32.789062 12.316406 32.890625 12.605469 32.8125 C 12.796875 32.769531 12.796875 32.746094 12.730469 32.246094 C 12.65625 31.671875 12.367188 30.429688 12.242188 30.121094 C 12.171875 29.957031 12.097656 29.929688 11.699219 29.929688 C 11.449219 29.929688 11.21875 29.957031 11.203125 29.992188 Z M 11.835938 31.433594 C 11.851562 31.621094 11.828125 31.699219 11.707031 31.714844 C 11.566406 31.742188 11.558594 31.707031 11.597656 31.414062 C 11.625 31.234375 11.640625 31.070312 11.648438 31.046875 C 11.660156 30.910156 11.808594 31.21875 11.835938 31.433594 Z M 11.835938 31.433594 "/>
<path style=" stroke:none;fill-rule:nonzero;fill:rgb(0%,0%,0%);fill-opacity:1;" d="M 12.746094 30.265625 C 12.746094 30.550781 12.78125 30.609375 12.941406 30.632812 C 13.117188 30.660156 13.128906 30.695312 13.152344 31.636719 C 13.160156 32.1875 13.21875 32.675781 13.269531 32.734375 C 13.371094 32.863281 13.8125 32.890625 13.886719 32.769531 C 13.914062 32.726562 13.9375 32.222656 13.9375 31.65625 C 13.945312 30.746094 13.964844 30.617188 14.089844 30.617188 C 14.308594 30.617188 14.410156 30.464844 14.367188 30.1875 L 14.335938 29.929688 L 12.746094 29.929688 Z M 12.746094 30.265625 "/>
<path style=" stroke:none;fill-rule:nonzero;fill:rgb(0%,0%,0%);fill-opacity:1;" d="M 14.714844 30.136719 C 14.359375 30.445312 14.394531 30.882812 14.808594 31.457031 C 15 31.730469 15.109375 31.964844 15.078125 32.042969 C 15.027344 32.167969 15 32.167969 14.816406 32.042969 C 14.554688 31.871094 14.46875 31.914062 14.394531 32.253906 C 14.324219 32.574219 14.445312 32.734375 14.824219 32.8125 C 15.464844 32.933594 15.957031 32.574219 15.957031 31.988281 C 15.957031 31.691406 15.894531 31.578125 15.566406 31.21875 C 15.246094 30.875 15.203125 30.78125 15.3125 30.738281 C 15.390625 30.710938 15.507812 30.730469 15.574219 30.789062 C 15.734375 30.925781 15.84375 30.839844 15.914062 30.515625 C 15.964844 30.292969 15.9375 30.214844 15.785156 30.085938 C 15.515625 29.863281 15 29.886719 14.714844 30.136719 Z M 14.714844 30.136719 "/>
<path style=" stroke:none;fill-rule:nonzero;fill:rgb(0%,0%,0%);fill-opacity:1;" d="M 28.777344 30.179688 C 28.398438 30.566406 28.449219 30.902344 28.972656 31.585938 C 29.285156 31.980469 29.25 32.265625 28.914062 32.042969 C 28.644531 31.859375 28.644531 31.859375 28.484375 32.179688 C 28.347656 32.445312 28.347656 32.453125 28.585938 32.660156 C 28.777344 32.839844 28.878906 32.855469 29.242188 32.820312 C 29.78125 32.769531 30.054688 32.488281 30.054688 31.980469 C 30.054688 31.691406 29.996094 31.570312 29.664062 31.21875 C 29.292969 30.816406 29.277344 30.589844 29.632812 30.789062 C 29.859375 30.910156 29.945312 30.847656 30.011719 30.515625 C 30.09375 30.15625 29.84375 29.929688 29.359375 29.929688 C 29.109375 29.929688 28.972656 29.992188 28.777344 30.179688 Z M 28.777344 30.179688 "/>
<path style=" stroke:none;fill-rule:nonzero;fill:rgb(0%,0%,0%);fill-opacity:1;" d="M 31.757812 30 C 31.574219 30.027344 31.574219 30.035156 31.589844 31.414062 L 31.613281 32.804688 L 31.953125 32.804688 C 32.28125 32.804688 32.289062 32.796875 32.367188 32.445312 C 32.433594 32.125 32.46875 32.085938 32.730469 32.03125 C 33.167969 31.957031 33.429688 31.648438 33.429688 31.21875 C 33.429688 30.816406 33.269531 30.367188 33.050781 30.1875 C 32.898438 30.058594 32.121094 29.949219 31.757812 30 Z M 32.535156 30.667969 C 32.730469 30.746094 32.710938 31.191406 32.511719 31.296875 C 32.300781 31.414062 32.25 31.339844 32.25 30.945312 C 32.25 30.617188 32.289062 30.574219 32.535156 30.667969 Z M 32.535156 30.667969 "/>
<path style=" stroke:none;fill-rule:nonzero;fill:rgb(0%,0%,0%);fill-opacity:1;" d="M 33.742188 30.976562 C 33.699219 31.957031 33.71875 32.746094 33.800781 32.820312 C 33.878906 32.898438 35.195312 32.726562 35.226562 32.632812 C 35.253906 32.582031 35.253906 32.4375 35.226562 32.308594 C 35.1875 32.109375 35.144531 32.074219 34.898438 32.074219 C 34.695312 32.074219 34.613281 32.03125 34.613281 31.945312 C 34.613281 31.859375 34.695312 31.816406 34.855469 31.816406 C 35.167969 31.816406 35.238281 31.714844 35.167969 31.339844 C 35.117188 31.105469 35.078125 31.046875 34.90625 31.046875 C 34.671875 31.046875 34.585938 30.945312 34.664062 30.746094 C 34.703125 30.644531 34.78125 30.617188 34.925781 30.660156 C 35.078125 30.695312 35.136719 30.667969 35.195312 30.523438 C 35.226562 30.421875 35.246094 30.238281 35.21875 30.128906 C 35.1875 29.941406 35.152344 29.929688 34.484375 29.929688 L 33.792969 29.929688 Z M 33.742188 30.976562 "/>
<path style=" stroke:none;fill-rule:nonzero;fill:rgb(0%,0%,0%);fill-opacity:1;" d="M 35.539062 30.265625 C 35.539062 30.550781 35.574219 30.609375 35.734375 30.632812 C 35.910156 30.660156 35.921875 30.695312 35.945312 31.636719 C 35.953125 32.1875 36.011719 32.675781 36.0625 32.734375 C 36.183594 32.890625 36.597656 32.875 36.722656 32.71875 C 36.796875 32.625 36.816406 32.324219 36.789062 31.605469 C 36.746094 30.695312 36.757812 30.617188 36.898438 30.617188 C 37.09375 30.617188 37.210938 30.402344 37.160156 30.136719 C 37.128906 29.941406 37.101562 29.929688 36.335938 29.929688 L 35.539062 29.929688 Z M 35.539062 30.265625 "/>
<path style=" stroke:none;fill-rule:nonzero;fill:rgb(0%,0%,0%);fill-opacity:1;" d="M 39.1875 30.121094 C 38.890625 30.445312 38.875 30.738281 39.113281 31.15625 C 39.230469 31.363281 39.390625 31.578125 39.457031 31.648438 C 39.625 31.785156 39.636719 32.074219 39.464844 32.074219 C 39.398438 32.074219 39.253906 32.023438 39.164062 31.964844 C 39.011719 31.878906 38.96875 31.886719 38.824219 32.066406 C 38.621094 32.316406 38.621094 32.375 38.851562 32.582031 C 39.0625 32.789062 39.5 32.890625 39.804688 32.8125 C 40.082031 32.746094 40.351562 32.289062 40.351562 31.886719 C 40.351562 31.636719 40.285156 31.484375 40.058594 31.226562 C 39.898438 31.046875 39.761719 30.832031 39.761719 30.746094 C 39.761719 30.601562 39.835938 30.589844 40.257812 30.710938 C 40.335938 30.738281 40.410156 30.644531 40.460938 30.453125 C 40.582031 30.078125 40.394531 29.929688 39.804688 29.929688 C 39.457031 29.929688 39.332031 29.972656 39.1875 30.121094 Z M 39.1875 30.121094 "/>
<path style=" stroke:none;fill-rule:nonzero;fill:rgb(0%,0%,0%);fill-opacity:1;" d="M 40.832031 29.992188 C 40.800781 30.015625 40.773438 30.675781 40.773438 31.449219 L 40.773438 32.855469 L 41.136719 32.832031 L 41.492188 32.804688 L 41.515625 32.222656 C 41.542969 31.714844 41.558594 31.648438 41.703125 31.648438 C 41.855469 31.648438 41.871094 31.707031 41.871094 32.253906 L 41.871094 32.855469 L 42.183594 32.832031 C 42.589844 32.796875 42.613281 32.710938 42.625 31.148438 L 42.632812 29.929688 L 42.25 29.929688 C 41.878906 29.929688 41.871094 29.941406 41.871094 30.207031 C 41.871094 30.617188 41.789062 30.875 41.652344 30.875 C 41.566406 30.875 41.535156 30.746094 41.535156 30.402344 L 41.535156 29.929688 L 41.214844 29.929688 C 41.035156 29.929688 40.859375 29.957031 40.832031 29.992188 Z M 40.832031 29.992188 "/>
<path style=" stroke:none;fill-rule:nonzero;fill:rgb(0%,0%,0%);fill-opacity:1;" d="M 45.214844 30.804688 C 45.191406 31.296875 45.199219 31.9375 45.230469 32.246094 L 45.292969 32.804688 L 45.601562 32.832031 C 45.976562 32.863281 46.117188 32.667969 46.074219 32.179688 C 46.050781 31.878906 46.066406 31.859375 46.347656 31.816406 C 47.074219 31.691406 47.394531 31.089844 47.0625 30.453125 C 46.894531 30.113281 46.464844 29.929688 45.8125 29.929688 L 45.265625 29.929688 Z M 46.320312 30.753906 C 46.378906 30.910156 46.261719 31.148438 46.109375 31.199219 C 46.042969 31.21875 46.007812 31.125 46.007812 30.925781 C 46.007812 30.601562 46.21875 30.488281 46.320312 30.753906 Z M 46.320312 30.753906 "/>
</g>
</svg>
