<svg xmlns="http://www.w3.org/2000/svg" viewBox="0 0 512 512"><title>perro banera</title><g fill="#212121" class="nc-icon-wrapper"><ellipse cx="216.875" cy="75.637" rx="7.775" ry="7.775" transform="rotate(-76.64 216.957 75.6)"></ellipse><path d="M265.139 38.23c0 4.572-3.706 8.278-8.278 8.278s-8.278-3.706-8.278-8.278 3.706-8.278 8.278-8.278 8.278 3.706 8.278 8.278z"></path><circle cx="55.046" cy="111.422" r="7.775"></circle><path d="M41.085 210.679l8.24 23.17c.353.992 1.051 1.778 1.933 2.175l20.586 9.275c2.908 1.31 2.908 5.944 0 7.254l-20.586 9.275c-.881.397-1.58 1.183-1.933 2.175l-8.24 23.17c-1.164 3.273-5.281 3.273-6.445 0l-8.24-23.17c-.353-.992-1.051-1.778-1.933-2.175l-20.586-9.275c-2.908-1.31-2.908-5.944 0-7.254l20.586-9.275c.881-.397 1.58-1.183 1.933-2.175l8.24-23.17c1.164-3.274 5.281-3.274 6.445 0z"></path><path d="M485.866 48.658l6.112 17.187c.262.736.78 1.319 1.434 1.614l15.27 6.88c2.157.972 2.157 4.409 0 5.381l-15.27 6.88c-.654.295-1.172.878-1.434 1.614l-6.112 17.187c-.863 2.428-3.917 2.428-4.781 0l-6.112-17.187c-.262-.736-.78-1.319-1.433-1.614l-15.27-6.88c-2.157-.972-2.157-4.409 0-5.381l15.27-6.88c.654-.295 1.172-.878 1.433-1.614l6.112-17.187c.863-2.428 3.917-2.428 4.781 0z"></path><ellipse cx="421.659" cy="292.423" rx="17.993" ry="17.993" transform="rotate(-77.4 421.616 292.405)"></ellipse><circle cx="431.892" cy="121.658" r="7.762"></circle><g><path d="M275.214 217.084c-6.216 0-11.437-4.283-12.905-10.049 3.225-2.364 6.314-5.869 6.314-9.785 0-7.117-5.77-9.176-12.887-9.176-7.118 0-12.888 2.059-12.888 9.176 0 3.916 3.089 7.421 6.314 9.785-1.468 5.766-6.689 10.049-12.905 10.049a6.02 6.02 0 0 0-.618 12.006c1.765 10.076 10.101 17.73 20.096 17.73 9.994 0 18.331-7.654 20.096-17.73a6.02 6.02 0 0 0-.617-12.006zm-19.478 17.699c-4.219 0-7.712-3.595-8.308-8.259a25.526 25.526 0 0 0 8.309-6.539 25.528 25.528 0 0 0 8.309 6.539c-.598 4.663-4.091 8.259-8.31 8.259z"></path><path d="M202.902 160.017c12.818 0 22.859-7.876 22.859-17.93s-10.041-17.93-22.859-17.93-22.859 7.876-22.859 17.93 10.041 17.93 22.859 17.93zm0-23.823c6.095 0 10.822 3.168 10.822 5.893s-4.727 5.893-10.822 5.893c-6.094 0-10.821-3.168-10.821-5.893 0-2.726 4.727-5.893 10.821-5.893z"></path><path d="M308.569 160.017c12.818 0 22.859-7.876 22.859-17.93s-10.041-17.93-22.859-17.93-22.859 7.876-22.859 17.93c.001 10.054 10.041 17.93 22.859 17.93zm0-23.823c6.095 0 10.822 3.168 10.822 5.893s-4.727 5.893-10.822 5.893c-6.094 0-10.821-3.168-10.821-5.893 0-2.726 4.727-5.893 10.821-5.893z"></path><path d="M161.014 111.484c.255 0 .514-.016.773-.049l14.946-1.917a6.02 6.02 0 0 0 3.58-10.134c-6.457-6.737-12.863-22.821-14.786-28.449a6.02 6.02 0 0 0-11.393 3.887c.241.705 4.654 13.526 10.981 24.05l-4.859.623a6.018 6.018 0 0 0 .758 11.989z"></path><path d="M334.738 109.518l14.946 1.917a6.018 6.018 0 0 0 6.735-5.205 6.018 6.018 0 0 0-5.204-6.735l-4.859-.623c6.328-10.525 10.741-23.345 10.982-24.05a6.018 6.018 0 0 0-11.392-3.887c-1.923 5.628-8.33 21.712-14.786 28.449a6.018 6.018 0 0 0 3.578 10.134z"></path><path d="M444.681 345.812h-73.749c.004-.426.021-.848.021-1.274 0-26.046-7.372-50.254-19.962-70.305 28.845-19.498 43.958-42.249 43.958-66.598 0-24.404-6.084-49.076-17.629-71.626 9.793-31.197 16.643-65.05 4.934-101.848a21.36 21.36 0 0 0-16.134-14.462 21.3 21.3 0 0 0-20.058 6.679l-22.824 22.291a40.985 40.985 0 0 0-23.743-16.605C295.278 13.578 278.532 0 259.305 0c-21.513 0-39.231 16.565-41.066 37.611-10.948.243-21.46 4.897-29.008 12.854l-25.136-23.621a21.295 21.295 0 0 0-19.978-6.593 21.371 21.371 0 0 0-16.142 14.473c-10.709 33.663-5.32 65.462 6.501 102.362-11.758 22.365-17.954 46.663-17.954 70.549 0 24.256 15.165 46.924 44.115 66.368-7.438 11.792-13.061 25.029-16.443 39.238-8.697-9.654-21.247-15.516-34.739-15.516-25.76 0-46.717 20.957-46.717 46.717 0 .56.035 1.111.054 1.666-13.141 1.94-23.26 13.289-23.26 26.961v19.104c0 10.002 5.419 18.757 13.471 23.499v.465c0 52.859 43.004 95.863 95.863 95.863h213.735c52.859 0 95.863-43.004 95.863-95.863v-.465c8.052-4.742 13.471-13.498 13.471-23.499v-19.104c.003-15.029-12.224-27.257-27.254-27.257zm-93.791-1.274c0 .427-.019.849-.023 1.274h-41.682c.048-1.62.083-3.247.083-4.891 0-15.388-2.1-29.774-5.835-42.395 8.987-3.481 18.49-7.68 27.886-12.605.846-.443 1.67-.892 2.5-1.34 10.751 17.014 17.071 37.683 17.071 59.957zm-206.244 1.274l6.564-6.81c3.609-3.745 8.454-5.807 13.641-5.807 8.225 0 15.223 5.277 17.838 12.616h-38.043zm69.685 0c-.055-1.62-.09-3.249-.09-4.891 0-13.884 1.959-27.068 5.35-38.588 17.154 5.829 31.158 8.752 36.871 8.752 5.563 0 19.005-2.809 35.519-8.402 3.329 11.436 5.248 24.494 5.248 38.238 0 1.642-.034 3.271-.089 4.891zM203.69 64.366c4.047-4.322 9.534-6.703 15.451-6.703 7.566 0 19.005-6.557 19.005-16.44 0-11.668 9.492-21.161 21.16-21.161 10.416 0 19.412 7.756 20.926 18.04a15.508 15.508 0 0 0 12.675 13.05c10.723 1.879 18.208 11.529 17.411 22.447-.759 10.402-9.525 18.975-19.955 19.518-8.251.428-16.036-4-19.874-11.28-2.649-5.025-8.031-7.734-14.408-7.243-5.406.415-14.374 3.721-16.924 11.124-3.115 9.042-11.979 14.885-21.573 14.209-10.458-.738-18.865-9.186-19.554-19.652-.393-5.941 1.618-11.592 5.66-15.909zm-48.814 70.579c-11.851-35.969-17.286-64.263-7.783-94.139.064-.201.235-.737.977-.886.105-.021.202-.03.291-.03.505 0 .759.3.878.439l.364.428 29.592 27.808a41.59 41.59 0 0 0-1.186 13.033c1.345 20.42 17.752 36.905 38.161 38.345a41.47 41.47 0 0 0 2.92.103c15.868-.001 30.337-9.134 37.179-23.292 8.162 10.82 21.341 17.125 35.134 16.4 20.682-1.077 37.415-17.453 38.922-38.092.131-1.793.141-3.567.048-5.318l29.987-29.287.633-.678c.141-.165.471-.555 1.174-.41.737.148.906.677.969.876 8.488 26.674 6.693 53.804-6.196 93.641l-1.328 4.105 2.067 3.788c11.257 20.634 17.208 43.408 17.208 65.858 0 4.079-.662 8.011-1.85 11.796-2.177-4.72-5.254-8.912-9.211-12.313-11.021-9.472-27.034-11.482-42.835-5.379-8.771 3.391-18.853-.229-23.446-8.417-9.161-16.33-23.415-24.961-41.222-24.961-17.973 0-32.5 8.791-42.013 25.423-4.683 8.187-14.595 11.576-23.567 8.057-15.893-6.232-32.003-4.258-43.096 5.277-3.951 3.395-7.024 7.557-9.204 12.242-1.193-3.764-1.857-7.672-1.857-11.724 0-21.856 6.056-44.21 17.514-64.645l2.159-3.851zm-8.116 99.943c.533-7.582 3.524-14.164 8.732-18.641 7.653-6.578 19.189-7.774 30.856-3.199 14.583 5.717 30.736.129 38.41-13.288 7.349-12.848 17.968-19.362 31.564-19.362 13.384 0 23.721 6.33 30.724 18.813 7.502 13.374 23.96 19.289 38.283 13.756 11.592-4.478 23.05-3.253 30.651 3.279 5.24 4.503 8.238 11.186 8.744 18.828-10.53 13.944-27.539 25.119-42.72 33.077-30.03 15.742-60.439 22.872-65.542 22.872-5.15 0-35.89-7.137-66.313-22.895-15.434-7.994-32.733-19.229-43.389-33.24zm34.163 51.055c9.169 4.749 18.433 8.825 27.225 12.231-3.8 12.701-5.942 27.204-5.944 42.73-4.829-16.016-19.692-27.722-37.25-27.768 2.953-10.394 7.325-20.098 12.876-28.831 1.022.549 2.047 1.096 3.093 1.638zm-71.467 31.845c11.217 0 21.3 7.09 25.09 17.644l3.728 10.38H82.843c-.023-.454-.041-.91-.041-1.37 0-14.697 11.957-26.654 26.654-26.654zm-49.86 55.281a7.202 7.202 0 0 1 7.194-7.194h377.891a7.202 7.202 0 0 1 7.194 7.194v19.104a7.202 7.202 0 0 1-7.194 7.194H66.791a7.202 7.202 0 0 1-7.194-7.194v-19.104zm303.008 118.868H148.868c-40.692 0-73.986-32.234-75.717-72.508h365.17c-1.732 40.274-35.025 72.508-75.717 72.508z"></path><path d="M101.144 115.894c0-23.939-19.476-43.415-43.415-43.415s-43.415 19.476-43.415 43.415 19.476 43.415 43.415 43.415 43.415-19.476 43.415-43.415zm-66.767 0c0-12.877 10.476-23.352 23.352-23.352s23.352 10.476 23.352 23.352c0 12.877-10.476 23.352-23.352 23.352s-23.352-10.476-23.352-23.352z"></path><path d="M474.839 178.866c-18.478 0-33.51 15.032-33.51 33.51 0 18.477 15.032 33.51 33.51 33.51s33.51-15.032 33.51-33.51-15.032-33.51-33.51-33.51zm0 46.957c-7.415 0-13.447-6.032-13.447-13.447s6.032-13.447 13.447-13.447 13.447 6.033 13.447 13.447-6.032 13.447-13.447 13.447z"></path><path d="M336.349 429.711a6.02 6.02 0 0 0-6.019 6.019v12.138a6.02 6.02 0 0 0 12.038 0V435.73a6.02 6.02 0 0 0-6.019-6.019z"></path><path d="M368.858 441.688a6.02 6.02 0 0 0-6.019 6.019v12.137a6.02 6.02 0 0 0 12.038 0v-12.137a6.02 6.02 0 0 0-6.019-6.019z"></path><path d="M223.324 452.271h-.091a3545.09 3545.09 0 0 0-59.117-.035c-5.585.035-10.066-4.411-10.11-9.951s4.411-10.067 9.951-10.11c19.375-.154 39.378-.142 59.452.035 5.54.049 9.991 4.579 9.942 10.119-.047 5.508-4.529 9.941-10.027 9.942z"></path><path d="M128.043 452.271h-10.202c-5.54 0-10.031-4.491-10.031-10.031s4.491-10.031 10.031-10.031h10.202c5.54 0 10.031 4.491 10.031 10.031s-4.491 10.031-10.031 10.031z"></path><ellipse cx="193.125" cy="180.938" rx="12.344" ry="12.345" transform="rotate(-80.73 193.165 180.93)"></ellipse><ellipse cx="318.347" cy="180.938" rx="12.344" ry="12.345" transform="rotate(-80.73 318.398 180.915)"></ellipse></g></g></svg>