<?xml version="1.0" standalone="no"?>
<!DOCTYPE svg PUBLIC "-//W3C//DTD SVG 20010904//EN"
 "http://www.w3.org/TR/2001/REC-SVG-20010904/DTD/svg10.dtd">
<svg version="1.0" xmlns="http://www.w3.org/2000/svg"
 width="675.000000pt" height="466.000000pt" viewBox="0 0 675.000000 466.000000"
 preserveAspectRatio="xMidYMid meet">

<g transform="translate(0.000000,466.000000) scale(0.100000,-0.100000)"
fill="#000000" stroke="none">
<path d="M2922 4389 c-70 -14 -140 -59 -213 -138 -38 -41 -69 -79 -69 -83 0
-15 119 -86 156 -93 l36 -6 -25 -27 c-13 -15 -30 -37 -36 -49 -10 -19 -20 -23
-61 -23 -134 0 -321 -48 -443 -112 -81 -43 -153 -111 -184 -171 -22 -44 -25
-60 -20 -116 6 -79 2 -88 -123 -281 -144 -222 -175 -300 -168 -424 8 -155 122
-279 279 -301 87 -13 236 43 329 123 34 28 44 32 51 21 5 -8 9 -17 9 -22 0 -4
11 -30 25 -59 14 -28 25 -53 25 -54 0 -1 -35 -4 -77 -6 -154 -10 -342 -124
-418 -253 -53 -89 -51 -174 4 -244 l32 -40 -83 -3 -83 -3 -3 -338 -3 -337 25
-10 c14 -5 90 -7 180 -3 175 7 166 1 166 98 0 72 -7 79 -83 79 -36 1 -68 3
-70 6 -3 3 -3 16 0 30 4 23 9 25 46 22 64 -4 92 15 93 63 1 22 -1 58 -5 80
l-6 40 -55 5 -55 5 -3 43 c-3 35 0 42 15 43 10 0 41 1 68 2 49 2 50 3 53 34 3
31 4 32 30 20 15 -6 29 -13 31 -14 3 -2 7 -127 10 -278 4 -166 10 -278 16
-284 7 -7 40 -8 90 -3 l80 7 1 95 c1 52 3 100 3 105 2 12 38 -58 70 -137 12
-31 30 -59 39 -63 8 -3 53 -3 99 1 68 6 83 10 83 23 0 10 -27 66 -59 126 l-60
108 44 50 c72 83 84 187 30 268 -14 22 -39 48 -55 58 l-29 17 65 43 c68 45 84
69 84 127 0 20 3 34 8 32 92 -47 180 -82 236 -94 95 -20 275 -22 287 -3 5 8 8
44 7 82 l-3 67 32 0 c36 0 37 -3 33 -97 -1 -39 1 -43 23 -43 13 0 27 3 31 8 4
4 11 7 14 8 26 3 62 18 62 25 0 5 3 8 8 7 18 -3 82 33 76 44 -4 6 -3 8 3 5 11
-7 115 81 109 92 -2 3 3 12 11 20 14 13 15 10 9 -23 -4 -21 -4 -67 0 -102 l6
-64 75 -50 c41 -28 82 -50 92 -50 9 0 27 -7 39 -16 l23 -16 -30 -33 c-33 -38
-47 -91 -60 -235 -16 -171 11 -273 92 -347 49 -45 92 -59 159 -50 37 5 44 2
73 -29 18 -19 42 -34 53 -34 11 0 41 19 68 43 l47 43 -26 39 c-25 36 -25 40
-11 57 23 25 54 140 61 231 7 94 -15 187 -60 249 -17 24 -25 44 -19 46 6 2 28
16 50 31 21 16 49 32 63 36 40 12 89 55 121 104 26 40 29 53 25 97 -14 144
-157 287 -353 354 -61 21 -157 26 -198 10 -24 -9 -23 -5 15 43 56 69 95 155
115 248 l17 77 71 -46 c97 -63 211 -102 302 -102 101 0 158 22 225 89 110 111
129 246 55 396 -33 66 -62 102 -190 234 -180 185 -196 205 -196 244 0 202
-288 335 -642 297 l-119 -13 -30 36 c-74 89 -191 116 -283 64 l-44 -25 -37 54
c-101 146 -242 220 -373 193z m393 -460 c-4 -5 -4 -22 0 -36 l6 -26 31 37 c29
35 32 37 77 30 25 -4 74 -15 108 -26 l62 -19 -19 -32 c-33 -57 -31 -60 70
-128 112 -75 245 -200 305 -284 103 -146 145 -422 88 -586 -168 -492 -1013
-679 -1386 -308 -102 103 -156 257 -144 415 3 39 12 85 20 100 8 16 26 71 40
121 49 172 149 334 295 477 70 68 71 70 57 97 -8 15 -27 36 -42 47 l-27 19 40
26 c21 15 59 33 83 42 50 17 92 9 144 -27 27 -19 27 -19 27 2 0 12 -5 30 -10
41 -10 17 -7 19 22 19 29 0 37 -6 58 -45 22 -41 26 -44 37 -28 7 9 13 29 13
43 0 15 3 30 7 33 11 11 45 8 38 -4z m919 -1435 c78 -32 147 -77 191 -126 41
-44 74 -111 75 -145 0 -24 -64 -103 -84 -103 -7 0 -24 24 -39 53 l-27 52 2
-62 c2 -73 -7 -87 -77 -119 -87 -41 -193 -26 -267 38 -25 22 -26 26 -18 77 5
30 8 56 6 58 -1 1 -13 -22 -25 -52 -13 -30 -28 -55 -34 -55 -7 0 -34 17 -61
36 l-49 36 6 64 c7 67 30 123 68 164 70 74 175 124 239 113 19 -3 62 -16 94
-29z m-1709 -39 c111 -53 185 -159 185 -267 0 -56 0 -56 -47 -87 -25 -17 -52
-31 -59 -31 -7 0 -20 21 -30 48 -25 69 -32 71 -22 6 10 -67 1 -82 -74 -120
-64 -32 -145 -32 -213 0 -70 32 -77 44 -73 116 3 53 1 58 -11 43 -7 -10 -19
-33 -27 -50 -18 -42 -32 -41 -74 2 -40 41 -44 79 -15 138 37 79 129 152 253
203 76 31 139 31 207 -1z m0 -600 c14 -13 25 -35 25 -49 0 -24 -44 -86 -61
-86 -5 0 -9 36 -9 80 0 87 6 95 45 55z m1650 -35 c19 -37 38 -174 29 -215 -3
-16 -17 -49 -31 -73 -20 -36 -28 -42 -46 -36 -45 13 -49 31 -44 160 6 136 23
194 56 194 13 0 27 -12 36 -30z"/>
<path d="M3643 3590 c-35 -21 -73 -73 -98 -135 l-17 -40 35 37 c40 43 72 58
129 58 51 0 100 -29 130 -78 28 -46 35 -27 18 55 -17 79 -60 123 -121 123 -26
0 -57 -8 -76 -20z"/>
<path d="M2832 3497 c-53 -30 -75 -115 -49 -197 l14 -45 13 48 c7 27 25 61 42
77 53 53 148 62 203 18 14 -11 25 -15 25 -10 0 15 -97 101 -125 112 -36 14
-95 12 -123 -3z"/>
<path d="M3220 3151 c-128 -18 -190 -58 -190 -121 0 -48 26 -72 113 -103 49
-18 79 -37 106 -66 l38 -42 -45 -39 c-113 -100 -244 -124 -351 -65 -48 27 -73
51 -151 145 l-20 25 19 -53 c57 -157 175 -257 280 -237 72 14 230 110 277 169
l27 34 61 -33 c67 -37 202 -75 263 -75 122 1 212 119 229 300 l6 65 -36 -79
c-45 -100 -78 -141 -144 -178 -43 -25 -64 -30 -120 -30 -66 -1 -144 18 -204
48 l-27 14 63 60 c35 34 90 73 125 90 71 35 92 68 69 109 -27 50 -68 63 -206
67 -70 1 -152 -1 -182 -5z"/>
<path d="M653 2052 c-9 -5 -13 -103 -15 -362 l-3 -355 150 -2 c83 -2 156 1
164 6 17 11 31 105 21 141 -6 22 -14 26 -73 34 l-67 9 6 259 c5 211 3 259 -8
262 -28 9 -164 15 -175 8z"/>
<path d="M166 1963 c-3 -42 -6 -198 -6 -348 l0 -272 83 -6 c170 -14 301 -3
319 26 4 7 8 40 8 74 0 85 -10 93 -116 93 -82 0 -84 1 -84 24 0 26 16 36 59
36 50 0 71 25 71 84 0 75 -14 90 -84 87 l-56 -2 0 44 0 44 46 7 c26 3 66 6 88
6 23 0 47 5 54 12 12 12 17 124 6 152 -5 14 -32 16 -194 16 l-187 0 -7 -77z"/>
<path d="M6085 2021 c-138 -63 -201 -317 -134 -536 18 -60 48 -97 123 -153 74
-56 258 13 326 123 27 44 52 144 51 210 0 54 -24 169 -46 221 -19 47 -84 115
-130 135 -52 24 -138 24 -190 0z m114 -201 c29 -15 51 -84 51 -158 0 -84 -23
-136 -62 -140 -22 -3 -28 2 -39 35 -18 54 -18 235 0 256 16 20 25 21 50 7z"/>
<path d="M2897 2021 c-20 -4 -41 -11 -45 -15 -9 -10 -2 -619 8 -655 7 -25 9
-26 71 -23 116 4 110 -2 108 108 -1 52 1 97 3 99 3 3 22 -34 43 -82 55 -127
54 -127 161 -116 78 7 89 10 86 26 -2 10 -30 67 -62 125 l-59 107 31 32 32 33
-26 27 c-36 39 -58 86 -58 125 0 35 31 111 49 122 23 14 9 28 -56 58 -55 24
-83 30 -157 33 -50 2 -108 0 -129 -4z m182 -167 c29 -37 27 -75 -7 -107 -15
-15 -31 -27 -35 -27 -4 0 -7 36 -7 80 0 89 12 102 49 54z"/>
<path d="M3387 2023 c-17 -16 -6 -41 21 -46 61 -12 122 -92 122 -158 0 -73
-61 -152 -129 -165 -29 -6 -31 -9 -31 -53 0 -60 25 -156 49 -190 46 -64 192
-110 261 -81 55 23 106 92 126 173 21 81 24 241 8 416 l-9 104 -70 4 c-116 6
-112 11 -102 -109 9 -114 1 -302 -14 -331 -6 -11 -19 -17 -32 -15 -30 4 -35
41 -35 251 -1 123 -4 183 -13 193 -12 14 -139 21 -152 7z"/>
<path d="M4481 2021 c-11 -7 -13 -49 -8 -237 5 -239 18 -322 56 -374 40 -56
175 -104 245 -86 35 9 93 62 115 105 44 85 56 256 35 491 l-9 104 -89 1 -89 0
4 -90 c6 -133 -1 -326 -12 -348 -6 -11 -19 -17 -32 -15 -30 4 -35 43 -36 256
0 117 -4 178 -12 188 -13 16 -144 20 -168 5z"/>
<path d="M5000 2023 c-6 -93 -4 -666 1 -675 7 -10 48 -12 181 -10 95 2 175 6
177 8 3 3 5 38 5 80 1 84 -8 97 -61 88 -17 -3 -46 -3 -63 1 -26 6 -31 11 -28
32 3 22 8 25 59 27 30 1 61 6 67 10 16 10 16 137 0 159 -8 10 -31 17 -58 19
l-45 3 -3 43 c-3 47 -6 45 80 42 56 -2 61 8 56 110 l-3 65 -182 3 c-101 1
-183 -1 -183 -5z"/>
<path d="M5488 2023 c-64 -7 -62 7 -52 -396 4 -175 11 -283 18 -292 9 -12 26
-13 91 -7 l80 7 -2 103 c-1 56 2 100 6 97 5 -2 28 -47 52 -100 24 -52 50 -97
58 -100 8 -3 52 -3 98 1 65 5 83 10 83 22 0 8 -27 64 -60 123 -33 59 -60 110
-60 114 0 4 15 22 34 40 42 41 61 77 70 133 15 97 -48 193 -152 232 -57 22
-186 33 -264 23z m177 -168 c32 -31 32 -66 -1 -104 -40 -48 -49 -40 -51 41 -2
98 7 109 52 63z"/>
<path d="M1360 2011 c-25 -7 -25 -8 -28 -126 -3 -160 11 -532 22 -542 13 -14
153 -10 168 5 7 7 15 46 18 90 l5 77 52 7 c77 11 140 45 175 92 29 39 30 44
26 127 -7 144 -63 232 -170 264 -53 15 -220 19 -268 6z m215 -163 c30 -13 40
-44 32 -95 -8 -44 -14 -51 -55 -59 l-32 -6 0 86 c0 93 3 98 55 74z"/>
<path d="M2130 1174 c-47 -34 -59 -69 -36 -114 14 -29 14 -33 -4 -63 -26 -42
-26 -97 1 -130 45 -58 169 -59 227 -1 28 28 32 39 32 83 0 48 2 51 25 51 21 0
25 5 25 30 0 25 -4 30 -25 30 -22 0 -25 4 -25 35 0 44 -12 44 -47 0 -25 -31
-33 -35 -75 -35 -35 0 -50 5 -57 18 -15 28 2 45 42 40 29 -3 38 0 45 18 15 32
-1 46 -54 51 -36 3 -56 0 -74 -13z m140 -208 c0 -44 -24 -68 -63 -64 -36 4
-52 26 -43 61 6 27 21 34 74 36 30 1 32 -1 32 -33z"/>
<path d="M1126 1170 c-64 -20 -96 -73 -96 -162 0 -64 23 -131 51 -155 22 -18
96 -32 127 -24 24 7 27 13 26 45 -2 46 -14 59 -56 60 -31 1 -33 3 -42 50 -14
68 5 100 59 104 43 4 55 14 55 50 0 36 -58 51 -124 32z"/>
<path d="M2598 1172 l-27 -3 -3 -147 c-4 -203 -8 -192 62 -192 157 0 240 137
161 262 -16 26 -40 52 -53 59 -26 15 -100 26 -140 21z m105 -110 c26 -22 22
-85 -6 -118 -34 -39 -47 -24 -47 51 0 97 7 106 53 67z"/>
<path d="M2931 1169 c-53 -21 -84 -90 -82 -181 2 -81 11 -107 48 -143 23 -22
35 -26 67 -21 43 5 79 28 110 69 43 58 19 223 -38 260 -31 20 -77 27 -105 16z
m73 -173 c1 -46 -22 -85 -42 -72 -16 10 -24 98 -12 130 l11 30 21 -22 c15 -14
21 -34 22 -66z"/>
<path d="M3181 1164 c-36 -26 -53 -79 -52 -166 1 -117 29 -158 106 -158 78 0
115 44 115 137 0 36 -4 45 -24 54 -14 7 -40 9 -60 5 -33 -6 -36 -10 -36 -41 0
-25 4 -35 16 -35 9 0 14 -7 12 -17 -4 -20 -18 -26 -38 -13 -17 10 -17 85 1
137 12 38 24 42 39 12 9 -16 17 -19 38 -14 31 8 52 23 52 37 0 6 -15 25 -34
44 -27 27 -42 34 -73 34 -21 0 -49 -7 -62 -16z"/>
<path d="M5160 1169 c-14 -5 -36 -26 -50 -46 -23 -33 -25 -46 -25 -136 l0 -99
38 -35 c34 -31 43 -34 75 -28 43 7 77 30 106 69 43 57 19 222 -38 259 -30 20
-77 27 -106 16z m72 -175 c-1 -52 -23 -87 -43 -67 -12 12 -15 125 -4 143 5 9
13 6 28 -8 14 -15 19 -33 19 -68z"/>
<path d="M1327 1163 c-2 -5 -11 -37 -20 -73 -59 -239 -59 -249 -17 -251 17 -1
36 -2 43 -3 6 -1 13 9 15 22 5 30 61 32 69 2 6 -23 42 -35 76 -26 23 5 23 8
15 66 -9 67 -43 212 -58 248 -8 19 -17 22 -64 22 -30 0 -57 -3 -59 -7z m75
-168 c2 -22 -1 -31 -15 -33 -17 -3 -18 1 -13 35 3 21 5 40 6 43 1 16 19 -20
22 -45z"/>
<path d="M1510 1131 c0 -33 4 -40 23 -43 21 -3 22 -7 25 -117 1 -64 8 -121 14
-128 12 -15 64 -18 73 -4 3 5 6 64 6 130 1 106 3 121 18 121 26 0 38 18 33 50
l-4 30 -94 0 -94 0 0 -39z"/>
<path d="M1743 1146 c-42 -36 -38 -87 11 -154 23 -32 36 -59 32 -68 -6 -15 -9
-15 -31 0 -31 20 -41 15 -50 -25 -8 -37 6 -56 51 -65 76 -14 134 28 134 96 0
35 -7 48 -46 90 -38 40 -43 51 -30 56 9 3 23 1 31 -6 19 -16 32 -6 40 32 6 26
3 35 -15 50 -32 26 -93 23 -127 -6z"/>
<path d="M3409 1141 c-45 -45 -39 -84 23 -164 37 -46 33 -79 -7 -53 -32 21
-32 21 -51 -16 -16 -31 -16 -32 12 -56 23 -21 35 -23 78 -19 64 6 96 39 96 98
0 34 -7 48 -46 89 -44 47 -46 73 -4 50 27 -14 37 -7 45 32 10 42 -20 68 -77
68 -30 0 -46 -7 -69 -29z"/>
<path d="M3762 1162 c-22 -3 -22 -4 -20 -165 l3 -162 40 0 c39 0 40 1 49 42 8
37 12 42 43 48 52 9 83 45 83 95 0 47 -19 99 -45 120 -18 15 -110 28 -153 22z
m92 -78 c23 -9 21 -61 -3 -73 -25 -14 -31 -5 -31 41 0 38 5 43 34 32z"/>
<path d="M3997 1048 c-5 -114 -3 -206 7 -215 9 -9 165 11 169 22 3 6 3 23 0
38 -5 23 -10 27 -39 27 -24 0 -34 5 -34 15 0 10 10 15 29 15 37 0 45 12 37 56
-6 27 -11 34 -31 34 -28 0 -38 12 -29 35 5 12 14 15 31 10 18 -4 25 -1 32 16
4 12 6 33 3 46 -4 22 -8 23 -87 23 l-82 0 -6 -122z"/>
<path d="M4210 1131 c0 -33 4 -40 23 -43 21 -3 22 -7 25 -117 1 -64 8 -121 14
-128 14 -18 63 -16 78 2 9 11 11 46 8 130 -5 106 -4 115 13 115 23 0 37 25 31
56 -4 23 -7 24 -98 24 l-94 0 0 -39z"/>
<path d="M4642 1148 c-35 -38 -37 -72 -9 -121 14 -24 33 -49 41 -57 20 -16 21
-50 1 -50 -8 0 -25 6 -36 13 -18 10 -23 9 -40 -12 -24 -29 -24 -36 3 -60 25
-24 77 -36 113 -27 33 8 65 61 65 108 0 29 -8 47 -35 77 -19 21 -35 46 -35 56
0 17 9 18 59 4 9 -3 18 8 24 30 14 44 -8 61 -78 61 -41 0 -56 -5 -73 -22z"/>
<path d="M4837 1163 c-4 -3 -7 -80 -7 -170 l0 -164 43 3 42 3 3 68 c3 59 5 67
22 67 18 0 20 -7 20 -71 l0 -70 37 3 c48 4 51 14 52 196 l1 142 -45 0 c-44 0
-45 -1 -45 -32 0 -48 -10 -78 -26 -78 -10 0 -14 15 -14 55 l0 55 -38 0 c-21 0
-42 -3 -45 -7z"/>
<path d="M5356 1068 c-3 -57 -2 -132 2 -168 l7 -65 37 -3 c44 -4 61 19 56 76
-3 35 -1 37 32 42 86 15 124 85 85 159 -20 40 -71 61 -148 61 l-65 0 -6 -102z
m131 6 c7 -18 -7 -46 -25 -52 -8 -2 -12 9 -12 32 0 38 25 51 37 20z"/>
</g>
</svg>
