<?xml version="1.0" encoding="UTF-8"?>
<svg xmlns="http://www.w3.org/2000/svg" xmlns:xlink="http://www.w3.org/1999/xlink" width="75pt" height="52pt" viewBox="0 0 75 52" version="1.1">
<g id="surface1">
<path style=" stroke:none;fill-rule:nonzero;fill:rgb(0%,0%,0%);fill-opacity:1;" d="M 32.457031 3.019531 C 31.679688 3.175781 30.902344 3.679688 30.089844 4.558594 C 29.667969 5.015625 29.324219 5.441406 29.324219 5.484375 C 29.324219 5.652344 30.644531 6.445312 31.058594 6.523438 L 31.457031 6.589844 L 31.179688 6.890625 C 31.035156 7.058594 30.847656 7.304688 30.78125 7.4375 C 30.667969 7.648438 30.558594 7.691406 30.101562 7.691406 C 28.613281 7.691406 26.535156 8.226562 25.179688 8.941406 C 24.28125 9.421875 23.480469 10.179688 23.136719 10.847656 C 22.894531 11.339844 22.859375 11.515625 22.914062 12.140625 C 22.980469 13.023438 22.9375 13.121094 21.550781 15.273438 C 19.949219 17.75 19.605469 18.621094 19.683594 20 C 19.773438 21.730469 21.039062 23.113281 22.78125 23.359375 C 23.75 23.503906 25.402344 22.878906 26.4375 21.984375 C 26.8125 21.675781 26.925781 21.628906 27.003906 21.753906 C 27.058594 21.839844 27.101562 21.941406 27.101562 21.996094 C 27.101562 22.042969 27.226562 22.332031 27.378906 22.65625 C 27.535156 22.96875 27.660156 23.246094 27.660156 23.257812 C 27.660156 23.269531 27.269531 23.300781 26.804688 23.324219 C 25.09375 23.4375 23.003906 24.707031 22.160156 26.144531 C 21.570312 27.136719 21.59375 28.085938 22.203125 28.867188 L 22.558594 29.3125 L 21.636719 29.34375 L 20.714844 29.378906 L 20.683594 33.148438 L 20.648438 36.902344 L 20.925781 37.015625 C 21.082031 37.070312 21.925781 37.09375 22.925781 37.050781 C 24.871094 36.972656 24.769531 37.039062 24.769531 35.957031 C 24.769531 35.152344 24.691406 35.074219 23.847656 35.074219 C 23.449219 35.0625 23.09375 35.042969 23.070312 35.007812 C 23.039062 34.976562 23.039062 34.832031 23.070312 34.675781 C 23.117188 34.417969 23.171875 34.394531 23.582031 34.429688 C 24.292969 34.472656 24.605469 34.261719 24.613281 33.726562 C 24.625 33.480469 24.605469 33.078125 24.558594 32.835938 L 24.492188 32.386719 L 23.882812 32.332031 L 23.269531 32.277344 L 23.238281 31.796875 C 23.203125 31.40625 23.238281 31.328125 23.402344 31.316406 C 23.515625 31.316406 23.859375 31.308594 24.160156 31.296875 C 24.703125 31.273438 24.714844 31.261719 24.75 30.917969 C 24.78125 30.570312 24.792969 30.558594 25.082031 30.695312 C 25.25 30.761719 25.402344 30.839844 25.425781 30.851562 C 25.460938 30.871094 25.503906 32.265625 25.535156 33.949219 C 25.582031 35.800781 25.648438 37.050781 25.714844 37.117188 C 25.792969 37.195312 26.160156 37.203125 26.714844 37.148438 L 27.601562 37.070312 L 27.613281 36.011719 C 27.625 35.433594 27.648438 34.898438 27.648438 34.839844 C 27.667969 34.707031 28.070312 35.488281 28.425781 36.367188 C 28.558594 36.714844 28.757812 37.027344 28.859375 37.070312 C 28.945312 37.105469 29.445312 37.105469 29.957031 37.058594 C 30.714844 36.992188 30.878906 36.949219 30.878906 36.804688 C 30.878906 36.691406 30.578125 36.066406 30.222656 35.398438 L 29.558594 34.195312 L 30.046875 33.636719 C 30.847656 32.710938 30.980469 31.550781 30.378906 30.648438 C 30.222656 30.402344 29.945312 30.113281 29.769531 30.003906 L 29.445312 29.8125 L 30.167969 29.332031 C 30.925781 28.832031 31.101562 28.5625 31.101562 27.917969 C 31.101562 27.695312 31.136719 27.539062 31.191406 27.5625 C 32.210938 28.085938 33.191406 28.476562 33.8125 28.609375 C 34.867188 28.832031 36.867188 28.855469 37 28.640625 C 37.054688 28.554688 37.089844 28.152344 37.078125 27.726562 L 37.042969 26.980469 L 37.398438 26.980469 C 37.800781 26.980469 37.8125 27.015625 37.765625 28.0625 C 37.753906 28.496094 37.777344 28.542969 38.023438 28.542969 C 38.167969 28.542969 38.320312 28.507812 38.367188 28.453125 C 38.410156 28.410156 38.488281 28.375 38.523438 28.363281 C 38.8125 28.332031 39.210938 28.164062 39.210938 28.085938 C 39.210938 28.027344 39.242188 27.996094 39.300781 28.007812 C 39.5 28.039062 40.210938 27.640625 40.144531 27.515625 C 40.097656 27.449219 40.109375 27.425781 40.175781 27.460938 C 40.300781 27.539062 41.453125 26.558594 41.386719 26.433594 C 41.367188 26.402344 41.421875 26.300781 41.511719 26.210938 C 41.664062 26.066406 41.675781 26.101562 41.609375 26.46875 C 41.566406 26.703125 41.566406 27.214844 41.609375 27.605469 L 41.675781 28.320312 L 42.507812 28.875 C 42.964844 29.1875 43.421875 29.433594 43.53125 29.433594 C 43.632812 29.433594 43.832031 29.511719 43.964844 29.613281 L 44.21875 29.789062 L 43.886719 30.160156 C 43.519531 30.582031 43.363281 31.171875 43.21875 32.777344 C 43.042969 34.683594 43.34375 35.824219 44.242188 36.648438 C 44.785156 37.148438 45.265625 37.304688 46.007812 37.203125 C 46.417969 37.148438 46.496094 37.183594 46.820312 37.527344 C 47.019531 37.738281 47.285156 37.90625 47.40625 37.90625 C 47.53125 37.90625 47.863281 37.695312 48.164062 37.429688 L 48.6875 36.949219 L 48.398438 36.515625 C 48.117188 36.113281 48.117188 36.066406 48.273438 35.878906 C 48.53125 35.597656 48.875 34.316406 48.953125 33.304688 C 49.03125 32.253906 48.785156 31.21875 48.285156 30.527344 C 48.097656 30.257812 48.007812 30.035156 48.074219 30.015625 C 48.140625 29.992188 48.386719 29.835938 48.628906 29.667969 C 48.863281 29.488281 49.175781 29.3125 49.328125 29.265625 C 49.773438 29.132812 50.320312 28.652344 50.675781 28.105469 C 50.960938 27.660156 50.996094 27.515625 50.953125 27.027344 C 50.796875 25.421875 49.207031 23.824219 47.03125 23.078125 C 46.351562 22.84375 45.285156 22.789062 44.832031 22.96875 C 44.566406 23.066406 44.574219 23.023438 44.996094 22.488281 C 45.621094 21.71875 46.054688 20.761719 46.273438 19.722656 L 46.464844 18.863281 L 47.253906 19.378906 C 48.332031 20.078125 49.597656 20.515625 50.605469 20.515625 C 51.730469 20.515625 52.363281 20.269531 53.105469 19.523438 C 54.328125 18.285156 54.539062 16.78125 53.71875 15.105469 C 53.351562 14.371094 53.027344 13.96875 51.605469 12.5 C 49.609375 10.4375 49.429688 10.210938 49.429688 9.777344 C 49.429688 7.527344 46.230469 6.042969 42.296875 6.464844 L 40.976562 6.613281 L 40.644531 6.210938 C 39.820312 5.21875 38.523438 4.917969 37.5 5.496094 L 37.011719 5.773438 L 36.601562 5.171875 C 35.476562 3.546875 33.914062 2.71875 32.457031 3.019531 Z M 36.824219 8.148438 C 36.777344 8.207031 36.777344 8.394531 36.824219 8.550781 L 36.890625 8.839844 L 37.234375 8.429688 C 37.554688 8.039062 37.589844 8.015625 38.089844 8.09375 C 38.367188 8.140625 38.910156 8.261719 39.289062 8.382812 L 39.976562 8.597656 L 39.765625 8.953125 C 39.398438 9.589844 39.421875 9.621094 40.542969 10.378906 C 41.789062 11.214844 43.265625 12.609375 43.929688 13.546875 C 45.074219 15.175781 45.542969 18.25 44.910156 20.078125 C 43.042969 25.566406 33.65625 27.648438 29.511719 23.515625 C 28.378906 22.367188 27.78125 20.648438 27.914062 18.886719 C 27.949219 18.453125 28.046875 17.9375 28.136719 17.773438 C 28.226562 17.59375 28.425781 16.980469 28.582031 16.421875 C 29.125 14.503906 30.234375 12.699219 31.855469 11.105469 C 32.636719 10.347656 32.644531 10.324219 32.492188 10.023438 C 32.402344 9.855469 32.191406 9.621094 32.023438 9.5 L 31.722656 9.289062 L 32.167969 8.996094 C 32.402344 8.832031 32.824219 8.628906 33.089844 8.527344 C 33.644531 8.339844 34.113281 8.429688 34.691406 8.832031 C 34.988281 9.042969 34.988281 9.042969 34.988281 8.808594 C 34.988281 8.675781 34.933594 8.472656 34.878906 8.351562 C 34.765625 8.160156 34.800781 8.140625 35.121094 8.140625 C 35.445312 8.140625 35.535156 8.207031 35.765625 8.640625 C 36.011719 9.097656 36.054688 9.132812 36.179688 8.953125 C 36.257812 8.851562 36.324219 8.628906 36.324219 8.472656 C 36.324219 8.304688 36.355469 8.140625 36.398438 8.105469 C 36.523438 7.984375 36.898438 8.015625 36.824219 8.148438 Z M 47.03125 24.148438 C 47.898438 24.507812 48.664062 25.007812 49.152344 25.554688 C 49.609375 26.042969 49.972656 26.792969 49.984375 27.171875 C 49.984375 27.4375 49.273438 28.320312 49.050781 28.320312 C 48.972656 28.320312 48.785156 28.050781 48.617188 27.726562 L 48.320312 27.148438 L 48.339844 27.839844 C 48.363281 28.652344 48.261719 28.808594 47.484375 29.167969 C 46.519531 29.625 45.34375 29.457031 44.519531 28.742188 C 44.242188 28.496094 44.230469 28.453125 44.320312 27.882812 C 44.375 27.550781 44.410156 27.261719 44.386719 27.238281 C 44.375 27.226562 44.242188 27.484375 44.109375 27.816406 C 43.964844 28.152344 43.796875 28.429688 43.730469 28.429688 C 43.652344 28.429688 43.355469 28.242188 43.054688 28.027344 L 42.507812 27.628906 L 42.578125 26.914062 C 42.652344 26.167969 42.910156 25.542969 43.332031 25.085938 C 44.109375 24.261719 45.277344 23.703125 45.988281 23.824219 C 46.199219 23.859375 46.675781 24.003906 47.03125 24.148438 Z M 28.046875 24.585938 C 29.28125 25.175781 30.101562 26.355469 30.101562 27.5625 C 30.101562 28.183594 30.101562 28.183594 29.582031 28.53125 C 29.300781 28.71875 29.003906 28.875 28.925781 28.875 C 28.847656 28.875 28.703125 28.640625 28.589844 28.339844 C 28.3125 27.570312 28.234375 27.550781 28.347656 28.273438 C 28.457031 29.019531 28.359375 29.1875 27.523438 29.613281 C 26.8125 29.96875 25.914062 29.96875 25.160156 29.613281 C 24.382812 29.253906 24.304688 29.121094 24.347656 28.320312 C 24.382812 27.726562 24.359375 27.671875 24.226562 27.839844 C 24.148438 27.949219 24.015625 28.207031 23.925781 28.398438 C 23.726562 28.867188 23.570312 28.855469 23.105469 28.375 C 22.660156 27.917969 22.617188 27.492188 22.9375 26.835938 C 23.347656 25.957031 24.371094 25.140625 25.746094 24.574219 C 26.59375 24.226562 27.292969 24.226562 28.046875 24.585938 Z M 28.046875 31.273438 C 28.203125 31.417969 28.324219 31.664062 28.324219 31.820312 C 28.324219 32.085938 27.835938 32.777344 27.648438 32.777344 C 27.59375 32.777344 27.546875 32.378906 27.546875 31.886719 C 27.546875 30.917969 27.613281 30.828125 28.046875 31.273438 Z M 46.375 31.664062 C 46.585938 32.078125 46.796875 33.605469 46.699219 34.0625 C 46.664062 34.238281 46.507812 34.605469 46.351562 34.875 C 46.128906 35.277344 46.042969 35.34375 45.84375 35.277344 C 45.34375 35.132812 45.296875 34.929688 45.351562 33.492188 C 45.417969 31.976562 45.609375 31.328125 45.976562 31.328125 C 46.121094 31.328125 46.273438 31.464844 46.375 31.664062 Z M 46.375 31.664062 "/>
<path style=" stroke:none;fill-rule:nonzero;fill:rgb(0%,0%,0%);fill-opacity:1;" d="M 40.464844 11.929688 C 40.078125 12.164062 39.65625 12.742188 39.378906 13.433594 L 39.1875 13.878906 L 39.578125 13.46875 C 40.019531 12.988281 40.375 12.820312 41.011719 12.820312 C 41.578125 12.820312 42.121094 13.144531 42.453125 13.691406 C 42.765625 14.203125 42.84375 13.992188 42.652344 13.078125 C 42.464844 12.195312 41.988281 11.707031 41.308594 11.707031 C 41.019531 11.707031 40.675781 11.796875 40.464844 11.929688 Z M 40.464844 11.929688 "/>
<path style=" stroke:none;fill-rule:nonzero;fill:rgb(0%,0%,0%);fill-opacity:1;" d="M 31.457031 12.964844 C 30.867188 13.300781 30.625 14.25 30.914062 15.164062 L 31.070312 15.664062 L 31.214844 15.128906 C 31.289062 14.828125 31.492188 14.449219 31.679688 14.269531 C 32.269531 13.679688 33.324219 13.578125 33.933594 14.070312 C 34.089844 14.191406 34.210938 14.238281 34.210938 14.183594 C 34.210938 14.015625 33.132812 13.054688 32.824219 12.933594 C 32.421875 12.777344 31.769531 12.800781 31.457031 12.964844 Z M 31.457031 12.964844 "/>
<path style=" stroke:none;fill-rule:nonzero;fill:rgb(0%,0%,0%);fill-opacity:1;" d="M 35.765625 16.824219 C 34.34375 17.023438 33.65625 17.472656 33.65625 18.171875 C 33.65625 18.707031 33.945312 18.976562 34.910156 19.320312 C 35.457031 19.523438 35.789062 19.734375 36.089844 20.058594 L 36.511719 20.527344 L 36.011719 20.960938 C 34.757812 22.074219 33.300781 22.34375 32.113281 21.683594 C 31.578125 21.382812 31.300781 21.117188 30.433594 20.070312 L 30.214844 19.789062 L 30.425781 20.378906 C 31.058594 22.132812 32.367188 23.246094 33.535156 23.023438 C 34.335938 22.867188 36.089844 21.796875 36.613281 21.140625 L 36.910156 20.761719 L 37.589844 21.128906 C 38.332031 21.539062 39.832031 21.964844 40.511719 21.964844 C 41.867188 21.953125 42.863281 20.636719 43.054688 18.621094 L 43.121094 17.894531 L 42.71875 18.773438 C 42.222656 19.890625 41.855469 20.347656 41.121094 20.761719 C 40.644531 21.039062 40.410156 21.09375 39.789062 21.09375 C 39.054688 21.105469 38.1875 20.894531 37.523438 20.558594 L 37.222656 20.402344 L 37.921875 19.734375 C 38.3125 19.355469 38.921875 18.921875 39.3125 18.730469 C 40.097656 18.339844 40.332031 17.972656 40.078125 17.515625 C 39.777344 16.957031 39.320312 16.8125 37.789062 16.769531 C 37.011719 16.757812 36.101562 16.78125 35.765625 16.824219 Z M 35.765625 16.824219 "/>
<path style=" stroke:none;fill-rule:nonzero;fill:rgb(0%,0%,0%);fill-opacity:1;" d="M 7.253906 29.078125 C 7.152344 29.132812 7.109375 30.226562 7.085938 33.113281 L 7.054688 37.070312 L 8.71875 37.09375 C 9.640625 37.117188 10.453125 37.082031 10.542969 37.027344 C 10.730469 36.902344 10.886719 35.855469 10.773438 35.453125 C 10.707031 35.210938 10.617188 35.164062 9.964844 35.074219 L 9.21875 34.976562 L 9.285156 32.085938 C 9.339844 29.734375 9.320312 29.199219 9.199219 29.167969 C 8.886719 29.066406 7.375 29 7.253906 29.078125 Z M 7.253906 29.078125 "/>
<path style=" stroke:none;fill-rule:nonzero;fill:rgb(0%,0%,0%);fill-opacity:1;" d="M 1.84375 30.070312 C 1.8125 30.539062 1.777344 32.277344 1.777344 33.949219 L 1.777344 36.980469 L 2.699219 37.050781 C 4.585938 37.203125 6.042969 37.082031 6.242188 36.757812 C 6.285156 36.679688 6.332031 36.3125 6.332031 35.933594 C 6.332031 34.984375 6.21875 34.898438 5.042969 34.898438 C 4.132812 34.898438 4.109375 34.886719 4.109375 34.628906 C 4.109375 34.339844 4.289062 34.226562 4.765625 34.226562 C 5.320312 34.226562 5.554688 33.949219 5.554688 33.292969 C 5.554688 32.457031 5.398438 32.289062 4.621094 32.320312 L 4 32.34375 L 4 31.363281 L 4.511719 31.285156 C 4.796875 31.25 5.242188 31.21875 5.488281 31.21875 C 5.742188 31.21875 6.007812 31.160156 6.085938 31.085938 C 6.21875 30.949219 6.277344 29.703125 6.152344 29.390625 C 6.097656 29.234375 5.796875 29.210938 4 29.210938 L 1.921875 29.210938 Z M 1.84375 30.070312 "/>
<path style=" stroke:none;fill-rule:nonzero;fill:rgb(0%,0%,0%);fill-opacity:1;" d="M 67.589844 29.421875 C 66.058594 30.125 65.359375 32.957031 66.101562 35.398438 C 66.300781 36.066406 66.636719 36.480469 67.46875 37.105469 C 68.289062 37.730469 70.335938 36.960938 71.089844 35.734375 C 71.390625 35.242188 71.667969 34.128906 71.65625 33.390625 C 71.65625 32.789062 71.390625 31.507812 71.144531 30.929688 C 70.933594 30.402344 70.210938 29.644531 69.703125 29.421875 C 69.125 29.15625 68.167969 29.15625 67.589844 29.421875 Z M 68.855469 31.664062 C 69.179688 31.832031 69.425781 32.601562 69.425781 33.425781 C 69.425781 34.363281 69.167969 34.941406 68.734375 34.984375 C 68.492188 35.019531 68.425781 34.964844 68.300781 34.597656 C 68.101562 33.992188 68.101562 31.976562 68.300781 31.742188 C 68.480469 31.519531 68.578125 31.507812 68.855469 31.664062 Z M 68.855469 31.664062 "/>
<path style=" stroke:none;fill-rule:nonzero;fill:rgb(0%,0%,0%);fill-opacity:1;" d="M 32.179688 29.421875 C 31.957031 29.46875 31.722656 29.546875 31.679688 29.589844 C 31.578125 29.703125 31.65625 36.492188 31.769531 36.894531 C 31.847656 37.171875 31.867188 37.183594 32.558594 37.148438 C 33.84375 37.105469 33.777344 37.171875 33.757812 35.945312 C 33.746094 35.367188 33.769531 34.863281 33.789062 34.839844 C 33.824219 34.808594 34.035156 35.21875 34.269531 35.753906 C 34.878906 37.171875 34.867188 37.171875 36.054688 37.050781 C 36.921875 36.972656 37.042969 36.9375 37.011719 36.757812 C 36.988281 36.648438 36.679688 36.011719 36.324219 35.367188 L 35.667969 34.171875 L 36.011719 33.816406 L 36.367188 33.449219 L 36.078125 33.148438 C 35.679688 32.710938 35.433594 32.1875 35.433594 31.753906 C 35.433594 31.363281 35.777344 30.515625 35.976562 30.394531 C 36.234375 30.238281 36.078125 30.082031 35.355469 29.746094 C 34.746094 29.480469 34.433594 29.410156 33.613281 29.378906 C 33.058594 29.355469 32.414062 29.378906 32.179688 29.421875 Z M 34.199219 31.285156 C 34.523438 31.695312 34.5 32.121094 34.125 32.476562 C 33.957031 32.644531 33.777344 32.777344 33.734375 32.777344 C 33.691406 32.777344 33.65625 32.378906 33.65625 31.886719 C 33.65625 30.894531 33.789062 30.75 34.199219 31.285156 Z M 34.199219 31.285156 "/>
<path style=" stroke:none;fill-rule:nonzero;fill:rgb(0%,0%,0%);fill-opacity:1;" d="M 37.621094 29.402344 C 37.433594 29.578125 37.554688 29.859375 37.855469 29.914062 C 38.53125 30.046875 39.210938 30.9375 39.210938 31.675781 C 39.210938 32.488281 38.53125 33.371094 37.777344 33.515625 C 37.457031 33.582031 37.433594 33.613281 37.433594 34.105469 C 37.433594 34.773438 37.710938 35.84375 37.976562 36.222656 C 38.488281 36.9375 40.109375 37.449219 40.875 37.125 C 41.488281 36.871094 42.054688 36.101562 42.277344 35.199219 C 42.507812 34.296875 42.542969 32.511719 42.363281 30.558594 L 42.265625 29.402344 L 41.488281 29.355469 C 40.199219 29.289062 40.242188 29.234375 40.355469 30.570312 C 40.453125 31.84375 40.367188 33.9375 40.199219 34.261719 C 40.132812 34.382812 39.988281 34.449219 39.84375 34.429688 C 39.511719 34.382812 39.453125 33.972656 39.453125 31.628906 C 39.445312 30.257812 39.410156 29.589844 39.3125 29.480469 C 39.175781 29.324219 37.765625 29.246094 37.621094 29.402344 Z M 37.621094 29.402344 "/>
<path style=" stroke:none;fill-rule:nonzero;fill:rgb(0%,0%,0%);fill-opacity:1;" d="M 49.773438 29.421875 C 49.652344 29.5 49.628906 29.96875 49.683594 32.066406 C 49.742188 34.730469 49.886719 35.65625 50.308594 36.234375 C 50.75 36.859375 52.25 37.394531 53.027344 37.195312 C 53.417969 37.09375 54.0625 36.503906 54.304688 36.023438 C 54.792969 35.074219 54.929688 33.167969 54.695312 30.550781 L 54.59375 29.390625 L 53.605469 29.378906 L 52.617188 29.378906 L 52.664062 30.382812 C 52.730469 31.863281 52.652344 34.015625 52.527344 34.261719 C 52.460938 34.382812 52.316406 34.449219 52.171875 34.429688 C 51.839844 34.382812 51.785156 33.949219 51.773438 31.574219 C 51.773438 30.269531 51.730469 29.589844 51.640625 29.480469 C 51.496094 29.300781 50.039062 29.253906 49.773438 29.421875 Z M 49.773438 29.421875 "/>
<path style=" stroke:none;fill-rule:nonzero;fill:rgb(0%,0%,0%);fill-opacity:1;" d="M 55.539062 29.402344 C 55.472656 30.4375 55.496094 36.824219 55.550781 36.925781 C 55.628906 37.039062 56.082031 37.058594 57.5625 37.039062 C 58.617188 37.015625 59.503906 36.972656 59.527344 36.949219 C 59.558594 36.914062 59.582031 36.523438 59.582031 36.054688 C 59.59375 35.121094 59.492188 34.976562 58.90625 35.074219 C 58.714844 35.109375 58.394531 35.109375 58.203125 35.0625 C 57.917969 34.996094 57.859375 34.941406 57.894531 34.707031 C 57.925781 34.460938 57.984375 34.429688 58.550781 34.40625 C 58.882812 34.394531 59.226562 34.339844 59.292969 34.296875 C 59.472656 34.183594 59.472656 32.769531 59.292969 32.523438 C 59.203125 32.410156 58.949219 32.332031 58.648438 32.308594 L 58.148438 32.277344 L 58.117188 31.796875 C 58.082031 31.273438 58.050781 31.296875 59.003906 31.328125 C 59.625 31.351562 59.683594 31.238281 59.625 30.101562 L 59.59375 29.378906 L 57.570312 29.34375 C 56.449219 29.332031 55.539062 29.355469 55.539062 29.402344 Z M 55.539062 29.402344 "/>
<path style=" stroke:none;fill-rule:nonzero;fill:rgb(0%,0%,0%);fill-opacity:1;" d="M 60.960938 29.402344 C 60.25 29.480469 60.269531 29.324219 60.382812 33.816406 C 60.425781 35.765625 60.503906 36.972656 60.582031 37.070312 C 60.683594 37.203125 60.871094 37.214844 61.59375 37.148438 L 62.480469 37.070312 L 62.460938 35.921875 C 62.449219 35.296875 62.480469 34.808594 62.527344 34.839844 C 62.582031 34.863281 62.835938 35.367188 63.105469 35.957031 C 63.371094 36.535156 63.660156 37.039062 63.746094 37.070312 C 63.835938 37.105469 64.324219 37.105469 64.835938 37.058594 C 65.558594 37.003906 65.757812 36.949219 65.757812 36.816406 C 65.757812 36.726562 65.457031 36.101562 65.09375 35.445312 C 64.726562 34.785156 64.425781 34.21875 64.425781 34.171875 C 64.425781 34.128906 64.59375 33.925781 64.804688 33.726562 C 65.269531 33.269531 65.480469 32.867188 65.582031 32.242188 C 65.746094 31.160156 65.046875 30.089844 63.890625 29.65625 C 63.257812 29.410156 61.824219 29.289062 60.960938 29.402344 Z M 62.925781 31.273438 C 63.28125 31.621094 63.28125 32.007812 62.914062 32.433594 C 62.46875 32.96875 62.371094 32.878906 62.347656 31.976562 C 62.324219 30.882812 62.425781 30.761719 62.925781 31.273438 Z M 62.925781 31.273438 "/>
<path style=" stroke:none;fill-rule:nonzero;fill:rgb(0%,0%,0%);fill-opacity:1;" d="M 15.105469 29.535156 C 14.828125 29.613281 14.828125 29.625 14.796875 30.9375 C 14.761719 32.722656 14.917969 36.871094 15.039062 36.980469 C 15.183594 37.136719 16.738281 37.09375 16.90625 36.925781 C 16.984375 36.847656 17.074219 36.414062 17.105469 35.921875 L 17.160156 35.0625 L 17.738281 34.984375 C 18.59375 34.863281 19.292969 34.484375 19.683594 33.960938 C 20.003906 33.527344 20.015625 33.46875 19.972656 32.542969 C 19.894531 30.9375 19.273438 29.957031 18.082031 29.601562 C 17.496094 29.433594 15.640625 29.390625 15.105469 29.535156 Z M 17.496094 31.351562 C 17.828125 31.496094 17.9375 31.84375 17.851562 32.410156 C 17.761719 32.902344 17.695312 32.980469 17.238281 33.070312 L 16.882812 33.136719 L 16.882812 32.175781 C 16.882812 31.140625 16.917969 31.085938 17.496094 31.351562 Z M 17.496094 31.351562 "/>
<path style=" stroke:none;fill-rule:nonzero;fill:rgb(0%,0%,0%);fill-opacity:1;" d="M 23.660156 38.867188 C 23.136719 39.246094 23.003906 39.636719 23.261719 40.136719 C 23.414062 40.460938 23.414062 40.503906 23.214844 40.839844 C 22.925781 41.308594 22.925781 41.921875 23.226562 42.289062 C 23.726562 42.9375 25.105469 42.945312 25.746094 42.300781 C 26.058594 41.988281 26.101562 41.867188 26.101562 41.375 C 26.101562 40.839844 26.125 40.804688 26.382812 40.804688 C 26.613281 40.804688 26.660156 40.75 26.660156 40.472656 C 26.660156 40.191406 26.613281 40.136719 26.382812 40.136719 C 26.136719 40.136719 26.101562 40.09375 26.101562 39.746094 C 26.101562 39.257812 25.96875 39.257812 25.582031 39.746094 C 25.304688 40.09375 25.214844 40.136719 24.75 40.136719 C 24.359375 40.136719 24.191406 40.082031 24.113281 39.9375 C 23.949219 39.625 24.136719 39.433594 24.582031 39.492188 C 24.902344 39.523438 25.003906 39.492188 25.082031 39.289062 C 25.25 38.933594 25.070312 38.777344 24.480469 38.722656 C 24.082031 38.6875 23.859375 38.722656 23.660156 38.867188 Z M 25.214844 41.183594 C 25.214844 41.675781 24.949219 41.945312 24.515625 41.898438 C 24.113281 41.855469 23.9375 41.609375 24.039062 41.21875 C 24.105469 40.917969 24.269531 40.839844 24.859375 40.816406 C 25.191406 40.804688 25.214844 40.828125 25.214844 41.183594 Z M 25.214844 41.183594 "/>
<path style=" stroke:none;fill-rule:nonzero;fill:rgb(0%,0%,0%);fill-opacity:1;" d="M 12.507812 38.910156 C 11.796875 39.132812 11.441406 39.726562 11.441406 40.71875 C 11.441406 41.429688 11.695312 42.175781 12.007812 42.445312 C 12.25 42.644531 13.074219 42.800781 13.417969 42.710938 C 13.683594 42.632812 13.71875 42.566406 13.707031 42.210938 C 13.683594 41.699219 13.550781 41.554688 13.085938 41.542969 C 12.742188 41.53125 12.71875 41.507812 12.617188 40.984375 C 12.464844 40.226562 12.675781 39.871094 13.273438 39.824219 C 13.75 39.78125 13.886719 39.667969 13.886719 39.269531 C 13.886719 38.867188 13.242188 38.699219 12.507812 38.910156 Z M 12.507812 38.910156 "/>
<path style=" stroke:none;fill-rule:nonzero;fill:rgb(0%,0%,0%);fill-opacity:1;" d="M 28.859375 38.886719 L 28.558594 38.921875 L 28.523438 40.5625 C 28.480469 42.824219 28.4375 42.703125 29.214844 42.703125 C 30.957031 42.703125 31.878906 41.175781 31 39.78125 C 30.824219 39.492188 30.558594 39.199219 30.414062 39.121094 C 30.125 38.957031 29.300781 38.832031 28.859375 38.886719 Z M 30.023438 40.113281 C 30.3125 40.359375 30.269531 41.0625 29.957031 41.429688 C 29.582031 41.867188 29.4375 41.699219 29.4375 40.863281 C 29.4375 39.78125 29.511719 39.679688 30.023438 40.113281 Z M 30.023438 40.113281 "/>
<path style=" stroke:none;fill-rule:nonzero;fill:rgb(0%,0%,0%);fill-opacity:1;" d="M 32.558594 38.921875 C 31.96875 39.15625 31.625 39.925781 31.644531 40.941406 C 31.667969 41.84375 31.769531 42.132812 32.179688 42.535156 C 32.433594 42.78125 32.566406 42.824219 32.921875 42.769531 C 33.402344 42.710938 33.800781 42.457031 34.144531 42 C 34.625 41.351562 34.355469 39.511719 33.722656 39.101562 C 33.378906 38.878906 32.867188 38.800781 32.558594 38.921875 Z M 33.367188 40.851562 C 33.378906 41.363281 33.125 41.796875 32.902344 41.652344 C 32.722656 41.542969 32.636719 40.5625 32.769531 40.203125 L 32.890625 39.871094 L 33.125 40.113281 C 33.289062 40.269531 33.355469 40.492188 33.367188 40.851562 Z M 33.367188 40.851562 "/>
<path style=" stroke:none;fill-rule:nonzero;fill:rgb(0%,0%,0%);fill-opacity:1;" d="M 35.332031 38.976562 C 34.933594 39.269531 34.746094 39.859375 34.757812 40.828125 C 34.765625 42.132812 35.078125 42.589844 35.933594 42.589844 C 36.800781 42.589844 37.210938 42.097656 37.210938 41.0625 C 37.210938 40.660156 37.167969 40.5625 36.945312 40.460938 C 36.789062 40.382812 36.5 40.359375 36.277344 40.40625 C 35.910156 40.472656 35.878906 40.515625 35.878906 40.863281 C 35.878906 41.140625 35.921875 41.253906 36.054688 41.253906 C 36.15625 41.253906 36.210938 41.332031 36.1875 41.441406 C 36.144531 41.664062 35.988281 41.730469 35.765625 41.585938 C 35.578125 41.476562 35.578125 40.640625 35.777344 40.058594 C 35.910156 39.636719 36.042969 39.589844 36.210938 39.925781 C 36.3125 40.105469 36.398438 40.136719 36.632812 40.082031 C 36.976562 39.992188 37.210938 39.824219 37.210938 39.667969 C 37.210938 39.601562 37.042969 39.390625 36.832031 39.179688 C 36.535156 38.878906 36.367188 38.800781 36.023438 38.800781 C 35.789062 38.800781 35.476562 38.878906 35.332031 38.976562 Z M 35.332031 38.976562 "/>
<path style=" stroke:none;fill-rule:nonzero;fill:rgb(0%,0%,0%);fill-opacity:1;" d="M 57.316406 38.921875 C 57.160156 38.976562 56.917969 39.210938 56.761719 39.433594 C 56.503906 39.804688 56.484375 39.949219 56.484375 40.949219 L 56.484375 42.054688 L 56.90625 42.445312 C 57.28125 42.789062 57.382812 42.824219 57.738281 42.757812 C 58.214844 42.679688 58.59375 42.421875 58.914062 41.988281 C 59.394531 41.351562 59.125 39.511719 58.492188 39.101562 C 58.160156 38.878906 57.636719 38.800781 57.316406 38.921875 Z M 58.117188 40.875 C 58.105469 41.453125 57.859375 41.84375 57.636719 41.621094 C 57.503906 41.484375 57.472656 40.226562 57.59375 40.027344 C 57.648438 39.925781 57.738281 39.957031 57.90625 40.113281 C 58.0625 40.28125 58.117188 40.484375 58.117188 40.875 Z M 58.117188 40.875 "/>
<path style=" stroke:none;fill-rule:nonzero;fill:rgb(0%,0%,0%);fill-opacity:1;" d="M 14.738281 38.988281 C 14.71875 39.042969 14.617188 39.402344 14.519531 39.804688 C 13.863281 42.46875 13.863281 42.578125 14.328125 42.601562 C 14.519531 42.613281 14.730469 42.625 14.808594 42.632812 C 14.875 42.644531 14.949219 42.535156 14.972656 42.390625 C 15.027344 42.054688 15.652344 42.03125 15.738281 42.367188 C 15.804688 42.625 16.207031 42.757812 16.582031 42.65625 C 16.839844 42.601562 16.839844 42.566406 16.75 41.921875 C 16.652344 41.175781 16.273438 39.558594 16.105469 39.15625 C 16.015625 38.945312 15.917969 38.910156 15.394531 38.910156 C 15.0625 38.910156 14.761719 38.945312 14.738281 38.988281 Z M 15.574219 40.863281 C 15.59375 41.105469 15.5625 41.207031 15.40625 41.230469 C 15.21875 41.261719 15.207031 41.21875 15.261719 40.839844 C 15.296875 40.605469 15.316406 40.394531 15.328125 40.359375 C 15.339844 40.183594 15.539062 40.582031 15.574219 40.863281 Z M 15.574219 40.863281 "/>
<path style=" stroke:none;fill-rule:nonzero;fill:rgb(0%,0%,0%);fill-opacity:1;" d="M 16.773438 39.34375 C 16.773438 39.714844 16.816406 39.792969 17.027344 39.824219 C 17.261719 39.859375 17.273438 39.902344 17.304688 41.128906 C 17.316406 41.84375 17.394531 42.480469 17.460938 42.554688 C 17.59375 42.722656 18.171875 42.757812 18.273438 42.601562 C 18.304688 42.546875 18.339844 41.886719 18.339844 41.152344 C 18.351562 39.96875 18.371094 39.804688 18.539062 39.804688 C 18.828125 39.804688 18.960938 39.601562 18.90625 39.246094 L 18.859375 38.910156 L 16.773438 38.910156 Z M 16.773438 39.34375 "/>
<path style=" stroke:none;fill-rule:nonzero;fill:rgb(0%,0%,0%);fill-opacity:1;" d="M 19.359375 39.179688 C 18.894531 39.578125 18.9375 40.148438 19.484375 40.894531 C 19.738281 41.253906 19.882812 41.554688 19.839844 41.652344 C 19.773438 41.820312 19.738281 41.820312 19.496094 41.652344 C 19.148438 41.429688 19.039062 41.484375 18.9375 41.933594 C 18.851562 42.34375 19.003906 42.554688 19.503906 42.65625 C 20.347656 42.8125 20.992188 42.34375 20.992188 41.585938 C 20.992188 41.195312 20.917969 41.050781 20.484375 40.582031 C 20.0625 40.136719 20.003906 40.015625 20.148438 39.957031 C 20.25 39.925781 20.40625 39.949219 20.492188 40.027344 C 20.703125 40.203125 20.847656 40.09375 20.9375 39.667969 C 21.003906 39.378906 20.972656 39.277344 20.773438 39.113281 C 20.417969 38.820312 19.738281 38.855469 19.359375 39.179688 Z M 19.359375 39.179688 "/>
<path style=" stroke:none;fill-rule:nonzero;fill:rgb(0%,0%,0%);fill-opacity:1;" d="M 37.867188 39.234375 C 37.367188 39.734375 37.433594 40.171875 38.121094 41.0625 C 38.53125 41.574219 38.488281 41.945312 38.042969 41.652344 C 37.6875 41.417969 37.6875 41.417969 37.476562 41.832031 C 37.300781 42.175781 37.300781 42.1875 37.609375 42.457031 C 37.867188 42.691406 38 42.710938 38.476562 42.667969 C 39.1875 42.601562 39.542969 42.234375 39.542969 41.574219 C 39.542969 41.195312 39.464844 41.039062 39.03125 40.582031 C 38.542969 40.058594 38.523438 39.769531 38.988281 40.027344 C 39.289062 40.183594 39.398438 40.105469 39.488281 39.667969 C 39.597656 39.199219 39.265625 38.910156 38.632812 38.910156 C 38.300781 38.910156 38.121094 38.988281 37.867188 39.234375 Z M 37.867188 39.234375 "/>
<path style=" stroke:none;fill-rule:nonzero;fill:rgb(0%,0%,0%);fill-opacity:1;" d="M 41.789062 39 C 41.542969 39.035156 41.542969 39.042969 41.566406 40.839844 L 41.597656 42.644531 L 42.042969 42.644531 C 42.476562 42.644531 42.488281 42.632812 42.585938 42.175781 C 42.675781 41.765625 42.71875 41.710938 43.066406 41.640625 C 43.644531 41.542969 43.988281 41.140625 43.988281 40.582031 C 43.988281 40.058594 43.777344 39.480469 43.488281 39.246094 C 43.289062 39.078125 42.265625 38.933594 41.789062 39 Z M 42.808594 39.871094 C 43.066406 39.96875 43.042969 40.550781 42.777344 40.683594 C 42.5 40.839844 42.433594 40.738281 42.433594 40.226562 C 42.433594 39.804688 42.488281 39.746094 42.808594 39.871094 Z M 42.808594 39.871094 "/>
<path style=" stroke:none;fill-rule:nonzero;fill:rgb(0%,0%,0%);fill-opacity:1;" d="M 44.398438 40.269531 C 44.34375 41.542969 44.363281 42.566406 44.476562 42.667969 C 44.574219 42.769531 46.308594 42.546875 46.351562 42.421875 C 46.386719 42.355469 46.386719 42.167969 46.351562 42 C 46.296875 41.742188 46.242188 41.699219 45.917969 41.699219 C 45.652344 41.699219 45.542969 41.640625 45.542969 41.53125 C 45.542969 41.417969 45.652344 41.363281 45.863281 41.363281 C 46.273438 41.363281 46.363281 41.230469 46.273438 40.738281 C 46.207031 40.4375 46.152344 40.359375 45.929688 40.359375 C 45.621094 40.359375 45.507812 40.226562 45.609375 39.96875 C 45.664062 39.835938 45.765625 39.804688 45.953125 39.859375 C 46.152344 39.902344 46.230469 39.871094 46.308594 39.679688 C 46.351562 39.546875 46.375 39.3125 46.34375 39.167969 C 46.296875 38.921875 46.253906 38.910156 45.375 38.910156 L 44.464844 38.910156 Z M 44.398438 40.269531 "/>
<path style=" stroke:none;fill-rule:nonzero;fill:rgb(0%,0%,0%);fill-opacity:1;" d="M 46.765625 39.34375 C 46.765625 39.714844 46.808594 39.792969 47.019531 39.824219 C 47.253906 39.859375 47.265625 39.902344 47.296875 41.128906 C 47.308594 41.84375 47.386719 42.480469 47.453125 42.554688 C 47.609375 42.757812 48.152344 42.734375 48.320312 42.535156 C 48.417969 42.410156 48.441406 42.019531 48.40625 41.085938 C 48.351562 39.902344 48.363281 39.804688 48.550781 39.804688 C 48.808594 39.804688 48.964844 39.523438 48.898438 39.179688 C 48.851562 38.921875 48.820312 38.910156 47.808594 38.910156 L 46.765625 38.910156 Z M 46.765625 39.34375 "/>
<path style=" stroke:none;fill-rule:nonzero;fill:rgb(0%,0%,0%);fill-opacity:1;" d="M 51.5625 39.15625 C 51.171875 39.578125 51.152344 39.957031 51.460938 40.503906 C 51.617188 40.773438 51.828125 41.050781 51.917969 41.140625 C 52.140625 41.320312 52.152344 41.699219 51.929688 41.699219 C 51.839844 41.699219 51.652344 41.632812 51.527344 41.554688 C 51.328125 41.441406 51.273438 41.453125 51.085938 41.6875 C 50.816406 42.011719 50.816406 42.089844 51.117188 42.355469 C 51.394531 42.625 51.972656 42.757812 52.375 42.65625 C 52.738281 42.566406 53.09375 41.976562 53.09375 41.453125 C 53.09375 41.128906 53.007812 40.929688 52.707031 40.59375 C 52.496094 40.359375 52.316406 40.082031 52.316406 39.96875 C 52.316406 39.78125 52.417969 39.769531 52.972656 39.925781 C 53.074219 39.957031 53.171875 39.835938 53.238281 39.589844 C 53.394531 39.101562 53.152344 38.910156 52.375 38.910156 C 51.917969 38.910156 51.75 38.964844 51.5625 39.15625 Z M 51.5625 39.15625 "/>
<path style=" stroke:none;fill-rule:nonzero;fill:rgb(0%,0%,0%);fill-opacity:1;" d="M 53.730469 38.988281 C 53.683594 39.023438 53.652344 39.878906 53.652344 40.882812 L 53.652344 42.710938 L 54.128906 42.679688 L 54.59375 42.644531 L 54.628906 41.886719 C 54.660156 41.230469 54.683594 41.140625 54.871094 41.140625 C 55.074219 41.140625 55.09375 41.21875 55.09375 41.933594 L 55.09375 42.710938 L 55.503906 42.679688 C 56.039062 42.632812 56.074219 42.523438 56.082031 40.492188 L 56.09375 38.910156 L 55.59375 38.910156 C 55.105469 38.910156 55.09375 38.921875 55.09375 39.269531 C 55.09375 39.804688 54.984375 40.136719 54.804688 40.136719 C 54.695312 40.136719 54.652344 39.96875 54.652344 39.523438 L 54.652344 38.910156 L 54.226562 38.910156 C 53.996094 38.910156 53.761719 38.945312 53.730469 38.988281 Z M 53.730469 38.988281 "/>
<path style=" stroke:none;fill-rule:nonzero;fill:rgb(0%,0%,0%);fill-opacity:1;" d="M 59.492188 40.046875 C 59.460938 40.683594 59.472656 41.519531 59.515625 41.921875 L 59.59375 42.644531 L 60.003906 42.679688 C 60.492188 42.722656 60.683594 42.46875 60.625 41.832031 C 60.59375 41.441406 60.617188 41.417969 60.980469 41.363281 C 61.9375 41.195312 62.359375 40.414062 61.925781 39.589844 C 61.703125 39.144531 61.136719 38.910156 60.28125 38.910156 L 59.558594 38.910156 Z M 60.949219 39.980469 C 61.027344 40.183594 60.871094 40.492188 60.671875 40.5625 C 60.582031 40.582031 60.539062 40.460938 60.539062 40.203125 C 60.539062 39.78125 60.816406 39.636719 60.949219 39.980469 Z M 60.949219 39.980469 "/>
</g>
</svg>
