<?xml version="1.0" encoding="UTF-8"?>
<svg xmlns="http://www.w3.org/2000/svg" xmlns:xlink="http://www.w3.org/1999/xlink" width="289pt" height="200pt" viewBox="0 0 289 200" version="1.1">
<g id="surface1">
<path style=" stroke:none;fill-rule:nonzero;fill:rgb(0%,0%,0%);fill-opacity:1;" d="M 124.835938 11.621094 C 121.847656 12.222656 118.855469 14.152344 115.738281 17.539062 C 114.113281 19.296875 112.789062 20.925781 112.789062 21.097656 C 112.789062 21.742188 117.871094 24.785156 119.457031 25.085938 L 120.992188 25.34375 L 119.921875 26.5 C 119.371094 27.144531 118.640625 28.089844 118.386719 28.601562 C 117.957031 29.417969 117.53125 29.589844 115.78125 29.589844 C 110.054688 29.589844 102.066406 31.644531 96.855469 34.390625 C 93.394531 36.234375 90.316406 39.152344 88.992188 41.722656 C 88.054688 43.609375 87.925781 44.296875 88.140625 46.699219 C 88.394531 50.085938 88.226562 50.472656 82.886719 58.746094 C 76.730469 68.269531 75.40625 71.613281 75.703125 76.929688 C 76.046875 83.574219 80.917969 88.894531 87.625 89.835938 C 91.34375 90.394531 97.707031 87.992188 101.683594 84.5625 C 103.132812 83.363281 103.5625 83.191406 103.859375 83.660156 C 104.074219 84.003906 104.246094 84.390625 104.246094 84.605469 C 104.246094 84.777344 104.714844 85.894531 105.316406 87.136719 C 105.910156 88.335938 106.378906 89.410156 106.378906 89.449219 C 106.378906 89.496094 104.886719 89.621094 103.089844 89.707031 C 96.511719 90.136719 88.480469 95.027344 85.234375 100.558594 C 82.972656 104.375 83.054688 108.019531 85.402344 111.019531 L 86.769531 112.738281 L 83.222656 112.863281 L 79.679688 112.992188 L 79.550781 127.488281 L 79.421875 141.9375 L 80.488281 142.367188 C 81.089844 142.582031 84.335938 142.667969 88.179688 142.496094 C 95.65625 142.195312 95.273438 142.453125 95.273438 138.292969 C 95.273438 135.207031 94.972656 134.90625 91.726562 134.90625 C 90.1875 134.863281 88.820312 134.777344 88.738281 134.648438 C 88.609375 134.519531 88.609375 133.964844 88.738281 133.363281 C 88.90625 132.375 89.121094 132.289062 90.703125 132.417969 C 93.4375 132.589844 94.632812 131.777344 94.671875 129.714844 C 94.71875 128.773438 94.632812 127.230469 94.460938 126.285156 L 94.207031 124.570312 L 89.503906 124.144531 L 89.375 122.300781 C 89.246094 120.796875 89.375 120.496094 90.019531 120.457031 C 90.445312 120.457031 91.769531 120.410156 92.925781 120.371094 C 95.015625 120.285156 95.058594 120.238281 95.1875 118.910156 C 95.316406 117.582031 95.359375 117.539062 96.46875 118.050781 C 97.109375 118.308594 97.707031 118.609375 97.792969 118.652344 C 97.921875 118.738281 98.09375 124.097656 98.21875 130.574219 C 98.390625 137.691406 98.648438 142.496094 98.902344 142.753906 C 99.203125 143.050781 100.613281 143.097656 102.75 142.882812 L 106.167969 142.582031 L 106.210938 138.507812 C 106.253906 136.277344 106.335938 134.21875 106.335938 134.003906 C 106.421875 133.488281 107.964844 136.492188 109.328125 139.878906 C 109.84375 141.207031 110.613281 142.410156 110.996094 142.582031 C 111.339844 142.710938 113.257812 142.710938 115.222656 142.539062 C 118.128906 142.28125 118.773438 142.109375 118.773438 141.550781 C 118.773438 141.121094 117.617188 138.722656 116.25 136.148438 L 113.6875 131.519531 L 115.566406 129.375 C 118.640625 125.816406 119.15625 121.355469 116.847656 117.882812 C 116.25 116.9375 115.183594 115.824219 114.496094 115.394531 L 113.257812 114.667969 L 116.039062 112.820312 C 118.941406 110.894531 119.625 109.863281 119.625 107.375 C 119.625 106.519531 119.753906 105.917969 119.96875 106.003906 C 123.894531 108.019531 127.65625 109.519531 130.050781 110.035156 C 134.105469 110.894531 141.800781 110.976562 142.3125 110.164062 C 142.523438 109.820312 142.652344 108.277344 142.609375 106.644531 L 142.480469 103.773438 L 143.851562 103.773438 C 145.386719 103.773438 145.429688 103.902344 145.257812 107.933594 C 145.214844 109.605469 145.300781 109.777344 146.242188 109.777344 C 146.796875 109.777344 147.398438 109.648438 147.566406 109.433594 C 147.738281 109.261719 148.035156 109.132812 148.164062 109.089844 C 149.277344 108.964844 150.816406 108.320312 150.816406 108.019531 C 150.816406 107.804688 150.9375 107.675781 151.15625 107.71875 C 151.925781 107.847656 154.65625 106.304688 154.402344 105.832031 C 154.230469 105.574219 154.273438 105.488281 154.53125 105.617188 C 155 105.917969 159.441406 102.144531 159.1875 101.671875 C 159.101562 101.542969 159.316406 101.160156 159.65625 100.816406 C 160.253906 100.257812 160.296875 100.386719 160.039062 101.800781 C 159.871094 102.699219 159.871094 104.675781 160.039062 106.175781 L 160.296875 108.917969 L 163.5 111.0625 C 165.253906 112.261719 167.007812 113.207031 167.433594 113.207031 C 167.816406 113.207031 168.585938 113.507812 169.097656 113.894531 L 170.082031 114.582031 L 168.800781 115.996094 C 167.390625 117.625 166.792969 119.894531 166.234375 126.074219 C 165.550781 133.402344 166.707031 137.777344 170.167969 140.953125 C 172.257812 142.882812 174.097656 143.480469 176.960938 143.097656 C 178.539062 142.882812 178.84375 143.011719 180.078125 144.339844 C 180.847656 145.152344 181.871094 145.796875 182.34375 145.796875 C 182.8125 145.796875 184.09375 144.980469 185.25 143.953125 L 187.257812 142.109375 L 186.144531 140.4375 C 185.078125 138.894531 185.078125 138.722656 185.675781 137.992188 C 186.660156 136.921875 187.980469 131.988281 188.28125 128.089844 C 188.578125 124.058594 187.640625 120.066406 185.71875 117.410156 C 184.992188 116.378906 184.652344 115.523438 184.90625 115.4375 C 185.164062 115.351562 186.101562 114.75 187.042969 114.105469 C 187.9375 113.421875 189.136719 112.738281 189.734375 112.566406 C 191.445312 112.050781 193.535156 110.207031 194.90625 108.105469 C 196.011719 106.390625 196.140625 105.832031 195.972656 103.945312 C 195.375 97.769531 189.265625 91.636719 180.890625 88.765625 C 178.285156 87.863281 174.183594 87.652344 172.429688 88.335938 C 171.40625 88.722656 171.449219 88.550781 173.074219 86.492188 C 175.464844 83.535156 177.128906 79.847656 177.984375 75.855469 L 178.710938 72.554688 L 181.746094 74.527344 C 185.890625 77.230469 190.757812 78.902344 194.648438 78.902344 C 198.960938 78.902344 201.398438 77.957031 204.261719 75.085938 C 208.960938 70.324219 209.773438 64.535156 206.609375 58.105469 C 205.199219 55.273438 203.960938 53.730469 198.496094 48.070312 C 190.800781 40.136719 190.121094 39.277344 190.121094 37.605469 C 190.121094 28.945312 177.816406 23.242188 162.691406 24.871094 L 157.605469 25.429688 L 156.328125 23.886719 C 153.164062 20.066406 148.164062 18.910156 144.234375 21.140625 L 142.355469 22.214844 L 140.773438 19.894531 C 136.457031 13.636719 130.433594 10.464844 124.835938 11.621094 Z M 141.628906 31.347656 C 141.457031 31.558594 141.457031 32.289062 141.628906 32.890625 L 141.886719 34.003906 L 143.207031 32.417969 C 144.449219 30.917969 144.578125 30.832031 146.496094 31.132812 C 147.566406 31.304688 149.660156 31.777344 151.109375 32.246094 L 153.757812 33.0625 L 152.949219 34.433594 C 151.539062 36.878906 151.625 37.007812 155.941406 39.921875 C 160.726562 43.136719 166.40625 48.5 168.96875 52.101562 C 173.371094 58.363281 175.164062 70.199219 172.730469 77.230469 C 165.550781 98.328125 129.453125 106.347656 113.515625 90.4375 C 109.15625 86.019531 106.851562 79.417969 107.363281 72.640625 C 107.492188 70.96875 107.878906 68.996094 108.21875 68.355469 C 108.558594 67.667969 109.328125 65.308594 109.929688 63.164062 C 112.019531 55.789062 116.292969 48.839844 122.53125 42.710938 C 125.519531 39.792969 125.5625 39.707031 124.96875 38.550781 C 124.625 37.90625 123.8125 37.007812 123.171875 36.535156 L 122.015625 35.722656 L 123.726562 34.605469 C 124.625 33.964844 126.246094 33.191406 127.273438 32.804688 C 129.410156 32.074219 131.203125 32.417969 133.425781 33.964844 C 134.578125 34.777344 134.578125 34.777344 134.578125 33.878906 C 134.578125 33.363281 134.363281 32.589844 134.152344 32.117188 C 133.726562 31.390625 133.851562 31.304688 135.09375 31.304688 C 136.332031 31.304688 136.671875 31.558594 137.570312 33.234375 C 138.507812 34.992188 138.679688 35.121094 139.152344 34.433594 C 139.449219 34.046875 139.703125 33.191406 139.703125 32.589844 C 139.703125 31.949219 139.832031 31.304688 140.003906 31.175781 C 140.472656 30.703125 141.925781 30.832031 141.628906 31.347656 Z M 180.890625 92.882812 C 184.222656 94.253906 187.171875 96.183594 189.050781 98.285156 C 190.800781 100.171875 192.214844 103.042969 192.253906 104.503906 C 192.253906 105.53125 189.519531 108.917969 188.664062 108.917969 C 188.367188 108.917969 187.640625 107.890625 187 106.644531 L 185.847656 104.417969 L 185.933594 107.074219 C 186.015625 110.207031 185.632812 110.808594 182.640625 112.179688 C 178.925781 113.9375 174.394531 113.292969 171.234375 110.550781 C 170.167969 109.605469 170.125 109.433594 170.464844 107.246094 C 170.679688 105.960938 170.808594 104.847656 170.722656 104.761719 C 170.679688 104.714844 170.167969 105.703125 169.65625 106.988281 C 169.097656 108.277344 168.457031 109.347656 168.199219 109.347656 C 167.902344 109.347656 166.75 108.621094 165.59375 107.804688 L 163.5 106.261719 L 163.757812 103.515625 C 164.058594 100.644531 165.039062 98.242188 166.664062 96.484375 C 169.65625 93.308594 174.136719 91.167969 176.875 91.636719 C 177.6875 91.765625 179.523438 92.324219 180.890625 92.882812 Z M 107.878906 94.554688 C 112.617188 96.824219 115.78125 101.371094 115.78125 106.003906 C 115.78125 108.402344 115.78125 108.402344 113.773438 109.734375 C 112.703125 110.464844 111.550781 111.0625 111.253906 111.0625 C 110.953125 111.0625 110.398438 110.164062 109.96875 109.003906 C 108.902344 106.046875 108.601562 105.960938 109.027344 108.746094 C 109.457031 111.621094 109.074219 112.261719 105.867188 113.894531 C 103.132812 115.265625 99.671875 115.265625 96.769531 113.894531 C 93.777344 112.519531 93.476562 112.007812 93.648438 108.917969 C 93.777344 106.644531 93.695312 106.433594 93.179688 107.074219 C 92.878906 107.503906 92.367188 108.488281 92.023438 109.21875 C 91.257812 111.019531 90.65625 110.976562 88.863281 109.132812 C 87.15625 107.375 86.984375 105.746094 88.226562 103.214844 C 89.804688 99.828125 93.734375 96.699219 99.035156 94.511719 C 102.28125 93.183594 104.972656 93.183594 107.878906 94.554688 Z M 107.878906 120.285156 C 108.476562 120.839844 108.941406 121.785156 108.941406 122.386719 C 108.941406 123.414062 107.0625 126.074219 106.335938 126.074219 C 106.125 126.074219 105.953125 124.527344 105.953125 122.640625 C 105.953125 118.910156 106.210938 118.566406 107.878906 120.285156 Z M 178.371094 121.785156 C 179.179688 123.371094 179.992188 129.246094 179.609375 131.003906 C 179.480469 131.691406 178.882812 133.105469 178.285156 134.132812 C 177.429688 135.675781 177.089844 135.933594 176.320312 135.675781 C 174.394531 135.121094 174.222656 134.347656 174.441406 128.816406 C 174.695312 122.984375 175.421875 120.496094 176.832031 120.496094 C 177.386719 120.496094 177.984375 121.011719 178.371094 121.785156 Z M 178.371094 121.785156 "/>
<path style=" stroke:none;fill-rule:nonzero;fill:rgb(0%,0%,0%);fill-opacity:1;" d="M 155.640625 45.882812 C 154.144531 46.785156 152.523438 49.011719 151.453125 51.671875 L 150.730469 53.386719 L 152.222656 51.800781 C 153.929688 49.957031 155.300781 49.316406 157.734375 49.316406 C 159.914062 49.316406 162.007812 50.558594 163.289062 52.660156 C 164.488281 54.628906 164.785156 53.816406 164.058594 50.300781 C 163.332031 46.910156 161.496094 45.027344 158.890625 45.027344 C 157.777344 45.027344 156.453125 45.371094 155.640625 45.882812 Z M 155.640625 45.882812 "/>
<path style=" stroke:none;fill-rule:nonzero;fill:rgb(0%,0%,0%);fill-opacity:1;" d="M 120.992188 49.871094 C 118.726562 51.160156 117.785156 54.800781 118.898438 58.320312 L 119.5 60.25 L 120.050781 58.191406 C 120.351562 57.035156 121.121094 55.574219 121.847656 54.886719 C 124.113281 52.613281 128.171875 52.230469 130.519531 54.117188 C 131.117188 54.589844 131.585938 54.761719 131.585938 54.542969 C 131.585938 53.902344 127.445312 50.214844 126.246094 49.742188 C 124.710938 49.144531 122.1875 49.230469 120.992188 49.871094 Z M 120.992188 49.871094 "/>
<path style=" stroke:none;fill-rule:nonzero;fill:rgb(0%,0%,0%);fill-opacity:1;" d="M 137.570312 64.707031 C 132.101562 65.480469 129.453125 67.195312 129.453125 69.894531 C 129.453125 71.957031 130.5625 72.984375 134.277344 74.316406 C 136.375 75.085938 137.65625 75.902344 138.808594 77.144531 L 140.433594 78.945312 L 138.507812 80.617188 C 133.683594 84.90625 128.085938 85.933594 123.511719 83.402344 C 121.460938 82.246094 120.394531 81.21875 117.0625 77.1875 L 116.210938 76.113281 L 117.015625 78.386719 C 119.457031 85.121094 124.496094 89.410156 128.980469 88.550781 C 132.054688 87.949219 138.808594 83.832031 140.816406 81.304688 L 141.972656 79.847656 L 144.578125 81.261719 C 147.4375 82.847656 153.207031 84.476562 155.8125 84.476562 C 161.023438 84.433594 164.871094 79.375 165.59375 71.613281 L 165.851562 68.824219 L 164.316406 72.214844 C 162.390625 76.5 160.980469 78.257812 158.160156 79.847656 C 156.328125 80.917969 155.425781 81.132812 153.035156 81.132812 C 150.214844 81.175781 146.882812 80.359375 144.320312 79.074219 L 143.167969 78.472656 L 145.855469 75.902344 C 147.351562 74.441406 149.703125 72.769531 151.195312 72.042969 C 154.230469 70.539062 155.128906 69.125 154.144531 67.367188 C 152.992188 65.222656 151.242188 64.667969 145.34375 64.496094 C 142.355469 64.449219 138.851562 64.535156 137.570312 64.707031 Z M 137.570312 64.707031 "/>
<path style=" stroke:none;fill-rule:nonzero;fill:rgb(0%,0%,0%);fill-opacity:1;" d="M 27.898438 111.835938 C 27.511719 112.050781 27.339844 116.253906 27.257812 127.359375 L 27.128906 142.582031 L 33.539062 142.667969 C 37.085938 142.753906 40.203125 142.625 40.546875 142.410156 C 41.269531 141.9375 41.867188 137.90625 41.441406 136.363281 C 41.183594 135.417969 40.84375 135.25 38.320312 134.90625 L 35.460938 134.519531 L 35.714844 123.414062 C 35.929688 114.363281 35.84375 112.308594 35.375 112.179688 C 34.179688 111.792969 28.367188 111.535156 27.898438 111.835938 Z M 27.898438 111.835938 "/>
<path style=" stroke:none;fill-rule:nonzero;fill:rgb(0%,0%,0%);fill-opacity:1;" d="M 7.09375 115.652344 C 6.964844 117.453125 6.835938 124.144531 6.835938 130.574219 L 6.835938 142.238281 L 10.382812 142.496094 C 17.644531 143.097656 23.242188 142.625 24.011719 141.378906 C 24.179688 141.082031 24.351562 139.667969 24.351562 138.207031 C 24.351562 134.5625 23.925781 134.21875 19.398438 134.21875 C 15.890625 134.21875 15.804688 134.175781 15.804688 133.191406 C 15.804688 132.074219 16.492188 131.644531 18.328125 131.644531 C 20.464844 131.644531 21.359375 130.574219 21.359375 128.042969 C 21.359375 124.828125 20.765625 124.183594 17.773438 124.316406 L 15.382812 124.398438 L 15.382812 120.625 L 17.347656 120.324219 C 18.457031 120.199219 20.167969 120.066406 21.105469 120.066406 C 22.085938 120.066406 23.113281 119.855469 23.414062 119.554688 C 23.925781 119.039062 24.136719 114.238281 23.667969 113.035156 C 23.457031 112.433594 22.300781 112.347656 15.382812 112.347656 L 7.390625 112.347656 Z M 7.09375 115.652344 "/>
<path style=" stroke:none;fill-rule:nonzero;fill:rgb(0%,0%,0%);fill-opacity:1;" d="M 259.972656 113.164062 C 254.078125 115.867188 251.382812 126.757812 254.25 136.148438 C 255.015625 138.722656 256.296875 140.308594 259.503906 142.710938 C 262.664062 145.113281 270.523438 142.152344 273.429688 137.433594 C 274.582031 135.550781 275.652344 131.261719 275.609375 128.429688 C 275.609375 126.113281 274.582031 121.183594 273.644531 118.953125 C 272.828125 116.9375 270.054688 114.023438 268.089844 113.164062 C 265.867188 112.136719 262.191406 112.136719 259.972656 113.164062 Z M 264.839844 121.785156 C 266.082031 122.425781 267.019531 125.386719 267.019531 128.558594 C 267.019531 132.160156 266.039062 134.390625 264.371094 134.5625 C 263.433594 134.691406 263.175781 134.476562 262.707031 133.0625 C 261.933594 130.746094 261.933594 122.984375 262.707031 122.082031 C 263.390625 121.226562 263.773438 121.183594 264.839844 121.785156 Z M 264.839844 121.785156 "/>
<path style=" stroke:none;fill-rule:nonzero;fill:rgb(0%,0%,0%);fill-opacity:1;" d="M 123.769531 113.164062 C 122.914062 113.335938 122.015625 113.636719 121.847656 113.808594 C 121.460938 114.238281 121.761719 140.351562 122.1875 141.894531 C 122.488281 142.964844 122.574219 143.011719 125.222656 142.882812 C 130.175781 142.710938 129.921875 142.964844 129.835938 138.25 C 129.792969 136.019531 129.878906 134.089844 129.964844 134.003906 C 130.09375 133.878906 130.90625 135.464844 131.800781 137.519531 C 134.152344 142.964844 134.105469 142.964844 138.679688 142.496094 C 142.011719 142.195312 142.480469 142.066406 142.355469 141.378906 C 142.269531 140.953125 141.070312 138.507812 139.703125 136.019531 L 137.183594 131.433594 L 138.507812 130.058594 L 139.875 128.644531 L 138.765625 127.488281 C 137.226562 125.816406 136.289062 123.800781 136.289062 122.128906 C 136.289062 120.625 137.609375 117.367188 138.382812 116.894531 C 139.363281 116.292969 138.765625 115.695312 135.988281 114.410156 C 133.640625 113.378906 132.441406 113.121094 129.28125 112.992188 C 127.144531 112.90625 124.667969 112.992188 123.769531 113.164062 Z M 131.542969 120.324219 C 132.785156 121.910156 132.699219 123.542969 131.246094 124.914062 C 130.605469 125.558594 129.921875 126.074219 129.75 126.074219 C 129.578125 126.074219 129.453125 124.527344 129.453125 122.640625 C 129.453125 118.824219 129.964844 118.269531 131.542969 120.324219 Z M 131.542969 120.324219 "/>
<path style=" stroke:none;fill-rule:nonzero;fill:rgb(0%,0%,0%);fill-opacity:1;" d="M 144.703125 113.078125 C 143.976562 113.765625 144.449219 114.835938 145.601562 115.050781 C 148.207031 115.566406 150.816406 118.996094 150.816406 121.824219 C 150.816406 124.957031 148.207031 128.34375 145.300781 128.902344 C 144.0625 129.160156 143.976562 129.289062 143.976562 131.175781 C 143.976562 133.746094 145.046875 137.863281 146.070312 139.324219 C 148.035156 142.066406 154.273438 144.039062 157.21875 142.796875 C 159.570312 141.808594 161.753906 138.851562 162.605469 135.378906 C 163.5 131.902344 163.632812 125.042969 162.945312 117.539062 L 162.5625 113.078125 L 159.570312 112.90625 C 154.617188 112.652344 154.785156 112.433594 155.214844 117.582031 C 155.597656 122.46875 155.253906 130.53125 154.617188 131.777344 C 154.359375 132.246094 153.804688 132.503906 153.25 132.417969 C 151.964844 132.246094 151.753906 130.660156 151.753906 121.65625 C 151.710938 116.378906 151.582031 113.808594 151.195312 113.378906 C 150.6875 112.777344 145.257812 112.480469 144.703125 113.078125 Z M 144.703125 113.078125 "/>
<path style=" stroke:none;fill-rule:nonzero;fill:rgb(0%,0%,0%);fill-opacity:1;" d="M 191.445312 113.164062 C 190.972656 113.464844 190.886719 115.265625 191.101562 123.328125 C 191.3125 133.574219 191.871094 137.136719 193.492188 139.363281 C 195.203125 141.765625 200.972656 143.824219 203.960938 143.050781 C 205.457031 142.667969 207.933594 140.394531 208.875 138.550781 C 210.753906 134.90625 211.265625 127.574219 210.367188 117.496094 L 209.984375 113.035156 L 206.183594 112.992188 L 202.378906 112.992188 L 202.550781 116.851562 C 202.808594 122.554688 202.507812 130.832031 202.039062 131.777344 C 201.78125 132.246094 201.226562 132.503906 200.671875 132.417969 C 199.386719 132.246094 199.175781 130.574219 199.132812 121.441406 C 199.132812 116.425781 198.960938 113.808594 198.621094 113.378906 C 198.066406 112.691406 192.46875 112.519531 191.445312 113.164062 Z M 191.445312 113.164062 "/>
<path style=" stroke:none;fill-rule:nonzero;fill:rgb(0%,0%,0%);fill-opacity:1;" d="M 213.617188 113.078125 C 213.359375 117.066406 213.445312 141.636719 213.65625 142.023438 C 213.960938 142.453125 215.707031 142.539062 221.390625 142.453125 C 225.453125 142.367188 228.867188 142.195312 228.953125 142.109375 C 229.085938 141.980469 229.167969 140.480469 229.167969 138.679688 C 229.210938 135.078125 228.828125 134.519531 226.5625 134.90625 C 225.835938 135.035156 224.597656 135.035156 223.871094 134.863281 C 222.757812 134.605469 222.546875 134.390625 222.671875 133.488281 C 222.804688 132.546875 223.015625 132.417969 225.195312 132.332031 C 226.476562 132.289062 227.800781 132.074219 228.058594 131.902344 C 228.742188 131.472656 228.742188 126.027344 228.058594 125.085938 C 227.714844 124.65625 226.734375 124.355469 225.578125 124.269531 L 223.65625 124.144531 L 223.527344 122.300781 C 223.402344 120.285156 223.273438 120.371094 226.949219 120.496094 C 229.339844 120.582031 229.554688 120.152344 229.339844 115.78125 L 229.210938 112.992188 L 221.433594 112.863281 C 217.121094 112.820312 213.617188 112.90625 213.617188 113.078125 Z M 213.617188 113.078125 "/>
<path style=" stroke:none;fill-rule:nonzero;fill:rgb(0%,0%,0%);fill-opacity:1;" d="M 234.464844 113.078125 C 231.734375 113.378906 231.816406 112.777344 232.246094 130.058594 C 232.414062 137.566406 232.710938 142.195312 233.011719 142.582031 C 233.398438 143.097656 234.125 143.136719 236.902344 142.882812 L 240.320312 142.582031 L 240.234375 138.164062 C 240.191406 135.761719 240.320312 133.878906 240.492188 134.003906 C 240.703125 134.089844 241.6875 136.019531 242.710938 138.292969 C 243.738281 140.523438 244.847656 142.453125 245.1875 142.582031 C 245.53125 142.710938 247.410156 142.710938 249.378906 142.539062 C 252.152344 142.324219 252.921875 142.109375 252.921875 141.597656 C 252.921875 141.253906 251.769531 138.851562 250.359375 136.320312 C 248.949219 133.792969 247.796875 131.605469 247.796875 131.433594 C 247.796875 131.261719 248.4375 130.488281 249.25 129.714844 C 251.042969 127.957031 251.855469 126.414062 252.238281 124.011719 C 252.878906 119.855469 250.1875 115.738281 245.746094 114.066406 C 243.308594 113.121094 237.796875 112.652344 234.464844 113.078125 Z M 242.027344 120.285156 C 243.394531 121.613281 243.394531 123.113281 241.984375 124.742188 C 240.277344 126.800781 239.894531 126.457031 239.808594 122.984375 C 239.722656 118.78125 240.105469 118.308594 242.027344 120.285156 Z M 242.027344 120.285156 "/>
<path style=" stroke:none;fill-rule:nonzero;fill:rgb(0%,0%,0%);fill-opacity:1;" d="M 58.101562 113.59375 C 57.035156 113.894531 57.035156 113.9375 56.90625 118.996094 C 56.78125 125.855469 57.378906 141.808594 57.847656 142.238281 C 58.402344 142.839844 64.382812 142.667969 65.023438 142.023438 C 65.324219 141.722656 65.664062 140.050781 65.796875 138.164062 L 66.007812 134.863281 L 68.230469 134.5625 C 71.519531 134.089844 74.210938 132.632812 75.703125 130.617188 C 76.945312 128.945312 76.988281 128.730469 76.816406 125.171875 C 76.519531 118.996094 74.125 115.222656 69.554688 113.851562 C 67.289062 113.207031 60.15625 113.035156 58.101562 113.59375 Z M 67.289062 120.582031 C 68.570312 121.140625 69 122.46875 68.65625 124.65625 C 68.316406 126.542969 68.058594 126.84375 66.304688 127.1875 L 64.941406 127.445312 L 64.941406 123.753906 C 64.941406 119.769531 65.066406 119.554688 67.289062 120.582031 Z M 67.289062 120.582031 "/>
<path style=" stroke:none;fill-rule:nonzero;fill:rgb(0%,0%,0%);fill-opacity:1;" d="M 91 149.484375 C 88.992188 150.941406 88.480469 152.445312 89.460938 154.375 C 90.058594 155.617188 90.058594 155.789062 89.292969 157.074219 C 88.179688 158.878906 88.179688 161.234375 89.332031 162.652344 C 91.257812 165.136719 96.554688 165.179688 99.035156 162.691406 C 100.226562 161.492188 100.398438 161.019531 100.398438 159.132812 C 100.398438 157.074219 100.484375 156.949219 101.46875 156.949219 C 102.367188 156.949219 102.539062 156.730469 102.539062 155.660156 C 102.539062 154.589844 102.367188 154.375 101.46875 154.375 C 100.527344 154.375 100.398438 154.203125 100.398438 152.871094 C 100.398438 150.988281 99.890625 150.988281 98.390625 152.871094 C 97.320312 154.203125 96.984375 154.375 95.1875 154.375 C 93.695312 154.375 93.050781 154.160156 92.753906 153.601562 C 92.109375 152.402344 92.839844 151.671875 94.546875 151.886719 C 95.785156 152.015625 96.171875 151.886719 96.46875 151.113281 C 97.109375 149.742188 96.425781 149.144531 94.164062 148.925781 C 92.621094 148.800781 91.769531 148.925781 91 149.484375 Z M 96.984375 158.402344 C 96.984375 160.292969 95.957031 161.320312 94.292969 161.148438 C 92.753906 160.976562 92.066406 160.035156 92.453125 158.535156 C 92.707031 157.375 93.351562 157.074219 95.613281 156.988281 C 96.898438 156.949219 96.984375 157.035156 96.984375 158.402344 Z M 96.984375 158.402344 "/>
<path style=" stroke:none;fill-rule:nonzero;fill:rgb(0%,0%,0%);fill-opacity:1;" d="M 48.105469 149.65625 C 45.371094 150.515625 44.003906 152.785156 44.003906 156.605469 C 44.003906 159.347656 44.988281 162.222656 46.183594 163.25 C 47.125 164.023438 50.285156 164.621094 51.613281 164.277344 C 52.636719 163.980469 52.761719 163.722656 52.71875 162.347656 C 52.636719 160.378906 52.125 159.820312 50.328125 159.777344 C 49.003906 159.734375 48.917969 159.648438 48.535156 157.632812 C 47.933594 154.714844 48.746094 153.34375 51.054688 153.175781 C 52.890625 153.003906 53.40625 152.574219 53.40625 151.027344 C 53.40625 149.484375 50.925781 148.839844 48.105469 149.65625 Z M 48.105469 149.65625 "/>
<path style=" stroke:none;fill-rule:nonzero;fill:rgb(0%,0%,0%);fill-opacity:1;" d="M 110.996094 149.570312 L 109.84375 149.699219 L 109.710938 156.003906 C 109.542969 164.707031 109.371094 164.238281 112.363281 164.238281 C 119.070312 164.238281 122.617188 158.363281 119.242188 153.003906 C 118.558594 151.886719 117.53125 150.769531 116.976562 150.472656 C 115.867188 149.828125 112.703125 149.355469 110.996094 149.570312 Z M 115.480469 154.289062 C 116.59375 155.230469 116.421875 157.933594 115.222656 159.347656 C 113.773438 161.019531 113.21875 160.378906 113.21875 157.160156 C 113.21875 153.003906 113.515625 152.613281 115.480469 154.289062 Z M 115.480469 154.289062 "/>
<path style=" stroke:none;fill-rule:nonzero;fill:rgb(0%,0%,0%);fill-opacity:1;" d="M 125.222656 149.699219 C 122.957031 150.601562 121.632812 153.558594 121.71875 157.460938 C 121.804688 160.933594 122.1875 162.050781 123.769531 163.59375 C 124.753906 164.535156 125.265625 164.707031 126.632812 164.496094 C 128.46875 164.277344 130.007812 163.292969 131.332031 161.535156 C 133.167969 159.046875 132.140625 151.972656 129.707031 150.386719 C 128.382812 149.527344 126.417969 149.230469 125.222656 149.699219 Z M 128.339844 157.117188 C 128.382812 159.089844 127.402344 160.761719 126.546875 160.207031 C 125.859375 159.777344 125.519531 156.003906 126.03125 154.628906 L 126.503906 153.34375 L 127.402344 154.289062 C 128.042969 154.886719 128.296875 155.746094 128.339844 157.117188 Z M 128.339844 157.117188 "/>
<path style=" stroke:none;fill-rule:nonzero;fill:rgb(0%,0%,0%);fill-opacity:1;" d="M 135.902344 149.914062 C 134.363281 151.027344 133.640625 153.300781 133.683594 157.035156 C 133.726562 162.050781 134.921875 163.808594 138.210938 163.808594 C 141.542969 163.808594 143.121094 161.921875 143.121094 157.933594 C 143.121094 156.390625 142.949219 156.003906 142.097656 155.617188 C 141.5 155.316406 140.386719 155.230469 139.535156 155.402344 C 138.125 155.660156 137.996094 155.832031 137.996094 157.160156 C 137.996094 158.234375 138.167969 158.660156 138.679688 158.660156 C 139.066406 158.660156 139.277344 158.964844 139.191406 159.390625 C 139.019531 160.25 138.421875 160.503906 137.570312 159.949219 C 136.839844 159.519531 136.839844 156.304688 137.609375 154.074219 C 138.125 152.445312 138.636719 152.273438 139.277344 153.558594 C 139.660156 154.246094 140.003906 154.375 140.902344 154.160156 C 142.226562 153.816406 143.121094 153.175781 143.121094 152.574219 C 143.121094 152.316406 142.480469 151.5 141.671875 150.683594 C 140.515625 149.527344 139.875 149.230469 138.550781 149.230469 C 137.65625 149.230469 136.457031 149.527344 135.902344 149.914062 Z M 135.902344 149.914062 "/>
<path style=" stroke:none;fill-rule:nonzero;fill:rgb(0%,0%,0%);fill-opacity:1;" d="M 220.453125 149.699219 C 219.851562 149.914062 218.914062 150.816406 218.316406 151.671875 C 217.332031 153.089844 217.25 153.644531 217.25 157.503906 L 217.25 161.75 L 218.871094 163.25 C 220.324219 164.582031 220.707031 164.707031 222.074219 164.449219 C 223.914062 164.152344 225.367188 163.164062 226.605469 161.492188 C 228.441406 159.046875 227.414062 151.972656 224.980469 150.386719 C 223.699219 149.527344 221.691406 149.230469 220.453125 149.699219 Z M 223.527344 157.203125 C 223.488281 159.433594 222.546875 160.933594 221.691406 160.078125 C 221.179688 159.5625 221.050781 154.714844 221.519531 153.945312 C 221.730469 153.558594 222.074219 153.6875 222.71875 154.289062 C 223.316406 154.933594 223.527344 155.703125 223.527344 157.203125 Z M 223.527344 157.203125 "/>
<path style=" stroke:none;fill-rule:nonzero;fill:rgb(0%,0%,0%);fill-opacity:1;" d="M 56.695312 149.957031 C 56.609375 150.171875 56.222656 151.542969 55.839844 153.089844 C 53.320312 163.335938 53.320312 163.765625 55.113281 163.851562 C 55.839844 163.894531 56.652344 163.9375 56.949219 163.980469 C 57.207031 164.023438 57.503906 163.59375 57.589844 163.035156 C 57.804688 161.75 60.199219 161.664062 60.539062 162.949219 C 60.792969 163.9375 62.335938 164.449219 63.785156 164.066406 C 64.769531 163.851562 64.769531 163.722656 64.425781 161.234375 C 64.042969 158.363281 62.589844 152.144531 61.949219 150.601562 C 61.605469 149.785156 61.222656 149.65625 59.214844 149.65625 C 57.933594 149.65625 56.78125 149.785156 56.695312 149.957031 Z M 59.898438 157.160156 C 59.984375 158.105469 59.855469 158.488281 59.257812 158.574219 C 58.53125 158.707031 58.488281 158.535156 58.699219 157.074219 C 58.832031 156.175781 58.914062 155.359375 58.957031 155.230469 C 59 154.542969 59.773438 156.089844 59.898438 157.160156 Z M 59.898438 157.160156 "/>
<path style=" stroke:none;fill-rule:nonzero;fill:rgb(0%,0%,0%);fill-opacity:1;" d="M 64.511719 151.328125 C 64.511719 152.746094 64.683594 153.042969 65.496094 153.175781 C 66.390625 153.300781 66.433594 153.472656 66.5625 158.191406 C 66.605469 160.933594 66.902344 163.378906 67.160156 163.679688 C 67.675781 164.324219 69.894531 164.449219 70.277344 163.851562 C 70.410156 163.636719 70.535156 161.105469 70.535156 158.277344 C 70.578125 153.730469 70.664062 153.089844 71.304688 153.089844 C 72.414062 153.089844 72.929688 152.316406 72.714844 150.941406 L 72.542969 149.65625 L 64.511719 149.65625 Z M 64.511719 151.328125 "/>
<path style=" stroke:none;fill-rule:nonzero;fill:rgb(0%,0%,0%);fill-opacity:1;" d="M 74.46875 150.683594 C 72.671875 152.230469 72.84375 154.417969 74.9375 157.289062 C 75.917969 158.660156 76.472656 159.820312 76.304688 160.207031 C 76.046875 160.847656 75.917969 160.847656 74.976562 160.207031 C 73.65625 159.347656 73.226562 159.5625 72.84375 161.277344 C 72.5 162.863281 73.097656 163.679688 75.019531 164.066406 C 78.269531 164.667969 80.746094 162.863281 80.746094 159.949219 C 80.746094 158.449219 80.449219 157.890625 78.78125 156.089844 C 77.160156 154.375 76.945312 153.902344 77.5 153.6875 C 77.882812 153.558594 78.484375 153.644531 78.824219 153.945312 C 79.636719 154.628906 80.191406 154.203125 80.535156 152.574219 C 80.789062 151.457031 80.660156 151.074219 79.894531 150.429688 C 78.523438 149.316406 75.917969 149.441406 74.46875 150.683594 Z M 74.46875 150.683594 "/>
<path style=" stroke:none;fill-rule:nonzero;fill:rgb(0%,0%,0%);fill-opacity:1;" d="M 145.644531 150.902344 C 143.722656 152.832031 143.976562 154.503906 146.625 157.933594 C 148.207031 159.90625 148.035156 161.320312 146.328125 160.207031 C 144.960938 159.304688 144.960938 159.304688 144.148438 160.894531 C 143.464844 162.222656 143.464844 162.261719 144.664062 163.292969 C 145.644531 164.191406 146.15625 164.277344 147.996094 164.105469 C 150.730469 163.851562 152.09375 162.433594 152.09375 159.90625 C 152.09375 158.449219 151.796875 157.847656 150.132812 156.089844 C 148.25 154.074219 148.164062 152.957031 149.960938 153.945312 C 151.109375 154.542969 151.539062 154.246094 151.878906 152.574219 C 152.308594 150.769531 151.023438 149.65625 148.589844 149.65625 C 147.3125 149.65625 146.625 149.957031 145.644531 150.902344 Z M 145.644531 150.902344 "/>
<path style=" stroke:none;fill-rule:nonzero;fill:rgb(0%,0%,0%);fill-opacity:1;" d="M 160.726562 150 C 159.785156 150.128906 159.785156 150.171875 159.871094 157.074219 L 160 164.023438 L 161.707031 164.023438 C 163.375 164.023438 163.414062 163.980469 163.800781 162.222656 C 164.144531 160.636719 164.316406 160.417969 165.636719 160.164062 C 167.859375 159.777344 169.183594 158.234375 169.183594 156.089844 C 169.183594 154.074219 168.371094 151.84375 167.261719 150.941406 C 166.492188 150.300781 162.5625 149.742188 160.726562 150 Z M 164.65625 153.34375 C 165.636719 153.730469 165.550781 155.960938 164.527344 156.472656 C 163.460938 157.074219 163.203125 156.691406 163.203125 154.714844 C 163.203125 153.089844 163.414062 152.871094 164.65625 153.34375 Z M 164.65625 153.34375 "/>
<path style=" stroke:none;fill-rule:nonzero;fill:rgb(0%,0%,0%);fill-opacity:1;" d="M 170.765625 154.886719 C 170.550781 159.777344 170.636719 163.722656 171.0625 164.105469 C 171.449219 164.496094 178.113281 163.636719 178.285156 163.164062 C 178.414062 162.90625 178.414062 162.179688 178.285156 161.535156 C 178.070312 160.550781 177.855469 160.378906 176.617188 160.378906 C 175.59375 160.378906 175.164062 160.164062 175.164062 159.734375 C 175.164062 159.304688 175.59375 159.089844 176.40625 159.089844 C 177.984375 159.089844 178.328125 158.574219 177.984375 156.691406 C 177.730469 155.53125 177.515625 155.230469 176.660156 155.230469 C 175.464844 155.230469 175.039062 154.714844 175.421875 153.730469 C 175.636719 153.214844 176.023438 153.089844 176.746094 153.300781 C 177.515625 153.472656 177.816406 153.34375 178.113281 152.613281 C 178.285156 152.101562 178.371094 151.199219 178.242188 150.644531 C 178.070312 149.699219 177.902344 149.65625 174.527344 149.65625 L 171.019531 149.65625 Z M 170.765625 154.886719 "/>
<path style=" stroke:none;fill-rule:nonzero;fill:rgb(0%,0%,0%);fill-opacity:1;" d="M 179.863281 151.328125 C 179.863281 152.746094 180.035156 153.042969 180.847656 153.175781 C 181.746094 153.300781 181.789062 153.472656 181.914062 158.191406 C 181.957031 160.933594 182.257812 163.378906 182.515625 163.679688 C 183.113281 164.449219 185.203125 164.363281 185.847656 163.59375 C 186.230469 163.121094 186.316406 161.621094 186.1875 158.019531 C 185.976562 153.472656 186.015625 153.089844 186.746094 153.089844 C 187.726562 153.089844 188.324219 152.015625 188.066406 150.683594 C 187.894531 149.699219 187.769531 149.65625 183.882812 149.65625 L 179.863281 149.65625 Z M 179.863281 151.328125 "/>
<path style=" stroke:none;fill-rule:nonzero;fill:rgb(0%,0%,0%);fill-opacity:1;" d="M 198.324219 150.601562 C 196.824219 152.230469 196.738281 153.6875 197.9375 155.789062 C 198.535156 156.816406 199.347656 157.890625 199.691406 158.234375 C 200.542969 158.917969 200.585938 160.378906 199.730469 160.378906 C 199.386719 160.378906 198.664062 160.121094 198.195312 159.820312 C 197.421875 159.390625 197.210938 159.433594 196.484375 160.332031 C 195.460938 161.578125 195.460938 161.878906 196.613281 162.90625 C 197.679688 163.9375 199.902344 164.449219 201.441406 164.066406 C 202.851562 163.722656 204.21875 161.449219 204.21875 159.433594 C 204.21875 158.191406 203.875 157.417969 202.722656 156.132812 C 201.910156 155.230469 201.226562 154.160156 201.226562 153.730469 C 201.226562 153.003906 201.609375 152.957031 203.75 153.558594 C 204.132812 153.6875 204.515625 153.214844 204.773438 152.273438 C 205.371094 150.386719 204.429688 149.65625 201.441406 149.65625 C 199.691406 149.65625 199.046875 149.871094 198.324219 150.601562 Z M 198.324219 150.601562 "/>
<path style=" stroke:none;fill-rule:nonzero;fill:rgb(0%,0%,0%);fill-opacity:1;" d="M 206.652344 149.957031 C 206.484375 150.085938 206.355469 153.386719 206.355469 157.246094 L 206.355469 164.277344 L 208.191406 164.152344 L 209.984375 164.023438 L 210.113281 161.105469 C 210.242188 158.574219 210.328125 158.234375 211.054688 158.234375 C 211.824219 158.234375 211.910156 158.535156 211.910156 161.277344 L 211.910156 164.277344 L 213.488281 164.152344 C 215.539062 163.980469 215.667969 163.550781 215.707031 155.746094 L 215.753906 149.65625 L 213.828125 149.65625 C 211.949219 149.65625 211.910156 149.699219 211.910156 151.027344 C 211.910156 153.089844 211.480469 154.375 210.796875 154.375 C 210.367188 154.375 210.195312 153.730469 210.195312 152.015625 L 210.195312 149.65625 L 208.574219 149.65625 C 207.679688 149.65625 206.78125 149.785156 206.652344 149.957031 Z M 206.652344 149.957031 "/>
<path style=" stroke:none;fill-rule:nonzero;fill:rgb(0%,0%,0%);fill-opacity:1;" d="M 228.828125 154.03125 C 228.695312 156.472656 228.742188 159.691406 228.914062 161.234375 L 229.210938 164.023438 L 230.792969 164.152344 C 232.671875 164.324219 233.398438 163.335938 233.183594 160.894531 C 233.054688 159.390625 233.140625 159.304688 234.550781 159.089844 C 238.226562 158.449219 239.847656 155.445312 238.183594 152.273438 C 237.328125 150.558594 235.148438 149.65625 231.859375 149.65625 L 229.085938 149.65625 Z M 234.421875 153.773438 C 234.722656 154.542969 234.125 155.746094 233.355469 156.003906 C 233.011719 156.089844 232.84375 155.617188 232.84375 154.628906 C 232.84375 153.003906 233.910156 152.445312 234.421875 153.773438 Z M 234.421875 153.773438 "/>
</g>
</svg>
