<svg xmlns="http://www.w3.org/2000/svg" preserveAspectRatio="xMidYMid meet" viewBox="0 0 284 154"><title>veterinaria6</title><g fill="#212121" class="nc-icon-wrapper"><g transform="matrix(.1 0 0 -.1 0 154)" fill="#212121" stroke="none"><path d="M1526 1421c-16-11-39-32-51-48l-23-28 26-17c15-10 35-18 45-18 17 0 17-1 0-25-13-18-27-24-54-25-46 0-153-33-197-60-42-26-73-77-70-117 1-21-9-49-32-85-70-111-92-158-92-202-1-59 31-109 83-130 51-21 93-14 155 26 25 16 47 28 48 26 5-8 26-60 26-63s-15-5-32-5c-39 0-114-33-146-63-54-50-67-115-30-154 19-20 21-35 22-125 1-89 3-103 19-106 14-3 17 4 17 35 0 35 12 95 27 133 3 9 10-3 17-30 14-54 41-62 41-13 0 26 4 32 25 35 26 4 26 3 22-52-3-43 0-60 13-73 26-26 61-21 87 13l22 30 12-30c8-18 20-30 31-30 17 0 18 6 11 86-4 48-9 88-10 89-2 2-11 5-21 7-15 2-23-9-38-47-11-27-28-61-39-75l-20-25v67c0 67 0 68 33 82 55 25 67 40 67 84 0 30-7 49-27 73-21 25-24 31-10 26 10-4 21-7 23-7 3 0 2-5-1-10-4-6 9-17 29-25 39-17 221-39 236-30 6 4 10-8 10-29 0-40 5-42 58-21 43 19 82 53 82 72 0 12-2 12-15 0-28-29-86-59-100-53-31 11-13 33 53 61 37 16 88 49 115 74 26 24 50 41 54 38 3-4-14-25-39-47-53-46-70-105-44-145 15-23 127-85 152-85 10 0 10-6-2-27-21-42-17-81 11-108 30-31 73-32 109-4 28 22 35 59 11 59-8 0-15-7-15-15s-12-22-26-31c-22-15-27-15-35-3-5 8-9 24-9 37 0 18 6 22 29 22 16 0 39 9 52 19 24 20 24 20 6 52-10 17-16 32-15 33 2 1 16 8 31 16 42 21 61 63 47 105-24 72-142 144-216 132l-37-6 20 22c26 28 49 73 57 113l7 32 52-28c72-39 114-45 165-25 52 21 82 67 82 124 0 59-21 95-107 182-56 57-75 84-79 110-11 76-117 125-252 117-67-5-76-3-97 18-33 33-73 41-107 21-27-15-28-15-48 18-44 71-141 97-204 56zm150-65c23-24 45-58 49-75s9-31 11-31c3 0 17 14 31 30 24 29 46 36 77 24 21-8 20-24-1-24-10-1-28-6-41-13-21-12-20-13 23-25 39-10 50-10 78 5 51 27 171 23 233-8 43-21 50-29 55-62 5-29 22-54 81-115 113-116 131-164 82-221-47-56-135-39-222 43-27 25-57 64-67 86s-20 38-22 36 3-21 12-42c10-23 17-67 18-106 0-56-5-75-30-120-35-62-104-119-183-150-82-32-245-32-315 0-99 46-148 118-148 217 1 45-2 54-8 37-27-71-117-142-181-142-28 0-42 7-62 31-45 53-37 84 67 253 26 42 37 72 37 98 0 49 30 79 108 108 40 15 76 21 126 19 49-1 82 3 106 15l35 17-43-6c-41-5-42-4-32 15 16 30 52 34 96 11 21-11 40-18 43-15 13 12-80 84-124 96-25 7-45 15-45 18 0 12 57 39 84 40 22 0 40-11 72-44zm-101-46c3-5 2-10-4-10-5 0-13 5-16 10-3 6-2 10 4 10 5 0 13-4 16-10zm540-449c3-5 1-12-5-16-5-3-10 1-10 9 0 18 6 21 15 7zm-671-237c4-12 2-12-14-4-11 6-20 15-20 20 0 14 28 1 34-16zm711-8c82-38 128-109 93-144-19-19-33-14-45 16-11 26-12 26-7-9 5-33 3-37-29-52-45-22-65-21-104 3-29 17-31 22-23 50 5 19 5 28-1 25-5-4-9-15-9-25 0-27-13-32-38-14-46 32-19 112 52 155 40 24 50 24 111-5zm-719-31c22-17 37-40 45-67 10-40 10-44-17-66l-28-25-13 34-13 34 5-32c3-26 0-36-18-47-38-25-70-27-107-9-31 16-35 22-33 53 3 33 2 33-8 10-5-13-12-26-14-29-9-8-45 32-45 50 0 27 54 84 103 108 52 26 96 22 143-14zm-186-200c0-8-4-15-10-15-5 0-10 7-10 15s5 15 10 15c6 0 10-7 10-15zm883-37c-19-55-27-63-18-18 6 30 21 60 30 60 1 0-4-19-12-42zm49 0c-21-21-32-3-15 22 16 22 18 23 21 6 2-10-1-23-6-28zm-662-28c0-22-4-28-16-23-8 3-13 12-10 20s6 19 6 24 5 9 10 9c6 0 10-13 10-30z"></path><path d="M1866 1069c-14-17-26-36-26-42 0-7 5-4 11 5 26 45 89 45 114-1 19-34 19-10 1 34-20 47-63 49-100 4z"></path><path d="M1526 1038c-17-24-22-78-7-78 5 0 11 10 13 22s15 29 31 38c25 14 30 13 60-3l32-17-33 30c-38 36-75 39-96 8z"></path><path d="M1697 901c-88-13-100-57-25-90 24-10 49-25 56-34 11-13 8-19-22-42-69-53-155-40-196 28-11 18-20 26-20 19 0-19 57-99 75-106 45-17 132 16 173 67 12 14 16 14 46-4 43-25 116-35 145-19 26 13 61 83 60 120 0 20-3 17-14-15-20-57-56-85-109-85-40 0-106 16-106 26 0 9 54 54 83 69 29 17 36 49 12 59-28 10-110 14-158 7zm131-29c-1-5-22-25-44-45-38-34-43-36-55-20-8 9-29 22-48 30-34 15-33 27 4 36 34 8 147 7 143-1z"></path><path d="M637 899c-75-18-149-67-197-132-22-31-27-44-19-54 18-21 30-16 81 34 26 26 50 45 52 42 3-3-1-27-10-54-17-57-39-195-49-302-6-62-10-73-25-73-11 0-22 5-25 10-9 15-25 12-25-4 0-8 16-27 35-43 29-24 36-37 44-91 12-75 16-82 45-82 27 0 36 29 36 114 0 51 1 52 38 65 126 44 273 174 311 276 29 77 27 121-8 177-65 102-167 145-284 117zm-12-39c-3-5-10-10-15-10-10 0-69-37-115-72-19-14-25-16-16-5 20 25 103 84 126 90 11 2 21 5 23 6 2 0 0-3-3-9zm189-20c92-35 71-186-42-299-46-46-163-131-179-131-11 0-6 106 13 245l15 110-27 21-26 22 53 20c58 22 151 28 193 12zM585 699c-3-33-7-65-11-70-3-5-8-56-10-114-5-88-3-107 10-121 15-15 22-13 85 24 121 73 225 204 238 303 7 52 23 31 23-32 0-51-32-122-80-181-36-43-146-119-210-144-65-24-72-34-77-108-3-36-9-66-13-66-10 0-20 37-20 75 0 17-7 38-15 49-12 15-12 22-1 40 8 11 17 62 21 111 10 132 43 295 59 295 3 0 3-27 1-61z"></path><path d="M1535 491c4-7 24-20 44-28 42-18 206-34 191-19-6 6-10 18-10 28s-4 18-10 18c-5 0-10-7-10-15 0-26-63-18-194 22-14 4-17 3-11-6z"></path><path d="M834 405c-38-41-58-102-49-147 6-23 17-34 52-50 51-22 85-18 121 14 23 23 30 58 10 58-7 0-23-11-37-24-15-13-36-27-47-30-18-5-23-1-28 20-13 50 0 64 59 64 43 0 56 4 65 19 28 53-12 111-76 111-29 0-44-7-70-35zm43-23c-10-10-17-26-17-34 0-9-7-21-15-28s-15-27-16-44c-1-29-1-30-8-6-11 38 5 92 35 118s46 22 21-6zm63 3c0-17-47-51-57-41-7 7 36 56 49 56 4 0 8-7 8-15z"></path><path d="M1076 398c-12-28-14-30-15-10-1 12-7 22-15 22-28 0-37-178-11-200 9-7 17-11 19-9 1 2 10 42 19 88 18 96 37 128 37 64 0-39 20-71 37-60 4 3 6 35 5 71-4 65-4 66-33 66-23 0-32-7-43-32z"></path><path d="M1787 416c-4-10 1-20 13-26 27-15 32-13 28 12-4 27-33 36-41 14z"></path><path d="M2320 398c-12-30-14-31-17-10-5 23-18 29-28 12-12-20-10-179 3-192 17-17 20-11 36 75 20 103 31 122 39 67 12-88 45-78 43 12-1 63-1 63-32 66-28 3-33-1-44-30z"></path><path d="M1724 411c-49-8-99-42-119-81-21-40-19-55 10-74s45-20 79-5c20 10 23 15 13 29-10 17-13 17-34 3-27-18-37-13-29 15 7 20 74 86 112 109 10 6 17 12 14 11-3 0-23-3-46-7z"></path><path d="M1879 393c-21-54-23-120-5-148 24-37 69-34 93 5 21 35 30 38 35 9 3-21 32-48 42-39 2 3 2 43-1 88-5 73-9 85-27 92-18 6-23 1-37-34-20-54-51-106-62-106-5 0-8 34-6 77 3 54 0 77-8 80-7 3-18-8-24-24zm131-70c0-27-3-34-11-26-7 7-9 23-5 37 9 37 16 32 16-11z"></path><path d="M2478 403c-38-44-51-120-28-163 13-24 71-36 99-20 59 31 84 153 39 184-30 22-91 21-110-1zm70-25c21-21 14-84-12-114l-23-28-13 24c-14 26-8 93 10 115 15 18 22 19 38 3z"></path><path d="M245 357c-36-20-85-77-85-98 0-5 11-11 23-14 22-6 23-9 14-45-13-46 2-70 42-70 31 0 101 65 101 93 0 11-16 1-48-33-27-28-54-50-60-50-29 0-1 111 30 123 7 2 9 8 5 13-4 4-22 3-39-4-18-6-34-9-37-6-6 6 63 72 94 90 10 6 14 13 9 17-6 3-28-4-49-16z"></path><path d="M344 343c3-10 10-47 16-84 6-36 15-71 20-79 17-27 22-1 10 52-24 107-31 128-41 128-6 0-8-8-5-17z"></path><path d="M1810 333c-1-31-42-89-57-80-6 4-17-11-26-33-12-32-22-41-56-51-33-10-39-15-29-26 7-9 21-12 39-8 27 6 27 6 22-34-8-58 19-56 35 3 12 45 27 56 80 56 38 0 20 25-20 28l-36 3 11 34c6 19 18 37 27 40 22 7 42 52 35 76-9 28-25 23-25-8zm-70-168c-7-9-15-13-17-11-6 6 20 36 26 30 2-2-2-10-9-19z"></path><path d="M1696 331c-3-5 0-14 7-19 10-8 13-6 14 9 2 19-11 26-21 10z"></path><path d="M1420 120c0-22 4-40 9-40s7 9 4 20c-4 14 0 20 12 20s16-6 12-20c-3-11-1-20 5-20 5 0 8 12 6 28-2 19-8 26-20 24s-16 2-12 13c3 8 1 15-5 15s-11-17-11-40z"></path><path d="M600 115c0-31 3-35 25-35 31 0 52 34 34 56-6 8-22 14-35 14-21 0-24-5-24-35zm45 0c0-11-8-21-17-23-14-3-18 3-18 23s4 26 18 23c9-2 17-12 17-23z"></path><path d="M860 138c0-7-3-23-6-36-6-20-3-22 25-20 32 2 35 7 25 46-7 23-44 32-44 10zm30-2c0-3-4-8-10-11-5-3-10-1-10 4 0 6 5 11 10 11 6 0 10-2 10-4zm-5-36c3-5 2-10-4-10-5 0-13 5-16 10-3 6-2 10 4 10 5 0 13-4 16-10z"></path><path d="M1080 116c0-22 5-36 13-36 7 0 12 13 12 32 0 17-6 33-12 36-9 2-13-8-13-32z"></path><path d="M1293 119c3-42 22-49 22-7 0 17-6 33-12 35-9 3-12-6-10-28z"></path><path d="M692 131c-20-12-10-46 14-49 25-4 40 24 23 44-13 16-19 17-37 5zm28-27c0-9-5-14-12-12-18 6-21 28-4 28 9 0 16-7 16-16z"></path><path d="M755 132c-3-3-5-14-5-24 0-16 11-23 33-19 5 1 6-3 2-8-3-6-12-8-20-4-8 3-15 0-15-6 0-15 33-14 48 1 7 7 12 24 12 39 0 21-5 27-25 27-13 0-27-3-30-6zm35-22c0-5-7-10-15-10s-15 5-15 10c0 6 7 10 15 10s15-4 15-10z"></path><path d="M961 126c-15-18-3-46 20-46 10 0 19 4 19 10 0 5-7 7-15 4-9-4-15 0-15 10 0 9 8 16 21 16 11 0 17 5 14 10-9 14-31 12-44-4z"></path><path d="M1025 130c-3-5 2-10 12-11 14 0 13-2-5-10-28-11-20-29 14-29 27 0 27 0 14 34-10 27-24 33-35 16z"></path><path d="M1159 136c-5-8-2-76 4-76 4 0 7 5 7 10 0 6 9 10 21 10 31 0 23 55-8 56-13 1-23 1-24 0zm39-28c-6-18-28-21-28-4 0 9 7 16 16 16s14-5 12-12z"></path><path d="M1237 133c-4-3-7-17-7-30 0-17 5-23 23-22 21 0 21 1 2 9s-19 9 3 9c25 1 28 11 10 29-14 14-22 15-31 5z"></path><path d="M1370 125c-10-12-9-16 6-22 16-6 16-7-2-14s-17-8 3-8c29-1 38 15 16 28-17 10-17 10 0 11 10 0 15 5 12 10-9 14-21 12-35-5z"></path><path d="M1491 126c-17-20-2-48 23-44 24 3 34 37 14 49-18 12-24 11-37-5zm37-18c-6-18-28-21-28-4 0 9 7 16 16 16s14-5 12-12z"></path><path d="M1557 101c-4-36 2-57 10-33 3 6 14 12 24 12 30 0 22 55-8 56-17 1-22-6-26-35zm41 7c-6-18-28-21-28-4 0 9 7 16 16 16s14-5 12-12z"></path></g></g></svg>