<svg xmlns="http://www.w3.org/2000/svg" viewBox="0 0 32 32"><title>perro revisado por un veterinario</title><g fill="#212121" class="nc-icon-wrapper"><path d="M6.69 20.8v1.93h1.45v9.51h1.63v-9.51h13.04v9.51h1.63v-9.51h1.45v-1.93z"></path><path d="M15.89 15.22l-3.1-1.78h-0.01a15.36 15.36 0 0 1-0.73 0.73l-0.14 0.13c-0.44 0.41-0.93 0.74-1.62 0.8-0.74 0.06-1.34-0.45-1.34-0.45s-0.66-0.51-0.65-1.54l-0.86-0.69a0.67 0.67 0 1 0-0.84 1.04l1.3 1.04v2.83c0 0.01-1.13 2.24-1.14 2.23a0.67 0.67 0 0 0 0.59 0.98c0.24 0 0.47-0.13 0.6-0.36l1.14-2.21 1.29 2.23a0.66 0.66 0 0 0 0.91 0.25 0.67 0.67 0 0 0 0.24-0.91l-1.12-1.95h4.15v2.28c0 0.37 0.3 0.67 0.66 0.66s0.67-0.3 0.68-0.66l-0.01-4.65z"></path><path d="M16 9.2c-0.11-0.08-0.66-0.35-0.89 0.56a2.74 2.74 0 0 1-0.22 0.57c-0.34 0.66-0.78 1.26-1.19 1.87-0.19 0.28-0.38 0.56-0.57 0.84l2.92 1.66s0.56-0.61 0.64-0.58c0.11 0.05 0.22 0.1 0.33 0.14 0.32 0.14 0.66 0.2 1 0.19 0.6-0.03 1.22-0.35 1.27-1.07 0.05-0.65-1.54-1.17-1.67-1.3-0.41-0.39-0.55-0.84-1.01-1.17-0.08-0.06-0.16-0.12-0.25-0.16-0.05-0.03-0.07-0.06-0.06-0.12 0.02-0.19 0.04-0.38 0.05-0.57 0.03-0.34-0.07-0.65-0.35-0.86z"></path><path d="M16.66 0a3.35 3.35 0 0 0-1.38 0.83h0.88a1.54 1.54 0 0 1 0.5-0.83z"></path><path d="M19.15 0.83h0.85a3.35 3.35 0 0 0-1.33-0.81 1.53 1.53 0 0 1 0.48 0.81z"></path><path d="M17.66 2.69a1.53 1.53 0 0 1-1.42-0.97h-1.6a3.33 3.33 0 0 0-0.35 1.49c0 1.85 1.5 3.35 3.35 3.35 1.85 0 3.35-1.5 3.35-3.35a3.33 3.33 0 0 0-0.35-1.49h-1.56a1.53 1.53 0 0 1-1.42 0.97z"></path><path d="M17.66 2.02a0.86 0.86 0 0 0 0.86-0.86c0-0.48-0.39-0.86-0.86-0.86s-0.86 0.39-0.87 0.86a0.86 0.86 0 0 0 0.87 0.86z"></path><path d="M17.68 30.71a1.54 1.54 0 0 0 3.07 0l0-7.34h-3.07l0 7.34z"></path><path d="M14.38 23.37l0 7.34a1.54 1.54 0 0 0 1.54 1.54 1.54 1.54 0 0 0 1.54-1.54l0-7.34h-3.08z"></path><path d="M10.26 14.48c0.37 0 0.69-0.19 0.99-0.45 1.12-1.01 2.13-2.51 2.13-2.51 0.35-0.51 0.68-0.98 0.95-1.49 0.06-0.12 0.12-0.27 0.16-0.44 0.27-1.03 0.94-1.14 1.21-1.14 0.32 0 0.55 0.13 0.66 0.2l-0.01-0.02c0.01 0.01 0.03 0.02 0.04 0.03 0.34 0.25 0.54 0.6 0.61 1.02 0 0.02 0 0.05 0 0.07 0 0.04 0.01 0.09 0.02 0.13 0 0.07 0 0.15-0.01 0.23-0.01 0.09-0.01 0.17-0.02 0.25 0.36 0.26 0.56 0.55 0.74 0.8 0.1 0.14 0.19 0.27 0.3 0.39 0.04 0.02 0.1 0.05 0.17 0.08 0.64 0.29 1.7 0.77 1.75 1.63 0 0.06 0 0.11 0 0.17a1.74 1.74 0 0 1-0.17 0.65c-0.3 0.59-0.93 0.98-1.73 1.03a2.84 2.84 0 0 1-1.27-0.22c-0.07 0.07-0.15 0.15-0.22 0.23l-0.01 4.75c0 0.08-0.01 0.15-0.02 0.23h4.22v-1.78a2.63 2.63 0 0 0 0.32-1.25v-4.11s0.28 0.34 0.35 0.81c0.11 0.58 0.11 1.75 0 2.9a1.3 1.3 0 0 0 1.29 1.43 1.3 1.3 0 0 0 1.3-1.17c0.59-5.86-2.9-9.09-5.53-10.18l-0.84 0.84-0.81-0.85c0 0-0.01 0-0.01 0-0.47 0.11-2.26 1.04-2.99 1.52-2.71 1.77-4.37 3.86-4.55 4.07a1.3 1.3 0 1 0 0.98 2.15z"></path></g></svg>