<svg xmlns="http://www.w3.org/2000/svg" viewBox="0 0 16 16"><title>perro ducha</title><g fill="#212121" class="nc-icon-wrapper"><g id="outline"><path d="M10.4 5.72a0.52 0.52 0 1 0 0 1.04 0.52 0.52 0 1 0 0-1.04z"></path><path d="M6.24 5.72a0.52 0.52 0 1 0 0 1.04 0.52 0.52 0 1 0 0-1.04z"></path><path d="M8.96 5.92l0.28-0.44a1.72 1.72 0 0 0-1.84 0l0.28 0.44a1.2 1.2 0 0 1 1.28 0z"></path><path d="M6.76 8.32h0.52v0.52h-0.52z"></path><path d="M9.36 8.32h0.52v0.52h-0.52z"></path><path d="M1.32 10.92h0.28l0.48 3.16a1.12 1.12 0 0 0 1.04 0.96v0.84a0.28 0.28 0 0 0 0.28 0.24h2.08a0.28 0.28 0 0 0 0.24-0.24v-0.8h5.2v0.8a0.28 0.28 0 0 0 0.28 0.24h2.08a0.28 0.28 0 0 0 0.24-0.24v-0.8a1.12 1.12 0 0 0 1.04-1l0.48-3.16h0.28a0.8 0.8 0 0 0 0.8-0.8 0.8 0.8 0 0 0-0.8-0.76h-3.84l0.04-0.04a1 1 0 0 0 0.68-1.04l-0.24-1.56v-0.92a2.24 2.24 0 0 0 0.52-1.36v-1.56a1.32 1.32 0 0 0-2.24-0.96 1.28 1.28 0 0 0-0.36 0.92v0.28h-3.12v-0.28a1.28 1.28 0 0 0-0.36-0.92 1.32 1.32 0 0 0-2.24 0.92v1.56a2.24 2.24 0 0 0 0.52 1.4v0.92l-0.24 1.56a1 1 0 0 0 0.68 1.04l0.04 0.04h-3.84a0.8 0.8 0 0 0-0.8 0.76 0.8 0.8 0 0 0 0.8 0.8z m3.88 4.68h-1.56v-0.52h1.56z m7.8 0h-1.56v-0.52h1.56z m-0.52-5.72h2.88a0.28 0.28 0 0 1 0.24 0.28 0.28 0.28 0 0 1-0.08 0.16 0.24 0.24 0 0 1-0.16 0.08h-2.88z m-0.52 0v0.8a0.8 0.8 0 0 1-1.56-0.04v-0.76z m-2.08 0v1.84a0.28 0.28 0 0 1-0.52-0.04 0.8 0.8 0 0 0-1.56 0v1.08a0.28 0.28 0 0 1-0.52-0.04v-2.84z m-1.8-0.52l0.24-0.36 0.28 0.36z m1.16 0l-0.72-0.92a0.28 0.28 0 0 0-0.4 0l-0.68 0.92h-0.68a0.72 0.72 0 0 1-0.76-0.52c-0.04-0.28 0.16-0.6 0.6-0.8a2.88 2.88 0 0 0 1.04-0.64 0.8 0.8 0 0 0 1.4 0 2.88 2.88 0 0 0 1 0.64c0.44 0.16 0.68 0.48 0.6 0.8a0.72 0.72 0 0 1-0.76 0.52z m-2.48 0.52v0.52h-0.52v-0.52z m1.32-2.84a0.28 0.28 0 1 1 0.24 0.24 0.28 0.28 0 0 1-0.24-0.28z m2.56-4.72a0.8 0.8 0 0 1 1.32 0.52v1.56a1.64 1.64 0 0 1-0.24 0.84l-0.28-0.4v-2a0.28 0.28 0 0 0-0.52 0v1.24l-0.52-0.8v-0.44a0.76 0.76 0 0 1 0.24-0.52z m-5.96 2.08v-1.56a0.8 0.8 0 0 1 1.32-0.52 0.76 0.76 0 0 1 0.24 0.52v0.44l-0.52 0.8v-1.24a0.28 0.28 0 0 0-0.52 0v2l-0.28 0.4a1.64 1.64 0 0 1-0.24-0.84z m0.24 3.96l0.28-1.56a0.28 0.28 0 0 0 0-0.04v-0.96l1.44-2.16h3.36l1.44 2.16v0.96a0.28 0.28 0 0 0 0 0.04l0.28 1.56a0.48 0.48 0 0 1-0.36 0.52s-0.24 0.12-0.2 0.08c0-0.04 0.04-0.04 0-0.04 0.08-0.44-0.12-1.04-0.92-1.36a2.4 2.4 0 0 1-1.08-0.8 1 1 0 0 0-0.84-0.52 1 1 0 0 0-0.8 0.52 2.4 2.4 0 0 1-1.12 0.8c-0.8 0.32-1 0.92-0.92 1.36 0 0.04 0.04 0.04 0.04 0.04l-0.2-0.08a0.48 0.48 0 0 1-0.36-0.52z m-0.76 1.52h1.56v0.76a0.8 0.8 0 0 1-1.56 0z m0.76 2.08a1.32 1.32 0 0 0 1.28-1.04h0.56v1.8a0.8 0.8 0 0 0 1.56 0v-1.04a0.28 0.28 0 0 1 0.52 0 0.8 0.8 0 0 0 1.56 0 1.28 1.28 0 0 0 0.76 0.28 1.32 1.32 0 0 0 1.28-1.04h2.08l-0.48 3.08c-0.04 0.52-0.6 0.56-0.8 0.56h-9.84c-0.16 0-0.72-0.04-0.8-0.56l-0.48-3.08h1.56a1.32 1.32 0 0 0 1.28 1.04z m-3.8-2a0.24 0.24 0 0 1 0.16-0.08h2.36v0.52h-2.36a0.28 0.28 0 0 1-0.24-0.28 0.28 0.28 0 0 1 0.08-0.16z"></path><path d="M7.84 1.32a0.8 0.8 0 1 0-0.04 1.56 0.8 0.8 0 0 0 0.64-0.36 1.04 1.04 0 0 0 0.4 0.08 1.04 1.04 0 1 0-1-1.32z m1.52 0.24a0.52 0.52 0 0 1-0.84 0.4 0.28 0.28 0 0 0-0.48 0.12 0.28 0.28 0 0 1-0.24 0.28 0.28 0.28 0 0 1 0-0.56 0.28 0.28 0 0 1 0.12 0.08 0.28 0.28 0 0 0 0.4-0.24v-0.08a0.52 0.52 0 0 1 1.04 0z"></path><path d="M1.56 8.08a0.8 0.8 0 1 0 0.8-0.8 0.8 0.8 0 0 0-0.8 0.8z m1.04 0a0.28 0.28 0 1 1-0.28-0.28 0.28 0.28 0 0 1 0.28 0.28z"></path><path d="M12.76 7.56a1.04 1.04 0 1 0 1.04-1.04 1.04 1.04 0 0 0-1.04 1.04z m1.56 0a0.52 0.52 0 1 1-0.52-0.52 0.52 0.52 0 0 1 0.52 0.52z"></path><path d="M15.6 5.44a0.8 0.8 0 1 0-0.8 0.8 0.8 0.8 0 0 0 0.8-0.8z m-1.04 0a0.28 0.28 0 1 1 0.28 0.28 0.28 0.28 0 0 1-0.28-0.28z"></path><path d="M3.12 13.52h0.52v0.52h-0.52z"></path><path d="M4.16 13.52h0.52v0.52h-0.52z"></path><path d="M3.88 6a0.8 0.8 0 0 0-0.32-0.64 1.04 1.04 0 0 0 0.08-0.4 1.04 1.04 0 1 0-1.32 1v0.04a0.8 0.8 0 0 0 1.6 0z m-1.04 0a0.28 0.28 0 0 1 0.08-0.16 0.28 0.28 0 0 0-0.24-0.36h-0.08a0.52 0.52 0 1 1 0.4-0.2 0.28 0.28 0 0 0 0.16 0.44 0.28 0.28 0 1 1-0.28 0.28z"></path></g></g></svg>