<?xml version="1.0" encoding="UTF-8"?>
<svg xmlns="http://www.w3.org/2000/svg" xmlns:xlink="http://www.w3.org/1999/xlink" width="100pt" height="100pt" viewBox="0 0 100 100" version="1.1">
<g id="surface1">
<path style=" stroke:none;fill-rule:nonzero;fill:rgb(0%,0%,0%);fill-opacity:1;" d="M 92.570312 74.167969 L 80.195312 61.363281 C 80.183594 61.351562 80.171875 61.339844 80.160156 61.328125 C 76.726562 57.894531 71.167969 57.894531 67.734375 61.328125 L 62.082031 66.980469 C 59.480469 69.582031 55.269531 69.582031 52.667969 66.980469 C 52.667969 66.976562 52.664062 66.976562 52.664062 66.976562 L 33.015625 47.792969 C 30.414062 45.191406 30.414062 40.980469 33.015625 38.378906 L 38.667969 32.726562 C 42.09375 29.300781 42.09375 23.726562 38.667969 20.300781 L 26.238281 7.871094 C 22.8125 4.445312 17.234375 4.445312 13.808594 7.871094 C 13.808594 7.871094 9.664062 12.015625 9.667969 12.011719 C 9.664062 12.015625 9.289062 12.386719 9.289062 12.390625 C -3.09375 24.773438 -3.097656 44.820312 9.292969 57.210938 L 43.253906 90.707031 C 55.609375 103.0625 75.621094 103.109375 88.027344 90.75 C 88.09375 90.6875 92.484375 86.644531 92.550781 86.578125 C 95.972656 83.15625 95.976562 77.597656 92.570312 74.167969 Z M 17.953125 12.011719 C 19.09375 10.871094 20.953125 10.871094 22.09375 12.011719 L 34.523438 24.441406 C 35.667969 25.585938 35.667969 27.441406 34.523438 28.585938 L 32.453125 30.65625 L 15.878906 14.085938 Z M 47.394531 86.5625 L 13.433594 53.066406 C 3.863281 43.496094 3.410156 28.40625 11.816406 18.304688 L 28.328125 34.820312 C 24.003906 39.730469 24.183594 47.246094 28.878906 51.9375 L 48.527344 71.125 C 53.226562 75.816406 60.71875 76.011719 65.640625 71.667969 L 82.152344 88.179688 C 71.957031 96.652344 56.957031 96.125 47.394531 86.5625 Z M 88.441406 82.398438 L 86.472656 84.214844 L 69.804688 67.542969 L 71.875 65.472656 C 73.015625 64.332031 74.859375 64.328125 76.003906 65.457031 C 76.027344 65.480469 88.386719 78.269531 88.410156 78.292969 C 89.539062 79.421875 89.550781 81.253906 88.441406 82.398438 Z M 88.441406 82.398438 "/>
<path style=" stroke:none;fill-rule:nonzero;fill:rgb(0%,0%,0%);fill-opacity:1;" d="M 50.199219 0.00390625 C 48.582031 0.00390625 47.269531 1.316406 47.269531 2.933594 C 47.269531 4.550781 48.582031 5.863281 50.199219 5.863281 C 74.429688 5.863281 94.140625 25.574219 94.140625 49.804688 C 94.140625 51.421875 95.453125 52.734375 97.070312 52.734375 C 98.6875 52.734375 100 51.421875 100 49.804688 C 100 22.28125 77.726562 0.00390625 50.199219 0.00390625 Z M 50.199219 0.00390625 "/>
<path style=" stroke:none;fill-rule:nonzero;fill:rgb(0%,0%,0%);fill-opacity:1;" d="M 50.199219 11.722656 C 48.582031 11.722656 47.269531 13.035156 47.269531 14.652344 C 47.269531 16.269531 48.582031 17.582031 50.199219 17.582031 C 67.96875 17.582031 82.421875 32.035156 82.421875 49.804688 C 82.421875 51.421875 83.734375 52.734375 85.351562 52.734375 C 86.96875 52.734375 88.28125 51.421875 88.28125 49.804688 C 88.28125 28.804688 71.199219 11.722656 50.199219 11.722656 Z M 50.199219 11.722656 "/>
<path style=" stroke:none;fill-rule:nonzero;fill:rgb(0%,0%,0%);fill-opacity:1;" d="M 50.199219 23.441406 C 48.582031 23.441406 47.269531 24.75 47.269531 26.367188 C 47.269531 27.988281 48.582031 29.296875 50.199219 29.296875 C 61.507812 29.296875 70.707031 38.496094 70.707031 49.804688 C 70.707031 51.421875 72.015625 52.734375 73.636719 52.734375 C 75.253906 52.734375 76.5625 51.421875 76.5625 49.804688 C 76.5625 35.265625 64.738281 23.441406 50.199219 23.441406 Z M 50.199219 23.441406 "/>
<path style=" stroke:none;fill-rule:nonzero;fill:rgb(0%,0%,0%);fill-opacity:1;" d="M 50.199219 35.15625 C 48.582031 35.15625 47.269531 36.46875 47.269531 38.085938 C 47.269531 39.703125 48.582031 41.015625 50.199219 41.015625 C 55.046875 41.015625 58.988281 44.957031 58.988281 49.804688 C 58.988281 51.421875 60.300781 52.734375 61.917969 52.734375 C 63.535156 52.734375 64.847656 51.421875 64.847656 49.804688 C 64.847656 41.726562 58.277344 35.15625 50.199219 35.15625 Z M 50.199219 35.15625 "/>
</g>
</svg>
