<?xml version="1.0" encoding="UTF-8"?>
<svg xmlns="http://www.w3.org/2000/svg" xmlns:xlink="http://www.w3.org/1999/xlink" width="70pt" height="70pt" viewBox="0 0 70 70" version="1.1">
<g id="surface1">
<path style=" stroke:none;fill-rule:nonzero;fill:rgb(0%,0%,0%);fill-opacity:1;" d="M 64.800781 51.917969 L 56.136719 42.957031 C 56.128906 42.945312 56.121094 42.9375 56.113281 42.929688 C 53.707031 40.527344 49.816406 40.527344 47.414062 42.929688 L 43.457031 46.886719 C 41.636719 48.707031 38.6875 48.707031 36.867188 46.886719 C 36.867188 46.882812 36.867188 46.882812 36.863281 46.882812 L 23.113281 33.453125 C 21.289062 31.632812 21.289062 28.683594 23.113281 26.863281 L 27.066406 22.910156 C 29.464844 20.511719 29.464844 16.609375 27.066406 14.210938 L 18.367188 5.507812 C 15.96875 3.109375 12.066406 3.109375 9.667969 5.507812 C 9.664062 5.511719 6.765625 8.410156 6.765625 8.410156 C 6.765625 8.410156 6.503906 8.671875 6.503906 8.671875 C -2.167969 17.339844 -2.167969 31.375 6.503906 40.046875 L 30.277344 63.492188 C 38.925781 72.144531 52.933594 72.175781 61.617188 63.523438 C 61.667969 63.480469 64.738281 60.648438 64.785156 60.605469 C 67.179688 58.210938 67.183594 54.316406 64.800781 51.917969 Z M 12.566406 8.410156 C 13.367188 7.609375 14.667969 7.609375 15.464844 8.410156 L 24.167969 17.109375 C 24.96875 17.910156 24.96875 19.207031 24.167969 20.007812 L 22.714844 21.460938 L 11.117188 9.859375 Z M 33.175781 60.59375 L 9.402344 37.144531 C 2.703125 30.445312 2.386719 19.882812 8.269531 12.8125 L 19.832031 24.375 C 16.804688 27.8125 16.929688 33.070312 20.214844 36.355469 L 33.96875 49.789062 C 37.257812 53.074219 42.503906 53.207031 45.949219 50.167969 L 57.507812 61.726562 C 50.367188 67.65625 39.867188 67.285156 33.175781 60.59375 Z M 61.910156 57.679688 L 60.53125 58.949219 L 48.863281 47.28125 L 50.3125 45.832031 C 51.113281 45.03125 52.402344 45.027344 53.203125 45.820312 C 53.21875 45.835938 61.871094 54.789062 61.886719 54.804688 C 62.675781 55.59375 62.683594 56.878906 61.910156 57.679688 Z M 61.910156 57.679688 "/>
<path style=" stroke:none;fill-rule:nonzero;fill:rgb(0%,0%,0%);fill-opacity:1;" d="M 35.140625 0.00390625 C 34.007812 0.00390625 33.089844 0.921875 33.089844 2.054688 C 33.089844 3.1875 34.007812 4.105469 35.140625 4.105469 C 52.101562 4.105469 65.898438 17.902344 65.898438 34.863281 C 65.898438 35.996094 66.816406 36.914062 67.949219 36.914062 C 69.082031 36.914062 70 35.996094 70 34.863281 C 70 15.597656 54.410156 0.00390625 35.140625 0.00390625 Z M 35.140625 0.00390625 "/>
<path style=" stroke:none;fill-rule:nonzero;fill:rgb(0%,0%,0%);fill-opacity:1;" d="M 35.140625 8.207031 C 34.007812 8.207031 33.089844 9.125 33.089844 10.253906 C 33.089844 11.386719 34.007812 12.304688 35.140625 12.304688 C 47.578125 12.304688 57.695312 22.425781 57.695312 34.863281 C 57.695312 35.996094 58.613281 36.914062 59.746094 36.914062 C 60.878906 36.914062 61.796875 35.996094 61.796875 34.863281 C 61.796875 20.164062 49.839844 8.207031 35.140625 8.207031 Z M 35.140625 8.207031 "/>
<path style=" stroke:none;fill-rule:nonzero;fill:rgb(0%,0%,0%);fill-opacity:1;" d="M 35.140625 16.40625 C 34.007812 16.40625 33.089844 17.324219 33.089844 18.457031 C 33.089844 19.589844 34.007812 20.507812 35.140625 20.507812 C 43.054688 20.507812 49.492188 26.949219 49.492188 34.863281 C 49.492188 35.996094 50.410156 36.914062 51.542969 36.914062 C 52.675781 36.914062 53.59375 35.996094 53.59375 34.863281 C 53.59375 24.6875 45.316406 16.40625 35.140625 16.40625 Z M 35.140625 16.40625 "/>
<path style=" stroke:none;fill-rule:nonzero;fill:rgb(0%,0%,0%);fill-opacity:1;" d="M 35.140625 24.609375 C 34.007812 24.609375 33.089844 25.527344 33.089844 26.660156 C 33.089844 27.792969 34.007812 28.710938 35.140625 28.710938 C 38.53125 28.710938 41.292969 31.472656 41.292969 34.863281 C 41.292969 35.996094 42.210938 36.914062 43.34375 36.914062 C 44.472656 36.914062 45.394531 35.996094 45.394531 34.863281 C 45.390625 29.210938 40.792969 24.609375 35.140625 24.609375 Z M 35.140625 24.609375 "/>
</g>
</svg>
