<?xml version="1.0" encoding="UTF-8"?>
<svg xmlns="http://www.w3.org/2000/svg" xmlns:xlink="http://www.w3.org/1999/xlink" width="50pt" height="50pt" viewBox="0 0 50 50" version="1.1">
<g id="surface1">
<path style=" stroke:none;fill-rule:nonzero;fill:rgb(0%,0%,0%);fill-opacity:1;" d="M 46.285156 37.085938 L 40.097656 30.683594 C 40.09375 30.675781 40.085938 30.671875 40.082031 30.664062 C 38.363281 28.945312 35.582031 28.945312 33.867188 30.664062 L 31.042969 33.488281 C 29.742188 34.789062 27.636719 34.789062 26.332031 33.488281 L 16.507812 23.894531 C 15.207031 22.59375 15.207031 20.488281 16.507812 19.1875 L 19.332031 16.363281 C 21.046875 14.652344 21.046875 11.863281 19.332031 10.148438 L 13.117188 3.933594 C 11.40625 2.222656 8.617188 2.222656 6.90625 3.933594 C 6.902344 3.9375 4.832031 6.007812 4.832031 6.007812 C 4.832031 6.007812 4.644531 6.195312 4.644531 6.195312 C -1.546875 12.386719 -1.550781 22.410156 4.644531 28.605469 L 21.625 45.351562 C 27.804688 51.53125 37.808594 51.554688 44.011719 45.375 C 44.046875 45.34375 46.242188 43.320312 46.277344 43.289062 C 47.984375 41.578125 47.988281 38.796875 46.285156 37.085938 Z M 8.976562 6.007812 C 9.546875 5.433594 10.476562 5.433594 11.046875 6.007812 L 17.261719 12.222656 C 17.835938 12.792969 17.835938 13.71875 17.261719 14.292969 L 16.226562 15.328125 L 7.941406 7.042969 Z M 23.695312 43.28125 L 6.714844 26.53125 C 1.929688 21.746094 1.703125 14.203125 5.90625 9.152344 L 14.164062 17.410156 C 12.003906 19.863281 12.09375 23.621094 14.4375 25.96875 L 24.265625 35.5625 C 26.613281 37.910156 30.359375 38.003906 32.820312 35.832031 L 41.078125 44.089844 C 35.976562 48.324219 28.476562 48.0625 23.695312 43.28125 Z M 44.222656 41.199219 L 43.238281 42.105469 L 34.902344 33.773438 L 35.9375 32.734375 C 36.507812 32.164062 37.429688 32.164062 38.003906 32.730469 C 38.011719 32.742188 44.191406 39.132812 44.203125 39.144531 C 44.769531 39.710938 44.773438 40.628906 44.222656 41.199219 Z M 44.222656 41.199219 "/>
<path style=" stroke:none;fill-rule:nonzero;fill:rgb(0%,0%,0%);fill-opacity:1;" d="M 25.097656 0 C 24.289062 0 23.636719 0.65625 23.636719 1.464844 C 23.636719 2.277344 24.289062 2.929688 25.097656 2.929688 C 37.214844 2.929688 47.070312 12.789062 47.070312 24.902344 C 47.070312 25.710938 47.726562 26.367188 48.535156 26.367188 C 49.34375 26.367188 50 25.710938 50 24.902344 C 50 11.140625 38.863281 0 25.097656 0 Z M 25.097656 0 "/>
<path style=" stroke:none;fill-rule:nonzero;fill:rgb(0%,0%,0%);fill-opacity:1;" d="M 25.097656 5.859375 C 24.289062 5.859375 23.636719 6.515625 23.636719 7.324219 C 23.636719 8.132812 24.289062 8.789062 25.097656 8.789062 C 33.984375 8.789062 41.210938 16.019531 41.210938 24.902344 C 41.210938 25.710938 41.867188 26.367188 42.675781 26.367188 C 43.484375 26.367188 44.140625 25.710938 44.140625 24.902344 C 44.140625 14.402344 35.597656 5.859375 25.097656 5.859375 Z M 25.097656 5.859375 "/>
<path style=" stroke:none;fill-rule:nonzero;fill:rgb(0%,0%,0%);fill-opacity:1;" d="M 25.097656 11.71875 C 24.289062 11.71875 23.636719 12.375 23.636719 13.183594 C 23.636719 13.992188 24.289062 14.648438 25.097656 14.648438 C 30.753906 14.648438 35.351562 19.25 35.351562 24.902344 C 35.351562 25.710938 36.007812 26.367188 36.816406 26.367188 C 37.625 26.367188 38.28125 25.710938 38.28125 24.902344 C 38.28125 17.632812 32.367188 11.71875 25.097656 11.71875 Z M 25.097656 11.71875 "/>
<path style=" stroke:none;fill-rule:nonzero;fill:rgb(0%,0%,0%);fill-opacity:1;" d="M 25.097656 17.578125 C 24.289062 17.578125 23.636719 18.234375 23.636719 19.042969 C 23.636719 19.851562 24.289062 20.507812 25.097656 20.507812 C 27.523438 20.507812 29.492188 22.480469 29.492188 24.902344 C 29.492188 25.710938 30.148438 26.367188 30.957031 26.367188 C 31.765625 26.367188 32.421875 25.710938 32.421875 24.902344 C 32.421875 20.863281 29.136719 17.578125 25.097656 17.578125 Z M 25.097656 17.578125 "/>
</g>
</svg>
