<svg xmlns="http://www.w3.org/2000/svg" viewBox="0 0 32 32"><title>phone5</title><g fill="#212121" class="nc-icon-wrapper"><g id="surface1"><path d="M29.62 23.73l-3.96-4.09-0.01-0.02a2.81 2.81 0 0 0-3.98 0l-1.8 1.81a2.13 2.13 0 0 1-3.02 0c0 0 0 0 0 0l-6.28-6.14a2.13 2.13 0 0 1 0-3.01l1.8-1.81c1.1-1.1 1.1-2.88 0-3.97l-3.97-3.98c-1.1-1.1-2.88-1.1-3.98 0l-1.33 1.32c0 0-0.12 0.12-0.12 0.12-3.96 3.96-3.96 10.38 0 14.35l10.87 10.72c3.95 3.95 10.36 3.97 14.33 0.01 0.02-0.02 1.43-1.31 1.45-1.34 1.1-1.1 1.1-2.87 0-3.97z m-23.88-19.89c0.36-0.36 0.96-0.36 1.33 0l3.98 3.98a0.94 0.94 0 0 1 0 1.33l-0.67 0.66-5.3-5.3z m9.43 23.86l-10.87-10.72c-3.06-3.06-3.21-7.89-0.52-11.12l5.28 5.28c-1.38 1.57-1.33 3.98 0.18 5.48l6.29 6.14c1.5 1.5 3.9 1.56 5.48 0.17l5.28 5.29a8.24 8.24 0 0 1-11.12-0.52z m13.13-1.33l-0.63 0.58-5.33-5.34 0.66-0.66a0.94 0.94 0 0 1 1.32 0l3.97 4.1a0.94 0.94 0 0 1 0.01 1.32z m0 0" stroke="none" fill-rule="nonzero" fill="#212121" fill-opacity="1"></path><path d="M16.06 0a0.94 0.94 0 0 0 0 1.88c7.75 0 14.06 6.31 14.06 14.06a0.94 0.94 0 0 0 1.88 0c0-8.81-7.13-15.94-15.94-15.94z m0 0" stroke="none" fill-rule="nonzero" fill="#212121" fill-opacity="1"></path><path d="M16.06 3.75a0.94 0.94 0 0 0 0 1.88c5.69 0 10.31 4.62 10.32 10.31a0.94 0.94 0 0 0 1.87 0c0-6.72-5.47-12.19-12.19-12.19z m0 0" stroke="none" fill-rule="nonzero" fill="#212121" fill-opacity="1"></path><path d="M16.06 7.5a0.94 0.94 0 1 0 0 1.88c3.62 0 6.56 2.94 6.57 6.56a0.94 0.94 0 1 0 1.87 0c0-4.65-3.78-8.44-8.44-8.44z m0 0" stroke="none" fill-rule="nonzero" fill="#212121" fill-opacity="1"></path><path d="M16.06 11.25a0.94 0.94 0 0 0 0 1.88c1.55 0 2.81 1.26 2.82 2.81a0.94 0.94 0 0 0 1.87 0c0-2.58-2.1-4.69-4.69-4.69z m0 0" stroke="none" fill-rule="nonzero" fill="#212121" fill-opacity="1"></path></g></g></svg>