<?xml version="1.0" encoding="utf-8"?>
<svg id="master-artboard" viewBox="0 0 40.05371856689453 36.69084548950195" version="1.1" xmlns="http://www.w3.org/2000/svg" x="0px" y="0px" style="enable-background:new 0 0 336 235.2;" width="40.05371856689453px" height="36.69084548950195px"><rect id="ee-background" x="0" y="0" width="40.05371856689453" height="36.69084548950195" style="fill: white; fill-opacity: 0; pointer-events: none;"/><defs><style id="ee-google-fonts">@import url(https://fonts.googleapis.com/css?family=Alfa+Slab+One:400);</style></defs><path d="M 409.7948303222656 593.204833984375 C 411.8881530761719 593.204833984375 413.3781433105469 592.8848266601562 414.26483154296875 592.2448120117188 C 415.1514892578125 591.6115112304688 415.5948181152344 590.6648559570312 415.5948181152344 589.4048461914062 C 415.5948181152344 588.511474609375 415.2314758300781 587.73486328125 414.50482177734375 587.0748291015625 C 413.771484375 586.4081420898438 412.29815673828125 585.6314697265625 410.0848083496094 584.7448120117188 C 405.3981628417969 582.9714965820312 401.29815673828125 581.2781982421875 397.7848205566406 579.6648559570312 C 394.271484375 578.0448608398438 391.358154296875 576.2548217773438 389.0448303222656 574.2948608398438 C 386.7314758300781 572.3281860351562 385.00482177734375 570.031494140625 383.86480712890625 567.4048461914062 C 382.7248229980469 564.7781982421875 382.1548156738281 561.59814453125 382.1548156738281 557.8648071289062 C 382.1548156738281 554.3181762695312 382.7081604003906 551.1348266601562 383.8148193359375 548.3148193359375 C 384.92816162109375 545.4948120117188 386.7348327636719 543.088134765625 389.2348327636719 541.0948486328125 C 391.7348327636719 539.0948486328125 395.05816650390625 537.5748291015625 399.204833984375 536.5348510742188 C 403.358154296875 535.4881591796875 408.47149658203125 534.96484375 414.5448303222656 534.96484375 C 420.05816650390625 534.96484375 425.2514953613281 535.5181884765625 430.12481689453125 536.6248168945312 C 435.00482177734375 537.7315063476562 439.0614929199219 539.204833984375 442.2948303222656 541.0447998046875 L 442.2948303222656 558.0448608398438 L 422.3348083496094 558.0448608398438 C 422.3348083496094 556.2114868164062 421.83148193359375 554.9614868164062 420.8248291015625 554.2948608398438 C 419.8048095703125 553.628173828125 418.5681457519531 553.2948608398438 417.11480712890625 553.2948608398438 C 415.021484375 553.2948608398438 413.5181579589844 553.5648193359375 412.6048278808594 554.1048583984375 C 411.684814453125 554.6448364257812 411.2248229980469 555.5781860351562 411.2248229980469 556.9048461914062 C 411.2248229980469 557.98486328125 411.7148132324219 558.7781982421875 412.69482421875 559.2848510742188 C 413.6748046875 559.79150390625 415.1481628417969 560.3615112304688 417.11480712890625 560.9948120117188 C 420.78814697265625 562.19482421875 424.25482177734375 563.4614868164062 427.51483154296875 564.7948608398438 C 430.7748107910156 566.128173828125 433.6414794921875 567.7748413085938 436.11480712890625 569.73486328125 C 438.5881652832031 571.7014770507812 440.5348205566406 574.0781860351562 441.954833984375 576.8648071289062 C 443.3814697265625 579.6514892578125 444.0948181152344 583.0681762695312 444.0948181152344 587.1148071289062 C 444.0948181152344 595.3548583984375 441.434814453125 601.48486328125 436.11480712890625 605.5048217773438 C 430.7948303222656 609.5248413085938 423.00482177734375 611.5348510742188 412.74481201171875 611.5348510742188 C 406.91815185546875 611.5348510742188 401.3148193359375 611.0281372070312 395.934814453125 610.0148315429688 C 390.54815673828125 609.0015258789062 386.2381591796875 607.7981567382812 383.00482177734375 606.4048461914062 L 383.00482177734375 587.5948486328125 L 403.9048156738281 587.5948486328125 C 403.9048156738281 589.4948120117188 404.2848205566406 590.9048461914062 405.0448303222656 591.8248291015625 C 405.8114929199219 592.7448120117188 407.3948059082031 593.204833984375 409.7948303222656 593.204833984375 ZM 447.6654357910156 536.2947998046875 L 488.7054443359375 536.2947998046875 L 488.7054443359375 551.8748168945312 L 479.9654235839844 551.8748168945312 L 479.9654235839844 594.6248168945312 L 488.51544189453125 594.6248168945312 L 488.51544189453125 585.8848266601562 L 507.4254455566406 585.8848266601562 L 507.4254455566406 610.204833984375 L 447.6654357910156 610.204833984375 L 447.6654357910156 594.6248168945312 L 453.3654479980469 594.6248168945312 L 453.3654479980469 551.8748168945312 L 447.6654357910156 551.8748168945312 L 447.6654357910156 536.2947998046875 ZM 581.7619018554688 551.8748168945312 L 566.8519287109375 571.0648193359375 L 583.19189453125 594.6248168945312 L 586.991943359375 594.6248168945312 L 586.991943359375 610.204833984375 L 558.681884765625 610.204833984375 L 543.6719360351562 584.1748046875 L 543.6719360351562 610.204833984375 L 511.3719177246094 610.204833984375 L 511.3719177246094 594.6248168945312 L 517.0718994140625 594.6248168945312 L 517.0718994140625 551.8748168945312 L 511.3719177246094 551.8748168945312 L 511.3719177246094 536.2947998046875 L 543.6719360351562 536.2947998046875 L 543.6719360351562 561.8448486328125 L 561.0618896484375 536.2947998046875 L 585.5718994140625 536.2947998046875 L 585.5718994140625 551.8748168945312 L 581.7619018554688 551.8748168945312 Z" transform="matrix(0.16072644293308258, 0, 0, 0.16072644293308258, -59.59727096557617, -70.39543914794922)" style="fill: rgb(51, 51, 51); white-space: pre; color: rgb(51, 51, 51);"/></svg>