<?xml version="1.0" encoding="utf-8"?>
<svg id="master-artboard" viewBox="0 0 71 71" xmlns="http://www.w3.org/2000/svg" width="71px" height="71px" version="1.1" style="shape-rendering:geometricPrecision; text-rendering:geometricPrecision; image-rendering:optimizeQuality; fill-rule:evenodd; clip-rule:evenodd"><rect id="ee-background" x="0" y="0" width="71" height="71" style="fill: white; fill-opacity: 0; pointer-events: none;"/><g transform="matrix(0.354999885559082, 0, 0, 0.354999885559082, 0, 0.000011444091796875)"><g>
	<path class="st0" d="M163.6,174H113v-10.8h47.3c3.5,0,6.3-2.8,6.3-6.3v-6.7c0-3.5-2.8-6.3-6.3-6.3h-33.5c-3.5,0-6.3,2.8-6.3,6.3&#10;&#9;&#9;v7.1H113V69.5h10.8v17.1c0,0,0,0,0,0.1c0,0.4,0.1,0.7,0.2,1l5.8,14.6c1,2.4,3.2,4,5.8,4c0,0,0,0,0,0h4.8v23.8&#10;&#9;&#9;c0,1.6,1.3,2.9,2.9,2.9c1.6,0,2.9-1.3,2.9-2.9v-23.8h4.8c0,0,0,0,0,0c2.6,0,4.9-1.6,5.8-4l5.8-14.6c0.1-0.4,0.2-0.7,0.2-1l0-0.2&#10;&#9;&#9;l0-64.7l0.2-0.1c1.9-1.1,3.1-3.2,3.1-5.4V9.6c0-5.3-4.3-9.6-9.6-9.6H36.4c-5.3,0-9.6,4.3-9.6,9.6v6.7c0,3.5,2.8,6.3,6.3,6.3h47.3&#10;&#9;&#9;v7.5H33.1c-3.5,0-6.3,2.8-6.3,6.3v20.1c0,3.5,2.8,6.3,6.3,6.3h0.4v17.1c0,5.3,4.3,9.6,9.6,9.6h20.1c5.3,0,9.6-4.3,9.6-9.6V62.8h7.5&#10;&#9;&#9;v0.4c0,3.5,2.8,6.3,6.3,6.3H87V174H36.4c-5.3,0-9.6,4.3-9.6,9.6v13.4c0,1.6,1.3,2.9,2.9,2.9h140.6c1.6,0,2.9-1.3,2.9-2.9v-13.4&#10;&#9;&#9;C173.2,178.4,168.9,174,163.6,174z M126.4,149.8h34.3v7.5h-34.3V149.8z M66.9,79.9c0,2.1-1.7,3.7-3.7,3.7H43.1&#10;&#9;&#9;c-2.1,0-3.7-1.7-3.7-3.7V62.8h27.6V79.9z M80.3,56.9H32.7V36h47.7V56.9z M151.6,100.4h-16.1l-4.3-10.8h24.8L151.6,100.4z&#10;&#9;&#9; M157.3,83.7h-27.6V69.5h27.6V83.7z M32.7,16.7V9.6c0-2.1,1.7-3.7,3.7-3.7h120.5c2.1,0,3.7,1.7,3.7,3.7v7.1H32.7z M86.2,63.6v-41&#10;&#9;&#9;h71.1v41H86.2z M107.1,69.5V174H92.9V69.5H107.1z M167.3,194.1H32.7v-10.4c0-2.1,1.7-3.7,3.7-3.7h127.2c2.1,0,3.7,1.7,3.7,3.7&#10;&#9;&#9;V194.1z" style="fill: rgb(103, 114, 140);"/>
	<path class="st0" d="M106.7,30.1H100c-1.6,0-2.9,1.3-2.9,2.9c0,1.6,1.3,2.9,2.9,2.9h6.7c1.6,0,2.9-1.3,2.9-2.9&#10;&#9;&#9;C109.6,31.4,108.3,30.1,106.7,30.1z" style="fill: rgb(103, 114, 140);"/>
	<path class="st0" d="M143.5,30.1h-23.4c-1.6,0-2.9,1.3-2.9,2.9c0,1.6,1.3,2.9,2.9,2.9h23.4c1.6,0,2.9-1.3,2.9-2.9&#10;&#9;&#9;C146.5,31.4,145.1,30.1,143.5,30.1z" style="fill: rgb(103, 114, 140);"/>
	<path class="st0" d="M69.9,43.5H43.1c-1.6,0-2.9,1.3-2.9,2.9s1.3,2.9,2.9,2.9h26.8c1.6,0,2.9-1.3,2.9-2.9S71.5,43.5,69.9,43.5z" style="fill: rgb(103, 114, 140);"/>
	<path class="st0" d="M49.8,76.2h6.7c1.6,0,2.9-1.3,2.9-2.9c0-1.6-1.3-2.9-2.9-2.9h-6.7c-1.6,0-2.9,1.3-2.9,2.9&#10;&#9;&#9;C46.9,74.9,48.2,76.2,49.8,76.2z" style="fill: rgb(103, 114, 140);"/>
</g></g></svg>