<?xml version="1.0" encoding="utf-8"?>
<svg id="master-artboard" viewBox="0 0 20 20" xmlns="http://www.w3.org/2000/svg" width="20px" height="20px" version="1.1" style="shape-rendering:geometricPrecision; text-rendering:geometricPrecision; image-rendering:optimizeQuality; fill-rule:evenodd; clip-rule:evenodd"><rect id="ee-background" x="0" y="0" width="20" height="20" style="fill: white; fill-opacity: 0; pointer-events: none;"/><g transform="matrix(0.0390624962747097, 0, 0, 0.0390624962747097, 0.00000286102294921875, 0)"><path d="M 0 85.331001 H 512 V 426.668007 H 0 V 85.331001 Z" style="fill:#F0F0F0;"/><g>
	<path d="M 0 127.994003 H 512 V 170.657001 H 0 V 127.994003 Z" style="fill:#D80027;"/>
	<path d="M 0 213.330994 H 512 V 255.993992 H 0 V 213.330994 Z" style="fill:#D80027;"/>
	<path d="M 0 298.657013 H 512 V 341.320011 H 0 V 298.657013 Z" style="fill:#D80027;"/>
	<path d="M 0 383.993988 H 512 V 426.656986 H 0 V 383.993988 Z" style="fill:#D80027;"/>
</g><path d="M 0 85.331001 H 256 V 269.127998 H 0 V 85.331001 Z" style="fill:#2E52B2;"/><g>
	<path d="M 99.8219985961914 160.62399291992188 L 95.6989974975586 173.30799865722656 L 82.36299896240234 173.30799865722656 L 93.15399932861328 181.14300537109375 L 89.03099822998047 193.8260040283203 L 99.8219985961914 185.99099731445312 L 110.60600280761719 193.8260040283203 L 106.48400115966797 181.14300537109375 L 117.2750015258789 173.30799865722656 L 103.93800354003906 173.30799865722656 Z" style="fill:#F0F0F0;"/>
	<path d="M 103.93800354003906 219.0800018310547 L 99.8219985961914 206.39700317382812 L 95.6989974975586 219.0800018310547 L 82.36299896240234 219.0800018310547 L 93.15399932861328 226.91600036621094 L 89.03099822998047 239.5989990234375 L 99.8219985961914 231.76300048828125 L 110.60600280761719 239.5989990234375 L 106.48400115966797 226.91600036621094 L 117.2750015258789 219.0800018310547 Z" style="fill:#F0F0F0;"/>
	<path d="M 47.57699966430664 219.0800018310547 L 43.459999084472656 206.39700317382812 L 39.33700180053711 219.0800018310547 L 26.000999450683594 219.0800018310547 L 36.79199981689453 226.91600036621094 L 32.66899871826172 239.5989990234375 L 43.459999084472656 231.76300048828125 L 54.244998931884766 239.5989990234375 L 50.12300109863281 226.91600036621094 L 60.9119987487793 219.0800018310547 Z" style="fill:#F0F0F0;"/>
	<path d="M 43.459999084472656 160.62399291992188 L 39.33700180053711 173.30799865722656 L 26.000999450683594 173.30799865722656 L 36.79199981689453 181.14300537109375 L 32.66899871826172 193.8260040283203 L 43.459999084472656 185.99099731445312 L 54.244998931884766 193.8260040283203 L 50.12300109863281 181.14300537109375 L 60.9119987487793 173.30799865722656 L 47.57699966430664 173.30799865722656 Z" style="fill:#F0F0F0;"/>
	<path d="M 99.8219985961914 114.8499984741211 L 95.6989974975586 127.53500366210938 L 82.36299896240234 127.53500366210938 L 93.15399932861328 135.37100219726562 L 89.03099822998047 148.0540008544922 L 99.8219985961914 140.21800231933594 L 110.60600280761719 148.0540008544922 L 106.48400115966797 135.37100219726562 L 117.2750015258789 127.53500366210938 L 103.93800354003906 127.53500366210938 Z" style="fill:#F0F0F0;"/>
	<path d="M 43.459999084472656 114.8499984741211 L 39.33700180053711 127.53500366210938 L 26.000999450683594 127.53500366210938 L 36.79199981689453 135.37100219726562 L 32.66899871826172 148.0540008544922 L 43.459999084472656 140.21800231933594 L 54.244998931884766 148.0540008544922 L 50.12300109863281 135.37100219726562 L 60.9119987487793 127.53500366210938 L 47.57699966430664 127.53500366210938 Z" style="fill:#F0F0F0;"/>
	<path d="M 156.18299865722656 160.62399291992188 L 152.06100463867188 173.30799865722656 L 138.72500610351562 173.30799865722656 L 149.51499938964844 181.14300537109375 L 145.3939971923828 193.8260040283203 L 156.18299865722656 185.99099731445312 L 166.968994140625 193.8260040283203 L 162.8459930419922 181.14300537109375 L 173.63699340820312 173.30799865722656 L 160.30099487304688 173.30799865722656 Z" style="fill:#F0F0F0;"/>
	<path d="M 160.30099487304688 219.0800018310547 L 156.18299865722656 206.39700317382812 L 152.06100463867188 219.0800018310547 L 138.72500610351562 219.0800018310547 L 149.51499938964844 226.91600036621094 L 145.3939971923828 239.5989990234375 L 156.18299865722656 231.76300048828125 L 166.968994140625 239.5989990234375 L 162.8459930419922 226.91600036621094 L 173.63699340820312 219.0800018310547 Z" style="fill:#F0F0F0;"/>
	<path d="M 216.66299438476562 219.0800018310547 L 212.54600524902344 206.39700317382812 L 208.42300415039062 219.0800018310547 L 195.08799743652344 219.0800018310547 L 205.8769989013672 226.91600036621094 L 201.7550048828125 239.5989990234375 L 212.54600524902344 231.76300048828125 L 223.33099365234375 239.5989990234375 L 219.20799255371094 226.91600036621094 L 229.99899291992188 219.0800018310547 Z" style="fill:#F0F0F0;"/>
	<path d="M 212.54600524902344 160.62399291992188 L 208.42300415039062 173.30799865722656 L 195.08799743652344 173.30799865722656 L 205.8769989013672 181.14300537109375 L 201.7550048828125 193.8260040283203 L 212.54600524902344 185.99099731445312 L 223.33099365234375 193.8260040283203 L 219.20799255371094 181.14300537109375 L 229.99899291992188 173.30799865722656 L 216.66299438476562 173.30799865722656 Z" style="fill:#F0F0F0;"/>
	<path d="M 156.18299865722656 114.8499984741211 L 152.06100463867188 127.53500366210938 L 138.72500610351562 127.53500366210938 L 149.51499938964844 135.37100219726562 L 145.3939971923828 148.0540008544922 L 156.18299865722656 140.21800231933594 L 166.968994140625 148.0540008544922 L 162.8459930419922 135.37100219726562 L 173.63699340820312 127.53500366210938 L 160.30099487304688 127.53500366210938 Z" style="fill:#F0F0F0;"/>
	<path d="M 212.54600524902344 114.8499984741211 L 208.42300415039062 127.53500366210938 L 195.08799743652344 127.53500366210938 L 205.8769989013672 135.37100219726562 L 201.7550048828125 148.0540008544922 L 212.54600524902344 140.21800231933594 L 223.33099365234375 148.0540008544922 L 219.20799255371094 135.37100219726562 L 229.99899291992188 127.53500366210938 L 216.66299438476562 127.53500366210938 Z" style="fill:#F0F0F0;"/>
</g><g>
</g><g>
</g><g>
</g><g>
</g><g>
</g><g>
</g><g>
</g><g>
</g><g>
</g><g>
</g><g>
</g><g>
</g><g>
</g><g>
</g><g>
</g></g></svg>